G04 #@! TF.FileFunction,Soldermask,Top*
%FSLAX46Y46*%
G04 Gerber Fmt 4.6, Leading zero omitted, Abs format (unit mm)*
G04 Created by KiCad (PCBNEW 4.0.7) date Sunday, July 22, 2018 'PMt' 03:57:27 PM*
%MOMM*%
%LPD*%
G01*
G04 APERTURE LIST*
%ADD10C,0.100000*%
%ADD11R,2.500000X2.900000*%
%ADD12R,2.500000X1.900000*%
%ADD13R,2.400000X2.100000*%
%ADD14R,2.100000X2.400000*%
%ADD15R,1.950000X1.000000*%
%ADD16C,0.254000*%
G04 APERTURE END LIST*
D10*
D11*
X206695040Y-84191800D03*
D12*
X206695040Y-86851800D03*
D11*
X211023200Y-84166400D03*
D12*
X211023200Y-86826400D03*
D13*
X202025000Y-92735400D03*
X198025000Y-92735400D03*
X202101200Y-95443040D03*
X198101200Y-95443040D03*
D14*
X184825640Y-84055200D03*
X184825640Y-88055200D03*
D15*
X193261000Y-84582000D03*
X193261000Y-85852000D03*
X193261000Y-87122000D03*
X193261000Y-88392000D03*
X198661000Y-88392000D03*
X198661000Y-87122000D03*
X198661000Y-85852000D03*
X198661000Y-84582000D03*
D16*
G36*
X211823354Y-78001943D02*
X215148285Y-79316915D01*
X216976257Y-81842206D01*
X217675746Y-84730096D01*
X216972402Y-89477666D01*
X214967001Y-92445859D01*
X209970558Y-94633681D01*
X208590202Y-94288592D01*
X208585355Y-94287481D01*
X204801155Y-93497429D01*
X202182479Y-90963548D01*
X201036380Y-87620760D01*
X200427109Y-84913997D01*
X201655769Y-82015363D01*
X201656170Y-82014408D01*
X202092695Y-80960726D01*
X203145050Y-79472396D01*
X203555436Y-79062010D01*
X204048338Y-78982207D01*
X204070977Y-78976362D01*
X207510973Y-77740586D01*
X211823354Y-78001943D01*
X211823354Y-78001943D01*
G37*
X211823354Y-78001943D02*
X215148285Y-79316915D01*
X216976257Y-81842206D01*
X217675746Y-84730096D01*
X216972402Y-89477666D01*
X214967001Y-92445859D01*
X209970558Y-94633681D01*
X208590202Y-94288592D01*
X208585355Y-94287481D01*
X204801155Y-93497429D01*
X202182479Y-90963548D01*
X201036380Y-87620760D01*
X200427109Y-84913997D01*
X201655769Y-82015363D01*
X201656170Y-82014408D01*
X202092695Y-80960726D01*
X203145050Y-79472396D01*
X203555436Y-79062010D01*
X204048338Y-78982207D01*
X204070977Y-78976362D01*
X207510973Y-77740586D01*
X211823354Y-78001943D01*
M02*
