G04 #@! TF.FileFunction,Legend,Top*
%FSLAX46Y46*%
G04 Gerber Fmt 4.6, Leading zero omitted, Abs format (unit mm)*
G04 Created by KiCad (PCBNEW 4.0.7) date Wednesday, July 25, 2018 'PMt' 09:51:56 PM*
%MOMM*%
%LPD*%
G01*
G04 APERTURE LIST*
%ADD10C,0.100000*%
%ADD11C,0.250000*%
%ADD12C,0.150000*%
%ADD13C,0.120000*%
%ADD14C,0.500000*%
G04 APERTURE END LIST*
D10*
D11*
X100330476Y-86528762D02*
X100330476Y-84528762D01*
X100806667Y-84528762D01*
X101092381Y-84624000D01*
X101282857Y-84814476D01*
X101378096Y-85004952D01*
X101473334Y-85385905D01*
X101473334Y-85671619D01*
X101378096Y-86052571D01*
X101282857Y-86243048D01*
X101092381Y-86433524D01*
X100806667Y-86528762D01*
X100330476Y-86528762D01*
X103473334Y-86338286D02*
X103378096Y-86433524D01*
X103092381Y-86528762D01*
X102901905Y-86528762D01*
X102616191Y-86433524D01*
X102425715Y-86243048D01*
X102330476Y-86052571D01*
X102235238Y-85671619D01*
X102235238Y-85385905D01*
X102330476Y-85004952D01*
X102425715Y-84814476D01*
X102616191Y-84624000D01*
X102901905Y-84528762D01*
X103092381Y-84528762D01*
X103378096Y-84624000D01*
X103473334Y-84719238D01*
X104140000Y-84528762D02*
X105473334Y-84528762D01*
X104140000Y-86528762D01*
X105473334Y-86528762D01*
X106235238Y-86528762D02*
X106235238Y-84528762D01*
X107092381Y-85957333D02*
X108044762Y-85957333D01*
X106901905Y-86528762D02*
X107568572Y-84528762D01*
X108235239Y-86528762D01*
X100711428Y-87969238D02*
X100806666Y-87874000D01*
X100997143Y-87778762D01*
X101473333Y-87778762D01*
X101663809Y-87874000D01*
X101759047Y-87969238D01*
X101854286Y-88159714D01*
X101854286Y-88350190D01*
X101759047Y-88635905D01*
X100616190Y-89778762D01*
X101854286Y-89778762D01*
X103092381Y-87778762D02*
X103282857Y-87778762D01*
X103473333Y-87874000D01*
X103568571Y-87969238D01*
X103663809Y-88159714D01*
X103759048Y-88540667D01*
X103759048Y-89016857D01*
X103663809Y-89397810D01*
X103568571Y-89588286D01*
X103473333Y-89683524D01*
X103282857Y-89778762D01*
X103092381Y-89778762D01*
X102901905Y-89683524D01*
X102806667Y-89588286D01*
X102711428Y-89397810D01*
X102616190Y-89016857D01*
X102616190Y-88540667D01*
X102711428Y-88159714D01*
X102806667Y-87969238D01*
X102901905Y-87874000D01*
X103092381Y-87778762D01*
X105663810Y-89778762D02*
X104520952Y-89778762D01*
X105092381Y-89778762D02*
X105092381Y-87778762D01*
X104901905Y-88064476D01*
X104711429Y-88254952D01*
X104520952Y-88350190D01*
X106806667Y-88635905D02*
X106616191Y-88540667D01*
X106520952Y-88445429D01*
X106425714Y-88254952D01*
X106425714Y-88159714D01*
X106520952Y-87969238D01*
X106616191Y-87874000D01*
X106806667Y-87778762D01*
X107187619Y-87778762D01*
X107378095Y-87874000D01*
X107473333Y-87969238D01*
X107568572Y-88159714D01*
X107568572Y-88254952D01*
X107473333Y-88445429D01*
X107378095Y-88540667D01*
X107187619Y-88635905D01*
X106806667Y-88635905D01*
X106616191Y-88731143D01*
X106520952Y-88826381D01*
X106425714Y-89016857D01*
X106425714Y-89397810D01*
X106520952Y-89588286D01*
X106616191Y-89683524D01*
X106806667Y-89778762D01*
X107187619Y-89778762D01*
X107378095Y-89683524D01*
X107473333Y-89588286D01*
X107568572Y-89397810D01*
X107568572Y-89016857D01*
X107473333Y-88826381D01*
X107378095Y-88731143D01*
X107187619Y-88635905D01*
D12*
X84801000Y-96055000D02*
X84851000Y-96055000D01*
X84801000Y-91905000D02*
X84946000Y-91905000D01*
X89951000Y-91905000D02*
X89806000Y-91905000D01*
X89951000Y-96055000D02*
X89806000Y-96055000D01*
X84801000Y-96055000D02*
X84801000Y-91905000D01*
X89951000Y-96055000D02*
X89951000Y-91905000D01*
X84851000Y-96055000D02*
X84851000Y-97455000D01*
D13*
X89678000Y-85036000D02*
X91678000Y-85036000D01*
X91678000Y-87176000D02*
X89678000Y-87176000D01*
X101292000Y-99171000D02*
X101292000Y-97171000D01*
X103432000Y-97171000D02*
X103432000Y-99171000D01*
X96123000Y-101527000D02*
X94123000Y-101527000D01*
X94123000Y-99387000D02*
X96123000Y-99387000D01*
X86503000Y-99387000D02*
X88503000Y-99387000D01*
X88503000Y-101527000D02*
X86503000Y-101527000D01*
X80718000Y-94218000D02*
X80718000Y-92218000D01*
X82858000Y-92218000D02*
X82858000Y-94218000D01*
D12*
X100266500Y-95186500D02*
X100266500Y-92519500D01*
X100266500Y-92519500D02*
X99504500Y-91757500D01*
D14*
X97282000Y-91186000D02*
X97282000Y-90678000D01*
D12*
X97091500Y-91186000D02*
X97091500Y-95186500D01*
X94744540Y-95110300D02*
X94744540Y-92443300D01*
X94744540Y-92443300D02*
X93982540Y-91681300D01*
D14*
X91760040Y-91109800D02*
X91760040Y-90601800D01*
D12*
X91569540Y-91109800D02*
X91569540Y-95110300D01*
X83328381Y-94741905D02*
X84137905Y-94741905D01*
X84233143Y-94694286D01*
X84280762Y-94646667D01*
X84328381Y-94551429D01*
X84328381Y-94360952D01*
X84280762Y-94265714D01*
X84233143Y-94218095D01*
X84137905Y-94170476D01*
X83328381Y-94170476D01*
X84328381Y-93170476D02*
X84328381Y-93741905D01*
X84328381Y-93456191D02*
X83328381Y-93456191D01*
X83471238Y-93551429D01*
X83566476Y-93646667D01*
X83614095Y-93741905D01*
X90511334Y-88408381D02*
X90178000Y-87932190D01*
X89939905Y-88408381D02*
X89939905Y-87408381D01*
X90320858Y-87408381D01*
X90416096Y-87456000D01*
X90463715Y-87503619D01*
X90511334Y-87598857D01*
X90511334Y-87741714D01*
X90463715Y-87836952D01*
X90416096Y-87884571D01*
X90320858Y-87932190D01*
X89939905Y-87932190D01*
X90844667Y-87408381D02*
X91463715Y-87408381D01*
X91130381Y-87789333D01*
X91273239Y-87789333D01*
X91368477Y-87836952D01*
X91416096Y-87884571D01*
X91463715Y-87979810D01*
X91463715Y-88217905D01*
X91416096Y-88313143D01*
X91368477Y-88360762D01*
X91273239Y-88408381D01*
X90987524Y-88408381D01*
X90892286Y-88360762D01*
X90844667Y-88313143D01*
X104664381Y-98337666D02*
X104188190Y-98671000D01*
X104664381Y-98909095D02*
X103664381Y-98909095D01*
X103664381Y-98528142D01*
X103712000Y-98432904D01*
X103759619Y-98385285D01*
X103854857Y-98337666D01*
X103997714Y-98337666D01*
X104092952Y-98385285D01*
X104140571Y-98432904D01*
X104188190Y-98528142D01*
X104188190Y-98909095D01*
X103759619Y-97956714D02*
X103712000Y-97909095D01*
X103664381Y-97813857D01*
X103664381Y-97575761D01*
X103712000Y-97480523D01*
X103759619Y-97432904D01*
X103854857Y-97385285D01*
X103950095Y-97385285D01*
X104092952Y-97432904D01*
X104664381Y-98004333D01*
X104664381Y-97385285D01*
X94956334Y-99059381D02*
X94623000Y-98583190D01*
X94384905Y-99059381D02*
X94384905Y-98059381D01*
X94765858Y-98059381D01*
X94861096Y-98107000D01*
X94908715Y-98154619D01*
X94956334Y-98249857D01*
X94956334Y-98392714D01*
X94908715Y-98487952D01*
X94861096Y-98535571D01*
X94765858Y-98583190D01*
X94384905Y-98583190D01*
X95908715Y-99059381D02*
X95337286Y-99059381D01*
X95623000Y-99059381D02*
X95623000Y-98059381D01*
X95527762Y-98202238D01*
X95432524Y-98297476D01*
X95337286Y-98345095D01*
X87336334Y-102759381D02*
X87003000Y-102283190D01*
X86764905Y-102759381D02*
X86764905Y-101759381D01*
X87145858Y-101759381D01*
X87241096Y-101807000D01*
X87288715Y-101854619D01*
X87336334Y-101949857D01*
X87336334Y-102092714D01*
X87288715Y-102187952D01*
X87241096Y-102235571D01*
X87145858Y-102283190D01*
X86764905Y-102283190D01*
X88193477Y-102092714D02*
X88193477Y-102759381D01*
X87955381Y-101711762D02*
X87717286Y-102426048D01*
X88336334Y-102426048D01*
X84090381Y-93384666D02*
X83614190Y-93718000D01*
X84090381Y-93956095D02*
X83090381Y-93956095D01*
X83090381Y-93575142D01*
X83138000Y-93479904D01*
X83185619Y-93432285D01*
X83280857Y-93384666D01*
X83423714Y-93384666D01*
X83518952Y-93432285D01*
X83566571Y-93479904D01*
X83614190Y-93575142D01*
X83614190Y-93956095D01*
X83090381Y-92479904D02*
X83090381Y-92956095D01*
X83566571Y-93003714D01*
X83518952Y-92956095D01*
X83471333Y-92860857D01*
X83471333Y-92622761D01*
X83518952Y-92527523D01*
X83566571Y-92479904D01*
X83661810Y-92432285D01*
X83899905Y-92432285D01*
X83995143Y-92479904D01*
X84042762Y-92527523D01*
X84090381Y-92622761D01*
X84090381Y-92860857D01*
X84042762Y-92956095D01*
X83995143Y-93003714D01*
D10*
X92241000Y-79785333D02*
X92341000Y-79818667D01*
X92507667Y-79818667D01*
X92574334Y-79785333D01*
X92607667Y-79752000D01*
X92641000Y-79685333D01*
X92641000Y-79618667D01*
X92607667Y-79552000D01*
X92574334Y-79518667D01*
X92507667Y-79485333D01*
X92374334Y-79452000D01*
X92307667Y-79418667D01*
X92274334Y-79385333D01*
X92241000Y-79318667D01*
X92241000Y-79252000D01*
X92274334Y-79185333D01*
X92307667Y-79152000D01*
X92374334Y-79118667D01*
X92541000Y-79118667D01*
X92641000Y-79152000D01*
X92941001Y-79818667D02*
X92941001Y-79118667D01*
X93107667Y-79118667D01*
X93207667Y-79152000D01*
X93274334Y-79218667D01*
X93307667Y-79285333D01*
X93341001Y-79418667D01*
X93341001Y-79518667D01*
X93307667Y-79652000D01*
X93274334Y-79718667D01*
X93207667Y-79785333D01*
X93107667Y-79818667D01*
X92941001Y-79818667D01*
X93607667Y-79618667D02*
X93941001Y-79618667D01*
X93541001Y-79818667D02*
X93774334Y-79118667D01*
X94007667Y-79818667D01*
X92257666Y-84865333D02*
X92357666Y-84898667D01*
X92524333Y-84898667D01*
X92591000Y-84865333D01*
X92624333Y-84832000D01*
X92657666Y-84765333D01*
X92657666Y-84698667D01*
X92624333Y-84632000D01*
X92591000Y-84598667D01*
X92524333Y-84565333D01*
X92391000Y-84532000D01*
X92324333Y-84498667D01*
X92291000Y-84465333D01*
X92257666Y-84398667D01*
X92257666Y-84332000D01*
X92291000Y-84265333D01*
X92324333Y-84232000D01*
X92391000Y-84198667D01*
X92557666Y-84198667D01*
X92657666Y-84232000D01*
X93357667Y-84832000D02*
X93324333Y-84865333D01*
X93224333Y-84898667D01*
X93157667Y-84898667D01*
X93057667Y-84865333D01*
X92991000Y-84798667D01*
X92957667Y-84732000D01*
X92924333Y-84598667D01*
X92924333Y-84498667D01*
X92957667Y-84365333D01*
X92991000Y-84298667D01*
X93057667Y-84232000D01*
X93157667Y-84198667D01*
X93224333Y-84198667D01*
X93324333Y-84232000D01*
X93357667Y-84265333D01*
X93991000Y-84898667D02*
X93657667Y-84898667D01*
X93657667Y-84198667D01*
X97637667Y-84232000D02*
X97571001Y-84198667D01*
X97471001Y-84198667D01*
X97371001Y-84232000D01*
X97304334Y-84298667D01*
X97271001Y-84365333D01*
X97237667Y-84498667D01*
X97237667Y-84598667D01*
X97271001Y-84732000D01*
X97304334Y-84798667D01*
X97371001Y-84865333D01*
X97471001Y-84898667D01*
X97537667Y-84898667D01*
X97637667Y-84865333D01*
X97671001Y-84832000D01*
X97671001Y-84598667D01*
X97537667Y-84598667D01*
X97971001Y-84898667D02*
X97971001Y-84198667D01*
X98371001Y-84898667D01*
X98371001Y-84198667D01*
X98704334Y-84898667D02*
X98704334Y-84198667D01*
X98871000Y-84198667D01*
X98971000Y-84232000D01*
X99037667Y-84298667D01*
X99071000Y-84365333D01*
X99104334Y-84498667D01*
X99104334Y-84598667D01*
X99071000Y-84732000D01*
X99037667Y-84798667D01*
X98971000Y-84865333D01*
X98871000Y-84898667D01*
X98704334Y-84898667D01*
X97237667Y-79118667D02*
X97471000Y-79818667D01*
X97704333Y-79118667D01*
X98337667Y-79752000D02*
X98304333Y-79785333D01*
X98204333Y-79818667D01*
X98137667Y-79818667D01*
X98037667Y-79785333D01*
X97971000Y-79718667D01*
X97937667Y-79652000D01*
X97904333Y-79518667D01*
X97904333Y-79418667D01*
X97937667Y-79285333D01*
X97971000Y-79218667D01*
X98037667Y-79152000D01*
X98137667Y-79118667D01*
X98204333Y-79118667D01*
X98304333Y-79152000D01*
X98337667Y-79185333D01*
X99037667Y-79752000D02*
X99004333Y-79785333D01*
X98904333Y-79818667D01*
X98837667Y-79818667D01*
X98737667Y-79785333D01*
X98671000Y-79718667D01*
X98637667Y-79652000D01*
X98604333Y-79518667D01*
X98604333Y-79418667D01*
X98637667Y-79285333D01*
X98671000Y-79218667D01*
X98737667Y-79152000D01*
X98837667Y-79118667D01*
X98904333Y-79118667D01*
X99004333Y-79152000D01*
X99037667Y-79185333D01*
D12*
X96591381Y-93956095D02*
X95591381Y-93956095D01*
X95591381Y-93718000D01*
X95639000Y-93575142D01*
X95734238Y-93479904D01*
X95829476Y-93432285D01*
X96019952Y-93384666D01*
X96162810Y-93384666D01*
X96353286Y-93432285D01*
X96448524Y-93479904D01*
X96543762Y-93575142D01*
X96591381Y-93718000D01*
X96591381Y-93956095D01*
X95686619Y-93003714D02*
X95639000Y-92956095D01*
X95591381Y-92860857D01*
X95591381Y-92622761D01*
X95639000Y-92527523D01*
X95686619Y-92479904D01*
X95781857Y-92432285D01*
X95877095Y-92432285D01*
X96019952Y-92479904D01*
X96591381Y-93051333D01*
X96591381Y-92432285D01*
X91069421Y-93879895D02*
X90069421Y-93879895D01*
X90069421Y-93641800D01*
X90117040Y-93498942D01*
X90212278Y-93403704D01*
X90307516Y-93356085D01*
X90497992Y-93308466D01*
X90640850Y-93308466D01*
X90831326Y-93356085D01*
X90926564Y-93403704D01*
X91021802Y-93498942D01*
X91069421Y-93641800D01*
X91069421Y-93879895D01*
X91069421Y-92356085D02*
X91069421Y-92927514D01*
X91069421Y-92641800D02*
X90069421Y-92641800D01*
X90212278Y-92737038D01*
X90307516Y-92832276D01*
X90355135Y-92927514D01*
M02*
