G04 #@! TF.FileFunction,Legend,Bot*
%FSLAX46Y46*%
G04 Gerber Fmt 4.6, Leading zero omitted, Abs format (unit mm)*
G04 Created by KiCad (PCBNEW 4.0.7) date Sunday, July 22, 2018 'PMt' 04:02:02 PM*
%MOMM*%
%LPD*%
G01*
G04 APERTURE LIST*
%ADD10C,0.100000*%
%ADD11C,0.250000*%
%ADD12C,0.010000*%
G04 APERTURE END LIST*
D10*
D11*
X210555602Y-74213981D02*
X210555602Y-73213981D01*
X210317507Y-73213981D01*
X210174649Y-73261600D01*
X210079411Y-73356838D01*
X210031792Y-73452076D01*
X209984173Y-73642552D01*
X209984173Y-73785410D01*
X210031792Y-73975886D01*
X210079411Y-74071124D01*
X210174649Y-74166362D01*
X210317507Y-74213981D01*
X210555602Y-74213981D01*
X208984173Y-74118743D02*
X209031792Y-74166362D01*
X209174649Y-74213981D01*
X209269887Y-74213981D01*
X209412745Y-74166362D01*
X209507983Y-74071124D01*
X209555602Y-73975886D01*
X209603221Y-73785410D01*
X209603221Y-73642552D01*
X209555602Y-73452076D01*
X209507983Y-73356838D01*
X209412745Y-73261600D01*
X209269887Y-73213981D01*
X209174649Y-73213981D01*
X209031792Y-73261600D01*
X208984173Y-73309219D01*
X208650840Y-73213981D02*
X207984173Y-73213981D01*
X208650840Y-74213981D01*
X207984173Y-74213981D01*
X207603221Y-74213981D02*
X207603221Y-73213981D01*
X207174650Y-73928267D02*
X206698459Y-73928267D01*
X207269888Y-74213981D02*
X206936555Y-73213981D01*
X206603221Y-74213981D01*
D12*
G36*
X209841055Y-74649162D02*
X210364914Y-74660535D01*
X210776358Y-74683146D01*
X211119169Y-74721147D01*
X211437130Y-74778695D01*
X211774021Y-74859943D01*
X211963371Y-74910786D01*
X213443272Y-75411406D01*
X214811826Y-76070266D01*
X216059086Y-76881688D01*
X217175108Y-77839991D01*
X217285396Y-77950040D01*
X218193809Y-78958882D01*
X218946594Y-80001103D01*
X219577140Y-81129259D01*
X220118837Y-82395911D01*
X220131866Y-82430708D01*
X220266505Y-82774636D01*
X220365266Y-82993844D01*
X220416679Y-83065110D01*
X220417137Y-83034000D01*
X221361000Y-83034000D01*
X221411000Y-83084000D01*
X221461000Y-83034000D01*
X221411000Y-82984000D01*
X221361000Y-83034000D01*
X220417137Y-83034000D01*
X220417506Y-83009000D01*
X220365999Y-82684000D01*
X220805166Y-82684000D01*
X221101901Y-82711167D01*
X221275890Y-82782644D01*
X221294771Y-82809000D01*
X221339572Y-82855372D01*
X221353105Y-82774977D01*
X221326267Y-82612707D01*
X221247827Y-82314854D01*
X221132328Y-81934581D01*
X221076487Y-81763741D01*
X220791974Y-80911529D01*
X221021897Y-80772020D01*
X221251820Y-80632510D01*
X220923490Y-79980151D01*
X220161576Y-78659188D01*
X219428215Y-77660412D01*
X219202576Y-77378501D01*
X219036779Y-77162014D01*
X218962339Y-77052283D01*
X218961000Y-77047669D01*
X219030616Y-76968789D01*
X219218118Y-76787878D01*
X219491485Y-76535296D01*
X219697108Y-76349699D01*
X220040873Y-76047612D01*
X220277501Y-75861316D01*
X220445462Y-75769495D01*
X220583226Y-75750834D01*
X220722108Y-75781750D01*
X220931503Y-75848168D01*
X221120479Y-75906853D01*
X221302142Y-75958288D01*
X221489599Y-76002957D01*
X221695956Y-76041342D01*
X221934320Y-76073928D01*
X222217795Y-76101198D01*
X222559490Y-76123634D01*
X222972510Y-76141722D01*
X223469961Y-76155943D01*
X224064949Y-76166781D01*
X224770581Y-76174720D01*
X225599964Y-76180244D01*
X226566202Y-76183834D01*
X227682403Y-76185976D01*
X228961673Y-76187152D01*
X230417118Y-76187845D01*
X231747483Y-76188391D01*
X233395379Y-76190210D01*
X234932189Y-76194058D01*
X236348455Y-76199841D01*
X237634717Y-76207462D01*
X238781515Y-76216826D01*
X239779391Y-76227837D01*
X240618884Y-76240401D01*
X241290535Y-76254422D01*
X241784886Y-76269804D01*
X242092475Y-76286452D01*
X242161000Y-76293431D01*
X242792859Y-76376895D01*
X243261253Y-76432645D01*
X243600790Y-76460659D01*
X243846079Y-76460915D01*
X244031728Y-76433389D01*
X244192345Y-76378057D01*
X244362539Y-76294897D01*
X244368183Y-76291957D01*
X244629194Y-76164756D01*
X244802651Y-76128681D01*
X244976779Y-76179446D01*
X245128358Y-76255034D01*
X245393228Y-76439643D01*
X245587885Y-76656148D01*
X245603937Y-76684146D01*
X245842140Y-77280080D01*
X245894522Y-77817602D01*
X245757363Y-78320999D01*
X245426944Y-78814559D01*
X245248292Y-79006231D01*
X244770523Y-79484000D01*
X233915761Y-79484000D01*
X232460584Y-79484468D01*
X231062701Y-79485833D01*
X229734963Y-79488033D01*
X228490220Y-79491006D01*
X227341322Y-79494691D01*
X226301119Y-79499026D01*
X225382461Y-79503949D01*
X224598198Y-79509399D01*
X223961182Y-79515316D01*
X223484261Y-79521636D01*
X223180286Y-79528298D01*
X223062107Y-79535241D01*
X223061000Y-79535987D01*
X223095920Y-79648345D01*
X223187322Y-79892004D01*
X223311000Y-80203227D01*
X223440267Y-80546827D01*
X223530584Y-80835550D01*
X223561000Y-80994097D01*
X223628215Y-81205115D01*
X223718142Y-81326857D01*
X223758289Y-81352077D01*
X223832809Y-81374484D01*
X223952864Y-81394244D01*
X224129617Y-81411521D01*
X224374229Y-81426480D01*
X224697862Y-81439284D01*
X225111680Y-81450100D01*
X225626843Y-81459092D01*
X226254515Y-81466423D01*
X227005857Y-81472260D01*
X227892032Y-81476766D01*
X228924201Y-81480107D01*
X230113528Y-81482447D01*
X231471173Y-81483950D01*
X233008300Y-81484782D01*
X234443142Y-81485082D01*
X236147014Y-81485508D01*
X237662415Y-81486526D01*
X239000875Y-81488304D01*
X240173924Y-81491006D01*
X241193091Y-81494799D01*
X242069906Y-81499849D01*
X242815897Y-81506322D01*
X243442595Y-81514383D01*
X243961529Y-81524198D01*
X244384228Y-81535935D01*
X244722221Y-81549757D01*
X244987039Y-81565832D01*
X245190209Y-81584325D01*
X245343263Y-81605403D01*
X245457729Y-81629230D01*
X245511000Y-81644382D01*
X245812446Y-81712071D01*
X246265023Y-81770085D01*
X246882623Y-81819664D01*
X247679141Y-81862053D01*
X248161000Y-81881385D01*
X248822068Y-81910417D01*
X249437726Y-81946407D01*
X249971877Y-81986543D01*
X250388427Y-82028013D01*
X250651281Y-82068005D01*
X250692545Y-82078594D01*
X251219931Y-82143459D01*
X251754983Y-82010858D01*
X252034987Y-81865682D01*
X252253984Y-81742879D01*
X252398137Y-81725559D01*
X252563315Y-81815009D01*
X252646791Y-81873882D01*
X253060712Y-82277308D01*
X253322910Y-82765191D01*
X253428814Y-83296952D01*
X253373850Y-83832013D01*
X253153446Y-84329793D01*
X252951893Y-84581439D01*
X252661332Y-84840936D01*
X252380492Y-84979145D01*
X252089963Y-85037028D01*
X251933309Y-85044518D01*
X251588704Y-85052005D01*
X251068198Y-85059423D01*
X250383841Y-85066704D01*
X249547683Y-85073780D01*
X248571773Y-85080583D01*
X247468160Y-85087045D01*
X246248894Y-85093099D01*
X244926025Y-85098676D01*
X243511603Y-85103710D01*
X242017676Y-85108131D01*
X240456295Y-85111872D01*
X238839510Y-85114865D01*
X238061000Y-85115998D01*
X224511000Y-85134000D01*
X224490247Y-85784000D01*
X224471541Y-86170111D01*
X224444066Y-86512056D01*
X224419491Y-86700278D01*
X224425680Y-86943317D01*
X224497209Y-87072554D01*
X224599489Y-87089494D01*
X224866114Y-87105242D01*
X225300176Y-87119829D01*
X225904770Y-87133285D01*
X226682991Y-87145639D01*
X227637933Y-87156921D01*
X228772689Y-87167160D01*
X230090356Y-87176387D01*
X231594025Y-87184630D01*
X233286793Y-87191921D01*
X235171754Y-87198288D01*
X237252001Y-87203761D01*
X238417964Y-87206276D01*
X252211000Y-87234000D01*
X252582771Y-87466972D01*
X253018541Y-87831850D01*
X253286506Y-88285638D01*
X253398593Y-88851512D01*
X253403473Y-89061454D01*
X253368457Y-89509224D01*
X253253154Y-89856791D01*
X253024595Y-90167398D01*
X252652313Y-90502258D01*
X252306568Y-90782093D01*
X238069676Y-90808046D01*
X236081224Y-90811853D01*
X234283356Y-90815742D01*
X232666657Y-90819828D01*
X231221709Y-90824229D01*
X229939097Y-90829058D01*
X228809406Y-90834433D01*
X227823219Y-90840468D01*
X226971119Y-90847280D01*
X226243692Y-90854983D01*
X225631521Y-90863695D01*
X225125190Y-90873530D01*
X224715283Y-90884605D01*
X224392385Y-90897035D01*
X224147078Y-90910935D01*
X223969948Y-90926422D01*
X223851578Y-90943612D01*
X223782552Y-90962619D01*
X223753454Y-90983560D01*
X223753215Y-90984000D01*
X223575509Y-91344400D01*
X223403493Y-91736137D01*
X223255144Y-92112224D01*
X223148443Y-92425671D01*
X223101368Y-92629488D01*
X223105900Y-92675749D01*
X223189447Y-92694791D01*
X223418750Y-92711832D01*
X223798999Y-92726925D01*
X224335386Y-92740122D01*
X225033100Y-92751476D01*
X225897331Y-92761040D01*
X226933270Y-92768866D01*
X228146107Y-92775008D01*
X229541031Y-92779518D01*
X231123233Y-92782448D01*
X232897904Y-92783852D01*
X233761000Y-92784000D01*
X235228451Y-92784806D01*
X236632206Y-92787157D01*
X237959698Y-92790949D01*
X239198361Y-92796079D01*
X240335627Y-92802446D01*
X241358931Y-92809945D01*
X242255706Y-92818475D01*
X243013386Y-92827932D01*
X243619404Y-92838213D01*
X244061193Y-92849216D01*
X244326188Y-92860837D01*
X244403017Y-92871083D01*
X244531751Y-92952503D01*
X244738421Y-93014484D01*
X245071326Y-93168004D01*
X245394937Y-93464005D01*
X245661683Y-93848667D01*
X245815617Y-94233190D01*
X245878648Y-94827603D01*
X245759972Y-95367360D01*
X245465290Y-95827867D01*
X245439722Y-95854944D01*
X245352990Y-95947661D01*
X245274347Y-96030810D01*
X245193008Y-96104911D01*
X245098188Y-96170485D01*
X244979101Y-96228050D01*
X244824962Y-96278127D01*
X244624987Y-96321235D01*
X244368390Y-96357895D01*
X244044385Y-96388626D01*
X243642188Y-96413948D01*
X243151014Y-96434380D01*
X242560076Y-96450443D01*
X241858591Y-96462656D01*
X241035773Y-96471539D01*
X240080836Y-96477612D01*
X238982996Y-96481394D01*
X237731467Y-96483406D01*
X236315464Y-96484168D01*
X234724203Y-96484198D01*
X232946897Y-96484017D01*
X232387549Y-96484000D01*
X220549725Y-96484000D01*
X219950363Y-97134000D01*
X219230681Y-96350017D01*
X218511000Y-95566035D01*
X218267164Y-95826512D01*
X218023329Y-96086989D01*
X218417164Y-96504579D01*
X218710196Y-96812299D01*
X219010564Y-97123195D01*
X219138327Y-97253578D01*
X219465654Y-97584987D01*
X219438327Y-109663568D01*
X219411000Y-121742150D01*
X219083830Y-122155204D01*
X218668564Y-122554629D01*
X218170695Y-122839528D01*
X217653276Y-122976629D01*
X217513213Y-122984000D01*
X217071332Y-122899730D01*
X216613286Y-122672464D01*
X216207327Y-122340517D01*
X216061000Y-122168773D01*
X215811000Y-121834000D01*
X215784684Y-111009000D01*
X215779930Y-109235372D01*
X215774686Y-107652535D01*
X215768824Y-106251281D01*
X215762216Y-105022400D01*
X215754735Y-103956684D01*
X215746253Y-103044923D01*
X215736642Y-102277910D01*
X215725775Y-101646436D01*
X215713525Y-101141291D01*
X215699763Y-100753268D01*
X215684363Y-100473156D01*
X215667196Y-100291749D01*
X215648135Y-100199836D01*
X215634684Y-100183722D01*
X215473306Y-100223918D01*
X215215719Y-100325138D01*
X215111000Y-100372813D01*
X214746452Y-100527113D01*
X214346238Y-100671281D01*
X214261000Y-100698090D01*
X213811000Y-100834000D01*
X213711000Y-129234000D01*
X213484447Y-129598315D01*
X213253308Y-129896977D01*
X212960603Y-130186215D01*
X212884447Y-130247988D01*
X212627484Y-130417538D01*
X212373193Y-130503806D01*
X212033714Y-130532469D01*
X211906955Y-130533673D01*
X211537664Y-130519523D01*
X211277403Y-130457292D01*
X211036118Y-130318041D01*
X210889825Y-130206830D01*
X210588270Y-129907383D01*
X210319172Y-129541876D01*
X210243870Y-129406830D01*
X210011000Y-128934000D01*
X209959374Y-101534000D01*
X208190200Y-101597442D01*
X208123125Y-102867976D01*
X208114697Y-103129045D01*
X208106697Y-103576451D01*
X208099185Y-104196529D01*
X208092221Y-104975617D01*
X208085862Y-105900052D01*
X208080168Y-106956171D01*
X208075199Y-108130309D01*
X208071012Y-109408804D01*
X208067668Y-110777993D01*
X208065224Y-112224212D01*
X208063741Y-113733798D01*
X208063277Y-115293088D01*
X208063712Y-116621625D01*
X208071374Y-129104739D01*
X207828705Y-129569369D01*
X207512690Y-129991039D01*
X207084022Y-130311312D01*
X206592606Y-130509186D01*
X206088344Y-130563658D01*
X205673726Y-130476343D01*
X205268348Y-130248106D01*
X204905782Y-129928086D01*
X204646739Y-129575105D01*
X204578091Y-129414786D01*
X204560319Y-129305336D01*
X204544008Y-129091063D01*
X204529087Y-128764852D01*
X204515487Y-128319591D01*
X204503136Y-127748165D01*
X204491965Y-127043461D01*
X204481904Y-126198365D01*
X204472882Y-125205764D01*
X204464829Y-124058544D01*
X204457675Y-122749591D01*
X204451350Y-121271792D01*
X204445783Y-119618033D01*
X204440905Y-117781200D01*
X204436644Y-115754181D01*
X204435175Y-114934000D01*
X204411000Y-100834000D01*
X203961000Y-100696670D01*
X203643848Y-100589851D01*
X203288594Y-100447295D01*
X202840830Y-100246335D01*
X202536000Y-100102978D01*
X202525818Y-100195896D01*
X202516043Y-100475851D01*
X202506768Y-100929881D01*
X202498085Y-101545024D01*
X202490086Y-102308315D01*
X202482864Y-103206794D01*
X202476510Y-104227498D01*
X202471117Y-105357463D01*
X202466778Y-106583728D01*
X202463584Y-107893329D01*
X202461627Y-109273305D01*
X202461000Y-110639064D01*
X202460428Y-112439198D01*
X202458647Y-114048114D01*
X202455561Y-115474589D01*
X202451072Y-116727401D01*
X202445084Y-117815331D01*
X202437499Y-118747154D01*
X202428221Y-119531650D01*
X202417152Y-120177598D01*
X202404196Y-120693774D01*
X202389255Y-121088958D01*
X202372233Y-121371928D01*
X202353032Y-121551463D01*
X202339735Y-121615541D01*
X202084116Y-122142083D01*
X201686341Y-122556447D01*
X201183203Y-122835771D01*
X200611493Y-122957198D01*
X200209614Y-122939019D01*
X199730667Y-122771826D01*
X199306445Y-122444199D01*
X198975229Y-121995024D01*
X198780746Y-121487510D01*
X198761182Y-121348786D01*
X198743629Y-121105749D01*
X198728009Y-120750437D01*
X198714244Y-120274890D01*
X198702256Y-119671144D01*
X198691968Y-118931239D01*
X198683302Y-118047211D01*
X198676179Y-117011100D01*
X198670522Y-115814943D01*
X198666254Y-114450778D01*
X198663296Y-112910644D01*
X198661570Y-111186578D01*
X198661000Y-109270618D01*
X198661000Y-99126518D01*
X205585148Y-99126518D01*
X205647473Y-99173946D01*
X205846380Y-99254005D01*
X206125159Y-99347961D01*
X206427099Y-99437084D01*
X206695490Y-99502641D01*
X206761000Y-99514914D01*
X207099537Y-99562534D01*
X207294783Y-99562278D01*
X207397670Y-99513986D01*
X207398756Y-99512910D01*
X207339346Y-99465258D01*
X207121582Y-99395199D01*
X206784255Y-99313984D01*
X206546049Y-99265617D01*
X206142297Y-99192991D01*
X205819634Y-99143220D01*
X205623132Y-99122831D01*
X205585148Y-99126518D01*
X198661000Y-99126518D01*
X198661000Y-99034000D01*
X205361000Y-99034000D01*
X205411000Y-99084000D01*
X205461000Y-99034000D01*
X205411000Y-98984000D01*
X205361000Y-99034000D01*
X198661000Y-99034000D01*
X198661000Y-97634000D01*
X202161000Y-97634000D01*
X202211000Y-97684000D01*
X202261000Y-97634000D01*
X202211000Y-97584000D01*
X202161000Y-97634000D01*
X198661000Y-97634000D01*
X198661000Y-97534000D01*
X201961000Y-97534000D01*
X202011000Y-97584000D01*
X202061000Y-97534000D01*
X202011000Y-97484000D01*
X201961000Y-97534000D01*
X198661000Y-97534000D01*
X198661000Y-97500681D01*
X198111000Y-97085655D01*
X198394617Y-96826422D01*
X200921929Y-96826422D01*
X201040059Y-96970249D01*
X201268910Y-97151385D01*
X201397053Y-97233977D01*
X201693286Y-97404205D01*
X201851122Y-97478306D01*
X201858548Y-97451349D01*
X201806000Y-97401793D01*
X201503440Y-97153572D01*
X201232762Y-96955205D01*
X201028337Y-96829064D01*
X200924538Y-96797518D01*
X200921929Y-96826422D01*
X198394617Y-96826422D01*
X198611000Y-96628643D01*
X198928887Y-96344609D01*
X199242857Y-96074551D01*
X199440239Y-95912712D01*
X199769479Y-95653794D01*
X199495710Y-95368040D01*
X199221940Y-95082287D01*
X198516470Y-95787642D01*
X197811000Y-96492998D01*
X185860945Y-96487326D01*
X183917046Y-96485560D01*
X182124383Y-96482203D01*
X180487692Y-96477296D01*
X179011708Y-96470881D01*
X177701168Y-96462996D01*
X176560806Y-96453683D01*
X175595358Y-96442982D01*
X174809561Y-96430933D01*
X174208149Y-96417577D01*
X173795859Y-96402955D01*
X173577425Y-96387106D01*
X173550617Y-96382177D01*
X173064854Y-96154520D01*
X172693841Y-95795391D01*
X172446759Y-95343188D01*
X172332790Y-94836309D01*
X172361117Y-94313150D01*
X172540921Y-93812110D01*
X172840235Y-93411431D01*
X172934796Y-93313274D01*
X173018669Y-93225893D01*
X173103402Y-93148663D01*
X173200540Y-93080960D01*
X173321628Y-93022159D01*
X173478212Y-92971635D01*
X173681838Y-92928765D01*
X173944051Y-92892924D01*
X174276397Y-92863487D01*
X174690423Y-92839830D01*
X175197673Y-92821329D01*
X175809693Y-92807358D01*
X176538029Y-92797295D01*
X177394226Y-92790513D01*
X178389831Y-92786389D01*
X179536389Y-92784299D01*
X180845446Y-92783617D01*
X182328547Y-92783719D01*
X183997238Y-92783982D01*
X184441121Y-92783999D01*
X185879319Y-92783445D01*
X187261040Y-92781832D01*
X188573172Y-92779233D01*
X189802607Y-92775722D01*
X190936234Y-92771373D01*
X191960942Y-92766260D01*
X192863621Y-92760456D01*
X193631161Y-92754036D01*
X194250451Y-92747073D01*
X194708383Y-92739640D01*
X194991844Y-92731812D01*
X195087567Y-92724099D01*
X195080673Y-92608569D01*
X194995136Y-92383446D01*
X194929234Y-92249160D01*
X194762872Y-91888744D01*
X194604213Y-91476406D01*
X194557453Y-91334061D01*
X194403906Y-90834000D01*
X180357453Y-90809036D01*
X178693909Y-90806082D01*
X177083233Y-90803228D01*
X175536967Y-90800492D01*
X174066657Y-90797896D01*
X172683845Y-90795459D01*
X171400075Y-90793202D01*
X170226893Y-90791145D01*
X169175841Y-90789309D01*
X168258463Y-90787713D01*
X167486304Y-90786377D01*
X166870907Y-90785323D01*
X166423816Y-90784569D01*
X166156575Y-90784137D01*
X166081238Y-90784036D01*
X165867402Y-90707072D01*
X165575017Y-90493386D01*
X165373707Y-90306231D01*
X165225452Y-90122675D01*
X197088991Y-90122675D01*
X197099398Y-90237311D01*
X197182734Y-90492711D01*
X197322565Y-90850709D01*
X197502460Y-91273141D01*
X197705987Y-91721845D01*
X197916715Y-92158655D01*
X198118212Y-92545407D01*
X198178492Y-92653124D01*
X198974058Y-93850397D01*
X199933866Y-94964563D01*
X201032141Y-95974910D01*
X202243108Y-96860725D01*
X203540993Y-97601298D01*
X204900018Y-98175916D01*
X205161000Y-98263969D01*
X206586858Y-98654259D01*
X207954901Y-98875335D01*
X209309382Y-98929978D01*
X210694558Y-98820966D01*
X211606667Y-98668766D01*
X213093489Y-98276697D01*
X214515618Y-97708083D01*
X215855557Y-96976143D01*
X217095809Y-96094096D01*
X218218875Y-95075159D01*
X219207260Y-93932554D01*
X220043466Y-92679498D01*
X220390742Y-92032435D01*
X220925017Y-90845691D01*
X221310244Y-89732848D01*
X221504413Y-88950515D01*
X221585945Y-88529334D01*
X221633515Y-88229114D01*
X221646608Y-88066556D01*
X221624707Y-88058360D01*
X221567296Y-88221225D01*
X221521925Y-88384000D01*
X221437645Y-88659229D01*
X221335795Y-88795641D01*
X221153576Y-88849236D01*
X220982875Y-88864694D01*
X220563265Y-88895388D01*
X220615862Y-88414694D01*
X220628521Y-88237749D01*
X220607484Y-88228448D01*
X220548898Y-88395259D01*
X220448911Y-88746652D01*
X220425182Y-88834000D01*
X219979562Y-90213080D01*
X219416933Y-91456507D01*
X218714249Y-92605179D01*
X217848465Y-93699993D01*
X217423582Y-94160965D01*
X216304562Y-95201230D01*
X215121059Y-96055002D01*
X213866135Y-96725018D01*
X212532851Y-97214018D01*
X211114267Y-97524739D01*
X209603445Y-97659920D01*
X208568785Y-97654955D01*
X207254708Y-97546446D01*
X206059390Y-97319876D01*
X204930575Y-96960883D01*
X203816004Y-96455102D01*
X203416015Y-96238729D01*
X202265612Y-95484633D01*
X201186323Y-94566512D01*
X200204614Y-93515289D01*
X199346949Y-92361891D01*
X198639793Y-91137244D01*
X198211340Y-90156770D01*
X198103093Y-89895190D01*
X198019427Y-89740775D01*
X197990515Y-89721150D01*
X198004546Y-89827009D01*
X198078924Y-90070773D01*
X198198764Y-90405035D01*
X198234547Y-90498380D01*
X198520189Y-91234000D01*
X197566686Y-91234000D01*
X197350432Y-90655743D01*
X197231642Y-90362353D01*
X197136260Y-90170538D01*
X197088991Y-90122675D01*
X165225452Y-90122675D01*
X164992293Y-89834000D01*
X196961000Y-89834000D01*
X197011000Y-89884000D01*
X197061000Y-89834000D01*
X197011000Y-89784000D01*
X196961000Y-89834000D01*
X164992293Y-89834000D01*
X164962094Y-89796611D01*
X164852709Y-89534000D01*
X196861000Y-89534000D01*
X196911000Y-89584000D01*
X196961000Y-89534000D01*
X196911000Y-89484000D01*
X196861000Y-89534000D01*
X164852709Y-89534000D01*
X164807585Y-89425666D01*
X197868894Y-89425666D01*
X197887280Y-89555368D01*
X197921416Y-89556916D01*
X197945288Y-89423077D01*
X197929311Y-89365250D01*
X197884908Y-89327371D01*
X197868894Y-89425666D01*
X164807585Y-89425666D01*
X164749890Y-89287155D01*
X164744637Y-89084000D01*
X197761000Y-89084000D01*
X197797588Y-89166311D01*
X197827666Y-89150666D01*
X197839634Y-89031990D01*
X197827666Y-89017333D01*
X197768216Y-89031060D01*
X197761000Y-89084000D01*
X164744637Y-89084000D01*
X164736581Y-88772499D01*
X164921650Y-88247280D01*
X165143144Y-87904211D01*
X165430670Y-87590428D01*
X165761495Y-87392263D01*
X166158647Y-87271623D01*
X166300004Y-87261702D01*
X166629386Y-87251951D01*
X167134819Y-87242451D01*
X167804329Y-87233282D01*
X168625941Y-87224526D01*
X169587681Y-87216264D01*
X170677574Y-87208578D01*
X171883646Y-87201548D01*
X173193922Y-87195256D01*
X174596427Y-87189782D01*
X176079188Y-87185209D01*
X177630230Y-87181617D01*
X179237578Y-87179088D01*
X179911000Y-87178376D01*
X181534649Y-87176370D01*
X183104780Y-87173388D01*
X184609607Y-87169502D01*
X186037343Y-87164787D01*
X187376203Y-87159317D01*
X188614401Y-87153164D01*
X189740152Y-87146404D01*
X190741669Y-87139109D01*
X191607167Y-87131353D01*
X192324860Y-87123210D01*
X192882963Y-87114754D01*
X193269689Y-87106058D01*
X193473252Y-87097197D01*
X193501505Y-87093366D01*
X193593528Y-87036400D01*
X193649513Y-86924049D01*
X193677370Y-86714842D01*
X193685009Y-86367310D01*
X193683803Y-86137664D01*
X193666717Y-85654143D01*
X200809445Y-85654143D01*
X200847749Y-86157443D01*
X200909871Y-86512669D01*
X201293997Y-87975631D01*
X201810953Y-89293459D01*
X202459378Y-90464189D01*
X203237907Y-91485855D01*
X204145179Y-92356491D01*
X205179829Y-93074132D01*
X205629741Y-93318258D01*
X206127793Y-93540945D01*
X206709079Y-93756075D01*
X207332018Y-93952883D01*
X207955026Y-94120604D01*
X208536520Y-94248472D01*
X209034919Y-94325720D01*
X209408640Y-94341585D01*
X209523215Y-94326263D01*
X209682894Y-94298377D01*
X209961261Y-94257212D01*
X210123215Y-94235015D01*
X211018150Y-94084265D01*
X211744712Y-93890097D01*
X212331467Y-93643966D01*
X212579142Y-93500162D01*
X213730408Y-92650084D01*
X214844566Y-91608943D01*
X215362935Y-91044451D01*
X215780803Y-90546435D01*
X216095938Y-90107219D01*
X216334218Y-89673008D01*
X216521521Y-89190008D01*
X216683725Y-88604423D01*
X216811117Y-88034000D01*
X216880221Y-87584000D01*
X220676789Y-87584000D01*
X220692504Y-87725963D01*
X220727228Y-87709000D01*
X220740435Y-87504265D01*
X220727228Y-87459000D01*
X220690728Y-87446437D01*
X220676789Y-87584000D01*
X216880221Y-87584000D01*
X216894052Y-87493934D01*
X216950513Y-86825766D01*
X216980169Y-86085180D01*
X216982691Y-85327862D01*
X216957749Y-84609498D01*
X216908386Y-84025666D01*
X220568894Y-84025666D01*
X220587280Y-84155368D01*
X220621416Y-84156916D01*
X220645288Y-84023077D01*
X220629311Y-83965250D01*
X220584908Y-83927371D01*
X220568894Y-84025666D01*
X216908386Y-84025666D01*
X216905013Y-83985774D01*
X216839955Y-83584000D01*
X220476789Y-83584000D01*
X220492504Y-83725963D01*
X220527228Y-83709000D01*
X220540435Y-83504265D01*
X220527228Y-83459000D01*
X220490728Y-83446437D01*
X220476789Y-83584000D01*
X216839955Y-83584000D01*
X216837576Y-83569309D01*
X216602718Y-82823093D01*
X216227509Y-82097932D01*
X215695006Y-81366519D01*
X215009002Y-80622100D01*
X214644147Y-80265788D01*
X214339761Y-79991169D01*
X214049808Y-79766554D01*
X213728252Y-79560256D01*
X213329056Y-79340588D01*
X212806186Y-79075863D01*
X212651014Y-78999059D01*
X212184352Y-78780285D01*
X216110926Y-78780285D01*
X216189407Y-78971537D01*
X216390882Y-79252793D01*
X216724355Y-79640284D01*
X217069352Y-80013414D01*
X217482476Y-80444891D01*
X217784362Y-80741073D01*
X217994310Y-80918189D01*
X218131622Y-80992471D01*
X218215597Y-80980147D01*
X218217327Y-80978748D01*
X218270484Y-80887799D01*
X218240618Y-80738525D01*
X218114590Y-80491492D01*
X217981184Y-80269981D01*
X217724634Y-79901683D01*
X217415482Y-79526252D01*
X217086668Y-79176101D01*
X216771133Y-78883641D01*
X216501816Y-78681287D01*
X216311659Y-78601450D01*
X216286929Y-78602858D01*
X216146435Y-78662803D01*
X216110926Y-78780285D01*
X212184352Y-78780285D01*
X211838573Y-78618182D01*
X211136384Y-78340484D01*
X210492370Y-78152315D01*
X209854451Y-78040026D01*
X209170551Y-77989967D01*
X208778038Y-77984000D01*
X207784632Y-78055672D01*
X206772756Y-78259647D01*
X205787402Y-78579359D01*
X204873564Y-78998242D01*
X204076238Y-79499732D01*
X203619798Y-79883090D01*
X203331242Y-80153598D01*
X203097049Y-80360917D01*
X202953980Y-80473006D01*
X202930430Y-80484000D01*
X202807079Y-80539078D01*
X202593905Y-80676334D01*
X202347751Y-80853800D01*
X202125463Y-81029508D01*
X201983883Y-81161491D01*
X201961000Y-81199731D01*
X202038453Y-81302189D01*
X202160326Y-81383639D01*
X202242338Y-81438729D01*
X202275751Y-81516217D01*
X202251248Y-81650134D01*
X202159516Y-81874509D01*
X201991239Y-82223373D01*
X201856863Y-82492243D01*
X201455856Y-83322465D01*
X201158511Y-84020230D01*
X200956926Y-84619073D01*
X200843204Y-85152532D01*
X200809445Y-85654143D01*
X193666717Y-85654143D01*
X193666201Y-85639556D01*
X193623012Y-85325029D01*
X193552069Y-85179041D01*
X193545053Y-85174144D01*
X193431115Y-85164469D01*
X193128773Y-85155108D01*
X192649621Y-85146129D01*
X192005256Y-85137600D01*
X191207272Y-85129592D01*
X190267264Y-85122171D01*
X189196829Y-85115409D01*
X188007560Y-85109372D01*
X186711054Y-85104131D01*
X185318906Y-85099753D01*
X183842711Y-85096308D01*
X182294064Y-85093865D01*
X180684561Y-85092491D01*
X179740596Y-85092214D01*
X177812057Y-85091976D01*
X176073369Y-85091539D01*
X174514386Y-85090762D01*
X173124959Y-85089504D01*
X171894940Y-85087626D01*
X170814182Y-85084986D01*
X169872536Y-85081444D01*
X169059854Y-85076859D01*
X168365988Y-85071090D01*
X167780791Y-85063997D01*
X167294115Y-85055439D01*
X166895811Y-85045276D01*
X166575732Y-85033367D01*
X166323729Y-85019571D01*
X166129656Y-85003748D01*
X165983363Y-84985756D01*
X165874703Y-84965456D01*
X165793527Y-84942707D01*
X165729689Y-84917368D01*
X165688841Y-84897481D01*
X165231142Y-84564010D01*
X164923391Y-84132544D01*
X164907999Y-84084000D01*
X197561000Y-84084000D01*
X197597588Y-84166311D01*
X197627666Y-84150666D01*
X197639634Y-84031990D01*
X197627666Y-84017333D01*
X197568216Y-84031060D01*
X197561000Y-84084000D01*
X164907999Y-84084000D01*
X164766841Y-83638841D01*
X164766738Y-83625666D01*
X197668894Y-83625666D01*
X197687280Y-83755368D01*
X197721416Y-83756916D01*
X197745288Y-83623077D01*
X197729311Y-83565250D01*
X197684908Y-83527371D01*
X197668894Y-83625666D01*
X164766738Y-83625666D01*
X164762747Y-83118662D01*
X164860752Y-82784000D01*
X196861000Y-82784000D01*
X196897588Y-82866311D01*
X196927666Y-82850666D01*
X196939634Y-82731990D01*
X196927666Y-82717333D01*
X196868216Y-82731060D01*
X196861000Y-82784000D01*
X164860752Y-82784000D01*
X164912362Y-82607766D01*
X165216943Y-82141913D01*
X165580897Y-81820211D01*
X165962464Y-81635359D01*
X166433766Y-81520175D01*
X166927882Y-81480091D01*
X167377889Y-81520540D01*
X167716653Y-81646816D01*
X167840192Y-81714590D01*
X167993916Y-81763941D01*
X168209450Y-81797701D01*
X168518421Y-81818702D01*
X168952456Y-81829776D01*
X169543182Y-81833757D01*
X169806729Y-81834000D01*
X170519323Y-81829665D01*
X171060512Y-81815342D01*
X171458730Y-81789051D01*
X171742412Y-81748812D01*
X171939993Y-81692644D01*
X171961000Y-81684000D01*
X172037446Y-81660131D01*
X172156831Y-81638629D01*
X172330029Y-81619302D01*
X172567918Y-81601961D01*
X172881374Y-81586415D01*
X173281272Y-81572471D01*
X173778490Y-81559941D01*
X174383904Y-81548632D01*
X175108390Y-81538354D01*
X175962824Y-81528917D01*
X176958083Y-81520129D01*
X178105043Y-81511799D01*
X179414580Y-81503737D01*
X180897571Y-81495753D01*
X182564893Y-81487654D01*
X183361000Y-81484000D01*
X194411000Y-81434000D01*
X194661000Y-80665678D01*
X194786708Y-80297713D01*
X194897662Y-80005486D01*
X194974168Y-79839998D01*
X194986000Y-79824012D01*
X195038041Y-79771030D01*
X195072550Y-79723859D01*
X195078894Y-79682162D01*
X195046438Y-79645602D01*
X194964549Y-79613839D01*
X194822595Y-79586538D01*
X194609940Y-79563359D01*
X194315952Y-79543967D01*
X193929998Y-79528023D01*
X193441443Y-79515189D01*
X192839654Y-79505129D01*
X192113997Y-79497504D01*
X191253840Y-79491978D01*
X190248549Y-79488211D01*
X189087489Y-79485868D01*
X187760028Y-79484610D01*
X186255532Y-79484100D01*
X184563367Y-79484000D01*
X173489157Y-79484000D01*
X173026907Y-79077110D01*
X172616667Y-78601280D01*
X172381350Y-78067481D01*
X172325943Y-77506364D01*
X172455439Y-76948580D01*
X172627350Y-76623080D01*
X172861254Y-76375354D01*
X173198533Y-76137134D01*
X173553336Y-75962582D01*
X173761000Y-75907867D01*
X174249683Y-75878654D01*
X174728067Y-75899218D01*
X175127440Y-75964000D01*
X175326796Y-76034539D01*
X175475775Y-76060449D01*
X175808169Y-76084194D01*
X176307402Y-76105766D01*
X176956900Y-76125157D01*
X177740089Y-76142356D01*
X178640395Y-76157357D01*
X179641243Y-76170150D01*
X180726059Y-76180726D01*
X181878268Y-76189078D01*
X183081296Y-76195195D01*
X184318569Y-76199070D01*
X185573511Y-76200695D01*
X186829550Y-76200059D01*
X188070111Y-76197156D01*
X189278618Y-76191975D01*
X190438498Y-76184509D01*
X191533177Y-76174748D01*
X192546079Y-76162685D01*
X193460632Y-76148310D01*
X194260259Y-76131615D01*
X194928388Y-76112592D01*
X195448442Y-76091230D01*
X195803850Y-76067523D01*
X195964990Y-76045300D01*
X196397834Y-75950521D01*
X196880313Y-75866508D01*
X197099417Y-75836428D01*
X197531512Y-75753330D01*
X197825115Y-75613631D01*
X197928962Y-75525127D01*
X198103639Y-75362587D01*
X198210805Y-75285074D01*
X198216239Y-75283999D01*
X198301816Y-75350238D01*
X198495356Y-75528722D01*
X198764582Y-75789101D01*
X198966240Y-75989250D01*
X199670092Y-76694500D01*
X199201588Y-77214250D01*
X198653211Y-77875456D01*
X198116017Y-78617921D01*
X197644588Y-79363047D01*
X197403034Y-79804157D01*
X197063363Y-80474314D01*
X197283097Y-80628222D01*
X197502832Y-80782130D01*
X197223143Y-81640958D01*
X197104821Y-82024985D01*
X197022857Y-82332110D01*
X196988745Y-82517028D01*
X196992710Y-82549044D01*
X197044975Y-82500053D01*
X197104338Y-82314042D01*
X197107397Y-82300403D01*
X197165709Y-82118717D01*
X197276382Y-82024423D01*
X197499540Y-81981036D01*
X197654734Y-81968252D01*
X198136642Y-81934000D01*
X197996086Y-82384000D01*
X197873351Y-82799798D01*
X197813127Y-83051318D01*
X197812825Y-83132095D01*
X197869853Y-83035661D01*
X197981621Y-82755552D01*
X198058722Y-82540297D01*
X198293518Y-81981788D01*
X199865069Y-81981788D01*
X199882164Y-82064485D01*
X199966295Y-82020405D01*
X199990483Y-82000764D01*
X200107900Y-81867278D01*
X200305720Y-81605000D01*
X200555477Y-81252909D01*
X200806349Y-80883625D01*
X201127466Y-80420754D01*
X201473761Y-79953156D01*
X201796426Y-79545329D01*
X201981625Y-79330469D01*
X202240663Y-79041956D01*
X202380365Y-78860969D01*
X202418168Y-78749115D01*
X202371511Y-78667999D01*
X202306445Y-78615281D01*
X202024770Y-78420030D01*
X201838747Y-78354124D01*
X201691903Y-78417067D01*
X201527768Y-78608361D01*
X201527712Y-78608435D01*
X201087932Y-79240422D01*
X200683735Y-79907755D01*
X200338343Y-80565680D01*
X200074975Y-81169446D01*
X199916854Y-81674298D01*
X199903746Y-81738208D01*
X199865069Y-81981788D01*
X198293518Y-81981788D01*
X198649903Y-81134058D01*
X199402766Y-79826150D01*
X200303634Y-78631065D01*
X201338827Y-77563300D01*
X202412410Y-76703247D01*
X206015792Y-76703247D01*
X206050794Y-76944060D01*
X206070511Y-77022230D01*
X206153155Y-77266287D01*
X206252069Y-77360435D01*
X206420840Y-77351251D01*
X206443522Y-77346465D01*
X207442323Y-77188140D01*
X208508758Y-77121938D01*
X209588840Y-77145254D01*
X210628587Y-77255484D01*
X211574014Y-77450023D01*
X212111000Y-77619930D01*
X212425940Y-77722666D01*
X212611030Y-77725107D01*
X212717147Y-77612617D01*
X212780067Y-77427484D01*
X212824572Y-77181229D01*
X212817650Y-77019405D01*
X212686060Y-76907677D01*
X212385888Y-76780650D01*
X211947018Y-76647742D01*
X211399335Y-76518370D01*
X210957516Y-76433246D01*
X210451905Y-76365751D01*
X209855785Y-76320541D01*
X209204050Y-76296622D01*
X208531592Y-76293000D01*
X207873308Y-76308680D01*
X207264090Y-76342670D01*
X206738832Y-76393976D01*
X206332430Y-76461603D01*
X206079777Y-76544558D01*
X206037989Y-76573359D01*
X206015792Y-76703247D01*
X202412410Y-76703247D01*
X202494669Y-76637349D01*
X203757480Y-75867706D01*
X204812361Y-75383459D01*
X205503211Y-75123908D01*
X206121898Y-74930594D01*
X206719880Y-74794776D01*
X207348615Y-74707715D01*
X208059561Y-74660670D01*
X208904178Y-74644903D01*
X209161000Y-74644872D01*
X209841055Y-74649162D01*
X209841055Y-74649162D01*
G37*
X209841055Y-74649162D02*
X210364914Y-74660535D01*
X210776358Y-74683146D01*
X211119169Y-74721147D01*
X211437130Y-74778695D01*
X211774021Y-74859943D01*
X211963371Y-74910786D01*
X213443272Y-75411406D01*
X214811826Y-76070266D01*
X216059086Y-76881688D01*
X217175108Y-77839991D01*
X217285396Y-77950040D01*
X218193809Y-78958882D01*
X218946594Y-80001103D01*
X219577140Y-81129259D01*
X220118837Y-82395911D01*
X220131866Y-82430708D01*
X220266505Y-82774636D01*
X220365266Y-82993844D01*
X220416679Y-83065110D01*
X220417137Y-83034000D01*
X221361000Y-83034000D01*
X221411000Y-83084000D01*
X221461000Y-83034000D01*
X221411000Y-82984000D01*
X221361000Y-83034000D01*
X220417137Y-83034000D01*
X220417506Y-83009000D01*
X220365999Y-82684000D01*
X220805166Y-82684000D01*
X221101901Y-82711167D01*
X221275890Y-82782644D01*
X221294771Y-82809000D01*
X221339572Y-82855372D01*
X221353105Y-82774977D01*
X221326267Y-82612707D01*
X221247827Y-82314854D01*
X221132328Y-81934581D01*
X221076487Y-81763741D01*
X220791974Y-80911529D01*
X221021897Y-80772020D01*
X221251820Y-80632510D01*
X220923490Y-79980151D01*
X220161576Y-78659188D01*
X219428215Y-77660412D01*
X219202576Y-77378501D01*
X219036779Y-77162014D01*
X218962339Y-77052283D01*
X218961000Y-77047669D01*
X219030616Y-76968789D01*
X219218118Y-76787878D01*
X219491485Y-76535296D01*
X219697108Y-76349699D01*
X220040873Y-76047612D01*
X220277501Y-75861316D01*
X220445462Y-75769495D01*
X220583226Y-75750834D01*
X220722108Y-75781750D01*
X220931503Y-75848168D01*
X221120479Y-75906853D01*
X221302142Y-75958288D01*
X221489599Y-76002957D01*
X221695956Y-76041342D01*
X221934320Y-76073928D01*
X222217795Y-76101198D01*
X222559490Y-76123634D01*
X222972510Y-76141722D01*
X223469961Y-76155943D01*
X224064949Y-76166781D01*
X224770581Y-76174720D01*
X225599964Y-76180244D01*
X226566202Y-76183834D01*
X227682403Y-76185976D01*
X228961673Y-76187152D01*
X230417118Y-76187845D01*
X231747483Y-76188391D01*
X233395379Y-76190210D01*
X234932189Y-76194058D01*
X236348455Y-76199841D01*
X237634717Y-76207462D01*
X238781515Y-76216826D01*
X239779391Y-76227837D01*
X240618884Y-76240401D01*
X241290535Y-76254422D01*
X241784886Y-76269804D01*
X242092475Y-76286452D01*
X242161000Y-76293431D01*
X242792859Y-76376895D01*
X243261253Y-76432645D01*
X243600790Y-76460659D01*
X243846079Y-76460915D01*
X244031728Y-76433389D01*
X244192345Y-76378057D01*
X244362539Y-76294897D01*
X244368183Y-76291957D01*
X244629194Y-76164756D01*
X244802651Y-76128681D01*
X244976779Y-76179446D01*
X245128358Y-76255034D01*
X245393228Y-76439643D01*
X245587885Y-76656148D01*
X245603937Y-76684146D01*
X245842140Y-77280080D01*
X245894522Y-77817602D01*
X245757363Y-78320999D01*
X245426944Y-78814559D01*
X245248292Y-79006231D01*
X244770523Y-79484000D01*
X233915761Y-79484000D01*
X232460584Y-79484468D01*
X231062701Y-79485833D01*
X229734963Y-79488033D01*
X228490220Y-79491006D01*
X227341322Y-79494691D01*
X226301119Y-79499026D01*
X225382461Y-79503949D01*
X224598198Y-79509399D01*
X223961182Y-79515316D01*
X223484261Y-79521636D01*
X223180286Y-79528298D01*
X223062107Y-79535241D01*
X223061000Y-79535987D01*
X223095920Y-79648345D01*
X223187322Y-79892004D01*
X223311000Y-80203227D01*
X223440267Y-80546827D01*
X223530584Y-80835550D01*
X223561000Y-80994097D01*
X223628215Y-81205115D01*
X223718142Y-81326857D01*
X223758289Y-81352077D01*
X223832809Y-81374484D01*
X223952864Y-81394244D01*
X224129617Y-81411521D01*
X224374229Y-81426480D01*
X224697862Y-81439284D01*
X225111680Y-81450100D01*
X225626843Y-81459092D01*
X226254515Y-81466423D01*
X227005857Y-81472260D01*
X227892032Y-81476766D01*
X228924201Y-81480107D01*
X230113528Y-81482447D01*
X231471173Y-81483950D01*
X233008300Y-81484782D01*
X234443142Y-81485082D01*
X236147014Y-81485508D01*
X237662415Y-81486526D01*
X239000875Y-81488304D01*
X240173924Y-81491006D01*
X241193091Y-81494799D01*
X242069906Y-81499849D01*
X242815897Y-81506322D01*
X243442595Y-81514383D01*
X243961529Y-81524198D01*
X244384228Y-81535935D01*
X244722221Y-81549757D01*
X244987039Y-81565832D01*
X245190209Y-81584325D01*
X245343263Y-81605403D01*
X245457729Y-81629230D01*
X245511000Y-81644382D01*
X245812446Y-81712071D01*
X246265023Y-81770085D01*
X246882623Y-81819664D01*
X247679141Y-81862053D01*
X248161000Y-81881385D01*
X248822068Y-81910417D01*
X249437726Y-81946407D01*
X249971877Y-81986543D01*
X250388427Y-82028013D01*
X250651281Y-82068005D01*
X250692545Y-82078594D01*
X251219931Y-82143459D01*
X251754983Y-82010858D01*
X252034987Y-81865682D01*
X252253984Y-81742879D01*
X252398137Y-81725559D01*
X252563315Y-81815009D01*
X252646791Y-81873882D01*
X253060712Y-82277308D01*
X253322910Y-82765191D01*
X253428814Y-83296952D01*
X253373850Y-83832013D01*
X253153446Y-84329793D01*
X252951893Y-84581439D01*
X252661332Y-84840936D01*
X252380492Y-84979145D01*
X252089963Y-85037028D01*
X251933309Y-85044518D01*
X251588704Y-85052005D01*
X251068198Y-85059423D01*
X250383841Y-85066704D01*
X249547683Y-85073780D01*
X248571773Y-85080583D01*
X247468160Y-85087045D01*
X246248894Y-85093099D01*
X244926025Y-85098676D01*
X243511603Y-85103710D01*
X242017676Y-85108131D01*
X240456295Y-85111872D01*
X238839510Y-85114865D01*
X238061000Y-85115998D01*
X224511000Y-85134000D01*
X224490247Y-85784000D01*
X224471541Y-86170111D01*
X224444066Y-86512056D01*
X224419491Y-86700278D01*
X224425680Y-86943317D01*
X224497209Y-87072554D01*
X224599489Y-87089494D01*
X224866114Y-87105242D01*
X225300176Y-87119829D01*
X225904770Y-87133285D01*
X226682991Y-87145639D01*
X227637933Y-87156921D01*
X228772689Y-87167160D01*
X230090356Y-87176387D01*
X231594025Y-87184630D01*
X233286793Y-87191921D01*
X235171754Y-87198288D01*
X237252001Y-87203761D01*
X238417964Y-87206276D01*
X252211000Y-87234000D01*
X252582771Y-87466972D01*
X253018541Y-87831850D01*
X253286506Y-88285638D01*
X253398593Y-88851512D01*
X253403473Y-89061454D01*
X253368457Y-89509224D01*
X253253154Y-89856791D01*
X253024595Y-90167398D01*
X252652313Y-90502258D01*
X252306568Y-90782093D01*
X238069676Y-90808046D01*
X236081224Y-90811853D01*
X234283356Y-90815742D01*
X232666657Y-90819828D01*
X231221709Y-90824229D01*
X229939097Y-90829058D01*
X228809406Y-90834433D01*
X227823219Y-90840468D01*
X226971119Y-90847280D01*
X226243692Y-90854983D01*
X225631521Y-90863695D01*
X225125190Y-90873530D01*
X224715283Y-90884605D01*
X224392385Y-90897035D01*
X224147078Y-90910935D01*
X223969948Y-90926422D01*
X223851578Y-90943612D01*
X223782552Y-90962619D01*
X223753454Y-90983560D01*
X223753215Y-90984000D01*
X223575509Y-91344400D01*
X223403493Y-91736137D01*
X223255144Y-92112224D01*
X223148443Y-92425671D01*
X223101368Y-92629488D01*
X223105900Y-92675749D01*
X223189447Y-92694791D01*
X223418750Y-92711832D01*
X223798999Y-92726925D01*
X224335386Y-92740122D01*
X225033100Y-92751476D01*
X225897331Y-92761040D01*
X226933270Y-92768866D01*
X228146107Y-92775008D01*
X229541031Y-92779518D01*
X231123233Y-92782448D01*
X232897904Y-92783852D01*
X233761000Y-92784000D01*
X235228451Y-92784806D01*
X236632206Y-92787157D01*
X237959698Y-92790949D01*
X239198361Y-92796079D01*
X240335627Y-92802446D01*
X241358931Y-92809945D01*
X242255706Y-92818475D01*
X243013386Y-92827932D01*
X243619404Y-92838213D01*
X244061193Y-92849216D01*
X244326188Y-92860837D01*
X244403017Y-92871083D01*
X244531751Y-92952503D01*
X244738421Y-93014484D01*
X245071326Y-93168004D01*
X245394937Y-93464005D01*
X245661683Y-93848667D01*
X245815617Y-94233190D01*
X245878648Y-94827603D01*
X245759972Y-95367360D01*
X245465290Y-95827867D01*
X245439722Y-95854944D01*
X245352990Y-95947661D01*
X245274347Y-96030810D01*
X245193008Y-96104911D01*
X245098188Y-96170485D01*
X244979101Y-96228050D01*
X244824962Y-96278127D01*
X244624987Y-96321235D01*
X244368390Y-96357895D01*
X244044385Y-96388626D01*
X243642188Y-96413948D01*
X243151014Y-96434380D01*
X242560076Y-96450443D01*
X241858591Y-96462656D01*
X241035773Y-96471539D01*
X240080836Y-96477612D01*
X238982996Y-96481394D01*
X237731467Y-96483406D01*
X236315464Y-96484168D01*
X234724203Y-96484198D01*
X232946897Y-96484017D01*
X232387549Y-96484000D01*
X220549725Y-96484000D01*
X219950363Y-97134000D01*
X219230681Y-96350017D01*
X218511000Y-95566035D01*
X218267164Y-95826512D01*
X218023329Y-96086989D01*
X218417164Y-96504579D01*
X218710196Y-96812299D01*
X219010564Y-97123195D01*
X219138327Y-97253578D01*
X219465654Y-97584987D01*
X219438327Y-109663568D01*
X219411000Y-121742150D01*
X219083830Y-122155204D01*
X218668564Y-122554629D01*
X218170695Y-122839528D01*
X217653276Y-122976629D01*
X217513213Y-122984000D01*
X217071332Y-122899730D01*
X216613286Y-122672464D01*
X216207327Y-122340517D01*
X216061000Y-122168773D01*
X215811000Y-121834000D01*
X215784684Y-111009000D01*
X215779930Y-109235372D01*
X215774686Y-107652535D01*
X215768824Y-106251281D01*
X215762216Y-105022400D01*
X215754735Y-103956684D01*
X215746253Y-103044923D01*
X215736642Y-102277910D01*
X215725775Y-101646436D01*
X215713525Y-101141291D01*
X215699763Y-100753268D01*
X215684363Y-100473156D01*
X215667196Y-100291749D01*
X215648135Y-100199836D01*
X215634684Y-100183722D01*
X215473306Y-100223918D01*
X215215719Y-100325138D01*
X215111000Y-100372813D01*
X214746452Y-100527113D01*
X214346238Y-100671281D01*
X214261000Y-100698090D01*
X213811000Y-100834000D01*
X213711000Y-129234000D01*
X213484447Y-129598315D01*
X213253308Y-129896977D01*
X212960603Y-130186215D01*
X212884447Y-130247988D01*
X212627484Y-130417538D01*
X212373193Y-130503806D01*
X212033714Y-130532469D01*
X211906955Y-130533673D01*
X211537664Y-130519523D01*
X211277403Y-130457292D01*
X211036118Y-130318041D01*
X210889825Y-130206830D01*
X210588270Y-129907383D01*
X210319172Y-129541876D01*
X210243870Y-129406830D01*
X210011000Y-128934000D01*
X209959374Y-101534000D01*
X208190200Y-101597442D01*
X208123125Y-102867976D01*
X208114697Y-103129045D01*
X208106697Y-103576451D01*
X208099185Y-104196529D01*
X208092221Y-104975617D01*
X208085862Y-105900052D01*
X208080168Y-106956171D01*
X208075199Y-108130309D01*
X208071012Y-109408804D01*
X208067668Y-110777993D01*
X208065224Y-112224212D01*
X208063741Y-113733798D01*
X208063277Y-115293088D01*
X208063712Y-116621625D01*
X208071374Y-129104739D01*
X207828705Y-129569369D01*
X207512690Y-129991039D01*
X207084022Y-130311312D01*
X206592606Y-130509186D01*
X206088344Y-130563658D01*
X205673726Y-130476343D01*
X205268348Y-130248106D01*
X204905782Y-129928086D01*
X204646739Y-129575105D01*
X204578091Y-129414786D01*
X204560319Y-129305336D01*
X204544008Y-129091063D01*
X204529087Y-128764852D01*
X204515487Y-128319591D01*
X204503136Y-127748165D01*
X204491965Y-127043461D01*
X204481904Y-126198365D01*
X204472882Y-125205764D01*
X204464829Y-124058544D01*
X204457675Y-122749591D01*
X204451350Y-121271792D01*
X204445783Y-119618033D01*
X204440905Y-117781200D01*
X204436644Y-115754181D01*
X204435175Y-114934000D01*
X204411000Y-100834000D01*
X203961000Y-100696670D01*
X203643848Y-100589851D01*
X203288594Y-100447295D01*
X202840830Y-100246335D01*
X202536000Y-100102978D01*
X202525818Y-100195896D01*
X202516043Y-100475851D01*
X202506768Y-100929881D01*
X202498085Y-101545024D01*
X202490086Y-102308315D01*
X202482864Y-103206794D01*
X202476510Y-104227498D01*
X202471117Y-105357463D01*
X202466778Y-106583728D01*
X202463584Y-107893329D01*
X202461627Y-109273305D01*
X202461000Y-110639064D01*
X202460428Y-112439198D01*
X202458647Y-114048114D01*
X202455561Y-115474589D01*
X202451072Y-116727401D01*
X202445084Y-117815331D01*
X202437499Y-118747154D01*
X202428221Y-119531650D01*
X202417152Y-120177598D01*
X202404196Y-120693774D01*
X202389255Y-121088958D01*
X202372233Y-121371928D01*
X202353032Y-121551463D01*
X202339735Y-121615541D01*
X202084116Y-122142083D01*
X201686341Y-122556447D01*
X201183203Y-122835771D01*
X200611493Y-122957198D01*
X200209614Y-122939019D01*
X199730667Y-122771826D01*
X199306445Y-122444199D01*
X198975229Y-121995024D01*
X198780746Y-121487510D01*
X198761182Y-121348786D01*
X198743629Y-121105749D01*
X198728009Y-120750437D01*
X198714244Y-120274890D01*
X198702256Y-119671144D01*
X198691968Y-118931239D01*
X198683302Y-118047211D01*
X198676179Y-117011100D01*
X198670522Y-115814943D01*
X198666254Y-114450778D01*
X198663296Y-112910644D01*
X198661570Y-111186578D01*
X198661000Y-109270618D01*
X198661000Y-99126518D01*
X205585148Y-99126518D01*
X205647473Y-99173946D01*
X205846380Y-99254005D01*
X206125159Y-99347961D01*
X206427099Y-99437084D01*
X206695490Y-99502641D01*
X206761000Y-99514914D01*
X207099537Y-99562534D01*
X207294783Y-99562278D01*
X207397670Y-99513986D01*
X207398756Y-99512910D01*
X207339346Y-99465258D01*
X207121582Y-99395199D01*
X206784255Y-99313984D01*
X206546049Y-99265617D01*
X206142297Y-99192991D01*
X205819634Y-99143220D01*
X205623132Y-99122831D01*
X205585148Y-99126518D01*
X198661000Y-99126518D01*
X198661000Y-99034000D01*
X205361000Y-99034000D01*
X205411000Y-99084000D01*
X205461000Y-99034000D01*
X205411000Y-98984000D01*
X205361000Y-99034000D01*
X198661000Y-99034000D01*
X198661000Y-97634000D01*
X202161000Y-97634000D01*
X202211000Y-97684000D01*
X202261000Y-97634000D01*
X202211000Y-97584000D01*
X202161000Y-97634000D01*
X198661000Y-97634000D01*
X198661000Y-97534000D01*
X201961000Y-97534000D01*
X202011000Y-97584000D01*
X202061000Y-97534000D01*
X202011000Y-97484000D01*
X201961000Y-97534000D01*
X198661000Y-97534000D01*
X198661000Y-97500681D01*
X198111000Y-97085655D01*
X198394617Y-96826422D01*
X200921929Y-96826422D01*
X201040059Y-96970249D01*
X201268910Y-97151385D01*
X201397053Y-97233977D01*
X201693286Y-97404205D01*
X201851122Y-97478306D01*
X201858548Y-97451349D01*
X201806000Y-97401793D01*
X201503440Y-97153572D01*
X201232762Y-96955205D01*
X201028337Y-96829064D01*
X200924538Y-96797518D01*
X200921929Y-96826422D01*
X198394617Y-96826422D01*
X198611000Y-96628643D01*
X198928887Y-96344609D01*
X199242857Y-96074551D01*
X199440239Y-95912712D01*
X199769479Y-95653794D01*
X199495710Y-95368040D01*
X199221940Y-95082287D01*
X198516470Y-95787642D01*
X197811000Y-96492998D01*
X185860945Y-96487326D01*
X183917046Y-96485560D01*
X182124383Y-96482203D01*
X180487692Y-96477296D01*
X179011708Y-96470881D01*
X177701168Y-96462996D01*
X176560806Y-96453683D01*
X175595358Y-96442982D01*
X174809561Y-96430933D01*
X174208149Y-96417577D01*
X173795859Y-96402955D01*
X173577425Y-96387106D01*
X173550617Y-96382177D01*
X173064854Y-96154520D01*
X172693841Y-95795391D01*
X172446759Y-95343188D01*
X172332790Y-94836309D01*
X172361117Y-94313150D01*
X172540921Y-93812110D01*
X172840235Y-93411431D01*
X172934796Y-93313274D01*
X173018669Y-93225893D01*
X173103402Y-93148663D01*
X173200540Y-93080960D01*
X173321628Y-93022159D01*
X173478212Y-92971635D01*
X173681838Y-92928765D01*
X173944051Y-92892924D01*
X174276397Y-92863487D01*
X174690423Y-92839830D01*
X175197673Y-92821329D01*
X175809693Y-92807358D01*
X176538029Y-92797295D01*
X177394226Y-92790513D01*
X178389831Y-92786389D01*
X179536389Y-92784299D01*
X180845446Y-92783617D01*
X182328547Y-92783719D01*
X183997238Y-92783982D01*
X184441121Y-92783999D01*
X185879319Y-92783445D01*
X187261040Y-92781832D01*
X188573172Y-92779233D01*
X189802607Y-92775722D01*
X190936234Y-92771373D01*
X191960942Y-92766260D01*
X192863621Y-92760456D01*
X193631161Y-92754036D01*
X194250451Y-92747073D01*
X194708383Y-92739640D01*
X194991844Y-92731812D01*
X195087567Y-92724099D01*
X195080673Y-92608569D01*
X194995136Y-92383446D01*
X194929234Y-92249160D01*
X194762872Y-91888744D01*
X194604213Y-91476406D01*
X194557453Y-91334061D01*
X194403906Y-90834000D01*
X180357453Y-90809036D01*
X178693909Y-90806082D01*
X177083233Y-90803228D01*
X175536967Y-90800492D01*
X174066657Y-90797896D01*
X172683845Y-90795459D01*
X171400075Y-90793202D01*
X170226893Y-90791145D01*
X169175841Y-90789309D01*
X168258463Y-90787713D01*
X167486304Y-90786377D01*
X166870907Y-90785323D01*
X166423816Y-90784569D01*
X166156575Y-90784137D01*
X166081238Y-90784036D01*
X165867402Y-90707072D01*
X165575017Y-90493386D01*
X165373707Y-90306231D01*
X165225452Y-90122675D01*
X197088991Y-90122675D01*
X197099398Y-90237311D01*
X197182734Y-90492711D01*
X197322565Y-90850709D01*
X197502460Y-91273141D01*
X197705987Y-91721845D01*
X197916715Y-92158655D01*
X198118212Y-92545407D01*
X198178492Y-92653124D01*
X198974058Y-93850397D01*
X199933866Y-94964563D01*
X201032141Y-95974910D01*
X202243108Y-96860725D01*
X203540993Y-97601298D01*
X204900018Y-98175916D01*
X205161000Y-98263969D01*
X206586858Y-98654259D01*
X207954901Y-98875335D01*
X209309382Y-98929978D01*
X210694558Y-98820966D01*
X211606667Y-98668766D01*
X213093489Y-98276697D01*
X214515618Y-97708083D01*
X215855557Y-96976143D01*
X217095809Y-96094096D01*
X218218875Y-95075159D01*
X219207260Y-93932554D01*
X220043466Y-92679498D01*
X220390742Y-92032435D01*
X220925017Y-90845691D01*
X221310244Y-89732848D01*
X221504413Y-88950515D01*
X221585945Y-88529334D01*
X221633515Y-88229114D01*
X221646608Y-88066556D01*
X221624707Y-88058360D01*
X221567296Y-88221225D01*
X221521925Y-88384000D01*
X221437645Y-88659229D01*
X221335795Y-88795641D01*
X221153576Y-88849236D01*
X220982875Y-88864694D01*
X220563265Y-88895388D01*
X220615862Y-88414694D01*
X220628521Y-88237749D01*
X220607484Y-88228448D01*
X220548898Y-88395259D01*
X220448911Y-88746652D01*
X220425182Y-88834000D01*
X219979562Y-90213080D01*
X219416933Y-91456507D01*
X218714249Y-92605179D01*
X217848465Y-93699993D01*
X217423582Y-94160965D01*
X216304562Y-95201230D01*
X215121059Y-96055002D01*
X213866135Y-96725018D01*
X212532851Y-97214018D01*
X211114267Y-97524739D01*
X209603445Y-97659920D01*
X208568785Y-97654955D01*
X207254708Y-97546446D01*
X206059390Y-97319876D01*
X204930575Y-96960883D01*
X203816004Y-96455102D01*
X203416015Y-96238729D01*
X202265612Y-95484633D01*
X201186323Y-94566512D01*
X200204614Y-93515289D01*
X199346949Y-92361891D01*
X198639793Y-91137244D01*
X198211340Y-90156770D01*
X198103093Y-89895190D01*
X198019427Y-89740775D01*
X197990515Y-89721150D01*
X198004546Y-89827009D01*
X198078924Y-90070773D01*
X198198764Y-90405035D01*
X198234547Y-90498380D01*
X198520189Y-91234000D01*
X197566686Y-91234000D01*
X197350432Y-90655743D01*
X197231642Y-90362353D01*
X197136260Y-90170538D01*
X197088991Y-90122675D01*
X165225452Y-90122675D01*
X164992293Y-89834000D01*
X196961000Y-89834000D01*
X197011000Y-89884000D01*
X197061000Y-89834000D01*
X197011000Y-89784000D01*
X196961000Y-89834000D01*
X164992293Y-89834000D01*
X164962094Y-89796611D01*
X164852709Y-89534000D01*
X196861000Y-89534000D01*
X196911000Y-89584000D01*
X196961000Y-89534000D01*
X196911000Y-89484000D01*
X196861000Y-89534000D01*
X164852709Y-89534000D01*
X164807585Y-89425666D01*
X197868894Y-89425666D01*
X197887280Y-89555368D01*
X197921416Y-89556916D01*
X197945288Y-89423077D01*
X197929311Y-89365250D01*
X197884908Y-89327371D01*
X197868894Y-89425666D01*
X164807585Y-89425666D01*
X164749890Y-89287155D01*
X164744637Y-89084000D01*
X197761000Y-89084000D01*
X197797588Y-89166311D01*
X197827666Y-89150666D01*
X197839634Y-89031990D01*
X197827666Y-89017333D01*
X197768216Y-89031060D01*
X197761000Y-89084000D01*
X164744637Y-89084000D01*
X164736581Y-88772499D01*
X164921650Y-88247280D01*
X165143144Y-87904211D01*
X165430670Y-87590428D01*
X165761495Y-87392263D01*
X166158647Y-87271623D01*
X166300004Y-87261702D01*
X166629386Y-87251951D01*
X167134819Y-87242451D01*
X167804329Y-87233282D01*
X168625941Y-87224526D01*
X169587681Y-87216264D01*
X170677574Y-87208578D01*
X171883646Y-87201548D01*
X173193922Y-87195256D01*
X174596427Y-87189782D01*
X176079188Y-87185209D01*
X177630230Y-87181617D01*
X179237578Y-87179088D01*
X179911000Y-87178376D01*
X181534649Y-87176370D01*
X183104780Y-87173388D01*
X184609607Y-87169502D01*
X186037343Y-87164787D01*
X187376203Y-87159317D01*
X188614401Y-87153164D01*
X189740152Y-87146404D01*
X190741669Y-87139109D01*
X191607167Y-87131353D01*
X192324860Y-87123210D01*
X192882963Y-87114754D01*
X193269689Y-87106058D01*
X193473252Y-87097197D01*
X193501505Y-87093366D01*
X193593528Y-87036400D01*
X193649513Y-86924049D01*
X193677370Y-86714842D01*
X193685009Y-86367310D01*
X193683803Y-86137664D01*
X193666717Y-85654143D01*
X200809445Y-85654143D01*
X200847749Y-86157443D01*
X200909871Y-86512669D01*
X201293997Y-87975631D01*
X201810953Y-89293459D01*
X202459378Y-90464189D01*
X203237907Y-91485855D01*
X204145179Y-92356491D01*
X205179829Y-93074132D01*
X205629741Y-93318258D01*
X206127793Y-93540945D01*
X206709079Y-93756075D01*
X207332018Y-93952883D01*
X207955026Y-94120604D01*
X208536520Y-94248472D01*
X209034919Y-94325720D01*
X209408640Y-94341585D01*
X209523215Y-94326263D01*
X209682894Y-94298377D01*
X209961261Y-94257212D01*
X210123215Y-94235015D01*
X211018150Y-94084265D01*
X211744712Y-93890097D01*
X212331467Y-93643966D01*
X212579142Y-93500162D01*
X213730408Y-92650084D01*
X214844566Y-91608943D01*
X215362935Y-91044451D01*
X215780803Y-90546435D01*
X216095938Y-90107219D01*
X216334218Y-89673008D01*
X216521521Y-89190008D01*
X216683725Y-88604423D01*
X216811117Y-88034000D01*
X216880221Y-87584000D01*
X220676789Y-87584000D01*
X220692504Y-87725963D01*
X220727228Y-87709000D01*
X220740435Y-87504265D01*
X220727228Y-87459000D01*
X220690728Y-87446437D01*
X220676789Y-87584000D01*
X216880221Y-87584000D01*
X216894052Y-87493934D01*
X216950513Y-86825766D01*
X216980169Y-86085180D01*
X216982691Y-85327862D01*
X216957749Y-84609498D01*
X216908386Y-84025666D01*
X220568894Y-84025666D01*
X220587280Y-84155368D01*
X220621416Y-84156916D01*
X220645288Y-84023077D01*
X220629311Y-83965250D01*
X220584908Y-83927371D01*
X220568894Y-84025666D01*
X216908386Y-84025666D01*
X216905013Y-83985774D01*
X216839955Y-83584000D01*
X220476789Y-83584000D01*
X220492504Y-83725963D01*
X220527228Y-83709000D01*
X220540435Y-83504265D01*
X220527228Y-83459000D01*
X220490728Y-83446437D01*
X220476789Y-83584000D01*
X216839955Y-83584000D01*
X216837576Y-83569309D01*
X216602718Y-82823093D01*
X216227509Y-82097932D01*
X215695006Y-81366519D01*
X215009002Y-80622100D01*
X214644147Y-80265788D01*
X214339761Y-79991169D01*
X214049808Y-79766554D01*
X213728252Y-79560256D01*
X213329056Y-79340588D01*
X212806186Y-79075863D01*
X212651014Y-78999059D01*
X212184352Y-78780285D01*
X216110926Y-78780285D01*
X216189407Y-78971537D01*
X216390882Y-79252793D01*
X216724355Y-79640284D01*
X217069352Y-80013414D01*
X217482476Y-80444891D01*
X217784362Y-80741073D01*
X217994310Y-80918189D01*
X218131622Y-80992471D01*
X218215597Y-80980147D01*
X218217327Y-80978748D01*
X218270484Y-80887799D01*
X218240618Y-80738525D01*
X218114590Y-80491492D01*
X217981184Y-80269981D01*
X217724634Y-79901683D01*
X217415482Y-79526252D01*
X217086668Y-79176101D01*
X216771133Y-78883641D01*
X216501816Y-78681287D01*
X216311659Y-78601450D01*
X216286929Y-78602858D01*
X216146435Y-78662803D01*
X216110926Y-78780285D01*
X212184352Y-78780285D01*
X211838573Y-78618182D01*
X211136384Y-78340484D01*
X210492370Y-78152315D01*
X209854451Y-78040026D01*
X209170551Y-77989967D01*
X208778038Y-77984000D01*
X207784632Y-78055672D01*
X206772756Y-78259647D01*
X205787402Y-78579359D01*
X204873564Y-78998242D01*
X204076238Y-79499732D01*
X203619798Y-79883090D01*
X203331242Y-80153598D01*
X203097049Y-80360917D01*
X202953980Y-80473006D01*
X202930430Y-80484000D01*
X202807079Y-80539078D01*
X202593905Y-80676334D01*
X202347751Y-80853800D01*
X202125463Y-81029508D01*
X201983883Y-81161491D01*
X201961000Y-81199731D01*
X202038453Y-81302189D01*
X202160326Y-81383639D01*
X202242338Y-81438729D01*
X202275751Y-81516217D01*
X202251248Y-81650134D01*
X202159516Y-81874509D01*
X201991239Y-82223373D01*
X201856863Y-82492243D01*
X201455856Y-83322465D01*
X201158511Y-84020230D01*
X200956926Y-84619073D01*
X200843204Y-85152532D01*
X200809445Y-85654143D01*
X193666717Y-85654143D01*
X193666201Y-85639556D01*
X193623012Y-85325029D01*
X193552069Y-85179041D01*
X193545053Y-85174144D01*
X193431115Y-85164469D01*
X193128773Y-85155108D01*
X192649621Y-85146129D01*
X192005256Y-85137600D01*
X191207272Y-85129592D01*
X190267264Y-85122171D01*
X189196829Y-85115409D01*
X188007560Y-85109372D01*
X186711054Y-85104131D01*
X185318906Y-85099753D01*
X183842711Y-85096308D01*
X182294064Y-85093865D01*
X180684561Y-85092491D01*
X179740596Y-85092214D01*
X177812057Y-85091976D01*
X176073369Y-85091539D01*
X174514386Y-85090762D01*
X173124959Y-85089504D01*
X171894940Y-85087626D01*
X170814182Y-85084986D01*
X169872536Y-85081444D01*
X169059854Y-85076859D01*
X168365988Y-85071090D01*
X167780791Y-85063997D01*
X167294115Y-85055439D01*
X166895811Y-85045276D01*
X166575732Y-85033367D01*
X166323729Y-85019571D01*
X166129656Y-85003748D01*
X165983363Y-84985756D01*
X165874703Y-84965456D01*
X165793527Y-84942707D01*
X165729689Y-84917368D01*
X165688841Y-84897481D01*
X165231142Y-84564010D01*
X164923391Y-84132544D01*
X164907999Y-84084000D01*
X197561000Y-84084000D01*
X197597588Y-84166311D01*
X197627666Y-84150666D01*
X197639634Y-84031990D01*
X197627666Y-84017333D01*
X197568216Y-84031060D01*
X197561000Y-84084000D01*
X164907999Y-84084000D01*
X164766841Y-83638841D01*
X164766738Y-83625666D01*
X197668894Y-83625666D01*
X197687280Y-83755368D01*
X197721416Y-83756916D01*
X197745288Y-83623077D01*
X197729311Y-83565250D01*
X197684908Y-83527371D01*
X197668894Y-83625666D01*
X164766738Y-83625666D01*
X164762747Y-83118662D01*
X164860752Y-82784000D01*
X196861000Y-82784000D01*
X196897588Y-82866311D01*
X196927666Y-82850666D01*
X196939634Y-82731990D01*
X196927666Y-82717333D01*
X196868216Y-82731060D01*
X196861000Y-82784000D01*
X164860752Y-82784000D01*
X164912362Y-82607766D01*
X165216943Y-82141913D01*
X165580897Y-81820211D01*
X165962464Y-81635359D01*
X166433766Y-81520175D01*
X166927882Y-81480091D01*
X167377889Y-81520540D01*
X167716653Y-81646816D01*
X167840192Y-81714590D01*
X167993916Y-81763941D01*
X168209450Y-81797701D01*
X168518421Y-81818702D01*
X168952456Y-81829776D01*
X169543182Y-81833757D01*
X169806729Y-81834000D01*
X170519323Y-81829665D01*
X171060512Y-81815342D01*
X171458730Y-81789051D01*
X171742412Y-81748812D01*
X171939993Y-81692644D01*
X171961000Y-81684000D01*
X172037446Y-81660131D01*
X172156831Y-81638629D01*
X172330029Y-81619302D01*
X172567918Y-81601961D01*
X172881374Y-81586415D01*
X173281272Y-81572471D01*
X173778490Y-81559941D01*
X174383904Y-81548632D01*
X175108390Y-81538354D01*
X175962824Y-81528917D01*
X176958083Y-81520129D01*
X178105043Y-81511799D01*
X179414580Y-81503737D01*
X180897571Y-81495753D01*
X182564893Y-81487654D01*
X183361000Y-81484000D01*
X194411000Y-81434000D01*
X194661000Y-80665678D01*
X194786708Y-80297713D01*
X194897662Y-80005486D01*
X194974168Y-79839998D01*
X194986000Y-79824012D01*
X195038041Y-79771030D01*
X195072550Y-79723859D01*
X195078894Y-79682162D01*
X195046438Y-79645602D01*
X194964549Y-79613839D01*
X194822595Y-79586538D01*
X194609940Y-79563359D01*
X194315952Y-79543967D01*
X193929998Y-79528023D01*
X193441443Y-79515189D01*
X192839654Y-79505129D01*
X192113997Y-79497504D01*
X191253840Y-79491978D01*
X190248549Y-79488211D01*
X189087489Y-79485868D01*
X187760028Y-79484610D01*
X186255532Y-79484100D01*
X184563367Y-79484000D01*
X173489157Y-79484000D01*
X173026907Y-79077110D01*
X172616667Y-78601280D01*
X172381350Y-78067481D01*
X172325943Y-77506364D01*
X172455439Y-76948580D01*
X172627350Y-76623080D01*
X172861254Y-76375354D01*
X173198533Y-76137134D01*
X173553336Y-75962582D01*
X173761000Y-75907867D01*
X174249683Y-75878654D01*
X174728067Y-75899218D01*
X175127440Y-75964000D01*
X175326796Y-76034539D01*
X175475775Y-76060449D01*
X175808169Y-76084194D01*
X176307402Y-76105766D01*
X176956900Y-76125157D01*
X177740089Y-76142356D01*
X178640395Y-76157357D01*
X179641243Y-76170150D01*
X180726059Y-76180726D01*
X181878268Y-76189078D01*
X183081296Y-76195195D01*
X184318569Y-76199070D01*
X185573511Y-76200695D01*
X186829550Y-76200059D01*
X188070111Y-76197156D01*
X189278618Y-76191975D01*
X190438498Y-76184509D01*
X191533177Y-76174748D01*
X192546079Y-76162685D01*
X193460632Y-76148310D01*
X194260259Y-76131615D01*
X194928388Y-76112592D01*
X195448442Y-76091230D01*
X195803850Y-76067523D01*
X195964990Y-76045300D01*
X196397834Y-75950521D01*
X196880313Y-75866508D01*
X197099417Y-75836428D01*
X197531512Y-75753330D01*
X197825115Y-75613631D01*
X197928962Y-75525127D01*
X198103639Y-75362587D01*
X198210805Y-75285074D01*
X198216239Y-75283999D01*
X198301816Y-75350238D01*
X198495356Y-75528722D01*
X198764582Y-75789101D01*
X198966240Y-75989250D01*
X199670092Y-76694500D01*
X199201588Y-77214250D01*
X198653211Y-77875456D01*
X198116017Y-78617921D01*
X197644588Y-79363047D01*
X197403034Y-79804157D01*
X197063363Y-80474314D01*
X197283097Y-80628222D01*
X197502832Y-80782130D01*
X197223143Y-81640958D01*
X197104821Y-82024985D01*
X197022857Y-82332110D01*
X196988745Y-82517028D01*
X196992710Y-82549044D01*
X197044975Y-82500053D01*
X197104338Y-82314042D01*
X197107397Y-82300403D01*
X197165709Y-82118717D01*
X197276382Y-82024423D01*
X197499540Y-81981036D01*
X197654734Y-81968252D01*
X198136642Y-81934000D01*
X197996086Y-82384000D01*
X197873351Y-82799798D01*
X197813127Y-83051318D01*
X197812825Y-83132095D01*
X197869853Y-83035661D01*
X197981621Y-82755552D01*
X198058722Y-82540297D01*
X198293518Y-81981788D01*
X199865069Y-81981788D01*
X199882164Y-82064485D01*
X199966295Y-82020405D01*
X199990483Y-82000764D01*
X200107900Y-81867278D01*
X200305720Y-81605000D01*
X200555477Y-81252909D01*
X200806349Y-80883625D01*
X201127466Y-80420754D01*
X201473761Y-79953156D01*
X201796426Y-79545329D01*
X201981625Y-79330469D01*
X202240663Y-79041956D01*
X202380365Y-78860969D01*
X202418168Y-78749115D01*
X202371511Y-78667999D01*
X202306445Y-78615281D01*
X202024770Y-78420030D01*
X201838747Y-78354124D01*
X201691903Y-78417067D01*
X201527768Y-78608361D01*
X201527712Y-78608435D01*
X201087932Y-79240422D01*
X200683735Y-79907755D01*
X200338343Y-80565680D01*
X200074975Y-81169446D01*
X199916854Y-81674298D01*
X199903746Y-81738208D01*
X199865069Y-81981788D01*
X198293518Y-81981788D01*
X198649903Y-81134058D01*
X199402766Y-79826150D01*
X200303634Y-78631065D01*
X201338827Y-77563300D01*
X202412410Y-76703247D01*
X206015792Y-76703247D01*
X206050794Y-76944060D01*
X206070511Y-77022230D01*
X206153155Y-77266287D01*
X206252069Y-77360435D01*
X206420840Y-77351251D01*
X206443522Y-77346465D01*
X207442323Y-77188140D01*
X208508758Y-77121938D01*
X209588840Y-77145254D01*
X210628587Y-77255484D01*
X211574014Y-77450023D01*
X212111000Y-77619930D01*
X212425940Y-77722666D01*
X212611030Y-77725107D01*
X212717147Y-77612617D01*
X212780067Y-77427484D01*
X212824572Y-77181229D01*
X212817650Y-77019405D01*
X212686060Y-76907677D01*
X212385888Y-76780650D01*
X211947018Y-76647742D01*
X211399335Y-76518370D01*
X210957516Y-76433246D01*
X210451905Y-76365751D01*
X209855785Y-76320541D01*
X209204050Y-76296622D01*
X208531592Y-76293000D01*
X207873308Y-76308680D01*
X207264090Y-76342670D01*
X206738832Y-76393976D01*
X206332430Y-76461603D01*
X206079777Y-76544558D01*
X206037989Y-76573359D01*
X206015792Y-76703247D01*
X202412410Y-76703247D01*
X202494669Y-76637349D01*
X203757480Y-75867706D01*
X204812361Y-75383459D01*
X205503211Y-75123908D01*
X206121898Y-74930594D01*
X206719880Y-74794776D01*
X207348615Y-74707715D01*
X208059561Y-74660670D01*
X208904178Y-74644903D01*
X209161000Y-74644872D01*
X209841055Y-74649162D01*
G36*
X198561000Y-79234000D02*
X198511000Y-79284000D01*
X198461000Y-79234000D01*
X198511000Y-79184000D01*
X198561000Y-79234000D01*
X198561000Y-79234000D01*
G37*
X198561000Y-79234000D02*
X198511000Y-79284000D01*
X198461000Y-79234000D01*
X198511000Y-79184000D01*
X198561000Y-79234000D01*
G36*
X198729626Y-78948594D02*
X198711000Y-78984000D01*
X198616778Y-79079500D01*
X198599196Y-79084000D01*
X198592373Y-79019405D01*
X198611000Y-78984000D01*
X198705221Y-78888499D01*
X198722803Y-78884000D01*
X198729626Y-78948594D01*
X198729626Y-78948594D01*
G37*
X198729626Y-78948594D02*
X198711000Y-78984000D01*
X198616778Y-79079500D01*
X198599196Y-79084000D01*
X198592373Y-79019405D01*
X198611000Y-78984000D01*
X198705221Y-78888499D01*
X198722803Y-78884000D01*
X198729626Y-78948594D01*
G36*
X199029617Y-78536544D02*
X198973755Y-78609000D01*
X198827794Y-78764467D01*
X198762641Y-78763791D01*
X198761000Y-78746244D01*
X198829337Y-78662770D01*
X198936000Y-78571244D01*
X199054449Y-78484759D01*
X199029617Y-78536544D01*
X199029617Y-78536544D01*
G37*
X199029617Y-78536544D02*
X198973755Y-78609000D01*
X198827794Y-78764467D01*
X198762641Y-78763791D01*
X198761000Y-78746244D01*
X198829337Y-78662770D01*
X198936000Y-78571244D01*
X199054449Y-78484759D01*
X199029617Y-78536544D01*
G36*
X199329617Y-78136544D02*
X199273755Y-78209000D01*
X199127794Y-78364467D01*
X199062641Y-78363791D01*
X199061000Y-78346244D01*
X199129337Y-78262770D01*
X199236000Y-78171244D01*
X199354449Y-78084759D01*
X199329617Y-78136544D01*
X199329617Y-78136544D01*
G37*
X199329617Y-78136544D02*
X199273755Y-78209000D01*
X199127794Y-78364467D01*
X199062641Y-78363791D01*
X199061000Y-78346244D01*
X199129337Y-78262770D01*
X199236000Y-78171244D01*
X199354449Y-78084759D01*
X199329617Y-78136544D01*
G36*
X219045549Y-78224450D02*
X219152061Y-78317409D01*
X219161000Y-78339901D01*
X219113542Y-78381002D01*
X219014736Y-78288905D01*
X219001450Y-78268549D01*
X218989664Y-78200119D01*
X219045549Y-78224450D01*
X219045549Y-78224450D01*
G37*
X219045549Y-78224450D02*
X219152061Y-78317409D01*
X219161000Y-78339901D01*
X219113542Y-78381002D01*
X219014736Y-78288905D01*
X219001450Y-78268549D01*
X218989664Y-78200119D01*
X219045549Y-78224450D01*
G36*
X218513544Y-77615382D02*
X218586000Y-77671244D01*
X218741467Y-77817205D01*
X218740791Y-77882358D01*
X218723244Y-77884000D01*
X218639770Y-77815662D01*
X218548244Y-77709000D01*
X218461759Y-77590550D01*
X218513544Y-77615382D01*
X218513544Y-77615382D01*
G37*
X218513544Y-77615382D02*
X218586000Y-77671244D01*
X218741467Y-77817205D01*
X218740791Y-77882358D01*
X218723244Y-77884000D01*
X218639770Y-77815662D01*
X218548244Y-77709000D01*
X218461759Y-77590550D01*
X218513544Y-77615382D01*
G36*
X206239654Y-41902341D02*
X206534189Y-42066030D01*
X206568239Y-42102415D01*
X206715853Y-42252920D01*
X206808264Y-42256982D01*
X206884463Y-42166333D01*
X206978706Y-42063454D01*
X207089991Y-42074456D01*
X207276885Y-42195311D01*
X207527147Y-42416222D01*
X207764919Y-42689486D01*
X207782022Y-42712977D01*
X208011000Y-43034000D01*
X208111000Y-70734000D01*
X209978029Y-70734000D01*
X209994514Y-57134000D01*
X209996897Y-55211343D01*
X209999251Y-53478424D01*
X210001734Y-51924979D01*
X210004503Y-50540745D01*
X210007716Y-49315460D01*
X210011531Y-48238861D01*
X210016106Y-47300685D01*
X210021598Y-46490669D01*
X210028166Y-45798550D01*
X210035965Y-45214066D01*
X210045155Y-44726954D01*
X210055894Y-44326950D01*
X210068337Y-44003793D01*
X210082645Y-43747219D01*
X210098973Y-43546965D01*
X210117480Y-43392769D01*
X210138324Y-43274368D01*
X210161662Y-43181499D01*
X210187651Y-43103899D01*
X210211000Y-43044592D01*
X210506059Y-42542695D01*
X210913530Y-42165255D01*
X211395442Y-41944117D01*
X211562487Y-41911117D01*
X211850212Y-41890646D01*
X212026649Y-41945223D01*
X212169864Y-42094050D01*
X212318748Y-42253398D01*
X212452441Y-42262604D01*
X212558874Y-42206714D01*
X212776168Y-42136123D01*
X212993577Y-42212899D01*
X213237771Y-42452179D01*
X213418257Y-42694453D01*
X213711000Y-43116860D01*
X213811000Y-71529198D01*
X214111000Y-71618310D01*
X214367914Y-71704534D01*
X214720852Y-71834992D01*
X214998755Y-71943729D01*
X215317160Y-72058680D01*
X215563076Y-72123503D01*
X215673755Y-72126116D01*
X215685828Y-72020574D01*
X215697361Y-71727422D01*
X215708257Y-71259048D01*
X215718413Y-70627841D01*
X215727729Y-69846189D01*
X215736105Y-68926483D01*
X215743440Y-67881110D01*
X215749634Y-66722459D01*
X215754587Y-65462919D01*
X215758197Y-64114880D01*
X215760365Y-62690729D01*
X215761000Y-61369446D01*
X215761000Y-50666695D01*
X216077418Y-50226091D01*
X216300933Y-49945096D01*
X216519894Y-49717337D01*
X216616415Y-49639647D01*
X216812875Y-49552877D01*
X217090437Y-49477382D01*
X217390411Y-49422369D01*
X217654109Y-49397048D01*
X217822842Y-49410627D01*
X217853650Y-49445520D01*
X217845327Y-49662526D01*
X217949994Y-49753360D01*
X218202262Y-49743576D01*
X218247448Y-49736289D01*
X218492445Y-49709958D01*
X218659028Y-49759413D01*
X218824028Y-49920300D01*
X218929040Y-50052499D01*
X219128488Y-50385631D01*
X219293546Y-50789589D01*
X219342592Y-50966629D01*
X219362192Y-51112178D01*
X219379769Y-51368261D01*
X219395398Y-51742514D01*
X219409153Y-52242574D01*
X219421110Y-52876077D01*
X219431342Y-53650661D01*
X219439924Y-54573963D01*
X219446931Y-55653619D01*
X219452438Y-56897265D01*
X219456519Y-58312540D01*
X219459248Y-59907079D01*
X219460702Y-61688520D01*
X219461000Y-63080550D01*
X219461087Y-64848152D01*
X219461467Y-66426690D01*
X219462312Y-67827101D01*
X219463798Y-69060320D01*
X219466098Y-70137283D01*
X219469387Y-71068928D01*
X219473839Y-71866189D01*
X219479628Y-72540004D01*
X219486929Y-73101307D01*
X219495916Y-73561037D01*
X219506763Y-73930127D01*
X219519644Y-74219516D01*
X219534734Y-74440138D01*
X219552207Y-74602930D01*
X219572237Y-74718829D01*
X219594998Y-74798769D01*
X219620665Y-74853689D01*
X219649251Y-74894324D01*
X219837503Y-75126805D01*
X219337641Y-75701508D01*
X218992884Y-76090103D01*
X218739937Y-76336388D01*
X218541834Y-76451082D01*
X218361610Y-76444902D01*
X218162300Y-76328566D01*
X217909929Y-76115438D01*
X217242584Y-75583334D01*
X216426421Y-75030358D01*
X215506184Y-74485965D01*
X215111000Y-74273029D01*
X213651537Y-73617489D01*
X212151034Y-73153197D01*
X210622600Y-72878870D01*
X209079346Y-72793224D01*
X207534381Y-72894979D01*
X206000816Y-73182851D01*
X204491761Y-73655558D01*
X203020327Y-74311818D01*
X201599623Y-75150348D01*
X200875259Y-75665542D01*
X200139519Y-76221636D01*
X198660999Y-74709222D01*
X198662186Y-63021611D01*
X198662230Y-61181185D01*
X198662344Y-59529996D01*
X198663096Y-58057285D01*
X198665053Y-56752288D01*
X198668780Y-55604245D01*
X198674846Y-54602395D01*
X198683815Y-53735975D01*
X198696256Y-52994225D01*
X198712734Y-52366382D01*
X198733817Y-51841687D01*
X198760071Y-51409376D01*
X198792063Y-51058689D01*
X198830359Y-50778865D01*
X198875527Y-50559141D01*
X198928132Y-50388757D01*
X198988742Y-50256951D01*
X199057923Y-50152961D01*
X199136242Y-50066027D01*
X199224266Y-49985387D01*
X199322561Y-49900278D01*
X199354638Y-49871816D01*
X199701618Y-49618482D01*
X200059509Y-49452764D01*
X200386851Y-49382975D01*
X200642184Y-49417428D01*
X200784050Y-49564437D01*
X200789974Y-49583999D01*
X200899879Y-49724927D01*
X201078933Y-49787708D01*
X201236932Y-49751597D01*
X201277666Y-49696162D01*
X201381089Y-49640872D01*
X201563881Y-49714761D01*
X201782012Y-49889614D01*
X201991453Y-50137217D01*
X202011030Y-50166110D01*
X202082885Y-50284191D01*
X202146893Y-50416658D01*
X202203467Y-50574996D01*
X202253022Y-50770690D01*
X202295972Y-51015226D01*
X202332731Y-51320088D01*
X202363713Y-51696763D01*
X202389331Y-52156735D01*
X202410001Y-52711490D01*
X202426136Y-53372513D01*
X202438149Y-54151290D01*
X202446455Y-55059305D01*
X202451469Y-56108045D01*
X202453603Y-57308994D01*
X202453272Y-58673638D01*
X202450890Y-60213462D01*
X202446872Y-61939952D01*
X202446101Y-62235597D01*
X202443170Y-63619988D01*
X202441757Y-64948449D01*
X202441798Y-66207244D01*
X202443230Y-67382636D01*
X202445988Y-68460888D01*
X202450012Y-69428265D01*
X202455235Y-70271030D01*
X202461597Y-70975447D01*
X202469033Y-71527779D01*
X202477480Y-71914290D01*
X202486874Y-72121243D01*
X202491784Y-72152909D01*
X202601524Y-72188622D01*
X202836863Y-72118137D01*
X203137150Y-71977578D01*
X203459671Y-71825309D01*
X203726359Y-71719492D01*
X203863749Y-71685266D01*
X204057772Y-71629648D01*
X204238749Y-71528329D01*
X204461000Y-71372659D01*
X204461000Y-43014007D01*
X204749378Y-42615912D01*
X205087665Y-42255167D01*
X205475841Y-42008357D01*
X205873355Y-41886932D01*
X206239654Y-41902341D01*
X206239654Y-41902341D01*
G37*
X206239654Y-41902341D02*
X206534189Y-42066030D01*
X206568239Y-42102415D01*
X206715853Y-42252920D01*
X206808264Y-42256982D01*
X206884463Y-42166333D01*
X206978706Y-42063454D01*
X207089991Y-42074456D01*
X207276885Y-42195311D01*
X207527147Y-42416222D01*
X207764919Y-42689486D01*
X207782022Y-42712977D01*
X208011000Y-43034000D01*
X208111000Y-70734000D01*
X209978029Y-70734000D01*
X209994514Y-57134000D01*
X209996897Y-55211343D01*
X209999251Y-53478424D01*
X210001734Y-51924979D01*
X210004503Y-50540745D01*
X210007716Y-49315460D01*
X210011531Y-48238861D01*
X210016106Y-47300685D01*
X210021598Y-46490669D01*
X210028166Y-45798550D01*
X210035965Y-45214066D01*
X210045155Y-44726954D01*
X210055894Y-44326950D01*
X210068337Y-44003793D01*
X210082645Y-43747219D01*
X210098973Y-43546965D01*
X210117480Y-43392769D01*
X210138324Y-43274368D01*
X210161662Y-43181499D01*
X210187651Y-43103899D01*
X210211000Y-43044592D01*
X210506059Y-42542695D01*
X210913530Y-42165255D01*
X211395442Y-41944117D01*
X211562487Y-41911117D01*
X211850212Y-41890646D01*
X212026649Y-41945223D01*
X212169864Y-42094050D01*
X212318748Y-42253398D01*
X212452441Y-42262604D01*
X212558874Y-42206714D01*
X212776168Y-42136123D01*
X212993577Y-42212899D01*
X213237771Y-42452179D01*
X213418257Y-42694453D01*
X213711000Y-43116860D01*
X213811000Y-71529198D01*
X214111000Y-71618310D01*
X214367914Y-71704534D01*
X214720852Y-71834992D01*
X214998755Y-71943729D01*
X215317160Y-72058680D01*
X215563076Y-72123503D01*
X215673755Y-72126116D01*
X215685828Y-72020574D01*
X215697361Y-71727422D01*
X215708257Y-71259048D01*
X215718413Y-70627841D01*
X215727729Y-69846189D01*
X215736105Y-68926483D01*
X215743440Y-67881110D01*
X215749634Y-66722459D01*
X215754587Y-65462919D01*
X215758197Y-64114880D01*
X215760365Y-62690729D01*
X215761000Y-61369446D01*
X215761000Y-50666695D01*
X216077418Y-50226091D01*
X216300933Y-49945096D01*
X216519894Y-49717337D01*
X216616415Y-49639647D01*
X216812875Y-49552877D01*
X217090437Y-49477382D01*
X217390411Y-49422369D01*
X217654109Y-49397048D01*
X217822842Y-49410627D01*
X217853650Y-49445520D01*
X217845327Y-49662526D01*
X217949994Y-49753360D01*
X218202262Y-49743576D01*
X218247448Y-49736289D01*
X218492445Y-49709958D01*
X218659028Y-49759413D01*
X218824028Y-49920300D01*
X218929040Y-50052499D01*
X219128488Y-50385631D01*
X219293546Y-50789589D01*
X219342592Y-50966629D01*
X219362192Y-51112178D01*
X219379769Y-51368261D01*
X219395398Y-51742514D01*
X219409153Y-52242574D01*
X219421110Y-52876077D01*
X219431342Y-53650661D01*
X219439924Y-54573963D01*
X219446931Y-55653619D01*
X219452438Y-56897265D01*
X219456519Y-58312540D01*
X219459248Y-59907079D01*
X219460702Y-61688520D01*
X219461000Y-63080550D01*
X219461087Y-64848152D01*
X219461467Y-66426690D01*
X219462312Y-67827101D01*
X219463798Y-69060320D01*
X219466098Y-70137283D01*
X219469387Y-71068928D01*
X219473839Y-71866189D01*
X219479628Y-72540004D01*
X219486929Y-73101307D01*
X219495916Y-73561037D01*
X219506763Y-73930127D01*
X219519644Y-74219516D01*
X219534734Y-74440138D01*
X219552207Y-74602930D01*
X219572237Y-74718829D01*
X219594998Y-74798769D01*
X219620665Y-74853689D01*
X219649251Y-74894324D01*
X219837503Y-75126805D01*
X219337641Y-75701508D01*
X218992884Y-76090103D01*
X218739937Y-76336388D01*
X218541834Y-76451082D01*
X218361610Y-76444902D01*
X218162300Y-76328566D01*
X217909929Y-76115438D01*
X217242584Y-75583334D01*
X216426421Y-75030358D01*
X215506184Y-74485965D01*
X215111000Y-74273029D01*
X213651537Y-73617489D01*
X212151034Y-73153197D01*
X210622600Y-72878870D01*
X209079346Y-72793224D01*
X207534381Y-72894979D01*
X206000816Y-73182851D01*
X204491761Y-73655558D01*
X203020327Y-74311818D01*
X201599623Y-75150348D01*
X200875259Y-75665542D01*
X200139519Y-76221636D01*
X198660999Y-74709222D01*
X198662186Y-63021611D01*
X198662230Y-61181185D01*
X198662344Y-59529996D01*
X198663096Y-58057285D01*
X198665053Y-56752288D01*
X198668780Y-55604245D01*
X198674846Y-54602395D01*
X198683815Y-53735975D01*
X198696256Y-52994225D01*
X198712734Y-52366382D01*
X198733817Y-51841687D01*
X198760071Y-51409376D01*
X198792063Y-51058689D01*
X198830359Y-50778865D01*
X198875527Y-50559141D01*
X198928132Y-50388757D01*
X198988742Y-50256951D01*
X199057923Y-50152961D01*
X199136242Y-50066027D01*
X199224266Y-49985387D01*
X199322561Y-49900278D01*
X199354638Y-49871816D01*
X199701618Y-49618482D01*
X200059509Y-49452764D01*
X200386851Y-49382975D01*
X200642184Y-49417428D01*
X200784050Y-49564437D01*
X200789974Y-49583999D01*
X200899879Y-49724927D01*
X201078933Y-49787708D01*
X201236932Y-49751597D01*
X201277666Y-49696162D01*
X201381089Y-49640872D01*
X201563881Y-49714761D01*
X201782012Y-49889614D01*
X201991453Y-50137217D01*
X202011030Y-50166110D01*
X202082885Y-50284191D01*
X202146893Y-50416658D01*
X202203467Y-50574996D01*
X202253022Y-50770690D01*
X202295972Y-51015226D01*
X202332731Y-51320088D01*
X202363713Y-51696763D01*
X202389331Y-52156735D01*
X202410001Y-52711490D01*
X202426136Y-53372513D01*
X202438149Y-54151290D01*
X202446455Y-55059305D01*
X202451469Y-56108045D01*
X202453603Y-57308994D01*
X202453272Y-58673638D01*
X202450890Y-60213462D01*
X202446872Y-61939952D01*
X202446101Y-62235597D01*
X202443170Y-63619988D01*
X202441757Y-64948449D01*
X202441798Y-66207244D01*
X202443230Y-67382636D01*
X202445988Y-68460888D01*
X202450012Y-69428265D01*
X202455235Y-70271030D01*
X202461597Y-70975447D01*
X202469033Y-71527779D01*
X202477480Y-71914290D01*
X202486874Y-72121243D01*
X202491784Y-72152909D01*
X202601524Y-72188622D01*
X202836863Y-72118137D01*
X203137150Y-71977578D01*
X203459671Y-71825309D01*
X203726359Y-71719492D01*
X203863749Y-71685266D01*
X204057772Y-71629648D01*
X204238749Y-71528329D01*
X204461000Y-71372659D01*
X204461000Y-43014007D01*
X204749378Y-42615912D01*
X205087665Y-42255167D01*
X205475841Y-42008357D01*
X205873355Y-41886932D01*
X206239654Y-41902341D01*
G36*
X215877043Y-75153235D02*
X215961000Y-75234000D01*
X216049236Y-75360990D01*
X215991130Y-75352436D01*
X215816887Y-75230819D01*
X215708486Y-75122297D01*
X215729642Y-75084000D01*
X215877043Y-75153235D01*
X215877043Y-75153235D01*
G37*
X215877043Y-75153235D02*
X215961000Y-75234000D01*
X216049236Y-75360990D01*
X215991130Y-75352436D01*
X215816887Y-75230819D01*
X215708486Y-75122297D01*
X215729642Y-75084000D01*
X215877043Y-75153235D01*
D10*
X211075640Y-72155173D02*
X210975640Y-72188507D01*
X210808973Y-72188507D01*
X210742306Y-72155173D01*
X210708973Y-72121840D01*
X210675640Y-72055173D01*
X210675640Y-71988507D01*
X210708973Y-71921840D01*
X210742306Y-71888507D01*
X210808973Y-71855173D01*
X210942306Y-71821840D01*
X211008973Y-71788507D01*
X211042306Y-71755173D01*
X211075640Y-71688507D01*
X211075640Y-71621840D01*
X211042306Y-71555173D01*
X211008973Y-71521840D01*
X210942306Y-71488507D01*
X210775640Y-71488507D01*
X210675640Y-71521840D01*
X210375639Y-72188507D02*
X210375639Y-71488507D01*
X210208973Y-71488507D01*
X210108973Y-71521840D01*
X210042306Y-71588507D01*
X210008973Y-71655173D01*
X209975639Y-71788507D01*
X209975639Y-71888507D01*
X210008973Y-72021840D01*
X210042306Y-72088507D01*
X210108973Y-72155173D01*
X210208973Y-72188507D01*
X210375639Y-72188507D01*
X209708973Y-71988507D02*
X209375639Y-71988507D01*
X209775639Y-72188507D02*
X209542306Y-71488507D01*
X209308973Y-72188507D01*
X211058974Y-77235173D02*
X210958974Y-77268507D01*
X210792307Y-77268507D01*
X210725640Y-77235173D01*
X210692307Y-77201840D01*
X210658974Y-77135173D01*
X210658974Y-77068507D01*
X210692307Y-77001840D01*
X210725640Y-76968507D01*
X210792307Y-76935173D01*
X210925640Y-76901840D01*
X210992307Y-76868507D01*
X211025640Y-76835173D01*
X211058974Y-76768507D01*
X211058974Y-76701840D01*
X211025640Y-76635173D01*
X210992307Y-76601840D01*
X210925640Y-76568507D01*
X210758974Y-76568507D01*
X210658974Y-76601840D01*
X209958973Y-77201840D02*
X209992307Y-77235173D01*
X210092307Y-77268507D01*
X210158973Y-77268507D01*
X210258973Y-77235173D01*
X210325640Y-77168507D01*
X210358973Y-77101840D01*
X210392307Y-76968507D01*
X210392307Y-76868507D01*
X210358973Y-76735173D01*
X210325640Y-76668507D01*
X210258973Y-76601840D01*
X210158973Y-76568507D01*
X210092307Y-76568507D01*
X209992307Y-76601840D01*
X209958973Y-76635173D01*
X209325640Y-77268507D02*
X209658973Y-77268507D01*
X209658973Y-76568507D01*
X205678973Y-76601840D02*
X205745639Y-76568507D01*
X205845639Y-76568507D01*
X205945639Y-76601840D01*
X206012306Y-76668507D01*
X206045639Y-76735173D01*
X206078973Y-76868507D01*
X206078973Y-76968507D01*
X206045639Y-77101840D01*
X206012306Y-77168507D01*
X205945639Y-77235173D01*
X205845639Y-77268507D01*
X205778973Y-77268507D01*
X205678973Y-77235173D01*
X205645639Y-77201840D01*
X205645639Y-76968507D01*
X205778973Y-76968507D01*
X205345639Y-77268507D02*
X205345639Y-76568507D01*
X204945639Y-77268507D01*
X204945639Y-76568507D01*
X204612306Y-77268507D02*
X204612306Y-76568507D01*
X204445640Y-76568507D01*
X204345640Y-76601840D01*
X204278973Y-76668507D01*
X204245640Y-76735173D01*
X204212306Y-76868507D01*
X204212306Y-76968507D01*
X204245640Y-77101840D01*
X204278973Y-77168507D01*
X204345640Y-77235173D01*
X204445640Y-77268507D01*
X204612306Y-77268507D01*
X206078973Y-71488507D02*
X205845640Y-72188507D01*
X205612307Y-71488507D01*
X204978973Y-72121840D02*
X205012307Y-72155173D01*
X205112307Y-72188507D01*
X205178973Y-72188507D01*
X205278973Y-72155173D01*
X205345640Y-72088507D01*
X205378973Y-72021840D01*
X205412307Y-71888507D01*
X205412307Y-71788507D01*
X205378973Y-71655173D01*
X205345640Y-71588507D01*
X205278973Y-71521840D01*
X205178973Y-71488507D01*
X205112307Y-71488507D01*
X205012307Y-71521840D01*
X204978973Y-71555173D01*
X204278973Y-72121840D02*
X204312307Y-72155173D01*
X204412307Y-72188507D01*
X204478973Y-72188507D01*
X204578973Y-72155173D01*
X204645640Y-72088507D01*
X204678973Y-72021840D01*
X204712307Y-71888507D01*
X204712307Y-71788507D01*
X204678973Y-71655173D01*
X204645640Y-71588507D01*
X204578973Y-71521840D01*
X204478973Y-71488507D01*
X204412307Y-71488507D01*
X204312307Y-71521840D01*
X204278973Y-71555173D01*
M02*
