G04 #@! TF.FileFunction,Soldermask,Bot*
%FSLAX46Y46*%
G04 Gerber Fmt 4.6, Leading zero omitted, Abs format (unit mm)*
G04 Created by KiCad (PCBNEW 4.0.7) date Wednesday, July 25, 2018 'PMt' 09:51:56 PM*
%MOMM*%
%LPD*%
G01*
G04 APERTURE LIST*
%ADD10C,0.100000*%
%ADD11C,2.000000*%
%ADD12C,2.100000*%
%ADD13O,2.100000X2.100000*%
%ADD14C,0.254000*%
G04 APERTURE END LIST*
D10*
D11*
X99441000Y-93218000D02*
G75*
G03X99441000Y-93218000I-762000J0D01*
G01*
X93919040Y-93141800D02*
G75*
G03X93919040Y-93141800I-762000J0D01*
G01*
D12*
X94361000Y-80772000D03*
D13*
X94361000Y-83312000D03*
X96901000Y-80772000D03*
X96901000Y-83312000D03*
D14*
G36*
X98536104Y-85025744D02*
X101253518Y-85988370D01*
X103615244Y-88175338D01*
X104571048Y-90699258D01*
X104395162Y-96151733D01*
X102389586Y-99384602D01*
X98445277Y-101396800D01*
X93347273Y-101396800D01*
X90292568Y-99999223D01*
X87837605Y-96757669D01*
X86962601Y-93517655D01*
X87749895Y-89305379D01*
X89672953Y-86508204D01*
X90796524Y-85906995D01*
X93615935Y-84849716D01*
X96250345Y-84674089D01*
X98536104Y-85025744D01*
X98536104Y-85025744D01*
G37*
X98536104Y-85025744D02*
X101253518Y-85988370D01*
X103615244Y-88175338D01*
X104571048Y-90699258D01*
X104395162Y-96151733D01*
X102389586Y-99384602D01*
X98445277Y-101396800D01*
X93347273Y-101396800D01*
X90292568Y-99999223D01*
X87837605Y-96757669D01*
X86962601Y-93517655D01*
X87749895Y-89305379D01*
X89672953Y-86508204D01*
X90796524Y-85906995D01*
X93615935Y-84849716D01*
X96250345Y-84674089D01*
X98536104Y-85025744D01*
M02*
