G04 #@! TF.FileFunction,Legend,Bot*
%FSLAX46Y46*%
G04 Gerber Fmt 4.6, Leading zero omitted, Abs format (unit mm)*
G04 Created by KiCad (PCBNEW 4.0.7) date Wednesday, July 25, 2018 'PMt' 09:51:56 PM*
%MOMM*%
%LPD*%
G01*
G04 APERTURE LIST*
%ADD10C,0.100000*%
%ADD11C,0.150000*%
%ADD12C,0.010000*%
G04 APERTURE END LIST*
D10*
D11*
X98571000Y-79502000D02*
G75*
G03X98571000Y-79502000I-400000J0D01*
G01*
D12*
G36*
X96618015Y-81446202D02*
X97141874Y-81457575D01*
X97553318Y-81480186D01*
X97896129Y-81518187D01*
X98214090Y-81575735D01*
X98550981Y-81656983D01*
X98740331Y-81707826D01*
X100220232Y-82208446D01*
X101588786Y-82867306D01*
X102836046Y-83678728D01*
X103952068Y-84637031D01*
X104062356Y-84747080D01*
X104970769Y-85755922D01*
X105723554Y-86798143D01*
X106354100Y-87926299D01*
X106895797Y-89192951D01*
X106908826Y-89227748D01*
X107043465Y-89571676D01*
X107142226Y-89790884D01*
X107193639Y-89862150D01*
X107194097Y-89831040D01*
X108137960Y-89831040D01*
X108187960Y-89881040D01*
X108237960Y-89831040D01*
X108187960Y-89781040D01*
X108137960Y-89831040D01*
X107194097Y-89831040D01*
X107194466Y-89806040D01*
X107142959Y-89481040D01*
X107582126Y-89481040D01*
X107878861Y-89508207D01*
X108052850Y-89579684D01*
X108071731Y-89606040D01*
X108116532Y-89652412D01*
X108130065Y-89572017D01*
X108103227Y-89409747D01*
X108024787Y-89111894D01*
X107909288Y-88731621D01*
X107853447Y-88560781D01*
X107568934Y-87708569D01*
X107798857Y-87569060D01*
X108028780Y-87429550D01*
X107700450Y-86777191D01*
X106938536Y-85456228D01*
X106205175Y-84457452D01*
X105979536Y-84175541D01*
X105813739Y-83959054D01*
X105739299Y-83849323D01*
X105737960Y-83844709D01*
X105807576Y-83765829D01*
X105995078Y-83584918D01*
X106268445Y-83332336D01*
X106474068Y-83146739D01*
X106817833Y-82844652D01*
X107054461Y-82658356D01*
X107222422Y-82566535D01*
X107360186Y-82547874D01*
X107499068Y-82578790D01*
X107708463Y-82645208D01*
X107897439Y-82703893D01*
X108079102Y-82755328D01*
X108266559Y-82799997D01*
X108472916Y-82838382D01*
X108711280Y-82870968D01*
X108994755Y-82898238D01*
X109336450Y-82920674D01*
X109749470Y-82938762D01*
X110246921Y-82952983D01*
X110841909Y-82963821D01*
X111547541Y-82971760D01*
X112376924Y-82977284D01*
X113343162Y-82980874D01*
X114459363Y-82983016D01*
X115738633Y-82984192D01*
X117194078Y-82984885D01*
X118524443Y-82985431D01*
X120172339Y-82987250D01*
X121709149Y-82991098D01*
X123125415Y-82996881D01*
X124411677Y-83004502D01*
X125558475Y-83013866D01*
X126556351Y-83024877D01*
X127395844Y-83037441D01*
X128067495Y-83051462D01*
X128561846Y-83066844D01*
X128869435Y-83083492D01*
X128937960Y-83090471D01*
X129569819Y-83173935D01*
X130038213Y-83229685D01*
X130377750Y-83257699D01*
X130623039Y-83257955D01*
X130808688Y-83230429D01*
X130969305Y-83175097D01*
X131139499Y-83091937D01*
X131145143Y-83088997D01*
X131406154Y-82961796D01*
X131579611Y-82925721D01*
X131753739Y-82976486D01*
X131905318Y-83052074D01*
X132170188Y-83236683D01*
X132364845Y-83453188D01*
X132380897Y-83481186D01*
X132619100Y-84077120D01*
X132671482Y-84614642D01*
X132534323Y-85118039D01*
X132203904Y-85611599D01*
X132025252Y-85803271D01*
X131547483Y-86281040D01*
X120692721Y-86281040D01*
X119237544Y-86281508D01*
X117839661Y-86282873D01*
X116511923Y-86285073D01*
X115267180Y-86288046D01*
X114118282Y-86291731D01*
X113078079Y-86296066D01*
X112159421Y-86300989D01*
X111375158Y-86306439D01*
X110738142Y-86312356D01*
X110261221Y-86318676D01*
X109957246Y-86325338D01*
X109839067Y-86332281D01*
X109837960Y-86333027D01*
X109872880Y-86445385D01*
X109964282Y-86689044D01*
X110087960Y-87000267D01*
X110217227Y-87343867D01*
X110307544Y-87632590D01*
X110337960Y-87791137D01*
X110405175Y-88002155D01*
X110495102Y-88123897D01*
X110535249Y-88149117D01*
X110609769Y-88171524D01*
X110729824Y-88191284D01*
X110906577Y-88208561D01*
X111151189Y-88223520D01*
X111474822Y-88236324D01*
X111888640Y-88247140D01*
X112403803Y-88256132D01*
X113031475Y-88263463D01*
X113782817Y-88269300D01*
X114668992Y-88273806D01*
X115701161Y-88277147D01*
X116890488Y-88279487D01*
X118248133Y-88280990D01*
X119785260Y-88281822D01*
X121220102Y-88282122D01*
X122923974Y-88282548D01*
X124439375Y-88283566D01*
X125777835Y-88285344D01*
X126950884Y-88288046D01*
X127970051Y-88291839D01*
X128846866Y-88296889D01*
X129592857Y-88303362D01*
X130219555Y-88311423D01*
X130738489Y-88321238D01*
X131161188Y-88332975D01*
X131499181Y-88346797D01*
X131763999Y-88362872D01*
X131967169Y-88381365D01*
X132120223Y-88402443D01*
X132234689Y-88426270D01*
X132287960Y-88441422D01*
X132589406Y-88509111D01*
X133041983Y-88567125D01*
X133659583Y-88616704D01*
X134456101Y-88659093D01*
X134937960Y-88678425D01*
X135599028Y-88707457D01*
X136214686Y-88743447D01*
X136748837Y-88783583D01*
X137165387Y-88825053D01*
X137428241Y-88865045D01*
X137469505Y-88875634D01*
X137996891Y-88940499D01*
X138531943Y-88807898D01*
X138811947Y-88662722D01*
X139030944Y-88539919D01*
X139175097Y-88522599D01*
X139340275Y-88612049D01*
X139423751Y-88670922D01*
X139837672Y-89074348D01*
X140099870Y-89562231D01*
X140205774Y-90093992D01*
X140150810Y-90629053D01*
X139930406Y-91126833D01*
X139728853Y-91378479D01*
X139438292Y-91637976D01*
X139157452Y-91776185D01*
X138866923Y-91834068D01*
X138710269Y-91841558D01*
X138365664Y-91849045D01*
X137845158Y-91856463D01*
X137160801Y-91863744D01*
X136324643Y-91870820D01*
X135348733Y-91877623D01*
X134245120Y-91884085D01*
X133025854Y-91890139D01*
X131702985Y-91895716D01*
X130288563Y-91900750D01*
X128794636Y-91905171D01*
X127233255Y-91908912D01*
X125616470Y-91911905D01*
X124837960Y-91913038D01*
X111287960Y-91931040D01*
X111267207Y-92581040D01*
X111248501Y-92967151D01*
X111221026Y-93309096D01*
X111196451Y-93497318D01*
X111202640Y-93740357D01*
X111274169Y-93869594D01*
X111376449Y-93886534D01*
X111643074Y-93902282D01*
X112077136Y-93916869D01*
X112681730Y-93930325D01*
X113459951Y-93942679D01*
X114414893Y-93953961D01*
X115549649Y-93964200D01*
X116867316Y-93973427D01*
X118370985Y-93981670D01*
X120063753Y-93988961D01*
X121948714Y-93995328D01*
X124028961Y-94000801D01*
X125194924Y-94003316D01*
X138987960Y-94031040D01*
X139359731Y-94264012D01*
X139795501Y-94628890D01*
X140063466Y-95082678D01*
X140175553Y-95648552D01*
X140180433Y-95858494D01*
X140145417Y-96306264D01*
X140030114Y-96653831D01*
X139801555Y-96964438D01*
X139429273Y-97299298D01*
X139083528Y-97579133D01*
X124846636Y-97605086D01*
X122858184Y-97608893D01*
X121060316Y-97612782D01*
X119443617Y-97616868D01*
X117998669Y-97621269D01*
X116716057Y-97626098D01*
X115586366Y-97631473D01*
X114600179Y-97637508D01*
X113748079Y-97644320D01*
X113020652Y-97652023D01*
X112408481Y-97660735D01*
X111902150Y-97670570D01*
X111492243Y-97681645D01*
X111169345Y-97694075D01*
X110924038Y-97707975D01*
X110746908Y-97723462D01*
X110628538Y-97740652D01*
X110559512Y-97759659D01*
X110530414Y-97780600D01*
X110530175Y-97781040D01*
X110352469Y-98141440D01*
X110180453Y-98533177D01*
X110032104Y-98909264D01*
X109925403Y-99222711D01*
X109878328Y-99426528D01*
X109882860Y-99472789D01*
X109966407Y-99491831D01*
X110195710Y-99508872D01*
X110575959Y-99523965D01*
X111112346Y-99537162D01*
X111810060Y-99548516D01*
X112674291Y-99558080D01*
X113710230Y-99565906D01*
X114923067Y-99572048D01*
X116317991Y-99576558D01*
X117900193Y-99579488D01*
X119674864Y-99580892D01*
X120537960Y-99581040D01*
X122005411Y-99581846D01*
X123409166Y-99584197D01*
X124736658Y-99587989D01*
X125975321Y-99593119D01*
X127112587Y-99599486D01*
X128135891Y-99606985D01*
X129032666Y-99615515D01*
X129790346Y-99624972D01*
X130396364Y-99635253D01*
X130838153Y-99646256D01*
X131103148Y-99657877D01*
X131179977Y-99668123D01*
X131308711Y-99749543D01*
X131515381Y-99811524D01*
X131848286Y-99965044D01*
X132171897Y-100261045D01*
X132438643Y-100645707D01*
X132592577Y-101030230D01*
X132655608Y-101624643D01*
X132536932Y-102164400D01*
X132242250Y-102624907D01*
X132216682Y-102651984D01*
X132129950Y-102744701D01*
X132051307Y-102827850D01*
X131969968Y-102901951D01*
X131875148Y-102967525D01*
X131756061Y-103025090D01*
X131601922Y-103075167D01*
X131401947Y-103118275D01*
X131145350Y-103154935D01*
X130821345Y-103185666D01*
X130419148Y-103210988D01*
X129927974Y-103231420D01*
X129337036Y-103247483D01*
X128635551Y-103259696D01*
X127812733Y-103268579D01*
X126857796Y-103274652D01*
X125759956Y-103278434D01*
X124508427Y-103280446D01*
X123092424Y-103281208D01*
X121501163Y-103281238D01*
X119723857Y-103281057D01*
X119164509Y-103281040D01*
X107326685Y-103281040D01*
X106727323Y-103931040D01*
X106007641Y-103147057D01*
X105287960Y-102363075D01*
X105044124Y-102623552D01*
X104800289Y-102884029D01*
X105194124Y-103301619D01*
X105487156Y-103609339D01*
X105787524Y-103920235D01*
X105915287Y-104050618D01*
X106242614Y-104382027D01*
X106215287Y-116460608D01*
X106187960Y-128539190D01*
X105860790Y-128952244D01*
X105445524Y-129351669D01*
X104947655Y-129636568D01*
X104430236Y-129773669D01*
X104290173Y-129781040D01*
X103848292Y-129696770D01*
X103390246Y-129469504D01*
X102984287Y-129137557D01*
X102837960Y-128965813D01*
X102587960Y-128631040D01*
X102561644Y-117806040D01*
X102556890Y-116032412D01*
X102551646Y-114449575D01*
X102545784Y-113048321D01*
X102539176Y-111819440D01*
X102531695Y-110753724D01*
X102523213Y-109841963D01*
X102513602Y-109074950D01*
X102502735Y-108443476D01*
X102490485Y-107938331D01*
X102476723Y-107550308D01*
X102461323Y-107270196D01*
X102444156Y-107088789D01*
X102425095Y-106996876D01*
X102411644Y-106980762D01*
X102250266Y-107020958D01*
X101992679Y-107122178D01*
X101887960Y-107169853D01*
X101523412Y-107324153D01*
X101123198Y-107468321D01*
X101037960Y-107495130D01*
X100587960Y-107631040D01*
X100487960Y-136031040D01*
X100261407Y-136395355D01*
X100030268Y-136694017D01*
X99737563Y-136983255D01*
X99661407Y-137045028D01*
X99404444Y-137214578D01*
X99150153Y-137300846D01*
X98810674Y-137329509D01*
X98683915Y-137330713D01*
X98314624Y-137316563D01*
X98054363Y-137254332D01*
X97813078Y-137115081D01*
X97666785Y-137003870D01*
X97365230Y-136704423D01*
X97096132Y-136338916D01*
X97020830Y-136203870D01*
X96787960Y-135731040D01*
X96736334Y-108331040D01*
X94967160Y-108394482D01*
X94900085Y-109665016D01*
X94891657Y-109926085D01*
X94883657Y-110373491D01*
X94876145Y-110993569D01*
X94869181Y-111772657D01*
X94862822Y-112697092D01*
X94857128Y-113753211D01*
X94852159Y-114927349D01*
X94847972Y-116205844D01*
X94844628Y-117575033D01*
X94842184Y-119021252D01*
X94840701Y-120530838D01*
X94840237Y-122090128D01*
X94840672Y-123418665D01*
X94848334Y-135901779D01*
X94605665Y-136366409D01*
X94289650Y-136788079D01*
X93860982Y-137108352D01*
X93369566Y-137306226D01*
X92865304Y-137360698D01*
X92450686Y-137273383D01*
X92045308Y-137045146D01*
X91682742Y-136725126D01*
X91423699Y-136372145D01*
X91355051Y-136211826D01*
X91337279Y-136102376D01*
X91320968Y-135888103D01*
X91306047Y-135561892D01*
X91292447Y-135116631D01*
X91280096Y-134545205D01*
X91268925Y-133840501D01*
X91258864Y-132995405D01*
X91249842Y-132002804D01*
X91241789Y-130855584D01*
X91234635Y-129546631D01*
X91228310Y-128068832D01*
X91222743Y-126415073D01*
X91217865Y-124578240D01*
X91213604Y-122551221D01*
X91212135Y-121731040D01*
X91187960Y-107631040D01*
X90737960Y-107493710D01*
X90420808Y-107386891D01*
X90065554Y-107244335D01*
X89617790Y-107043375D01*
X89312960Y-106900018D01*
X89302778Y-106992936D01*
X89293003Y-107272891D01*
X89283728Y-107726921D01*
X89275045Y-108342064D01*
X89267046Y-109105355D01*
X89259824Y-110003834D01*
X89253470Y-111024538D01*
X89248077Y-112154503D01*
X89243738Y-113380768D01*
X89240544Y-114690369D01*
X89238587Y-116070345D01*
X89237960Y-117436104D01*
X89237388Y-119236238D01*
X89235607Y-120845154D01*
X89232521Y-122271629D01*
X89228032Y-123524441D01*
X89222044Y-124612371D01*
X89214459Y-125544194D01*
X89205181Y-126328690D01*
X89194112Y-126974638D01*
X89181156Y-127490814D01*
X89166215Y-127885998D01*
X89149193Y-128168968D01*
X89129992Y-128348503D01*
X89116695Y-128412581D01*
X88861076Y-128939123D01*
X88463301Y-129353487D01*
X87960163Y-129632811D01*
X87388453Y-129754238D01*
X86986574Y-129736059D01*
X86507627Y-129568866D01*
X86083405Y-129241239D01*
X85752189Y-128792064D01*
X85557706Y-128284550D01*
X85538142Y-128145826D01*
X85520589Y-127902789D01*
X85504969Y-127547477D01*
X85491204Y-127071930D01*
X85479216Y-126468184D01*
X85468928Y-125728279D01*
X85460262Y-124844251D01*
X85453139Y-123808140D01*
X85447482Y-122611983D01*
X85443214Y-121247818D01*
X85440256Y-119707684D01*
X85438530Y-117983618D01*
X85437960Y-116067658D01*
X85437960Y-105923558D01*
X92362108Y-105923558D01*
X92424433Y-105970986D01*
X92623340Y-106051045D01*
X92902119Y-106145001D01*
X93204059Y-106234124D01*
X93472450Y-106299681D01*
X93537960Y-106311954D01*
X93876497Y-106359574D01*
X94071743Y-106359318D01*
X94174630Y-106311026D01*
X94175716Y-106309950D01*
X94116306Y-106262298D01*
X93898542Y-106192239D01*
X93561215Y-106111024D01*
X93323009Y-106062657D01*
X92919257Y-105990031D01*
X92596594Y-105940260D01*
X92400092Y-105919871D01*
X92362108Y-105923558D01*
X85437960Y-105923558D01*
X85437960Y-105831040D01*
X92137960Y-105831040D01*
X92187960Y-105881040D01*
X92237960Y-105831040D01*
X92187960Y-105781040D01*
X92137960Y-105831040D01*
X85437960Y-105831040D01*
X85437960Y-104431040D01*
X88937960Y-104431040D01*
X88987960Y-104481040D01*
X89037960Y-104431040D01*
X88987960Y-104381040D01*
X88937960Y-104431040D01*
X85437960Y-104431040D01*
X85437960Y-104331040D01*
X88737960Y-104331040D01*
X88787960Y-104381040D01*
X88837960Y-104331040D01*
X88787960Y-104281040D01*
X88737960Y-104331040D01*
X85437960Y-104331040D01*
X85437960Y-104297721D01*
X84887960Y-103882695D01*
X85171577Y-103623462D01*
X87698889Y-103623462D01*
X87817019Y-103767289D01*
X88045870Y-103948425D01*
X88174013Y-104031017D01*
X88470246Y-104201245D01*
X88628082Y-104275346D01*
X88635508Y-104248389D01*
X88582960Y-104198833D01*
X88280400Y-103950612D01*
X88009722Y-103752245D01*
X87805297Y-103626104D01*
X87701498Y-103594558D01*
X87698889Y-103623462D01*
X85171577Y-103623462D01*
X85387960Y-103425683D01*
X85705847Y-103141649D01*
X86019817Y-102871591D01*
X86217199Y-102709752D01*
X86546439Y-102450834D01*
X86272670Y-102165080D01*
X85998900Y-101879327D01*
X85293430Y-102584682D01*
X84587960Y-103290038D01*
X72637905Y-103284366D01*
X70694006Y-103282600D01*
X68901343Y-103279243D01*
X67264652Y-103274336D01*
X65788668Y-103267921D01*
X64478128Y-103260036D01*
X63337766Y-103250723D01*
X62372318Y-103240022D01*
X61586521Y-103227973D01*
X60985109Y-103214617D01*
X60572819Y-103199995D01*
X60354385Y-103184146D01*
X60327577Y-103179217D01*
X59841814Y-102951560D01*
X59470801Y-102592431D01*
X59223719Y-102140228D01*
X59109750Y-101633349D01*
X59138077Y-101110190D01*
X59317881Y-100609150D01*
X59617195Y-100208471D01*
X59711756Y-100110314D01*
X59795629Y-100022933D01*
X59880362Y-99945703D01*
X59977500Y-99878000D01*
X60098588Y-99819199D01*
X60255172Y-99768675D01*
X60458798Y-99725805D01*
X60721011Y-99689964D01*
X61053357Y-99660527D01*
X61467383Y-99636870D01*
X61974633Y-99618369D01*
X62586653Y-99604398D01*
X63314989Y-99594335D01*
X64171186Y-99587553D01*
X65166791Y-99583429D01*
X66313349Y-99581339D01*
X67622406Y-99580657D01*
X69105507Y-99580759D01*
X70774198Y-99581022D01*
X71218081Y-99581039D01*
X72656279Y-99580485D01*
X74038000Y-99578872D01*
X75350132Y-99576273D01*
X76579567Y-99572762D01*
X77713194Y-99568413D01*
X78737902Y-99563300D01*
X79640581Y-99557496D01*
X80408121Y-99551076D01*
X81027411Y-99544113D01*
X81485343Y-99536680D01*
X81768804Y-99528852D01*
X81864527Y-99521139D01*
X81857633Y-99405609D01*
X81772096Y-99180486D01*
X81706194Y-99046200D01*
X81539832Y-98685784D01*
X81381173Y-98273446D01*
X81334413Y-98131101D01*
X81180866Y-97631040D01*
X67134413Y-97606076D01*
X65470869Y-97603122D01*
X63860193Y-97600268D01*
X62313927Y-97597532D01*
X60843617Y-97594936D01*
X59460805Y-97592499D01*
X58177035Y-97590242D01*
X57003853Y-97588185D01*
X55952801Y-97586349D01*
X55035423Y-97584753D01*
X54263264Y-97583417D01*
X53647867Y-97582363D01*
X53200776Y-97581609D01*
X52933535Y-97581177D01*
X52858198Y-97581076D01*
X52644362Y-97504112D01*
X52351977Y-97290426D01*
X52150667Y-97103271D01*
X52002412Y-96919715D01*
X83865951Y-96919715D01*
X83876358Y-97034351D01*
X83959694Y-97289751D01*
X84099525Y-97647749D01*
X84279420Y-98070181D01*
X84482947Y-98518885D01*
X84693675Y-98955695D01*
X84895172Y-99342447D01*
X84955452Y-99450164D01*
X85751018Y-100647437D01*
X86710826Y-101761603D01*
X87809101Y-102771950D01*
X89020068Y-103657765D01*
X90317953Y-104398338D01*
X91676978Y-104972956D01*
X91937960Y-105061009D01*
X93363818Y-105451299D01*
X94731861Y-105672375D01*
X96086342Y-105727018D01*
X97471518Y-105618006D01*
X98383627Y-105465806D01*
X99870449Y-105073737D01*
X101292578Y-104505123D01*
X102632517Y-103773183D01*
X103872769Y-102891136D01*
X104995835Y-101872199D01*
X105984220Y-100729594D01*
X106820426Y-99476538D01*
X107167702Y-98829475D01*
X107701977Y-97642731D01*
X108087204Y-96529888D01*
X108281373Y-95747555D01*
X108362905Y-95326374D01*
X108410475Y-95026154D01*
X108423568Y-94863596D01*
X108401667Y-94855400D01*
X108344256Y-95018265D01*
X108298885Y-95181040D01*
X108214605Y-95456269D01*
X108112755Y-95592681D01*
X107930536Y-95646276D01*
X107759835Y-95661734D01*
X107340225Y-95692428D01*
X107392822Y-95211734D01*
X107405481Y-95034789D01*
X107384444Y-95025488D01*
X107325858Y-95192299D01*
X107225871Y-95543692D01*
X107202142Y-95631040D01*
X106756522Y-97010120D01*
X106193893Y-98253547D01*
X105491209Y-99402219D01*
X104625425Y-100497033D01*
X104200542Y-100958005D01*
X103081522Y-101998270D01*
X101898019Y-102852042D01*
X100643095Y-103522058D01*
X99309811Y-104011058D01*
X97891227Y-104321779D01*
X96380405Y-104456960D01*
X95345745Y-104451995D01*
X94031668Y-104343486D01*
X92836350Y-104116916D01*
X91707535Y-103757923D01*
X90592964Y-103252142D01*
X90192975Y-103035769D01*
X89042572Y-102281673D01*
X87963283Y-101363552D01*
X86981574Y-100312329D01*
X86123909Y-99158931D01*
X85416753Y-97934284D01*
X84988300Y-96953810D01*
X84880053Y-96692230D01*
X84796387Y-96537815D01*
X84767475Y-96518190D01*
X84781506Y-96624049D01*
X84855884Y-96867813D01*
X84975724Y-97202075D01*
X85011507Y-97295420D01*
X85297149Y-98031040D01*
X84343646Y-98031040D01*
X84127392Y-97452783D01*
X84008602Y-97159393D01*
X83913220Y-96967578D01*
X83865951Y-96919715D01*
X52002412Y-96919715D01*
X51769253Y-96631040D01*
X83737960Y-96631040D01*
X83787960Y-96681040D01*
X83837960Y-96631040D01*
X83787960Y-96581040D01*
X83737960Y-96631040D01*
X51769253Y-96631040D01*
X51739054Y-96593651D01*
X51629669Y-96331040D01*
X83637960Y-96331040D01*
X83687960Y-96381040D01*
X83737960Y-96331040D01*
X83687960Y-96281040D01*
X83637960Y-96331040D01*
X51629669Y-96331040D01*
X51584545Y-96222706D01*
X84645854Y-96222706D01*
X84664240Y-96352408D01*
X84698376Y-96353956D01*
X84722248Y-96220117D01*
X84706271Y-96162290D01*
X84661868Y-96124411D01*
X84645854Y-96222706D01*
X51584545Y-96222706D01*
X51526850Y-96084195D01*
X51521597Y-95881040D01*
X84537960Y-95881040D01*
X84574548Y-95963351D01*
X84604626Y-95947706D01*
X84616594Y-95829030D01*
X84604626Y-95814373D01*
X84545176Y-95828100D01*
X84537960Y-95881040D01*
X51521597Y-95881040D01*
X51513541Y-95569539D01*
X51698610Y-95044320D01*
X51920104Y-94701251D01*
X52207630Y-94387468D01*
X52538455Y-94189303D01*
X52935607Y-94068663D01*
X53076964Y-94058742D01*
X53406346Y-94048991D01*
X53911779Y-94039491D01*
X54581289Y-94030322D01*
X55402901Y-94021566D01*
X56364641Y-94013304D01*
X57454534Y-94005618D01*
X58660606Y-93998588D01*
X59970882Y-93992296D01*
X61373387Y-93986822D01*
X62856148Y-93982249D01*
X64407190Y-93978657D01*
X66014538Y-93976128D01*
X66687960Y-93975416D01*
X68311609Y-93973410D01*
X69881740Y-93970428D01*
X71386567Y-93966542D01*
X72814303Y-93961827D01*
X74153163Y-93956357D01*
X75391361Y-93950204D01*
X76517112Y-93943444D01*
X77518629Y-93936149D01*
X78384127Y-93928393D01*
X79101820Y-93920250D01*
X79659923Y-93911794D01*
X80046649Y-93903098D01*
X80250212Y-93894237D01*
X80278465Y-93890406D01*
X80370488Y-93833440D01*
X80426473Y-93721089D01*
X80454330Y-93511882D01*
X80461969Y-93164350D01*
X80460763Y-92934704D01*
X80443677Y-92451183D01*
X87586405Y-92451183D01*
X87624709Y-92954483D01*
X87686831Y-93309709D01*
X88070957Y-94772671D01*
X88587913Y-96090499D01*
X89236338Y-97261229D01*
X90014867Y-98282895D01*
X90922139Y-99153531D01*
X91956789Y-99871172D01*
X92406701Y-100115298D01*
X92904753Y-100337985D01*
X93486039Y-100553115D01*
X94108978Y-100749923D01*
X94731986Y-100917644D01*
X95313480Y-101045512D01*
X95811879Y-101122760D01*
X96185600Y-101138625D01*
X96300175Y-101123303D01*
X96459854Y-101095417D01*
X96738221Y-101054252D01*
X96900175Y-101032055D01*
X97795110Y-100881305D01*
X98521672Y-100687137D01*
X99108427Y-100441006D01*
X99356102Y-100297202D01*
X100507368Y-99447124D01*
X101621526Y-98405983D01*
X102139895Y-97841491D01*
X102557763Y-97343475D01*
X102872898Y-96904259D01*
X103111178Y-96470048D01*
X103298481Y-95987048D01*
X103460685Y-95401463D01*
X103588077Y-94831040D01*
X103657181Y-94381040D01*
X107453749Y-94381040D01*
X107469464Y-94523003D01*
X107504188Y-94506040D01*
X107517395Y-94301305D01*
X107504188Y-94256040D01*
X107467688Y-94243477D01*
X107453749Y-94381040D01*
X103657181Y-94381040D01*
X103671012Y-94290974D01*
X103727473Y-93622806D01*
X103757129Y-92882220D01*
X103759651Y-92124902D01*
X103734709Y-91406538D01*
X103685346Y-90822706D01*
X107345854Y-90822706D01*
X107364240Y-90952408D01*
X107398376Y-90953956D01*
X107422248Y-90820117D01*
X107406271Y-90762290D01*
X107361868Y-90724411D01*
X107345854Y-90822706D01*
X103685346Y-90822706D01*
X103681973Y-90782814D01*
X103616915Y-90381040D01*
X107253749Y-90381040D01*
X107269464Y-90523003D01*
X107304188Y-90506040D01*
X107317395Y-90301305D01*
X107304188Y-90256040D01*
X107267688Y-90243477D01*
X107253749Y-90381040D01*
X103616915Y-90381040D01*
X103614536Y-90366349D01*
X103379678Y-89620133D01*
X103004469Y-88894972D01*
X102471966Y-88163559D01*
X101785962Y-87419140D01*
X101421107Y-87062828D01*
X101116721Y-86788209D01*
X100826768Y-86563594D01*
X100505212Y-86357296D01*
X100106016Y-86137628D01*
X99583146Y-85872903D01*
X99427974Y-85796099D01*
X98961312Y-85577325D01*
X102887886Y-85577325D01*
X102966367Y-85768577D01*
X103167842Y-86049833D01*
X103501315Y-86437324D01*
X103846312Y-86810454D01*
X104259436Y-87241931D01*
X104561322Y-87538113D01*
X104771270Y-87715229D01*
X104908582Y-87789511D01*
X104992557Y-87777187D01*
X104994287Y-87775788D01*
X105047444Y-87684839D01*
X105017578Y-87535565D01*
X104891550Y-87288532D01*
X104758144Y-87067021D01*
X104501594Y-86698723D01*
X104192442Y-86323292D01*
X103863628Y-85973141D01*
X103548093Y-85680681D01*
X103278776Y-85478327D01*
X103088619Y-85398490D01*
X103063889Y-85399898D01*
X102923395Y-85459843D01*
X102887886Y-85577325D01*
X98961312Y-85577325D01*
X98615533Y-85415222D01*
X97913344Y-85137524D01*
X97269330Y-84949355D01*
X96631411Y-84837066D01*
X95947511Y-84787007D01*
X95554998Y-84781040D01*
X94561592Y-84852712D01*
X93549716Y-85056687D01*
X92564362Y-85376399D01*
X91650524Y-85795282D01*
X90853198Y-86296772D01*
X90396758Y-86680130D01*
X90108202Y-86950638D01*
X89874009Y-87157957D01*
X89730940Y-87270046D01*
X89707390Y-87281040D01*
X89584039Y-87336118D01*
X89370865Y-87473374D01*
X89124711Y-87650840D01*
X88902423Y-87826548D01*
X88760843Y-87958531D01*
X88737960Y-87996771D01*
X88815413Y-88099229D01*
X88937286Y-88180679D01*
X89019298Y-88235769D01*
X89052711Y-88313257D01*
X89028208Y-88447174D01*
X88936476Y-88671549D01*
X88768199Y-89020413D01*
X88633823Y-89289283D01*
X88232816Y-90119505D01*
X87935471Y-90817270D01*
X87733886Y-91416113D01*
X87620164Y-91949572D01*
X87586405Y-92451183D01*
X80443677Y-92451183D01*
X80443161Y-92436596D01*
X80399972Y-92122069D01*
X80329029Y-91976081D01*
X80322013Y-91971184D01*
X80208075Y-91961509D01*
X79905733Y-91952148D01*
X79426581Y-91943169D01*
X78782216Y-91934640D01*
X77984232Y-91926632D01*
X77044224Y-91919211D01*
X75973789Y-91912449D01*
X74784520Y-91906412D01*
X73488014Y-91901171D01*
X72095866Y-91896793D01*
X70619671Y-91893348D01*
X69071024Y-91890905D01*
X67461521Y-91889531D01*
X66517556Y-91889254D01*
X64589017Y-91889016D01*
X62850329Y-91888579D01*
X61291346Y-91887802D01*
X59901919Y-91886544D01*
X58671900Y-91884666D01*
X57591142Y-91882026D01*
X56649496Y-91878484D01*
X55836814Y-91873899D01*
X55142948Y-91868130D01*
X54557751Y-91861037D01*
X54071075Y-91852479D01*
X53672771Y-91842316D01*
X53352692Y-91830407D01*
X53100689Y-91816611D01*
X52906616Y-91800788D01*
X52760323Y-91782796D01*
X52651663Y-91762496D01*
X52570487Y-91739747D01*
X52506649Y-91714408D01*
X52465801Y-91694521D01*
X52008102Y-91361050D01*
X51700351Y-90929584D01*
X51684959Y-90881040D01*
X84337960Y-90881040D01*
X84374548Y-90963351D01*
X84404626Y-90947706D01*
X84416594Y-90829030D01*
X84404626Y-90814373D01*
X84345176Y-90828100D01*
X84337960Y-90881040D01*
X51684959Y-90881040D01*
X51543801Y-90435881D01*
X51543698Y-90422706D01*
X84445854Y-90422706D01*
X84464240Y-90552408D01*
X84498376Y-90553956D01*
X84522248Y-90420117D01*
X84506271Y-90362290D01*
X84461868Y-90324411D01*
X84445854Y-90422706D01*
X51543698Y-90422706D01*
X51539707Y-89915702D01*
X51637712Y-89581040D01*
X83637960Y-89581040D01*
X83674548Y-89663351D01*
X83704626Y-89647706D01*
X83716594Y-89529030D01*
X83704626Y-89514373D01*
X83645176Y-89528100D01*
X83637960Y-89581040D01*
X51637712Y-89581040D01*
X51689322Y-89404806D01*
X51993903Y-88938953D01*
X52357857Y-88617251D01*
X52739424Y-88432399D01*
X53210726Y-88317215D01*
X53704842Y-88277131D01*
X54154849Y-88317580D01*
X54493613Y-88443856D01*
X54617152Y-88511630D01*
X54770876Y-88560981D01*
X54986410Y-88594741D01*
X55295381Y-88615742D01*
X55729416Y-88626816D01*
X56320142Y-88630797D01*
X56583689Y-88631040D01*
X57296283Y-88626705D01*
X57837472Y-88612382D01*
X58235690Y-88586091D01*
X58519372Y-88545852D01*
X58716953Y-88489684D01*
X58737960Y-88481040D01*
X58814406Y-88457171D01*
X58933791Y-88435669D01*
X59106989Y-88416342D01*
X59344878Y-88399001D01*
X59658334Y-88383455D01*
X60058232Y-88369511D01*
X60555450Y-88356981D01*
X61160864Y-88345672D01*
X61885350Y-88335394D01*
X62739784Y-88325957D01*
X63735043Y-88317169D01*
X64882003Y-88308839D01*
X66191540Y-88300777D01*
X67674531Y-88292793D01*
X69341853Y-88284694D01*
X70137960Y-88281040D01*
X81187960Y-88231040D01*
X81437960Y-87462718D01*
X81563668Y-87094753D01*
X81674622Y-86802526D01*
X81751128Y-86637038D01*
X81762960Y-86621052D01*
X81815001Y-86568070D01*
X81849510Y-86520899D01*
X81855854Y-86479202D01*
X81823398Y-86442642D01*
X81741509Y-86410879D01*
X81599555Y-86383578D01*
X81386900Y-86360399D01*
X81092912Y-86341007D01*
X80706958Y-86325063D01*
X80218403Y-86312229D01*
X79616614Y-86302169D01*
X78890957Y-86294544D01*
X78030800Y-86289018D01*
X77025509Y-86285251D01*
X75864449Y-86282908D01*
X74536988Y-86281650D01*
X73032492Y-86281140D01*
X71340327Y-86281040D01*
X60266117Y-86281040D01*
X59803867Y-85874150D01*
X59393627Y-85398320D01*
X59158310Y-84864521D01*
X59102903Y-84303404D01*
X59232399Y-83745620D01*
X59404310Y-83420120D01*
X59638214Y-83172394D01*
X59975493Y-82934174D01*
X60330296Y-82759622D01*
X60537960Y-82704907D01*
X61026643Y-82675694D01*
X61505027Y-82696258D01*
X61904400Y-82761040D01*
X62103756Y-82831579D01*
X62252735Y-82857489D01*
X62585129Y-82881234D01*
X63084362Y-82902806D01*
X63733860Y-82922197D01*
X64517049Y-82939396D01*
X65417355Y-82954397D01*
X66418203Y-82967190D01*
X67503019Y-82977766D01*
X68655228Y-82986118D01*
X69858256Y-82992235D01*
X71095529Y-82996110D01*
X72350471Y-82997735D01*
X73606510Y-82997099D01*
X74847071Y-82994196D01*
X76055578Y-82989015D01*
X77215458Y-82981549D01*
X78310137Y-82971788D01*
X79323039Y-82959725D01*
X80237592Y-82945350D01*
X81037219Y-82928655D01*
X81705348Y-82909632D01*
X82225402Y-82888270D01*
X82580810Y-82864563D01*
X82741950Y-82842340D01*
X83174794Y-82747561D01*
X83657273Y-82663548D01*
X83876377Y-82633468D01*
X84308472Y-82550370D01*
X84602075Y-82410671D01*
X84705922Y-82322167D01*
X84880599Y-82159627D01*
X84987765Y-82082114D01*
X84993199Y-82081039D01*
X85078776Y-82147278D01*
X85272316Y-82325762D01*
X85541542Y-82586141D01*
X85743200Y-82786290D01*
X86447052Y-83491540D01*
X85978548Y-84011290D01*
X85430171Y-84672496D01*
X84892977Y-85414961D01*
X84421548Y-86160087D01*
X84179994Y-86601197D01*
X83840323Y-87271354D01*
X84060057Y-87425262D01*
X84279792Y-87579170D01*
X84000103Y-88437998D01*
X83881781Y-88822025D01*
X83799817Y-89129150D01*
X83765705Y-89314068D01*
X83769670Y-89346084D01*
X83821935Y-89297093D01*
X83881298Y-89111082D01*
X83884357Y-89097443D01*
X83942669Y-88915757D01*
X84053342Y-88821463D01*
X84276500Y-88778076D01*
X84431694Y-88765292D01*
X84913602Y-88731040D01*
X84773046Y-89181040D01*
X84650311Y-89596838D01*
X84590087Y-89848358D01*
X84589785Y-89929135D01*
X84646813Y-89832701D01*
X84758581Y-89552592D01*
X84835682Y-89337337D01*
X85070478Y-88778828D01*
X86642029Y-88778828D01*
X86659124Y-88861525D01*
X86743255Y-88817445D01*
X86767443Y-88797804D01*
X86884860Y-88664318D01*
X87082680Y-88402040D01*
X87332437Y-88049949D01*
X87583309Y-87680665D01*
X87904426Y-87217794D01*
X88250721Y-86750196D01*
X88573386Y-86342369D01*
X88758585Y-86127509D01*
X89017623Y-85838996D01*
X89157325Y-85658009D01*
X89195128Y-85546155D01*
X89148471Y-85465039D01*
X89083405Y-85412321D01*
X88801730Y-85217070D01*
X88615707Y-85151164D01*
X88468863Y-85214107D01*
X88304728Y-85405401D01*
X88304672Y-85405475D01*
X87864892Y-86037462D01*
X87460695Y-86704795D01*
X87115303Y-87362720D01*
X86851935Y-87966486D01*
X86693814Y-88471338D01*
X86680706Y-88535248D01*
X86642029Y-88778828D01*
X85070478Y-88778828D01*
X85426863Y-87931098D01*
X86179726Y-86623190D01*
X87080594Y-85428105D01*
X88115787Y-84360340D01*
X89189370Y-83500287D01*
X92792752Y-83500287D01*
X92827754Y-83741100D01*
X92847471Y-83819270D01*
X92930115Y-84063327D01*
X93029029Y-84157475D01*
X93197800Y-84148291D01*
X93220482Y-84143505D01*
X94219283Y-83985180D01*
X95285718Y-83918978D01*
X96365800Y-83942294D01*
X97405547Y-84052524D01*
X98350974Y-84247063D01*
X98887960Y-84416970D01*
X99202900Y-84519706D01*
X99387990Y-84522147D01*
X99494107Y-84409657D01*
X99557027Y-84224524D01*
X99601532Y-83978269D01*
X99594610Y-83816445D01*
X99463020Y-83704717D01*
X99162848Y-83577690D01*
X98723978Y-83444782D01*
X98176295Y-83315410D01*
X97734476Y-83230286D01*
X97228865Y-83162791D01*
X96632745Y-83117581D01*
X95981010Y-83093662D01*
X95308552Y-83090040D01*
X94650268Y-83105720D01*
X94041050Y-83139710D01*
X93515792Y-83191016D01*
X93109390Y-83258643D01*
X92856737Y-83341598D01*
X92814949Y-83370399D01*
X92792752Y-83500287D01*
X89189370Y-83500287D01*
X89271629Y-83434389D01*
X90534440Y-82664746D01*
X91589321Y-82180499D01*
X92280171Y-81920948D01*
X92898858Y-81727634D01*
X93496840Y-81591816D01*
X94125575Y-81504755D01*
X94836521Y-81457710D01*
X95681138Y-81441943D01*
X95937960Y-81441912D01*
X96618015Y-81446202D01*
X96618015Y-81446202D01*
G37*
X96618015Y-81446202D02*
X97141874Y-81457575D01*
X97553318Y-81480186D01*
X97896129Y-81518187D01*
X98214090Y-81575735D01*
X98550981Y-81656983D01*
X98740331Y-81707826D01*
X100220232Y-82208446D01*
X101588786Y-82867306D01*
X102836046Y-83678728D01*
X103952068Y-84637031D01*
X104062356Y-84747080D01*
X104970769Y-85755922D01*
X105723554Y-86798143D01*
X106354100Y-87926299D01*
X106895797Y-89192951D01*
X106908826Y-89227748D01*
X107043465Y-89571676D01*
X107142226Y-89790884D01*
X107193639Y-89862150D01*
X107194097Y-89831040D01*
X108137960Y-89831040D01*
X108187960Y-89881040D01*
X108237960Y-89831040D01*
X108187960Y-89781040D01*
X108137960Y-89831040D01*
X107194097Y-89831040D01*
X107194466Y-89806040D01*
X107142959Y-89481040D01*
X107582126Y-89481040D01*
X107878861Y-89508207D01*
X108052850Y-89579684D01*
X108071731Y-89606040D01*
X108116532Y-89652412D01*
X108130065Y-89572017D01*
X108103227Y-89409747D01*
X108024787Y-89111894D01*
X107909288Y-88731621D01*
X107853447Y-88560781D01*
X107568934Y-87708569D01*
X107798857Y-87569060D01*
X108028780Y-87429550D01*
X107700450Y-86777191D01*
X106938536Y-85456228D01*
X106205175Y-84457452D01*
X105979536Y-84175541D01*
X105813739Y-83959054D01*
X105739299Y-83849323D01*
X105737960Y-83844709D01*
X105807576Y-83765829D01*
X105995078Y-83584918D01*
X106268445Y-83332336D01*
X106474068Y-83146739D01*
X106817833Y-82844652D01*
X107054461Y-82658356D01*
X107222422Y-82566535D01*
X107360186Y-82547874D01*
X107499068Y-82578790D01*
X107708463Y-82645208D01*
X107897439Y-82703893D01*
X108079102Y-82755328D01*
X108266559Y-82799997D01*
X108472916Y-82838382D01*
X108711280Y-82870968D01*
X108994755Y-82898238D01*
X109336450Y-82920674D01*
X109749470Y-82938762D01*
X110246921Y-82952983D01*
X110841909Y-82963821D01*
X111547541Y-82971760D01*
X112376924Y-82977284D01*
X113343162Y-82980874D01*
X114459363Y-82983016D01*
X115738633Y-82984192D01*
X117194078Y-82984885D01*
X118524443Y-82985431D01*
X120172339Y-82987250D01*
X121709149Y-82991098D01*
X123125415Y-82996881D01*
X124411677Y-83004502D01*
X125558475Y-83013866D01*
X126556351Y-83024877D01*
X127395844Y-83037441D01*
X128067495Y-83051462D01*
X128561846Y-83066844D01*
X128869435Y-83083492D01*
X128937960Y-83090471D01*
X129569819Y-83173935D01*
X130038213Y-83229685D01*
X130377750Y-83257699D01*
X130623039Y-83257955D01*
X130808688Y-83230429D01*
X130969305Y-83175097D01*
X131139499Y-83091937D01*
X131145143Y-83088997D01*
X131406154Y-82961796D01*
X131579611Y-82925721D01*
X131753739Y-82976486D01*
X131905318Y-83052074D01*
X132170188Y-83236683D01*
X132364845Y-83453188D01*
X132380897Y-83481186D01*
X132619100Y-84077120D01*
X132671482Y-84614642D01*
X132534323Y-85118039D01*
X132203904Y-85611599D01*
X132025252Y-85803271D01*
X131547483Y-86281040D01*
X120692721Y-86281040D01*
X119237544Y-86281508D01*
X117839661Y-86282873D01*
X116511923Y-86285073D01*
X115267180Y-86288046D01*
X114118282Y-86291731D01*
X113078079Y-86296066D01*
X112159421Y-86300989D01*
X111375158Y-86306439D01*
X110738142Y-86312356D01*
X110261221Y-86318676D01*
X109957246Y-86325338D01*
X109839067Y-86332281D01*
X109837960Y-86333027D01*
X109872880Y-86445385D01*
X109964282Y-86689044D01*
X110087960Y-87000267D01*
X110217227Y-87343867D01*
X110307544Y-87632590D01*
X110337960Y-87791137D01*
X110405175Y-88002155D01*
X110495102Y-88123897D01*
X110535249Y-88149117D01*
X110609769Y-88171524D01*
X110729824Y-88191284D01*
X110906577Y-88208561D01*
X111151189Y-88223520D01*
X111474822Y-88236324D01*
X111888640Y-88247140D01*
X112403803Y-88256132D01*
X113031475Y-88263463D01*
X113782817Y-88269300D01*
X114668992Y-88273806D01*
X115701161Y-88277147D01*
X116890488Y-88279487D01*
X118248133Y-88280990D01*
X119785260Y-88281822D01*
X121220102Y-88282122D01*
X122923974Y-88282548D01*
X124439375Y-88283566D01*
X125777835Y-88285344D01*
X126950884Y-88288046D01*
X127970051Y-88291839D01*
X128846866Y-88296889D01*
X129592857Y-88303362D01*
X130219555Y-88311423D01*
X130738489Y-88321238D01*
X131161188Y-88332975D01*
X131499181Y-88346797D01*
X131763999Y-88362872D01*
X131967169Y-88381365D01*
X132120223Y-88402443D01*
X132234689Y-88426270D01*
X132287960Y-88441422D01*
X132589406Y-88509111D01*
X133041983Y-88567125D01*
X133659583Y-88616704D01*
X134456101Y-88659093D01*
X134937960Y-88678425D01*
X135599028Y-88707457D01*
X136214686Y-88743447D01*
X136748837Y-88783583D01*
X137165387Y-88825053D01*
X137428241Y-88865045D01*
X137469505Y-88875634D01*
X137996891Y-88940499D01*
X138531943Y-88807898D01*
X138811947Y-88662722D01*
X139030944Y-88539919D01*
X139175097Y-88522599D01*
X139340275Y-88612049D01*
X139423751Y-88670922D01*
X139837672Y-89074348D01*
X140099870Y-89562231D01*
X140205774Y-90093992D01*
X140150810Y-90629053D01*
X139930406Y-91126833D01*
X139728853Y-91378479D01*
X139438292Y-91637976D01*
X139157452Y-91776185D01*
X138866923Y-91834068D01*
X138710269Y-91841558D01*
X138365664Y-91849045D01*
X137845158Y-91856463D01*
X137160801Y-91863744D01*
X136324643Y-91870820D01*
X135348733Y-91877623D01*
X134245120Y-91884085D01*
X133025854Y-91890139D01*
X131702985Y-91895716D01*
X130288563Y-91900750D01*
X128794636Y-91905171D01*
X127233255Y-91908912D01*
X125616470Y-91911905D01*
X124837960Y-91913038D01*
X111287960Y-91931040D01*
X111267207Y-92581040D01*
X111248501Y-92967151D01*
X111221026Y-93309096D01*
X111196451Y-93497318D01*
X111202640Y-93740357D01*
X111274169Y-93869594D01*
X111376449Y-93886534D01*
X111643074Y-93902282D01*
X112077136Y-93916869D01*
X112681730Y-93930325D01*
X113459951Y-93942679D01*
X114414893Y-93953961D01*
X115549649Y-93964200D01*
X116867316Y-93973427D01*
X118370985Y-93981670D01*
X120063753Y-93988961D01*
X121948714Y-93995328D01*
X124028961Y-94000801D01*
X125194924Y-94003316D01*
X138987960Y-94031040D01*
X139359731Y-94264012D01*
X139795501Y-94628890D01*
X140063466Y-95082678D01*
X140175553Y-95648552D01*
X140180433Y-95858494D01*
X140145417Y-96306264D01*
X140030114Y-96653831D01*
X139801555Y-96964438D01*
X139429273Y-97299298D01*
X139083528Y-97579133D01*
X124846636Y-97605086D01*
X122858184Y-97608893D01*
X121060316Y-97612782D01*
X119443617Y-97616868D01*
X117998669Y-97621269D01*
X116716057Y-97626098D01*
X115586366Y-97631473D01*
X114600179Y-97637508D01*
X113748079Y-97644320D01*
X113020652Y-97652023D01*
X112408481Y-97660735D01*
X111902150Y-97670570D01*
X111492243Y-97681645D01*
X111169345Y-97694075D01*
X110924038Y-97707975D01*
X110746908Y-97723462D01*
X110628538Y-97740652D01*
X110559512Y-97759659D01*
X110530414Y-97780600D01*
X110530175Y-97781040D01*
X110352469Y-98141440D01*
X110180453Y-98533177D01*
X110032104Y-98909264D01*
X109925403Y-99222711D01*
X109878328Y-99426528D01*
X109882860Y-99472789D01*
X109966407Y-99491831D01*
X110195710Y-99508872D01*
X110575959Y-99523965D01*
X111112346Y-99537162D01*
X111810060Y-99548516D01*
X112674291Y-99558080D01*
X113710230Y-99565906D01*
X114923067Y-99572048D01*
X116317991Y-99576558D01*
X117900193Y-99579488D01*
X119674864Y-99580892D01*
X120537960Y-99581040D01*
X122005411Y-99581846D01*
X123409166Y-99584197D01*
X124736658Y-99587989D01*
X125975321Y-99593119D01*
X127112587Y-99599486D01*
X128135891Y-99606985D01*
X129032666Y-99615515D01*
X129790346Y-99624972D01*
X130396364Y-99635253D01*
X130838153Y-99646256D01*
X131103148Y-99657877D01*
X131179977Y-99668123D01*
X131308711Y-99749543D01*
X131515381Y-99811524D01*
X131848286Y-99965044D01*
X132171897Y-100261045D01*
X132438643Y-100645707D01*
X132592577Y-101030230D01*
X132655608Y-101624643D01*
X132536932Y-102164400D01*
X132242250Y-102624907D01*
X132216682Y-102651984D01*
X132129950Y-102744701D01*
X132051307Y-102827850D01*
X131969968Y-102901951D01*
X131875148Y-102967525D01*
X131756061Y-103025090D01*
X131601922Y-103075167D01*
X131401947Y-103118275D01*
X131145350Y-103154935D01*
X130821345Y-103185666D01*
X130419148Y-103210988D01*
X129927974Y-103231420D01*
X129337036Y-103247483D01*
X128635551Y-103259696D01*
X127812733Y-103268579D01*
X126857796Y-103274652D01*
X125759956Y-103278434D01*
X124508427Y-103280446D01*
X123092424Y-103281208D01*
X121501163Y-103281238D01*
X119723857Y-103281057D01*
X119164509Y-103281040D01*
X107326685Y-103281040D01*
X106727323Y-103931040D01*
X106007641Y-103147057D01*
X105287960Y-102363075D01*
X105044124Y-102623552D01*
X104800289Y-102884029D01*
X105194124Y-103301619D01*
X105487156Y-103609339D01*
X105787524Y-103920235D01*
X105915287Y-104050618D01*
X106242614Y-104382027D01*
X106215287Y-116460608D01*
X106187960Y-128539190D01*
X105860790Y-128952244D01*
X105445524Y-129351669D01*
X104947655Y-129636568D01*
X104430236Y-129773669D01*
X104290173Y-129781040D01*
X103848292Y-129696770D01*
X103390246Y-129469504D01*
X102984287Y-129137557D01*
X102837960Y-128965813D01*
X102587960Y-128631040D01*
X102561644Y-117806040D01*
X102556890Y-116032412D01*
X102551646Y-114449575D01*
X102545784Y-113048321D01*
X102539176Y-111819440D01*
X102531695Y-110753724D01*
X102523213Y-109841963D01*
X102513602Y-109074950D01*
X102502735Y-108443476D01*
X102490485Y-107938331D01*
X102476723Y-107550308D01*
X102461323Y-107270196D01*
X102444156Y-107088789D01*
X102425095Y-106996876D01*
X102411644Y-106980762D01*
X102250266Y-107020958D01*
X101992679Y-107122178D01*
X101887960Y-107169853D01*
X101523412Y-107324153D01*
X101123198Y-107468321D01*
X101037960Y-107495130D01*
X100587960Y-107631040D01*
X100487960Y-136031040D01*
X100261407Y-136395355D01*
X100030268Y-136694017D01*
X99737563Y-136983255D01*
X99661407Y-137045028D01*
X99404444Y-137214578D01*
X99150153Y-137300846D01*
X98810674Y-137329509D01*
X98683915Y-137330713D01*
X98314624Y-137316563D01*
X98054363Y-137254332D01*
X97813078Y-137115081D01*
X97666785Y-137003870D01*
X97365230Y-136704423D01*
X97096132Y-136338916D01*
X97020830Y-136203870D01*
X96787960Y-135731040D01*
X96736334Y-108331040D01*
X94967160Y-108394482D01*
X94900085Y-109665016D01*
X94891657Y-109926085D01*
X94883657Y-110373491D01*
X94876145Y-110993569D01*
X94869181Y-111772657D01*
X94862822Y-112697092D01*
X94857128Y-113753211D01*
X94852159Y-114927349D01*
X94847972Y-116205844D01*
X94844628Y-117575033D01*
X94842184Y-119021252D01*
X94840701Y-120530838D01*
X94840237Y-122090128D01*
X94840672Y-123418665D01*
X94848334Y-135901779D01*
X94605665Y-136366409D01*
X94289650Y-136788079D01*
X93860982Y-137108352D01*
X93369566Y-137306226D01*
X92865304Y-137360698D01*
X92450686Y-137273383D01*
X92045308Y-137045146D01*
X91682742Y-136725126D01*
X91423699Y-136372145D01*
X91355051Y-136211826D01*
X91337279Y-136102376D01*
X91320968Y-135888103D01*
X91306047Y-135561892D01*
X91292447Y-135116631D01*
X91280096Y-134545205D01*
X91268925Y-133840501D01*
X91258864Y-132995405D01*
X91249842Y-132002804D01*
X91241789Y-130855584D01*
X91234635Y-129546631D01*
X91228310Y-128068832D01*
X91222743Y-126415073D01*
X91217865Y-124578240D01*
X91213604Y-122551221D01*
X91212135Y-121731040D01*
X91187960Y-107631040D01*
X90737960Y-107493710D01*
X90420808Y-107386891D01*
X90065554Y-107244335D01*
X89617790Y-107043375D01*
X89312960Y-106900018D01*
X89302778Y-106992936D01*
X89293003Y-107272891D01*
X89283728Y-107726921D01*
X89275045Y-108342064D01*
X89267046Y-109105355D01*
X89259824Y-110003834D01*
X89253470Y-111024538D01*
X89248077Y-112154503D01*
X89243738Y-113380768D01*
X89240544Y-114690369D01*
X89238587Y-116070345D01*
X89237960Y-117436104D01*
X89237388Y-119236238D01*
X89235607Y-120845154D01*
X89232521Y-122271629D01*
X89228032Y-123524441D01*
X89222044Y-124612371D01*
X89214459Y-125544194D01*
X89205181Y-126328690D01*
X89194112Y-126974638D01*
X89181156Y-127490814D01*
X89166215Y-127885998D01*
X89149193Y-128168968D01*
X89129992Y-128348503D01*
X89116695Y-128412581D01*
X88861076Y-128939123D01*
X88463301Y-129353487D01*
X87960163Y-129632811D01*
X87388453Y-129754238D01*
X86986574Y-129736059D01*
X86507627Y-129568866D01*
X86083405Y-129241239D01*
X85752189Y-128792064D01*
X85557706Y-128284550D01*
X85538142Y-128145826D01*
X85520589Y-127902789D01*
X85504969Y-127547477D01*
X85491204Y-127071930D01*
X85479216Y-126468184D01*
X85468928Y-125728279D01*
X85460262Y-124844251D01*
X85453139Y-123808140D01*
X85447482Y-122611983D01*
X85443214Y-121247818D01*
X85440256Y-119707684D01*
X85438530Y-117983618D01*
X85437960Y-116067658D01*
X85437960Y-105923558D01*
X92362108Y-105923558D01*
X92424433Y-105970986D01*
X92623340Y-106051045D01*
X92902119Y-106145001D01*
X93204059Y-106234124D01*
X93472450Y-106299681D01*
X93537960Y-106311954D01*
X93876497Y-106359574D01*
X94071743Y-106359318D01*
X94174630Y-106311026D01*
X94175716Y-106309950D01*
X94116306Y-106262298D01*
X93898542Y-106192239D01*
X93561215Y-106111024D01*
X93323009Y-106062657D01*
X92919257Y-105990031D01*
X92596594Y-105940260D01*
X92400092Y-105919871D01*
X92362108Y-105923558D01*
X85437960Y-105923558D01*
X85437960Y-105831040D01*
X92137960Y-105831040D01*
X92187960Y-105881040D01*
X92237960Y-105831040D01*
X92187960Y-105781040D01*
X92137960Y-105831040D01*
X85437960Y-105831040D01*
X85437960Y-104431040D01*
X88937960Y-104431040D01*
X88987960Y-104481040D01*
X89037960Y-104431040D01*
X88987960Y-104381040D01*
X88937960Y-104431040D01*
X85437960Y-104431040D01*
X85437960Y-104331040D01*
X88737960Y-104331040D01*
X88787960Y-104381040D01*
X88837960Y-104331040D01*
X88787960Y-104281040D01*
X88737960Y-104331040D01*
X85437960Y-104331040D01*
X85437960Y-104297721D01*
X84887960Y-103882695D01*
X85171577Y-103623462D01*
X87698889Y-103623462D01*
X87817019Y-103767289D01*
X88045870Y-103948425D01*
X88174013Y-104031017D01*
X88470246Y-104201245D01*
X88628082Y-104275346D01*
X88635508Y-104248389D01*
X88582960Y-104198833D01*
X88280400Y-103950612D01*
X88009722Y-103752245D01*
X87805297Y-103626104D01*
X87701498Y-103594558D01*
X87698889Y-103623462D01*
X85171577Y-103623462D01*
X85387960Y-103425683D01*
X85705847Y-103141649D01*
X86019817Y-102871591D01*
X86217199Y-102709752D01*
X86546439Y-102450834D01*
X86272670Y-102165080D01*
X85998900Y-101879327D01*
X85293430Y-102584682D01*
X84587960Y-103290038D01*
X72637905Y-103284366D01*
X70694006Y-103282600D01*
X68901343Y-103279243D01*
X67264652Y-103274336D01*
X65788668Y-103267921D01*
X64478128Y-103260036D01*
X63337766Y-103250723D01*
X62372318Y-103240022D01*
X61586521Y-103227973D01*
X60985109Y-103214617D01*
X60572819Y-103199995D01*
X60354385Y-103184146D01*
X60327577Y-103179217D01*
X59841814Y-102951560D01*
X59470801Y-102592431D01*
X59223719Y-102140228D01*
X59109750Y-101633349D01*
X59138077Y-101110190D01*
X59317881Y-100609150D01*
X59617195Y-100208471D01*
X59711756Y-100110314D01*
X59795629Y-100022933D01*
X59880362Y-99945703D01*
X59977500Y-99878000D01*
X60098588Y-99819199D01*
X60255172Y-99768675D01*
X60458798Y-99725805D01*
X60721011Y-99689964D01*
X61053357Y-99660527D01*
X61467383Y-99636870D01*
X61974633Y-99618369D01*
X62586653Y-99604398D01*
X63314989Y-99594335D01*
X64171186Y-99587553D01*
X65166791Y-99583429D01*
X66313349Y-99581339D01*
X67622406Y-99580657D01*
X69105507Y-99580759D01*
X70774198Y-99581022D01*
X71218081Y-99581039D01*
X72656279Y-99580485D01*
X74038000Y-99578872D01*
X75350132Y-99576273D01*
X76579567Y-99572762D01*
X77713194Y-99568413D01*
X78737902Y-99563300D01*
X79640581Y-99557496D01*
X80408121Y-99551076D01*
X81027411Y-99544113D01*
X81485343Y-99536680D01*
X81768804Y-99528852D01*
X81864527Y-99521139D01*
X81857633Y-99405609D01*
X81772096Y-99180486D01*
X81706194Y-99046200D01*
X81539832Y-98685784D01*
X81381173Y-98273446D01*
X81334413Y-98131101D01*
X81180866Y-97631040D01*
X67134413Y-97606076D01*
X65470869Y-97603122D01*
X63860193Y-97600268D01*
X62313927Y-97597532D01*
X60843617Y-97594936D01*
X59460805Y-97592499D01*
X58177035Y-97590242D01*
X57003853Y-97588185D01*
X55952801Y-97586349D01*
X55035423Y-97584753D01*
X54263264Y-97583417D01*
X53647867Y-97582363D01*
X53200776Y-97581609D01*
X52933535Y-97581177D01*
X52858198Y-97581076D01*
X52644362Y-97504112D01*
X52351977Y-97290426D01*
X52150667Y-97103271D01*
X52002412Y-96919715D01*
X83865951Y-96919715D01*
X83876358Y-97034351D01*
X83959694Y-97289751D01*
X84099525Y-97647749D01*
X84279420Y-98070181D01*
X84482947Y-98518885D01*
X84693675Y-98955695D01*
X84895172Y-99342447D01*
X84955452Y-99450164D01*
X85751018Y-100647437D01*
X86710826Y-101761603D01*
X87809101Y-102771950D01*
X89020068Y-103657765D01*
X90317953Y-104398338D01*
X91676978Y-104972956D01*
X91937960Y-105061009D01*
X93363818Y-105451299D01*
X94731861Y-105672375D01*
X96086342Y-105727018D01*
X97471518Y-105618006D01*
X98383627Y-105465806D01*
X99870449Y-105073737D01*
X101292578Y-104505123D01*
X102632517Y-103773183D01*
X103872769Y-102891136D01*
X104995835Y-101872199D01*
X105984220Y-100729594D01*
X106820426Y-99476538D01*
X107167702Y-98829475D01*
X107701977Y-97642731D01*
X108087204Y-96529888D01*
X108281373Y-95747555D01*
X108362905Y-95326374D01*
X108410475Y-95026154D01*
X108423568Y-94863596D01*
X108401667Y-94855400D01*
X108344256Y-95018265D01*
X108298885Y-95181040D01*
X108214605Y-95456269D01*
X108112755Y-95592681D01*
X107930536Y-95646276D01*
X107759835Y-95661734D01*
X107340225Y-95692428D01*
X107392822Y-95211734D01*
X107405481Y-95034789D01*
X107384444Y-95025488D01*
X107325858Y-95192299D01*
X107225871Y-95543692D01*
X107202142Y-95631040D01*
X106756522Y-97010120D01*
X106193893Y-98253547D01*
X105491209Y-99402219D01*
X104625425Y-100497033D01*
X104200542Y-100958005D01*
X103081522Y-101998270D01*
X101898019Y-102852042D01*
X100643095Y-103522058D01*
X99309811Y-104011058D01*
X97891227Y-104321779D01*
X96380405Y-104456960D01*
X95345745Y-104451995D01*
X94031668Y-104343486D01*
X92836350Y-104116916D01*
X91707535Y-103757923D01*
X90592964Y-103252142D01*
X90192975Y-103035769D01*
X89042572Y-102281673D01*
X87963283Y-101363552D01*
X86981574Y-100312329D01*
X86123909Y-99158931D01*
X85416753Y-97934284D01*
X84988300Y-96953810D01*
X84880053Y-96692230D01*
X84796387Y-96537815D01*
X84767475Y-96518190D01*
X84781506Y-96624049D01*
X84855884Y-96867813D01*
X84975724Y-97202075D01*
X85011507Y-97295420D01*
X85297149Y-98031040D01*
X84343646Y-98031040D01*
X84127392Y-97452783D01*
X84008602Y-97159393D01*
X83913220Y-96967578D01*
X83865951Y-96919715D01*
X52002412Y-96919715D01*
X51769253Y-96631040D01*
X83737960Y-96631040D01*
X83787960Y-96681040D01*
X83837960Y-96631040D01*
X83787960Y-96581040D01*
X83737960Y-96631040D01*
X51769253Y-96631040D01*
X51739054Y-96593651D01*
X51629669Y-96331040D01*
X83637960Y-96331040D01*
X83687960Y-96381040D01*
X83737960Y-96331040D01*
X83687960Y-96281040D01*
X83637960Y-96331040D01*
X51629669Y-96331040D01*
X51584545Y-96222706D01*
X84645854Y-96222706D01*
X84664240Y-96352408D01*
X84698376Y-96353956D01*
X84722248Y-96220117D01*
X84706271Y-96162290D01*
X84661868Y-96124411D01*
X84645854Y-96222706D01*
X51584545Y-96222706D01*
X51526850Y-96084195D01*
X51521597Y-95881040D01*
X84537960Y-95881040D01*
X84574548Y-95963351D01*
X84604626Y-95947706D01*
X84616594Y-95829030D01*
X84604626Y-95814373D01*
X84545176Y-95828100D01*
X84537960Y-95881040D01*
X51521597Y-95881040D01*
X51513541Y-95569539D01*
X51698610Y-95044320D01*
X51920104Y-94701251D01*
X52207630Y-94387468D01*
X52538455Y-94189303D01*
X52935607Y-94068663D01*
X53076964Y-94058742D01*
X53406346Y-94048991D01*
X53911779Y-94039491D01*
X54581289Y-94030322D01*
X55402901Y-94021566D01*
X56364641Y-94013304D01*
X57454534Y-94005618D01*
X58660606Y-93998588D01*
X59970882Y-93992296D01*
X61373387Y-93986822D01*
X62856148Y-93982249D01*
X64407190Y-93978657D01*
X66014538Y-93976128D01*
X66687960Y-93975416D01*
X68311609Y-93973410D01*
X69881740Y-93970428D01*
X71386567Y-93966542D01*
X72814303Y-93961827D01*
X74153163Y-93956357D01*
X75391361Y-93950204D01*
X76517112Y-93943444D01*
X77518629Y-93936149D01*
X78384127Y-93928393D01*
X79101820Y-93920250D01*
X79659923Y-93911794D01*
X80046649Y-93903098D01*
X80250212Y-93894237D01*
X80278465Y-93890406D01*
X80370488Y-93833440D01*
X80426473Y-93721089D01*
X80454330Y-93511882D01*
X80461969Y-93164350D01*
X80460763Y-92934704D01*
X80443677Y-92451183D01*
X87586405Y-92451183D01*
X87624709Y-92954483D01*
X87686831Y-93309709D01*
X88070957Y-94772671D01*
X88587913Y-96090499D01*
X89236338Y-97261229D01*
X90014867Y-98282895D01*
X90922139Y-99153531D01*
X91956789Y-99871172D01*
X92406701Y-100115298D01*
X92904753Y-100337985D01*
X93486039Y-100553115D01*
X94108978Y-100749923D01*
X94731986Y-100917644D01*
X95313480Y-101045512D01*
X95811879Y-101122760D01*
X96185600Y-101138625D01*
X96300175Y-101123303D01*
X96459854Y-101095417D01*
X96738221Y-101054252D01*
X96900175Y-101032055D01*
X97795110Y-100881305D01*
X98521672Y-100687137D01*
X99108427Y-100441006D01*
X99356102Y-100297202D01*
X100507368Y-99447124D01*
X101621526Y-98405983D01*
X102139895Y-97841491D01*
X102557763Y-97343475D01*
X102872898Y-96904259D01*
X103111178Y-96470048D01*
X103298481Y-95987048D01*
X103460685Y-95401463D01*
X103588077Y-94831040D01*
X103657181Y-94381040D01*
X107453749Y-94381040D01*
X107469464Y-94523003D01*
X107504188Y-94506040D01*
X107517395Y-94301305D01*
X107504188Y-94256040D01*
X107467688Y-94243477D01*
X107453749Y-94381040D01*
X103657181Y-94381040D01*
X103671012Y-94290974D01*
X103727473Y-93622806D01*
X103757129Y-92882220D01*
X103759651Y-92124902D01*
X103734709Y-91406538D01*
X103685346Y-90822706D01*
X107345854Y-90822706D01*
X107364240Y-90952408D01*
X107398376Y-90953956D01*
X107422248Y-90820117D01*
X107406271Y-90762290D01*
X107361868Y-90724411D01*
X107345854Y-90822706D01*
X103685346Y-90822706D01*
X103681973Y-90782814D01*
X103616915Y-90381040D01*
X107253749Y-90381040D01*
X107269464Y-90523003D01*
X107304188Y-90506040D01*
X107317395Y-90301305D01*
X107304188Y-90256040D01*
X107267688Y-90243477D01*
X107253749Y-90381040D01*
X103616915Y-90381040D01*
X103614536Y-90366349D01*
X103379678Y-89620133D01*
X103004469Y-88894972D01*
X102471966Y-88163559D01*
X101785962Y-87419140D01*
X101421107Y-87062828D01*
X101116721Y-86788209D01*
X100826768Y-86563594D01*
X100505212Y-86357296D01*
X100106016Y-86137628D01*
X99583146Y-85872903D01*
X99427974Y-85796099D01*
X98961312Y-85577325D01*
X102887886Y-85577325D01*
X102966367Y-85768577D01*
X103167842Y-86049833D01*
X103501315Y-86437324D01*
X103846312Y-86810454D01*
X104259436Y-87241931D01*
X104561322Y-87538113D01*
X104771270Y-87715229D01*
X104908582Y-87789511D01*
X104992557Y-87777187D01*
X104994287Y-87775788D01*
X105047444Y-87684839D01*
X105017578Y-87535565D01*
X104891550Y-87288532D01*
X104758144Y-87067021D01*
X104501594Y-86698723D01*
X104192442Y-86323292D01*
X103863628Y-85973141D01*
X103548093Y-85680681D01*
X103278776Y-85478327D01*
X103088619Y-85398490D01*
X103063889Y-85399898D01*
X102923395Y-85459843D01*
X102887886Y-85577325D01*
X98961312Y-85577325D01*
X98615533Y-85415222D01*
X97913344Y-85137524D01*
X97269330Y-84949355D01*
X96631411Y-84837066D01*
X95947511Y-84787007D01*
X95554998Y-84781040D01*
X94561592Y-84852712D01*
X93549716Y-85056687D01*
X92564362Y-85376399D01*
X91650524Y-85795282D01*
X90853198Y-86296772D01*
X90396758Y-86680130D01*
X90108202Y-86950638D01*
X89874009Y-87157957D01*
X89730940Y-87270046D01*
X89707390Y-87281040D01*
X89584039Y-87336118D01*
X89370865Y-87473374D01*
X89124711Y-87650840D01*
X88902423Y-87826548D01*
X88760843Y-87958531D01*
X88737960Y-87996771D01*
X88815413Y-88099229D01*
X88937286Y-88180679D01*
X89019298Y-88235769D01*
X89052711Y-88313257D01*
X89028208Y-88447174D01*
X88936476Y-88671549D01*
X88768199Y-89020413D01*
X88633823Y-89289283D01*
X88232816Y-90119505D01*
X87935471Y-90817270D01*
X87733886Y-91416113D01*
X87620164Y-91949572D01*
X87586405Y-92451183D01*
X80443677Y-92451183D01*
X80443161Y-92436596D01*
X80399972Y-92122069D01*
X80329029Y-91976081D01*
X80322013Y-91971184D01*
X80208075Y-91961509D01*
X79905733Y-91952148D01*
X79426581Y-91943169D01*
X78782216Y-91934640D01*
X77984232Y-91926632D01*
X77044224Y-91919211D01*
X75973789Y-91912449D01*
X74784520Y-91906412D01*
X73488014Y-91901171D01*
X72095866Y-91896793D01*
X70619671Y-91893348D01*
X69071024Y-91890905D01*
X67461521Y-91889531D01*
X66517556Y-91889254D01*
X64589017Y-91889016D01*
X62850329Y-91888579D01*
X61291346Y-91887802D01*
X59901919Y-91886544D01*
X58671900Y-91884666D01*
X57591142Y-91882026D01*
X56649496Y-91878484D01*
X55836814Y-91873899D01*
X55142948Y-91868130D01*
X54557751Y-91861037D01*
X54071075Y-91852479D01*
X53672771Y-91842316D01*
X53352692Y-91830407D01*
X53100689Y-91816611D01*
X52906616Y-91800788D01*
X52760323Y-91782796D01*
X52651663Y-91762496D01*
X52570487Y-91739747D01*
X52506649Y-91714408D01*
X52465801Y-91694521D01*
X52008102Y-91361050D01*
X51700351Y-90929584D01*
X51684959Y-90881040D01*
X84337960Y-90881040D01*
X84374548Y-90963351D01*
X84404626Y-90947706D01*
X84416594Y-90829030D01*
X84404626Y-90814373D01*
X84345176Y-90828100D01*
X84337960Y-90881040D01*
X51684959Y-90881040D01*
X51543801Y-90435881D01*
X51543698Y-90422706D01*
X84445854Y-90422706D01*
X84464240Y-90552408D01*
X84498376Y-90553956D01*
X84522248Y-90420117D01*
X84506271Y-90362290D01*
X84461868Y-90324411D01*
X84445854Y-90422706D01*
X51543698Y-90422706D01*
X51539707Y-89915702D01*
X51637712Y-89581040D01*
X83637960Y-89581040D01*
X83674548Y-89663351D01*
X83704626Y-89647706D01*
X83716594Y-89529030D01*
X83704626Y-89514373D01*
X83645176Y-89528100D01*
X83637960Y-89581040D01*
X51637712Y-89581040D01*
X51689322Y-89404806D01*
X51993903Y-88938953D01*
X52357857Y-88617251D01*
X52739424Y-88432399D01*
X53210726Y-88317215D01*
X53704842Y-88277131D01*
X54154849Y-88317580D01*
X54493613Y-88443856D01*
X54617152Y-88511630D01*
X54770876Y-88560981D01*
X54986410Y-88594741D01*
X55295381Y-88615742D01*
X55729416Y-88626816D01*
X56320142Y-88630797D01*
X56583689Y-88631040D01*
X57296283Y-88626705D01*
X57837472Y-88612382D01*
X58235690Y-88586091D01*
X58519372Y-88545852D01*
X58716953Y-88489684D01*
X58737960Y-88481040D01*
X58814406Y-88457171D01*
X58933791Y-88435669D01*
X59106989Y-88416342D01*
X59344878Y-88399001D01*
X59658334Y-88383455D01*
X60058232Y-88369511D01*
X60555450Y-88356981D01*
X61160864Y-88345672D01*
X61885350Y-88335394D01*
X62739784Y-88325957D01*
X63735043Y-88317169D01*
X64882003Y-88308839D01*
X66191540Y-88300777D01*
X67674531Y-88292793D01*
X69341853Y-88284694D01*
X70137960Y-88281040D01*
X81187960Y-88231040D01*
X81437960Y-87462718D01*
X81563668Y-87094753D01*
X81674622Y-86802526D01*
X81751128Y-86637038D01*
X81762960Y-86621052D01*
X81815001Y-86568070D01*
X81849510Y-86520899D01*
X81855854Y-86479202D01*
X81823398Y-86442642D01*
X81741509Y-86410879D01*
X81599555Y-86383578D01*
X81386900Y-86360399D01*
X81092912Y-86341007D01*
X80706958Y-86325063D01*
X80218403Y-86312229D01*
X79616614Y-86302169D01*
X78890957Y-86294544D01*
X78030800Y-86289018D01*
X77025509Y-86285251D01*
X75864449Y-86282908D01*
X74536988Y-86281650D01*
X73032492Y-86281140D01*
X71340327Y-86281040D01*
X60266117Y-86281040D01*
X59803867Y-85874150D01*
X59393627Y-85398320D01*
X59158310Y-84864521D01*
X59102903Y-84303404D01*
X59232399Y-83745620D01*
X59404310Y-83420120D01*
X59638214Y-83172394D01*
X59975493Y-82934174D01*
X60330296Y-82759622D01*
X60537960Y-82704907D01*
X61026643Y-82675694D01*
X61505027Y-82696258D01*
X61904400Y-82761040D01*
X62103756Y-82831579D01*
X62252735Y-82857489D01*
X62585129Y-82881234D01*
X63084362Y-82902806D01*
X63733860Y-82922197D01*
X64517049Y-82939396D01*
X65417355Y-82954397D01*
X66418203Y-82967190D01*
X67503019Y-82977766D01*
X68655228Y-82986118D01*
X69858256Y-82992235D01*
X71095529Y-82996110D01*
X72350471Y-82997735D01*
X73606510Y-82997099D01*
X74847071Y-82994196D01*
X76055578Y-82989015D01*
X77215458Y-82981549D01*
X78310137Y-82971788D01*
X79323039Y-82959725D01*
X80237592Y-82945350D01*
X81037219Y-82928655D01*
X81705348Y-82909632D01*
X82225402Y-82888270D01*
X82580810Y-82864563D01*
X82741950Y-82842340D01*
X83174794Y-82747561D01*
X83657273Y-82663548D01*
X83876377Y-82633468D01*
X84308472Y-82550370D01*
X84602075Y-82410671D01*
X84705922Y-82322167D01*
X84880599Y-82159627D01*
X84987765Y-82082114D01*
X84993199Y-82081039D01*
X85078776Y-82147278D01*
X85272316Y-82325762D01*
X85541542Y-82586141D01*
X85743200Y-82786290D01*
X86447052Y-83491540D01*
X85978548Y-84011290D01*
X85430171Y-84672496D01*
X84892977Y-85414961D01*
X84421548Y-86160087D01*
X84179994Y-86601197D01*
X83840323Y-87271354D01*
X84060057Y-87425262D01*
X84279792Y-87579170D01*
X84000103Y-88437998D01*
X83881781Y-88822025D01*
X83799817Y-89129150D01*
X83765705Y-89314068D01*
X83769670Y-89346084D01*
X83821935Y-89297093D01*
X83881298Y-89111082D01*
X83884357Y-89097443D01*
X83942669Y-88915757D01*
X84053342Y-88821463D01*
X84276500Y-88778076D01*
X84431694Y-88765292D01*
X84913602Y-88731040D01*
X84773046Y-89181040D01*
X84650311Y-89596838D01*
X84590087Y-89848358D01*
X84589785Y-89929135D01*
X84646813Y-89832701D01*
X84758581Y-89552592D01*
X84835682Y-89337337D01*
X85070478Y-88778828D01*
X86642029Y-88778828D01*
X86659124Y-88861525D01*
X86743255Y-88817445D01*
X86767443Y-88797804D01*
X86884860Y-88664318D01*
X87082680Y-88402040D01*
X87332437Y-88049949D01*
X87583309Y-87680665D01*
X87904426Y-87217794D01*
X88250721Y-86750196D01*
X88573386Y-86342369D01*
X88758585Y-86127509D01*
X89017623Y-85838996D01*
X89157325Y-85658009D01*
X89195128Y-85546155D01*
X89148471Y-85465039D01*
X89083405Y-85412321D01*
X88801730Y-85217070D01*
X88615707Y-85151164D01*
X88468863Y-85214107D01*
X88304728Y-85405401D01*
X88304672Y-85405475D01*
X87864892Y-86037462D01*
X87460695Y-86704795D01*
X87115303Y-87362720D01*
X86851935Y-87966486D01*
X86693814Y-88471338D01*
X86680706Y-88535248D01*
X86642029Y-88778828D01*
X85070478Y-88778828D01*
X85426863Y-87931098D01*
X86179726Y-86623190D01*
X87080594Y-85428105D01*
X88115787Y-84360340D01*
X89189370Y-83500287D01*
X92792752Y-83500287D01*
X92827754Y-83741100D01*
X92847471Y-83819270D01*
X92930115Y-84063327D01*
X93029029Y-84157475D01*
X93197800Y-84148291D01*
X93220482Y-84143505D01*
X94219283Y-83985180D01*
X95285718Y-83918978D01*
X96365800Y-83942294D01*
X97405547Y-84052524D01*
X98350974Y-84247063D01*
X98887960Y-84416970D01*
X99202900Y-84519706D01*
X99387990Y-84522147D01*
X99494107Y-84409657D01*
X99557027Y-84224524D01*
X99601532Y-83978269D01*
X99594610Y-83816445D01*
X99463020Y-83704717D01*
X99162848Y-83577690D01*
X98723978Y-83444782D01*
X98176295Y-83315410D01*
X97734476Y-83230286D01*
X97228865Y-83162791D01*
X96632745Y-83117581D01*
X95981010Y-83093662D01*
X95308552Y-83090040D01*
X94650268Y-83105720D01*
X94041050Y-83139710D01*
X93515792Y-83191016D01*
X93109390Y-83258643D01*
X92856737Y-83341598D01*
X92814949Y-83370399D01*
X92792752Y-83500287D01*
X89189370Y-83500287D01*
X89271629Y-83434389D01*
X90534440Y-82664746D01*
X91589321Y-82180499D01*
X92280171Y-81920948D01*
X92898858Y-81727634D01*
X93496840Y-81591816D01*
X94125575Y-81504755D01*
X94836521Y-81457710D01*
X95681138Y-81441943D01*
X95937960Y-81441912D01*
X96618015Y-81446202D01*
G36*
X85337960Y-86031040D02*
X85287960Y-86081040D01*
X85237960Y-86031040D01*
X85287960Y-85981040D01*
X85337960Y-86031040D01*
X85337960Y-86031040D01*
G37*
X85337960Y-86031040D02*
X85287960Y-86081040D01*
X85237960Y-86031040D01*
X85287960Y-85981040D01*
X85337960Y-86031040D01*
G36*
X85506586Y-85745634D02*
X85487960Y-85781040D01*
X85393738Y-85876540D01*
X85376156Y-85881040D01*
X85369333Y-85816445D01*
X85387960Y-85781040D01*
X85482181Y-85685539D01*
X85499763Y-85681040D01*
X85506586Y-85745634D01*
X85506586Y-85745634D01*
G37*
X85506586Y-85745634D02*
X85487960Y-85781040D01*
X85393738Y-85876540D01*
X85376156Y-85881040D01*
X85369333Y-85816445D01*
X85387960Y-85781040D01*
X85482181Y-85685539D01*
X85499763Y-85681040D01*
X85506586Y-85745634D01*
G36*
X85806577Y-85333584D02*
X85750715Y-85406040D01*
X85604754Y-85561507D01*
X85539601Y-85560831D01*
X85537960Y-85543284D01*
X85606297Y-85459810D01*
X85712960Y-85368284D01*
X85831409Y-85281799D01*
X85806577Y-85333584D01*
X85806577Y-85333584D01*
G37*
X85806577Y-85333584D02*
X85750715Y-85406040D01*
X85604754Y-85561507D01*
X85539601Y-85560831D01*
X85537960Y-85543284D01*
X85606297Y-85459810D01*
X85712960Y-85368284D01*
X85831409Y-85281799D01*
X85806577Y-85333584D01*
G36*
X86106577Y-84933584D02*
X86050715Y-85006040D01*
X85904754Y-85161507D01*
X85839601Y-85160831D01*
X85837960Y-85143284D01*
X85906297Y-85059810D01*
X86012960Y-84968284D01*
X86131409Y-84881799D01*
X86106577Y-84933584D01*
X86106577Y-84933584D01*
G37*
X86106577Y-84933584D02*
X86050715Y-85006040D01*
X85904754Y-85161507D01*
X85839601Y-85160831D01*
X85837960Y-85143284D01*
X85906297Y-85059810D01*
X86012960Y-84968284D01*
X86131409Y-84881799D01*
X86106577Y-84933584D01*
G36*
X105822509Y-85021490D02*
X105929021Y-85114449D01*
X105937960Y-85136941D01*
X105890502Y-85178042D01*
X105791696Y-85085945D01*
X105778410Y-85065589D01*
X105766624Y-84997159D01*
X105822509Y-85021490D01*
X105822509Y-85021490D01*
G37*
X105822509Y-85021490D02*
X105929021Y-85114449D01*
X105937960Y-85136941D01*
X105890502Y-85178042D01*
X105791696Y-85085945D01*
X105778410Y-85065589D01*
X105766624Y-84997159D01*
X105822509Y-85021490D01*
G36*
X105290504Y-84412422D02*
X105362960Y-84468284D01*
X105518427Y-84614245D01*
X105517751Y-84679398D01*
X105500204Y-84681040D01*
X105416730Y-84612702D01*
X105325204Y-84506040D01*
X105238719Y-84387590D01*
X105290504Y-84412422D01*
X105290504Y-84412422D01*
G37*
X105290504Y-84412422D02*
X105362960Y-84468284D01*
X105518427Y-84614245D01*
X105517751Y-84679398D01*
X105500204Y-84681040D01*
X105416730Y-84612702D01*
X105325204Y-84506040D01*
X105238719Y-84387590D01*
X105290504Y-84412422D01*
G36*
X93016614Y-48699381D02*
X93311149Y-48863070D01*
X93345199Y-48899455D01*
X93492813Y-49049960D01*
X93585224Y-49054022D01*
X93661423Y-48963373D01*
X93755666Y-48860494D01*
X93866951Y-48871496D01*
X94053845Y-48992351D01*
X94304107Y-49213262D01*
X94541879Y-49486526D01*
X94558982Y-49510017D01*
X94787960Y-49831040D01*
X94887960Y-77531040D01*
X96754989Y-77531040D01*
X96771474Y-63931040D01*
X96773857Y-62008383D01*
X96776211Y-60275464D01*
X96778694Y-58722019D01*
X96781463Y-57337785D01*
X96784676Y-56112500D01*
X96788491Y-55035901D01*
X96793066Y-54097725D01*
X96798558Y-53287709D01*
X96805126Y-52595590D01*
X96812925Y-52011106D01*
X96822115Y-51523994D01*
X96832854Y-51123990D01*
X96845297Y-50800833D01*
X96859605Y-50544259D01*
X96875933Y-50344005D01*
X96894440Y-50189809D01*
X96915284Y-50071408D01*
X96938622Y-49978539D01*
X96964611Y-49900939D01*
X96987960Y-49841632D01*
X97283019Y-49339735D01*
X97690490Y-48962295D01*
X98172402Y-48741157D01*
X98339447Y-48708157D01*
X98627172Y-48687686D01*
X98803609Y-48742263D01*
X98946824Y-48891090D01*
X99095708Y-49050438D01*
X99229401Y-49059644D01*
X99335834Y-49003754D01*
X99553128Y-48933163D01*
X99770537Y-49009939D01*
X100014731Y-49249219D01*
X100195217Y-49491493D01*
X100487960Y-49913900D01*
X100587960Y-78326238D01*
X100887960Y-78415350D01*
X101144874Y-78501574D01*
X101497812Y-78632032D01*
X101775715Y-78740769D01*
X102094120Y-78855720D01*
X102340036Y-78920543D01*
X102450715Y-78923156D01*
X102462788Y-78817614D01*
X102474321Y-78524462D01*
X102485217Y-78056088D01*
X102495373Y-77424881D01*
X102504689Y-76643229D01*
X102513065Y-75723523D01*
X102520400Y-74678150D01*
X102526594Y-73519499D01*
X102531547Y-72259959D01*
X102535157Y-70911920D01*
X102537325Y-69487769D01*
X102537960Y-68166486D01*
X102537960Y-57463735D01*
X102854378Y-57023131D01*
X103077893Y-56742136D01*
X103296854Y-56514377D01*
X103393375Y-56436687D01*
X103589835Y-56349917D01*
X103867397Y-56274422D01*
X104167371Y-56219409D01*
X104431069Y-56194088D01*
X104599802Y-56207667D01*
X104630610Y-56242560D01*
X104622287Y-56459566D01*
X104726954Y-56550400D01*
X104979222Y-56540616D01*
X105024408Y-56533329D01*
X105269405Y-56506998D01*
X105435988Y-56556453D01*
X105600988Y-56717340D01*
X105706000Y-56849539D01*
X105905448Y-57182671D01*
X106070506Y-57586629D01*
X106119552Y-57763669D01*
X106139152Y-57909218D01*
X106156729Y-58165301D01*
X106172358Y-58539554D01*
X106186113Y-59039614D01*
X106198070Y-59673117D01*
X106208302Y-60447701D01*
X106216884Y-61371003D01*
X106223891Y-62450659D01*
X106229398Y-63694305D01*
X106233479Y-65109580D01*
X106236208Y-66704119D01*
X106237662Y-68485560D01*
X106237960Y-69877590D01*
X106238047Y-71645192D01*
X106238427Y-73223730D01*
X106239272Y-74624141D01*
X106240758Y-75857360D01*
X106243058Y-76934323D01*
X106246347Y-77865968D01*
X106250799Y-78663229D01*
X106256588Y-79337044D01*
X106263889Y-79898347D01*
X106272876Y-80358077D01*
X106283723Y-80727167D01*
X106296604Y-81016556D01*
X106311694Y-81237178D01*
X106329167Y-81399970D01*
X106349197Y-81515869D01*
X106371958Y-81595809D01*
X106397625Y-81650729D01*
X106426211Y-81691364D01*
X106614463Y-81923845D01*
X106114601Y-82498548D01*
X105769844Y-82887143D01*
X105516897Y-83133428D01*
X105318794Y-83248122D01*
X105138570Y-83241942D01*
X104939260Y-83125606D01*
X104686889Y-82912478D01*
X104019544Y-82380374D01*
X103203381Y-81827398D01*
X102283144Y-81283005D01*
X101887960Y-81070069D01*
X100428497Y-80414529D01*
X98927994Y-79950237D01*
X97399560Y-79675910D01*
X95856306Y-79590264D01*
X94311341Y-79692019D01*
X92777776Y-79979891D01*
X91268721Y-80452598D01*
X89797287Y-81108858D01*
X88376583Y-81947388D01*
X87652219Y-82462582D01*
X86916479Y-83018676D01*
X85437959Y-81506262D01*
X85439146Y-69818651D01*
X85439190Y-67978225D01*
X85439304Y-66327036D01*
X85440056Y-64854325D01*
X85442013Y-63549328D01*
X85445740Y-62401285D01*
X85451806Y-61399435D01*
X85460775Y-60533015D01*
X85473216Y-59791265D01*
X85489694Y-59163422D01*
X85510777Y-58638727D01*
X85537031Y-58206416D01*
X85569023Y-57855729D01*
X85607319Y-57575905D01*
X85652487Y-57356181D01*
X85705092Y-57185797D01*
X85765702Y-57053991D01*
X85834883Y-56950001D01*
X85913202Y-56863067D01*
X86001226Y-56782427D01*
X86099521Y-56697318D01*
X86131598Y-56668856D01*
X86478578Y-56415522D01*
X86836469Y-56249804D01*
X87163811Y-56180015D01*
X87419144Y-56214468D01*
X87561010Y-56361477D01*
X87566934Y-56381039D01*
X87676839Y-56521967D01*
X87855893Y-56584748D01*
X88013892Y-56548637D01*
X88054626Y-56493202D01*
X88158049Y-56437912D01*
X88340841Y-56511801D01*
X88558972Y-56686654D01*
X88768413Y-56934257D01*
X88787990Y-56963150D01*
X88859845Y-57081231D01*
X88923853Y-57213698D01*
X88980427Y-57372036D01*
X89029982Y-57567730D01*
X89072932Y-57812266D01*
X89109691Y-58117128D01*
X89140673Y-58493803D01*
X89166291Y-58953775D01*
X89186961Y-59508530D01*
X89203096Y-60169553D01*
X89215109Y-60948330D01*
X89223415Y-61856345D01*
X89228429Y-62905085D01*
X89230563Y-64106034D01*
X89230232Y-65470678D01*
X89227850Y-67010502D01*
X89223832Y-68736992D01*
X89223061Y-69032637D01*
X89220130Y-70417028D01*
X89218717Y-71745489D01*
X89218758Y-73004284D01*
X89220190Y-74179676D01*
X89222948Y-75257928D01*
X89226972Y-76225305D01*
X89232195Y-77068070D01*
X89238557Y-77772487D01*
X89245993Y-78324819D01*
X89254440Y-78711330D01*
X89263834Y-78918283D01*
X89268744Y-78949949D01*
X89378484Y-78985662D01*
X89613823Y-78915177D01*
X89914110Y-78774618D01*
X90236631Y-78622349D01*
X90503319Y-78516532D01*
X90640709Y-78482306D01*
X90834732Y-78426688D01*
X91015709Y-78325369D01*
X91237960Y-78169699D01*
X91237960Y-49811047D01*
X91526338Y-49412952D01*
X91864625Y-49052207D01*
X92252801Y-48805397D01*
X92650315Y-48683972D01*
X93016614Y-48699381D01*
X93016614Y-48699381D01*
G37*
X93016614Y-48699381D02*
X93311149Y-48863070D01*
X93345199Y-48899455D01*
X93492813Y-49049960D01*
X93585224Y-49054022D01*
X93661423Y-48963373D01*
X93755666Y-48860494D01*
X93866951Y-48871496D01*
X94053845Y-48992351D01*
X94304107Y-49213262D01*
X94541879Y-49486526D01*
X94558982Y-49510017D01*
X94787960Y-49831040D01*
X94887960Y-77531040D01*
X96754989Y-77531040D01*
X96771474Y-63931040D01*
X96773857Y-62008383D01*
X96776211Y-60275464D01*
X96778694Y-58722019D01*
X96781463Y-57337785D01*
X96784676Y-56112500D01*
X96788491Y-55035901D01*
X96793066Y-54097725D01*
X96798558Y-53287709D01*
X96805126Y-52595590D01*
X96812925Y-52011106D01*
X96822115Y-51523994D01*
X96832854Y-51123990D01*
X96845297Y-50800833D01*
X96859605Y-50544259D01*
X96875933Y-50344005D01*
X96894440Y-50189809D01*
X96915284Y-50071408D01*
X96938622Y-49978539D01*
X96964611Y-49900939D01*
X96987960Y-49841632D01*
X97283019Y-49339735D01*
X97690490Y-48962295D01*
X98172402Y-48741157D01*
X98339447Y-48708157D01*
X98627172Y-48687686D01*
X98803609Y-48742263D01*
X98946824Y-48891090D01*
X99095708Y-49050438D01*
X99229401Y-49059644D01*
X99335834Y-49003754D01*
X99553128Y-48933163D01*
X99770537Y-49009939D01*
X100014731Y-49249219D01*
X100195217Y-49491493D01*
X100487960Y-49913900D01*
X100587960Y-78326238D01*
X100887960Y-78415350D01*
X101144874Y-78501574D01*
X101497812Y-78632032D01*
X101775715Y-78740769D01*
X102094120Y-78855720D01*
X102340036Y-78920543D01*
X102450715Y-78923156D01*
X102462788Y-78817614D01*
X102474321Y-78524462D01*
X102485217Y-78056088D01*
X102495373Y-77424881D01*
X102504689Y-76643229D01*
X102513065Y-75723523D01*
X102520400Y-74678150D01*
X102526594Y-73519499D01*
X102531547Y-72259959D01*
X102535157Y-70911920D01*
X102537325Y-69487769D01*
X102537960Y-68166486D01*
X102537960Y-57463735D01*
X102854378Y-57023131D01*
X103077893Y-56742136D01*
X103296854Y-56514377D01*
X103393375Y-56436687D01*
X103589835Y-56349917D01*
X103867397Y-56274422D01*
X104167371Y-56219409D01*
X104431069Y-56194088D01*
X104599802Y-56207667D01*
X104630610Y-56242560D01*
X104622287Y-56459566D01*
X104726954Y-56550400D01*
X104979222Y-56540616D01*
X105024408Y-56533329D01*
X105269405Y-56506998D01*
X105435988Y-56556453D01*
X105600988Y-56717340D01*
X105706000Y-56849539D01*
X105905448Y-57182671D01*
X106070506Y-57586629D01*
X106119552Y-57763669D01*
X106139152Y-57909218D01*
X106156729Y-58165301D01*
X106172358Y-58539554D01*
X106186113Y-59039614D01*
X106198070Y-59673117D01*
X106208302Y-60447701D01*
X106216884Y-61371003D01*
X106223891Y-62450659D01*
X106229398Y-63694305D01*
X106233479Y-65109580D01*
X106236208Y-66704119D01*
X106237662Y-68485560D01*
X106237960Y-69877590D01*
X106238047Y-71645192D01*
X106238427Y-73223730D01*
X106239272Y-74624141D01*
X106240758Y-75857360D01*
X106243058Y-76934323D01*
X106246347Y-77865968D01*
X106250799Y-78663229D01*
X106256588Y-79337044D01*
X106263889Y-79898347D01*
X106272876Y-80358077D01*
X106283723Y-80727167D01*
X106296604Y-81016556D01*
X106311694Y-81237178D01*
X106329167Y-81399970D01*
X106349197Y-81515869D01*
X106371958Y-81595809D01*
X106397625Y-81650729D01*
X106426211Y-81691364D01*
X106614463Y-81923845D01*
X106114601Y-82498548D01*
X105769844Y-82887143D01*
X105516897Y-83133428D01*
X105318794Y-83248122D01*
X105138570Y-83241942D01*
X104939260Y-83125606D01*
X104686889Y-82912478D01*
X104019544Y-82380374D01*
X103203381Y-81827398D01*
X102283144Y-81283005D01*
X101887960Y-81070069D01*
X100428497Y-80414529D01*
X98927994Y-79950237D01*
X97399560Y-79675910D01*
X95856306Y-79590264D01*
X94311341Y-79692019D01*
X92777776Y-79979891D01*
X91268721Y-80452598D01*
X89797287Y-81108858D01*
X88376583Y-81947388D01*
X87652219Y-82462582D01*
X86916479Y-83018676D01*
X85437959Y-81506262D01*
X85439146Y-69818651D01*
X85439190Y-67978225D01*
X85439304Y-66327036D01*
X85440056Y-64854325D01*
X85442013Y-63549328D01*
X85445740Y-62401285D01*
X85451806Y-61399435D01*
X85460775Y-60533015D01*
X85473216Y-59791265D01*
X85489694Y-59163422D01*
X85510777Y-58638727D01*
X85537031Y-58206416D01*
X85569023Y-57855729D01*
X85607319Y-57575905D01*
X85652487Y-57356181D01*
X85705092Y-57185797D01*
X85765702Y-57053991D01*
X85834883Y-56950001D01*
X85913202Y-56863067D01*
X86001226Y-56782427D01*
X86099521Y-56697318D01*
X86131598Y-56668856D01*
X86478578Y-56415522D01*
X86836469Y-56249804D01*
X87163811Y-56180015D01*
X87419144Y-56214468D01*
X87561010Y-56361477D01*
X87566934Y-56381039D01*
X87676839Y-56521967D01*
X87855893Y-56584748D01*
X88013892Y-56548637D01*
X88054626Y-56493202D01*
X88158049Y-56437912D01*
X88340841Y-56511801D01*
X88558972Y-56686654D01*
X88768413Y-56934257D01*
X88787990Y-56963150D01*
X88859845Y-57081231D01*
X88923853Y-57213698D01*
X88980427Y-57372036D01*
X89029982Y-57567730D01*
X89072932Y-57812266D01*
X89109691Y-58117128D01*
X89140673Y-58493803D01*
X89166291Y-58953775D01*
X89186961Y-59508530D01*
X89203096Y-60169553D01*
X89215109Y-60948330D01*
X89223415Y-61856345D01*
X89228429Y-62905085D01*
X89230563Y-64106034D01*
X89230232Y-65470678D01*
X89227850Y-67010502D01*
X89223832Y-68736992D01*
X89223061Y-69032637D01*
X89220130Y-70417028D01*
X89218717Y-71745489D01*
X89218758Y-73004284D01*
X89220190Y-74179676D01*
X89222948Y-75257928D01*
X89226972Y-76225305D01*
X89232195Y-77068070D01*
X89238557Y-77772487D01*
X89245993Y-78324819D01*
X89254440Y-78711330D01*
X89263834Y-78918283D01*
X89268744Y-78949949D01*
X89378484Y-78985662D01*
X89613823Y-78915177D01*
X89914110Y-78774618D01*
X90236631Y-78622349D01*
X90503319Y-78516532D01*
X90640709Y-78482306D01*
X90834732Y-78426688D01*
X91015709Y-78325369D01*
X91237960Y-78169699D01*
X91237960Y-49811047D01*
X91526338Y-49412952D01*
X91864625Y-49052207D01*
X92252801Y-48805397D01*
X92650315Y-48683972D01*
X93016614Y-48699381D01*
G36*
X102654003Y-81950275D02*
X102737960Y-82031040D01*
X102826196Y-82158030D01*
X102768090Y-82149476D01*
X102593847Y-82027859D01*
X102485446Y-81919337D01*
X102506602Y-81881040D01*
X102654003Y-81950275D01*
X102654003Y-81950275D01*
G37*
X102654003Y-81950275D02*
X102737960Y-82031040D01*
X102826196Y-82158030D01*
X102768090Y-82149476D01*
X102593847Y-82027859D01*
X102485446Y-81919337D01*
X102506602Y-81881040D01*
X102654003Y-81950275D01*
M02*
