G04 #@! TF.FileFunction,Copper,L1,Top,Signal*
%FSLAX46Y46*%
G04 Gerber Fmt 4.6, Leading zero omitted, Abs format (unit mm)*
G04 Created by KiCad (PCBNEW 4.0.7) date Sunday, July 22, 2018 'PMt' 04:02:02 PM*
%MOMM*%
%LPD*%
G01*
G04 APERTURE LIST*
%ADD10C,0.100000*%
%ADD11R,2.100000X2.500000*%
%ADD12R,2.100000X1.500000*%
%ADD13R,2.000000X1.700000*%
%ADD14R,1.700000X2.000000*%
%ADD15R,1.550000X0.600000*%
%ADD16C,1.700000*%
%ADD17O,1.700000X1.700000*%
%ADD18C,0.600000*%
%ADD19C,0.250000*%
G04 APERTURE END LIST*
D10*
D11*
X206695040Y-84191800D03*
D12*
X206695040Y-86851800D03*
D11*
X211023200Y-84166400D03*
D12*
X211023200Y-86826400D03*
D13*
X202025000Y-92735400D03*
X198025000Y-92735400D03*
X202101200Y-95443040D03*
X198101200Y-95443040D03*
D14*
X184825640Y-84055200D03*
X184825640Y-88055200D03*
D15*
X193261000Y-84582000D03*
X193261000Y-85852000D03*
X193261000Y-87122000D03*
X193261000Y-88392000D03*
X198661000Y-88392000D03*
X198661000Y-87122000D03*
X198661000Y-85852000D03*
X198661000Y-84582000D03*
D16*
X208955640Y-73141840D03*
D17*
X208955640Y-75681840D03*
X206415640Y-73141840D03*
X206415640Y-75681840D03*
D18*
X200162160Y-87116920D03*
X184795160Y-89743280D03*
X194965320Y-88402160D03*
X200446640Y-88468200D03*
D19*
X206324200Y-75981560D02*
X206324200Y-83820960D01*
X206324200Y-83820960D02*
X206695040Y-84191800D01*
X206491840Y-83988600D02*
X206695040Y-84191800D01*
X206695040Y-84191800D02*
X199051200Y-84191800D01*
X199051200Y-84191800D02*
X198661000Y-84582000D01*
X198661000Y-85852000D02*
X198661000Y-84582000D01*
X198661000Y-84582000D02*
X199051200Y-84191800D01*
X199051200Y-84191800D02*
X210997800Y-84191800D01*
X210997800Y-84191800D02*
X211023200Y-84166400D01*
X202025000Y-92735400D02*
X202025000Y-91521840D01*
X202025000Y-91521840D02*
X206695040Y-86851800D01*
X202101200Y-95443040D02*
X202406560Y-95443040D01*
X202406560Y-95443040D02*
X211023200Y-86826400D01*
X193261000Y-87122000D02*
X191201040Y-87122000D01*
X198025000Y-89518240D02*
X198025000Y-92735400D01*
X198120000Y-89423240D02*
X198025000Y-89518240D01*
X191378840Y-89423240D02*
X198120000Y-89423240D01*
X190769240Y-88813640D02*
X191378840Y-89423240D01*
X190769240Y-87553800D02*
X190769240Y-88813640D01*
X191201040Y-87122000D02*
X190769240Y-87553800D01*
X193261000Y-85852000D02*
X191404240Y-85852000D01*
X196255640Y-93597480D02*
X198101200Y-95443040D01*
X196255640Y-90373200D02*
X196255640Y-93597480D01*
X195950840Y-90068400D02*
X196255640Y-90373200D01*
X191033400Y-90068400D02*
X195950840Y-90068400D01*
X189931040Y-88966040D02*
X191033400Y-90068400D01*
X189931040Y-87325200D02*
X189931040Y-88966040D01*
X191404240Y-85852000D02*
X189931040Y-87325200D01*
X193261000Y-84582000D02*
X195183760Y-84582000D01*
X195183760Y-84582000D02*
X206324200Y-73441560D01*
X184825640Y-84055200D02*
X192734200Y-84055200D01*
X192734200Y-84055200D02*
X193261000Y-84582000D01*
X184825640Y-88055200D02*
X184825640Y-89712800D01*
X200157080Y-87122000D02*
X198661000Y-87122000D01*
X200162160Y-87116920D02*
X200157080Y-87122000D01*
X184825640Y-89712800D02*
X184795160Y-89743280D01*
X194955160Y-88392000D02*
X193261000Y-88392000D01*
X194965320Y-88402160D02*
X194955160Y-88392000D01*
X200370440Y-88392000D02*
X198661000Y-88392000D01*
X200446640Y-88468200D02*
X200370440Y-88392000D01*
M02*
