G04 #@! TF.GenerationSoftware,KiCad,Pcbnew,(5.0.0-rc2-dev-321-g78161b592)*
G04 #@! TF.CreationDate,2018-06-28T11:08:08-06:00*
G04 #@! TF.ProjectId,KeyGridBadge,4B65794772696442616467652E6B6963,rev?*
G04 #@! TF.SameCoordinates,Original*
G04 #@! TF.FileFunction,Paste,Bot*
G04 #@! TF.FilePolarity,Positive*
%FSLAX46Y46*%
G04 Gerber Fmt 4.6, Leading zero omitted, Abs format (unit mm)*
G04 Created by KiCad (PCBNEW (5.0.0-rc2-dev-321-g78161b592)) date 06/28/18 11:08:08*
%MOMM*%
%LPD*%
G01*
G04 APERTURE LIST*
%ADD10O,2.500000X0.900000*%
%ADD11O,0.900000X2.500000*%
%ADD12R,6.000000X6.000000*%
%ADD13R,1.500000X1.000000*%
%ADD14R,1.500000X0.970000*%
%ADD15R,0.970000X1.500000*%
%ADD16R,1.200000X0.900000*%
%ADD17R,1.350000X0.400000*%
%ADD18R,1.900000X1.900000*%
%ADD19R,1.600000X2.100000*%
%ADD20R,0.400000X0.650000*%
%ADD21R,1.400000X1.000000*%
%ADD22R,0.400000X1.200000*%
%ADD23R,2.500000X1.250000*%
%ADD24R,0.575000X0.650000*%
%ADD25R,0.900000X1.200000*%
%ADD26R,2.000000X0.650000*%
%ADD27R,1.145000X1.500000*%
%ADD28R,1.200000X2.200000*%
%ADD29R,1.600000X1.400000*%
%ADD30R,1.200000X1.400000*%
%ADD31R,0.700000X1.600000*%
G04 APERTURE END LIST*
D10*
X113480000Y-159780000D03*
X113480000Y-158510000D03*
X113480000Y-157240000D03*
X113480000Y-155970000D03*
X113480000Y-154700000D03*
X113480000Y-153430000D03*
X113480000Y-152160000D03*
X113480000Y-150890000D03*
X113480000Y-149620000D03*
X113480000Y-148350000D03*
X113480000Y-147080000D03*
X113480000Y-145810000D03*
X113480000Y-144540000D03*
X113480000Y-143270000D03*
D11*
X110195000Y-141780000D03*
X108925000Y-141780000D03*
X107655000Y-141780000D03*
X106385000Y-141780000D03*
X105115000Y-141780000D03*
X103845000Y-141780000D03*
X102575000Y-141780000D03*
X101305000Y-141780000D03*
X100035000Y-141780000D03*
X98765000Y-141780000D03*
D10*
X95480000Y-143270000D03*
X95480000Y-144540000D03*
X95480000Y-145810000D03*
X95480000Y-147080000D03*
X95480000Y-148350000D03*
X95480000Y-149620000D03*
X95480000Y-150890000D03*
X95480000Y-152160000D03*
X95480000Y-153430000D03*
X95480000Y-154700000D03*
X95480000Y-155970000D03*
X95480000Y-157240000D03*
X95480000Y-158510000D03*
X95480000Y-159780000D03*
D12*
X104180000Y-152080000D03*
D13*
X129550000Y-95450000D03*
X129550000Y-92200000D03*
X136050000Y-95450000D03*
X136050000Y-92200000D03*
X129550000Y-115250000D03*
X129550000Y-112000000D03*
X136050000Y-115250000D03*
X136050000Y-112000000D03*
X136050000Y-72400000D03*
X136050000Y-75650000D03*
X129550000Y-72400000D03*
X129550000Y-75650000D03*
X136050000Y-131800000D03*
X136050000Y-135050000D03*
X129550000Y-131800000D03*
X129550000Y-135050000D03*
X89950000Y-75650000D03*
X89950000Y-72400000D03*
X96450000Y-75650000D03*
X96450000Y-72400000D03*
D14*
X67260000Y-74285000D03*
X67260000Y-72375000D03*
X86870000Y-74325000D03*
X86870000Y-72415000D03*
X106430000Y-72405000D03*
X106430000Y-74315000D03*
X126230000Y-72435000D03*
X126230000Y-74345000D03*
X67650000Y-92195000D03*
X67650000Y-94105000D03*
X87100000Y-92195000D03*
X87100000Y-94105000D03*
X106910000Y-94115000D03*
X106910000Y-92205000D03*
X126770000Y-94115000D03*
X126770000Y-92205000D03*
X67720000Y-113905000D03*
X67720000Y-111995000D03*
X87100000Y-111995000D03*
X87100000Y-113905000D03*
X106910000Y-113905000D03*
X106910000Y-111995000D03*
X126840000Y-112045000D03*
X126840000Y-113955000D03*
X67310000Y-133715000D03*
X67310000Y-131805000D03*
X87160000Y-131805000D03*
X87160000Y-133715000D03*
X106920000Y-133715000D03*
X106920000Y-131805000D03*
X126830000Y-131805000D03*
X126830000Y-133715000D03*
D15*
X78865000Y-160150000D03*
X80775000Y-160150000D03*
D14*
X86340000Y-164075000D03*
X86340000Y-162165000D03*
X88920000Y-159245000D03*
X88920000Y-157335000D03*
X88920000Y-162165000D03*
X88920000Y-164075000D03*
X94860000Y-48665000D03*
X94860000Y-46755000D03*
D15*
X78355000Y-149810000D03*
X80265000Y-149810000D03*
D16*
X79390000Y-62010000D03*
X79390000Y-65310000D03*
X99190000Y-65310000D03*
X99190000Y-62010000D03*
X118980000Y-65310000D03*
X118980000Y-62010000D03*
X138790000Y-65310000D03*
X138790000Y-62010000D03*
X79390000Y-81810000D03*
X79390000Y-85110000D03*
X99190000Y-85110000D03*
X99190000Y-81810000D03*
X118980000Y-81810000D03*
X118980000Y-85110000D03*
X138790000Y-81810000D03*
X138790000Y-85110000D03*
X79390000Y-101610000D03*
X79390000Y-104910000D03*
X99190000Y-104910000D03*
X99190000Y-101610000D03*
X118980000Y-101610000D03*
X118980000Y-104910000D03*
X138790000Y-104910000D03*
X138790000Y-101610000D03*
X79390000Y-124720000D03*
X79390000Y-121420000D03*
X99190000Y-121420000D03*
X99190000Y-124720000D03*
X118980000Y-124720000D03*
X118980000Y-121420000D03*
X138790000Y-121420000D03*
X138790000Y-124720000D03*
D17*
X68400000Y-156700000D03*
X68400000Y-156050000D03*
X68400000Y-155400000D03*
X68400000Y-154750000D03*
X68400000Y-154100000D03*
D18*
X65750000Y-156600000D03*
X65750000Y-154200000D03*
X65750000Y-159250000D03*
D19*
X68300000Y-158500000D03*
X68300000Y-152300000D03*
D18*
X65750000Y-151550000D03*
D20*
X87380000Y-152840000D03*
X86080000Y-152840000D03*
X86730000Y-150940000D03*
X86730000Y-152840000D03*
X86080000Y-150940000D03*
X87380000Y-150940000D03*
D21*
X73000000Y-146530000D03*
X73000000Y-144630000D03*
X75200000Y-145580000D03*
D15*
X79045000Y-44100000D03*
X80955000Y-44100000D03*
X80955000Y-41800000D03*
X79045000Y-41800000D03*
X72975000Y-157360000D03*
X71065000Y-157360000D03*
X71065000Y-155300000D03*
X72975000Y-155300000D03*
X135485000Y-156230000D03*
X137395000Y-156230000D03*
X137395000Y-154163332D03*
X135485000Y-154163332D03*
X135485000Y-152096666D03*
X137395000Y-152096666D03*
X137395000Y-150030000D03*
X135485000Y-150030000D03*
D14*
X86340000Y-157340000D03*
X86340000Y-159250000D03*
D15*
X88595000Y-154880000D03*
X86685000Y-154880000D03*
X85715000Y-149040000D03*
X87625000Y-149040000D03*
D14*
X74890000Y-148535000D03*
X74890000Y-150445000D03*
X94920000Y-52975000D03*
X94920000Y-54885000D03*
D22*
X77102500Y-152380000D03*
X77737500Y-152380000D03*
X78372500Y-152380000D03*
X79007500Y-152380000D03*
X79642500Y-152380000D03*
X80277500Y-152380000D03*
X80912500Y-152380000D03*
X81547500Y-152380000D03*
X82182500Y-152380000D03*
X82817500Y-152380000D03*
X82817500Y-157580000D03*
X82182500Y-157580000D03*
X81547500Y-157580000D03*
X80912500Y-157580000D03*
X80277500Y-157580000D03*
X79642500Y-157580000D03*
X79007500Y-157580000D03*
X78372500Y-157580000D03*
X77737500Y-157580000D03*
X77102500Y-157580000D03*
D13*
X70150000Y-75650000D03*
X70150000Y-72400000D03*
X76650000Y-75650000D03*
X76650000Y-72400000D03*
X116250000Y-72400000D03*
X116250000Y-75650000D03*
X109750000Y-72400000D03*
X109750000Y-75650000D03*
X70150000Y-95450000D03*
X70150000Y-92200000D03*
X76650000Y-95450000D03*
X76650000Y-92200000D03*
X89950000Y-95450000D03*
X89950000Y-92200000D03*
X96450000Y-95450000D03*
X96450000Y-92200000D03*
X116250000Y-92200000D03*
X116250000Y-95450000D03*
X109750000Y-92200000D03*
X109750000Y-95450000D03*
X76650000Y-112000000D03*
X76650000Y-115250000D03*
X70150000Y-112000000D03*
X70150000Y-115250000D03*
X89950000Y-115250000D03*
X89950000Y-112000000D03*
X96450000Y-115250000D03*
X96450000Y-112000000D03*
X116250000Y-112000000D03*
X116250000Y-115250000D03*
X109750000Y-112000000D03*
X109750000Y-115250000D03*
X76650000Y-131800000D03*
X76650000Y-135050000D03*
X70150000Y-131800000D03*
X70150000Y-135050000D03*
X89950000Y-135050000D03*
X89950000Y-131800000D03*
X96450000Y-135050000D03*
X96450000Y-131800000D03*
X116250000Y-131800000D03*
X116250000Y-135050000D03*
X109750000Y-131800000D03*
X109750000Y-135050000D03*
D23*
X68650000Y-146100000D03*
X68650000Y-143600000D03*
X68650000Y-141100000D03*
D14*
X72050000Y-142355000D03*
X72050000Y-140445000D03*
D24*
X71622500Y-159060000D03*
X72397500Y-159060000D03*
X72397500Y-153570000D03*
X71622500Y-153570000D03*
D14*
X92150000Y-140455000D03*
X92150000Y-138545000D03*
X82240000Y-136105000D03*
X82240000Y-138015000D03*
X78990000Y-144305000D03*
X78990000Y-146215000D03*
D25*
X72440000Y-148740000D03*
X69140000Y-148740000D03*
D26*
X79000000Y-142240000D03*
X79000000Y-140340000D03*
X75580000Y-140340000D03*
X75580000Y-141290000D03*
X75580000Y-142240000D03*
X86080000Y-142260000D03*
X86080000Y-141310000D03*
X86080000Y-140360000D03*
X89500000Y-140360000D03*
X89500000Y-142260000D03*
D27*
X82117500Y-146630000D03*
X84202500Y-146630000D03*
D14*
X94230000Y-138545000D03*
X94230000Y-140455000D03*
D16*
X83400000Y-143580000D03*
X83400000Y-140280000D03*
D28*
X98690000Y-43890000D03*
X114190000Y-43890000D03*
D29*
X113290000Y-53490000D03*
D30*
X98690000Y-53490000D03*
D31*
X106440000Y-53990000D03*
X107540000Y-53990000D03*
X108640000Y-53990000D03*
X105340000Y-53990000D03*
X104240000Y-53990000D03*
X103140000Y-53990000D03*
X102040000Y-53990000D03*
X100940000Y-53990000D03*
X99840000Y-53990000D03*
M02*
