G04 #@! TF.GenerationSoftware,KiCad,Pcbnew,(5.0.0-rc2-dev-321-g78161b592)*
G04 #@! TF.CreationDate,2018-06-25T23:30:17-06:00*
G04 #@! TF.ProjectId,KeyGridBadge,4B65794772696442616467652E6B6963,rev?*
G04 #@! TF.SameCoordinates,Original*
G04 #@! TF.FileFunction,Profile,NP*
%FSLAX46Y46*%
G04 Gerber Fmt 4.6, Leading zero omitted, Abs format (unit mm)*
G04 Created by KiCad (PCBNEW (5.0.0-rc2-dev-321-g78161b592)) date 06/25/18 23:30:17*
%MOMM*%
%LPD*%
G01*
G04 APERTURE LIST*
%ADD10C,0.150000*%
%ADD11C,0.200000*%
G04 APERTURE END LIST*
D10*
X69120000Y-41820000D02*
G75*
G03X69120000Y-41820000I-2000000J0D01*
G01*
D11*
X142640000Y-163660000D02*
G75*
G02X139060000Y-167240000I-3580000J0D01*
G01*
X67120000Y-167240000D02*
G75*
G02X63540000Y-163660000I0J3580000D01*
G01*
X63540000Y-41820000D02*
G75*
G02X67120000Y-38240000I3580000J0D01*
G01*
D10*
X141060000Y-41820000D02*
G75*
G03X141060000Y-41820000I-2000000J0D01*
G01*
D11*
X139060000Y-38240000D02*
G75*
G02X142640000Y-41820000I0J-3580000D01*
G01*
X67120000Y-38240000D02*
X139060000Y-38240000D01*
X142640000Y-41820000D02*
X142640000Y-163660000D01*
X63540000Y-163660000D02*
X63540000Y-41820000D01*
X139060000Y-167240000D02*
X67120000Y-167240000D01*
D10*
X70900000Y-136600000D02*
X70900000Y-130300000D01*
X75900000Y-136600000D02*
X70900000Y-136600000D01*
X75900000Y-130300000D02*
X75900000Y-136600000D01*
X70900000Y-130300000D02*
X75900000Y-130300000D01*
X90700000Y-136600000D02*
X90700000Y-130300000D01*
X95700000Y-136600000D02*
X90700000Y-136600000D01*
X95700000Y-130300000D02*
X95700000Y-136600000D01*
X90700000Y-130300000D02*
X95700000Y-130300000D01*
X110500000Y-136600000D02*
X110500000Y-130300000D01*
X115500000Y-136600000D02*
X110500000Y-136600000D01*
X115500000Y-130300000D02*
X115500000Y-136600000D01*
X110500000Y-130300000D02*
X115500000Y-130300000D01*
X130300000Y-136600000D02*
X130300000Y-130300000D01*
X135300000Y-136600000D02*
X130300000Y-136600000D01*
X135300000Y-130300000D02*
X135300000Y-136600000D01*
X130300000Y-130300000D02*
X135300000Y-130300000D01*
X130300000Y-116800000D02*
X130300000Y-110500000D01*
X135300000Y-116800000D02*
X130300000Y-116800000D01*
X135300000Y-110500000D02*
X135300000Y-116800000D01*
X130300000Y-110500000D02*
X135300000Y-110500000D01*
X110500000Y-116800000D02*
X110500000Y-110500000D01*
X115500000Y-116800000D02*
X110500000Y-116800000D01*
X115500000Y-110500000D02*
X115500000Y-116800000D01*
X110500000Y-110500000D02*
X115500000Y-110500000D01*
X90700000Y-116800000D02*
X90700000Y-110500000D01*
X95700000Y-116800000D02*
X90700000Y-116800000D01*
X95700000Y-110500000D02*
X95700000Y-116800000D01*
X90700000Y-110500000D02*
X95700000Y-110500000D01*
X70900000Y-116800000D02*
X70900000Y-110500000D01*
X75900000Y-116800000D02*
X70900000Y-116800000D01*
X75900000Y-110500000D02*
X75900000Y-116800000D01*
X70900000Y-110500000D02*
X75900000Y-110500000D01*
X70900000Y-97000000D02*
X70900000Y-90700000D01*
X75900000Y-97000000D02*
X70900000Y-97000000D01*
X75900000Y-90700000D02*
X75900000Y-97000000D01*
X70900000Y-90700000D02*
X75900000Y-90700000D01*
X90700000Y-97000000D02*
X90700000Y-90700000D01*
X95700000Y-97000000D02*
X90700000Y-97000000D01*
X95700000Y-90700000D02*
X95700000Y-97000000D01*
X90700000Y-90700000D02*
X95700000Y-90700000D01*
X110500000Y-97000000D02*
X110500000Y-90700000D01*
X115500000Y-97000000D02*
X110500000Y-97000000D01*
X115500000Y-90700000D02*
X115500000Y-97000000D01*
X110500000Y-90700000D02*
X115500000Y-90700000D01*
X130300000Y-97000000D02*
X130300000Y-90700000D01*
X135300000Y-97000000D02*
X130300000Y-97000000D01*
X135300000Y-90700000D02*
X135300000Y-97000000D01*
X130300000Y-90700000D02*
X135300000Y-90700000D01*
X130300000Y-77200000D02*
X130300000Y-70900000D01*
X135300000Y-77200000D02*
X130300000Y-77200000D01*
X135300000Y-70900000D02*
X135300000Y-77200000D01*
X130300000Y-70900000D02*
X135300000Y-70900000D01*
X110500000Y-77200000D02*
X110500000Y-70900000D01*
X115500000Y-77200000D02*
X110500000Y-77200000D01*
X115500000Y-70900000D02*
X115500000Y-77200000D01*
X110500000Y-70900000D02*
X115500000Y-70900000D01*
X90700000Y-77200000D02*
X90700000Y-70900000D01*
X95700000Y-77200000D02*
X90700000Y-77200000D01*
X95700000Y-70900000D02*
X95700000Y-77200000D01*
X90700000Y-70900000D02*
X95700000Y-70900000D01*
X70900000Y-77200000D02*
X70900000Y-70900000D01*
X75900000Y-77200000D02*
X70900000Y-77200000D01*
X75900000Y-70900000D02*
X75900000Y-77200000D01*
X70900000Y-70900000D02*
X75900000Y-70900000D01*
M02*
