G04 #@! TF.GenerationSoftware,KiCad,Pcbnew,(5.0.0-rc2-dev-321-g78161b592)*
G04 #@! TF.CreationDate,2018-06-26T01:07:03-06:00*
G04 #@! TF.ProjectId,KeyGridBadge,4B65794772696442616467652E6B6963,rev?*
G04 #@! TF.SameCoordinates,Original*
G04 #@! TF.FileFunction,Soldermask,Bot*
G04 #@! TF.FilePolarity,Negative*
%FSLAX46Y46*%
G04 Gerber Fmt 4.6, Leading zero omitted, Abs format (unit mm)*
G04 Created by KiCad (PCBNEW (5.0.0-rc2-dev-321-g78161b592)) date 06/26/18 01:07:03*
%MOMM*%
%LPD*%
G01*
G04 APERTURE LIST*
%ADD10C,3.400000*%
%ADD11O,2.900000X1.300000*%
%ADD12O,1.300000X2.900000*%
%ADD13R,6.400000X6.400000*%
%ADD14R,1.900000X1.400000*%
%ADD15C,2.686000*%
%ADD16O,2.100000X2.100000*%
%ADD17R,2.100000X2.100000*%
%ADD18R,1.900000X1.370000*%
%ADD19R,1.370000X1.900000*%
%ADD20R,1.600000X1.300000*%
%ADD21R,1.750000X0.800000*%
%ADD22R,2.300000X2.300000*%
%ADD23R,2.000000X2.500000*%
%ADD24R,1.100176X2.150440*%
%ADD25R,1.101191X2.152980*%
%ADD26R,1.100643X2.151610*%
%ADD27R,1.100871X2.152180*%
%ADD28R,1.100982X2.152460*%
%ADD29R,1.100174X2.150430*%
%ADD30R,1.100710X2.151770*%
%ADD31R,1.101055X2.152640*%
%ADD32R,1.900920X1.900920*%
%ADD33R,1.901800X1.901800*%
%ADD34R,1.200585X1.901100*%
%ADD35R,1.200364X1.800640*%
%ADD36R,1.900010X1.400010*%
%ADD37R,1.401290X1.901930*%
%ADD38R,0.800000X1.050000*%
%ADD39R,1.800000X1.400000*%
%ADD40C,1.924000*%
%ADD41C,2.100000*%
%ADD42R,0.800000X1.600000*%
%ADD43R,2.900000X1.650000*%
%ADD44C,1.300000*%
%ADD45R,0.975000X1.050000*%
%ADD46R,1.300000X1.600000*%
%ADD47R,2.400000X1.050000*%
%ADD48C,2.178000*%
%ADD49R,1.545000X1.900000*%
%ADD50C,1.000000*%
G04 APERTURE END LIST*
D10*
X107790000Y-58750000D03*
X92790000Y-58750000D03*
D11*
X113480000Y-159780000D03*
X113480000Y-158510000D03*
X113480000Y-157240000D03*
X113480000Y-155970000D03*
X113480000Y-154700000D03*
X113480000Y-153430000D03*
X113480000Y-152160000D03*
X113480000Y-150890000D03*
X113480000Y-149620000D03*
X113480000Y-148350000D03*
X113480000Y-147080000D03*
X113480000Y-145810000D03*
X113480000Y-144540000D03*
X113480000Y-143270000D03*
D12*
X110195000Y-141780000D03*
X108925000Y-141780000D03*
X107655000Y-141780000D03*
X106385000Y-141780000D03*
X105115000Y-141780000D03*
X103845000Y-141780000D03*
X102575000Y-141780000D03*
X101305000Y-141780000D03*
X100035000Y-141780000D03*
X98765000Y-141780000D03*
D11*
X95480000Y-143270000D03*
X95480000Y-144540000D03*
X95480000Y-145810000D03*
X95480000Y-147080000D03*
X95480000Y-148350000D03*
X95480000Y-149620000D03*
X95480000Y-150890000D03*
X95480000Y-152160000D03*
X95480000Y-153430000D03*
X95480000Y-154700000D03*
X95480000Y-155970000D03*
X95480000Y-157240000D03*
X95480000Y-158510000D03*
X95480000Y-159780000D03*
D13*
X104180000Y-152080000D03*
D14*
X129550000Y-95450000D03*
X129550000Y-92200000D03*
X136050000Y-95450000D03*
X136050000Y-92200000D03*
D15*
X135340000Y-83120000D03*
X128990000Y-85660000D03*
D16*
X81860000Y-57170000D03*
X81860000Y-54630000D03*
X81860000Y-52090000D03*
D17*
X81860000Y-49550000D03*
D14*
X129550000Y-115250000D03*
X129550000Y-112000000D03*
X136050000Y-115250000D03*
X136050000Y-112000000D03*
D15*
X135340000Y-102920000D03*
X128990000Y-105460000D03*
X128990000Y-65860000D03*
X135340000Y-63320000D03*
D14*
X136050000Y-72400000D03*
X136050000Y-75650000D03*
X129550000Y-72400000D03*
X129550000Y-75650000D03*
D15*
X128990000Y-125260000D03*
X135340000Y-122720000D03*
D14*
X136050000Y-131800000D03*
X136050000Y-135050000D03*
X129550000Y-131800000D03*
X129550000Y-135050000D03*
X89950000Y-75650000D03*
X89950000Y-72400000D03*
X96450000Y-75650000D03*
X96450000Y-72400000D03*
D15*
X95740000Y-63320000D03*
X89390000Y-65860000D03*
D18*
X67260000Y-74285000D03*
X67260000Y-72375000D03*
X86870000Y-74325000D03*
X86870000Y-72415000D03*
X106430000Y-72405000D03*
X106430000Y-74315000D03*
X126230000Y-72435000D03*
X126230000Y-74345000D03*
X67650000Y-92195000D03*
X67650000Y-94105000D03*
X87100000Y-92195000D03*
X87100000Y-94105000D03*
X106910000Y-94115000D03*
X106910000Y-92205000D03*
X126770000Y-94115000D03*
X126770000Y-92205000D03*
X67720000Y-113905000D03*
X67720000Y-111995000D03*
X87100000Y-111995000D03*
X87100000Y-113905000D03*
X106910000Y-113905000D03*
X106910000Y-111995000D03*
X126840000Y-112045000D03*
X126840000Y-113955000D03*
X67310000Y-133715000D03*
X67310000Y-131805000D03*
X87160000Y-131805000D03*
X87160000Y-133715000D03*
X106920000Y-133715000D03*
X106920000Y-131805000D03*
X126830000Y-131805000D03*
X126830000Y-133715000D03*
D19*
X78865000Y-160150000D03*
X80775000Y-160150000D03*
D18*
X86340000Y-164075000D03*
X86340000Y-162165000D03*
X88920000Y-159245000D03*
X88920000Y-157335000D03*
X88920000Y-162165000D03*
X88920000Y-164075000D03*
X94860000Y-48665000D03*
X94860000Y-46755000D03*
D19*
X78355000Y-149810000D03*
X80265000Y-149810000D03*
D20*
X79390000Y-62010000D03*
X79390000Y-65310000D03*
X99190000Y-65310000D03*
X99190000Y-62010000D03*
X118980000Y-65310000D03*
X118980000Y-62010000D03*
X138790000Y-65310000D03*
X138790000Y-62010000D03*
X79390000Y-81810000D03*
X79390000Y-85110000D03*
X99190000Y-85110000D03*
X99190000Y-81810000D03*
X118980000Y-81810000D03*
X118980000Y-85110000D03*
X138790000Y-81810000D03*
X138790000Y-85110000D03*
X79390000Y-101610000D03*
X79390000Y-104910000D03*
X99190000Y-104910000D03*
X99190000Y-101610000D03*
X118980000Y-101610000D03*
X118980000Y-104910000D03*
X138790000Y-104910000D03*
X138790000Y-101610000D03*
X79390000Y-124720000D03*
X79390000Y-121420000D03*
X99190000Y-121420000D03*
X99190000Y-124720000D03*
X118980000Y-124720000D03*
X118980000Y-121420000D03*
X138790000Y-121420000D03*
X138790000Y-124720000D03*
D21*
X68400000Y-156700000D03*
X68400000Y-156050000D03*
X68400000Y-155400000D03*
X68400000Y-154750000D03*
X68400000Y-154100000D03*
D22*
X65750000Y-156600000D03*
X65750000Y-154200000D03*
X65750000Y-159250000D03*
D23*
X68300000Y-158500000D03*
X68300000Y-152300000D03*
D22*
X65750000Y-151550000D03*
D17*
X140060000Y-156870000D03*
D16*
X140060000Y-154330000D03*
X140060000Y-151790000D03*
X140060000Y-149250000D03*
D24*
X106675000Y-44062000D03*
D25*
X105575000Y-44062000D03*
D26*
X104475000Y-44062000D03*
D27*
X103375000Y-44062000D03*
D28*
X102275000Y-44062000D03*
D29*
X101175000Y-44062000D03*
D30*
X100075000Y-44062000D03*
D31*
X98975000Y-44062000D03*
D32*
X97675000Y-44187000D03*
D33*
X109125000Y-44187000D03*
D34*
X97500000Y-51787000D03*
D35*
X109450000Y-52437000D03*
D36*
X97855000Y-53287000D03*
D37*
X109050000Y-54887000D03*
D38*
X87380000Y-152840000D03*
X86080000Y-152840000D03*
X86730000Y-150940000D03*
X86730000Y-152840000D03*
X86080000Y-150940000D03*
X87380000Y-150940000D03*
D39*
X73000000Y-146530000D03*
X73000000Y-144630000D03*
X75200000Y-145580000D03*
D19*
X79045000Y-44100000D03*
X80955000Y-44100000D03*
X80955000Y-41800000D03*
X79045000Y-41800000D03*
X72975000Y-157360000D03*
X71065000Y-157360000D03*
X71065000Y-155300000D03*
X72975000Y-155300000D03*
X135485000Y-156230000D03*
X137395000Y-156230000D03*
X137395000Y-154163332D03*
X135485000Y-154163332D03*
X135485000Y-152096666D03*
X137395000Y-152096666D03*
X137395000Y-150030000D03*
X135485000Y-150030000D03*
D18*
X86340000Y-157340000D03*
X86340000Y-159250000D03*
D19*
X88595000Y-154880000D03*
X86685000Y-154880000D03*
X85715000Y-149040000D03*
X87625000Y-149040000D03*
D18*
X74890000Y-148535000D03*
X74890000Y-150445000D03*
X94920000Y-52975000D03*
X94920000Y-54885000D03*
D40*
X129096780Y-40223780D03*
D41*
X133270000Y-41730000D03*
D16*
X133270000Y-44270000D03*
X130730000Y-41730000D03*
X130730000Y-44270000D03*
X73030000Y-44270000D03*
X73030000Y-41730000D03*
X75570000Y-44270000D03*
D41*
X75570000Y-41730000D03*
D40*
X71396780Y-40223780D03*
D42*
X77102500Y-152380000D03*
X77737500Y-152380000D03*
X78372500Y-152380000D03*
X79007500Y-152380000D03*
X79642500Y-152380000D03*
X80277500Y-152380000D03*
X80912500Y-152380000D03*
X81547500Y-152380000D03*
X82182500Y-152380000D03*
X82817500Y-152380000D03*
X82817500Y-157580000D03*
X82182500Y-157580000D03*
X81547500Y-157580000D03*
X80912500Y-157580000D03*
X80277500Y-157580000D03*
X79642500Y-157580000D03*
X79007500Y-157580000D03*
X78372500Y-157580000D03*
X77737500Y-157580000D03*
X77102500Y-157580000D03*
D14*
X70150000Y-75650000D03*
X70150000Y-72400000D03*
X76650000Y-75650000D03*
X76650000Y-72400000D03*
D15*
X75940000Y-63320000D03*
X69590000Y-65860000D03*
X109190000Y-65860000D03*
X115540000Y-63320000D03*
D14*
X116250000Y-72400000D03*
X116250000Y-75650000D03*
X109750000Y-72400000D03*
X109750000Y-75650000D03*
X70150000Y-95450000D03*
X70150000Y-92200000D03*
X76650000Y-95450000D03*
X76650000Y-92200000D03*
D15*
X75940000Y-83120000D03*
X69590000Y-85660000D03*
D14*
X89950000Y-95450000D03*
X89950000Y-92200000D03*
X96450000Y-95450000D03*
X96450000Y-92200000D03*
D15*
X95740000Y-83120000D03*
X89390000Y-85660000D03*
X109190000Y-85660000D03*
X115540000Y-83120000D03*
D14*
X116250000Y-92200000D03*
X116250000Y-95450000D03*
X109750000Y-92200000D03*
X109750000Y-95450000D03*
D15*
X69590000Y-105460000D03*
X75940000Y-102920000D03*
D14*
X76650000Y-112000000D03*
X76650000Y-115250000D03*
X70150000Y-112000000D03*
X70150000Y-115250000D03*
X89950000Y-115250000D03*
X89950000Y-112000000D03*
X96450000Y-115250000D03*
X96450000Y-112000000D03*
D15*
X95740000Y-102920000D03*
X89390000Y-105460000D03*
X109190000Y-105460000D03*
X115540000Y-102920000D03*
D14*
X116250000Y-112000000D03*
X116250000Y-115250000D03*
X109750000Y-112000000D03*
X109750000Y-115250000D03*
D15*
X69590000Y-125260000D03*
X75940000Y-122720000D03*
D14*
X76650000Y-131800000D03*
X76650000Y-135050000D03*
X70150000Y-131800000D03*
X70150000Y-135050000D03*
X89950000Y-135050000D03*
X89950000Y-131800000D03*
X96450000Y-135050000D03*
X96450000Y-131800000D03*
D15*
X95740000Y-122720000D03*
X89390000Y-125260000D03*
X109190000Y-125260000D03*
X115540000Y-122720000D03*
D14*
X116250000Y-131800000D03*
X116250000Y-135050000D03*
X109750000Y-131800000D03*
X109750000Y-135050000D03*
D17*
X88130000Y-53190000D03*
D16*
X88130000Y-50650000D03*
X88130000Y-48110000D03*
X88130000Y-45570000D03*
D43*
X68650000Y-146100000D03*
X68650000Y-143600000D03*
X68650000Y-141100000D03*
D44*
X65900000Y-147000000D03*
X65900000Y-140200000D03*
D18*
X72050000Y-142355000D03*
X72050000Y-140445000D03*
D45*
X71622500Y-159060000D03*
X72397500Y-159060000D03*
X72397500Y-153570000D03*
X71622500Y-153570000D03*
D18*
X92150000Y-140455000D03*
X92150000Y-138545000D03*
X82240000Y-136105000D03*
X82240000Y-138015000D03*
X78990000Y-144305000D03*
X78990000Y-146215000D03*
D46*
X72440000Y-148740000D03*
X69140000Y-148740000D03*
D47*
X79000000Y-142240000D03*
X79000000Y-140340000D03*
X75580000Y-140340000D03*
X75580000Y-141290000D03*
X75580000Y-142240000D03*
D48*
X120800000Y-143930000D03*
X123340000Y-143930000D03*
X125880000Y-143930000D03*
X128420000Y-143930000D03*
X130960000Y-143930000D03*
X133500000Y-143930000D03*
X136040000Y-143930000D03*
X138580000Y-143930000D03*
X120800000Y-161710000D03*
X123340000Y-161710000D03*
X125880000Y-161710000D03*
X128420000Y-161710000D03*
X130960000Y-161710000D03*
X133500000Y-161710000D03*
X136040000Y-161710000D03*
X138580000Y-161710000D03*
D47*
X86080000Y-142260000D03*
X86080000Y-141310000D03*
X86080000Y-140360000D03*
X89500000Y-140360000D03*
X89500000Y-142260000D03*
D49*
X82117500Y-146630000D03*
X84202500Y-146630000D03*
D18*
X94230000Y-138545000D03*
X94230000Y-140455000D03*
D20*
X83400000Y-143580000D03*
X83400000Y-140280000D03*
D50*
X90780000Y-46910000D03*
X90750000Y-49230000D03*
X79980000Y-75880000D03*
X79980000Y-71510000D03*
X97200000Y-142240000D03*
X96980000Y-136390000D03*
X79980000Y-132780000D03*
X79970000Y-136080000D03*
X68760000Y-139590000D03*
X66360000Y-142140000D03*
X68750000Y-133550000D03*
X68750000Y-133550000D03*
X68750000Y-130040000D03*
X127560000Y-99550000D03*
X107960000Y-99540000D03*
X88250000Y-99540000D03*
X88140000Y-82000000D03*
X124590000Y-82020000D03*
X107830000Y-81980000D03*
X96800000Y-65730000D03*
X88140000Y-79690000D03*
X107830000Y-79710000D03*
X117020000Y-66070000D03*
X124590000Y-79710000D03*
X136670000Y-66040000D03*
X132080000Y-65190000D03*
X124580000Y-77530000D03*
X112430000Y-65220000D03*
X107820000Y-77520000D03*
X92860000Y-65220000D03*
X88140000Y-77460000D03*
X107930000Y-101610000D03*
X127560000Y-101620000D03*
X117140000Y-86050000D03*
X136920000Y-86030000D03*
X132370000Y-85150000D03*
X127560000Y-97180000D03*
X112520000Y-85070000D03*
X107930000Y-97310000D03*
X96970000Y-85380000D03*
X92680000Y-85110000D03*
X88240000Y-101670000D03*
X88240000Y-97160000D03*
X96900000Y-105430000D03*
X92450000Y-104820000D03*
X116960000Y-105670000D03*
X112480000Y-104840000D03*
X136920000Y-105830000D03*
X131480000Y-104780000D03*
X112880000Y-139700000D03*
X108150000Y-136690000D03*
X118490000Y-135750000D03*
X92830000Y-161930000D03*
X90800000Y-158240000D03*
X130750000Y-48360000D03*
X78990000Y-143220000D03*
X103410000Y-42730000D03*
X64560000Y-139180000D03*
X79930000Y-138230000D03*
X69690000Y-156980000D03*
X71540000Y-150990000D03*
X72170000Y-161350000D03*
X88220000Y-145810000D03*
X81660000Y-75180000D03*
X87060000Y-144300000D03*
X92940000Y-50390000D03*
X84520000Y-42510000D03*
X78000000Y-59850000D03*
X75140000Y-144400000D03*
X80840000Y-146610000D03*
X71540000Y-143450000D03*
X80800000Y-140630000D03*
X83080000Y-165030000D03*
X82350000Y-41160000D03*
X97780000Y-48670000D03*
X67220000Y-130030000D03*
X67220000Y-110330000D03*
X67240000Y-90350000D03*
X67270000Y-70620000D03*
X86840000Y-130240000D03*
X86840000Y-110310000D03*
X86840000Y-90540000D03*
X86940000Y-70760000D03*
X106520000Y-130220000D03*
X106540000Y-110200000D03*
X106480000Y-90530000D03*
X106460000Y-70700000D03*
X126240000Y-130130000D03*
X126290000Y-110410000D03*
X126230000Y-90540000D03*
X126230000Y-70600000D03*
X80330000Y-162000000D03*
X83610000Y-156130000D03*
X84490000Y-152670000D03*
X78430000Y-153500000D03*
X78420000Y-156460000D03*
X117820000Y-142300000D03*
X121070000Y-62630000D03*
X116790000Y-141520000D03*
X120840000Y-82450000D03*
X116130000Y-140920000D03*
X120620000Y-102020000D03*
X115360000Y-140120000D03*
X120770000Y-121960000D03*
X110660000Y-148330000D03*
X104350000Y-55740000D03*
X106880000Y-158320000D03*
X102380000Y-55740000D03*
X109780000Y-149620000D03*
X100600000Y-55730000D03*
X109780000Y-150580000D03*
X99430000Y-55720000D03*
X97870000Y-153610000D03*
X92930000Y-154180000D03*
X85750000Y-56200000D03*
X92300000Y-147000000D03*
X127190000Y-57240000D03*
X85020000Y-57840000D03*
X104800000Y-59750000D03*
X92030000Y-148370000D03*
X90660000Y-149610000D03*
X83960000Y-58610000D03*
X89390000Y-58610000D03*
X89930000Y-150250000D03*
X72210000Y-162630000D03*
X117140000Y-156070000D03*
X76900000Y-148430000D03*
X77100000Y-163300000D03*
X117950000Y-154980000D03*
X120210000Y-158420000D03*
X108940000Y-150770000D03*
X117280000Y-153370000D03*
X109570000Y-152350000D03*
X88620000Y-149030000D03*
X84650000Y-151820000D03*
X109990000Y-146020000D03*
X133770000Y-156010000D03*
X108980000Y-145360000D03*
X133793334Y-154016666D03*
X109990000Y-144670000D03*
X133780000Y-152010000D03*
X108980000Y-144010000D03*
X133790000Y-149960000D03*
X83620000Y-144750000D03*
M02*
