M48
;DRILL file {KiCad (5.0.0-rc2-dev-321-g78161b592)} date 06/16/18 00:09:51
;FORMAT={3:3/ absolute / metric / suppress leading zeros}
FMAT,2
METRIC,TZ
T1C0.400
T2C1.000
T3C1.016
T4C1.100
T5C0.900
T6C1.270
T7C3.988
%
G90
G05
M71
T1
X64560Y-139180
X66360Y-142140
X67220Y-110330
X67220Y-130030
X67240Y-90350
X67270Y-70620
X68750Y-130040
X68750Y-133550
X68750Y-133550
X68760Y-139590
X69690Y-156980
X71540Y-143450
X71540Y-150990
X72170Y-161350
X72210Y-162630
X75140Y-144400
X76900Y-148430
X77100Y-163300
X78000Y-59850
X78420Y-156460
X78430Y-153500
X79930Y-138230
X79970Y-136080
X79980Y-71510
X79980Y-75880
X79980Y-132780
X80330Y-162000
X80710Y-142240
X80760Y-145470
X81660Y-75180
X82350Y-41160
X83080Y-165030
X83610Y-156130
X83960Y-58610
X84490Y-152670
X84520Y-42510
X84650Y-151820
X84950Y-143380
X85020Y-57840
X85750Y-56200
X86840Y-90540
X86840Y-110310
X86840Y-130240
X86940Y-70760
X87060Y-144300
X88140Y-77460
X88140Y-79690
X88140Y-82000
X88240Y-97160
X88240Y-101670
X88250Y-99540
X88620Y-149030
X89390Y-58610
X89930Y-150250
X90660Y-149610
X90750Y-49230
X90780Y-46910
X90800Y-158240
X92030Y-148370
X92300Y-147000
X92450Y-104820
X92680Y-85110
X92830Y-161930
X92860Y-65220
X92930Y-154180
X92940Y-50390
X95500Y-140000
X96800Y-65730
X96900Y-105430
X96970Y-85380
X96980Y-136390
X97200Y-142240
X97780Y-48670
X97870Y-153610
X99430Y-55720
X100600Y-55730
X102380Y-55740
X103410Y-42730
X104350Y-55740
X104800Y-59750
X106460Y-70700
X106480Y-90530
X106520Y-130220
X106540Y-110200
X106880Y-158320
X107820Y-77520
X107830Y-79710
X107830Y-81980
X107930Y-97310
X107930Y-101610
X107960Y-99540
X108150Y-136690
X108940Y-150770
X108980Y-144010
X108980Y-145360
X109570Y-152350
X109780Y-149620
X109780Y-150580
X109990Y-144670
X109990Y-146020
X110660Y-148330
X112430Y-65220
X112480Y-104840
X112520Y-85070
X112880Y-139700
X115360Y-140120
X116130Y-140920
X116790Y-141520
X116960Y-105670
X117020Y-66070
X117140Y-86050
X117140Y-156070
X117280Y-153370
X117820Y-142300
X117950Y-154980
X118490Y-135750
X120210Y-158420
X120620Y-102020
X120770Y-121960
X120840Y-82450
X121070Y-62630
X124580Y-77530
X124590Y-79710
X124590Y-82020
X126230Y-70600
X126230Y-90540
X126240Y-130130
X126290Y-110410
X127190Y-57240
X127560Y-97180
X127560Y-99550
X127560Y-101620
X130750Y-48360
X131480Y-104780
X132080Y-65190
X132370Y-85150
X133770Y-156010
X133780Y-152010
X133790Y-149960
X133793Y-154017
X136670Y-66040
X136920Y-86030
X136920Y-105830
T2
X75940Y-122720
X69590Y-65860
X128990Y-125260
X135340Y-122720
X69590Y-125260
X73030Y-41730
X73030Y-44270
X75570Y-41730
X75570Y-44270
X130730Y-41730
X130730Y-44270
X75940Y-63320
X128990Y-85660
X135340Y-83120
X133270Y-41730
X69590Y-85660
X75940Y-83120
X89390Y-85660
X95740Y-83120
X109190Y-85660
X115540Y-83120
X69590Y-105460
X75940Y-102920
X89390Y-105460
X95740Y-102920
X133270Y-44270
X135340Y-63320
X88130Y-45570
X81860Y-49550
X81860Y-52090
X81860Y-54630
X81860Y-57170
X128990Y-105460
X135340Y-102920
X88130Y-48110
X95740Y-122720
X128990Y-65860
X89390Y-125260
X109190Y-65860
X115540Y-63320
X115540Y-122720
X88130Y-50650
X140060Y-149250
X140060Y-151790
X109190Y-125260
X109190Y-105460
X115540Y-102920
X89390Y-65860
X95740Y-63320
X140060Y-154330
X140060Y-156870
X88130Y-53190
T3
X120800Y-143930
X120800Y-161710
X123340Y-143930
X123340Y-161710
X125880Y-143930
X125880Y-161710
X128420Y-143930
X128420Y-161710
X130960Y-143930
X130960Y-161710
X133500Y-143930
X133500Y-161710
X136040Y-143930
X136040Y-161710
X138580Y-143930
X138580Y-161710
T4
X92790Y-58750
X107790Y-58750
T5
X65900Y-140200
X65900Y-147000
T6
X129097Y-40224
X71397Y-40224
T7
X132800Y-127800
X73400Y-127800
X73400Y-68400
X73400Y-88200
X93200Y-68400
X93200Y-88200
X113000Y-88200
X73400Y-108000
X93200Y-108000
X132800Y-108000
X93200Y-127800
X113000Y-68400
X113000Y-108000
X132800Y-88200
X132800Y-68400
X113000Y-127800
T0
M30
