M48
;DRILL file {KiCad (2017-12-24 revision 570866557)-makepkg} date 12/27/17 22:40:17
;FORMAT={3:3/ absolute / metric / suppress leading zeros}
FMAT,2
METRIC,TZ
T1C0.400
T2C0.800
T3C0.800
T4C1.000
T5C1.499
T6C1.702
T7C3.302
T8C3.988
T9C4.300
%
G90
G05
M71
T1
X105300Y-104400
X106731Y-80061
X107442Y-98984
X108204Y-117754
X108209Y-141991
X108941Y-136500
X109957Y-87147
X109957Y-124816
X110566Y-90145
X110668Y-128651
X110769Y-109804
X114503Y-142621
X115011Y-86258
X115011Y-123876
X115265Y-105105
X119482Y-87757
X119482Y-125273
X120802Y-142621
X122000Y-106500
X126550Y-105550
X127076Y-123190
X127102Y-85598
X127305Y-141986
X132700Y-66500
X137800Y-66500
X138278Y-87833
X138278Y-125120
X139289Y-142632
X139950Y-104700
X145999Y-141986
X146101Y-85598
X146101Y-123190
X150700Y-104400
X155600Y-104350
X156820Y-87605
X156820Y-124943
X158318Y-142621
X160500Y-100450
X164643Y-85598
X164846Y-123190
X165024Y-141986
X167950Y-104400
X175870Y-87655
X175870Y-106553
X175870Y-125095
X177343Y-142621
X185500Y-97000
T2
X114656Y-45364
X114656Y-70764
X117196Y-45364
X117196Y-70764
X119736Y-45364
X119736Y-70764
X122276Y-45364
X122276Y-70764
X124816Y-45364
X124816Y-70764
X127356Y-45364
X127356Y-70764
X129896Y-45364
X129896Y-70764
X132436Y-45364
X132436Y-70764
X134976Y-45364
X134976Y-70764
X137516Y-45364
X137516Y-70764
X140056Y-45364
X142596Y-45364
X145136Y-45364
X147676Y-45364
X150216Y-45364
X152756Y-45364
T3
X118500Y-59500
T4
X193500Y-62000
X193500Y-64540
X101500Y-57000
X106500Y-59500
X99420Y-66000
X101960Y-66000
X104500Y-66000
X193500Y-73800
X193500Y-76340
X193500Y-78880
X193500Y-81420
X193500Y-83960
X193500Y-86500
X193500Y-89040
X193500Y-91580
T5
X133071Y-114579
X139421Y-112039
X133071Y-95783
X139421Y-93243
X170663Y-95783
X177013Y-93243
X114275Y-95783
X120625Y-93243
X170663Y-114579
X177013Y-112039
X114275Y-133375
X120625Y-130835
X114275Y-114579
X120625Y-112039
X170663Y-133375
X177013Y-130835
X151867Y-133375
X158217Y-130835
X133071Y-76987
X139421Y-74447
X151867Y-114579
X158217Y-112039
X133071Y-133375
X139421Y-130835
X114275Y-76987
X120625Y-74447
X151867Y-95783
X158217Y-93243
X151867Y-76987
X158217Y-74447
X170663Y-76987
X177013Y-74447
T6
X169393Y-98323
X179553Y-98323
X113005Y-98323
X123165Y-98323
X169393Y-117119
X179553Y-117119
X113005Y-135915
X123165Y-135915
X113005Y-117119
X123165Y-117119
X169393Y-135915
X179553Y-135915
X150597Y-135915
X160757Y-135915
X131801Y-79527
X141961Y-79527
X150597Y-117119
X160757Y-117119
X131801Y-135915
X141961Y-135915
X113005Y-79527
X123165Y-79527
X150597Y-98323
X160757Y-98323
X150597Y-79527
X160757Y-79527
X169393Y-79527
X179553Y-79527
X131801Y-117119
X141961Y-117119
X131801Y-98323
X141961Y-98323
T7
X111862Y-46380
X111862Y-69748
X181862Y-46380
X181862Y-69748
T8
X136881Y-117119
X136881Y-98323
X174473Y-98323
X118085Y-98323
X174473Y-117119
X118085Y-135915
X118085Y-117119
X174473Y-135915
X155677Y-135915
X136881Y-79527
X155677Y-117119
X136881Y-135915
X118085Y-79527
X155677Y-98323
X155677Y-79527
X174473Y-79527
T9
X192000Y-48000
X100000Y-140000
X100000Y-48000
X192000Y-140000
T0
M30
