G04 #@! TF.GenerationSoftware,KiCad,Pcbnew,(2017-12-24 revision 570866557)-makepkg*
G04 #@! TF.CreationDate,2017-12-27T22:40:15-07:00*
G04 #@! TF.ProjectId,KeyGridTest1,4B65794772696454657374312E6B6963,rev?*
G04 #@! TF.SameCoordinates,Original*
G04 #@! TF.FileFunction,Copper,L1,Top,Signal*
G04 #@! TF.FilePolarity,Positive*
%FSLAX46Y46*%
G04 Gerber Fmt 4.6, Leading zero omitted, Abs format (unit mm)*
G04 Created by KiCad (PCBNEW (2017-12-24 revision 570866557)-makepkg) date 12/27/17 22:40:15*
%MOMM*%
%LPD*%
G01*
G04 APERTURE LIST*
%ADD10O,1.200000X2.000000*%
%ADD11C,2.286000*%
%ADD12R,1.000000X0.850000*%
%ADD13R,1.250000X1.500000*%
%ADD14R,1.200000X0.900000*%
%ADD15R,1.700000X1.700000*%
%ADD16O,1.700000X1.700000*%
%ADD17C,1.998980*%
%ADD18C,2.000000*%
%ADD19C,0.600000*%
%ADD20C,1.270000*%
%ADD21C,0.508000*%
%ADD22C,0.254000*%
%ADD23C,0.250000*%
G04 APERTURE END LIST*
D10*
X114655600Y-45364400D03*
X114655600Y-70764400D03*
X117195600Y-45364400D03*
X117195600Y-70764400D03*
X119735600Y-45364400D03*
X119735600Y-70764400D03*
X122275600Y-45364400D03*
X122275600Y-70764400D03*
X124815600Y-45364400D03*
X124815600Y-70764400D03*
X127355600Y-45364400D03*
X127355600Y-70764400D03*
X129895600Y-45364400D03*
X129895600Y-70764400D03*
X132435600Y-45364400D03*
X132435600Y-70764400D03*
X134975600Y-45364400D03*
X134975600Y-70764400D03*
X137515600Y-45364400D03*
X137515600Y-70764400D03*
X140055600Y-45364400D03*
X142595600Y-45364400D03*
X145135600Y-45364400D03*
X147675600Y-45364400D03*
X150215600Y-45364400D03*
X152755600Y-45364400D03*
D11*
X158216600Y-130835400D03*
X151866600Y-133375400D03*
X177012600Y-130835400D03*
X170662600Y-133375400D03*
X120624600Y-130835400D03*
X114274600Y-133375400D03*
X139420600Y-130835400D03*
X133070600Y-133375400D03*
X158216600Y-93243400D03*
X151866600Y-95783400D03*
X158216600Y-112039400D03*
X151866600Y-114579400D03*
X177012600Y-112039400D03*
X170662600Y-114579400D03*
X177012600Y-93243400D03*
X170662600Y-95783400D03*
X139420600Y-112039400D03*
X133070600Y-114579400D03*
X139420600Y-93243400D03*
X133070600Y-95783400D03*
X120624600Y-93243400D03*
X114274600Y-95783400D03*
X120624600Y-112039400D03*
X114274600Y-114579400D03*
X120624600Y-74447400D03*
X114274600Y-76987400D03*
X139420600Y-74447400D03*
X133070600Y-76987400D03*
X158216600Y-74447400D03*
X151866600Y-76987400D03*
X177012600Y-74447400D03*
X170662600Y-76987400D03*
D12*
X156822600Y-140882400D03*
X156822600Y-142632400D03*
X154022600Y-142632400D03*
X154022600Y-140882400D03*
D13*
X147548600Y-139491400D03*
X147548600Y-141991400D03*
X166344600Y-139491400D03*
X166344600Y-141991400D03*
D14*
X147548600Y-136549400D03*
X147548600Y-133249400D03*
X166344600Y-136549400D03*
X166344600Y-133249400D03*
D12*
X175872600Y-140882400D03*
X175872600Y-142632400D03*
X173072600Y-142632400D03*
X173072600Y-140882400D03*
D13*
X128752600Y-139491400D03*
X128752600Y-141991400D03*
D14*
X109956600Y-136549400D03*
X109956600Y-133249400D03*
D13*
X109956600Y-139491400D03*
X109956600Y-141991400D03*
D12*
X119484600Y-140882400D03*
X119484600Y-142632400D03*
X116684600Y-142632400D03*
X116684600Y-140882400D03*
D14*
X128752600Y-136549400D03*
X128752600Y-133249400D03*
D12*
X138280600Y-140882400D03*
X138280600Y-142632400D03*
X135480600Y-142632400D03*
X135480600Y-140882400D03*
D14*
X166090600Y-117753400D03*
X166090600Y-114453400D03*
D12*
X156822600Y-103290400D03*
X156822600Y-105040400D03*
X154022600Y-105040400D03*
X154022600Y-103290400D03*
D14*
X147294600Y-117753400D03*
X147294600Y-114453400D03*
X147294600Y-98957400D03*
X147294600Y-95657400D03*
D12*
X156822600Y-122086400D03*
X156822600Y-123836400D03*
X154022600Y-123836400D03*
X154022600Y-122086400D03*
X175872600Y-103290400D03*
X175872600Y-105040400D03*
X173072600Y-105040400D03*
X173072600Y-103290400D03*
D14*
X166090600Y-98957400D03*
X166090600Y-95657400D03*
D12*
X175872600Y-122086400D03*
X175872600Y-123836400D03*
X173072600Y-123836400D03*
X173072600Y-122086400D03*
X119484600Y-122086400D03*
X119484600Y-123836400D03*
X116684600Y-123836400D03*
X116684600Y-122086400D03*
D13*
X128752600Y-120695400D03*
X128752600Y-123195400D03*
D14*
X128498600Y-117753400D03*
X128498600Y-114453400D03*
D12*
X138280600Y-122086400D03*
X138280600Y-123836400D03*
X135480600Y-123836400D03*
X135480600Y-122086400D03*
X119484600Y-103290400D03*
X119484600Y-105040400D03*
X116684600Y-105040400D03*
X116684600Y-103290400D03*
D14*
X128498600Y-98957400D03*
X128498600Y-95657400D03*
D13*
X128752600Y-101899400D03*
X128752600Y-104399400D03*
D12*
X138280600Y-103290400D03*
X138280600Y-105040400D03*
X135480600Y-105040400D03*
X135480600Y-103290400D03*
D13*
X147548600Y-101899400D03*
X147548600Y-104399400D03*
X166344600Y-101899400D03*
X166344600Y-104399400D03*
X166344600Y-120695400D03*
X166344600Y-123195400D03*
X147548600Y-120695400D03*
X147548600Y-123195400D03*
D14*
X109702600Y-98957400D03*
X109702600Y-95657400D03*
X109702600Y-117753400D03*
X109702600Y-114453400D03*
D13*
X109956600Y-101899400D03*
X109956600Y-104399400D03*
X109956600Y-120695400D03*
X109956600Y-123195400D03*
X109956600Y-83103400D03*
X109956600Y-85603400D03*
X128752600Y-83103400D03*
X128752600Y-85603400D03*
X147548600Y-83103400D03*
X147548600Y-85603400D03*
X166344600Y-83103400D03*
X166344600Y-85603400D03*
D14*
X109702600Y-80098199D03*
X109702600Y-76798199D03*
X128498600Y-80098199D03*
X128498600Y-76798199D03*
X147294600Y-80098199D03*
X147294600Y-76798199D03*
X166090600Y-80098199D03*
X166090600Y-76798199D03*
D15*
X104500000Y-66000000D03*
D16*
X101960000Y-66000000D03*
X99420000Y-66000000D03*
D12*
X119484600Y-84494400D03*
X119484600Y-86244400D03*
X116684600Y-86244400D03*
X116684600Y-84494400D03*
X138280600Y-84494400D03*
X138280600Y-86244400D03*
X135480600Y-86244400D03*
X135480600Y-84494400D03*
X156822600Y-84494400D03*
X156822600Y-86244400D03*
X154022600Y-86244400D03*
X154022600Y-84494400D03*
X175872600Y-84494400D03*
X175872600Y-86244400D03*
X173072600Y-86244400D03*
X173072600Y-84494400D03*
D17*
X118500000Y-59500000D03*
D16*
X193500000Y-91580000D03*
X193500000Y-89040000D03*
X193500000Y-86500000D03*
X193500000Y-83960000D03*
X193500000Y-81420000D03*
X193500000Y-78880000D03*
X193500000Y-76340000D03*
D15*
X193500000Y-73800000D03*
D16*
X193500000Y-64540000D03*
D15*
X193500000Y-62000000D03*
D18*
X101500000Y-57000000D03*
X106500000Y-59500000D03*
D19*
X150700000Y-104400000D03*
X139950000Y-104700000D03*
X126550000Y-105550000D03*
X122000000Y-106500000D03*
X105300000Y-104400000D03*
X167950000Y-104400000D03*
X155600000Y-104350000D03*
X109956600Y-124815600D03*
X109956600Y-87147400D03*
X177342800Y-142621000D03*
X165023800Y-141986000D03*
X158318200Y-142621000D03*
X145999200Y-141986000D03*
X139288600Y-142632400D03*
X127304800Y-141986000D03*
X120802400Y-142621000D03*
X108209400Y-141991400D03*
X119481600Y-125272800D03*
X127076200Y-123190000D03*
X138277600Y-125120400D03*
X146100800Y-123190000D03*
X156819600Y-124942600D03*
X164846000Y-123190000D03*
X175869600Y-125095000D03*
X175869600Y-106553000D03*
X175869600Y-87655400D03*
X164642800Y-85598000D03*
X156819600Y-87604600D03*
X146100800Y-85598000D03*
X138277600Y-87833200D03*
X127101600Y-85598000D03*
X119481600Y-87757000D03*
X106730800Y-80060800D03*
X107442000Y-98983800D03*
X108204000Y-117754400D03*
X108940600Y-136499600D03*
X137800000Y-66500000D03*
X132700000Y-66500000D03*
X115011200Y-86258400D03*
X115265200Y-105105200D03*
X110566200Y-90144600D03*
X115011200Y-123875800D03*
X110769400Y-109804200D03*
X114503200Y-142621000D03*
X110667800Y-128651000D03*
X185500000Y-97000000D03*
X160500000Y-100450000D03*
D20*
X101960000Y-66000000D02*
X101960000Y-81030400D01*
X101960000Y-81030400D02*
X102463600Y-81534000D01*
D21*
X167592600Y-139491400D02*
X168050600Y-139949400D01*
X166344600Y-139491400D02*
X167592600Y-139491400D01*
X168050600Y-139949400D02*
X172064600Y-139949400D01*
X172064600Y-139949400D02*
X172997600Y-140882400D01*
X172997600Y-140882400D02*
X173072600Y-140882400D01*
D20*
X102463600Y-120500000D02*
X102463600Y-136000000D01*
X102463600Y-100787200D02*
X102463600Y-120500000D01*
D21*
X109956600Y-120695400D02*
X102659000Y-120695400D01*
X102659000Y-120695400D02*
X102463600Y-120500000D01*
X168868600Y-103290400D02*
X172064600Y-103290400D01*
X172064600Y-103290400D02*
X173072600Y-103290400D01*
X167477600Y-101899400D02*
X168868600Y-103290400D01*
X166344600Y-101899400D02*
X167477600Y-101899400D01*
X168868600Y-84494400D02*
X172064600Y-84494400D01*
X166344600Y-83103400D02*
X167477600Y-83103400D01*
X167477600Y-83103400D02*
X168868600Y-84494400D01*
X172064600Y-84494400D02*
X173072600Y-84494400D01*
D20*
X105000000Y-139500000D02*
X109956600Y-139491400D01*
X102463600Y-136000000D02*
X105000000Y-139500000D01*
D21*
X154022600Y-84494400D02*
X154022600Y-83561400D01*
X165211600Y-83103400D02*
X166344600Y-83103400D01*
X154022600Y-83561400D02*
X154480600Y-83103400D01*
X154480600Y-83103400D02*
X165211600Y-83103400D01*
X147548600Y-83103400D02*
X153564600Y-83103400D01*
X153564600Y-83103400D02*
X154022600Y-83561400D01*
X135480600Y-84494400D02*
X135480600Y-83561400D01*
X135480600Y-83561400D02*
X135938600Y-83103400D01*
X135938600Y-83103400D02*
X146415600Y-83103400D01*
X146415600Y-83103400D02*
X147548600Y-83103400D01*
X128752600Y-83103400D02*
X135022600Y-83103400D01*
X135022600Y-83103400D02*
X135480600Y-83561400D01*
X116684600Y-84494400D02*
X116684600Y-83561400D01*
X116684600Y-83561400D02*
X117142600Y-83103400D01*
X117142600Y-83103400D02*
X127619600Y-83103400D01*
X127619600Y-83103400D02*
X128752600Y-83103400D01*
X109956600Y-83103400D02*
X116226600Y-83103400D01*
X116226600Y-83103400D02*
X116684600Y-83561400D01*
D20*
X102463600Y-81534000D02*
X102463600Y-100787200D01*
D21*
X102463600Y-81534000D02*
X104033000Y-83103400D01*
X104033000Y-83103400D02*
X109956600Y-83103400D01*
X154022600Y-103290400D02*
X154022600Y-102357400D01*
X154022600Y-102357400D02*
X154480600Y-101899400D01*
X154480600Y-101899400D02*
X165211600Y-101899400D01*
X165211600Y-101899400D02*
X166344600Y-101899400D01*
X147548600Y-101899400D02*
X153564600Y-101899400D01*
X153564600Y-101899400D02*
X154022600Y-102357400D01*
X135480600Y-103290400D02*
X135480600Y-102357400D01*
X135480600Y-102357400D02*
X135938600Y-101899400D01*
X135938600Y-101899400D02*
X146415600Y-101899400D01*
X146415600Y-101899400D02*
X147548600Y-101899400D01*
X128752600Y-101899400D02*
X135022600Y-101899400D01*
X135022600Y-101899400D02*
X135480600Y-102357400D01*
X116684600Y-103290400D02*
X116684600Y-102357400D01*
X116684600Y-102357400D02*
X117142600Y-101899400D01*
X117142600Y-101899400D02*
X127619600Y-101899400D01*
X127619600Y-101899400D02*
X128752600Y-101899400D01*
X109956600Y-101899400D02*
X116226600Y-101899400D01*
X116226600Y-101899400D02*
X116684600Y-102357400D01*
X102463600Y-100787200D02*
X103575800Y-101899400D01*
X103575800Y-101899400D02*
X109956600Y-101899400D01*
X166344600Y-120695400D02*
X172614600Y-120695400D01*
X172614600Y-120695400D02*
X173072600Y-121153400D01*
X173072600Y-121153400D02*
X173072600Y-122086400D01*
X154022600Y-122086400D02*
X154022600Y-121153400D01*
X154022600Y-121153400D02*
X154480600Y-120695400D01*
X154480600Y-120695400D02*
X165211600Y-120695400D01*
X165211600Y-120695400D02*
X166344600Y-120695400D01*
X147548600Y-120695400D02*
X153564600Y-120695400D01*
X153564600Y-120695400D02*
X154022600Y-121153400D01*
X135480600Y-122086400D02*
X135480600Y-121153400D01*
X135480600Y-121153400D02*
X135938600Y-120695400D01*
X135938600Y-120695400D02*
X146415600Y-120695400D01*
X146415600Y-120695400D02*
X147548600Y-120695400D01*
X128752600Y-120695400D02*
X135022600Y-120695400D01*
X135022600Y-120695400D02*
X135480600Y-121153400D01*
X116684600Y-122086400D02*
X116684600Y-121153400D01*
X116684600Y-121153400D02*
X117142600Y-120695400D01*
X117142600Y-120695400D02*
X127619600Y-120695400D01*
X127619600Y-120695400D02*
X128752600Y-120695400D01*
X109956600Y-120695400D02*
X116226600Y-120695400D01*
X116226600Y-120695400D02*
X116684600Y-121153400D01*
X154022600Y-140882400D02*
X154022600Y-139949400D01*
X154022600Y-139949400D02*
X154480600Y-139491400D01*
X154480600Y-139491400D02*
X165211600Y-139491400D01*
X165211600Y-139491400D02*
X166344600Y-139491400D01*
X147548600Y-139491400D02*
X153564600Y-139491400D01*
X153564600Y-139491400D02*
X154022600Y-139949400D01*
X135480600Y-140882400D02*
X135480600Y-139949400D01*
X135480600Y-139949400D02*
X135938600Y-139491400D01*
X146415600Y-139491400D02*
X147548600Y-139491400D01*
X135938600Y-139491400D02*
X146415600Y-139491400D01*
X128752600Y-139491400D02*
X135022600Y-139491400D01*
X135022600Y-139491400D02*
X135480600Y-139949400D01*
X116684600Y-140882400D02*
X116684600Y-139949400D01*
X116684600Y-139949400D02*
X117142600Y-139491400D01*
X117142600Y-139491400D02*
X127619600Y-139491400D01*
X127619600Y-139491400D02*
X128752600Y-139491400D01*
X109956600Y-139491400D02*
X116226600Y-139491400D01*
X116226600Y-139491400D02*
X116684600Y-139949400D01*
D20*
X106500000Y-59500000D02*
X118500000Y-59500000D01*
D21*
X147548600Y-104399400D02*
X150700000Y-104400000D01*
X138280600Y-105040400D02*
X139950000Y-104700000D01*
X128752600Y-104399400D02*
X126550000Y-105550000D01*
X119484600Y-105040400D02*
X122000000Y-106500000D01*
X109956600Y-104399400D02*
X105300000Y-104400000D01*
X166344600Y-104399400D02*
X167950000Y-104400000D01*
X156822600Y-105040400D02*
X155600000Y-104350000D01*
D22*
X109956600Y-123195400D02*
X109956600Y-124815600D01*
X109956600Y-85603400D02*
X109956600Y-87147400D01*
D21*
X175872600Y-142632400D02*
X177331400Y-142632400D01*
X177331400Y-142632400D02*
X177342800Y-142621000D01*
X166344600Y-141991400D02*
X165029200Y-141991400D01*
X165029200Y-141991400D02*
X165023800Y-141986000D01*
X156822600Y-142632400D02*
X158306800Y-142632400D01*
X158306800Y-142632400D02*
X158318200Y-142621000D01*
X147548600Y-141991400D02*
X146004600Y-141991400D01*
X146004600Y-141991400D02*
X145999200Y-141986000D01*
X139300000Y-142621000D02*
X139288600Y-142632400D01*
X138280600Y-142632400D02*
X139288600Y-142632400D01*
X127614200Y-141986000D02*
X127304800Y-141986000D01*
X128752600Y-141991400D02*
X127619600Y-141991400D01*
X127619600Y-141991400D02*
X127614200Y-141986000D01*
X120504000Y-142621000D02*
X120802400Y-142621000D01*
X119484600Y-142632400D02*
X120492600Y-142632400D01*
X120492600Y-142632400D02*
X120504000Y-142621000D01*
X109956600Y-141991400D02*
X108209400Y-141991400D01*
X119484600Y-123836400D02*
X119484600Y-125269800D01*
X119484600Y-125269800D02*
X119481600Y-125272800D01*
X128752600Y-123195400D02*
X127081600Y-123195400D01*
X127081600Y-123195400D02*
X127076200Y-123190000D01*
X138277600Y-124772400D02*
X138277600Y-125120400D01*
X138280600Y-123836400D02*
X138280600Y-124769400D01*
X138280600Y-124769400D02*
X138277600Y-124772400D01*
X147548600Y-123195400D02*
X146106200Y-123195400D01*
X146106200Y-123195400D02*
X146100800Y-123190000D01*
X156822600Y-123836400D02*
X156822600Y-124939600D01*
X156822600Y-124939600D02*
X156819600Y-124942600D01*
X165206200Y-123190000D02*
X164846000Y-123190000D01*
X166344600Y-123195400D02*
X165211600Y-123195400D01*
X165211600Y-123195400D02*
X165206200Y-123190000D01*
X175872600Y-123836400D02*
X175872600Y-125092000D01*
X175872600Y-125092000D02*
X175869600Y-125095000D01*
X175872600Y-105040400D02*
X175872600Y-106550000D01*
X175872600Y-106550000D02*
X175869600Y-106553000D01*
X175869600Y-87180400D02*
X175869600Y-87655400D01*
X175872600Y-86244400D02*
X175872600Y-87177400D01*
X175872600Y-87177400D02*
X175869600Y-87180400D01*
X166344600Y-85603400D02*
X164648200Y-85603400D01*
X164648200Y-85603400D02*
X164642800Y-85598000D01*
X156822600Y-86244400D02*
X156822600Y-87601600D01*
X156822600Y-87601600D02*
X156819600Y-87604600D01*
X147548600Y-85603400D02*
X146106200Y-85603400D01*
X146106200Y-85603400D02*
X146100800Y-85598000D01*
X138280600Y-86244400D02*
X138280600Y-87830200D01*
X138280600Y-87830200D02*
X138277600Y-87833200D01*
X128752600Y-85603400D02*
X127107000Y-85603400D01*
X127107000Y-85603400D02*
X127101600Y-85598000D01*
X119484600Y-86244400D02*
X119484600Y-87754000D01*
X119484600Y-87754000D02*
X119481600Y-87757000D01*
D22*
X166240600Y-80098199D02*
X169252402Y-83110001D01*
X166090600Y-80098199D02*
X166240600Y-80098199D01*
X169252402Y-83110001D02*
X192650001Y-83110001D01*
X192650001Y-83110001D02*
X193500000Y-83960000D01*
X106730800Y-80060800D02*
X109665201Y-80060800D01*
X109665201Y-80060800D02*
X109702600Y-80098199D01*
X150498801Y-82448400D02*
X162886399Y-82448400D01*
X162886399Y-82448400D02*
X165236600Y-80098199D01*
X165236600Y-80098199D02*
X166090600Y-80098199D01*
X147294600Y-80098199D02*
X148148600Y-80098199D01*
X148148600Y-80098199D02*
X150498801Y-82448400D01*
X131601201Y-82346800D02*
X144191999Y-82346800D01*
X144191999Y-82346800D02*
X146440600Y-80098199D01*
X146440600Y-80098199D02*
X147294600Y-80098199D01*
X128498600Y-80098199D02*
X129352600Y-80098199D01*
X129352600Y-80098199D02*
X131601201Y-82346800D01*
X112779801Y-82321400D02*
X125421399Y-82321400D01*
X125421399Y-82321400D02*
X127644600Y-80098199D01*
X127644600Y-80098199D02*
X128498600Y-80098199D01*
X109702600Y-80098199D02*
X110556600Y-80098199D01*
X110556600Y-80098199D02*
X112779801Y-82321400D01*
D23*
X128498600Y-80098199D02*
X128648600Y-80098199D01*
X109702600Y-80098199D02*
X109852600Y-80098199D01*
X114274600Y-76987400D02*
X109891801Y-76987400D01*
X109891801Y-76987400D02*
X109702600Y-76798199D01*
D22*
X182545989Y-91454011D02*
X187500000Y-86500000D01*
X166090600Y-98957400D02*
X166944600Y-98957400D01*
X166944600Y-98957400D02*
X169487200Y-101500000D01*
X169487200Y-101500000D02*
X181000000Y-101500000D01*
X181000000Y-101500000D02*
X182545989Y-99954011D01*
X192297919Y-86500000D02*
X193500000Y-86500000D01*
X187500000Y-86500000D02*
X192297919Y-86500000D01*
X182545989Y-99954011D02*
X182545989Y-91454011D01*
X107442000Y-98983800D02*
X109676200Y-98983800D01*
X109676200Y-98983800D02*
X109702600Y-98957400D01*
X150435600Y-101244400D02*
X162949600Y-101244400D01*
X162949600Y-101244400D02*
X165236600Y-98957400D01*
X165236600Y-98957400D02*
X166090600Y-98957400D01*
X147294600Y-98957400D02*
X148148600Y-98957400D01*
X148148600Y-98957400D02*
X150435600Y-101244400D01*
X131487200Y-101092000D02*
X144306000Y-101092000D01*
X144306000Y-101092000D02*
X146440600Y-98957400D01*
X146440600Y-98957400D02*
X147294600Y-98957400D01*
X128498600Y-98957400D02*
X129352600Y-98957400D01*
X129352600Y-98957400D02*
X131487200Y-101092000D01*
X112869000Y-101269800D02*
X125332200Y-101269800D01*
X125332200Y-101269800D02*
X127644600Y-98957400D01*
X127644600Y-98957400D02*
X128498600Y-98957400D01*
X109702600Y-98957400D02*
X110556600Y-98957400D01*
X110556600Y-98957400D02*
X112869000Y-101269800D01*
D23*
X109702600Y-95657400D02*
X114148600Y-95657400D01*
X114148600Y-95657400D02*
X114274600Y-95783400D01*
D22*
X169191200Y-120000000D02*
X166944600Y-117753400D01*
X180000000Y-120000000D02*
X169191200Y-120000000D01*
X183000000Y-117000000D02*
X180000000Y-120000000D01*
X183000000Y-93500000D02*
X183000000Y-117000000D01*
X193500000Y-89040000D02*
X187460000Y-89040000D01*
X187460000Y-89040000D02*
X183000000Y-93500000D01*
X166944600Y-117753400D02*
X166090600Y-117753400D01*
X108204000Y-117754400D02*
X109701600Y-117754400D01*
X109701600Y-117754400D02*
X109702600Y-117753400D01*
X150410200Y-120015000D02*
X162975000Y-120015000D01*
X162975000Y-120015000D02*
X165236600Y-117753400D01*
X165236600Y-117753400D02*
X166090600Y-117753400D01*
X147294600Y-117753400D02*
X148148600Y-117753400D01*
X148148600Y-117753400D02*
X150410200Y-120015000D01*
X130910200Y-120015000D02*
X144179000Y-120015000D01*
X144179000Y-120015000D02*
X146440600Y-117753400D01*
X146440600Y-117753400D02*
X147294600Y-117753400D01*
X128498600Y-117753400D02*
X128648600Y-117753400D01*
X128648600Y-117753400D02*
X130910200Y-120015000D01*
X112843600Y-120040400D02*
X125357600Y-120040400D01*
X125357600Y-120040400D02*
X127644600Y-117753400D01*
X127644600Y-117753400D02*
X128498600Y-117753400D01*
X109702600Y-117753400D02*
X110556600Y-117753400D01*
X110556600Y-117753400D02*
X112843600Y-120040400D01*
D23*
X109702600Y-114453400D02*
X114148600Y-114453400D01*
X114148600Y-114453400D02*
X114274600Y-114579400D01*
D22*
X183500000Y-135500000D02*
X180000000Y-139000000D01*
X168945200Y-139000000D02*
X180000000Y-139000000D01*
X166344600Y-136549400D02*
X166494600Y-136549400D01*
X166494600Y-136549400D02*
X168945200Y-139000000D01*
X183500000Y-95000000D02*
X183500000Y-135500000D01*
X186920000Y-91580000D02*
X183500000Y-95000000D01*
X193500000Y-91580000D02*
X186920000Y-91580000D01*
X108940600Y-136499600D02*
X109906800Y-136499600D01*
X109906800Y-136499600D02*
X109956600Y-136549400D01*
X149985600Y-138836400D02*
X163203600Y-138836400D01*
X163203600Y-138836400D02*
X165490600Y-136549400D01*
X165490600Y-136549400D02*
X166344600Y-136549400D01*
X147548600Y-136549400D02*
X147698600Y-136549400D01*
X147698600Y-136549400D02*
X149985600Y-138836400D01*
X131893600Y-138836400D02*
X144407600Y-138836400D01*
X144407600Y-138836400D02*
X146694600Y-136549400D01*
X146694600Y-136549400D02*
X147548600Y-136549400D01*
X128752600Y-136549400D02*
X129606600Y-136549400D01*
X129606600Y-136549400D02*
X131893600Y-138836400D01*
X113123000Y-138861800D02*
X125586200Y-138861800D01*
X125586200Y-138861800D02*
X127898600Y-136549400D01*
X127898600Y-136549400D02*
X128752600Y-136549400D01*
X109956600Y-136549400D02*
X110810600Y-136549400D01*
X110810600Y-136549400D02*
X113123000Y-138861800D01*
D23*
X109956600Y-133249400D02*
X114148600Y-133249400D01*
X114148600Y-133249400D02*
X114274600Y-133375400D01*
X128498600Y-76798199D02*
X132881399Y-76798199D01*
X132881399Y-76798199D02*
X133070600Y-76987400D01*
X128498600Y-95657400D02*
X132944600Y-95657400D01*
X132944600Y-95657400D02*
X133070600Y-95783400D01*
X128498600Y-114453400D02*
X132944600Y-114453400D01*
X132944600Y-114453400D02*
X133070600Y-114579400D01*
X128752600Y-133249400D02*
X132944600Y-133249400D01*
X132944600Y-133249400D02*
X133070600Y-133375400D01*
X147294600Y-76798199D02*
X151677399Y-76798199D01*
X151677399Y-76798199D02*
X151866600Y-76987400D01*
X147294600Y-95657400D02*
X151740600Y-95657400D01*
X151740600Y-95657400D02*
X151866600Y-95783400D01*
D22*
X147294600Y-114453400D02*
X151740600Y-114453400D01*
X151740600Y-114453400D02*
X151866600Y-114579400D01*
D23*
X147548600Y-133249400D02*
X151740600Y-133249400D01*
X151740600Y-133249400D02*
X151866600Y-133375400D01*
X166090600Y-76798199D02*
X170473399Y-76798199D01*
X170473399Y-76798199D02*
X170662600Y-76987400D01*
X166090600Y-95657400D02*
X170536600Y-95657400D01*
X170536600Y-95657400D02*
X170662600Y-95783400D01*
X166090600Y-114453400D02*
X170536600Y-114453400D01*
X170536600Y-114453400D02*
X170662600Y-114579400D01*
X166344600Y-133249400D02*
X170536600Y-133249400D01*
X170536600Y-133249400D02*
X170662600Y-133375400D01*
D22*
X119735600Y-69510400D02*
X122746000Y-66500000D01*
X119735600Y-70764400D02*
X119735600Y-69510400D01*
X122746000Y-66500000D02*
X132700000Y-66500000D01*
X140500000Y-66500000D02*
X142460000Y-64540000D01*
X137800000Y-66500000D02*
X140500000Y-66500000D01*
X142460000Y-64540000D02*
X193500000Y-64540000D01*
X115011200Y-86258400D02*
X116670600Y-86258400D01*
X116670600Y-86258400D02*
X116684600Y-86244400D01*
X122942400Y-87198200D02*
X133772800Y-87198200D01*
X133772800Y-87198200D02*
X134726600Y-86244400D01*
X134726600Y-86244400D02*
X135480600Y-86244400D01*
X119484600Y-84494400D02*
X120238600Y-84494400D01*
X120238600Y-84494400D02*
X122942400Y-87198200D01*
X115265200Y-105105200D02*
X116619800Y-105105200D01*
X116619800Y-105105200D02*
X116684600Y-105040400D01*
X111633000Y-89077800D02*
X110566200Y-90144600D01*
X176504600Y-89077800D02*
X111633000Y-89077800D01*
X177342800Y-88239600D02*
X176504600Y-89077800D01*
X177342800Y-87110162D02*
X177342800Y-88239600D01*
X177342800Y-85210600D02*
X177342800Y-87110162D01*
X175872600Y-84494400D02*
X176626600Y-84494400D01*
X176626600Y-84494400D02*
X177342800Y-85210600D01*
X123145600Y-106197400D02*
X133569600Y-106197400D01*
X133569600Y-106197400D02*
X134726600Y-105040400D01*
X134726600Y-105040400D02*
X135480600Y-105040400D01*
X119484600Y-103290400D02*
X120238600Y-103290400D01*
X120238600Y-103290400D02*
X123145600Y-106197400D01*
X115011200Y-123875800D02*
X116645200Y-123875800D01*
X116645200Y-123875800D02*
X116684600Y-123836400D01*
X112014000Y-108559600D02*
X110769400Y-109804200D01*
X176504600Y-108559600D02*
X112014000Y-108559600D01*
X178028600Y-107035600D02*
X176504600Y-108559600D01*
X178028600Y-105371400D02*
X178028600Y-107035600D01*
X175872600Y-103290400D02*
X175947600Y-103290400D01*
X175947600Y-103290400D02*
X178028600Y-105371400D01*
X123196400Y-125044200D02*
X133518800Y-125044200D01*
X133518800Y-125044200D02*
X134726600Y-123836400D01*
X134726600Y-123836400D02*
X135480600Y-123836400D01*
X119484600Y-122086400D02*
X120238600Y-122086400D01*
X120238600Y-122086400D02*
X123196400Y-125044200D01*
X114503200Y-142621000D02*
X116673200Y-142621000D01*
X116673200Y-142621000D02*
X116684600Y-142632400D01*
X112115600Y-127203200D02*
X110667800Y-128651000D01*
X176733200Y-127203200D02*
X112115600Y-127203200D01*
X178155600Y-125780800D02*
X176733200Y-127203200D01*
X178155600Y-123615400D02*
X178155600Y-125780800D01*
X175872600Y-122086400D02*
X176626600Y-122086400D01*
X176626600Y-122086400D02*
X178155600Y-123615400D01*
X127482600Y-140741400D02*
X133514600Y-140741400D01*
X133514600Y-140741400D02*
X135405600Y-142632400D01*
X135405600Y-142632400D02*
X135480600Y-142632400D01*
X127341600Y-140882400D02*
X127482600Y-140741400D01*
X119484600Y-140882400D02*
X127341600Y-140882400D01*
X145338800Y-87198200D02*
X152314800Y-87198200D01*
X152314800Y-87198200D02*
X153268600Y-86244400D01*
X153268600Y-86244400D02*
X154022600Y-86244400D01*
X142635000Y-84494400D02*
X145338800Y-87198200D01*
X138280600Y-84494400D02*
X142635000Y-84494400D01*
X144653000Y-106324400D02*
X151984600Y-106324400D01*
X153268600Y-105040400D02*
X154022600Y-105040400D01*
X151984600Y-106324400D02*
X153268600Y-105040400D01*
X141619000Y-103290400D02*
X144653000Y-106324400D01*
X138280600Y-103290400D02*
X141619000Y-103290400D01*
X143992600Y-124942600D02*
X152162400Y-124942600D01*
X152162400Y-124942600D02*
X153268600Y-123836400D01*
X153268600Y-123836400D02*
X154022600Y-123836400D01*
X141136400Y-122086400D02*
X143992600Y-124942600D01*
X138280600Y-122086400D02*
X141136400Y-122086400D01*
X146405600Y-140741400D02*
X152056600Y-140741400D01*
X153947600Y-142632400D02*
X154022600Y-142632400D01*
X152056600Y-140741400D02*
X153947600Y-142632400D01*
X146264600Y-140882400D02*
X146405600Y-140741400D01*
X138280600Y-140882400D02*
X146264600Y-140882400D01*
X163677600Y-87122000D02*
X171441000Y-87122000D01*
X172318600Y-86244400D02*
X173072600Y-86244400D01*
X171441000Y-87122000D02*
X172318600Y-86244400D01*
X161061400Y-84505800D02*
X163677600Y-87122000D01*
X157588000Y-84505800D02*
X161061400Y-84505800D01*
X156822600Y-84494400D02*
X157576600Y-84494400D01*
X157576600Y-84494400D02*
X157588000Y-84505800D01*
X160280400Y-105994200D02*
X171364800Y-105994200D01*
X171364800Y-105994200D02*
X172318600Y-105040400D01*
X172318600Y-105040400D02*
X173072600Y-105040400D01*
X156822600Y-103290400D02*
X157576600Y-103290400D01*
X157576600Y-103290400D02*
X160280400Y-105994200D01*
X162915600Y-124587000D02*
X171568000Y-124587000D01*
X171568000Y-124587000D02*
X172318600Y-123836400D01*
X172318600Y-123836400D02*
X173072600Y-123836400D01*
X160415000Y-122086400D02*
X162915600Y-124587000D01*
X156822600Y-122086400D02*
X160415000Y-122086400D01*
X165328600Y-140741400D02*
X171106600Y-140741400D01*
X171106600Y-140741400D02*
X172997600Y-142632400D01*
X172997600Y-142632400D02*
X173072600Y-142632400D01*
X165187600Y-140882400D02*
X165328600Y-140741400D01*
X156822600Y-140882400D02*
X165187600Y-140882400D01*
X185500000Y-135500000D02*
X185500000Y-97000000D01*
X180117600Y-140882400D02*
X185500000Y-135500000D01*
X175872600Y-140882400D02*
X180117600Y-140882400D01*
D20*
X99420000Y-66000000D02*
X99420000Y-59080000D01*
X99420000Y-59080000D02*
X101500000Y-57000000D01*
X152755600Y-50744400D02*
X146500000Y-57000000D01*
X146500000Y-57000000D02*
X101500000Y-57000000D01*
X152755600Y-45364400D02*
X152755600Y-50744400D01*
D21*
X152755600Y-45364400D02*
X152755600Y-45764400D01*
D20*
X133501076Y-64300000D02*
X137515600Y-68314524D01*
X137515600Y-68314524D02*
X137515600Y-70764400D01*
X120600000Y-64300000D02*
X133501076Y-64300000D01*
X118900000Y-66000000D02*
X120600000Y-64300000D01*
X104500000Y-66000000D02*
X118900000Y-66000000D01*
X137515600Y-70364400D02*
X137515600Y-70764400D01*
D22*
X136552600Y-74447400D02*
X144500000Y-66500000D01*
X120624600Y-74447400D02*
X136552600Y-74447400D01*
X144500000Y-66500000D02*
X183000000Y-66500000D01*
X183000000Y-66500000D02*
X190300000Y-73800000D01*
X190300000Y-73800000D02*
X193500000Y-73800000D01*
X178820000Y-71000000D02*
X142868000Y-71000000D01*
X142868000Y-71000000D02*
X139420600Y-74447400D01*
X184160000Y-76340000D02*
X178820000Y-71000000D01*
X193500000Y-76340000D02*
X184160000Y-76340000D01*
X184880000Y-78880000D02*
X178000000Y-72000000D01*
X193500000Y-78880000D02*
X184880000Y-78880000D01*
X178000000Y-72000000D02*
X160664000Y-72000000D01*
X160664000Y-72000000D02*
X158216600Y-74447400D01*
D23*
X158850000Y-98800000D02*
X158216600Y-93243400D01*
X160500000Y-100450000D02*
X158850000Y-98800000D01*
D22*
X178947400Y-74447400D02*
X185920000Y-81420000D01*
X185920000Y-81420000D02*
X193500000Y-81420000D01*
X177012600Y-74447400D02*
X178947400Y-74447400D01*
M02*
