G04 #@! TF.GenerationSoftware,KiCad,Pcbnew,(2017-12-24 revision 570866557)-makepkg*
G04 #@! TF.CreationDate,2017-12-27T22:40:15-07:00*
G04 #@! TF.ProjectId,KeyGridTest1,4B65794772696454657374312E6B6963,rev?*
G04 #@! TF.SameCoordinates,Original*
G04 #@! TF.FileFunction,Copper,L2,Bot,Signal*
G04 #@! TF.FilePolarity,Positive*
%FSLAX46Y46*%
G04 Gerber Fmt 4.6, Leading zero omitted, Abs format (unit mm)*
G04 Created by KiCad (PCBNEW (2017-12-24 revision 570866557)-makepkg) date 12/27/17 22:40:15*
%MOMM*%
%LPD*%
G01*
G04 APERTURE LIST*
%ADD10O,1.200000X2.000000*%
%ADD11C,2.286000*%
%ADD12R,1.700000X1.700000*%
%ADD13O,1.700000X1.700000*%
%ADD14C,1.998980*%
%ADD15C,2.000000*%
%ADD16C,0.600000*%
%ADD17C,0.254000*%
%ADD18C,0.250000*%
G04 APERTURE END LIST*
D10*
X114655600Y-45364400D03*
X114655600Y-70764400D03*
X117195600Y-45364400D03*
X117195600Y-70764400D03*
X119735600Y-45364400D03*
X119735600Y-70764400D03*
X122275600Y-45364400D03*
X122275600Y-70764400D03*
X124815600Y-45364400D03*
X124815600Y-70764400D03*
X127355600Y-45364400D03*
X127355600Y-70764400D03*
X129895600Y-45364400D03*
X129895600Y-70764400D03*
X132435600Y-45364400D03*
X132435600Y-70764400D03*
X134975600Y-45364400D03*
X134975600Y-70764400D03*
X137515600Y-45364400D03*
X137515600Y-70764400D03*
X140055600Y-45364400D03*
X142595600Y-45364400D03*
X145135600Y-45364400D03*
X147675600Y-45364400D03*
X150215600Y-45364400D03*
X152755600Y-45364400D03*
D11*
X158216600Y-130835400D03*
X151866600Y-133375400D03*
X177012600Y-130835400D03*
X170662600Y-133375400D03*
X120624600Y-130835400D03*
X114274600Y-133375400D03*
X139420600Y-130835400D03*
X133070600Y-133375400D03*
X158216600Y-93243400D03*
X151866600Y-95783400D03*
X158216600Y-112039400D03*
X151866600Y-114579400D03*
X177012600Y-112039400D03*
X170662600Y-114579400D03*
X177012600Y-93243400D03*
X170662600Y-95783400D03*
X139420600Y-112039400D03*
X133070600Y-114579400D03*
X139420600Y-93243400D03*
X133070600Y-95783400D03*
X120624600Y-93243400D03*
X114274600Y-95783400D03*
X120624600Y-112039400D03*
X114274600Y-114579400D03*
X120624600Y-74447400D03*
X114274600Y-76987400D03*
X139420600Y-74447400D03*
X133070600Y-76987400D03*
X158216600Y-74447400D03*
X151866600Y-76987400D03*
X177012600Y-74447400D03*
X170662600Y-76987400D03*
D12*
X104500000Y-66000000D03*
D13*
X101960000Y-66000000D03*
X99420000Y-66000000D03*
D14*
X118500000Y-59500000D03*
D13*
X193500000Y-91580000D03*
X193500000Y-89040000D03*
X193500000Y-86500000D03*
X193500000Y-83960000D03*
X193500000Y-81420000D03*
X193500000Y-78880000D03*
X193500000Y-76340000D03*
D12*
X193500000Y-73800000D03*
D13*
X193500000Y-64540000D03*
D12*
X193500000Y-62000000D03*
D15*
X101500000Y-57000000D03*
X106500000Y-59500000D03*
D16*
X150700000Y-104400000D03*
X139950000Y-104700000D03*
X126550000Y-105550000D03*
X122000000Y-106500000D03*
X105300000Y-104400000D03*
X167950000Y-104400000D03*
X155600000Y-104350000D03*
X109956600Y-124815600D03*
X109956600Y-87147400D03*
X177342800Y-142621000D03*
X165023800Y-141986000D03*
X158318200Y-142621000D03*
X145999200Y-141986000D03*
X139288600Y-142632400D03*
X127304800Y-141986000D03*
X120802400Y-142621000D03*
X108209400Y-141991400D03*
X119481600Y-125272800D03*
X127076200Y-123190000D03*
X138277600Y-125120400D03*
X146100800Y-123190000D03*
X156819600Y-124942600D03*
X164846000Y-123190000D03*
X175869600Y-125095000D03*
X175869600Y-106553000D03*
X175869600Y-87655400D03*
X164642800Y-85598000D03*
X156819600Y-87604600D03*
X146100800Y-85598000D03*
X138277600Y-87833200D03*
X127101600Y-85598000D03*
X119481600Y-87757000D03*
X106730800Y-80060800D03*
X107442000Y-98983800D03*
X108204000Y-117754400D03*
X108940600Y-136499600D03*
X137800000Y-66500000D03*
X132700000Y-66500000D03*
X115011200Y-86258400D03*
X115265200Y-105105200D03*
X110566200Y-90144600D03*
X115011200Y-123875800D03*
X110769400Y-109804200D03*
X114503200Y-142621000D03*
X110667800Y-128651000D03*
X185500000Y-97000000D03*
X160500000Y-100450000D03*
D17*
X106700000Y-62600000D02*
X106730800Y-80060800D01*
X117200000Y-52100000D02*
X106700000Y-62600000D01*
X117195600Y-45364400D02*
X117200000Y-52100000D01*
X117195600Y-45364400D02*
X117195600Y-45764400D01*
X107467400Y-63931800D02*
X107467400Y-85763962D01*
X124815600Y-45364400D02*
X124815600Y-46618400D01*
X124815600Y-46618400D02*
X107502200Y-63931800D01*
X107502200Y-63931800D02*
X107467400Y-63931800D01*
X107442000Y-85789362D02*
X107442000Y-98983800D01*
X107467400Y-85763962D02*
X107442000Y-85789362D01*
X108204000Y-64916000D02*
X108204000Y-117754400D01*
X127355600Y-45364400D02*
X127355600Y-45764400D01*
X127355600Y-45764400D02*
X108204000Y-64916000D01*
X117195600Y-70764400D02*
X117195600Y-72018400D01*
X117195600Y-72018400D02*
X115325400Y-73888600D01*
X115325400Y-73888600D02*
X110109000Y-73888600D01*
X108940600Y-75057000D02*
X108940600Y-136499600D01*
X110109000Y-73888600D02*
X108940600Y-75057000D01*
X132700000Y-66500000D02*
X136500000Y-66500000D01*
X136500000Y-66500000D02*
X137800000Y-66500000D01*
X110566200Y-81813400D02*
X115011200Y-86258400D01*
X110566200Y-75793600D02*
X110566200Y-81813400D01*
X111760000Y-74599800D02*
X110566200Y-75793600D01*
X111861600Y-74599800D02*
X111760000Y-74599800D01*
X117154200Y-74599800D02*
X111861600Y-74599800D01*
X119735600Y-70764400D02*
X119735600Y-72018400D01*
X119735600Y-72018400D02*
X117154200Y-74599800D01*
X119735600Y-70764400D02*
X119735600Y-71164400D01*
X112141000Y-105105200D02*
X115265200Y-105105200D01*
X110566200Y-103530400D02*
X112141000Y-105105200D01*
X110566200Y-90144600D02*
X110566200Y-103530400D01*
X112598200Y-123875800D02*
X115011200Y-123875800D01*
X110769400Y-122047000D02*
X112598200Y-123875800D01*
X110769400Y-109804200D02*
X110769400Y-122047000D01*
X110667800Y-138785600D02*
X114503200Y-142621000D01*
X110667800Y-137947400D02*
X110667800Y-138785600D01*
X110667800Y-128651000D02*
X110667800Y-137947400D01*
X185500000Y-97000000D02*
X185500000Y-68896000D01*
X185500000Y-68896000D02*
X192396000Y-62000000D01*
X192396000Y-62000000D02*
X193500000Y-62000000D01*
D18*
X133400000Y-108850000D02*
X120624600Y-112039400D01*
X125400000Y-93200000D02*
X133400000Y-108850000D01*
X120624600Y-93243400D02*
X125400000Y-93200000D01*
D17*
X122275600Y-70764400D02*
X122275600Y-72796400D01*
X122275600Y-72796400D02*
X120624600Y-74447400D01*
D18*
X120624600Y-112039400D02*
X120624600Y-130835400D01*
X120624600Y-74447400D02*
X120624600Y-93243400D01*
X150200000Y-109400000D02*
X139420600Y-112039400D01*
X146850000Y-93250000D02*
X150200000Y-109400000D01*
X139420600Y-93243400D02*
X146850000Y-93250000D01*
X132435600Y-47091600D02*
X139420600Y-54076600D01*
X139420600Y-54076600D02*
X139420600Y-74447400D01*
X132435600Y-45364400D02*
X132435600Y-47091600D01*
X139420600Y-130835400D02*
X139420600Y-112039400D01*
X139420600Y-74447400D02*
X139420600Y-93243400D01*
X162050000Y-108050000D02*
X160500000Y-100450000D01*
X158216600Y-112039400D02*
X162050000Y-108050000D01*
X134975600Y-45364400D02*
X134975600Y-46614400D01*
X134975600Y-46614400D02*
X147624800Y-59263600D01*
X147624800Y-59263600D02*
X147624800Y-59283600D01*
X147624800Y-59283600D02*
X158242000Y-69900800D01*
X158242000Y-69900800D02*
X158216600Y-69926200D01*
X158216600Y-69926200D02*
X158216600Y-74447400D01*
X158216600Y-74447400D02*
X158216600Y-93243400D01*
X158216600Y-130835400D02*
X158216600Y-112039400D01*
D17*
X177012600Y-112039400D02*
X177012600Y-130835400D01*
X177012600Y-93243400D02*
X177012600Y-112039400D01*
X177012600Y-74447400D02*
X177012600Y-93243400D01*
D18*
X137515600Y-45364400D02*
X137515600Y-45764400D01*
X137515600Y-45764400D02*
X150977600Y-59226400D01*
X150977600Y-59226400D02*
X150977600Y-59232800D01*
X150977600Y-59232800D02*
X166192200Y-74447400D01*
X166192200Y-74447400D02*
X177012600Y-74447400D01*
D17*
G36*
X109924754Y-45083795D02*
X109575998Y-45923692D01*
X109575204Y-46833119D01*
X109922494Y-47673623D01*
X110564995Y-48317246D01*
X111404892Y-48666002D01*
X112314319Y-48666796D01*
X113154823Y-48319506D01*
X113798446Y-47677005D01*
X114122367Y-46896918D01*
X114182986Y-46937423D01*
X114655600Y-47031432D01*
X115128214Y-46937423D01*
X115528877Y-46669709D01*
X115796591Y-46269046D01*
X115890600Y-45796432D01*
X115890600Y-44932368D01*
X115826477Y-44610000D01*
X116024723Y-44610000D01*
X115960600Y-44932368D01*
X115960600Y-45796432D01*
X116054609Y-46269046D01*
X116322323Y-46669709D01*
X116434501Y-46744664D01*
X116437794Y-51784575D01*
X107961523Y-60260847D01*
X108145908Y-59764539D01*
X108121856Y-59114540D01*
X107919387Y-58625736D01*
X107652532Y-58527073D01*
X106679605Y-59500000D01*
X107652532Y-60472927D01*
X107806292Y-60416078D01*
X107416078Y-60806292D01*
X107472927Y-60652532D01*
X106500000Y-59679605D01*
X105527073Y-60652532D01*
X105625736Y-60919387D01*
X106235461Y-61145908D01*
X106885460Y-61121856D01*
X107252580Y-60969790D01*
X106161185Y-62061185D01*
X106160805Y-62061754D01*
X106160235Y-62062136D01*
X106078078Y-62185563D01*
X105996004Y-62308396D01*
X105995871Y-62309067D01*
X105995491Y-62309637D01*
X105966810Y-62455167D01*
X105938001Y-62600000D01*
X105938134Y-62600669D01*
X105938001Y-62601344D01*
X105942044Y-64893086D01*
X105807809Y-64692191D01*
X105597765Y-64551843D01*
X105350000Y-64502560D01*
X103650000Y-64502560D01*
X103402235Y-64551843D01*
X103192191Y-64692191D01*
X103051843Y-64902235D01*
X103039403Y-64964777D01*
X103010054Y-64920853D01*
X102528285Y-64598946D01*
X101960000Y-64485907D01*
X101391715Y-64598946D01*
X100909946Y-64920853D01*
X100690000Y-65250026D01*
X100470054Y-64920853D01*
X99988285Y-64598946D01*
X99420000Y-64485907D01*
X98851715Y-64598946D01*
X98369946Y-64920853D01*
X98048039Y-65402622D01*
X97935000Y-65970907D01*
X97935000Y-66029093D01*
X98048039Y-66597378D01*
X98369946Y-67079147D01*
X98851715Y-67401054D01*
X99420000Y-67514093D01*
X99988285Y-67401054D01*
X100470054Y-67079147D01*
X100690000Y-66749974D01*
X100909946Y-67079147D01*
X101391715Y-67401054D01*
X101960000Y-67514093D01*
X102528285Y-67401054D01*
X103010054Y-67079147D01*
X103039403Y-67035223D01*
X103051843Y-67097765D01*
X103192191Y-67307809D01*
X103402235Y-67448157D01*
X103650000Y-67497440D01*
X105350000Y-67497440D01*
X105597765Y-67448157D01*
X105807809Y-67307809D01*
X105945938Y-67101085D01*
X105967812Y-79501320D01*
X105938608Y-79530473D01*
X105795962Y-79874001D01*
X105795638Y-80245967D01*
X105937683Y-80589743D01*
X106200473Y-80852992D01*
X106544001Y-80995638D01*
X106705400Y-80995779D01*
X106705400Y-85661668D01*
X106680000Y-85789362D01*
X106680000Y-98423334D01*
X106649808Y-98453473D01*
X106507162Y-98797001D01*
X106506838Y-99168967D01*
X106648883Y-99512743D01*
X106911673Y-99775992D01*
X107255201Y-99918638D01*
X107442000Y-99918801D01*
X107442000Y-117193934D01*
X107411808Y-117224073D01*
X107269162Y-117567601D01*
X107268838Y-117939567D01*
X107410883Y-118283343D01*
X107673673Y-118546592D01*
X108017201Y-118689238D01*
X108178600Y-118689379D01*
X108178600Y-135939134D01*
X108148408Y-135969273D01*
X108005762Y-136312801D01*
X108005438Y-136684767D01*
X108147483Y-137028543D01*
X108410273Y-137291792D01*
X108753801Y-137434438D01*
X109125767Y-137434762D01*
X109469543Y-137292717D01*
X109732792Y-137029927D01*
X109875438Y-136686399D01*
X109875762Y-136314433D01*
X109733717Y-135970657D01*
X109702600Y-135939486D01*
X109702600Y-109989367D01*
X109834238Y-109989367D01*
X109976283Y-110333143D01*
X110007400Y-110364314D01*
X110007400Y-122047000D01*
X110065404Y-122338605D01*
X110230585Y-122585815D01*
X112059385Y-124414616D01*
X112207577Y-124513634D01*
X112306595Y-124579796D01*
X112598200Y-124637800D01*
X114450734Y-124637800D01*
X114480873Y-124667992D01*
X114824401Y-124810638D01*
X115196367Y-124810962D01*
X115540143Y-124668917D01*
X115803392Y-124406127D01*
X115946038Y-124062599D01*
X115946362Y-123690633D01*
X115804317Y-123346857D01*
X115541527Y-123083608D01*
X115197999Y-122940962D01*
X114826033Y-122940638D01*
X114482257Y-123082683D01*
X114451086Y-123113800D01*
X112913831Y-123113800D01*
X111531400Y-121731370D01*
X111531400Y-117445028D01*
X111744180Y-117959995D01*
X112161806Y-118378351D01*
X112707739Y-118605042D01*
X113298867Y-118605558D01*
X113845195Y-118379820D01*
X114263551Y-117962194D01*
X114490242Y-117416261D01*
X114490758Y-116825133D01*
X114297503Y-116357421D01*
X114626714Y-116357708D01*
X115280440Y-116087594D01*
X115781036Y-115587871D01*
X116052291Y-114934618D01*
X116052908Y-114227286D01*
X115782794Y-113573560D01*
X115283071Y-113072964D01*
X114629818Y-112801709D01*
X113922486Y-112801092D01*
X113268760Y-113071206D01*
X112768164Y-113570929D01*
X112496909Y-114224182D01*
X112496292Y-114931514D01*
X112766406Y-115585240D01*
X112814415Y-115633333D01*
X112710333Y-115633242D01*
X112164005Y-115858980D01*
X111745649Y-116276606D01*
X111531400Y-116792575D01*
X111531400Y-110364666D01*
X111561592Y-110334527D01*
X111704238Y-109990999D01*
X111704562Y-109619033D01*
X111562517Y-109275257D01*
X111299727Y-109012008D01*
X110956199Y-108869362D01*
X110584233Y-108869038D01*
X110240457Y-109011083D01*
X109977208Y-109273873D01*
X109834562Y-109617401D01*
X109834238Y-109989367D01*
X109702600Y-109989367D01*
X109702600Y-90502961D01*
X109773083Y-90673543D01*
X109804200Y-90704714D01*
X109804200Y-103530400D01*
X109862204Y-103822005D01*
X110027385Y-104069215D01*
X111602185Y-105644016D01*
X111849396Y-105809197D01*
X112141000Y-105867200D01*
X114704734Y-105867200D01*
X114734873Y-105897392D01*
X115078401Y-106040038D01*
X115450367Y-106040362D01*
X115794143Y-105898317D01*
X116057392Y-105635527D01*
X116200038Y-105291999D01*
X116200362Y-104920033D01*
X116058317Y-104576257D01*
X115795527Y-104313008D01*
X115451999Y-104170362D01*
X115080033Y-104170038D01*
X114736257Y-104312083D01*
X114705086Y-104343200D01*
X112456631Y-104343200D01*
X111328200Y-103214770D01*
X111328200Y-98617667D01*
X111518442Y-98617667D01*
X111744180Y-99163995D01*
X112161806Y-99582351D01*
X112707739Y-99809042D01*
X113298867Y-99809558D01*
X113845195Y-99583820D01*
X114263551Y-99166194D01*
X114397326Y-98844026D01*
X115455245Y-98844026D01*
X115854628Y-99810607D01*
X116593504Y-100550773D01*
X117559385Y-100951842D01*
X118605226Y-100952755D01*
X119571807Y-100553372D01*
X120311973Y-99814496D01*
X120713042Y-98848615D01*
X120713243Y-98617667D01*
X121678442Y-98617667D01*
X121904180Y-99163995D01*
X122321806Y-99582351D01*
X122867739Y-99809042D01*
X123458867Y-99809558D01*
X124005195Y-99583820D01*
X124423551Y-99166194D01*
X124650242Y-98620261D01*
X124650758Y-98029133D01*
X124425020Y-97482805D01*
X124007394Y-97064449D01*
X123461461Y-96837758D01*
X122870333Y-96837242D01*
X122324005Y-97062980D01*
X121905649Y-97480606D01*
X121678958Y-98026539D01*
X121678442Y-98617667D01*
X120713243Y-98617667D01*
X120713955Y-97802774D01*
X120314572Y-96836193D01*
X119575696Y-96096027D01*
X118609815Y-95694958D01*
X117563974Y-95694045D01*
X116597393Y-96093428D01*
X115857227Y-96832304D01*
X115456158Y-97798185D01*
X115455245Y-98844026D01*
X114397326Y-98844026D01*
X114490242Y-98620261D01*
X114490758Y-98029133D01*
X114297503Y-97561421D01*
X114626714Y-97561708D01*
X115280440Y-97291594D01*
X115781036Y-96791871D01*
X116052291Y-96138618D01*
X116052908Y-95431286D01*
X115782794Y-94777560D01*
X115283071Y-94276964D01*
X114629818Y-94005709D01*
X113922486Y-94005092D01*
X113268760Y-94275206D01*
X112768164Y-94774929D01*
X112496909Y-95428182D01*
X112496292Y-96135514D01*
X112766406Y-96789240D01*
X112814415Y-96837333D01*
X112710333Y-96837242D01*
X112164005Y-97062980D01*
X111745649Y-97480606D01*
X111518958Y-98026539D01*
X111518442Y-98617667D01*
X111328200Y-98617667D01*
X111328200Y-90705066D01*
X111358392Y-90674927D01*
X111501038Y-90331399D01*
X111501362Y-89959433D01*
X111359317Y-89615657D01*
X111096527Y-89352408D01*
X110752999Y-89209762D01*
X110381033Y-89209438D01*
X110037257Y-89351483D01*
X109774008Y-89614273D01*
X109702600Y-89786242D01*
X109702600Y-75372630D01*
X110424630Y-74650600D01*
X110631570Y-74650600D01*
X110027385Y-75254785D01*
X109862204Y-75501995D01*
X109804200Y-75793600D01*
X109804200Y-81813400D01*
X109862204Y-82105005D01*
X110027385Y-82352215D01*
X114076075Y-86400906D01*
X114076038Y-86443567D01*
X114218083Y-86787343D01*
X114480873Y-87050592D01*
X114824401Y-87193238D01*
X115196367Y-87193562D01*
X115540143Y-87051517D01*
X115803392Y-86788727D01*
X115946038Y-86445199D01*
X115946362Y-86073233D01*
X115804317Y-85729457D01*
X115541527Y-85466208D01*
X115197999Y-85323562D01*
X115153955Y-85323524D01*
X111328200Y-81497770D01*
X111328200Y-76109230D01*
X112075630Y-75361800D01*
X113552904Y-75361800D01*
X113268760Y-75479206D01*
X112768164Y-75978929D01*
X112496909Y-76632182D01*
X112496292Y-77339514D01*
X112766406Y-77993240D01*
X112814415Y-78041333D01*
X112710333Y-78041242D01*
X112164005Y-78266980D01*
X111745649Y-78684606D01*
X111518958Y-79230539D01*
X111518442Y-79821667D01*
X111744180Y-80367995D01*
X112161806Y-80786351D01*
X112707739Y-81013042D01*
X113298867Y-81013558D01*
X113845195Y-80787820D01*
X114263551Y-80370194D01*
X114490242Y-79824261D01*
X114490758Y-79233133D01*
X114297503Y-78765421D01*
X114626714Y-78765708D01*
X115280440Y-78495594D01*
X115781036Y-77995871D01*
X116052291Y-77342618D01*
X116052908Y-76635286D01*
X115782794Y-75981560D01*
X115283071Y-75480964D01*
X114996093Y-75361800D01*
X117154200Y-75361800D01*
X117445805Y-75303796D01*
X117693015Y-75138615D01*
X118923217Y-73908413D01*
X118846909Y-74092182D01*
X118846292Y-74799514D01*
X119116406Y-75453240D01*
X119616129Y-75953836D01*
X119864600Y-76057010D01*
X119864600Y-77589435D01*
X119575696Y-77300027D01*
X118609815Y-76898958D01*
X117563974Y-76898045D01*
X116597393Y-77297428D01*
X115857227Y-78036304D01*
X115456158Y-79002185D01*
X115455245Y-80048026D01*
X115854628Y-81014607D01*
X116593504Y-81754773D01*
X117559385Y-82155842D01*
X118605226Y-82156755D01*
X119571807Y-81757372D01*
X119864600Y-81465089D01*
X119864600Y-91633627D01*
X119618760Y-91735206D01*
X119118164Y-92234929D01*
X118846909Y-92888182D01*
X118846292Y-93595514D01*
X119116406Y-94249240D01*
X119616129Y-94749836D01*
X120269382Y-95021091D01*
X120976714Y-95021708D01*
X121630440Y-94751594D01*
X122131036Y-94251871D01*
X122240295Y-93988748D01*
X124937125Y-93964238D01*
X132287954Y-108344298D01*
X122009724Y-110910275D01*
X121633071Y-110532964D01*
X120979818Y-110261709D01*
X120272486Y-110261092D01*
X119618760Y-110531206D01*
X119118164Y-111030929D01*
X118846909Y-111684182D01*
X118846292Y-112391514D01*
X119116406Y-113045240D01*
X119616129Y-113545836D01*
X119864600Y-113649010D01*
X119864600Y-115181435D01*
X119575696Y-114892027D01*
X118609815Y-114490958D01*
X117563974Y-114490045D01*
X116597393Y-114889428D01*
X115857227Y-115628304D01*
X115456158Y-116594185D01*
X115455245Y-117640026D01*
X115854628Y-118606607D01*
X116593504Y-119346773D01*
X117559385Y-119747842D01*
X118605226Y-119748755D01*
X119571807Y-119349372D01*
X119864600Y-119057089D01*
X119864600Y-129225627D01*
X119618760Y-129327206D01*
X119118164Y-129826929D01*
X118846909Y-130480182D01*
X118846292Y-131187514D01*
X119116406Y-131841240D01*
X119616129Y-132341836D01*
X120269382Y-132613091D01*
X120976714Y-132613708D01*
X121630440Y-132343594D01*
X122131036Y-131843871D01*
X122402291Y-131190618D01*
X122402908Y-130483286D01*
X122132794Y-129829560D01*
X121633071Y-129328964D01*
X121384600Y-129225790D01*
X121384600Y-117413667D01*
X121678442Y-117413667D01*
X121904180Y-117959995D01*
X122321806Y-118378351D01*
X122867739Y-118605042D01*
X123458867Y-118605558D01*
X124005195Y-118379820D01*
X124423551Y-117962194D01*
X124650242Y-117416261D01*
X124650244Y-117413667D01*
X130314442Y-117413667D01*
X130540180Y-117959995D01*
X130957806Y-118378351D01*
X131503739Y-118605042D01*
X132094867Y-118605558D01*
X132641195Y-118379820D01*
X133059551Y-117962194D01*
X133286242Y-117416261D01*
X133286758Y-116825133D01*
X133093503Y-116357421D01*
X133422714Y-116357708D01*
X134076440Y-116087594D01*
X134577036Y-115587871D01*
X134848291Y-114934618D01*
X134848908Y-114227286D01*
X134578794Y-113573560D01*
X134079071Y-113072964D01*
X133425818Y-112801709D01*
X132718486Y-112801092D01*
X132064760Y-113071206D01*
X131564164Y-113570929D01*
X131292909Y-114224182D01*
X131292292Y-114931514D01*
X131562406Y-115585240D01*
X131610415Y-115633333D01*
X131506333Y-115633242D01*
X130960005Y-115858980D01*
X130541649Y-116276606D01*
X130314958Y-116822539D01*
X130314442Y-117413667D01*
X124650244Y-117413667D01*
X124650758Y-116825133D01*
X124425020Y-116278805D01*
X124007394Y-115860449D01*
X123461461Y-115633758D01*
X122870333Y-115633242D01*
X122324005Y-115858980D01*
X121905649Y-116276606D01*
X121678958Y-116822539D01*
X121678442Y-117413667D01*
X121384600Y-117413667D01*
X121384600Y-113649173D01*
X121630440Y-113547594D01*
X122131036Y-113047871D01*
X122402291Y-112394618D01*
X122402305Y-112378919D01*
X133584085Y-109587369D01*
X133662500Y-109550356D01*
X133745922Y-109526711D01*
X133795315Y-109487667D01*
X133852251Y-109460793D01*
X133910533Y-109396591D01*
X133978556Y-109342820D01*
X134009247Y-109287848D01*
X134051566Y-109241230D01*
X134080841Y-109159613D01*
X134123111Y-109083902D01*
X134130429Y-109021366D01*
X134151685Y-108962106D01*
X134147499Y-108875499D01*
X134157577Y-108789375D01*
X134140408Y-108728801D01*
X134137368Y-108665915D01*
X134100358Y-108587504D01*
X134076711Y-108504077D01*
X129022955Y-98617667D01*
X130314442Y-98617667D01*
X130540180Y-99163995D01*
X130957806Y-99582351D01*
X131503739Y-99809042D01*
X132094867Y-99809558D01*
X132641195Y-99583820D01*
X133059551Y-99166194D01*
X133193326Y-98844026D01*
X134251245Y-98844026D01*
X134650628Y-99810607D01*
X135389504Y-100550773D01*
X136355385Y-100951842D01*
X137401226Y-100952755D01*
X138367807Y-100553372D01*
X139107973Y-99814496D01*
X139509042Y-98848615D01*
X139509243Y-98617667D01*
X140474442Y-98617667D01*
X140700180Y-99163995D01*
X141117806Y-99582351D01*
X141663739Y-99809042D01*
X142254867Y-99809558D01*
X142801195Y-99583820D01*
X143219551Y-99166194D01*
X143446242Y-98620261D01*
X143446758Y-98029133D01*
X143221020Y-97482805D01*
X142803394Y-97064449D01*
X142257461Y-96837758D01*
X141666333Y-96837242D01*
X141120005Y-97062980D01*
X140701649Y-97480606D01*
X140474958Y-98026539D01*
X140474442Y-98617667D01*
X139509243Y-98617667D01*
X139509955Y-97802774D01*
X139110572Y-96836193D01*
X138371696Y-96096027D01*
X137405815Y-95694958D01*
X136359974Y-95694045D01*
X135393393Y-96093428D01*
X134653227Y-96832304D01*
X134252158Y-97798185D01*
X134251245Y-98844026D01*
X133193326Y-98844026D01*
X133286242Y-98620261D01*
X133286758Y-98029133D01*
X133093503Y-97561421D01*
X133422714Y-97561708D01*
X134076440Y-97291594D01*
X134577036Y-96791871D01*
X134848291Y-96138618D01*
X134848908Y-95431286D01*
X134578794Y-94777560D01*
X134079071Y-94276964D01*
X133425818Y-94005709D01*
X132718486Y-94005092D01*
X132064760Y-94275206D01*
X131564164Y-94774929D01*
X131292909Y-95428182D01*
X131292292Y-96135514D01*
X131562406Y-96789240D01*
X131610415Y-96837333D01*
X131506333Y-96837242D01*
X130960005Y-97062980D01*
X130541649Y-97480606D01*
X130314958Y-98026539D01*
X130314442Y-98617667D01*
X129022955Y-98617667D01*
X126076711Y-92854078D01*
X126001130Y-92758463D01*
X125932495Y-92657737D01*
X125909709Y-92642810D01*
X125892820Y-92621444D01*
X125786401Y-92562030D01*
X125684446Y-92495238D01*
X125657686Y-92490167D01*
X125633903Y-92476889D01*
X125512846Y-92462722D01*
X125393093Y-92440031D01*
X122228338Y-92468793D01*
X122132794Y-92237560D01*
X121633071Y-91736964D01*
X121384600Y-91633790D01*
X121384600Y-79821667D01*
X121678442Y-79821667D01*
X121904180Y-80367995D01*
X122321806Y-80786351D01*
X122867739Y-81013042D01*
X123458867Y-81013558D01*
X124005195Y-80787820D01*
X124423551Y-80370194D01*
X124650242Y-79824261D01*
X124650244Y-79821667D01*
X130314442Y-79821667D01*
X130540180Y-80367995D01*
X130957806Y-80786351D01*
X131503739Y-81013042D01*
X132094867Y-81013558D01*
X132641195Y-80787820D01*
X133059551Y-80370194D01*
X133286242Y-79824261D01*
X133286758Y-79233133D01*
X133093503Y-78765421D01*
X133422714Y-78765708D01*
X134076440Y-78495594D01*
X134577036Y-77995871D01*
X134848291Y-77342618D01*
X134848908Y-76635286D01*
X134578794Y-75981560D01*
X134079071Y-75480964D01*
X133425818Y-75209709D01*
X132718486Y-75209092D01*
X132064760Y-75479206D01*
X131564164Y-75978929D01*
X131292909Y-76632182D01*
X131292292Y-77339514D01*
X131562406Y-77993240D01*
X131610415Y-78041333D01*
X131506333Y-78041242D01*
X130960005Y-78266980D01*
X130541649Y-78684606D01*
X130314958Y-79230539D01*
X130314442Y-79821667D01*
X124650244Y-79821667D01*
X124650758Y-79233133D01*
X124425020Y-78686805D01*
X124007394Y-78268449D01*
X123461461Y-78041758D01*
X122870333Y-78041242D01*
X122324005Y-78266980D01*
X121905649Y-78684606D01*
X121678958Y-79230539D01*
X121678442Y-79821667D01*
X121384600Y-79821667D01*
X121384600Y-76057173D01*
X121630440Y-75955594D01*
X122131036Y-75455871D01*
X122402291Y-74802618D01*
X122402908Y-74095286D01*
X122300994Y-73848636D01*
X122814416Y-73335215D01*
X122979597Y-73088004D01*
X123037600Y-72796400D01*
X123037600Y-72144062D01*
X123148877Y-72069709D01*
X123416591Y-71669046D01*
X123510600Y-71196432D01*
X123510600Y-70332368D01*
X123580600Y-70332368D01*
X123580600Y-71196432D01*
X123674609Y-71669046D01*
X123942323Y-72069709D01*
X124342986Y-72337423D01*
X124815600Y-72431432D01*
X125288214Y-72337423D01*
X125688877Y-72069709D01*
X125956591Y-71669046D01*
X126050600Y-71196432D01*
X126050600Y-70332368D01*
X126120600Y-70332368D01*
X126120600Y-71196432D01*
X126214609Y-71669046D01*
X126482323Y-72069709D01*
X126882986Y-72337423D01*
X127355600Y-72431432D01*
X127828214Y-72337423D01*
X128228877Y-72069709D01*
X128496591Y-71669046D01*
X128590600Y-71196432D01*
X128590600Y-70332368D01*
X128660600Y-70332368D01*
X128660600Y-71196432D01*
X128754609Y-71669046D01*
X129022323Y-72069709D01*
X129422986Y-72337423D01*
X129895600Y-72431432D01*
X130368214Y-72337423D01*
X130768877Y-72069709D01*
X131036591Y-71669046D01*
X131130600Y-71196432D01*
X131130600Y-70332368D01*
X131200600Y-70332368D01*
X131200600Y-71196432D01*
X131294609Y-71669046D01*
X131562323Y-72069709D01*
X131962986Y-72337423D01*
X132435600Y-72431432D01*
X132908214Y-72337423D01*
X133308877Y-72069709D01*
X133576591Y-71669046D01*
X133670600Y-71196432D01*
X133670600Y-70891400D01*
X133740600Y-70891400D01*
X133740600Y-71291400D01*
X133883210Y-71754347D01*
X134192126Y-72127480D01*
X134620319Y-72353992D01*
X134657991Y-72357862D01*
X134848600Y-72233131D01*
X134848600Y-70891400D01*
X135102600Y-70891400D01*
X135102600Y-72233131D01*
X135293209Y-72357862D01*
X135330881Y-72353992D01*
X135759074Y-72127480D01*
X136067990Y-71754347D01*
X136210600Y-71291400D01*
X136210600Y-70891400D01*
X135102600Y-70891400D01*
X134848600Y-70891400D01*
X133740600Y-70891400D01*
X133670600Y-70891400D01*
X133670600Y-70332368D01*
X133651710Y-70237400D01*
X133740600Y-70237400D01*
X133740600Y-70637400D01*
X134848600Y-70637400D01*
X134848600Y-69295669D01*
X135102600Y-69295669D01*
X135102600Y-70637400D01*
X136210600Y-70637400D01*
X136210600Y-70237400D01*
X136067990Y-69774453D01*
X135759074Y-69401320D01*
X135330881Y-69174808D01*
X135293209Y-69170938D01*
X135102600Y-69295669D01*
X134848600Y-69295669D01*
X134657991Y-69170938D01*
X134620319Y-69174808D01*
X134192126Y-69401320D01*
X133883210Y-69774453D01*
X133740600Y-70237400D01*
X133651710Y-70237400D01*
X133576591Y-69859754D01*
X133308877Y-69459091D01*
X132908214Y-69191377D01*
X132435600Y-69097368D01*
X131962986Y-69191377D01*
X131562323Y-69459091D01*
X131294609Y-69859754D01*
X131200600Y-70332368D01*
X131130600Y-70332368D01*
X131036591Y-69859754D01*
X130768877Y-69459091D01*
X130368214Y-69191377D01*
X129895600Y-69097368D01*
X129422986Y-69191377D01*
X129022323Y-69459091D01*
X128754609Y-69859754D01*
X128660600Y-70332368D01*
X128590600Y-70332368D01*
X128496591Y-69859754D01*
X128228877Y-69459091D01*
X127828214Y-69191377D01*
X127355600Y-69097368D01*
X126882986Y-69191377D01*
X126482323Y-69459091D01*
X126214609Y-69859754D01*
X126120600Y-70332368D01*
X126050600Y-70332368D01*
X125956591Y-69859754D01*
X125688877Y-69459091D01*
X125288214Y-69191377D01*
X124815600Y-69097368D01*
X124342986Y-69191377D01*
X123942323Y-69459091D01*
X123674609Y-69859754D01*
X123580600Y-70332368D01*
X123510600Y-70332368D01*
X123416591Y-69859754D01*
X123148877Y-69459091D01*
X122748214Y-69191377D01*
X122275600Y-69097368D01*
X121802986Y-69191377D01*
X121402323Y-69459091D01*
X121134609Y-69859754D01*
X121040600Y-70332368D01*
X121040600Y-71196432D01*
X121134609Y-71669046D01*
X121402323Y-72069709D01*
X121513600Y-72144062D01*
X121513600Y-72480769D01*
X121223482Y-72770887D01*
X120979818Y-72669709D01*
X120272486Y-72669092D01*
X120085120Y-72746510D01*
X120274415Y-72557215D01*
X120317863Y-72492191D01*
X120439596Y-72310005D01*
X120468773Y-72163323D01*
X120608877Y-72069709D01*
X120876591Y-71669046D01*
X120970600Y-71196432D01*
X120970600Y-70332368D01*
X120876591Y-69859754D01*
X120608877Y-69459091D01*
X120208214Y-69191377D01*
X119735600Y-69097368D01*
X119262986Y-69191377D01*
X118862323Y-69459091D01*
X118594609Y-69859754D01*
X118500600Y-70332368D01*
X118500600Y-71196432D01*
X118594609Y-71669046D01*
X118759919Y-71916451D01*
X116838570Y-73837800D01*
X116453830Y-73837800D01*
X117734415Y-72557216D01*
X117899596Y-72310005D01*
X117914887Y-72233131D01*
X117928773Y-72163323D01*
X118068877Y-72069709D01*
X118336591Y-71669046D01*
X118430600Y-71196432D01*
X118430600Y-70332368D01*
X118336591Y-69859754D01*
X118068877Y-69459091D01*
X117668214Y-69191377D01*
X117195600Y-69097368D01*
X116722986Y-69191377D01*
X116322323Y-69459091D01*
X116054609Y-69859754D01*
X115960600Y-70332368D01*
X115960600Y-71196432D01*
X116054609Y-71669046D01*
X116219919Y-71916450D01*
X115009770Y-73126600D01*
X110109000Y-73126600D01*
X109817395Y-73184604D01*
X109570185Y-73349785D01*
X108966000Y-73953970D01*
X108966000Y-70201119D01*
X109575204Y-70201119D01*
X109922494Y-71041623D01*
X110564995Y-71685246D01*
X111404892Y-72034002D01*
X112314319Y-72034796D01*
X113154823Y-71687506D01*
X113458067Y-71384791D01*
X113514609Y-71669046D01*
X113782323Y-72069709D01*
X114182986Y-72337423D01*
X114655600Y-72431432D01*
X115128214Y-72337423D01*
X115528877Y-72069709D01*
X115796591Y-71669046D01*
X115890600Y-71196432D01*
X115890600Y-70332368D01*
X115796591Y-69859754D01*
X115528877Y-69459091D01*
X115128214Y-69191377D01*
X114655600Y-69097368D01*
X114182986Y-69191377D01*
X114121793Y-69232265D01*
X113800706Y-68455177D01*
X113158205Y-67811554D01*
X112318308Y-67462798D01*
X111408881Y-67462004D01*
X110568377Y-67809294D01*
X109924754Y-68451795D01*
X109575998Y-69291692D01*
X109575204Y-70201119D01*
X108966000Y-70201119D01*
X108966000Y-65231630D01*
X113545467Y-60652163D01*
X117527443Y-60652163D01*
X117626042Y-60918965D01*
X118235582Y-61145401D01*
X118885377Y-61121341D01*
X119373958Y-60918965D01*
X119472557Y-60652163D01*
X118500000Y-59679605D01*
X117527443Y-60652163D01*
X113545467Y-60652163D01*
X114962048Y-59235582D01*
X116854599Y-59235582D01*
X116878659Y-59885377D01*
X117081035Y-60373958D01*
X117347837Y-60472557D01*
X118320395Y-59500000D01*
X118679605Y-59500000D01*
X119652163Y-60472557D01*
X119918965Y-60373958D01*
X120145401Y-59764418D01*
X120121341Y-59114623D01*
X119918965Y-58626042D01*
X119652163Y-58527443D01*
X118679605Y-59500000D01*
X118320395Y-59500000D01*
X117347837Y-58527443D01*
X117081035Y-58626042D01*
X116854599Y-59235582D01*
X114962048Y-59235582D01*
X115849793Y-58347837D01*
X117527443Y-58347837D01*
X118500000Y-59320395D01*
X119472557Y-58347837D01*
X119373958Y-58081035D01*
X118764418Y-57854599D01*
X118114623Y-57878659D01*
X117626042Y-58081035D01*
X117527443Y-58347837D01*
X115849793Y-58347837D01*
X127197623Y-47000008D01*
X127355600Y-47031432D01*
X127828214Y-46937423D01*
X128228877Y-46669709D01*
X128496591Y-46269046D01*
X128590600Y-45796432D01*
X128590600Y-44932368D01*
X128526477Y-44610000D01*
X128724723Y-44610000D01*
X128660600Y-44932368D01*
X128660600Y-45796432D01*
X128754609Y-46269046D01*
X129022323Y-46669709D01*
X129422986Y-46937423D01*
X129895600Y-47031432D01*
X130368214Y-46937423D01*
X130768877Y-46669709D01*
X131036591Y-46269046D01*
X131130600Y-45796432D01*
X131130600Y-44932368D01*
X131066477Y-44610000D01*
X131264723Y-44610000D01*
X131200600Y-44932368D01*
X131200600Y-45796432D01*
X131294609Y-46269046D01*
X131562323Y-46669709D01*
X131675600Y-46745398D01*
X131675600Y-47091600D01*
X131733452Y-47382439D01*
X131898199Y-47629001D01*
X138660600Y-54391402D01*
X138660600Y-66134379D01*
X138593117Y-65971057D01*
X138330327Y-65707808D01*
X137986799Y-65565162D01*
X137614833Y-65564838D01*
X137271057Y-65706883D01*
X137239886Y-65738000D01*
X133260466Y-65738000D01*
X133230327Y-65707808D01*
X132886799Y-65565162D01*
X132514833Y-65564838D01*
X132171057Y-65706883D01*
X131907808Y-65969673D01*
X131765162Y-66313201D01*
X131764838Y-66685167D01*
X131906883Y-67028943D01*
X132169673Y-67292192D01*
X132513201Y-67434838D01*
X132885167Y-67435162D01*
X133228943Y-67293117D01*
X133260114Y-67262000D01*
X137239534Y-67262000D01*
X137269673Y-67292192D01*
X137613201Y-67434838D01*
X137985167Y-67435162D01*
X138328943Y-67293117D01*
X138592192Y-67030327D01*
X138660600Y-66865583D01*
X138660600Y-69879909D01*
X138656591Y-69859754D01*
X138388877Y-69459091D01*
X137988214Y-69191377D01*
X137515600Y-69097368D01*
X137042986Y-69191377D01*
X136642323Y-69459091D01*
X136374609Y-69859754D01*
X136280600Y-70332368D01*
X136280600Y-71196432D01*
X136374609Y-71669046D01*
X136642323Y-72069709D01*
X137042986Y-72337423D01*
X137515600Y-72431432D01*
X137988214Y-72337423D01*
X138388877Y-72069709D01*
X138656591Y-71669046D01*
X138660600Y-71648891D01*
X138660600Y-72837627D01*
X138414760Y-72939206D01*
X137914164Y-73438929D01*
X137642909Y-74092182D01*
X137642292Y-74799514D01*
X137912406Y-75453240D01*
X138412129Y-75953836D01*
X138660600Y-76057010D01*
X138660600Y-77589435D01*
X138371696Y-77300027D01*
X137405815Y-76898958D01*
X136359974Y-76898045D01*
X135393393Y-77297428D01*
X134653227Y-78036304D01*
X134252158Y-79002185D01*
X134251245Y-80048026D01*
X134650628Y-81014607D01*
X135389504Y-81754773D01*
X136355385Y-82155842D01*
X137401226Y-82156755D01*
X138367807Y-81757372D01*
X138660600Y-81465089D01*
X138660600Y-91633627D01*
X138414760Y-91735206D01*
X137914164Y-92234929D01*
X137642909Y-92888182D01*
X137642292Y-93595514D01*
X137912406Y-94249240D01*
X138412129Y-94749836D01*
X139065382Y-95021091D01*
X139772714Y-95021708D01*
X140426440Y-94751594D01*
X140927036Y-94251871D01*
X141029617Y-94004830D01*
X146231355Y-94009451D01*
X149306880Y-108836235D01*
X140811755Y-110916317D01*
X140429071Y-110532964D01*
X139775818Y-110261709D01*
X139068486Y-110261092D01*
X138414760Y-110531206D01*
X137914164Y-111030929D01*
X137642909Y-111684182D01*
X137642292Y-112391514D01*
X137912406Y-113045240D01*
X138412129Y-113545836D01*
X138660600Y-113649010D01*
X138660600Y-115181435D01*
X138371696Y-114892027D01*
X137405815Y-114490958D01*
X136359974Y-114490045D01*
X135393393Y-114889428D01*
X134653227Y-115628304D01*
X134252158Y-116594185D01*
X134251245Y-117640026D01*
X134650628Y-118606607D01*
X135389504Y-119346773D01*
X136355385Y-119747842D01*
X137401226Y-119748755D01*
X138367807Y-119349372D01*
X138660600Y-119057089D01*
X138660600Y-129225627D01*
X138414760Y-129327206D01*
X137914164Y-129826929D01*
X137642909Y-130480182D01*
X137642292Y-131187514D01*
X137912406Y-131841240D01*
X138412129Y-132341836D01*
X139065382Y-132613091D01*
X139772714Y-132613708D01*
X140426440Y-132343594D01*
X140927036Y-131843871D01*
X141198291Y-131190618D01*
X141198908Y-130483286D01*
X140928794Y-129829560D01*
X140429071Y-129328964D01*
X140180600Y-129225790D01*
X140180600Y-117413667D01*
X140474442Y-117413667D01*
X140700180Y-117959995D01*
X141117806Y-118378351D01*
X141663739Y-118605042D01*
X142254867Y-118605558D01*
X142801195Y-118379820D01*
X143219551Y-117962194D01*
X143446242Y-117416261D01*
X143446244Y-117413667D01*
X149110442Y-117413667D01*
X149336180Y-117959995D01*
X149753806Y-118378351D01*
X150299739Y-118605042D01*
X150890867Y-118605558D01*
X151437195Y-118379820D01*
X151855551Y-117962194D01*
X151989326Y-117640026D01*
X153047245Y-117640026D01*
X153446628Y-118606607D01*
X154185504Y-119346773D01*
X155151385Y-119747842D01*
X156197226Y-119748755D01*
X157163807Y-119349372D01*
X157456600Y-119057089D01*
X157456600Y-129225627D01*
X157210760Y-129327206D01*
X156710164Y-129826929D01*
X156438909Y-130480182D01*
X156438292Y-131187514D01*
X156708406Y-131841240D01*
X157208129Y-132341836D01*
X157861382Y-132613091D01*
X158568714Y-132613708D01*
X159222440Y-132343594D01*
X159723036Y-131843871D01*
X159994291Y-131190618D01*
X159994908Y-130483286D01*
X159724794Y-129829560D01*
X159225071Y-129328964D01*
X158976600Y-129225790D01*
X158976600Y-117413667D01*
X159270442Y-117413667D01*
X159496180Y-117959995D01*
X159913806Y-118378351D01*
X160459739Y-118605042D01*
X161050867Y-118605558D01*
X161597195Y-118379820D01*
X162015551Y-117962194D01*
X162242242Y-117416261D01*
X162242244Y-117413667D01*
X167906442Y-117413667D01*
X168132180Y-117959995D01*
X168549806Y-118378351D01*
X169095739Y-118605042D01*
X169686867Y-118605558D01*
X170233195Y-118379820D01*
X170651551Y-117962194D01*
X170878242Y-117416261D01*
X170878758Y-116825133D01*
X170685503Y-116357421D01*
X171014714Y-116357708D01*
X171668440Y-116087594D01*
X172169036Y-115587871D01*
X172440291Y-114934618D01*
X172440908Y-114227286D01*
X172170794Y-113573560D01*
X171671071Y-113072964D01*
X171017818Y-112801709D01*
X170310486Y-112801092D01*
X169656760Y-113071206D01*
X169156164Y-113570929D01*
X168884909Y-114224182D01*
X168884292Y-114931514D01*
X169154406Y-115585240D01*
X169202415Y-115633333D01*
X169098333Y-115633242D01*
X168552005Y-115858980D01*
X168133649Y-116276606D01*
X167906958Y-116822539D01*
X167906442Y-117413667D01*
X162242244Y-117413667D01*
X162242758Y-116825133D01*
X162017020Y-116278805D01*
X161599394Y-115860449D01*
X161053461Y-115633758D01*
X160462333Y-115633242D01*
X159916005Y-115858980D01*
X159497649Y-116276606D01*
X159270958Y-116822539D01*
X159270442Y-117413667D01*
X158976600Y-117413667D01*
X158976600Y-113649173D01*
X159222440Y-113547594D01*
X159723036Y-113047871D01*
X159994291Y-112394618D01*
X159994908Y-111687286D01*
X159878847Y-111406398D01*
X162598009Y-108576580D01*
X162635282Y-108518314D01*
X162683952Y-108469171D01*
X162714410Y-108394621D01*
X162757807Y-108326782D01*
X162769946Y-108258689D01*
X162796105Y-108194660D01*
X162795716Y-108114130D01*
X162809849Y-108034847D01*
X162795005Y-107967293D01*
X162794671Y-107898126D01*
X161353629Y-100832371D01*
X161434838Y-100636799D01*
X161435162Y-100264833D01*
X161293117Y-99921057D01*
X161143574Y-99771252D01*
X161597195Y-99583820D01*
X162015551Y-99166194D01*
X162242242Y-98620261D01*
X162242244Y-98617667D01*
X167906442Y-98617667D01*
X168132180Y-99163995D01*
X168549806Y-99582351D01*
X169095739Y-99809042D01*
X169686867Y-99809558D01*
X170233195Y-99583820D01*
X170651551Y-99166194D01*
X170878242Y-98620261D01*
X170878758Y-98029133D01*
X170685503Y-97561421D01*
X171014714Y-97561708D01*
X171668440Y-97291594D01*
X172169036Y-96791871D01*
X172440291Y-96138618D01*
X172440908Y-95431286D01*
X172170794Y-94777560D01*
X171671071Y-94276964D01*
X171017818Y-94005709D01*
X170310486Y-94005092D01*
X169656760Y-94275206D01*
X169156164Y-94774929D01*
X168884909Y-95428182D01*
X168884292Y-96135514D01*
X169154406Y-96789240D01*
X169202415Y-96837333D01*
X169098333Y-96837242D01*
X168552005Y-97062980D01*
X168133649Y-97480606D01*
X167906958Y-98026539D01*
X167906442Y-98617667D01*
X162242244Y-98617667D01*
X162242758Y-98029133D01*
X162017020Y-97482805D01*
X161599394Y-97064449D01*
X161053461Y-96837758D01*
X160462333Y-96837242D01*
X159916005Y-97062980D01*
X159497649Y-97480606D01*
X159270958Y-98026539D01*
X159270442Y-98617667D01*
X159496180Y-99163995D01*
X159913806Y-99582351D01*
X160032329Y-99631566D01*
X159971057Y-99656883D01*
X159707808Y-99919673D01*
X159565162Y-100263201D01*
X159564838Y-100635167D01*
X159706883Y-100978943D01*
X159864416Y-101136751D01*
X161225619Y-107811039D01*
X158785514Y-110350444D01*
X158571818Y-110261709D01*
X157864486Y-110261092D01*
X157210760Y-110531206D01*
X156710164Y-111030929D01*
X156438909Y-111684182D01*
X156438292Y-112391514D01*
X156708406Y-113045240D01*
X157208129Y-113545836D01*
X157456600Y-113649010D01*
X157456600Y-115181435D01*
X157167696Y-114892027D01*
X156201815Y-114490958D01*
X155155974Y-114490045D01*
X154189393Y-114889428D01*
X153449227Y-115628304D01*
X153048158Y-116594185D01*
X153047245Y-117640026D01*
X151989326Y-117640026D01*
X152082242Y-117416261D01*
X152082758Y-116825133D01*
X151889503Y-116357421D01*
X152218714Y-116357708D01*
X152872440Y-116087594D01*
X153373036Y-115587871D01*
X153644291Y-114934618D01*
X153644908Y-114227286D01*
X153374794Y-113573560D01*
X152875071Y-113072964D01*
X152221818Y-112801709D01*
X151514486Y-112801092D01*
X150860760Y-113071206D01*
X150360164Y-113570929D01*
X150088909Y-114224182D01*
X150088292Y-114931514D01*
X150358406Y-115585240D01*
X150406415Y-115633333D01*
X150302333Y-115633242D01*
X149756005Y-115858980D01*
X149337649Y-116276606D01*
X149110958Y-116822539D01*
X149110442Y-117413667D01*
X143446244Y-117413667D01*
X143446758Y-116825133D01*
X143221020Y-116278805D01*
X142803394Y-115860449D01*
X142257461Y-115633758D01*
X141666333Y-115633242D01*
X141120005Y-115858980D01*
X140701649Y-116276606D01*
X140474958Y-116822539D01*
X140474442Y-117413667D01*
X140180600Y-117413667D01*
X140180600Y-113649173D01*
X140426440Y-113547594D01*
X140927036Y-113047871D01*
X141198291Y-112394618D01*
X141198298Y-112386571D01*
X150380751Y-110138193D01*
X150503089Y-110081124D01*
X150627388Y-110028442D01*
X150637029Y-110018642D01*
X150649486Y-110012831D01*
X150740666Y-109913295D01*
X150835350Y-109817050D01*
X150840507Y-109804306D01*
X150849791Y-109794171D01*
X150895940Y-109667319D01*
X150946584Y-109542166D01*
X150946472Y-109528420D01*
X150951171Y-109515502D01*
X150945263Y-109380639D01*
X150944159Y-109245639D01*
X148739596Y-98617667D01*
X149110442Y-98617667D01*
X149336180Y-99163995D01*
X149753806Y-99582351D01*
X150299739Y-99809042D01*
X150890867Y-99809558D01*
X151437195Y-99583820D01*
X151855551Y-99166194D01*
X151989326Y-98844026D01*
X153047245Y-98844026D01*
X153446628Y-99810607D01*
X154185504Y-100550773D01*
X155151385Y-100951842D01*
X156197226Y-100952755D01*
X157163807Y-100553372D01*
X157903973Y-99814496D01*
X158305042Y-98848615D01*
X158305955Y-97802774D01*
X157906572Y-96836193D01*
X157167696Y-96096027D01*
X156201815Y-95694958D01*
X155155974Y-95694045D01*
X154189393Y-96093428D01*
X153449227Y-96832304D01*
X153048158Y-97798185D01*
X153047245Y-98844026D01*
X151989326Y-98844026D01*
X152082242Y-98620261D01*
X152082758Y-98029133D01*
X151889503Y-97561421D01*
X152218714Y-97561708D01*
X152872440Y-97291594D01*
X153373036Y-96791871D01*
X153644291Y-96138618D01*
X153644908Y-95431286D01*
X153374794Y-94777560D01*
X152875071Y-94276964D01*
X152221818Y-94005709D01*
X151514486Y-94005092D01*
X150860760Y-94275206D01*
X150360164Y-94774929D01*
X150088909Y-95428182D01*
X150088292Y-96135514D01*
X150358406Y-96789240D01*
X150406415Y-96837333D01*
X150302333Y-96837242D01*
X149756005Y-97062980D01*
X149337649Y-97480606D01*
X149110958Y-98026539D01*
X149110442Y-98617667D01*
X148739596Y-98617667D01*
X147594159Y-93095639D01*
X147566281Y-93029863D01*
X147552406Y-92959785D01*
X147508982Y-92894672D01*
X147478441Y-92822612D01*
X147427515Y-92772512D01*
X147387878Y-92713077D01*
X147322844Y-92669539D01*
X147267050Y-92614650D01*
X147200824Y-92587851D01*
X147141463Y-92548111D01*
X147064716Y-92532774D01*
X146992166Y-92503416D01*
X146920732Y-92504000D01*
X146850675Y-92490000D01*
X141030964Y-92484830D01*
X140928794Y-92237560D01*
X140429071Y-91736964D01*
X140180600Y-91633790D01*
X140180600Y-79821667D01*
X140474442Y-79821667D01*
X140700180Y-80367995D01*
X141117806Y-80786351D01*
X141663739Y-81013042D01*
X142254867Y-81013558D01*
X142801195Y-80787820D01*
X143219551Y-80370194D01*
X143446242Y-79824261D01*
X143446244Y-79821667D01*
X149110442Y-79821667D01*
X149336180Y-80367995D01*
X149753806Y-80786351D01*
X150299739Y-81013042D01*
X150890867Y-81013558D01*
X151437195Y-80787820D01*
X151855551Y-80370194D01*
X152082242Y-79824261D01*
X152082758Y-79233133D01*
X151889503Y-78765421D01*
X152218714Y-78765708D01*
X152872440Y-78495594D01*
X153373036Y-77995871D01*
X153644291Y-77342618D01*
X153644908Y-76635286D01*
X153374794Y-75981560D01*
X152875071Y-75480964D01*
X152221818Y-75209709D01*
X151514486Y-75209092D01*
X150860760Y-75479206D01*
X150360164Y-75978929D01*
X150088909Y-76632182D01*
X150088292Y-77339514D01*
X150358406Y-77993240D01*
X150406415Y-78041333D01*
X150302333Y-78041242D01*
X149756005Y-78266980D01*
X149337649Y-78684606D01*
X149110958Y-79230539D01*
X149110442Y-79821667D01*
X143446244Y-79821667D01*
X143446758Y-79233133D01*
X143221020Y-78686805D01*
X142803394Y-78268449D01*
X142257461Y-78041758D01*
X141666333Y-78041242D01*
X141120005Y-78266980D01*
X140701649Y-78684606D01*
X140474958Y-79230539D01*
X140474442Y-79821667D01*
X140180600Y-79821667D01*
X140180600Y-76057173D01*
X140426440Y-75955594D01*
X140927036Y-75455871D01*
X141198291Y-74802618D01*
X141198908Y-74095286D01*
X140928794Y-73441560D01*
X140429071Y-72940964D01*
X140180600Y-72837790D01*
X140180600Y-54076600D01*
X140122748Y-53785761D01*
X139958001Y-53539199D01*
X133195600Y-46776798D01*
X133195600Y-46745398D01*
X133308877Y-46669709D01*
X133576591Y-46269046D01*
X133670600Y-45796432D01*
X133670600Y-44932368D01*
X133606477Y-44610000D01*
X133804723Y-44610000D01*
X133740600Y-44932368D01*
X133740600Y-45796432D01*
X133834609Y-46269046D01*
X134102323Y-46669709D01*
X134245652Y-46765478D01*
X134273452Y-46905239D01*
X134438199Y-47151801D01*
X147047126Y-59760728D01*
X147087399Y-59821001D01*
X157456600Y-70190202D01*
X157456600Y-72837627D01*
X157210760Y-72939206D01*
X156710164Y-73438929D01*
X156438909Y-74092182D01*
X156438292Y-74799514D01*
X156708406Y-75453240D01*
X157208129Y-75953836D01*
X157456600Y-76057010D01*
X157456600Y-77589435D01*
X157167696Y-77300027D01*
X156201815Y-76898958D01*
X155155974Y-76898045D01*
X154189393Y-77297428D01*
X153449227Y-78036304D01*
X153048158Y-79002185D01*
X153047245Y-80048026D01*
X153446628Y-81014607D01*
X154185504Y-81754773D01*
X155151385Y-82155842D01*
X156197226Y-82156755D01*
X157163807Y-81757372D01*
X157456600Y-81465089D01*
X157456600Y-91633627D01*
X157210760Y-91735206D01*
X156710164Y-92234929D01*
X156438909Y-92888182D01*
X156438292Y-93595514D01*
X156708406Y-94249240D01*
X157208129Y-94749836D01*
X157861382Y-95021091D01*
X158568714Y-95021708D01*
X159222440Y-94751594D01*
X159723036Y-94251871D01*
X159994291Y-93598618D01*
X159994908Y-92891286D01*
X159724794Y-92237560D01*
X159225071Y-91736964D01*
X158976600Y-91633790D01*
X158976600Y-79821667D01*
X159270442Y-79821667D01*
X159496180Y-80367995D01*
X159913806Y-80786351D01*
X160459739Y-81013042D01*
X161050867Y-81013558D01*
X161597195Y-80787820D01*
X162015551Y-80370194D01*
X162242242Y-79824261D01*
X162242244Y-79821667D01*
X167906442Y-79821667D01*
X168132180Y-80367995D01*
X168549806Y-80786351D01*
X169095739Y-81013042D01*
X169686867Y-81013558D01*
X170233195Y-80787820D01*
X170651551Y-80370194D01*
X170878242Y-79824261D01*
X170878758Y-79233133D01*
X170685503Y-78765421D01*
X171014714Y-78765708D01*
X171668440Y-78495594D01*
X172169036Y-77995871D01*
X172440291Y-77342618D01*
X172440908Y-76635286D01*
X172170794Y-75981560D01*
X171671071Y-75480964D01*
X171017818Y-75209709D01*
X170310486Y-75209092D01*
X169656760Y-75479206D01*
X169156164Y-75978929D01*
X168884909Y-76632182D01*
X168884292Y-77339514D01*
X169154406Y-77993240D01*
X169202415Y-78041333D01*
X169098333Y-78041242D01*
X168552005Y-78266980D01*
X168133649Y-78684606D01*
X167906958Y-79230539D01*
X167906442Y-79821667D01*
X162242244Y-79821667D01*
X162242758Y-79233133D01*
X162017020Y-78686805D01*
X161599394Y-78268449D01*
X161053461Y-78041758D01*
X160462333Y-78041242D01*
X159916005Y-78266980D01*
X159497649Y-78684606D01*
X159270958Y-79230539D01*
X159270442Y-79821667D01*
X158976600Y-79821667D01*
X158976600Y-76057173D01*
X159222440Y-75955594D01*
X159723036Y-75455871D01*
X159994291Y-74802618D01*
X159994908Y-74095286D01*
X159724794Y-73441560D01*
X159225071Y-72940964D01*
X158976600Y-72837790D01*
X158976600Y-70028493D01*
X159002000Y-69900800D01*
X158976868Y-69774453D01*
X158944148Y-69609960D01*
X158779401Y-69363399D01*
X148202475Y-58786473D01*
X148162201Y-58726199D01*
X135951750Y-46515748D01*
X136116591Y-46269046D01*
X136210600Y-45796432D01*
X136210600Y-44932368D01*
X136146477Y-44610000D01*
X136344723Y-44610000D01*
X136280600Y-44932368D01*
X136280600Y-45796432D01*
X136374609Y-46269046D01*
X136642323Y-46669709D01*
X137042986Y-46937423D01*
X137515600Y-47031432D01*
X137675937Y-46999539D01*
X150427312Y-59750914D01*
X150440199Y-59770201D01*
X165654799Y-74984801D01*
X165901361Y-75149548D01*
X166192200Y-75207400D01*
X175402827Y-75207400D01*
X175504406Y-75453240D01*
X176004129Y-75953836D01*
X176250600Y-76056180D01*
X176250600Y-77587432D01*
X175963696Y-77300027D01*
X174997815Y-76898958D01*
X173951974Y-76898045D01*
X172985393Y-77297428D01*
X172245227Y-78036304D01*
X171844158Y-79002185D01*
X171843245Y-80048026D01*
X172242628Y-81014607D01*
X172981504Y-81754773D01*
X173947385Y-82155842D01*
X174993226Y-82156755D01*
X175959807Y-81757372D01*
X176250600Y-81467086D01*
X176250600Y-91634453D01*
X176006760Y-91735206D01*
X175506164Y-92234929D01*
X175234909Y-92888182D01*
X175234292Y-93595514D01*
X175504406Y-94249240D01*
X176004129Y-94749836D01*
X176250600Y-94852180D01*
X176250600Y-96383432D01*
X175963696Y-96096027D01*
X174997815Y-95694958D01*
X173951974Y-95694045D01*
X172985393Y-96093428D01*
X172245227Y-96832304D01*
X171844158Y-97798185D01*
X171843245Y-98844026D01*
X172242628Y-99810607D01*
X172981504Y-100550773D01*
X173947385Y-100951842D01*
X174993226Y-100952755D01*
X175959807Y-100553372D01*
X176250600Y-100263086D01*
X176250600Y-110430453D01*
X176006760Y-110531206D01*
X175506164Y-111030929D01*
X175234909Y-111684182D01*
X175234292Y-112391514D01*
X175504406Y-113045240D01*
X176004129Y-113545836D01*
X176250600Y-113648180D01*
X176250600Y-115179432D01*
X175963696Y-114892027D01*
X174997815Y-114490958D01*
X173951974Y-114490045D01*
X172985393Y-114889428D01*
X172245227Y-115628304D01*
X171844158Y-116594185D01*
X171843245Y-117640026D01*
X172242628Y-118606607D01*
X172981504Y-119346773D01*
X173947385Y-119747842D01*
X174993226Y-119748755D01*
X175959807Y-119349372D01*
X176250600Y-119059086D01*
X176250600Y-129226453D01*
X176006760Y-129327206D01*
X175506164Y-129826929D01*
X175234909Y-130480182D01*
X175234292Y-131187514D01*
X175504406Y-131841240D01*
X176004129Y-132341836D01*
X176657382Y-132613091D01*
X177364714Y-132613708D01*
X178018440Y-132343594D01*
X178519036Y-131843871D01*
X178790291Y-131190618D01*
X178790908Y-130483286D01*
X178520794Y-129829560D01*
X178021071Y-129328964D01*
X177774600Y-129226620D01*
X177774600Y-117413667D01*
X178066442Y-117413667D01*
X178292180Y-117959995D01*
X178709806Y-118378351D01*
X179255739Y-118605042D01*
X179846867Y-118605558D01*
X180393195Y-118379820D01*
X180811551Y-117962194D01*
X181038242Y-117416261D01*
X181038758Y-116825133D01*
X180813020Y-116278805D01*
X180395394Y-115860449D01*
X179849461Y-115633758D01*
X179258333Y-115633242D01*
X178712005Y-115858980D01*
X178293649Y-116276606D01*
X178066958Y-116822539D01*
X178066442Y-117413667D01*
X177774600Y-117413667D01*
X177774600Y-113648347D01*
X178018440Y-113547594D01*
X178519036Y-113047871D01*
X178790291Y-112394618D01*
X178790908Y-111687286D01*
X178520794Y-111033560D01*
X178021071Y-110532964D01*
X177774600Y-110430620D01*
X177774600Y-98617667D01*
X178066442Y-98617667D01*
X178292180Y-99163995D01*
X178709806Y-99582351D01*
X179255739Y-99809042D01*
X179846867Y-99809558D01*
X180393195Y-99583820D01*
X180811551Y-99166194D01*
X181038242Y-98620261D01*
X181038758Y-98029133D01*
X180813020Y-97482805D01*
X180515902Y-97185167D01*
X184564838Y-97185167D01*
X184706883Y-97528943D01*
X184969673Y-97792192D01*
X185313201Y-97934838D01*
X185685167Y-97935162D01*
X186028943Y-97793117D01*
X186292192Y-97530327D01*
X186434838Y-97186799D01*
X186435162Y-96814833D01*
X186293117Y-96471057D01*
X186262000Y-96439886D01*
X186262000Y-76340000D01*
X191985907Y-76340000D01*
X192098946Y-76908285D01*
X192420853Y-77390054D01*
X192750026Y-77610000D01*
X192420853Y-77829946D01*
X192098946Y-78311715D01*
X191985907Y-78880000D01*
X192098946Y-79448285D01*
X192420853Y-79930054D01*
X192750026Y-80150000D01*
X192420853Y-80369946D01*
X192098946Y-80851715D01*
X191985907Y-81420000D01*
X192098946Y-81988285D01*
X192420853Y-82470054D01*
X192750026Y-82690000D01*
X192420853Y-82909946D01*
X192098946Y-83391715D01*
X191985907Y-83960000D01*
X192098946Y-84528285D01*
X192420853Y-85010054D01*
X192750026Y-85230000D01*
X192420853Y-85449946D01*
X192098946Y-85931715D01*
X191985907Y-86500000D01*
X192098946Y-87068285D01*
X192420853Y-87550054D01*
X192750026Y-87770000D01*
X192420853Y-87989946D01*
X192098946Y-88471715D01*
X191985907Y-89040000D01*
X192098946Y-89608285D01*
X192420853Y-90090054D01*
X192750026Y-90310000D01*
X192420853Y-90529946D01*
X192098946Y-91011715D01*
X191985907Y-91580000D01*
X192098946Y-92148285D01*
X192420853Y-92630054D01*
X192902622Y-92951961D01*
X193470907Y-93065000D01*
X193529093Y-93065000D01*
X194097378Y-92951961D01*
X194579147Y-92630054D01*
X194901054Y-92148285D01*
X195014093Y-91580000D01*
X194901054Y-91011715D01*
X194579147Y-90529946D01*
X194249974Y-90310000D01*
X194579147Y-90090054D01*
X194901054Y-89608285D01*
X195014093Y-89040000D01*
X194901054Y-88471715D01*
X194579147Y-87989946D01*
X194249974Y-87770000D01*
X194579147Y-87550054D01*
X194901054Y-87068285D01*
X195014093Y-86500000D01*
X194901054Y-85931715D01*
X194579147Y-85449946D01*
X194249974Y-85230000D01*
X194579147Y-85010054D01*
X194901054Y-84528285D01*
X195014093Y-83960000D01*
X194901054Y-83391715D01*
X194579147Y-82909946D01*
X194249974Y-82690000D01*
X194579147Y-82470054D01*
X194901054Y-81988285D01*
X195014093Y-81420000D01*
X194901054Y-80851715D01*
X194579147Y-80369946D01*
X194249974Y-80150000D01*
X194579147Y-79930054D01*
X194901054Y-79448285D01*
X195014093Y-78880000D01*
X194901054Y-78311715D01*
X194579147Y-77829946D01*
X194249974Y-77610000D01*
X194579147Y-77390054D01*
X194901054Y-76908285D01*
X195014093Y-76340000D01*
X194901054Y-75771715D01*
X194579147Y-75289946D01*
X194535223Y-75260597D01*
X194597765Y-75248157D01*
X194807809Y-75107809D01*
X194948157Y-74897765D01*
X194997440Y-74650000D01*
X194997440Y-72950000D01*
X194948157Y-72702235D01*
X194807809Y-72492191D01*
X194597765Y-72351843D01*
X194350000Y-72302560D01*
X192650000Y-72302560D01*
X192402235Y-72351843D01*
X192192191Y-72492191D01*
X192051843Y-72702235D01*
X192002560Y-72950000D01*
X192002560Y-74650000D01*
X192051843Y-74897765D01*
X192192191Y-75107809D01*
X192402235Y-75248157D01*
X192464777Y-75260597D01*
X192420853Y-75289946D01*
X192098946Y-75771715D01*
X191985907Y-76340000D01*
X186262000Y-76340000D01*
X186262000Y-69211630D01*
X192181629Y-63292002D01*
X192192191Y-63307809D01*
X192402235Y-63448157D01*
X192464777Y-63460597D01*
X192420853Y-63489946D01*
X192098946Y-63971715D01*
X191985907Y-64540000D01*
X192098946Y-65108285D01*
X192420853Y-65590054D01*
X192902622Y-65911961D01*
X193470907Y-66025000D01*
X193529093Y-66025000D01*
X194097378Y-65911961D01*
X194579147Y-65590054D01*
X194901054Y-65108285D01*
X195014093Y-64540000D01*
X194901054Y-63971715D01*
X194579147Y-63489946D01*
X194535223Y-63460597D01*
X194597765Y-63448157D01*
X194807809Y-63307809D01*
X194948157Y-63097765D01*
X194997440Y-62850000D01*
X194997440Y-61150000D01*
X194948157Y-60902235D01*
X194807809Y-60692191D01*
X194597765Y-60551843D01*
X194350000Y-60502560D01*
X192650000Y-60502560D01*
X192402235Y-60551843D01*
X192192191Y-60692191D01*
X192051843Y-60902235D01*
X192002560Y-61150000D01*
X192002560Y-61364048D01*
X191857185Y-61461184D01*
X184961185Y-68357185D01*
X184796004Y-68604395D01*
X184738000Y-68896000D01*
X184738000Y-96439534D01*
X184707808Y-96469673D01*
X184565162Y-96813201D01*
X184564838Y-97185167D01*
X180515902Y-97185167D01*
X180395394Y-97064449D01*
X179849461Y-96837758D01*
X179258333Y-96837242D01*
X178712005Y-97062980D01*
X178293649Y-97480606D01*
X178066958Y-98026539D01*
X178066442Y-98617667D01*
X177774600Y-98617667D01*
X177774600Y-94852347D01*
X178018440Y-94751594D01*
X178519036Y-94251871D01*
X178790291Y-93598618D01*
X178790908Y-92891286D01*
X178520794Y-92237560D01*
X178021071Y-91736964D01*
X177774600Y-91634620D01*
X177774600Y-79821667D01*
X178066442Y-79821667D01*
X178292180Y-80367995D01*
X178709806Y-80786351D01*
X179255739Y-81013042D01*
X179846867Y-81013558D01*
X180393195Y-80787820D01*
X180811551Y-80370194D01*
X181038242Y-79824261D01*
X181038758Y-79233133D01*
X180813020Y-78686805D01*
X180395394Y-78268449D01*
X179849461Y-78041758D01*
X179258333Y-78041242D01*
X178712005Y-78266980D01*
X178293649Y-78684606D01*
X178066958Y-79230539D01*
X178066442Y-79821667D01*
X177774600Y-79821667D01*
X177774600Y-76056347D01*
X178018440Y-75955594D01*
X178519036Y-75455871D01*
X178790291Y-74802618D01*
X178790908Y-74095286D01*
X178520794Y-73441560D01*
X178021071Y-72940964D01*
X177367818Y-72669709D01*
X176660486Y-72669092D01*
X176006760Y-72939206D01*
X175506164Y-73438929D01*
X175402990Y-73687400D01*
X166507002Y-73687400D01*
X163020721Y-70201119D01*
X179575204Y-70201119D01*
X179922494Y-71041623D01*
X180564995Y-71685246D01*
X181404892Y-72034002D01*
X182314319Y-72034796D01*
X183154823Y-71687506D01*
X183798446Y-71045005D01*
X184147202Y-70205108D01*
X184147996Y-69295681D01*
X183800706Y-68455177D01*
X183158205Y-67811554D01*
X182318308Y-67462798D01*
X181408881Y-67462004D01*
X180568377Y-67809294D01*
X179924754Y-68451795D01*
X179575998Y-69291692D01*
X179575204Y-70201119D01*
X163020721Y-70201119D01*
X151527888Y-58708286D01*
X151515001Y-58688999D01*
X139808229Y-46982227D01*
X140055600Y-47031432D01*
X140528214Y-46937423D01*
X140928877Y-46669709D01*
X141196591Y-46269046D01*
X141290600Y-45796432D01*
X141290600Y-44932368D01*
X141226477Y-44610000D01*
X141424723Y-44610000D01*
X141360600Y-44932368D01*
X141360600Y-45796432D01*
X141454609Y-46269046D01*
X141722323Y-46669709D01*
X142122986Y-46937423D01*
X142595600Y-47031432D01*
X143068214Y-46937423D01*
X143468877Y-46669709D01*
X143736591Y-46269046D01*
X143830600Y-45796432D01*
X143830600Y-44932368D01*
X143766477Y-44610000D01*
X143964723Y-44610000D01*
X143900600Y-44932368D01*
X143900600Y-45796432D01*
X143994609Y-46269046D01*
X144262323Y-46669709D01*
X144662986Y-46937423D01*
X145135600Y-47031432D01*
X145608214Y-46937423D01*
X146008877Y-46669709D01*
X146276591Y-46269046D01*
X146370600Y-45796432D01*
X146370600Y-45491400D01*
X146440600Y-45491400D01*
X146440600Y-45891400D01*
X146583210Y-46354347D01*
X146892126Y-46727480D01*
X147320319Y-46953992D01*
X147357991Y-46957862D01*
X147548600Y-46833131D01*
X147548600Y-45491400D01*
X147802600Y-45491400D01*
X147802600Y-46833131D01*
X147993209Y-46957862D01*
X148030881Y-46953992D01*
X148459074Y-46727480D01*
X148767990Y-46354347D01*
X148910600Y-45891400D01*
X148910600Y-45491400D01*
X148980600Y-45491400D01*
X148980600Y-45891400D01*
X149123210Y-46354347D01*
X149432126Y-46727480D01*
X149860319Y-46953992D01*
X149897991Y-46957862D01*
X150088600Y-46833131D01*
X150088600Y-45491400D01*
X150342600Y-45491400D01*
X150342600Y-46833131D01*
X150533209Y-46957862D01*
X150570881Y-46953992D01*
X150999074Y-46727480D01*
X151307990Y-46354347D01*
X151450600Y-45891400D01*
X151450600Y-45491400D01*
X150342600Y-45491400D01*
X150088600Y-45491400D01*
X148980600Y-45491400D01*
X148910600Y-45491400D01*
X147802600Y-45491400D01*
X147548600Y-45491400D01*
X146440600Y-45491400D01*
X146370600Y-45491400D01*
X146370600Y-44932368D01*
X146306477Y-44610000D01*
X146510650Y-44610000D01*
X146440600Y-44837400D01*
X146440600Y-45237400D01*
X147548600Y-45237400D01*
X147548600Y-44610000D01*
X147802600Y-44610000D01*
X147802600Y-45237400D01*
X148910600Y-45237400D01*
X148910600Y-44837400D01*
X148840550Y-44610000D01*
X149050650Y-44610000D01*
X148980600Y-44837400D01*
X148980600Y-45237400D01*
X150088600Y-45237400D01*
X150088600Y-44610000D01*
X150342600Y-44610000D01*
X150342600Y-45237400D01*
X151450600Y-45237400D01*
X151450600Y-44837400D01*
X151380550Y-44610000D01*
X151584723Y-44610000D01*
X151520600Y-44932368D01*
X151520600Y-45796432D01*
X151614609Y-46269046D01*
X151882323Y-46669709D01*
X152282986Y-46937423D01*
X152755600Y-47031432D01*
X153228214Y-46937423D01*
X153628877Y-46669709D01*
X153896591Y-46269046D01*
X153990600Y-45796432D01*
X153990600Y-44932368D01*
X153926477Y-44610000D01*
X180399376Y-44610000D01*
X179924754Y-45083795D01*
X179575998Y-45923692D01*
X179575204Y-46833119D01*
X179922494Y-47673623D01*
X180564995Y-48317246D01*
X181404892Y-48666002D01*
X182314319Y-48666796D01*
X182593259Y-48551540D01*
X189214518Y-48551540D01*
X189637616Y-49575515D01*
X190420365Y-50359631D01*
X191443599Y-50784515D01*
X192551540Y-50785482D01*
X193575515Y-50362384D01*
X194359631Y-49579635D01*
X194784515Y-48556401D01*
X194785482Y-47448460D01*
X194362384Y-46424485D01*
X193579635Y-45640369D01*
X192556401Y-45215485D01*
X191448460Y-45214518D01*
X190424485Y-45637616D01*
X189640369Y-46420365D01*
X189215485Y-47443599D01*
X189214518Y-48551540D01*
X182593259Y-48551540D01*
X183154823Y-48319506D01*
X183798446Y-47677005D01*
X184147202Y-46837108D01*
X184147996Y-45927681D01*
X183800706Y-45087177D01*
X183324361Y-44610000D01*
X194930070Y-44610000D01*
X195067387Y-44637314D01*
X195124514Y-44675485D01*
X195162686Y-44732614D01*
X195190000Y-44869930D01*
X195190000Y-142930070D01*
X195162686Y-143067386D01*
X195124514Y-143124515D01*
X195067387Y-143162686D01*
X194930070Y-143190000D01*
X115256651Y-143190000D01*
X115295392Y-143151327D01*
X115438038Y-142807799D01*
X115438362Y-142435833D01*
X115296317Y-142092057D01*
X115033527Y-141828808D01*
X114689999Y-141686162D01*
X114645955Y-141686124D01*
X113511371Y-140551540D01*
X189214518Y-140551540D01*
X189637616Y-141575515D01*
X190420365Y-142359631D01*
X191443599Y-142784515D01*
X192551540Y-142785482D01*
X193575515Y-142362384D01*
X194359631Y-141579635D01*
X194784515Y-140556401D01*
X194785482Y-139448460D01*
X194362384Y-138424485D01*
X193579635Y-137640369D01*
X192556401Y-137215485D01*
X191448460Y-137214518D01*
X190424485Y-137637616D01*
X189640369Y-138420365D01*
X189215485Y-139443599D01*
X189214518Y-140551540D01*
X113511371Y-140551540D01*
X111429800Y-138469970D01*
X111429800Y-136209667D01*
X111518442Y-136209667D01*
X111744180Y-136755995D01*
X112161806Y-137174351D01*
X112707739Y-137401042D01*
X113298867Y-137401558D01*
X113845195Y-137175820D01*
X114263551Y-136758194D01*
X114397326Y-136436026D01*
X115455245Y-136436026D01*
X115854628Y-137402607D01*
X116593504Y-138142773D01*
X117559385Y-138543842D01*
X118605226Y-138544755D01*
X119571807Y-138145372D01*
X120311973Y-137406496D01*
X120713042Y-136440615D01*
X120713243Y-136209667D01*
X121678442Y-136209667D01*
X121904180Y-136755995D01*
X122321806Y-137174351D01*
X122867739Y-137401042D01*
X123458867Y-137401558D01*
X124005195Y-137175820D01*
X124423551Y-136758194D01*
X124650242Y-136212261D01*
X124650244Y-136209667D01*
X130314442Y-136209667D01*
X130540180Y-136755995D01*
X130957806Y-137174351D01*
X131503739Y-137401042D01*
X132094867Y-137401558D01*
X132641195Y-137175820D01*
X133059551Y-136758194D01*
X133193326Y-136436026D01*
X134251245Y-136436026D01*
X134650628Y-137402607D01*
X135389504Y-138142773D01*
X136355385Y-138543842D01*
X137401226Y-138544755D01*
X138367807Y-138145372D01*
X139107973Y-137406496D01*
X139509042Y-136440615D01*
X139509243Y-136209667D01*
X140474442Y-136209667D01*
X140700180Y-136755995D01*
X141117806Y-137174351D01*
X141663739Y-137401042D01*
X142254867Y-137401558D01*
X142801195Y-137175820D01*
X143219551Y-136758194D01*
X143446242Y-136212261D01*
X143446244Y-136209667D01*
X149110442Y-136209667D01*
X149336180Y-136755995D01*
X149753806Y-137174351D01*
X150299739Y-137401042D01*
X150890867Y-137401558D01*
X151437195Y-137175820D01*
X151855551Y-136758194D01*
X151989326Y-136436026D01*
X153047245Y-136436026D01*
X153446628Y-137402607D01*
X154185504Y-138142773D01*
X155151385Y-138543842D01*
X156197226Y-138544755D01*
X157163807Y-138145372D01*
X157903973Y-137406496D01*
X158305042Y-136440615D01*
X158305243Y-136209667D01*
X159270442Y-136209667D01*
X159496180Y-136755995D01*
X159913806Y-137174351D01*
X160459739Y-137401042D01*
X161050867Y-137401558D01*
X161597195Y-137175820D01*
X162015551Y-136758194D01*
X162242242Y-136212261D01*
X162242244Y-136209667D01*
X167906442Y-136209667D01*
X168132180Y-136755995D01*
X168549806Y-137174351D01*
X169095739Y-137401042D01*
X169686867Y-137401558D01*
X170233195Y-137175820D01*
X170651551Y-136758194D01*
X170785326Y-136436026D01*
X171843245Y-136436026D01*
X172242628Y-137402607D01*
X172981504Y-138142773D01*
X173947385Y-138543842D01*
X174993226Y-138544755D01*
X175959807Y-138145372D01*
X176699973Y-137406496D01*
X177101042Y-136440615D01*
X177101243Y-136209667D01*
X178066442Y-136209667D01*
X178292180Y-136755995D01*
X178709806Y-137174351D01*
X179255739Y-137401042D01*
X179846867Y-137401558D01*
X180393195Y-137175820D01*
X180811551Y-136758194D01*
X181038242Y-136212261D01*
X181038758Y-135621133D01*
X180813020Y-135074805D01*
X180395394Y-134656449D01*
X179849461Y-134429758D01*
X179258333Y-134429242D01*
X178712005Y-134654980D01*
X178293649Y-135072606D01*
X178066958Y-135618539D01*
X178066442Y-136209667D01*
X177101243Y-136209667D01*
X177101955Y-135394774D01*
X176702572Y-134428193D01*
X175963696Y-133688027D01*
X174997815Y-133286958D01*
X173951974Y-133286045D01*
X172985393Y-133685428D01*
X172245227Y-134424304D01*
X171844158Y-135390185D01*
X171843245Y-136436026D01*
X170785326Y-136436026D01*
X170878242Y-136212261D01*
X170878758Y-135621133D01*
X170685503Y-135153421D01*
X171014714Y-135153708D01*
X171668440Y-134883594D01*
X172169036Y-134383871D01*
X172440291Y-133730618D01*
X172440908Y-133023286D01*
X172170794Y-132369560D01*
X171671071Y-131868964D01*
X171017818Y-131597709D01*
X170310486Y-131597092D01*
X169656760Y-131867206D01*
X169156164Y-132366929D01*
X168884909Y-133020182D01*
X168884292Y-133727514D01*
X169154406Y-134381240D01*
X169202415Y-134429333D01*
X169098333Y-134429242D01*
X168552005Y-134654980D01*
X168133649Y-135072606D01*
X167906958Y-135618539D01*
X167906442Y-136209667D01*
X162242244Y-136209667D01*
X162242758Y-135621133D01*
X162017020Y-135074805D01*
X161599394Y-134656449D01*
X161053461Y-134429758D01*
X160462333Y-134429242D01*
X159916005Y-134654980D01*
X159497649Y-135072606D01*
X159270958Y-135618539D01*
X159270442Y-136209667D01*
X158305243Y-136209667D01*
X158305955Y-135394774D01*
X157906572Y-134428193D01*
X157167696Y-133688027D01*
X156201815Y-133286958D01*
X155155974Y-133286045D01*
X154189393Y-133685428D01*
X153449227Y-134424304D01*
X153048158Y-135390185D01*
X153047245Y-136436026D01*
X151989326Y-136436026D01*
X152082242Y-136212261D01*
X152082758Y-135621133D01*
X151889503Y-135153421D01*
X152218714Y-135153708D01*
X152872440Y-134883594D01*
X153373036Y-134383871D01*
X153644291Y-133730618D01*
X153644908Y-133023286D01*
X153374794Y-132369560D01*
X152875071Y-131868964D01*
X152221818Y-131597709D01*
X151514486Y-131597092D01*
X150860760Y-131867206D01*
X150360164Y-132366929D01*
X150088909Y-133020182D01*
X150088292Y-133727514D01*
X150358406Y-134381240D01*
X150406415Y-134429333D01*
X150302333Y-134429242D01*
X149756005Y-134654980D01*
X149337649Y-135072606D01*
X149110958Y-135618539D01*
X149110442Y-136209667D01*
X143446244Y-136209667D01*
X143446758Y-135621133D01*
X143221020Y-135074805D01*
X142803394Y-134656449D01*
X142257461Y-134429758D01*
X141666333Y-134429242D01*
X141120005Y-134654980D01*
X140701649Y-135072606D01*
X140474958Y-135618539D01*
X140474442Y-136209667D01*
X139509243Y-136209667D01*
X139509955Y-135394774D01*
X139110572Y-134428193D01*
X138371696Y-133688027D01*
X137405815Y-133286958D01*
X136359974Y-133286045D01*
X135393393Y-133685428D01*
X134653227Y-134424304D01*
X134252158Y-135390185D01*
X134251245Y-136436026D01*
X133193326Y-136436026D01*
X133286242Y-136212261D01*
X133286758Y-135621133D01*
X133093503Y-135153421D01*
X133422714Y-135153708D01*
X134076440Y-134883594D01*
X134577036Y-134383871D01*
X134848291Y-133730618D01*
X134848908Y-133023286D01*
X134578794Y-132369560D01*
X134079071Y-131868964D01*
X133425818Y-131597709D01*
X132718486Y-131597092D01*
X132064760Y-131867206D01*
X131564164Y-132366929D01*
X131292909Y-133020182D01*
X131292292Y-133727514D01*
X131562406Y-134381240D01*
X131610415Y-134429333D01*
X131506333Y-134429242D01*
X130960005Y-134654980D01*
X130541649Y-135072606D01*
X130314958Y-135618539D01*
X130314442Y-136209667D01*
X124650244Y-136209667D01*
X124650758Y-135621133D01*
X124425020Y-135074805D01*
X124007394Y-134656449D01*
X123461461Y-134429758D01*
X122870333Y-134429242D01*
X122324005Y-134654980D01*
X121905649Y-135072606D01*
X121678958Y-135618539D01*
X121678442Y-136209667D01*
X120713243Y-136209667D01*
X120713955Y-135394774D01*
X120314572Y-134428193D01*
X119575696Y-133688027D01*
X118609815Y-133286958D01*
X117563974Y-133286045D01*
X116597393Y-133685428D01*
X115857227Y-134424304D01*
X115456158Y-135390185D01*
X115455245Y-136436026D01*
X114397326Y-136436026D01*
X114490242Y-136212261D01*
X114490758Y-135621133D01*
X114297503Y-135153421D01*
X114626714Y-135153708D01*
X115280440Y-134883594D01*
X115781036Y-134383871D01*
X116052291Y-133730618D01*
X116052908Y-133023286D01*
X115782794Y-132369560D01*
X115283071Y-131868964D01*
X114629818Y-131597709D01*
X113922486Y-131597092D01*
X113268760Y-131867206D01*
X112768164Y-132366929D01*
X112496909Y-133020182D01*
X112496292Y-133727514D01*
X112766406Y-134381240D01*
X112814415Y-134429333D01*
X112710333Y-134429242D01*
X112164005Y-134654980D01*
X111745649Y-135072606D01*
X111518958Y-135618539D01*
X111518442Y-136209667D01*
X111429800Y-136209667D01*
X111429800Y-129211466D01*
X111459992Y-129181327D01*
X111602638Y-128837799D01*
X111602962Y-128465833D01*
X111460917Y-128122057D01*
X111198127Y-127858808D01*
X110854599Y-127716162D01*
X110482633Y-127715838D01*
X110138857Y-127857883D01*
X109875608Y-128120673D01*
X109732962Y-128464201D01*
X109732638Y-128836167D01*
X109874683Y-129179943D01*
X109905800Y-129211114D01*
X109905800Y-138785600D01*
X109963804Y-139077205D01*
X110128985Y-139324415D01*
X113568075Y-142763506D01*
X113568038Y-142806167D01*
X113710083Y-143149943D01*
X113750070Y-143190000D01*
X96869930Y-143190000D01*
X96732614Y-143162686D01*
X96675485Y-143124514D01*
X96637314Y-143067387D01*
X96610000Y-142930070D01*
X96610000Y-140551540D01*
X97214518Y-140551540D01*
X97637616Y-141575515D01*
X98420365Y-142359631D01*
X99443599Y-142784515D01*
X100551540Y-142785482D01*
X101575515Y-142362384D01*
X102359631Y-141579635D01*
X102784515Y-140556401D01*
X102785482Y-139448460D01*
X102362384Y-138424485D01*
X101579635Y-137640369D01*
X100556401Y-137215485D01*
X99448460Y-137214518D01*
X98424485Y-137637616D01*
X97640369Y-138420365D01*
X97215485Y-139443599D01*
X97214518Y-140551540D01*
X96610000Y-140551540D01*
X96610000Y-59235461D01*
X104854092Y-59235461D01*
X104878144Y-59885460D01*
X105080613Y-60374264D01*
X105347468Y-60472927D01*
X106320395Y-59500000D01*
X105347468Y-58527073D01*
X105080613Y-58625736D01*
X104854092Y-59235461D01*
X96610000Y-59235461D01*
X96610000Y-57323795D01*
X99864716Y-57323795D01*
X100113106Y-57924943D01*
X100572637Y-58385278D01*
X101173352Y-58634716D01*
X101823795Y-58635284D01*
X102424943Y-58386894D01*
X102464437Y-58347468D01*
X105527073Y-58347468D01*
X106500000Y-59320395D01*
X107472927Y-58347468D01*
X107374264Y-58080613D01*
X106764539Y-57854092D01*
X106114540Y-57878144D01*
X105625736Y-58080613D01*
X105527073Y-58347468D01*
X102464437Y-58347468D01*
X102885278Y-57927363D01*
X103134716Y-57326648D01*
X103135284Y-56676205D01*
X102886894Y-56075057D01*
X102427363Y-55614722D01*
X101826648Y-55365284D01*
X101176205Y-55364716D01*
X100575057Y-55613106D01*
X100114722Y-56072637D01*
X99865284Y-56673352D01*
X99864716Y-57323795D01*
X96610000Y-57323795D01*
X96610000Y-48551540D01*
X97214518Y-48551540D01*
X97637616Y-49575515D01*
X98420365Y-50359631D01*
X99443599Y-50784515D01*
X100551540Y-50785482D01*
X101575515Y-50362384D01*
X102359631Y-49579635D01*
X102784515Y-48556401D01*
X102785482Y-47448460D01*
X102362384Y-46424485D01*
X101579635Y-45640369D01*
X100556401Y-45215485D01*
X99448460Y-45214518D01*
X98424485Y-45637616D01*
X97640369Y-46420365D01*
X97215485Y-47443599D01*
X97214518Y-48551540D01*
X96610000Y-48551540D01*
X96610000Y-44869930D01*
X96637314Y-44732613D01*
X96675485Y-44675486D01*
X96732614Y-44637314D01*
X96869930Y-44610000D01*
X110399376Y-44610000D01*
X109924754Y-45083795D01*
X109924754Y-45083795D01*
G37*
X109924754Y-45083795D02*
X109575998Y-45923692D01*
X109575204Y-46833119D01*
X109922494Y-47673623D01*
X110564995Y-48317246D01*
X111404892Y-48666002D01*
X112314319Y-48666796D01*
X113154823Y-48319506D01*
X113798446Y-47677005D01*
X114122367Y-46896918D01*
X114182986Y-46937423D01*
X114655600Y-47031432D01*
X115128214Y-46937423D01*
X115528877Y-46669709D01*
X115796591Y-46269046D01*
X115890600Y-45796432D01*
X115890600Y-44932368D01*
X115826477Y-44610000D01*
X116024723Y-44610000D01*
X115960600Y-44932368D01*
X115960600Y-45796432D01*
X116054609Y-46269046D01*
X116322323Y-46669709D01*
X116434501Y-46744664D01*
X116437794Y-51784575D01*
X107961523Y-60260847D01*
X108145908Y-59764539D01*
X108121856Y-59114540D01*
X107919387Y-58625736D01*
X107652532Y-58527073D01*
X106679605Y-59500000D01*
X107652532Y-60472927D01*
X107806292Y-60416078D01*
X107416078Y-60806292D01*
X107472927Y-60652532D01*
X106500000Y-59679605D01*
X105527073Y-60652532D01*
X105625736Y-60919387D01*
X106235461Y-61145908D01*
X106885460Y-61121856D01*
X107252580Y-60969790D01*
X106161185Y-62061185D01*
X106160805Y-62061754D01*
X106160235Y-62062136D01*
X106078078Y-62185563D01*
X105996004Y-62308396D01*
X105995871Y-62309067D01*
X105995491Y-62309637D01*
X105966810Y-62455167D01*
X105938001Y-62600000D01*
X105938134Y-62600669D01*
X105938001Y-62601344D01*
X105942044Y-64893086D01*
X105807809Y-64692191D01*
X105597765Y-64551843D01*
X105350000Y-64502560D01*
X103650000Y-64502560D01*
X103402235Y-64551843D01*
X103192191Y-64692191D01*
X103051843Y-64902235D01*
X103039403Y-64964777D01*
X103010054Y-64920853D01*
X102528285Y-64598946D01*
X101960000Y-64485907D01*
X101391715Y-64598946D01*
X100909946Y-64920853D01*
X100690000Y-65250026D01*
X100470054Y-64920853D01*
X99988285Y-64598946D01*
X99420000Y-64485907D01*
X98851715Y-64598946D01*
X98369946Y-64920853D01*
X98048039Y-65402622D01*
X97935000Y-65970907D01*
X97935000Y-66029093D01*
X98048039Y-66597378D01*
X98369946Y-67079147D01*
X98851715Y-67401054D01*
X99420000Y-67514093D01*
X99988285Y-67401054D01*
X100470054Y-67079147D01*
X100690000Y-66749974D01*
X100909946Y-67079147D01*
X101391715Y-67401054D01*
X101960000Y-67514093D01*
X102528285Y-67401054D01*
X103010054Y-67079147D01*
X103039403Y-67035223D01*
X103051843Y-67097765D01*
X103192191Y-67307809D01*
X103402235Y-67448157D01*
X103650000Y-67497440D01*
X105350000Y-67497440D01*
X105597765Y-67448157D01*
X105807809Y-67307809D01*
X105945938Y-67101085D01*
X105967812Y-79501320D01*
X105938608Y-79530473D01*
X105795962Y-79874001D01*
X105795638Y-80245967D01*
X105937683Y-80589743D01*
X106200473Y-80852992D01*
X106544001Y-80995638D01*
X106705400Y-80995779D01*
X106705400Y-85661668D01*
X106680000Y-85789362D01*
X106680000Y-98423334D01*
X106649808Y-98453473D01*
X106507162Y-98797001D01*
X106506838Y-99168967D01*
X106648883Y-99512743D01*
X106911673Y-99775992D01*
X107255201Y-99918638D01*
X107442000Y-99918801D01*
X107442000Y-117193934D01*
X107411808Y-117224073D01*
X107269162Y-117567601D01*
X107268838Y-117939567D01*
X107410883Y-118283343D01*
X107673673Y-118546592D01*
X108017201Y-118689238D01*
X108178600Y-118689379D01*
X108178600Y-135939134D01*
X108148408Y-135969273D01*
X108005762Y-136312801D01*
X108005438Y-136684767D01*
X108147483Y-137028543D01*
X108410273Y-137291792D01*
X108753801Y-137434438D01*
X109125767Y-137434762D01*
X109469543Y-137292717D01*
X109732792Y-137029927D01*
X109875438Y-136686399D01*
X109875762Y-136314433D01*
X109733717Y-135970657D01*
X109702600Y-135939486D01*
X109702600Y-109989367D01*
X109834238Y-109989367D01*
X109976283Y-110333143D01*
X110007400Y-110364314D01*
X110007400Y-122047000D01*
X110065404Y-122338605D01*
X110230585Y-122585815D01*
X112059385Y-124414616D01*
X112207577Y-124513634D01*
X112306595Y-124579796D01*
X112598200Y-124637800D01*
X114450734Y-124637800D01*
X114480873Y-124667992D01*
X114824401Y-124810638D01*
X115196367Y-124810962D01*
X115540143Y-124668917D01*
X115803392Y-124406127D01*
X115946038Y-124062599D01*
X115946362Y-123690633D01*
X115804317Y-123346857D01*
X115541527Y-123083608D01*
X115197999Y-122940962D01*
X114826033Y-122940638D01*
X114482257Y-123082683D01*
X114451086Y-123113800D01*
X112913831Y-123113800D01*
X111531400Y-121731370D01*
X111531400Y-117445028D01*
X111744180Y-117959995D01*
X112161806Y-118378351D01*
X112707739Y-118605042D01*
X113298867Y-118605558D01*
X113845195Y-118379820D01*
X114263551Y-117962194D01*
X114490242Y-117416261D01*
X114490758Y-116825133D01*
X114297503Y-116357421D01*
X114626714Y-116357708D01*
X115280440Y-116087594D01*
X115781036Y-115587871D01*
X116052291Y-114934618D01*
X116052908Y-114227286D01*
X115782794Y-113573560D01*
X115283071Y-113072964D01*
X114629818Y-112801709D01*
X113922486Y-112801092D01*
X113268760Y-113071206D01*
X112768164Y-113570929D01*
X112496909Y-114224182D01*
X112496292Y-114931514D01*
X112766406Y-115585240D01*
X112814415Y-115633333D01*
X112710333Y-115633242D01*
X112164005Y-115858980D01*
X111745649Y-116276606D01*
X111531400Y-116792575D01*
X111531400Y-110364666D01*
X111561592Y-110334527D01*
X111704238Y-109990999D01*
X111704562Y-109619033D01*
X111562517Y-109275257D01*
X111299727Y-109012008D01*
X110956199Y-108869362D01*
X110584233Y-108869038D01*
X110240457Y-109011083D01*
X109977208Y-109273873D01*
X109834562Y-109617401D01*
X109834238Y-109989367D01*
X109702600Y-109989367D01*
X109702600Y-90502961D01*
X109773083Y-90673543D01*
X109804200Y-90704714D01*
X109804200Y-103530400D01*
X109862204Y-103822005D01*
X110027385Y-104069215D01*
X111602185Y-105644016D01*
X111849396Y-105809197D01*
X112141000Y-105867200D01*
X114704734Y-105867200D01*
X114734873Y-105897392D01*
X115078401Y-106040038D01*
X115450367Y-106040362D01*
X115794143Y-105898317D01*
X116057392Y-105635527D01*
X116200038Y-105291999D01*
X116200362Y-104920033D01*
X116058317Y-104576257D01*
X115795527Y-104313008D01*
X115451999Y-104170362D01*
X115080033Y-104170038D01*
X114736257Y-104312083D01*
X114705086Y-104343200D01*
X112456631Y-104343200D01*
X111328200Y-103214770D01*
X111328200Y-98617667D01*
X111518442Y-98617667D01*
X111744180Y-99163995D01*
X112161806Y-99582351D01*
X112707739Y-99809042D01*
X113298867Y-99809558D01*
X113845195Y-99583820D01*
X114263551Y-99166194D01*
X114397326Y-98844026D01*
X115455245Y-98844026D01*
X115854628Y-99810607D01*
X116593504Y-100550773D01*
X117559385Y-100951842D01*
X118605226Y-100952755D01*
X119571807Y-100553372D01*
X120311973Y-99814496D01*
X120713042Y-98848615D01*
X120713243Y-98617667D01*
X121678442Y-98617667D01*
X121904180Y-99163995D01*
X122321806Y-99582351D01*
X122867739Y-99809042D01*
X123458867Y-99809558D01*
X124005195Y-99583820D01*
X124423551Y-99166194D01*
X124650242Y-98620261D01*
X124650758Y-98029133D01*
X124425020Y-97482805D01*
X124007394Y-97064449D01*
X123461461Y-96837758D01*
X122870333Y-96837242D01*
X122324005Y-97062980D01*
X121905649Y-97480606D01*
X121678958Y-98026539D01*
X121678442Y-98617667D01*
X120713243Y-98617667D01*
X120713955Y-97802774D01*
X120314572Y-96836193D01*
X119575696Y-96096027D01*
X118609815Y-95694958D01*
X117563974Y-95694045D01*
X116597393Y-96093428D01*
X115857227Y-96832304D01*
X115456158Y-97798185D01*
X115455245Y-98844026D01*
X114397326Y-98844026D01*
X114490242Y-98620261D01*
X114490758Y-98029133D01*
X114297503Y-97561421D01*
X114626714Y-97561708D01*
X115280440Y-97291594D01*
X115781036Y-96791871D01*
X116052291Y-96138618D01*
X116052908Y-95431286D01*
X115782794Y-94777560D01*
X115283071Y-94276964D01*
X114629818Y-94005709D01*
X113922486Y-94005092D01*
X113268760Y-94275206D01*
X112768164Y-94774929D01*
X112496909Y-95428182D01*
X112496292Y-96135514D01*
X112766406Y-96789240D01*
X112814415Y-96837333D01*
X112710333Y-96837242D01*
X112164005Y-97062980D01*
X111745649Y-97480606D01*
X111518958Y-98026539D01*
X111518442Y-98617667D01*
X111328200Y-98617667D01*
X111328200Y-90705066D01*
X111358392Y-90674927D01*
X111501038Y-90331399D01*
X111501362Y-89959433D01*
X111359317Y-89615657D01*
X111096527Y-89352408D01*
X110752999Y-89209762D01*
X110381033Y-89209438D01*
X110037257Y-89351483D01*
X109774008Y-89614273D01*
X109702600Y-89786242D01*
X109702600Y-75372630D01*
X110424630Y-74650600D01*
X110631570Y-74650600D01*
X110027385Y-75254785D01*
X109862204Y-75501995D01*
X109804200Y-75793600D01*
X109804200Y-81813400D01*
X109862204Y-82105005D01*
X110027385Y-82352215D01*
X114076075Y-86400906D01*
X114076038Y-86443567D01*
X114218083Y-86787343D01*
X114480873Y-87050592D01*
X114824401Y-87193238D01*
X115196367Y-87193562D01*
X115540143Y-87051517D01*
X115803392Y-86788727D01*
X115946038Y-86445199D01*
X115946362Y-86073233D01*
X115804317Y-85729457D01*
X115541527Y-85466208D01*
X115197999Y-85323562D01*
X115153955Y-85323524D01*
X111328200Y-81497770D01*
X111328200Y-76109230D01*
X112075630Y-75361800D01*
X113552904Y-75361800D01*
X113268760Y-75479206D01*
X112768164Y-75978929D01*
X112496909Y-76632182D01*
X112496292Y-77339514D01*
X112766406Y-77993240D01*
X112814415Y-78041333D01*
X112710333Y-78041242D01*
X112164005Y-78266980D01*
X111745649Y-78684606D01*
X111518958Y-79230539D01*
X111518442Y-79821667D01*
X111744180Y-80367995D01*
X112161806Y-80786351D01*
X112707739Y-81013042D01*
X113298867Y-81013558D01*
X113845195Y-80787820D01*
X114263551Y-80370194D01*
X114490242Y-79824261D01*
X114490758Y-79233133D01*
X114297503Y-78765421D01*
X114626714Y-78765708D01*
X115280440Y-78495594D01*
X115781036Y-77995871D01*
X116052291Y-77342618D01*
X116052908Y-76635286D01*
X115782794Y-75981560D01*
X115283071Y-75480964D01*
X114996093Y-75361800D01*
X117154200Y-75361800D01*
X117445805Y-75303796D01*
X117693015Y-75138615D01*
X118923217Y-73908413D01*
X118846909Y-74092182D01*
X118846292Y-74799514D01*
X119116406Y-75453240D01*
X119616129Y-75953836D01*
X119864600Y-76057010D01*
X119864600Y-77589435D01*
X119575696Y-77300027D01*
X118609815Y-76898958D01*
X117563974Y-76898045D01*
X116597393Y-77297428D01*
X115857227Y-78036304D01*
X115456158Y-79002185D01*
X115455245Y-80048026D01*
X115854628Y-81014607D01*
X116593504Y-81754773D01*
X117559385Y-82155842D01*
X118605226Y-82156755D01*
X119571807Y-81757372D01*
X119864600Y-81465089D01*
X119864600Y-91633627D01*
X119618760Y-91735206D01*
X119118164Y-92234929D01*
X118846909Y-92888182D01*
X118846292Y-93595514D01*
X119116406Y-94249240D01*
X119616129Y-94749836D01*
X120269382Y-95021091D01*
X120976714Y-95021708D01*
X121630440Y-94751594D01*
X122131036Y-94251871D01*
X122240295Y-93988748D01*
X124937125Y-93964238D01*
X132287954Y-108344298D01*
X122009724Y-110910275D01*
X121633071Y-110532964D01*
X120979818Y-110261709D01*
X120272486Y-110261092D01*
X119618760Y-110531206D01*
X119118164Y-111030929D01*
X118846909Y-111684182D01*
X118846292Y-112391514D01*
X119116406Y-113045240D01*
X119616129Y-113545836D01*
X119864600Y-113649010D01*
X119864600Y-115181435D01*
X119575696Y-114892027D01*
X118609815Y-114490958D01*
X117563974Y-114490045D01*
X116597393Y-114889428D01*
X115857227Y-115628304D01*
X115456158Y-116594185D01*
X115455245Y-117640026D01*
X115854628Y-118606607D01*
X116593504Y-119346773D01*
X117559385Y-119747842D01*
X118605226Y-119748755D01*
X119571807Y-119349372D01*
X119864600Y-119057089D01*
X119864600Y-129225627D01*
X119618760Y-129327206D01*
X119118164Y-129826929D01*
X118846909Y-130480182D01*
X118846292Y-131187514D01*
X119116406Y-131841240D01*
X119616129Y-132341836D01*
X120269382Y-132613091D01*
X120976714Y-132613708D01*
X121630440Y-132343594D01*
X122131036Y-131843871D01*
X122402291Y-131190618D01*
X122402908Y-130483286D01*
X122132794Y-129829560D01*
X121633071Y-129328964D01*
X121384600Y-129225790D01*
X121384600Y-117413667D01*
X121678442Y-117413667D01*
X121904180Y-117959995D01*
X122321806Y-118378351D01*
X122867739Y-118605042D01*
X123458867Y-118605558D01*
X124005195Y-118379820D01*
X124423551Y-117962194D01*
X124650242Y-117416261D01*
X124650244Y-117413667D01*
X130314442Y-117413667D01*
X130540180Y-117959995D01*
X130957806Y-118378351D01*
X131503739Y-118605042D01*
X132094867Y-118605558D01*
X132641195Y-118379820D01*
X133059551Y-117962194D01*
X133286242Y-117416261D01*
X133286758Y-116825133D01*
X133093503Y-116357421D01*
X133422714Y-116357708D01*
X134076440Y-116087594D01*
X134577036Y-115587871D01*
X134848291Y-114934618D01*
X134848908Y-114227286D01*
X134578794Y-113573560D01*
X134079071Y-113072964D01*
X133425818Y-112801709D01*
X132718486Y-112801092D01*
X132064760Y-113071206D01*
X131564164Y-113570929D01*
X131292909Y-114224182D01*
X131292292Y-114931514D01*
X131562406Y-115585240D01*
X131610415Y-115633333D01*
X131506333Y-115633242D01*
X130960005Y-115858980D01*
X130541649Y-116276606D01*
X130314958Y-116822539D01*
X130314442Y-117413667D01*
X124650244Y-117413667D01*
X124650758Y-116825133D01*
X124425020Y-116278805D01*
X124007394Y-115860449D01*
X123461461Y-115633758D01*
X122870333Y-115633242D01*
X122324005Y-115858980D01*
X121905649Y-116276606D01*
X121678958Y-116822539D01*
X121678442Y-117413667D01*
X121384600Y-117413667D01*
X121384600Y-113649173D01*
X121630440Y-113547594D01*
X122131036Y-113047871D01*
X122402291Y-112394618D01*
X122402305Y-112378919D01*
X133584085Y-109587369D01*
X133662500Y-109550356D01*
X133745922Y-109526711D01*
X133795315Y-109487667D01*
X133852251Y-109460793D01*
X133910533Y-109396591D01*
X133978556Y-109342820D01*
X134009247Y-109287848D01*
X134051566Y-109241230D01*
X134080841Y-109159613D01*
X134123111Y-109083902D01*
X134130429Y-109021366D01*
X134151685Y-108962106D01*
X134147499Y-108875499D01*
X134157577Y-108789375D01*
X134140408Y-108728801D01*
X134137368Y-108665915D01*
X134100358Y-108587504D01*
X134076711Y-108504077D01*
X129022955Y-98617667D01*
X130314442Y-98617667D01*
X130540180Y-99163995D01*
X130957806Y-99582351D01*
X131503739Y-99809042D01*
X132094867Y-99809558D01*
X132641195Y-99583820D01*
X133059551Y-99166194D01*
X133193326Y-98844026D01*
X134251245Y-98844026D01*
X134650628Y-99810607D01*
X135389504Y-100550773D01*
X136355385Y-100951842D01*
X137401226Y-100952755D01*
X138367807Y-100553372D01*
X139107973Y-99814496D01*
X139509042Y-98848615D01*
X139509243Y-98617667D01*
X140474442Y-98617667D01*
X140700180Y-99163995D01*
X141117806Y-99582351D01*
X141663739Y-99809042D01*
X142254867Y-99809558D01*
X142801195Y-99583820D01*
X143219551Y-99166194D01*
X143446242Y-98620261D01*
X143446758Y-98029133D01*
X143221020Y-97482805D01*
X142803394Y-97064449D01*
X142257461Y-96837758D01*
X141666333Y-96837242D01*
X141120005Y-97062980D01*
X140701649Y-97480606D01*
X140474958Y-98026539D01*
X140474442Y-98617667D01*
X139509243Y-98617667D01*
X139509955Y-97802774D01*
X139110572Y-96836193D01*
X138371696Y-96096027D01*
X137405815Y-95694958D01*
X136359974Y-95694045D01*
X135393393Y-96093428D01*
X134653227Y-96832304D01*
X134252158Y-97798185D01*
X134251245Y-98844026D01*
X133193326Y-98844026D01*
X133286242Y-98620261D01*
X133286758Y-98029133D01*
X133093503Y-97561421D01*
X133422714Y-97561708D01*
X134076440Y-97291594D01*
X134577036Y-96791871D01*
X134848291Y-96138618D01*
X134848908Y-95431286D01*
X134578794Y-94777560D01*
X134079071Y-94276964D01*
X133425818Y-94005709D01*
X132718486Y-94005092D01*
X132064760Y-94275206D01*
X131564164Y-94774929D01*
X131292909Y-95428182D01*
X131292292Y-96135514D01*
X131562406Y-96789240D01*
X131610415Y-96837333D01*
X131506333Y-96837242D01*
X130960005Y-97062980D01*
X130541649Y-97480606D01*
X130314958Y-98026539D01*
X130314442Y-98617667D01*
X129022955Y-98617667D01*
X126076711Y-92854078D01*
X126001130Y-92758463D01*
X125932495Y-92657737D01*
X125909709Y-92642810D01*
X125892820Y-92621444D01*
X125786401Y-92562030D01*
X125684446Y-92495238D01*
X125657686Y-92490167D01*
X125633903Y-92476889D01*
X125512846Y-92462722D01*
X125393093Y-92440031D01*
X122228338Y-92468793D01*
X122132794Y-92237560D01*
X121633071Y-91736964D01*
X121384600Y-91633790D01*
X121384600Y-79821667D01*
X121678442Y-79821667D01*
X121904180Y-80367995D01*
X122321806Y-80786351D01*
X122867739Y-81013042D01*
X123458867Y-81013558D01*
X124005195Y-80787820D01*
X124423551Y-80370194D01*
X124650242Y-79824261D01*
X124650244Y-79821667D01*
X130314442Y-79821667D01*
X130540180Y-80367995D01*
X130957806Y-80786351D01*
X131503739Y-81013042D01*
X132094867Y-81013558D01*
X132641195Y-80787820D01*
X133059551Y-80370194D01*
X133286242Y-79824261D01*
X133286758Y-79233133D01*
X133093503Y-78765421D01*
X133422714Y-78765708D01*
X134076440Y-78495594D01*
X134577036Y-77995871D01*
X134848291Y-77342618D01*
X134848908Y-76635286D01*
X134578794Y-75981560D01*
X134079071Y-75480964D01*
X133425818Y-75209709D01*
X132718486Y-75209092D01*
X132064760Y-75479206D01*
X131564164Y-75978929D01*
X131292909Y-76632182D01*
X131292292Y-77339514D01*
X131562406Y-77993240D01*
X131610415Y-78041333D01*
X131506333Y-78041242D01*
X130960005Y-78266980D01*
X130541649Y-78684606D01*
X130314958Y-79230539D01*
X130314442Y-79821667D01*
X124650244Y-79821667D01*
X124650758Y-79233133D01*
X124425020Y-78686805D01*
X124007394Y-78268449D01*
X123461461Y-78041758D01*
X122870333Y-78041242D01*
X122324005Y-78266980D01*
X121905649Y-78684606D01*
X121678958Y-79230539D01*
X121678442Y-79821667D01*
X121384600Y-79821667D01*
X121384600Y-76057173D01*
X121630440Y-75955594D01*
X122131036Y-75455871D01*
X122402291Y-74802618D01*
X122402908Y-74095286D01*
X122300994Y-73848636D01*
X122814416Y-73335215D01*
X122979597Y-73088004D01*
X123037600Y-72796400D01*
X123037600Y-72144062D01*
X123148877Y-72069709D01*
X123416591Y-71669046D01*
X123510600Y-71196432D01*
X123510600Y-70332368D01*
X123580600Y-70332368D01*
X123580600Y-71196432D01*
X123674609Y-71669046D01*
X123942323Y-72069709D01*
X124342986Y-72337423D01*
X124815600Y-72431432D01*
X125288214Y-72337423D01*
X125688877Y-72069709D01*
X125956591Y-71669046D01*
X126050600Y-71196432D01*
X126050600Y-70332368D01*
X126120600Y-70332368D01*
X126120600Y-71196432D01*
X126214609Y-71669046D01*
X126482323Y-72069709D01*
X126882986Y-72337423D01*
X127355600Y-72431432D01*
X127828214Y-72337423D01*
X128228877Y-72069709D01*
X128496591Y-71669046D01*
X128590600Y-71196432D01*
X128590600Y-70332368D01*
X128660600Y-70332368D01*
X128660600Y-71196432D01*
X128754609Y-71669046D01*
X129022323Y-72069709D01*
X129422986Y-72337423D01*
X129895600Y-72431432D01*
X130368214Y-72337423D01*
X130768877Y-72069709D01*
X131036591Y-71669046D01*
X131130600Y-71196432D01*
X131130600Y-70332368D01*
X131200600Y-70332368D01*
X131200600Y-71196432D01*
X131294609Y-71669046D01*
X131562323Y-72069709D01*
X131962986Y-72337423D01*
X132435600Y-72431432D01*
X132908214Y-72337423D01*
X133308877Y-72069709D01*
X133576591Y-71669046D01*
X133670600Y-71196432D01*
X133670600Y-70891400D01*
X133740600Y-70891400D01*
X133740600Y-71291400D01*
X133883210Y-71754347D01*
X134192126Y-72127480D01*
X134620319Y-72353992D01*
X134657991Y-72357862D01*
X134848600Y-72233131D01*
X134848600Y-70891400D01*
X135102600Y-70891400D01*
X135102600Y-72233131D01*
X135293209Y-72357862D01*
X135330881Y-72353992D01*
X135759074Y-72127480D01*
X136067990Y-71754347D01*
X136210600Y-71291400D01*
X136210600Y-70891400D01*
X135102600Y-70891400D01*
X134848600Y-70891400D01*
X133740600Y-70891400D01*
X133670600Y-70891400D01*
X133670600Y-70332368D01*
X133651710Y-70237400D01*
X133740600Y-70237400D01*
X133740600Y-70637400D01*
X134848600Y-70637400D01*
X134848600Y-69295669D01*
X135102600Y-69295669D01*
X135102600Y-70637400D01*
X136210600Y-70637400D01*
X136210600Y-70237400D01*
X136067990Y-69774453D01*
X135759074Y-69401320D01*
X135330881Y-69174808D01*
X135293209Y-69170938D01*
X135102600Y-69295669D01*
X134848600Y-69295669D01*
X134657991Y-69170938D01*
X134620319Y-69174808D01*
X134192126Y-69401320D01*
X133883210Y-69774453D01*
X133740600Y-70237400D01*
X133651710Y-70237400D01*
X133576591Y-69859754D01*
X133308877Y-69459091D01*
X132908214Y-69191377D01*
X132435600Y-69097368D01*
X131962986Y-69191377D01*
X131562323Y-69459091D01*
X131294609Y-69859754D01*
X131200600Y-70332368D01*
X131130600Y-70332368D01*
X131036591Y-69859754D01*
X130768877Y-69459091D01*
X130368214Y-69191377D01*
X129895600Y-69097368D01*
X129422986Y-69191377D01*
X129022323Y-69459091D01*
X128754609Y-69859754D01*
X128660600Y-70332368D01*
X128590600Y-70332368D01*
X128496591Y-69859754D01*
X128228877Y-69459091D01*
X127828214Y-69191377D01*
X127355600Y-69097368D01*
X126882986Y-69191377D01*
X126482323Y-69459091D01*
X126214609Y-69859754D01*
X126120600Y-70332368D01*
X126050600Y-70332368D01*
X125956591Y-69859754D01*
X125688877Y-69459091D01*
X125288214Y-69191377D01*
X124815600Y-69097368D01*
X124342986Y-69191377D01*
X123942323Y-69459091D01*
X123674609Y-69859754D01*
X123580600Y-70332368D01*
X123510600Y-70332368D01*
X123416591Y-69859754D01*
X123148877Y-69459091D01*
X122748214Y-69191377D01*
X122275600Y-69097368D01*
X121802986Y-69191377D01*
X121402323Y-69459091D01*
X121134609Y-69859754D01*
X121040600Y-70332368D01*
X121040600Y-71196432D01*
X121134609Y-71669046D01*
X121402323Y-72069709D01*
X121513600Y-72144062D01*
X121513600Y-72480769D01*
X121223482Y-72770887D01*
X120979818Y-72669709D01*
X120272486Y-72669092D01*
X120085120Y-72746510D01*
X120274415Y-72557215D01*
X120317863Y-72492191D01*
X120439596Y-72310005D01*
X120468773Y-72163323D01*
X120608877Y-72069709D01*
X120876591Y-71669046D01*
X120970600Y-71196432D01*
X120970600Y-70332368D01*
X120876591Y-69859754D01*
X120608877Y-69459091D01*
X120208214Y-69191377D01*
X119735600Y-69097368D01*
X119262986Y-69191377D01*
X118862323Y-69459091D01*
X118594609Y-69859754D01*
X118500600Y-70332368D01*
X118500600Y-71196432D01*
X118594609Y-71669046D01*
X118759919Y-71916451D01*
X116838570Y-73837800D01*
X116453830Y-73837800D01*
X117734415Y-72557216D01*
X117899596Y-72310005D01*
X117914887Y-72233131D01*
X117928773Y-72163323D01*
X118068877Y-72069709D01*
X118336591Y-71669046D01*
X118430600Y-71196432D01*
X118430600Y-70332368D01*
X118336591Y-69859754D01*
X118068877Y-69459091D01*
X117668214Y-69191377D01*
X117195600Y-69097368D01*
X116722986Y-69191377D01*
X116322323Y-69459091D01*
X116054609Y-69859754D01*
X115960600Y-70332368D01*
X115960600Y-71196432D01*
X116054609Y-71669046D01*
X116219919Y-71916450D01*
X115009770Y-73126600D01*
X110109000Y-73126600D01*
X109817395Y-73184604D01*
X109570185Y-73349785D01*
X108966000Y-73953970D01*
X108966000Y-70201119D01*
X109575204Y-70201119D01*
X109922494Y-71041623D01*
X110564995Y-71685246D01*
X111404892Y-72034002D01*
X112314319Y-72034796D01*
X113154823Y-71687506D01*
X113458067Y-71384791D01*
X113514609Y-71669046D01*
X113782323Y-72069709D01*
X114182986Y-72337423D01*
X114655600Y-72431432D01*
X115128214Y-72337423D01*
X115528877Y-72069709D01*
X115796591Y-71669046D01*
X115890600Y-71196432D01*
X115890600Y-70332368D01*
X115796591Y-69859754D01*
X115528877Y-69459091D01*
X115128214Y-69191377D01*
X114655600Y-69097368D01*
X114182986Y-69191377D01*
X114121793Y-69232265D01*
X113800706Y-68455177D01*
X113158205Y-67811554D01*
X112318308Y-67462798D01*
X111408881Y-67462004D01*
X110568377Y-67809294D01*
X109924754Y-68451795D01*
X109575998Y-69291692D01*
X109575204Y-70201119D01*
X108966000Y-70201119D01*
X108966000Y-65231630D01*
X113545467Y-60652163D01*
X117527443Y-60652163D01*
X117626042Y-60918965D01*
X118235582Y-61145401D01*
X118885377Y-61121341D01*
X119373958Y-60918965D01*
X119472557Y-60652163D01*
X118500000Y-59679605D01*
X117527443Y-60652163D01*
X113545467Y-60652163D01*
X114962048Y-59235582D01*
X116854599Y-59235582D01*
X116878659Y-59885377D01*
X117081035Y-60373958D01*
X117347837Y-60472557D01*
X118320395Y-59500000D01*
X118679605Y-59500000D01*
X119652163Y-60472557D01*
X119918965Y-60373958D01*
X120145401Y-59764418D01*
X120121341Y-59114623D01*
X119918965Y-58626042D01*
X119652163Y-58527443D01*
X118679605Y-59500000D01*
X118320395Y-59500000D01*
X117347837Y-58527443D01*
X117081035Y-58626042D01*
X116854599Y-59235582D01*
X114962048Y-59235582D01*
X115849793Y-58347837D01*
X117527443Y-58347837D01*
X118500000Y-59320395D01*
X119472557Y-58347837D01*
X119373958Y-58081035D01*
X118764418Y-57854599D01*
X118114623Y-57878659D01*
X117626042Y-58081035D01*
X117527443Y-58347837D01*
X115849793Y-58347837D01*
X127197623Y-47000008D01*
X127355600Y-47031432D01*
X127828214Y-46937423D01*
X128228877Y-46669709D01*
X128496591Y-46269046D01*
X128590600Y-45796432D01*
X128590600Y-44932368D01*
X128526477Y-44610000D01*
X128724723Y-44610000D01*
X128660600Y-44932368D01*
X128660600Y-45796432D01*
X128754609Y-46269046D01*
X129022323Y-46669709D01*
X129422986Y-46937423D01*
X129895600Y-47031432D01*
X130368214Y-46937423D01*
X130768877Y-46669709D01*
X131036591Y-46269046D01*
X131130600Y-45796432D01*
X131130600Y-44932368D01*
X131066477Y-44610000D01*
X131264723Y-44610000D01*
X131200600Y-44932368D01*
X131200600Y-45796432D01*
X131294609Y-46269046D01*
X131562323Y-46669709D01*
X131675600Y-46745398D01*
X131675600Y-47091600D01*
X131733452Y-47382439D01*
X131898199Y-47629001D01*
X138660600Y-54391402D01*
X138660600Y-66134379D01*
X138593117Y-65971057D01*
X138330327Y-65707808D01*
X137986799Y-65565162D01*
X137614833Y-65564838D01*
X137271057Y-65706883D01*
X137239886Y-65738000D01*
X133260466Y-65738000D01*
X133230327Y-65707808D01*
X132886799Y-65565162D01*
X132514833Y-65564838D01*
X132171057Y-65706883D01*
X131907808Y-65969673D01*
X131765162Y-66313201D01*
X131764838Y-66685167D01*
X131906883Y-67028943D01*
X132169673Y-67292192D01*
X132513201Y-67434838D01*
X132885167Y-67435162D01*
X133228943Y-67293117D01*
X133260114Y-67262000D01*
X137239534Y-67262000D01*
X137269673Y-67292192D01*
X137613201Y-67434838D01*
X137985167Y-67435162D01*
X138328943Y-67293117D01*
X138592192Y-67030327D01*
X138660600Y-66865583D01*
X138660600Y-69879909D01*
X138656591Y-69859754D01*
X138388877Y-69459091D01*
X137988214Y-69191377D01*
X137515600Y-69097368D01*
X137042986Y-69191377D01*
X136642323Y-69459091D01*
X136374609Y-69859754D01*
X136280600Y-70332368D01*
X136280600Y-71196432D01*
X136374609Y-71669046D01*
X136642323Y-72069709D01*
X137042986Y-72337423D01*
X137515600Y-72431432D01*
X137988214Y-72337423D01*
X138388877Y-72069709D01*
X138656591Y-71669046D01*
X138660600Y-71648891D01*
X138660600Y-72837627D01*
X138414760Y-72939206D01*
X137914164Y-73438929D01*
X137642909Y-74092182D01*
X137642292Y-74799514D01*
X137912406Y-75453240D01*
X138412129Y-75953836D01*
X138660600Y-76057010D01*
X138660600Y-77589435D01*
X138371696Y-77300027D01*
X137405815Y-76898958D01*
X136359974Y-76898045D01*
X135393393Y-77297428D01*
X134653227Y-78036304D01*
X134252158Y-79002185D01*
X134251245Y-80048026D01*
X134650628Y-81014607D01*
X135389504Y-81754773D01*
X136355385Y-82155842D01*
X137401226Y-82156755D01*
X138367807Y-81757372D01*
X138660600Y-81465089D01*
X138660600Y-91633627D01*
X138414760Y-91735206D01*
X137914164Y-92234929D01*
X137642909Y-92888182D01*
X137642292Y-93595514D01*
X137912406Y-94249240D01*
X138412129Y-94749836D01*
X139065382Y-95021091D01*
X139772714Y-95021708D01*
X140426440Y-94751594D01*
X140927036Y-94251871D01*
X141029617Y-94004830D01*
X146231355Y-94009451D01*
X149306880Y-108836235D01*
X140811755Y-110916317D01*
X140429071Y-110532964D01*
X139775818Y-110261709D01*
X139068486Y-110261092D01*
X138414760Y-110531206D01*
X137914164Y-111030929D01*
X137642909Y-111684182D01*
X137642292Y-112391514D01*
X137912406Y-113045240D01*
X138412129Y-113545836D01*
X138660600Y-113649010D01*
X138660600Y-115181435D01*
X138371696Y-114892027D01*
X137405815Y-114490958D01*
X136359974Y-114490045D01*
X135393393Y-114889428D01*
X134653227Y-115628304D01*
X134252158Y-116594185D01*
X134251245Y-117640026D01*
X134650628Y-118606607D01*
X135389504Y-119346773D01*
X136355385Y-119747842D01*
X137401226Y-119748755D01*
X138367807Y-119349372D01*
X138660600Y-119057089D01*
X138660600Y-129225627D01*
X138414760Y-129327206D01*
X137914164Y-129826929D01*
X137642909Y-130480182D01*
X137642292Y-131187514D01*
X137912406Y-131841240D01*
X138412129Y-132341836D01*
X139065382Y-132613091D01*
X139772714Y-132613708D01*
X140426440Y-132343594D01*
X140927036Y-131843871D01*
X141198291Y-131190618D01*
X141198908Y-130483286D01*
X140928794Y-129829560D01*
X140429071Y-129328964D01*
X140180600Y-129225790D01*
X140180600Y-117413667D01*
X140474442Y-117413667D01*
X140700180Y-117959995D01*
X141117806Y-118378351D01*
X141663739Y-118605042D01*
X142254867Y-118605558D01*
X142801195Y-118379820D01*
X143219551Y-117962194D01*
X143446242Y-117416261D01*
X143446244Y-117413667D01*
X149110442Y-117413667D01*
X149336180Y-117959995D01*
X149753806Y-118378351D01*
X150299739Y-118605042D01*
X150890867Y-118605558D01*
X151437195Y-118379820D01*
X151855551Y-117962194D01*
X151989326Y-117640026D01*
X153047245Y-117640026D01*
X153446628Y-118606607D01*
X154185504Y-119346773D01*
X155151385Y-119747842D01*
X156197226Y-119748755D01*
X157163807Y-119349372D01*
X157456600Y-119057089D01*
X157456600Y-129225627D01*
X157210760Y-129327206D01*
X156710164Y-129826929D01*
X156438909Y-130480182D01*
X156438292Y-131187514D01*
X156708406Y-131841240D01*
X157208129Y-132341836D01*
X157861382Y-132613091D01*
X158568714Y-132613708D01*
X159222440Y-132343594D01*
X159723036Y-131843871D01*
X159994291Y-131190618D01*
X159994908Y-130483286D01*
X159724794Y-129829560D01*
X159225071Y-129328964D01*
X158976600Y-129225790D01*
X158976600Y-117413667D01*
X159270442Y-117413667D01*
X159496180Y-117959995D01*
X159913806Y-118378351D01*
X160459739Y-118605042D01*
X161050867Y-118605558D01*
X161597195Y-118379820D01*
X162015551Y-117962194D01*
X162242242Y-117416261D01*
X162242244Y-117413667D01*
X167906442Y-117413667D01*
X168132180Y-117959995D01*
X168549806Y-118378351D01*
X169095739Y-118605042D01*
X169686867Y-118605558D01*
X170233195Y-118379820D01*
X170651551Y-117962194D01*
X170878242Y-117416261D01*
X170878758Y-116825133D01*
X170685503Y-116357421D01*
X171014714Y-116357708D01*
X171668440Y-116087594D01*
X172169036Y-115587871D01*
X172440291Y-114934618D01*
X172440908Y-114227286D01*
X172170794Y-113573560D01*
X171671071Y-113072964D01*
X171017818Y-112801709D01*
X170310486Y-112801092D01*
X169656760Y-113071206D01*
X169156164Y-113570929D01*
X168884909Y-114224182D01*
X168884292Y-114931514D01*
X169154406Y-115585240D01*
X169202415Y-115633333D01*
X169098333Y-115633242D01*
X168552005Y-115858980D01*
X168133649Y-116276606D01*
X167906958Y-116822539D01*
X167906442Y-117413667D01*
X162242244Y-117413667D01*
X162242758Y-116825133D01*
X162017020Y-116278805D01*
X161599394Y-115860449D01*
X161053461Y-115633758D01*
X160462333Y-115633242D01*
X159916005Y-115858980D01*
X159497649Y-116276606D01*
X159270958Y-116822539D01*
X159270442Y-117413667D01*
X158976600Y-117413667D01*
X158976600Y-113649173D01*
X159222440Y-113547594D01*
X159723036Y-113047871D01*
X159994291Y-112394618D01*
X159994908Y-111687286D01*
X159878847Y-111406398D01*
X162598009Y-108576580D01*
X162635282Y-108518314D01*
X162683952Y-108469171D01*
X162714410Y-108394621D01*
X162757807Y-108326782D01*
X162769946Y-108258689D01*
X162796105Y-108194660D01*
X162795716Y-108114130D01*
X162809849Y-108034847D01*
X162795005Y-107967293D01*
X162794671Y-107898126D01*
X161353629Y-100832371D01*
X161434838Y-100636799D01*
X161435162Y-100264833D01*
X161293117Y-99921057D01*
X161143574Y-99771252D01*
X161597195Y-99583820D01*
X162015551Y-99166194D01*
X162242242Y-98620261D01*
X162242244Y-98617667D01*
X167906442Y-98617667D01*
X168132180Y-99163995D01*
X168549806Y-99582351D01*
X169095739Y-99809042D01*
X169686867Y-99809558D01*
X170233195Y-99583820D01*
X170651551Y-99166194D01*
X170878242Y-98620261D01*
X170878758Y-98029133D01*
X170685503Y-97561421D01*
X171014714Y-97561708D01*
X171668440Y-97291594D01*
X172169036Y-96791871D01*
X172440291Y-96138618D01*
X172440908Y-95431286D01*
X172170794Y-94777560D01*
X171671071Y-94276964D01*
X171017818Y-94005709D01*
X170310486Y-94005092D01*
X169656760Y-94275206D01*
X169156164Y-94774929D01*
X168884909Y-95428182D01*
X168884292Y-96135514D01*
X169154406Y-96789240D01*
X169202415Y-96837333D01*
X169098333Y-96837242D01*
X168552005Y-97062980D01*
X168133649Y-97480606D01*
X167906958Y-98026539D01*
X167906442Y-98617667D01*
X162242244Y-98617667D01*
X162242758Y-98029133D01*
X162017020Y-97482805D01*
X161599394Y-97064449D01*
X161053461Y-96837758D01*
X160462333Y-96837242D01*
X159916005Y-97062980D01*
X159497649Y-97480606D01*
X159270958Y-98026539D01*
X159270442Y-98617667D01*
X159496180Y-99163995D01*
X159913806Y-99582351D01*
X160032329Y-99631566D01*
X159971057Y-99656883D01*
X159707808Y-99919673D01*
X159565162Y-100263201D01*
X159564838Y-100635167D01*
X159706883Y-100978943D01*
X159864416Y-101136751D01*
X161225619Y-107811039D01*
X158785514Y-110350444D01*
X158571818Y-110261709D01*
X157864486Y-110261092D01*
X157210760Y-110531206D01*
X156710164Y-111030929D01*
X156438909Y-111684182D01*
X156438292Y-112391514D01*
X156708406Y-113045240D01*
X157208129Y-113545836D01*
X157456600Y-113649010D01*
X157456600Y-115181435D01*
X157167696Y-114892027D01*
X156201815Y-114490958D01*
X155155974Y-114490045D01*
X154189393Y-114889428D01*
X153449227Y-115628304D01*
X153048158Y-116594185D01*
X153047245Y-117640026D01*
X151989326Y-117640026D01*
X152082242Y-117416261D01*
X152082758Y-116825133D01*
X151889503Y-116357421D01*
X152218714Y-116357708D01*
X152872440Y-116087594D01*
X153373036Y-115587871D01*
X153644291Y-114934618D01*
X153644908Y-114227286D01*
X153374794Y-113573560D01*
X152875071Y-113072964D01*
X152221818Y-112801709D01*
X151514486Y-112801092D01*
X150860760Y-113071206D01*
X150360164Y-113570929D01*
X150088909Y-114224182D01*
X150088292Y-114931514D01*
X150358406Y-115585240D01*
X150406415Y-115633333D01*
X150302333Y-115633242D01*
X149756005Y-115858980D01*
X149337649Y-116276606D01*
X149110958Y-116822539D01*
X149110442Y-117413667D01*
X143446244Y-117413667D01*
X143446758Y-116825133D01*
X143221020Y-116278805D01*
X142803394Y-115860449D01*
X142257461Y-115633758D01*
X141666333Y-115633242D01*
X141120005Y-115858980D01*
X140701649Y-116276606D01*
X140474958Y-116822539D01*
X140474442Y-117413667D01*
X140180600Y-117413667D01*
X140180600Y-113649173D01*
X140426440Y-113547594D01*
X140927036Y-113047871D01*
X141198291Y-112394618D01*
X141198298Y-112386571D01*
X150380751Y-110138193D01*
X150503089Y-110081124D01*
X150627388Y-110028442D01*
X150637029Y-110018642D01*
X150649486Y-110012831D01*
X150740666Y-109913295D01*
X150835350Y-109817050D01*
X150840507Y-109804306D01*
X150849791Y-109794171D01*
X150895940Y-109667319D01*
X150946584Y-109542166D01*
X150946472Y-109528420D01*
X150951171Y-109515502D01*
X150945263Y-109380639D01*
X150944159Y-109245639D01*
X148739596Y-98617667D01*
X149110442Y-98617667D01*
X149336180Y-99163995D01*
X149753806Y-99582351D01*
X150299739Y-99809042D01*
X150890867Y-99809558D01*
X151437195Y-99583820D01*
X151855551Y-99166194D01*
X151989326Y-98844026D01*
X153047245Y-98844026D01*
X153446628Y-99810607D01*
X154185504Y-100550773D01*
X155151385Y-100951842D01*
X156197226Y-100952755D01*
X157163807Y-100553372D01*
X157903973Y-99814496D01*
X158305042Y-98848615D01*
X158305955Y-97802774D01*
X157906572Y-96836193D01*
X157167696Y-96096027D01*
X156201815Y-95694958D01*
X155155974Y-95694045D01*
X154189393Y-96093428D01*
X153449227Y-96832304D01*
X153048158Y-97798185D01*
X153047245Y-98844026D01*
X151989326Y-98844026D01*
X152082242Y-98620261D01*
X152082758Y-98029133D01*
X151889503Y-97561421D01*
X152218714Y-97561708D01*
X152872440Y-97291594D01*
X153373036Y-96791871D01*
X153644291Y-96138618D01*
X153644908Y-95431286D01*
X153374794Y-94777560D01*
X152875071Y-94276964D01*
X152221818Y-94005709D01*
X151514486Y-94005092D01*
X150860760Y-94275206D01*
X150360164Y-94774929D01*
X150088909Y-95428182D01*
X150088292Y-96135514D01*
X150358406Y-96789240D01*
X150406415Y-96837333D01*
X150302333Y-96837242D01*
X149756005Y-97062980D01*
X149337649Y-97480606D01*
X149110958Y-98026539D01*
X149110442Y-98617667D01*
X148739596Y-98617667D01*
X147594159Y-93095639D01*
X147566281Y-93029863D01*
X147552406Y-92959785D01*
X147508982Y-92894672D01*
X147478441Y-92822612D01*
X147427515Y-92772512D01*
X147387878Y-92713077D01*
X147322844Y-92669539D01*
X147267050Y-92614650D01*
X147200824Y-92587851D01*
X147141463Y-92548111D01*
X147064716Y-92532774D01*
X146992166Y-92503416D01*
X146920732Y-92504000D01*
X146850675Y-92490000D01*
X141030964Y-92484830D01*
X140928794Y-92237560D01*
X140429071Y-91736964D01*
X140180600Y-91633790D01*
X140180600Y-79821667D01*
X140474442Y-79821667D01*
X140700180Y-80367995D01*
X141117806Y-80786351D01*
X141663739Y-81013042D01*
X142254867Y-81013558D01*
X142801195Y-80787820D01*
X143219551Y-80370194D01*
X143446242Y-79824261D01*
X143446244Y-79821667D01*
X149110442Y-79821667D01*
X149336180Y-80367995D01*
X149753806Y-80786351D01*
X150299739Y-81013042D01*
X150890867Y-81013558D01*
X151437195Y-80787820D01*
X151855551Y-80370194D01*
X152082242Y-79824261D01*
X152082758Y-79233133D01*
X151889503Y-78765421D01*
X152218714Y-78765708D01*
X152872440Y-78495594D01*
X153373036Y-77995871D01*
X153644291Y-77342618D01*
X153644908Y-76635286D01*
X153374794Y-75981560D01*
X152875071Y-75480964D01*
X152221818Y-75209709D01*
X151514486Y-75209092D01*
X150860760Y-75479206D01*
X150360164Y-75978929D01*
X150088909Y-76632182D01*
X150088292Y-77339514D01*
X150358406Y-77993240D01*
X150406415Y-78041333D01*
X150302333Y-78041242D01*
X149756005Y-78266980D01*
X149337649Y-78684606D01*
X149110958Y-79230539D01*
X149110442Y-79821667D01*
X143446244Y-79821667D01*
X143446758Y-79233133D01*
X143221020Y-78686805D01*
X142803394Y-78268449D01*
X142257461Y-78041758D01*
X141666333Y-78041242D01*
X141120005Y-78266980D01*
X140701649Y-78684606D01*
X140474958Y-79230539D01*
X140474442Y-79821667D01*
X140180600Y-79821667D01*
X140180600Y-76057173D01*
X140426440Y-75955594D01*
X140927036Y-75455871D01*
X141198291Y-74802618D01*
X141198908Y-74095286D01*
X140928794Y-73441560D01*
X140429071Y-72940964D01*
X140180600Y-72837790D01*
X140180600Y-54076600D01*
X140122748Y-53785761D01*
X139958001Y-53539199D01*
X133195600Y-46776798D01*
X133195600Y-46745398D01*
X133308877Y-46669709D01*
X133576591Y-46269046D01*
X133670600Y-45796432D01*
X133670600Y-44932368D01*
X133606477Y-44610000D01*
X133804723Y-44610000D01*
X133740600Y-44932368D01*
X133740600Y-45796432D01*
X133834609Y-46269046D01*
X134102323Y-46669709D01*
X134245652Y-46765478D01*
X134273452Y-46905239D01*
X134438199Y-47151801D01*
X147047126Y-59760728D01*
X147087399Y-59821001D01*
X157456600Y-70190202D01*
X157456600Y-72837627D01*
X157210760Y-72939206D01*
X156710164Y-73438929D01*
X156438909Y-74092182D01*
X156438292Y-74799514D01*
X156708406Y-75453240D01*
X157208129Y-75953836D01*
X157456600Y-76057010D01*
X157456600Y-77589435D01*
X157167696Y-77300027D01*
X156201815Y-76898958D01*
X155155974Y-76898045D01*
X154189393Y-77297428D01*
X153449227Y-78036304D01*
X153048158Y-79002185D01*
X153047245Y-80048026D01*
X153446628Y-81014607D01*
X154185504Y-81754773D01*
X155151385Y-82155842D01*
X156197226Y-82156755D01*
X157163807Y-81757372D01*
X157456600Y-81465089D01*
X157456600Y-91633627D01*
X157210760Y-91735206D01*
X156710164Y-92234929D01*
X156438909Y-92888182D01*
X156438292Y-93595514D01*
X156708406Y-94249240D01*
X157208129Y-94749836D01*
X157861382Y-95021091D01*
X158568714Y-95021708D01*
X159222440Y-94751594D01*
X159723036Y-94251871D01*
X159994291Y-93598618D01*
X159994908Y-92891286D01*
X159724794Y-92237560D01*
X159225071Y-91736964D01*
X158976600Y-91633790D01*
X158976600Y-79821667D01*
X159270442Y-79821667D01*
X159496180Y-80367995D01*
X159913806Y-80786351D01*
X160459739Y-81013042D01*
X161050867Y-81013558D01*
X161597195Y-80787820D01*
X162015551Y-80370194D01*
X162242242Y-79824261D01*
X162242244Y-79821667D01*
X167906442Y-79821667D01*
X168132180Y-80367995D01*
X168549806Y-80786351D01*
X169095739Y-81013042D01*
X169686867Y-81013558D01*
X170233195Y-80787820D01*
X170651551Y-80370194D01*
X170878242Y-79824261D01*
X170878758Y-79233133D01*
X170685503Y-78765421D01*
X171014714Y-78765708D01*
X171668440Y-78495594D01*
X172169036Y-77995871D01*
X172440291Y-77342618D01*
X172440908Y-76635286D01*
X172170794Y-75981560D01*
X171671071Y-75480964D01*
X171017818Y-75209709D01*
X170310486Y-75209092D01*
X169656760Y-75479206D01*
X169156164Y-75978929D01*
X168884909Y-76632182D01*
X168884292Y-77339514D01*
X169154406Y-77993240D01*
X169202415Y-78041333D01*
X169098333Y-78041242D01*
X168552005Y-78266980D01*
X168133649Y-78684606D01*
X167906958Y-79230539D01*
X167906442Y-79821667D01*
X162242244Y-79821667D01*
X162242758Y-79233133D01*
X162017020Y-78686805D01*
X161599394Y-78268449D01*
X161053461Y-78041758D01*
X160462333Y-78041242D01*
X159916005Y-78266980D01*
X159497649Y-78684606D01*
X159270958Y-79230539D01*
X159270442Y-79821667D01*
X158976600Y-79821667D01*
X158976600Y-76057173D01*
X159222440Y-75955594D01*
X159723036Y-75455871D01*
X159994291Y-74802618D01*
X159994908Y-74095286D01*
X159724794Y-73441560D01*
X159225071Y-72940964D01*
X158976600Y-72837790D01*
X158976600Y-70028493D01*
X159002000Y-69900800D01*
X158976868Y-69774453D01*
X158944148Y-69609960D01*
X158779401Y-69363399D01*
X148202475Y-58786473D01*
X148162201Y-58726199D01*
X135951750Y-46515748D01*
X136116591Y-46269046D01*
X136210600Y-45796432D01*
X136210600Y-44932368D01*
X136146477Y-44610000D01*
X136344723Y-44610000D01*
X136280600Y-44932368D01*
X136280600Y-45796432D01*
X136374609Y-46269046D01*
X136642323Y-46669709D01*
X137042986Y-46937423D01*
X137515600Y-47031432D01*
X137675937Y-46999539D01*
X150427312Y-59750914D01*
X150440199Y-59770201D01*
X165654799Y-74984801D01*
X165901361Y-75149548D01*
X166192200Y-75207400D01*
X175402827Y-75207400D01*
X175504406Y-75453240D01*
X176004129Y-75953836D01*
X176250600Y-76056180D01*
X176250600Y-77587432D01*
X175963696Y-77300027D01*
X174997815Y-76898958D01*
X173951974Y-76898045D01*
X172985393Y-77297428D01*
X172245227Y-78036304D01*
X171844158Y-79002185D01*
X171843245Y-80048026D01*
X172242628Y-81014607D01*
X172981504Y-81754773D01*
X173947385Y-82155842D01*
X174993226Y-82156755D01*
X175959807Y-81757372D01*
X176250600Y-81467086D01*
X176250600Y-91634453D01*
X176006760Y-91735206D01*
X175506164Y-92234929D01*
X175234909Y-92888182D01*
X175234292Y-93595514D01*
X175504406Y-94249240D01*
X176004129Y-94749836D01*
X176250600Y-94852180D01*
X176250600Y-96383432D01*
X175963696Y-96096027D01*
X174997815Y-95694958D01*
X173951974Y-95694045D01*
X172985393Y-96093428D01*
X172245227Y-96832304D01*
X171844158Y-97798185D01*
X171843245Y-98844026D01*
X172242628Y-99810607D01*
X172981504Y-100550773D01*
X173947385Y-100951842D01*
X174993226Y-100952755D01*
X175959807Y-100553372D01*
X176250600Y-100263086D01*
X176250600Y-110430453D01*
X176006760Y-110531206D01*
X175506164Y-111030929D01*
X175234909Y-111684182D01*
X175234292Y-112391514D01*
X175504406Y-113045240D01*
X176004129Y-113545836D01*
X176250600Y-113648180D01*
X176250600Y-115179432D01*
X175963696Y-114892027D01*
X174997815Y-114490958D01*
X173951974Y-114490045D01*
X172985393Y-114889428D01*
X172245227Y-115628304D01*
X171844158Y-116594185D01*
X171843245Y-117640026D01*
X172242628Y-118606607D01*
X172981504Y-119346773D01*
X173947385Y-119747842D01*
X174993226Y-119748755D01*
X175959807Y-119349372D01*
X176250600Y-119059086D01*
X176250600Y-129226453D01*
X176006760Y-129327206D01*
X175506164Y-129826929D01*
X175234909Y-130480182D01*
X175234292Y-131187514D01*
X175504406Y-131841240D01*
X176004129Y-132341836D01*
X176657382Y-132613091D01*
X177364714Y-132613708D01*
X178018440Y-132343594D01*
X178519036Y-131843871D01*
X178790291Y-131190618D01*
X178790908Y-130483286D01*
X178520794Y-129829560D01*
X178021071Y-129328964D01*
X177774600Y-129226620D01*
X177774600Y-117413667D01*
X178066442Y-117413667D01*
X178292180Y-117959995D01*
X178709806Y-118378351D01*
X179255739Y-118605042D01*
X179846867Y-118605558D01*
X180393195Y-118379820D01*
X180811551Y-117962194D01*
X181038242Y-117416261D01*
X181038758Y-116825133D01*
X180813020Y-116278805D01*
X180395394Y-115860449D01*
X179849461Y-115633758D01*
X179258333Y-115633242D01*
X178712005Y-115858980D01*
X178293649Y-116276606D01*
X178066958Y-116822539D01*
X178066442Y-117413667D01*
X177774600Y-117413667D01*
X177774600Y-113648347D01*
X178018440Y-113547594D01*
X178519036Y-113047871D01*
X178790291Y-112394618D01*
X178790908Y-111687286D01*
X178520794Y-111033560D01*
X178021071Y-110532964D01*
X177774600Y-110430620D01*
X177774600Y-98617667D01*
X178066442Y-98617667D01*
X178292180Y-99163995D01*
X178709806Y-99582351D01*
X179255739Y-99809042D01*
X179846867Y-99809558D01*
X180393195Y-99583820D01*
X180811551Y-99166194D01*
X181038242Y-98620261D01*
X181038758Y-98029133D01*
X180813020Y-97482805D01*
X180515902Y-97185167D01*
X184564838Y-97185167D01*
X184706883Y-97528943D01*
X184969673Y-97792192D01*
X185313201Y-97934838D01*
X185685167Y-97935162D01*
X186028943Y-97793117D01*
X186292192Y-97530327D01*
X186434838Y-97186799D01*
X186435162Y-96814833D01*
X186293117Y-96471057D01*
X186262000Y-96439886D01*
X186262000Y-76340000D01*
X191985907Y-76340000D01*
X192098946Y-76908285D01*
X192420853Y-77390054D01*
X192750026Y-77610000D01*
X192420853Y-77829946D01*
X192098946Y-78311715D01*
X191985907Y-78880000D01*
X192098946Y-79448285D01*
X192420853Y-79930054D01*
X192750026Y-80150000D01*
X192420853Y-80369946D01*
X192098946Y-80851715D01*
X191985907Y-81420000D01*
X192098946Y-81988285D01*
X192420853Y-82470054D01*
X192750026Y-82690000D01*
X192420853Y-82909946D01*
X192098946Y-83391715D01*
X191985907Y-83960000D01*
X192098946Y-84528285D01*
X192420853Y-85010054D01*
X192750026Y-85230000D01*
X192420853Y-85449946D01*
X192098946Y-85931715D01*
X191985907Y-86500000D01*
X192098946Y-87068285D01*
X192420853Y-87550054D01*
X192750026Y-87770000D01*
X192420853Y-87989946D01*
X192098946Y-88471715D01*
X191985907Y-89040000D01*
X192098946Y-89608285D01*
X192420853Y-90090054D01*
X192750026Y-90310000D01*
X192420853Y-90529946D01*
X192098946Y-91011715D01*
X191985907Y-91580000D01*
X192098946Y-92148285D01*
X192420853Y-92630054D01*
X192902622Y-92951961D01*
X193470907Y-93065000D01*
X193529093Y-93065000D01*
X194097378Y-92951961D01*
X194579147Y-92630054D01*
X194901054Y-92148285D01*
X195014093Y-91580000D01*
X194901054Y-91011715D01*
X194579147Y-90529946D01*
X194249974Y-90310000D01*
X194579147Y-90090054D01*
X194901054Y-89608285D01*
X195014093Y-89040000D01*
X194901054Y-88471715D01*
X194579147Y-87989946D01*
X194249974Y-87770000D01*
X194579147Y-87550054D01*
X194901054Y-87068285D01*
X195014093Y-86500000D01*
X194901054Y-85931715D01*
X194579147Y-85449946D01*
X194249974Y-85230000D01*
X194579147Y-85010054D01*
X194901054Y-84528285D01*
X195014093Y-83960000D01*
X194901054Y-83391715D01*
X194579147Y-82909946D01*
X194249974Y-82690000D01*
X194579147Y-82470054D01*
X194901054Y-81988285D01*
X195014093Y-81420000D01*
X194901054Y-80851715D01*
X194579147Y-80369946D01*
X194249974Y-80150000D01*
X194579147Y-79930054D01*
X194901054Y-79448285D01*
X195014093Y-78880000D01*
X194901054Y-78311715D01*
X194579147Y-77829946D01*
X194249974Y-77610000D01*
X194579147Y-77390054D01*
X194901054Y-76908285D01*
X195014093Y-76340000D01*
X194901054Y-75771715D01*
X194579147Y-75289946D01*
X194535223Y-75260597D01*
X194597765Y-75248157D01*
X194807809Y-75107809D01*
X194948157Y-74897765D01*
X194997440Y-74650000D01*
X194997440Y-72950000D01*
X194948157Y-72702235D01*
X194807809Y-72492191D01*
X194597765Y-72351843D01*
X194350000Y-72302560D01*
X192650000Y-72302560D01*
X192402235Y-72351843D01*
X192192191Y-72492191D01*
X192051843Y-72702235D01*
X192002560Y-72950000D01*
X192002560Y-74650000D01*
X192051843Y-74897765D01*
X192192191Y-75107809D01*
X192402235Y-75248157D01*
X192464777Y-75260597D01*
X192420853Y-75289946D01*
X192098946Y-75771715D01*
X191985907Y-76340000D01*
X186262000Y-76340000D01*
X186262000Y-69211630D01*
X192181629Y-63292002D01*
X192192191Y-63307809D01*
X192402235Y-63448157D01*
X192464777Y-63460597D01*
X192420853Y-63489946D01*
X192098946Y-63971715D01*
X191985907Y-64540000D01*
X192098946Y-65108285D01*
X192420853Y-65590054D01*
X192902622Y-65911961D01*
X193470907Y-66025000D01*
X193529093Y-66025000D01*
X194097378Y-65911961D01*
X194579147Y-65590054D01*
X194901054Y-65108285D01*
X195014093Y-64540000D01*
X194901054Y-63971715D01*
X194579147Y-63489946D01*
X194535223Y-63460597D01*
X194597765Y-63448157D01*
X194807809Y-63307809D01*
X194948157Y-63097765D01*
X194997440Y-62850000D01*
X194997440Y-61150000D01*
X194948157Y-60902235D01*
X194807809Y-60692191D01*
X194597765Y-60551843D01*
X194350000Y-60502560D01*
X192650000Y-60502560D01*
X192402235Y-60551843D01*
X192192191Y-60692191D01*
X192051843Y-60902235D01*
X192002560Y-61150000D01*
X192002560Y-61364048D01*
X191857185Y-61461184D01*
X184961185Y-68357185D01*
X184796004Y-68604395D01*
X184738000Y-68896000D01*
X184738000Y-96439534D01*
X184707808Y-96469673D01*
X184565162Y-96813201D01*
X184564838Y-97185167D01*
X180515902Y-97185167D01*
X180395394Y-97064449D01*
X179849461Y-96837758D01*
X179258333Y-96837242D01*
X178712005Y-97062980D01*
X178293649Y-97480606D01*
X178066958Y-98026539D01*
X178066442Y-98617667D01*
X177774600Y-98617667D01*
X177774600Y-94852347D01*
X178018440Y-94751594D01*
X178519036Y-94251871D01*
X178790291Y-93598618D01*
X178790908Y-92891286D01*
X178520794Y-92237560D01*
X178021071Y-91736964D01*
X177774600Y-91634620D01*
X177774600Y-79821667D01*
X178066442Y-79821667D01*
X178292180Y-80367995D01*
X178709806Y-80786351D01*
X179255739Y-81013042D01*
X179846867Y-81013558D01*
X180393195Y-80787820D01*
X180811551Y-80370194D01*
X181038242Y-79824261D01*
X181038758Y-79233133D01*
X180813020Y-78686805D01*
X180395394Y-78268449D01*
X179849461Y-78041758D01*
X179258333Y-78041242D01*
X178712005Y-78266980D01*
X178293649Y-78684606D01*
X178066958Y-79230539D01*
X178066442Y-79821667D01*
X177774600Y-79821667D01*
X177774600Y-76056347D01*
X178018440Y-75955594D01*
X178519036Y-75455871D01*
X178790291Y-74802618D01*
X178790908Y-74095286D01*
X178520794Y-73441560D01*
X178021071Y-72940964D01*
X177367818Y-72669709D01*
X176660486Y-72669092D01*
X176006760Y-72939206D01*
X175506164Y-73438929D01*
X175402990Y-73687400D01*
X166507002Y-73687400D01*
X163020721Y-70201119D01*
X179575204Y-70201119D01*
X179922494Y-71041623D01*
X180564995Y-71685246D01*
X181404892Y-72034002D01*
X182314319Y-72034796D01*
X183154823Y-71687506D01*
X183798446Y-71045005D01*
X184147202Y-70205108D01*
X184147996Y-69295681D01*
X183800706Y-68455177D01*
X183158205Y-67811554D01*
X182318308Y-67462798D01*
X181408881Y-67462004D01*
X180568377Y-67809294D01*
X179924754Y-68451795D01*
X179575998Y-69291692D01*
X179575204Y-70201119D01*
X163020721Y-70201119D01*
X151527888Y-58708286D01*
X151515001Y-58688999D01*
X139808229Y-46982227D01*
X140055600Y-47031432D01*
X140528214Y-46937423D01*
X140928877Y-46669709D01*
X141196591Y-46269046D01*
X141290600Y-45796432D01*
X141290600Y-44932368D01*
X141226477Y-44610000D01*
X141424723Y-44610000D01*
X141360600Y-44932368D01*
X141360600Y-45796432D01*
X141454609Y-46269046D01*
X141722323Y-46669709D01*
X142122986Y-46937423D01*
X142595600Y-47031432D01*
X143068214Y-46937423D01*
X143468877Y-46669709D01*
X143736591Y-46269046D01*
X143830600Y-45796432D01*
X143830600Y-44932368D01*
X143766477Y-44610000D01*
X143964723Y-44610000D01*
X143900600Y-44932368D01*
X143900600Y-45796432D01*
X143994609Y-46269046D01*
X144262323Y-46669709D01*
X144662986Y-46937423D01*
X145135600Y-47031432D01*
X145608214Y-46937423D01*
X146008877Y-46669709D01*
X146276591Y-46269046D01*
X146370600Y-45796432D01*
X146370600Y-45491400D01*
X146440600Y-45491400D01*
X146440600Y-45891400D01*
X146583210Y-46354347D01*
X146892126Y-46727480D01*
X147320319Y-46953992D01*
X147357991Y-46957862D01*
X147548600Y-46833131D01*
X147548600Y-45491400D01*
X147802600Y-45491400D01*
X147802600Y-46833131D01*
X147993209Y-46957862D01*
X148030881Y-46953992D01*
X148459074Y-46727480D01*
X148767990Y-46354347D01*
X148910600Y-45891400D01*
X148910600Y-45491400D01*
X148980600Y-45491400D01*
X148980600Y-45891400D01*
X149123210Y-46354347D01*
X149432126Y-46727480D01*
X149860319Y-46953992D01*
X149897991Y-46957862D01*
X150088600Y-46833131D01*
X150088600Y-45491400D01*
X150342600Y-45491400D01*
X150342600Y-46833131D01*
X150533209Y-46957862D01*
X150570881Y-46953992D01*
X150999074Y-46727480D01*
X151307990Y-46354347D01*
X151450600Y-45891400D01*
X151450600Y-45491400D01*
X150342600Y-45491400D01*
X150088600Y-45491400D01*
X148980600Y-45491400D01*
X148910600Y-45491400D01*
X147802600Y-45491400D01*
X147548600Y-45491400D01*
X146440600Y-45491400D01*
X146370600Y-45491400D01*
X146370600Y-44932368D01*
X146306477Y-44610000D01*
X146510650Y-44610000D01*
X146440600Y-44837400D01*
X146440600Y-45237400D01*
X147548600Y-45237400D01*
X147548600Y-44610000D01*
X147802600Y-44610000D01*
X147802600Y-45237400D01*
X148910600Y-45237400D01*
X148910600Y-44837400D01*
X148840550Y-44610000D01*
X149050650Y-44610000D01*
X148980600Y-44837400D01*
X148980600Y-45237400D01*
X150088600Y-45237400D01*
X150088600Y-44610000D01*
X150342600Y-44610000D01*
X150342600Y-45237400D01*
X151450600Y-45237400D01*
X151450600Y-44837400D01*
X151380550Y-44610000D01*
X151584723Y-44610000D01*
X151520600Y-44932368D01*
X151520600Y-45796432D01*
X151614609Y-46269046D01*
X151882323Y-46669709D01*
X152282986Y-46937423D01*
X152755600Y-47031432D01*
X153228214Y-46937423D01*
X153628877Y-46669709D01*
X153896591Y-46269046D01*
X153990600Y-45796432D01*
X153990600Y-44932368D01*
X153926477Y-44610000D01*
X180399376Y-44610000D01*
X179924754Y-45083795D01*
X179575998Y-45923692D01*
X179575204Y-46833119D01*
X179922494Y-47673623D01*
X180564995Y-48317246D01*
X181404892Y-48666002D01*
X182314319Y-48666796D01*
X182593259Y-48551540D01*
X189214518Y-48551540D01*
X189637616Y-49575515D01*
X190420365Y-50359631D01*
X191443599Y-50784515D01*
X192551540Y-50785482D01*
X193575515Y-50362384D01*
X194359631Y-49579635D01*
X194784515Y-48556401D01*
X194785482Y-47448460D01*
X194362384Y-46424485D01*
X193579635Y-45640369D01*
X192556401Y-45215485D01*
X191448460Y-45214518D01*
X190424485Y-45637616D01*
X189640369Y-46420365D01*
X189215485Y-47443599D01*
X189214518Y-48551540D01*
X182593259Y-48551540D01*
X183154823Y-48319506D01*
X183798446Y-47677005D01*
X184147202Y-46837108D01*
X184147996Y-45927681D01*
X183800706Y-45087177D01*
X183324361Y-44610000D01*
X194930070Y-44610000D01*
X195067387Y-44637314D01*
X195124514Y-44675485D01*
X195162686Y-44732614D01*
X195190000Y-44869930D01*
X195190000Y-142930070D01*
X195162686Y-143067386D01*
X195124514Y-143124515D01*
X195067387Y-143162686D01*
X194930070Y-143190000D01*
X115256651Y-143190000D01*
X115295392Y-143151327D01*
X115438038Y-142807799D01*
X115438362Y-142435833D01*
X115296317Y-142092057D01*
X115033527Y-141828808D01*
X114689999Y-141686162D01*
X114645955Y-141686124D01*
X113511371Y-140551540D01*
X189214518Y-140551540D01*
X189637616Y-141575515D01*
X190420365Y-142359631D01*
X191443599Y-142784515D01*
X192551540Y-142785482D01*
X193575515Y-142362384D01*
X194359631Y-141579635D01*
X194784515Y-140556401D01*
X194785482Y-139448460D01*
X194362384Y-138424485D01*
X193579635Y-137640369D01*
X192556401Y-137215485D01*
X191448460Y-137214518D01*
X190424485Y-137637616D01*
X189640369Y-138420365D01*
X189215485Y-139443599D01*
X189214518Y-140551540D01*
X113511371Y-140551540D01*
X111429800Y-138469970D01*
X111429800Y-136209667D01*
X111518442Y-136209667D01*
X111744180Y-136755995D01*
X112161806Y-137174351D01*
X112707739Y-137401042D01*
X113298867Y-137401558D01*
X113845195Y-137175820D01*
X114263551Y-136758194D01*
X114397326Y-136436026D01*
X115455245Y-136436026D01*
X115854628Y-137402607D01*
X116593504Y-138142773D01*
X117559385Y-138543842D01*
X118605226Y-138544755D01*
X119571807Y-138145372D01*
X120311973Y-137406496D01*
X120713042Y-136440615D01*
X120713243Y-136209667D01*
X121678442Y-136209667D01*
X121904180Y-136755995D01*
X122321806Y-137174351D01*
X122867739Y-137401042D01*
X123458867Y-137401558D01*
X124005195Y-137175820D01*
X124423551Y-136758194D01*
X124650242Y-136212261D01*
X124650244Y-136209667D01*
X130314442Y-136209667D01*
X130540180Y-136755995D01*
X130957806Y-137174351D01*
X131503739Y-137401042D01*
X132094867Y-137401558D01*
X132641195Y-137175820D01*
X133059551Y-136758194D01*
X133193326Y-136436026D01*
X134251245Y-136436026D01*
X134650628Y-137402607D01*
X135389504Y-138142773D01*
X136355385Y-138543842D01*
X137401226Y-138544755D01*
X138367807Y-138145372D01*
X139107973Y-137406496D01*
X139509042Y-136440615D01*
X139509243Y-136209667D01*
X140474442Y-136209667D01*
X140700180Y-136755995D01*
X141117806Y-137174351D01*
X141663739Y-137401042D01*
X142254867Y-137401558D01*
X142801195Y-137175820D01*
X143219551Y-136758194D01*
X143446242Y-136212261D01*
X143446244Y-136209667D01*
X149110442Y-136209667D01*
X149336180Y-136755995D01*
X149753806Y-137174351D01*
X150299739Y-137401042D01*
X150890867Y-137401558D01*
X151437195Y-137175820D01*
X151855551Y-136758194D01*
X151989326Y-136436026D01*
X153047245Y-136436026D01*
X153446628Y-137402607D01*
X154185504Y-138142773D01*
X155151385Y-138543842D01*
X156197226Y-138544755D01*
X157163807Y-138145372D01*
X157903973Y-137406496D01*
X158305042Y-136440615D01*
X158305243Y-136209667D01*
X159270442Y-136209667D01*
X159496180Y-136755995D01*
X159913806Y-137174351D01*
X160459739Y-137401042D01*
X161050867Y-137401558D01*
X161597195Y-137175820D01*
X162015551Y-136758194D01*
X162242242Y-136212261D01*
X162242244Y-136209667D01*
X167906442Y-136209667D01*
X168132180Y-136755995D01*
X168549806Y-137174351D01*
X169095739Y-137401042D01*
X169686867Y-137401558D01*
X170233195Y-137175820D01*
X170651551Y-136758194D01*
X170785326Y-136436026D01*
X171843245Y-136436026D01*
X172242628Y-137402607D01*
X172981504Y-138142773D01*
X173947385Y-138543842D01*
X174993226Y-138544755D01*
X175959807Y-138145372D01*
X176699973Y-137406496D01*
X177101042Y-136440615D01*
X177101243Y-136209667D01*
X178066442Y-136209667D01*
X178292180Y-136755995D01*
X178709806Y-137174351D01*
X179255739Y-137401042D01*
X179846867Y-137401558D01*
X180393195Y-137175820D01*
X180811551Y-136758194D01*
X181038242Y-136212261D01*
X181038758Y-135621133D01*
X180813020Y-135074805D01*
X180395394Y-134656449D01*
X179849461Y-134429758D01*
X179258333Y-134429242D01*
X178712005Y-134654980D01*
X178293649Y-135072606D01*
X178066958Y-135618539D01*
X178066442Y-136209667D01*
X177101243Y-136209667D01*
X177101955Y-135394774D01*
X176702572Y-134428193D01*
X175963696Y-133688027D01*
X174997815Y-133286958D01*
X173951974Y-133286045D01*
X172985393Y-133685428D01*
X172245227Y-134424304D01*
X171844158Y-135390185D01*
X171843245Y-136436026D01*
X170785326Y-136436026D01*
X170878242Y-136212261D01*
X170878758Y-135621133D01*
X170685503Y-135153421D01*
X171014714Y-135153708D01*
X171668440Y-134883594D01*
X172169036Y-134383871D01*
X172440291Y-133730618D01*
X172440908Y-133023286D01*
X172170794Y-132369560D01*
X171671071Y-131868964D01*
X171017818Y-131597709D01*
X170310486Y-131597092D01*
X169656760Y-131867206D01*
X169156164Y-132366929D01*
X168884909Y-133020182D01*
X168884292Y-133727514D01*
X169154406Y-134381240D01*
X169202415Y-134429333D01*
X169098333Y-134429242D01*
X168552005Y-134654980D01*
X168133649Y-135072606D01*
X167906958Y-135618539D01*
X167906442Y-136209667D01*
X162242244Y-136209667D01*
X162242758Y-135621133D01*
X162017020Y-135074805D01*
X161599394Y-134656449D01*
X161053461Y-134429758D01*
X160462333Y-134429242D01*
X159916005Y-134654980D01*
X159497649Y-135072606D01*
X159270958Y-135618539D01*
X159270442Y-136209667D01*
X158305243Y-136209667D01*
X158305955Y-135394774D01*
X157906572Y-134428193D01*
X157167696Y-133688027D01*
X156201815Y-133286958D01*
X155155974Y-133286045D01*
X154189393Y-133685428D01*
X153449227Y-134424304D01*
X153048158Y-135390185D01*
X153047245Y-136436026D01*
X151989326Y-136436026D01*
X152082242Y-136212261D01*
X152082758Y-135621133D01*
X151889503Y-135153421D01*
X152218714Y-135153708D01*
X152872440Y-134883594D01*
X153373036Y-134383871D01*
X153644291Y-133730618D01*
X153644908Y-133023286D01*
X153374794Y-132369560D01*
X152875071Y-131868964D01*
X152221818Y-131597709D01*
X151514486Y-131597092D01*
X150860760Y-131867206D01*
X150360164Y-132366929D01*
X150088909Y-133020182D01*
X150088292Y-133727514D01*
X150358406Y-134381240D01*
X150406415Y-134429333D01*
X150302333Y-134429242D01*
X149756005Y-134654980D01*
X149337649Y-135072606D01*
X149110958Y-135618539D01*
X149110442Y-136209667D01*
X143446244Y-136209667D01*
X143446758Y-135621133D01*
X143221020Y-135074805D01*
X142803394Y-134656449D01*
X142257461Y-134429758D01*
X141666333Y-134429242D01*
X141120005Y-134654980D01*
X140701649Y-135072606D01*
X140474958Y-135618539D01*
X140474442Y-136209667D01*
X139509243Y-136209667D01*
X139509955Y-135394774D01*
X139110572Y-134428193D01*
X138371696Y-133688027D01*
X137405815Y-133286958D01*
X136359974Y-133286045D01*
X135393393Y-133685428D01*
X134653227Y-134424304D01*
X134252158Y-135390185D01*
X134251245Y-136436026D01*
X133193326Y-136436026D01*
X133286242Y-136212261D01*
X133286758Y-135621133D01*
X133093503Y-135153421D01*
X133422714Y-135153708D01*
X134076440Y-134883594D01*
X134577036Y-134383871D01*
X134848291Y-133730618D01*
X134848908Y-133023286D01*
X134578794Y-132369560D01*
X134079071Y-131868964D01*
X133425818Y-131597709D01*
X132718486Y-131597092D01*
X132064760Y-131867206D01*
X131564164Y-132366929D01*
X131292909Y-133020182D01*
X131292292Y-133727514D01*
X131562406Y-134381240D01*
X131610415Y-134429333D01*
X131506333Y-134429242D01*
X130960005Y-134654980D01*
X130541649Y-135072606D01*
X130314958Y-135618539D01*
X130314442Y-136209667D01*
X124650244Y-136209667D01*
X124650758Y-135621133D01*
X124425020Y-135074805D01*
X124007394Y-134656449D01*
X123461461Y-134429758D01*
X122870333Y-134429242D01*
X122324005Y-134654980D01*
X121905649Y-135072606D01*
X121678958Y-135618539D01*
X121678442Y-136209667D01*
X120713243Y-136209667D01*
X120713955Y-135394774D01*
X120314572Y-134428193D01*
X119575696Y-133688027D01*
X118609815Y-133286958D01*
X117563974Y-133286045D01*
X116597393Y-133685428D01*
X115857227Y-134424304D01*
X115456158Y-135390185D01*
X115455245Y-136436026D01*
X114397326Y-136436026D01*
X114490242Y-136212261D01*
X114490758Y-135621133D01*
X114297503Y-135153421D01*
X114626714Y-135153708D01*
X115280440Y-134883594D01*
X115781036Y-134383871D01*
X116052291Y-133730618D01*
X116052908Y-133023286D01*
X115782794Y-132369560D01*
X115283071Y-131868964D01*
X114629818Y-131597709D01*
X113922486Y-131597092D01*
X113268760Y-131867206D01*
X112768164Y-132366929D01*
X112496909Y-133020182D01*
X112496292Y-133727514D01*
X112766406Y-134381240D01*
X112814415Y-134429333D01*
X112710333Y-134429242D01*
X112164005Y-134654980D01*
X111745649Y-135072606D01*
X111518958Y-135618539D01*
X111518442Y-136209667D01*
X111429800Y-136209667D01*
X111429800Y-129211466D01*
X111459992Y-129181327D01*
X111602638Y-128837799D01*
X111602962Y-128465833D01*
X111460917Y-128122057D01*
X111198127Y-127858808D01*
X110854599Y-127716162D01*
X110482633Y-127715838D01*
X110138857Y-127857883D01*
X109875608Y-128120673D01*
X109732962Y-128464201D01*
X109732638Y-128836167D01*
X109874683Y-129179943D01*
X109905800Y-129211114D01*
X109905800Y-138785600D01*
X109963804Y-139077205D01*
X110128985Y-139324415D01*
X113568075Y-142763506D01*
X113568038Y-142806167D01*
X113710083Y-143149943D01*
X113750070Y-143190000D01*
X96869930Y-143190000D01*
X96732614Y-143162686D01*
X96675485Y-143124514D01*
X96637314Y-143067387D01*
X96610000Y-142930070D01*
X96610000Y-140551540D01*
X97214518Y-140551540D01*
X97637616Y-141575515D01*
X98420365Y-142359631D01*
X99443599Y-142784515D01*
X100551540Y-142785482D01*
X101575515Y-142362384D01*
X102359631Y-141579635D01*
X102784515Y-140556401D01*
X102785482Y-139448460D01*
X102362384Y-138424485D01*
X101579635Y-137640369D01*
X100556401Y-137215485D01*
X99448460Y-137214518D01*
X98424485Y-137637616D01*
X97640369Y-138420365D01*
X97215485Y-139443599D01*
X97214518Y-140551540D01*
X96610000Y-140551540D01*
X96610000Y-59235461D01*
X104854092Y-59235461D01*
X104878144Y-59885460D01*
X105080613Y-60374264D01*
X105347468Y-60472927D01*
X106320395Y-59500000D01*
X105347468Y-58527073D01*
X105080613Y-58625736D01*
X104854092Y-59235461D01*
X96610000Y-59235461D01*
X96610000Y-57323795D01*
X99864716Y-57323795D01*
X100113106Y-57924943D01*
X100572637Y-58385278D01*
X101173352Y-58634716D01*
X101823795Y-58635284D01*
X102424943Y-58386894D01*
X102464437Y-58347468D01*
X105527073Y-58347468D01*
X106500000Y-59320395D01*
X107472927Y-58347468D01*
X107374264Y-58080613D01*
X106764539Y-57854092D01*
X106114540Y-57878144D01*
X105625736Y-58080613D01*
X105527073Y-58347468D01*
X102464437Y-58347468D01*
X102885278Y-57927363D01*
X103134716Y-57326648D01*
X103135284Y-56676205D01*
X102886894Y-56075057D01*
X102427363Y-55614722D01*
X101826648Y-55365284D01*
X101176205Y-55364716D01*
X100575057Y-55613106D01*
X100114722Y-56072637D01*
X99865284Y-56673352D01*
X99864716Y-57323795D01*
X96610000Y-57323795D01*
X96610000Y-48551540D01*
X97214518Y-48551540D01*
X97637616Y-49575515D01*
X98420365Y-50359631D01*
X99443599Y-50784515D01*
X100551540Y-50785482D01*
X101575515Y-50362384D01*
X102359631Y-49579635D01*
X102784515Y-48556401D01*
X102785482Y-47448460D01*
X102362384Y-46424485D01*
X101579635Y-45640369D01*
X100556401Y-45215485D01*
X99448460Y-45214518D01*
X98424485Y-45637616D01*
X97640369Y-46420365D01*
X97215485Y-47443599D01*
X97214518Y-48551540D01*
X96610000Y-48551540D01*
X96610000Y-44869930D01*
X96637314Y-44732613D01*
X96675485Y-44675486D01*
X96732614Y-44637314D01*
X96869930Y-44610000D01*
X110399376Y-44610000D01*
X109924754Y-45083795D01*
M02*
