G04 #@! TF.FileFunction,Profile,NP*
%FSLAX46Y46*%
G04 Gerber Fmt 4.6, Leading zero omitted, Abs format (unit mm)*
G04 Created by KiCad (PCBNEW 4.0.7) date Thursday, July 26, 2018 'PMt' 01:10:45 PM*
%MOMM*%
%LPD*%
G01*
G04 APERTURE LIST*
%ADD10C,0.100000*%
G04 APERTURE END LIST*
D10*
X78663800Y-92278200D02*
X53428900Y-92263000D01*
X78663800Y-94272100D02*
X78663800Y-92278200D01*
X53055180Y-94272500D02*
X78663800Y-94272100D01*
X53601180Y-88437700D02*
X81193180Y-88442800D01*
X98649180Y-48807700D02*
X98650180Y-48808300D01*
X98626180Y-48808800D02*
X98649180Y-48807700D01*
X98603180Y-48809300D02*
X98626180Y-48808800D01*
X98601180Y-48810000D02*
X98603180Y-48809300D01*
X98599180Y-48810100D02*
X98601180Y-48810000D01*
X98096180Y-48935900D02*
X98599180Y-48810100D01*
X98078180Y-48944300D02*
X98096180Y-48935900D01*
X98060180Y-48951200D02*
X98078180Y-48944300D01*
X97525180Y-49284000D02*
X98060180Y-48951200D01*
X97515180Y-49293300D02*
X97525180Y-49284000D01*
X97503180Y-49300700D02*
X97515180Y-49293300D01*
X97024180Y-49765700D02*
X97503180Y-49300700D01*
X97013180Y-49781200D02*
X97024180Y-49765700D01*
X97001180Y-49795600D02*
X97013180Y-49781200D01*
X96858180Y-50055400D02*
X97001180Y-49795600D01*
X96856180Y-50061900D02*
X96858180Y-50055400D01*
X96852180Y-50067500D02*
X96856180Y-50061900D01*
X96849180Y-50085300D02*
X96852180Y-50067500D01*
X96843180Y-50102600D02*
X96849180Y-50085300D01*
X96844180Y-50109400D02*
X96843180Y-50102600D01*
X96842180Y-50116000D02*
X96844180Y-50109400D01*
X96731180Y-75749900D02*
X96842180Y-50116000D01*
X96731180Y-75750800D02*
X96731180Y-75749900D01*
X96731180Y-75751800D02*
X96731180Y-75750800D01*
X96751180Y-77640800D02*
X96731180Y-75751800D01*
X96749180Y-77650700D02*
X96751180Y-77640800D01*
X96738180Y-77652900D02*
X96749180Y-77650700D01*
X95056180Y-77657900D02*
X96738180Y-77652900D01*
X95046180Y-77656200D02*
X95056180Y-77657900D01*
X95044180Y-77645200D02*
X95046180Y-77656200D01*
X95024180Y-75758300D02*
X95044180Y-77645200D01*
X95024180Y-75757500D02*
X95024180Y-75758300D01*
X94856180Y-50038400D02*
X95024180Y-75757500D01*
X94854180Y-50028400D02*
X94856180Y-50038400D01*
X94855180Y-50018300D02*
X94854180Y-50028400D01*
X94849180Y-50004400D02*
X94855180Y-50018300D01*
X94846180Y-49989900D02*
X94849180Y-50004400D01*
X94841180Y-49981500D02*
X94846180Y-49989900D01*
X94837180Y-49971900D02*
X94841180Y-49981500D01*
X94758180Y-49845300D02*
X94837180Y-49971900D01*
X94753180Y-49840600D02*
X94758180Y-49845300D01*
X94751180Y-49834900D02*
X94753180Y-49840600D01*
X94466180Y-49467400D02*
X94751180Y-49834900D01*
X94458180Y-49460300D02*
X94466180Y-49467400D01*
X94452180Y-49451600D02*
X94458180Y-49460300D01*
X94156180Y-49179300D02*
X94452180Y-49451600D01*
X94137180Y-49167900D02*
X94156180Y-49179300D01*
X94119180Y-49155600D02*
X94137180Y-49167900D01*
X93612180Y-48942400D02*
X94119180Y-49155600D01*
X93595180Y-48939000D02*
X93612180Y-48942400D01*
X93579180Y-48933500D02*
X93595180Y-48939000D01*
X92999180Y-48861600D02*
X93579180Y-48933500D01*
X92982180Y-48862800D02*
X92999180Y-48861600D01*
X92965180Y-48861900D02*
X92982180Y-48862800D01*
X92386180Y-48946600D02*
X92965180Y-48861900D01*
X92382180Y-48948000D02*
X92386180Y-48946600D01*
X92378180Y-48948000D02*
X92382180Y-48948000D01*
X92359180Y-48956200D02*
X92378180Y-48948000D01*
X92339180Y-48963200D02*
X92359180Y-48956200D01*
X92336180Y-48965900D02*
X92339180Y-48963200D01*
X92333180Y-48967500D02*
X92336180Y-48965900D01*
X91793180Y-49336900D02*
X92333180Y-48967500D01*
X91780180Y-49349700D02*
X91793180Y-49336900D01*
X91766180Y-49361000D02*
X91780180Y-49349700D01*
X91263180Y-49972300D02*
X91766180Y-49361000D01*
X91254180Y-49988900D02*
X91263180Y-49972300D01*
X91244180Y-50004500D02*
X91254180Y-49988900D01*
X91243180Y-50010600D02*
X91244180Y-50004500D01*
X91240180Y-50016000D02*
X91243180Y-50010600D01*
X91238180Y-50034700D02*
X91240180Y-50016000D01*
X91234180Y-50053100D02*
X91238180Y-50034700D01*
X91259180Y-78372100D02*
X91234180Y-50053100D01*
X91259180Y-78373600D02*
X91259180Y-78372100D01*
X91257180Y-78377800D02*
X91259180Y-78373600D01*
X91249180Y-78385900D02*
X91257180Y-78377800D01*
X90904180Y-78594500D02*
X91249180Y-78385900D01*
X90893180Y-78599900D02*
X90904180Y-78594500D01*
X90563180Y-78718100D02*
X90893180Y-78599900D01*
X90559180Y-78720600D02*
X90563180Y-78718100D01*
X90554180Y-78721600D02*
X90559180Y-78720600D01*
X89817180Y-79049600D02*
X90554180Y-78721600D01*
X89816180Y-79050100D02*
X89817180Y-79049600D01*
X89425180Y-79213600D02*
X89816180Y-79050100D01*
X89418180Y-79215300D02*
X89425180Y-79213600D01*
X89403180Y-79213500D02*
X89418180Y-79215300D01*
X89322180Y-79186500D02*
X89403180Y-79213500D01*
X89311180Y-79179500D02*
X89322180Y-79186500D01*
X89309180Y-79169200D02*
X89311180Y-79179500D01*
X89243180Y-57466300D02*
X89309180Y-79169200D01*
X89239180Y-57446600D02*
X89243180Y-57466300D01*
X89236180Y-57426700D02*
X89239180Y-57446600D01*
X89234180Y-57422500D02*
X89236180Y-57426700D01*
X89233180Y-57417800D02*
X89234180Y-57422500D01*
X89222180Y-57401100D02*
X89233180Y-57417800D01*
X89212180Y-57383600D02*
X89222180Y-57401100D01*
X89017180Y-57157900D02*
X89212180Y-57383600D01*
X89012180Y-57152000D02*
X89017180Y-57157900D01*
X88853180Y-56917700D02*
X89012180Y-57152000D01*
X88851180Y-56916500D02*
X88853180Y-56917700D01*
X88851180Y-56915000D02*
X88851180Y-56916500D01*
X88777180Y-56812400D02*
X88851180Y-56915000D01*
X88774180Y-56810300D02*
X88777180Y-56812400D01*
X88773180Y-56807500D02*
X88774180Y-56810300D01*
X88756180Y-56793500D02*
X88773180Y-56807500D01*
X88741180Y-56778600D02*
X88756180Y-56793500D01*
X88738180Y-56777500D02*
X88741180Y-56778600D01*
X88735180Y-56775500D02*
X88738180Y-56777500D01*
X88476180Y-56632100D02*
X88735180Y-56775500D01*
X88476180Y-56632000D02*
X88476180Y-56632100D01*
X88475180Y-56631700D02*
X88476180Y-56632000D01*
X88369180Y-56573500D02*
X88475180Y-56631700D01*
X88363180Y-56571800D02*
X88369180Y-56573500D01*
X88359180Y-56568700D02*
X88363180Y-56571800D01*
X88158180Y-56480400D02*
X88359180Y-56568700D01*
X88155180Y-56479900D02*
X88158180Y-56480400D01*
X88153180Y-56478500D02*
X88155180Y-56479900D01*
X87888180Y-56374200D02*
X88153180Y-56478500D01*
X87870180Y-56371100D02*
X87888180Y-56374200D01*
X87853180Y-56366000D02*
X87870180Y-56371100D01*
X87506180Y-56333100D02*
X87853180Y-56366000D01*
X87495180Y-56334200D02*
X87506180Y-56333100D01*
X87485180Y-56332900D02*
X87495180Y-56334200D01*
X87017180Y-56365900D02*
X87485180Y-56332900D01*
X86993180Y-56372300D02*
X87017180Y-56365900D01*
X86970180Y-56378400D02*
X86993180Y-56372300D01*
X86639180Y-56539300D02*
X86970180Y-56378400D01*
X86637180Y-56540800D02*
X86639180Y-56539300D01*
X86635180Y-56541500D02*
X86637180Y-56540800D01*
X86206180Y-56770600D02*
X86635180Y-56541500D01*
X86192180Y-56782000D02*
X86206180Y-56770600D01*
X86177180Y-56791800D02*
X86192180Y-56782000D01*
X85783180Y-57176100D02*
X86177180Y-56791800D01*
X85778180Y-57184000D02*
X85783180Y-57176100D01*
X85771180Y-57190400D02*
X85778180Y-57184000D01*
X85764180Y-57204300D02*
X85771180Y-57190400D01*
X85755180Y-57217000D02*
X85764180Y-57204300D01*
X85753180Y-57226400D02*
X85755180Y-57217000D01*
X85749180Y-57235000D02*
X85753180Y-57226400D01*
X85533180Y-58064200D02*
X85749180Y-57235000D01*
X85532180Y-58080000D02*
X85533180Y-58064200D01*
X85529180Y-58095600D02*
X85532180Y-58080000D01*
X85407180Y-81782700D02*
X85529180Y-58095600D01*
X85406180Y-81790200D02*
X85407180Y-81782700D01*
X85399180Y-81802600D02*
X85406180Y-81790200D01*
X84703180Y-82577500D02*
X85399180Y-81802600D01*
X84687180Y-82590700D02*
X84703180Y-82577500D01*
X84486180Y-82699900D02*
X84687180Y-82590700D01*
X84457180Y-82707600D02*
X84486180Y-82699900D01*
X60874180Y-82849600D02*
X84457180Y-82707600D01*
X60861180Y-82852200D02*
X60874180Y-82849600D01*
X60848180Y-82852400D02*
X60861180Y-82852200D01*
X60211180Y-82987600D02*
X60848180Y-82852400D01*
X60192180Y-82995800D02*
X60211180Y-82987600D01*
X60172180Y-83002900D02*
X60192180Y-82995800D01*
X59605180Y-83343100D02*
X60172180Y-83002900D01*
X59603180Y-83345200D02*
X59605180Y-83343100D01*
X59600180Y-83346300D02*
X59603180Y-83345200D01*
X59584180Y-83361700D02*
X59600180Y-83346300D01*
X59568180Y-83376400D02*
X59584180Y-83361700D01*
X59567180Y-83379200D02*
X59568180Y-83376400D01*
X59565180Y-83381400D02*
X59567180Y-83379200D01*
X59164180Y-83980900D02*
X59565180Y-83381400D01*
X59163180Y-83982000D02*
X59164180Y-83980900D01*
X59162180Y-83982800D02*
X59163180Y-83982000D01*
X59154180Y-84004800D02*
X59162180Y-83982800D01*
X59145180Y-84026700D02*
X59154180Y-84004800D01*
X59145180Y-84027800D02*
X59145180Y-84026700D01*
X59144180Y-84028900D02*
X59145180Y-84027800D01*
X59027180Y-84674900D02*
X59144180Y-84028900D01*
X59027180Y-84679000D02*
X59027180Y-84674900D01*
X59026180Y-84682900D02*
X59027180Y-84679000D01*
X59028180Y-84703600D02*
X59026180Y-84682900D01*
X59028180Y-84724500D02*
X59028180Y-84703600D01*
X59030180Y-84728200D02*
X59028180Y-84724500D01*
X59030180Y-84732200D02*
X59030180Y-84728200D01*
X59221180Y-85405500D02*
X59030180Y-84732200D01*
X59228180Y-85419000D02*
X59221180Y-85405500D01*
X59233180Y-85433500D02*
X59228180Y-85419000D01*
X59468180Y-85848400D02*
X59233180Y-85433500D01*
X59482180Y-85864600D02*
X59468180Y-85848400D01*
X59495180Y-85881500D02*
X59482180Y-85864600D01*
X60231180Y-86521900D02*
X59495180Y-85881500D01*
X60248180Y-86532000D02*
X60231180Y-86521900D01*
X60265180Y-86543400D02*
X60248180Y-86532000D01*
X60270180Y-86544300D02*
X60265180Y-86543400D01*
X60274180Y-86546500D02*
X60270180Y-86544300D01*
X60294180Y-86549100D02*
X60274180Y-86546500D01*
X60314180Y-86553100D02*
X60294180Y-86549100D01*
X80123180Y-86583500D02*
X60314180Y-86553100D01*
X80125180Y-86583600D02*
X80123180Y-86583500D01*
X81573180Y-86628800D02*
X80125180Y-86583600D01*
X81599180Y-86635400D02*
X81573180Y-86628800D01*
X81815180Y-86743300D02*
X81599180Y-86635400D01*
X81827180Y-86753900D02*
X81815180Y-86743300D01*
X81823180Y-86761300D02*
X81827180Y-86753900D01*
X81707180Y-86917100D02*
X81823180Y-86761300D01*
X81698180Y-86935900D02*
X81707180Y-86917100D01*
X81687180Y-86954100D02*
X81698180Y-86935900D01*
X81511180Y-87497900D02*
X81687180Y-86954100D01*
X81511180Y-87498000D02*
X81511180Y-87497900D01*
X81511180Y-87498100D02*
X81511180Y-87498000D01*
X81211180Y-88428800D02*
X81511180Y-87498100D01*
X81203180Y-88440800D02*
X81211180Y-88428800D01*
X81193180Y-88442800D02*
X81203180Y-88440800D01*
X53587180Y-88440700D02*
X53601180Y-88437700D01*
X53571180Y-88441300D02*
X53587180Y-88440700D01*
X52772180Y-88636400D02*
X53571180Y-88441300D01*
X52755180Y-88644400D02*
X52772180Y-88636400D01*
X52737180Y-88650800D02*
X52755180Y-88644400D01*
X52162180Y-88995900D02*
X52737180Y-88650800D01*
X52146180Y-89009800D02*
X52162180Y-88995900D01*
X52130180Y-89022700D02*
X52146180Y-89009800D01*
X51716180Y-89512400D02*
X52130180Y-89022700D01*
X51714180Y-89516100D02*
X51716180Y-89512400D01*
X51710180Y-89518900D02*
X51714180Y-89516100D01*
X51702180Y-89537600D02*
X51710180Y-89518900D01*
X51692180Y-89555800D02*
X51702180Y-89537600D01*
X51691180Y-89559900D02*
X51692180Y-89555800D01*
X51689180Y-89563700D02*
X51691180Y-89559900D01*
X51558180Y-90089900D02*
X51689180Y-89563700D01*
X51557180Y-90104300D02*
X51558180Y-90089900D01*
X51554180Y-90118500D02*
X51557180Y-90104300D01*
X51544180Y-90676100D02*
X51554180Y-90118500D01*
X51548180Y-90697600D02*
X51544180Y-90676100D01*
X51551180Y-90719400D02*
X51548180Y-90697600D01*
X51733180Y-91251100D02*
X51551180Y-90719400D01*
X51734180Y-91253300D02*
X51733180Y-91251100D01*
X51735180Y-91255700D02*
X51734180Y-91253300D01*
X51747180Y-91274600D02*
X51735180Y-91255700D01*
X51758180Y-91294000D02*
X51747180Y-91274600D01*
X51760180Y-91295500D02*
X51758180Y-91294000D01*
X51761180Y-91297600D02*
X51760180Y-91295500D01*
X52330180Y-91894300D02*
X51761180Y-91297600D01*
X52335180Y-91898100D02*
X52330180Y-91894300D01*
X52339180Y-91903200D02*
X52335180Y-91898100D01*
X52355180Y-91912200D02*
X52339180Y-91903200D01*
X52370180Y-91922900D02*
X52355180Y-91912200D01*
X52377180Y-91924300D02*
X52370180Y-91922900D01*
X53429180Y-92263000D02*
X52377180Y-91924300D01*
X68941180Y-92259800D02*
X68931180Y-92257900D01*
X68943180Y-92270600D02*
X68941180Y-92259800D01*
X52779180Y-94333300D02*
X53055180Y-94272500D01*
X52769180Y-94337600D02*
X52779180Y-94333300D01*
X52758180Y-94339700D02*
X52769180Y-94337600D01*
X52343180Y-94509500D02*
X52758180Y-94339700D01*
X52324180Y-94522400D02*
X52343180Y-94509500D01*
X52304180Y-94534800D02*
X52324180Y-94522400D01*
X51958180Y-94862400D02*
X52304180Y-94534800D01*
X51948180Y-94876200D02*
X51958180Y-94862400D01*
X51937180Y-94888500D02*
X51948180Y-94876200D01*
X51713180Y-95255000D02*
X51937180Y-94888500D01*
X51709180Y-95266300D02*
X51713180Y-95255000D01*
X51702180Y-95276500D02*
X51709180Y-95266300D01*
X51532180Y-95731400D02*
X51702180Y-95276500D01*
X51528180Y-95753700D02*
X51532180Y-95731400D01*
X51524180Y-95775900D02*
X51528180Y-95753700D01*
X51524180Y-96292000D02*
X51524180Y-95775900D01*
X51528180Y-96315900D02*
X51524180Y-96292000D01*
X51533180Y-96339800D02*
X51528180Y-96315900D01*
X51706180Y-96765600D02*
X51533180Y-96339800D01*
X51714180Y-96777700D02*
X51706180Y-96765600D01*
X51720180Y-96791000D02*
X51714180Y-96777700D01*
X51891180Y-97033300D02*
X51720180Y-96791000D01*
X51895180Y-97037400D02*
X51891180Y-97033300D01*
X51898180Y-97042700D02*
X51895180Y-97037400D01*
X52281180Y-97489400D02*
X51898180Y-97042700D01*
X52293180Y-97498400D02*
X52281180Y-97489400D01*
X52303180Y-97509100D02*
X52293180Y-97498400D01*
X52621180Y-97743000D02*
X52303180Y-97509100D01*
X52638180Y-97751100D02*
X52621180Y-97743000D01*
X52654180Y-97760700D02*
X52638180Y-97751100D01*
X52880180Y-97838900D02*
X52654180Y-97760700D01*
X52901180Y-97841800D02*
X52880180Y-97838900D01*
X52922180Y-97845900D02*
X52901180Y-97841800D01*
X81161180Y-97906800D02*
X52922180Y-97845900D01*
X81175180Y-97910200D02*
X81161180Y-97906800D01*
X81179180Y-97919000D02*
X81175180Y-97910200D01*
X81312180Y-98346700D02*
X81179180Y-97919000D01*
X81313180Y-98348700D02*
X81312180Y-98346700D01*
X81314180Y-98350900D02*
X81313180Y-98348700D01*
X81539180Y-98997500D02*
X81314180Y-98350900D01*
X81543180Y-99003600D02*
X81539180Y-98997500D01*
X81544180Y-99010400D02*
X81543180Y-99003600D01*
X81858180Y-99666700D02*
X81544180Y-99010400D01*
X81859180Y-99671100D02*
X81858180Y-99666700D01*
X81859180Y-99673500D02*
X81859180Y-99671100D01*
X81851180Y-99681200D02*
X81859180Y-99673500D01*
X81825180Y-99696400D02*
X81851180Y-99681200D01*
X81794180Y-99705300D02*
X81825180Y-99696400D01*
X60991180Y-99867600D02*
X81794180Y-99705300D01*
X60978180Y-99870300D02*
X60991180Y-99867600D01*
X60965180Y-99870600D02*
X60978180Y-99870300D01*
X60083180Y-100064300D02*
X60965180Y-99870600D01*
X60078180Y-100066500D02*
X60083180Y-100064300D01*
X60073180Y-100067000D02*
X60078180Y-100066500D01*
X60056180Y-100076300D02*
X60073180Y-100067000D01*
X60038180Y-100084200D02*
X60056180Y-100076300D01*
X60034180Y-100088100D02*
X60038180Y-100084200D01*
X60029180Y-100090700D02*
X60034180Y-100088100D01*
X59645180Y-100410300D02*
X60029180Y-100090700D01*
X59634180Y-100423700D02*
X59645180Y-100410300D01*
X59621180Y-100435800D02*
X59634180Y-100423700D01*
X59346180Y-100834400D02*
X59621180Y-100435800D01*
X59340180Y-100849700D02*
X59346180Y-100834400D01*
X59331180Y-100863900D02*
X59340180Y-100849700D01*
X59165180Y-101330000D02*
X59331180Y-100863900D01*
X59162180Y-101346700D02*
X59165180Y-101330000D01*
X59158180Y-101363000D02*
X59162180Y-101346700D01*
X59120180Y-101856400D02*
X59158180Y-101363000D01*
X59122180Y-101874100D02*
X59120180Y-101856400D01*
X59122180Y-101892000D02*
X59122180Y-101874100D01*
X59221180Y-102368500D02*
X59122180Y-101892000D01*
X59229180Y-102386100D02*
X59221180Y-102368500D01*
X59234180Y-102404200D02*
X59229180Y-102386100D01*
X59425180Y-102749000D02*
X59234180Y-102404200D01*
X59436180Y-102761400D02*
X59425180Y-102749000D01*
X59445180Y-102775100D02*
X59436180Y-102761400D01*
X59838180Y-103187700D02*
X59445180Y-102775100D01*
X59858180Y-103201400D02*
X59838180Y-103187700D01*
X59877180Y-103215400D02*
X59858180Y-103201400D01*
X60638180Y-103564700D02*
X59877180Y-103215400D01*
X60640180Y-103565200D02*
X60638180Y-103564700D01*
X60641180Y-103566300D02*
X60640180Y-103565200D01*
X60664180Y-103570900D02*
X60641180Y-103566300D01*
X60686180Y-103576200D02*
X60664180Y-103570900D01*
X60688180Y-103575900D02*
X60686180Y-103576200D01*
X60690180Y-103576300D02*
X60688180Y-103575900D01*
X84266180Y-103723300D02*
X60690180Y-103576300D01*
X84300180Y-103733500D02*
X84266180Y-103723300D01*
X84902180Y-104128600D02*
X84300180Y-103733500D01*
X84906180Y-104131300D02*
X84902180Y-104128600D01*
X85057180Y-104246600D02*
X84906180Y-104131300D01*
X85057180Y-104246700D02*
X85057180Y-104246600D01*
X85057180Y-104246900D02*
X85057180Y-104246700D01*
X85445180Y-104541400D02*
X85057180Y-104246900D01*
X85457180Y-104556400D02*
X85445180Y-104541400D01*
X85458180Y-104564200D02*
X85457180Y-104556400D01*
X85504180Y-127849400D02*
X85458180Y-104564200D01*
X85505180Y-127853400D02*
X85504180Y-127849400D01*
X85504180Y-127857400D02*
X85505180Y-127853400D01*
X85548180Y-128485400D02*
X85504180Y-127857400D01*
X85553180Y-128503400D02*
X85548180Y-128485400D01*
X85556180Y-128520400D02*
X85553180Y-128503400D01*
X85738180Y-129008400D02*
X85556180Y-128520400D01*
X85745180Y-129020400D02*
X85738180Y-129008400D01*
X85750180Y-129033400D02*
X85745180Y-129020400D01*
X86040180Y-129475400D02*
X85750180Y-129033400D01*
X86056180Y-129491400D02*
X86040180Y-129475400D01*
X86071180Y-129507400D02*
X86056180Y-129491400D01*
X86479180Y-129806400D02*
X86071180Y-129507400D01*
X86491180Y-129812400D02*
X86479180Y-129806400D01*
X86502180Y-129819400D02*
X86491180Y-129812400D01*
X86910180Y-130003400D02*
X86502180Y-129819400D01*
X86932180Y-130008400D02*
X86910180Y-130003400D01*
X86954180Y-130013400D02*
X86932180Y-130008400D01*
X87405180Y-130041400D02*
X86954180Y-130013400D01*
X87424180Y-130039400D02*
X87405180Y-130041400D01*
X87443180Y-130038400D02*
X87424180Y-130039400D01*
X87975180Y-129909400D02*
X87443180Y-130038400D01*
X87987180Y-129903400D02*
X87975180Y-129909400D01*
X88000180Y-129900400D02*
X87987180Y-129903400D01*
X88353180Y-129730400D02*
X88000180Y-129900400D01*
X88367180Y-129720400D02*
X88353180Y-129730400D01*
X88382180Y-129711400D02*
X88367180Y-129720400D01*
X88738180Y-129393400D02*
X88382180Y-129711400D01*
X88744180Y-129386400D02*
X88738180Y-129393400D01*
X88751180Y-129380400D02*
X88744180Y-129386400D01*
X89093180Y-128969400D02*
X88751180Y-129380400D01*
X89099180Y-128959400D02*
X89093180Y-128969400D01*
X89106180Y-128950400D02*
X89099180Y-128959400D01*
X89201180Y-128781400D02*
X89106180Y-128950400D01*
X89204180Y-128774400D02*
X89201180Y-128781400D01*
X89208180Y-128768400D02*
X89204180Y-128774400D01*
X89211180Y-128751400D02*
X89208180Y-128768400D01*
X89217180Y-128734400D02*
X89211180Y-128751400D01*
X89216180Y-128726400D02*
X89217180Y-128734400D01*
X89218180Y-128719400D02*
X89216180Y-128726400D01*
X89349180Y-107204400D02*
X89218180Y-128719400D01*
X89351180Y-107196400D02*
X89349180Y-107204400D01*
X89361180Y-107197400D02*
X89351180Y-107196400D01*
X89740180Y-107350400D02*
X89361180Y-107197400D01*
X89741180Y-107351400D02*
X89740180Y-107350400D01*
X90278180Y-107586400D02*
X89741180Y-107351400D01*
X90285180Y-107588400D02*
X90278180Y-107586400D01*
X90291180Y-107591400D02*
X90285180Y-107588400D01*
X91200180Y-107879400D02*
X90291180Y-107591400D01*
X91212180Y-107886400D02*
X91200180Y-107879400D01*
X91214180Y-107896400D02*
X91212180Y-107886400D01*
X91320180Y-136261400D02*
X91214180Y-107896400D01*
X91324180Y-136280400D02*
X91320180Y-136261400D01*
X91327180Y-136300400D02*
X91324180Y-136280400D01*
X91426180Y-136606400D02*
X91327180Y-136300400D01*
X91436180Y-136624400D02*
X91426180Y-136606400D01*
X91445180Y-136643400D02*
X91436180Y-136624400D01*
X91713180Y-136996400D02*
X91445180Y-136643400D01*
X91724180Y-137005400D02*
X91713180Y-136996400D01*
X91733180Y-137016400D02*
X91724180Y-137005400D01*
X92049180Y-137280400D02*
X91733180Y-137016400D01*
X92058180Y-137285400D02*
X92049180Y-137280400D01*
X92065180Y-137292400D02*
X92058180Y-137285400D01*
X92424180Y-137507400D02*
X92065180Y-137292400D01*
X92439180Y-137512400D02*
X92424180Y-137507400D01*
X92454180Y-137520400D02*
X92439180Y-137512400D01*
X92813180Y-137626400D02*
X92454180Y-137520400D01*
X92835180Y-137628400D02*
X92813180Y-137626400D01*
X92857180Y-137631400D02*
X92835180Y-137628400D01*
X93288180Y-137603400D02*
X92857180Y-137631400D01*
X93306180Y-137598400D02*
X93288180Y-137603400D01*
X93324180Y-137595400D02*
X93306180Y-137598400D01*
X93864180Y-137394400D02*
X93324180Y-137595400D01*
X93879180Y-137385400D02*
X93864180Y-137394400D01*
X93895180Y-137378400D02*
X93879180Y-137385400D01*
X94313180Y-137069400D02*
X93895180Y-137378400D01*
X94325180Y-137055400D02*
X94313180Y-137069400D01*
X94339180Y-137043400D02*
X94325180Y-137055400D01*
X94641180Y-136635400D02*
X94339180Y-137043400D01*
X94646180Y-136625400D02*
X94641180Y-136635400D01*
X94653180Y-136617400D02*
X94646180Y-136625400D01*
X94878180Y-136170400D02*
X94653180Y-136617400D01*
X94879180Y-136166400D02*
X94878180Y-136170400D01*
X94882180Y-136162400D02*
X94879180Y-136166400D01*
X94886180Y-136142400D02*
X94882180Y-136162400D01*
X94891180Y-136123400D02*
X94886180Y-136142400D01*
X94891180Y-136118400D02*
X94891180Y-136123400D01*
X94892180Y-136114400D02*
X94891180Y-136118400D01*
X95003180Y-108676400D02*
X94892180Y-136114400D01*
X95005180Y-108669400D02*
X95003180Y-108676400D01*
X95005180Y-108668400D02*
X95005180Y-108669400D01*
X95016180Y-108665400D02*
X95005180Y-108668400D01*
X96748180Y-108595400D02*
X95016180Y-108665400D01*
X96759180Y-108597400D02*
X96748180Y-108595400D01*
X96761180Y-108607400D02*
X96759180Y-108597400D01*
X96761180Y-135914400D02*
X96761180Y-108607400D01*
X96761180Y-135915400D02*
X96761180Y-135914400D01*
X96761180Y-135916400D02*
X96761180Y-135915400D01*
X96766180Y-135939400D02*
X96761180Y-135916400D01*
X96771180Y-135962400D02*
X96766180Y-135939400D01*
X96772180Y-135963400D02*
X96771180Y-135962400D01*
X96772180Y-135965400D02*
X96772180Y-135963400D01*
X96849180Y-136140400D02*
X96772180Y-135965400D01*
X96854180Y-136148400D02*
X96849180Y-136140400D01*
X96857180Y-136156400D02*
X96854180Y-136148400D01*
X97434180Y-137089400D02*
X96857180Y-136156400D01*
X97450180Y-137106400D02*
X97434180Y-137089400D01*
X97466180Y-137123400D02*
X97450180Y-137106400D01*
X98040180Y-137557400D02*
X97466180Y-137123400D01*
X98052180Y-137563400D02*
X98040180Y-137557400D01*
X98064180Y-137571400D02*
X98052180Y-137563400D01*
X98074180Y-137574400D02*
X98064180Y-137571400D01*
X98084180Y-137579400D02*
X98074180Y-137574400D01*
X98098180Y-137579400D02*
X98084180Y-137579400D01*
X98112180Y-137583400D02*
X98098180Y-137579400D01*
X98918180Y-137611400D02*
X98112180Y-137583400D01*
X98935180Y-137608400D02*
X98918180Y-137611400D01*
X98953180Y-137607400D02*
X98935180Y-137608400D01*
X99409180Y-137494400D02*
X98953180Y-137607400D01*
X99427180Y-137486400D02*
X99409180Y-137494400D01*
X99445180Y-137480400D02*
X99427180Y-137486400D01*
X99684180Y-137335400D02*
X99445180Y-137480400D01*
X99695180Y-137325400D02*
X99684180Y-137335400D01*
X99708180Y-137316400D02*
X99695180Y-137325400D01*
X100151180Y-136874400D02*
X99708180Y-137316400D01*
X100158180Y-136863400D02*
X100151180Y-136874400D01*
X100167180Y-136855400D02*
X100158180Y-136863400D01*
X100540180Y-136297400D02*
X100167180Y-136855400D01*
X100544180Y-136286400D02*
X100540180Y-136297400D01*
X100551180Y-136276400D02*
X100544180Y-136286400D01*
X100554180Y-136263400D02*
X100551180Y-136276400D01*
X100559180Y-136252400D02*
X100554180Y-136263400D01*
X100559180Y-136239400D02*
X100559180Y-136252400D01*
X100561180Y-136227400D02*
X100559180Y-136239400D01*
X100622180Y-107945400D02*
X100561180Y-136227400D01*
X100623180Y-107934400D02*
X100622180Y-107945400D01*
X100626180Y-107917400D02*
X100623180Y-107934400D01*
X100627180Y-107914400D02*
X100626180Y-107917400D01*
X100629180Y-107911400D02*
X100627180Y-107914400D01*
X100639180Y-107905400D02*
X100629180Y-107911400D01*
X101706180Y-107519400D02*
X100639180Y-107905400D01*
X101709180Y-107517400D02*
X101706180Y-107519400D01*
X101712180Y-107517400D02*
X101709180Y-107517400D01*
X102274180Y-107286400D02*
X101712180Y-107517400D01*
X102282180Y-107283400D02*
X102274180Y-107286400D01*
X102435180Y-107243400D02*
X102282180Y-107283400D01*
X102449180Y-107242400D02*
X102435180Y-107243400D01*
X102452180Y-107251400D02*
X102449180Y-107242400D01*
X102516180Y-107758400D02*
X102452180Y-107251400D01*
X102517180Y-107766400D02*
X102516180Y-107758400D01*
X102588180Y-128839400D02*
X102517180Y-107766400D01*
X102591180Y-128857400D02*
X102588180Y-128839400D01*
X102593180Y-128876400D02*
X102591180Y-128857400D01*
X102596180Y-128881400D02*
X102593180Y-128876400D01*
X102598180Y-128888400D02*
X102596180Y-128881400D01*
X102608180Y-128903400D02*
X102598180Y-128888400D01*
X102617180Y-128919400D02*
X102608180Y-128903400D01*
X103141180Y-129557400D02*
X102617180Y-128919400D01*
X103154180Y-129568400D02*
X103141180Y-129557400D01*
X103166180Y-129580400D02*
X103154180Y-129568400D01*
X103695180Y-129957400D02*
X103166180Y-129580400D01*
X103695180Y-129957400D02*
X103695180Y-129957400D01*
X103695180Y-129957400D02*
X103695180Y-129957400D01*
X103695180Y-129957400D02*
X103695180Y-129957400D01*
X103717180Y-129967400D02*
X103695180Y-129957400D01*
X103740180Y-129977400D02*
X103717180Y-129967400D01*
X104217180Y-130087400D02*
X103740180Y-129977400D01*
X104219180Y-130087400D02*
X104217180Y-130087400D01*
X104222180Y-130088400D02*
X104219180Y-130087400D01*
X104244180Y-130088400D02*
X104222180Y-130088400D01*
X104266180Y-130089400D02*
X104244180Y-130088400D01*
X104269180Y-130088400D02*
X104266180Y-130089400D01*
X104271180Y-130088400D02*
X104269180Y-130088400D01*
X104841180Y-129970400D02*
X104271180Y-130088400D01*
X104857180Y-129963400D02*
X104841180Y-129970400D01*
X104875180Y-129958400D02*
X104857180Y-129963400D01*
X105394180Y-129684400D02*
X104875180Y-129958400D01*
X105406180Y-129674400D02*
X105394180Y-129684400D01*
X105418180Y-129667400D02*
X105406180Y-129674400D01*
X105750180Y-129378400D02*
X105418180Y-129667400D01*
X105756180Y-129371400D02*
X105750180Y-129378400D01*
X105764180Y-129364400D02*
X105756180Y-129371400D01*
X106216180Y-128828400D02*
X105764180Y-129364400D01*
X106225180Y-128811400D02*
X106216180Y-128828400D01*
X106236180Y-128795400D02*
X106225180Y-128811400D01*
X106237180Y-128790400D02*
X106236180Y-128795400D01*
X106240180Y-128785400D02*
X106237180Y-128790400D01*
X106242180Y-128766400D02*
X106240180Y-128785400D01*
X106246180Y-128747400D02*
X106242180Y-128766400D01*
X106286180Y-104666500D02*
X106246180Y-128747400D01*
X106289180Y-104653600D02*
X106286180Y-104666500D01*
X106295180Y-104644400D02*
X106289180Y-104653600D01*
X106791180Y-104183300D02*
X106295180Y-104644400D01*
X106794180Y-104180100D02*
X106791180Y-104183300D01*
X106797180Y-104177800D02*
X106794180Y-104180100D01*
X107283180Y-103666800D02*
X106797180Y-104177800D01*
X107293180Y-103659700D02*
X107283180Y-103666800D01*
X107305180Y-103657400D02*
X107293180Y-103659700D01*
X129867180Y-103601500D02*
X107305180Y-103657400D01*
X129868180Y-103601400D02*
X129867180Y-103601500D01*
X129868180Y-103601500D02*
X129868180Y-103601400D01*
X130839180Y-103586600D02*
X129868180Y-103601500D01*
X130857180Y-103582600D02*
X130839180Y-103586600D01*
X130876180Y-103580300D02*
X130857180Y-103582600D01*
X131181180Y-103480300D02*
X130876180Y-103580300D01*
X131185180Y-103479100D02*
X131181180Y-103480300D01*
X131651180Y-103360200D02*
X131185180Y-103479100D01*
X131660180Y-103355800D02*
X131651180Y-103360200D01*
X131670180Y-103353600D02*
X131660180Y-103355800D01*
X131999180Y-103209800D02*
X131670180Y-103353600D01*
X132019180Y-103196300D02*
X131999180Y-103209800D01*
X132038180Y-103183200D02*
X132019180Y-103196300D01*
X132312180Y-102909200D02*
X132038180Y-103183200D01*
X132319180Y-102898900D02*
X132312180Y-102909200D01*
X132328180Y-102890300D02*
X132319180Y-102898900D01*
X132483180Y-102660200D02*
X132328180Y-102890300D01*
X132487180Y-102650600D02*
X132483180Y-102660200D01*
X132493180Y-102642100D02*
X132487180Y-102650600D01*
X132673180Y-102248500D02*
X132493180Y-102642100D01*
X132678180Y-102228900D02*
X132673180Y-102248500D01*
X132684180Y-102209600D02*
X132678180Y-102228900D01*
X132746180Y-101650700D02*
X132684180Y-102209600D01*
X132745180Y-101635600D02*
X132746180Y-101650700D01*
X132746180Y-101620500D02*
X132745180Y-101635600D01*
X132700180Y-101259200D02*
X132746180Y-101620500D01*
X132693180Y-101240400D02*
X132700180Y-101259200D01*
X132688180Y-101221200D02*
X132693180Y-101240400D01*
X132488180Y-100796500D02*
X132688180Y-101221200D01*
X132482180Y-100788200D02*
X132488180Y-100796500D01*
X132478180Y-100778700D02*
X132482180Y-100788200D01*
X132322180Y-100552300D02*
X132478180Y-100778700D01*
X132314180Y-100544700D02*
X132322180Y-100552300D01*
X132308180Y-100535600D02*
X132314180Y-100544700D01*
X132125180Y-100347700D02*
X132308180Y-100535600D01*
X132117180Y-100341700D02*
X132125180Y-100347700D01*
X132109180Y-100333900D02*
X132117180Y-100341700D01*
X131898180Y-100178700D02*
X132109180Y-100333900D01*
X131888180Y-100174300D02*
X131898180Y-100178700D01*
X131880180Y-100167800D02*
X131888180Y-100174300D01*
X131515180Y-99982900D02*
X131880180Y-100167800D01*
X131508180Y-99980800D02*
X131515180Y-99982900D01*
X131501180Y-99976900D02*
X131508180Y-99980800D01*
X131224180Y-99875300D02*
X131501180Y-99976900D01*
X131203180Y-99872000D02*
X131224180Y-99875300D01*
X131181180Y-99867600D02*
X131203180Y-99872000D01*
X114252180Y-99766100D02*
X131181180Y-99867600D01*
X114251180Y-99766100D02*
X114252180Y-99766100D01*
X114251180Y-99766100D02*
X114251180Y-99766100D01*
X110141180Y-99745800D02*
X114251180Y-99766100D01*
X110132180Y-99745100D02*
X110141180Y-99745800D01*
X109976180Y-99722100D02*
X110132180Y-99745100D01*
X109954180Y-99714500D02*
X109976180Y-99722100D01*
X109942180Y-99708000D02*
X109954180Y-99714500D01*
X109931180Y-99697200D02*
X109942180Y-99708000D01*
X109932180Y-99687700D02*
X109931180Y-99697200D01*
X109943180Y-99641000D02*
X109932180Y-99687700D01*
X109944180Y-99637300D02*
X109943180Y-99641000D01*
X110065180Y-99254700D02*
X109944180Y-99637300D01*
X110066180Y-99251500D02*
X110065180Y-99254700D01*
X110319180Y-98579400D02*
X110066180Y-99251500D01*
X110321180Y-98575500D02*
X110319180Y-98579400D01*
X110565180Y-98037000D02*
X110321180Y-98575500D01*
X110568180Y-98032800D02*
X110565180Y-98037000D01*
X110570180Y-98031100D02*
X110568180Y-98032800D01*
X110581180Y-98028000D02*
X110570180Y-98031100D01*
X112213180Y-97927300D02*
X110581180Y-98028000D01*
X112216180Y-97927200D02*
X112213180Y-97927300D01*
X139102180Y-97871400D02*
X112216180Y-97927200D01*
X139117180Y-97868300D02*
X139102180Y-97871400D01*
X139132180Y-97867500D02*
X139117180Y-97868300D01*
X139141180Y-97863500D02*
X139132180Y-97867500D01*
X139150180Y-97861600D02*
X139141180Y-97863500D01*
X139163180Y-97852900D02*
X139150180Y-97861600D01*
X139177180Y-97846200D02*
X139163180Y-97852900D01*
X139674180Y-97476000D02*
X139177180Y-97846200D01*
X139681180Y-97468500D02*
X139674180Y-97476000D01*
X139689180Y-97462700D02*
X139681180Y-97468500D01*
X140013180Y-97129100D02*
X139689180Y-97462700D01*
X140024180Y-97112100D02*
X140013180Y-97129100D01*
X140036180Y-97095800D02*
X140024180Y-97112100D01*
X140222180Y-96709800D02*
X140036180Y-97095800D01*
X140227180Y-96691600D02*
X140222180Y-96709800D01*
X140234180Y-96674000D02*
X140227180Y-96691600D01*
X140320180Y-96113100D02*
X140234180Y-96674000D01*
X140319180Y-96098300D02*
X140320180Y-96113100D01*
X140321180Y-96083500D02*
X140319180Y-96098300D01*
X140278180Y-95561300D02*
X140321180Y-96083500D01*
X140272180Y-95540600D02*
X140278180Y-95561300D01*
X140267180Y-95519700D02*
X140272180Y-95540600D01*
X139934180Y-94776100D02*
X140267180Y-95519700D01*
X139930180Y-94771000D02*
X139934180Y-94776100D01*
X139928180Y-94765000D02*
X139930180Y-94771000D01*
X139916180Y-94750900D02*
X139928180Y-94765000D01*
X139905180Y-94735700D02*
X139916180Y-94750900D01*
X139900180Y-94732400D02*
X139905180Y-94735700D01*
X139896180Y-94727600D02*
X139900180Y-94732400D01*
X139450180Y-94382900D02*
X139896180Y-94727600D01*
X139448180Y-94381700D02*
X139450180Y-94382900D01*
X139446180Y-94379800D02*
X139448180Y-94381700D01*
X139169180Y-94182700D02*
X139446180Y-94379800D01*
X139169180Y-94182600D02*
X139169180Y-94182700D01*
X139169180Y-94182600D02*
X139169180Y-94182600D01*
X139146180Y-94172400D02*
X139169180Y-94182600D01*
X139124180Y-94162300D02*
X139146180Y-94172400D01*
X139124180Y-94162300D02*
X139124180Y-94162300D01*
X139124180Y-94162300D02*
X139124180Y-94162300D01*
X138985180Y-94130500D02*
X139124180Y-94162300D01*
X138971180Y-94130100D02*
X138985180Y-94130500D01*
X138957180Y-94127300D02*
X138971180Y-94130100D01*
X116274180Y-94081600D02*
X138957180Y-94127300D01*
X116273180Y-94081700D02*
X116274180Y-94081600D01*
X116273180Y-94081600D02*
X116273180Y-94081700D01*
X111351180Y-94096800D02*
X116273180Y-94081600D01*
X111337180Y-94093300D02*
X111351180Y-94096800D01*
X111332180Y-94084600D02*
X111337180Y-94093300D01*
X111292180Y-93951900D02*
X111332180Y-94084600D01*
X111290180Y-93936600D02*
X111292180Y-93951900D01*
X111275180Y-93612400D02*
X111290180Y-93936600D01*
X111275180Y-93605900D02*
X111275180Y-93612400D01*
X111320180Y-92799900D02*
X111275180Y-93605900D01*
X111320180Y-92796300D02*
X111320180Y-92799900D01*
X111320180Y-92792800D02*
X111320180Y-92796300D01*
X111320180Y-92305200D02*
X111320180Y-92792800D01*
X111322180Y-92295700D02*
X111320180Y-92305200D01*
X111333180Y-92293400D02*
X111322180Y-92295700D01*
X138742180Y-92237600D02*
X111333180Y-92293400D01*
X138742180Y-92237600D02*
X138742180Y-92237600D01*
X138742180Y-92237600D02*
X138742180Y-92237600D01*
X138764180Y-92233200D02*
X138742180Y-92237600D01*
X138791180Y-92227800D02*
X138764180Y-92233200D01*
X138791180Y-92227800D02*
X138791180Y-92227800D01*
X138791180Y-92227800D02*
X138791180Y-92227800D01*
X139127180Y-92087700D02*
X138791180Y-92227800D01*
X139133180Y-92084000D02*
X139127180Y-92087700D01*
X139139180Y-92082000D02*
X139133180Y-92084000D01*
X139570180Y-91847200D02*
X139139180Y-92082000D01*
X139588180Y-91832700D02*
X139570180Y-91847200D01*
X139606180Y-91818900D02*
X139588180Y-91832700D01*
X139975180Y-91392200D02*
X139606180Y-91818900D01*
X139984180Y-91377200D02*
X139975180Y-91392200D01*
X139994180Y-91363300D02*
X139984180Y-91377200D01*
X140156180Y-91020100D02*
X139994180Y-91363300D01*
X140158180Y-91012700D02*
X140156180Y-91020100D01*
X140162180Y-91006100D02*
X140158180Y-91012700D01*
X140222180Y-90826900D02*
X140162180Y-91006100D01*
X140223180Y-90814600D02*
X140222180Y-90826900D01*
X140227180Y-90802900D02*
X140223180Y-90814600D01*
X140285180Y-90352700D02*
X140227180Y-90802900D01*
X140284180Y-90337600D02*
X140285180Y-90352700D01*
X140285180Y-90322600D02*
X140284180Y-90337600D01*
X140243180Y-89946400D02*
X140285180Y-90322600D01*
X140237180Y-89927200D02*
X140243180Y-89946400D01*
X140232180Y-89907700D02*
X140237180Y-89927200D01*
X140034180Y-89473600D02*
X140232180Y-89907700D01*
X140025180Y-89460500D02*
X140034180Y-89473600D01*
X140017180Y-89446200D02*
X140025180Y-89460500D01*
X139834180Y-89220700D02*
X140017180Y-89446200D01*
X139828180Y-89215900D02*
X139834180Y-89220700D01*
X139824180Y-89209800D02*
X139828180Y-89215900D01*
X139473180Y-88868500D02*
X139824180Y-89209800D01*
X139471180Y-88867200D02*
X139473180Y-88868500D01*
X139470180Y-88865400D02*
X139471180Y-88867200D01*
X139451180Y-88853800D02*
X139470180Y-88865400D01*
X139432180Y-88841500D02*
X139451180Y-88853800D01*
X139429180Y-88841100D02*
X139432180Y-88841500D01*
X139427180Y-88839900D02*
X139429180Y-88841100D01*
X138770180Y-88604600D02*
X139427180Y-88839900D01*
X138757180Y-88602700D02*
X138770180Y-88604600D01*
X138745180Y-88598500D02*
X138757180Y-88602700D01*
X138192180Y-88520200D02*
X138745180Y-88598500D01*
X138183180Y-88520700D02*
X138192180Y-88520200D01*
X138175180Y-88519000D02*
X138183180Y-88520700D01*
X111515180Y-88463100D02*
X138175180Y-88519000D01*
X111512180Y-88463100D02*
X111515180Y-88463100D01*
X110982180Y-88442900D02*
X111512180Y-88463100D01*
X110978180Y-88442500D02*
X110982180Y-88442900D01*
X110758180Y-88417500D02*
X110978180Y-88442500D01*
X110755180Y-88417200D02*
X110758180Y-88417500D01*
X110631180Y-88398800D02*
X110755180Y-88417200D01*
X110609180Y-88391500D02*
X110631180Y-88398800D01*
X110542180Y-88353800D02*
X110609180Y-88391500D01*
X110519180Y-88333200D02*
X110542180Y-88353800D01*
X110466180Y-88250300D02*
X110519180Y-88333200D01*
X110459180Y-88238400D02*
X110466180Y-88250300D01*
X110423180Y-88142100D02*
X110459180Y-88238400D01*
X110420180Y-88133700D02*
X110423180Y-88142100D01*
X110381180Y-87961400D02*
X110420180Y-88133700D01*
X110380180Y-87960300D02*
X110381180Y-87961400D01*
X110380180Y-87958900D02*
X110380180Y-87960300D01*
X110341180Y-87802400D02*
X110380180Y-87958900D01*
X110339180Y-87797900D02*
X110341180Y-87802400D01*
X110338180Y-87793000D02*
X110339180Y-87797900D01*
X110219180Y-87435300D02*
X110338180Y-87793000D01*
X110217180Y-87432100D02*
X110219180Y-87435300D01*
X110217180Y-87428500D02*
X110217180Y-87432100D01*
X110030180Y-86960200D02*
X110217180Y-87428500D01*
X110030180Y-86959500D02*
X110030180Y-86960200D01*
X110030180Y-86958700D02*
X110030180Y-86959500D01*
X109935180Y-86728800D02*
X110030180Y-86958700D01*
X109933180Y-86722600D02*
X109935180Y-86728800D01*
X109895180Y-86596500D02*
X109933180Y-86722600D01*
X109895180Y-86593000D02*
X109895180Y-86596500D01*
X109895180Y-86590700D02*
X109895180Y-86593000D01*
X109906180Y-86588600D02*
X109895180Y-86590700D01*
X109928180Y-86588600D02*
X109906180Y-86588600D01*
X109928180Y-86588600D02*
X109928180Y-86588600D01*
X109928180Y-86588600D02*
X109928180Y-86588600D01*
X131549180Y-86553100D02*
X109928180Y-86588600D01*
X131563180Y-86550300D02*
X131549180Y-86553100D01*
X131577180Y-86550000D02*
X131563180Y-86550300D01*
X131587180Y-86545500D02*
X131577180Y-86550000D01*
X131598180Y-86543400D02*
X131587180Y-86545500D01*
X131610180Y-86535600D02*
X131598180Y-86543400D01*
X131622180Y-86529900D02*
X131610180Y-86535600D01*
X131837180Y-86378100D02*
X131622180Y-86529900D01*
X131847180Y-86368100D02*
X131837180Y-86378100D01*
X131858180Y-86360000D02*
X131847180Y-86368100D01*
X132328180Y-85846200D02*
X131858180Y-86360000D01*
X132334180Y-85835300D02*
X132328180Y-85846200D01*
X132343180Y-85825800D02*
X132334180Y-85835300D01*
X132649180Y-85316000D02*
X132343180Y-85825800D01*
X132654180Y-85302200D02*
X132649180Y-85316000D01*
X132661180Y-85289300D02*
X132654180Y-85302200D01*
X132769180Y-84952400D02*
X132661180Y-85289300D01*
X132769180Y-84946400D02*
X132769180Y-84952400D01*
X132772180Y-84940900D02*
X132769180Y-84946400D01*
X132772180Y-84921900D02*
X132772180Y-84940900D01*
X132774180Y-84903100D02*
X132772180Y-84921900D01*
X132773180Y-84897400D02*
X132774180Y-84903100D01*
X132773180Y-84891300D02*
X132773180Y-84897400D01*
X132630180Y-84091000D02*
X132773180Y-84891300D01*
X132622180Y-84070400D02*
X132630180Y-84091000D01*
X132615180Y-84049500D02*
X132622180Y-84070400D01*
X132362180Y-83615100D02*
X132615180Y-84049500D01*
X132348180Y-83599200D02*
X132362180Y-83615100D01*
X132335180Y-83582500D02*
X132348180Y-83599200D01*
X131942180Y-83245100D02*
X132335180Y-83582500D01*
X131923180Y-83234400D02*
X131942180Y-83245100D01*
X131904180Y-83222900D02*
X131923180Y-83234400D01*
X131424180Y-83039200D02*
X131904180Y-83222900D01*
X131406180Y-83036100D02*
X131424180Y-83039200D01*
X131388180Y-83031200D02*
X131406180Y-83036100D01*
X129614180Y-82895800D02*
X131388180Y-83031200D01*
X129608180Y-82896500D02*
X129614180Y-82895800D01*
X129603180Y-82895500D02*
X129608180Y-82896500D01*
X108459180Y-83052900D02*
X129603180Y-82895500D01*
X108441180Y-83050400D02*
X108459180Y-83052900D01*
X107544180Y-82791200D02*
X108441180Y-83050400D01*
X107528180Y-82784000D02*
X107544180Y-82791200D01*
X106773180Y-82307000D02*
X107528180Y-82784000D01*
X106757180Y-82292400D02*
X106773180Y-82307000D01*
X106490180Y-81948900D02*
X106757180Y-82292400D01*
X106477180Y-81918300D02*
X106490180Y-81948900D01*
X106471180Y-81871800D02*
X106477180Y-81918300D01*
X106466180Y-81855000D02*
X106471180Y-81871800D01*
X106462180Y-81837600D02*
X106466180Y-81855000D01*
X106397180Y-81685600D02*
X106462180Y-81837600D01*
X106392180Y-81666100D02*
X106397180Y-81685600D01*
X106337180Y-81018400D02*
X106392180Y-81666100D01*
X106337180Y-81013300D02*
X106337180Y-81018400D01*
X106246180Y-57898400D02*
X106337180Y-81013300D01*
X106242180Y-57882000D02*
X106246180Y-57898400D01*
X106241180Y-57865200D02*
X106242180Y-57882000D01*
X106153180Y-57544300D02*
X106241180Y-57865200D01*
X106146180Y-57532000D02*
X106153180Y-57544300D01*
X106143180Y-57518800D02*
X106146180Y-57532000D01*
X105963180Y-57178200D02*
X106143180Y-57518800D01*
X105954180Y-57166900D02*
X105963180Y-57178200D01*
X105946180Y-57154100D02*
X105954180Y-57166900D01*
X105631180Y-56791300D02*
X105946180Y-57154100D01*
X105613180Y-56777600D02*
X105631180Y-56791300D01*
X105595180Y-56763200D02*
X105613180Y-56777600D01*
X105118180Y-56503000D02*
X105595180Y-56763200D01*
X105101180Y-56497900D02*
X105118180Y-56503000D01*
X105086180Y-56490800D02*
X105101180Y-56497900D01*
X104616180Y-56382900D02*
X105086180Y-56490800D01*
X104594180Y-56382200D02*
X104616180Y-56382900D01*
X104572180Y-56380700D02*
X104594180Y-56382200D01*
X103883180Y-56467400D02*
X104572180Y-56380700D01*
X103869180Y-56472100D02*
X103883180Y-56467400D01*
X103854180Y-56474400D02*
X103869180Y-56472100D01*
X103305180Y-56679100D02*
X103854180Y-56474400D01*
X103294180Y-56686000D02*
X103305180Y-56679100D01*
X103282180Y-56690600D02*
X103294180Y-56686000D01*
X103273180Y-56698900D02*
X103282180Y-56690600D01*
X103263180Y-56705200D02*
X103273180Y-56698900D01*
X103255180Y-56715700D02*
X103263180Y-56705200D01*
X103246180Y-56724700D02*
X103255180Y-56715700D01*
X102576180Y-57671000D02*
X103246180Y-56724700D01*
X102570180Y-57683700D02*
X102576180Y-57671000D01*
X102562180Y-57695300D02*
X102570180Y-57683700D01*
X102560180Y-57706100D02*
X102562180Y-57695300D01*
X102555180Y-57716200D02*
X102560180Y-57706100D01*
X102555180Y-57730200D02*
X102555180Y-57716200D01*
X102552180Y-57743900D02*
X102555180Y-57730200D01*
X102466180Y-79131700D02*
X102552180Y-57743900D01*
X102465180Y-79137700D02*
X102466180Y-79131700D01*
X102464180Y-79139200D02*
X102465180Y-79137700D01*
X102453180Y-79142200D02*
X102464180Y-79139200D01*
X102400180Y-79145700D02*
X102453180Y-79142200D01*
X102380180Y-79143700D02*
X102400180Y-79145700D01*
X102164180Y-79086100D02*
X102380180Y-79143700D01*
X102159180Y-79084600D02*
X102164180Y-79086100D01*
X100754180Y-78581100D02*
X102159180Y-79084600D01*
X100736180Y-78570700D02*
X100754180Y-78581100D01*
X100649180Y-78500900D02*
X100736180Y-78570700D01*
X100639180Y-78487200D02*
X100649180Y-78500900D01*
X100637180Y-78478400D02*
X100639180Y-78487200D01*
X100561180Y-50169000D02*
X100637180Y-78478400D01*
X100556180Y-50145600D02*
X100561180Y-50169000D01*
X100552180Y-50122100D02*
X100556180Y-50145600D01*
X100449180Y-49864100D02*
X100552180Y-50122100D01*
X100448180Y-49863400D02*
X100449180Y-49864100D01*
X100448180Y-49862600D02*
X100448180Y-49863400D01*
X100435180Y-49842700D02*
X100448180Y-49862600D01*
X100422180Y-49822500D02*
X100435180Y-49842700D01*
X100421180Y-49822100D02*
X100422180Y-49822500D01*
X100421180Y-49821400D02*
X100421180Y-49822100D01*
X99931180Y-49331800D02*
X100421180Y-49821400D01*
X99919180Y-49323900D02*
X99931180Y-49331800D01*
X99909180Y-49314100D02*
X99919180Y-49323900D01*
X99517180Y-49067100D02*
X99909180Y-49314100D01*
X99509180Y-49064100D02*
X99517180Y-49067100D01*
X99502180Y-49059100D02*
X99509180Y-49064100D01*
X99158180Y-48901800D02*
X99502180Y-49059100D01*
X99143180Y-48898000D02*
X99158180Y-48901800D01*
X99128180Y-48892200D02*
X99143180Y-48898000D01*
X98652180Y-48808300D02*
X99128180Y-48892200D01*
X98650180Y-48808300D02*
X98652180Y-48808300D01*
M02*
