G04 #@! TF.FileFunction,Copper,L1,Top,Signal*
%FSLAX46Y46*%
G04 Gerber Fmt 4.6, Leading zero omitted, Abs format (unit mm)*
G04 Created by KiCad (PCBNEW 4.0.7) date Thursday, July 26, 2018 'PMt' 01:10:45 PM*
%MOMM*%
%LPD*%
G01*
G04 APERTURE LIST*
%ADD10C,0.100000*%
%ADD11C,0.312500*%
%ADD12C,0.500000*%
%ADD13R,0.600000X1.550000*%
%ADD14R,2.000000X1.700000*%
%ADD15R,1.700000X2.000000*%
%ADD16C,1.700000*%
%ADD17O,1.700000X1.700000*%
%ADD18R,2.100000X2.500000*%
%ADD19C,0.750000*%
%ADD20C,0.250000*%
G04 APERTURE END LIST*
D10*
D11*
X104756276Y-75782857D02*
X103506276Y-75782857D01*
X104696752Y-75782857D02*
X104756276Y-75901904D01*
X104756276Y-76140000D01*
X104696752Y-76259047D01*
X104637229Y-76318571D01*
X104518181Y-76378095D01*
X104161038Y-76378095D01*
X104041990Y-76318571D01*
X103982467Y-76259047D01*
X103922943Y-76140000D01*
X103922943Y-75901904D01*
X103982467Y-75782857D01*
X104696752Y-74651905D02*
X104756276Y-74770952D01*
X104756276Y-75009048D01*
X104696752Y-75128095D01*
X104637229Y-75187619D01*
X104518181Y-75247143D01*
X104161038Y-75247143D01*
X104041990Y-75187619D01*
X103982467Y-75128095D01*
X103922943Y-75009048D01*
X103922943Y-74770952D01*
X103982467Y-74651905D01*
X103922943Y-74235238D02*
X103922943Y-73580476D01*
X104756276Y-74235238D01*
X104756276Y-73580476D01*
X104756276Y-73104285D02*
X103922943Y-73104285D01*
X103506276Y-73104285D02*
X103565800Y-73163809D01*
X103625324Y-73104285D01*
X103565800Y-73044761D01*
X103506276Y-73104285D01*
X103625324Y-73104285D01*
X104756276Y-71973333D02*
X104101514Y-71973333D01*
X103982467Y-72032856D01*
X103922943Y-72151904D01*
X103922943Y-72389999D01*
X103982467Y-72509047D01*
X104696752Y-71973333D02*
X104756276Y-72092380D01*
X104756276Y-72389999D01*
X104696752Y-72509047D01*
X104577705Y-72568571D01*
X104458657Y-72568571D01*
X104339610Y-72509047D01*
X104280086Y-72389999D01*
X104280086Y-72092380D01*
X104220562Y-71973333D01*
X104637229Y-71378095D02*
X104696752Y-71318571D01*
X104756276Y-71378095D01*
X104696752Y-71437619D01*
X104637229Y-71378095D01*
X104756276Y-71378095D01*
X103922943Y-70782857D02*
X104756276Y-70782857D01*
X104041990Y-70782857D02*
X103982467Y-70723333D01*
X103922943Y-70604286D01*
X103922943Y-70425714D01*
X103982467Y-70306666D01*
X104101514Y-70247143D01*
X104756276Y-70247143D01*
X104696752Y-69175714D02*
X104756276Y-69294762D01*
X104756276Y-69532857D01*
X104696752Y-69651905D01*
X104577705Y-69711429D01*
X104101514Y-69711429D01*
X103982467Y-69651905D01*
X103922943Y-69532857D01*
X103922943Y-69294762D01*
X103982467Y-69175714D01*
X104101514Y-69116191D01*
X104220562Y-69116191D01*
X104339610Y-69711429D01*
X103922943Y-68759047D02*
X103922943Y-68282857D01*
X103506276Y-68580476D02*
X104577705Y-68580476D01*
X104696752Y-68520952D01*
X104756276Y-68401905D01*
X104756276Y-68282857D01*
X92985038Y-75802857D02*
X92925514Y-75862381D01*
X92865990Y-75981429D01*
X92865990Y-76100476D01*
X92925514Y-76219524D01*
X92985038Y-76279048D01*
X93104086Y-76338572D01*
X93223133Y-76338572D01*
X93342181Y-76279048D01*
X93401705Y-76219524D01*
X93461229Y-76100476D01*
X93461229Y-75981429D01*
X93401705Y-75862381D01*
X93342181Y-75802857D01*
X92865990Y-75802857D02*
X93342181Y-75802857D01*
X93401705Y-75743334D01*
X93401705Y-75683810D01*
X93342181Y-75564762D01*
X93223133Y-75505238D01*
X92925514Y-75505238D01*
X92746943Y-75624286D01*
X92627895Y-75802857D01*
X92568371Y-76040953D01*
X92627895Y-76279048D01*
X92746943Y-76457619D01*
X92925514Y-76576667D01*
X93163610Y-76636191D01*
X93401705Y-76576667D01*
X93580276Y-76457619D01*
X93699324Y-76279048D01*
X93758848Y-76040953D01*
X93699324Y-75802857D01*
X93580276Y-75624286D01*
X93580276Y-74969524D02*
X92330276Y-74969524D01*
X93104086Y-74850476D02*
X93580276Y-74493333D01*
X92746943Y-74493333D02*
X93223133Y-74969524D01*
X93520752Y-73481428D02*
X93580276Y-73600476D01*
X93580276Y-73838571D01*
X93520752Y-73957619D01*
X93401705Y-74017143D01*
X92925514Y-74017143D01*
X92806467Y-73957619D01*
X92746943Y-73838571D01*
X92746943Y-73600476D01*
X92806467Y-73481428D01*
X92925514Y-73421905D01*
X93044562Y-73421905D01*
X93163610Y-74017143D01*
X93580276Y-73005238D02*
X92746943Y-72350476D01*
X92746943Y-73005238D02*
X93580276Y-72350476D01*
X93520752Y-71398094D02*
X93580276Y-71517142D01*
X93580276Y-71755237D01*
X93520752Y-71874285D01*
X93401705Y-71933809D01*
X92925514Y-71933809D01*
X92806467Y-71874285D01*
X92746943Y-71755237D01*
X92746943Y-71517142D01*
X92806467Y-71398094D01*
X92925514Y-71338571D01*
X93044562Y-71338571D01*
X93163610Y-71933809D01*
X93580276Y-70624285D02*
X93520752Y-70743332D01*
X93401705Y-70802856D01*
X92330276Y-70802856D01*
X98573038Y-75852143D02*
X98513514Y-75911667D01*
X98453990Y-76030715D01*
X98453990Y-76149762D01*
X98513514Y-76268810D01*
X98573038Y-76328334D01*
X98692086Y-76387858D01*
X98811133Y-76387858D01*
X98930181Y-76328334D01*
X98989705Y-76268810D01*
X99049229Y-76149762D01*
X99049229Y-76030715D01*
X98989705Y-75911667D01*
X98930181Y-75852143D01*
X98453990Y-75852143D02*
X98930181Y-75852143D01*
X98989705Y-75792620D01*
X98989705Y-75733096D01*
X98930181Y-75614048D01*
X98811133Y-75554524D01*
X98513514Y-75554524D01*
X98334943Y-75673572D01*
X98215895Y-75852143D01*
X98156371Y-76090239D01*
X98215895Y-76328334D01*
X98334943Y-76506905D01*
X98513514Y-76625953D01*
X98751610Y-76685477D01*
X98989705Y-76625953D01*
X99168276Y-76506905D01*
X99287324Y-76328334D01*
X99346848Y-76090239D01*
X99287324Y-75852143D01*
X99168276Y-75673572D01*
X98334943Y-74483096D02*
X99346848Y-74483096D01*
X99465895Y-74542619D01*
X99525419Y-74602143D01*
X99584943Y-74721191D01*
X99584943Y-74899762D01*
X99525419Y-75018810D01*
X99108752Y-74483096D02*
X99168276Y-74602143D01*
X99168276Y-74840239D01*
X99108752Y-74959286D01*
X99049229Y-75018810D01*
X98930181Y-75078334D01*
X98573038Y-75078334D01*
X98453990Y-75018810D01*
X98394467Y-74959286D01*
X98334943Y-74840239D01*
X98334943Y-74602143D01*
X98394467Y-74483096D01*
X99168276Y-73352144D02*
X98513514Y-73352144D01*
X98394467Y-73411667D01*
X98334943Y-73530715D01*
X98334943Y-73768810D01*
X98394467Y-73887858D01*
X99108752Y-73352144D02*
X99168276Y-73471191D01*
X99168276Y-73768810D01*
X99108752Y-73887858D01*
X98989705Y-73947382D01*
X98870657Y-73947382D01*
X98751610Y-73887858D01*
X98692086Y-73768810D01*
X98692086Y-73471191D01*
X98632562Y-73352144D01*
X98334943Y-72935477D02*
X98334943Y-72459287D01*
X97918276Y-72756906D02*
X98989705Y-72756906D01*
X99108752Y-72697382D01*
X99168276Y-72578335D01*
X99168276Y-72459287D01*
X99108752Y-71566429D02*
X99168276Y-71685477D01*
X99168276Y-71923572D01*
X99108752Y-72042620D01*
X98989705Y-72102144D01*
X98513514Y-72102144D01*
X98394467Y-72042620D01*
X98334943Y-71923572D01*
X98334943Y-71685477D01*
X98394467Y-71566429D01*
X98513514Y-71506906D01*
X98632562Y-71506906D01*
X98751610Y-72102144D01*
X99168276Y-70971191D02*
X97918276Y-70971191D01*
X99168276Y-70435477D02*
X98513514Y-70435477D01*
X98394467Y-70495000D01*
X98334943Y-70614048D01*
X98334943Y-70792620D01*
X98394467Y-70911667D01*
X98453990Y-70971191D01*
X99108752Y-69364048D02*
X99168276Y-69483096D01*
X99168276Y-69721191D01*
X99108752Y-69840239D01*
X98989705Y-69899763D01*
X98513514Y-69899763D01*
X98394467Y-69840239D01*
X98334943Y-69721191D01*
X98334943Y-69483096D01*
X98394467Y-69364048D01*
X98513514Y-69304525D01*
X98632562Y-69304525D01*
X98751610Y-69899763D01*
X99168276Y-68768810D02*
X98334943Y-68768810D01*
X98573038Y-68768810D02*
X98453990Y-68709286D01*
X98394467Y-68649762D01*
X98334943Y-68530715D01*
X98334943Y-68411667D01*
X99168276Y-67459286D02*
X97918276Y-67459286D01*
X99108752Y-67459286D02*
X99168276Y-67578333D01*
X99168276Y-67816429D01*
X99108752Y-67935476D01*
X99049229Y-67995000D01*
X98930181Y-68054524D01*
X98573038Y-68054524D01*
X98453990Y-67995000D01*
X98394467Y-67935476D01*
X98334943Y-67816429D01*
X98334943Y-67578333D01*
X98394467Y-67459286D01*
X99108752Y-66387857D02*
X99168276Y-66506905D01*
X99168276Y-66745000D01*
X99108752Y-66864048D01*
X98989705Y-66923572D01*
X98513514Y-66923572D01*
X98394467Y-66864048D01*
X98334943Y-66745000D01*
X98334943Y-66506905D01*
X98394467Y-66387857D01*
X98513514Y-66328334D01*
X98632562Y-66328334D01*
X98751610Y-66923572D01*
X99168276Y-65792619D02*
X98334943Y-65792619D01*
X98573038Y-65792619D02*
X98453990Y-65733095D01*
X98394467Y-65673571D01*
X98334943Y-65554524D01*
X98334943Y-65435476D01*
D12*
X105826038Y-91947572D02*
X105730800Y-91852334D01*
X105635562Y-91661857D01*
X105635562Y-91185667D01*
X105730800Y-90995191D01*
X105826038Y-90899953D01*
X106016514Y-90804714D01*
X106206990Y-90804714D01*
X106492705Y-90899953D01*
X107635562Y-92042810D01*
X107635562Y-90804714D01*
X105635562Y-89566619D02*
X105635562Y-89376143D01*
X105730800Y-89185667D01*
X105826038Y-89090429D01*
X106016514Y-88995191D01*
X106397467Y-88899952D01*
X106873657Y-88899952D01*
X107254610Y-88995191D01*
X107445086Y-89090429D01*
X107540324Y-89185667D01*
X107635562Y-89376143D01*
X107635562Y-89566619D01*
X107540324Y-89757095D01*
X107445086Y-89852333D01*
X107254610Y-89947572D01*
X106873657Y-90042810D01*
X106397467Y-90042810D01*
X106016514Y-89947572D01*
X105826038Y-89852333D01*
X105730800Y-89757095D01*
X105635562Y-89566619D01*
X107635562Y-86995190D02*
X107635562Y-88138048D01*
X107635562Y-87566619D02*
X105635562Y-87566619D01*
X105921276Y-87757095D01*
X106111752Y-87947571D01*
X106206990Y-88138048D01*
X106492705Y-85852333D02*
X106397467Y-86042809D01*
X106302229Y-86138048D01*
X106111752Y-86233286D01*
X106016514Y-86233286D01*
X105826038Y-86138048D01*
X105730800Y-86042809D01*
X105635562Y-85852333D01*
X105635562Y-85471381D01*
X105730800Y-85280905D01*
X105826038Y-85185667D01*
X106016514Y-85090428D01*
X106111752Y-85090428D01*
X106302229Y-85185667D01*
X106397467Y-85280905D01*
X106492705Y-85471381D01*
X106492705Y-85852333D01*
X106587943Y-86042809D01*
X106683181Y-86138048D01*
X106873657Y-86233286D01*
X107254610Y-86233286D01*
X107445086Y-86138048D01*
X107540324Y-86042809D01*
X107635562Y-85852333D01*
X107635562Y-85471381D01*
X107540324Y-85280905D01*
X107445086Y-85185667D01*
X107254610Y-85090428D01*
X106873657Y-85090428D01*
X106683181Y-85185667D01*
X106587943Y-85280905D01*
X106492705Y-85471381D01*
X104206562Y-92201524D02*
X102206562Y-92201524D01*
X102206562Y-91725333D01*
X102301800Y-91439619D01*
X102492276Y-91249143D01*
X102682752Y-91153904D01*
X103063705Y-91058666D01*
X103349419Y-91058666D01*
X103730371Y-91153904D01*
X103920848Y-91249143D01*
X104111324Y-91439619D01*
X104206562Y-91725333D01*
X104206562Y-92201524D01*
X104016086Y-89058666D02*
X104111324Y-89153904D01*
X104206562Y-89439619D01*
X104206562Y-89630095D01*
X104111324Y-89915809D01*
X103920848Y-90106285D01*
X103730371Y-90201524D01*
X103349419Y-90296762D01*
X103063705Y-90296762D01*
X102682752Y-90201524D01*
X102492276Y-90106285D01*
X102301800Y-89915809D01*
X102206562Y-89630095D01*
X102206562Y-89439619D01*
X102301800Y-89153904D01*
X102397038Y-89058666D01*
X102206562Y-88392000D02*
X102206562Y-87058666D01*
X104206562Y-88392000D01*
X104206562Y-87058666D01*
X104206562Y-86296762D02*
X102206562Y-86296762D01*
X103635133Y-85439619D02*
X103635133Y-84487238D01*
X104206562Y-85630095D02*
X102206562Y-84963428D01*
X104206562Y-84296761D01*
D13*
X85471000Y-96680000D03*
X86741000Y-96680000D03*
X88011000Y-96680000D03*
X89281000Y-96680000D03*
X89281000Y-91280000D03*
X88011000Y-91280000D03*
X86741000Y-91280000D03*
X85471000Y-91280000D03*
D14*
X92678000Y-86106000D03*
X88678000Y-86106000D03*
X97123000Y-104140000D03*
X93123000Y-104140000D03*
X93123000Y-100457000D03*
X97123000Y-100457000D03*
X89503000Y-100457000D03*
X85503000Y-100457000D03*
D15*
X82346800Y-91218000D03*
X82346800Y-95218000D03*
X100253800Y-99981000D03*
X100253800Y-103981000D03*
X103428800Y-99981000D03*
X103428800Y-103981000D03*
D16*
X94361000Y-80772000D03*
D17*
X94361000Y-83312000D03*
X96901000Y-80772000D03*
X96901000Y-83312000D03*
D18*
X93157040Y-90284300D03*
X93157040Y-95999300D03*
X98679000Y-90360500D03*
X98679000Y-96075500D03*
D19*
X100253800Y-99981000D02*
X100253800Y-98679000D01*
D20*
X99872800Y-98298000D02*
X93157040Y-98298000D01*
D19*
X100253800Y-98679000D02*
X99872800Y-98298000D01*
X93157040Y-95999300D02*
X93157040Y-98298000D01*
X93157040Y-98298000D02*
X93157040Y-100422960D01*
D20*
X93157040Y-100422960D02*
X93123000Y-100457000D01*
X101396800Y-102235000D02*
X98983800Y-102235000D01*
D19*
X102253800Y-99981000D02*
X101904800Y-100330000D01*
D20*
X101904800Y-100330000D02*
X101904800Y-101727000D01*
X101904800Y-101727000D02*
X101396800Y-102235000D01*
D19*
X103428800Y-99981000D02*
X102253800Y-99981000D01*
D20*
X98348800Y-102870000D02*
X98856800Y-102362000D01*
D19*
X98348800Y-102870000D02*
X97123000Y-104095800D01*
D20*
X98983800Y-102235000D02*
X98856800Y-102362000D01*
D19*
X97123000Y-104140000D02*
X97123000Y-104095800D01*
X103428800Y-99981000D02*
X103428800Y-97663000D01*
X101841300Y-96075500D02*
X98679000Y-96075500D01*
D20*
X103428800Y-97663000D02*
X101841300Y-96075500D01*
D19*
X97123000Y-100457000D02*
X97123000Y-100539800D01*
X97123000Y-100539800D02*
X95300800Y-102362000D01*
D20*
X95300800Y-102362000D02*
X91186000Y-102362000D01*
X91186000Y-102362000D02*
X88646000Y-102362000D01*
X88011000Y-98298000D02*
X87884000Y-98425000D01*
X87884000Y-98425000D02*
X87884000Y-101600000D01*
D12*
X88011000Y-98298000D02*
X88011000Y-96680000D01*
D20*
X88646000Y-102362000D02*
X87884000Y-101600000D01*
D19*
X93123000Y-104140000D02*
X89408000Y-104140000D01*
D12*
X86741000Y-98171000D02*
X86741000Y-96680000D01*
D20*
X87122000Y-98552000D02*
X87122000Y-101854000D01*
X86741000Y-98171000D02*
X87122000Y-98552000D01*
X88519000Y-103251000D02*
X87122000Y-101854000D01*
X89408000Y-104140000D02*
X88519000Y-103251000D01*
D12*
X88011000Y-88315800D02*
X88011000Y-91280000D01*
X88678000Y-87648800D02*
X88011000Y-88315800D01*
D19*
X88678000Y-86106000D02*
X88678000Y-87648800D01*
X96901000Y-83312000D02*
X96901000Y-84658200D01*
D20*
X96901000Y-84658200D02*
X96901000Y-87630000D01*
D19*
X98679000Y-90360500D02*
X98679000Y-88341200D01*
D20*
X98679000Y-88341200D02*
X97967800Y-87630000D01*
X97967800Y-87630000D02*
X96901000Y-87630000D01*
X98806000Y-81788000D02*
X98806000Y-82600800D01*
X86106000Y-86487000D02*
X86106000Y-84836000D01*
X98806000Y-81788000D02*
X98806000Y-80264000D01*
X98806000Y-80264000D02*
X97536000Y-78994000D01*
X97536000Y-78994000D02*
X93014800Y-78994000D01*
X93014800Y-78994000D02*
X88188800Y-83820000D01*
X88188800Y-83820000D02*
X87122000Y-83820000D01*
X87122000Y-83820000D02*
X86106000Y-84836000D01*
D19*
X98094800Y-83312000D02*
X96901000Y-83312000D01*
X98806000Y-82600800D02*
X98094800Y-83312000D01*
X93157040Y-90284300D02*
X94805500Y-90284300D01*
D20*
X94805500Y-90284300D02*
X96901000Y-88188800D01*
X96901000Y-88188800D02*
X96901000Y-87630000D01*
X98602800Y-90284300D02*
X98679000Y-90360500D01*
X98806000Y-90233500D02*
X98679000Y-90360500D01*
X98602800Y-90284300D02*
X98679000Y-90360500D01*
D12*
X85471000Y-89408000D02*
X85471000Y-91280000D01*
X86741000Y-89408000D02*
X86741000Y-91280000D01*
D20*
X86741000Y-89502000D02*
X86741000Y-89408000D01*
X86741000Y-89408000D02*
X86741000Y-87122000D01*
X86741000Y-87122000D02*
X86106000Y-86487000D01*
X85471000Y-87122000D02*
X85471000Y-89408000D01*
X86106000Y-86487000D02*
X85471000Y-87122000D01*
X85471000Y-89408000D02*
X85471000Y-89502000D01*
D19*
X82346800Y-95218000D02*
X83788000Y-95218000D01*
X83788000Y-95218000D02*
X84074000Y-95504000D01*
X100253800Y-106299000D02*
X100253800Y-103981000D01*
X103428800Y-103981000D02*
X103428800Y-105537000D01*
D20*
X102666800Y-106299000D02*
X100253800Y-106299000D01*
X100253800Y-106299000D02*
X99949000Y-106299000D01*
X103428800Y-105537000D02*
X102666800Y-106299000D01*
D19*
X85503000Y-101886000D02*
X85503000Y-100457000D01*
D20*
X88773000Y-105156000D02*
X85503000Y-101886000D01*
X90728800Y-105156000D02*
X88773000Y-105156000D01*
X91871800Y-106299000D02*
X90728800Y-105156000D01*
X99949000Y-106299000D02*
X91871800Y-106299000D01*
D12*
X85471000Y-96680000D02*
X85471000Y-98552000D01*
D19*
X92678000Y-86106000D02*
X92678000Y-87281000D01*
D20*
X90170000Y-88519000D02*
X90170000Y-90297000D01*
X90932000Y-87757000D02*
X90170000Y-88519000D01*
X92202000Y-87757000D02*
X90932000Y-87757000D01*
X92678000Y-87281000D02*
X92202000Y-87757000D01*
X90170000Y-90297000D02*
X90170000Y-91186000D01*
X90170000Y-90170000D02*
X90170000Y-90297000D01*
D19*
X95631000Y-82042000D02*
X96901000Y-80772000D01*
D20*
X93472000Y-82042000D02*
X95631000Y-82042000D01*
D19*
X92551000Y-86487000D02*
X92551000Y-82963000D01*
D20*
X92551000Y-82963000D02*
X93472000Y-82042000D01*
X85471000Y-98552000D02*
X85090000Y-98552000D01*
X84328000Y-98552000D02*
X85090000Y-98552000D01*
X84074000Y-98298000D02*
X84328000Y-98552000D01*
X84074000Y-98298000D02*
X84074000Y-95504000D01*
D19*
X85471000Y-98552000D02*
X85471000Y-100425000D01*
D20*
X85471000Y-100425000D02*
X85503000Y-100457000D01*
X90170000Y-93522800D02*
X90170000Y-91186000D01*
X86360000Y-93980000D02*
X85598000Y-93980000D01*
X85598000Y-93980000D02*
X84074000Y-95504000D01*
X90170000Y-93522800D02*
X89712800Y-93980000D01*
X89712800Y-93980000D02*
X86360000Y-93980000D01*
X95046800Y-86614000D02*
X95046800Y-85344000D01*
X94157800Y-88265000D02*
X95046800Y-87376000D01*
X95046800Y-87376000D02*
X95046800Y-86614000D01*
X94030800Y-88265000D02*
X94157800Y-88265000D01*
D19*
X94361000Y-84658200D02*
X95046800Y-85344000D01*
X94361000Y-84658200D02*
X94361000Y-83312000D01*
D20*
X90932000Y-89027000D02*
X91694000Y-88265000D01*
X90170000Y-98806000D02*
X90424000Y-98806000D01*
X90932000Y-98298000D02*
X90932000Y-90424000D01*
X90424000Y-98806000D02*
X90932000Y-98298000D01*
X90932000Y-90424000D02*
X90932000Y-89027000D01*
X89281000Y-98806000D02*
X90170000Y-98806000D01*
X94107000Y-88265000D02*
X94030800Y-88265000D01*
X94030800Y-88265000D02*
X91694000Y-88265000D01*
D19*
X94361000Y-83312000D02*
X94538800Y-83312000D01*
X89281000Y-98806000D02*
X89281000Y-100235000D01*
D20*
X89281000Y-100235000D02*
X89503000Y-100457000D01*
D12*
X89281000Y-96680000D02*
X89281000Y-98806000D01*
D20*
X85217000Y-93091000D02*
X84759800Y-93091000D01*
D12*
X89281000Y-91280000D02*
X89281000Y-92633800D01*
D20*
X89281000Y-92633800D02*
X88823800Y-93091000D01*
X88823800Y-93091000D02*
X85217000Y-93091000D01*
D19*
X83648800Y-91218000D02*
X84124800Y-91694000D01*
D20*
X84124800Y-91694000D02*
X84124800Y-92456000D01*
X84124800Y-92456000D02*
X84378800Y-92710000D01*
D19*
X83648800Y-91218000D02*
X82346800Y-91218000D01*
D20*
X84759800Y-93091000D02*
X84378800Y-92710000D01*
D12*
X89281000Y-89408000D02*
X89281000Y-91280000D01*
D19*
X92964000Y-80772000D02*
X94361000Y-80772000D01*
D20*
X90678000Y-83058000D02*
X92964000Y-80772000D01*
X89281000Y-89502000D02*
X89281000Y-89408000D01*
X89281000Y-89408000D02*
X89281000Y-88265000D01*
X89281000Y-88265000D02*
X90678000Y-86868000D01*
X90678000Y-86868000D02*
X90678000Y-83058000D01*
M02*
