G04 #@! TF.FileFunction,Soldermask,Bot*
%FSLAX46Y46*%
G04 Gerber Fmt 4.6, Leading zero omitted, Abs format (unit mm)*
G04 Created by KiCad (PCBNEW 4.0.7) date Thursday, July 26, 2018 'PMt' 01:10:45 PM*
%MOMM*%
%LPD*%
G01*
G04 APERTURE LIST*
%ADD10C,0.100000*%
%ADD11C,2.100000*%
%ADD12O,2.100000X2.100000*%
%ADD13R,3.400000X3.400000*%
%ADD14C,0.254000*%
G04 APERTURE END LIST*
D10*
D11*
X94361000Y-80772000D03*
D12*
X94361000Y-83312000D03*
X96901000Y-80772000D03*
X96901000Y-83312000D03*
D13*
X93157040Y-93141800D03*
X98679000Y-93218000D03*
D14*
G36*
X96544375Y-84906635D02*
X97952895Y-85150610D01*
X98037557Y-85173700D01*
X99198236Y-85587200D01*
X100276404Y-86180572D01*
X100404259Y-86265808D01*
X101329757Y-86966918D01*
X101390756Y-87019202D01*
X102077343Y-87715392D01*
X102096123Y-87737928D01*
X102639210Y-88465267D01*
X102652846Y-88485721D01*
X103074002Y-89211448D01*
X103409821Y-89981553D01*
X103448027Y-90083435D01*
X103753682Y-91112511D01*
X103786000Y-91257943D01*
X103945888Y-92181010D01*
X103974109Y-92406776D01*
X104012754Y-93027500D01*
X103974109Y-93648226D01*
X103927430Y-94021654D01*
X103824925Y-94653322D01*
X103674224Y-95274931D01*
X103638506Y-95399943D01*
X103309032Y-96246956D01*
X103224239Y-96416543D01*
X102762896Y-97239142D01*
X102598756Y-97501766D01*
X102133525Y-98158043D01*
X102108415Y-98189431D01*
X101637060Y-98716060D01*
X101110431Y-99187415D01*
X101078311Y-99213112D01*
X100426943Y-99689403D01*
X100389850Y-99714132D01*
X99606097Y-100168961D01*
X99475640Y-100234190D01*
X98520849Y-100650546D01*
X98366825Y-100708305D01*
X97636055Y-100904239D01*
X97463633Y-100932976D01*
X97062511Y-100991449D01*
X96695246Y-101037357D01*
X95821500Y-101091754D01*
X94947756Y-101037357D01*
X94888564Y-101029957D01*
X93891405Y-100843693D01*
X93849891Y-100833315D01*
X92945866Y-100528770D01*
X92777851Y-100456765D01*
X92248266Y-100211143D01*
X91866474Y-100020246D01*
X91196592Y-99591635D01*
X90532579Y-99060425D01*
X90003329Y-98586723D01*
X89979495Y-98562889D01*
X89570397Y-98091195D01*
X89550184Y-98064245D01*
X89231720Y-97614129D01*
X89134868Y-97468850D01*
X88680039Y-96685097D01*
X88614810Y-96554640D01*
X88198454Y-95599849D01*
X88140695Y-95445825D01*
X87944763Y-94715062D01*
X87943919Y-94710000D01*
X87849527Y-93976036D01*
X87773987Y-93145107D01*
X87757180Y-92774571D01*
X87780139Y-92405792D01*
X87819042Y-92094566D01*
X88005306Y-91097410D01*
X88006332Y-91093305D01*
X88315039Y-90101925D01*
X88329366Y-90063721D01*
X88758796Y-89149085D01*
X88978762Y-88764143D01*
X88985989Y-88749343D01*
X89009484Y-88692083D01*
X89017922Y-88660309D01*
X89025676Y-88600894D01*
X89031835Y-88562944D01*
X89045842Y-88536211D01*
X89378893Y-88092143D01*
X90223548Y-87168467D01*
X90461977Y-86953881D01*
X91637580Y-86084759D01*
X91797170Y-85989005D01*
X92759994Y-85524388D01*
X92883267Y-85478161D01*
X93642430Y-85227816D01*
X93693927Y-85213102D01*
X94587423Y-85011681D01*
X94882292Y-84962536D01*
X96399162Y-84895465D01*
X96544375Y-84906635D01*
X96544375Y-84906635D01*
G37*
X96544375Y-84906635D02*
X97952895Y-85150610D01*
X98037557Y-85173700D01*
X99198236Y-85587200D01*
X100276404Y-86180572D01*
X100404259Y-86265808D01*
X101329757Y-86966918D01*
X101390756Y-87019202D01*
X102077343Y-87715392D01*
X102096123Y-87737928D01*
X102639210Y-88465267D01*
X102652846Y-88485721D01*
X103074002Y-89211448D01*
X103409821Y-89981553D01*
X103448027Y-90083435D01*
X103753682Y-91112511D01*
X103786000Y-91257943D01*
X103945888Y-92181010D01*
X103974109Y-92406776D01*
X104012754Y-93027500D01*
X103974109Y-93648226D01*
X103927430Y-94021654D01*
X103824925Y-94653322D01*
X103674224Y-95274931D01*
X103638506Y-95399943D01*
X103309032Y-96246956D01*
X103224239Y-96416543D01*
X102762896Y-97239142D01*
X102598756Y-97501766D01*
X102133525Y-98158043D01*
X102108415Y-98189431D01*
X101637060Y-98716060D01*
X101110431Y-99187415D01*
X101078311Y-99213112D01*
X100426943Y-99689403D01*
X100389850Y-99714132D01*
X99606097Y-100168961D01*
X99475640Y-100234190D01*
X98520849Y-100650546D01*
X98366825Y-100708305D01*
X97636055Y-100904239D01*
X97463633Y-100932976D01*
X97062511Y-100991449D01*
X96695246Y-101037357D01*
X95821500Y-101091754D01*
X94947756Y-101037357D01*
X94888564Y-101029957D01*
X93891405Y-100843693D01*
X93849891Y-100833315D01*
X92945866Y-100528770D01*
X92777851Y-100456765D01*
X92248266Y-100211143D01*
X91866474Y-100020246D01*
X91196592Y-99591635D01*
X90532579Y-99060425D01*
X90003329Y-98586723D01*
X89979495Y-98562889D01*
X89570397Y-98091195D01*
X89550184Y-98064245D01*
X89231720Y-97614129D01*
X89134868Y-97468850D01*
X88680039Y-96685097D01*
X88614810Y-96554640D01*
X88198454Y-95599849D01*
X88140695Y-95445825D01*
X87944763Y-94715062D01*
X87943919Y-94710000D01*
X87849527Y-93976036D01*
X87773987Y-93145107D01*
X87757180Y-92774571D01*
X87780139Y-92405792D01*
X87819042Y-92094566D01*
X88005306Y-91097410D01*
X88006332Y-91093305D01*
X88315039Y-90101925D01*
X88329366Y-90063721D01*
X88758796Y-89149085D01*
X88978762Y-88764143D01*
X88985989Y-88749343D01*
X89009484Y-88692083D01*
X89017922Y-88660309D01*
X89025676Y-88600894D01*
X89031835Y-88562944D01*
X89045842Y-88536211D01*
X89378893Y-88092143D01*
X90223548Y-87168467D01*
X90461977Y-86953881D01*
X91637580Y-86084759D01*
X91797170Y-85989005D01*
X92759994Y-85524388D01*
X92883267Y-85478161D01*
X93642430Y-85227816D01*
X93693927Y-85213102D01*
X94587423Y-85011681D01*
X94882292Y-84962536D01*
X96399162Y-84895465D01*
X96544375Y-84906635D01*
M02*
