G04 #@! TF.FileFunction,Profile,NP*
%FSLAX46Y46*%
G04 Gerber Fmt 4.6, Leading zero omitted, Abs format (unit mm)*
G04 Created by KiCad (PCBNEW 4.0.7) date Monday, July 16, 2018 'PMt' 08:42:58 PM*
%MOMM*%
%LPD*%
G01*
G04 APERTURE LIST*
%ADD10C,0.100000*%
G04 APERTURE END LIST*
D10*
X218160600Y-126593600D02*
X218160600Y-152171400D01*
X217068400Y-125501400D02*
X218160600Y-126593600D01*
X191770000Y-125501400D02*
X217068400Y-125501400D01*
X191770000Y-121488200D02*
X191770000Y-125501400D01*
X214655400Y-121488200D02*
X191770000Y-121488200D01*
X213055200Y-119888000D02*
X214655400Y-121488200D01*
X184175400Y-119888000D02*
X213055200Y-119888000D01*
X184175400Y-115976400D02*
X184175400Y-119888000D01*
X212979000Y-115976400D02*
X184175400Y-115976400D01*
X212979000Y-114147600D02*
X212979000Y-115976400D01*
X184175400Y-114147600D02*
X212979000Y-114147600D01*
X184175400Y-110312200D02*
X184175400Y-114147600D01*
X212750400Y-110312200D02*
X184175400Y-110312200D01*
X214503000Y-108559600D02*
X212750400Y-110312200D01*
X191770000Y-108559600D02*
X214503000Y-108559600D01*
X191770000Y-104698800D02*
X191770000Y-108559600D01*
X216916000Y-104698800D02*
X191770000Y-104698800D01*
X218160600Y-103454200D02*
X216916000Y-104698800D01*
X218160600Y-78282800D02*
X218160600Y-103454200D01*
X222148400Y-78282800D02*
X218160600Y-78282800D01*
X222148400Y-101041200D02*
X222148400Y-78282800D01*
X223774000Y-99415600D02*
X222148400Y-101041200D01*
X223774000Y-70942200D02*
X223774000Y-99415600D01*
X227812600Y-70942200D02*
X223774000Y-70942200D01*
X227812600Y-99618800D02*
X227812600Y-70942200D01*
X229438200Y-99618800D02*
X227812600Y-99618800D01*
X229438200Y-70789800D02*
X229438200Y-99618800D01*
X233426000Y-70789800D02*
X229438200Y-70789800D01*
X233426000Y-99212400D02*
X233426000Y-70789800D01*
X235204000Y-100990400D02*
X233426000Y-99212400D01*
X235204000Y-78384400D02*
X235204000Y-100990400D01*
X239141000Y-78384400D02*
X235204000Y-78384400D01*
X239141000Y-102362000D02*
X239141000Y-78384400D01*
X241731800Y-104952800D02*
X239141000Y-102362000D01*
X265582400Y-104952800D02*
X241731800Y-104952800D01*
X265582400Y-108585000D02*
X265582400Y-104952800D01*
X243027200Y-108585000D02*
X265582400Y-108585000D01*
X244525800Y-110083600D02*
X243027200Y-108585000D01*
X273126200Y-110083600D02*
X244525800Y-110083600D01*
X273126200Y-114173000D02*
X273126200Y-110083600D01*
X244551200Y-114173000D02*
X273126200Y-114173000D01*
X244551200Y-116052600D02*
X244551200Y-114173000D01*
X273024600Y-116052600D02*
X244551200Y-116052600D01*
X273024600Y-119938800D02*
X273024600Y-116052600D01*
X244373400Y-119938800D02*
X273024600Y-119938800D01*
X242671600Y-121640600D02*
X244373400Y-119938800D01*
X265430000Y-121640600D02*
X242671600Y-121640600D01*
X265430000Y-125526800D02*
X265430000Y-121640600D01*
X240436400Y-125526800D02*
X265430000Y-125526800D01*
X239166400Y-126796800D02*
X240436400Y-125526800D01*
X239166400Y-152019000D02*
X239166400Y-126796800D01*
X235102400Y-152019000D02*
X239166400Y-152019000D01*
X235102400Y-128955800D02*
X235102400Y-152019000D01*
X233400600Y-130657600D02*
X235102400Y-128955800D01*
X233400600Y-159664400D02*
X233400600Y-130657600D01*
X229489000Y-159664400D02*
X233400600Y-159664400D01*
X229489000Y-130657600D02*
X229489000Y-159664400D01*
X227711000Y-130657600D02*
X229489000Y-130657600D01*
X227711000Y-159740600D02*
X227711000Y-130657600D01*
X223926400Y-159740600D02*
X227711000Y-159740600D01*
X223926400Y-130962400D02*
X223926400Y-159740600D01*
X222097600Y-129133600D02*
X223926400Y-130962400D01*
X222097600Y-152171400D02*
X222097600Y-129133600D01*
X222046800Y-152171400D02*
X222097600Y-152171400D01*
X218160600Y-152171400D02*
X222046800Y-152171400D01*
M02*
