G04 #@! TF.FileFunction,Soldermask,Top*
%FSLAX46Y46*%
G04 Gerber Fmt 4.6, Leading zero omitted, Abs format (unit mm)*
G04 Created by KiCad (PCBNEW 4.0.7) date Monday, July 16, 2018 'PMt' 08:42:58 PM*
%MOMM*%
%LPD*%
G01*
G04 APERTURE LIST*
%ADD10C,0.100000*%
%ADD11C,1.700000*%
%ADD12O,1.700000X1.700000*%
%ADD13R,2.500000X2.100000*%
%ADD14R,1.500000X2.100000*%
%ADD15R,0.900000X1.700000*%
%ADD16C,0.254000*%
G04 APERTURE END LIST*
D10*
D11*
X219303600Y-116713000D03*
D12*
X219303600Y-114173000D03*
X216763600Y-116713000D03*
X216763600Y-114173000D03*
D13*
X227524000Y-115036600D03*
D14*
X230184000Y-115036600D03*
D15*
X220761900Y-122885200D03*
X223661900Y-122885200D03*
D16*
G36*
X230449320Y-106968546D02*
X231569530Y-107292162D01*
X232087324Y-107625030D01*
X232112599Y-107637554D01*
X232375016Y-107732978D01*
X234895409Y-109576251D01*
X236190749Y-111481895D01*
X236865598Y-114318760D01*
X236301998Y-118326581D01*
X234832142Y-120282238D01*
X232533757Y-122178720D01*
X230196552Y-123178593D01*
X226945600Y-123341141D01*
X225561701Y-122772754D01*
X224658253Y-122157907D01*
X224653199Y-122154640D01*
X222772650Y-121001237D01*
X221147101Y-118500393D01*
X220129812Y-115147104D01*
X220267355Y-111495950D01*
X221215580Y-110079770D01*
X224141058Y-107568630D01*
X226225027Y-106944687D01*
X227832223Y-106768900D01*
X229463567Y-106768900D01*
X230449320Y-106968546D01*
X230449320Y-106968546D01*
G37*
X230449320Y-106968546D02*
X231569530Y-107292162D01*
X232087324Y-107625030D01*
X232112599Y-107637554D01*
X232375016Y-107732978D01*
X234895409Y-109576251D01*
X236190749Y-111481895D01*
X236865598Y-114318760D01*
X236301998Y-118326581D01*
X234832142Y-120282238D01*
X232533757Y-122178720D01*
X230196552Y-123178593D01*
X226945600Y-123341141D01*
X225561701Y-122772754D01*
X224658253Y-122157907D01*
X224653199Y-122154640D01*
X222772650Y-121001237D01*
X221147101Y-118500393D01*
X220129812Y-115147104D01*
X220267355Y-111495950D01*
X221215580Y-110079770D01*
X224141058Y-107568630D01*
X226225027Y-106944687D01*
X227832223Y-106768900D01*
X229463567Y-106768900D01*
X230449320Y-106968546D01*
M02*
