G04 #@! TF.FileFunction,Legend,Bot*
%FSLAX46Y46*%
G04 Gerber Fmt 4.6, Leading zero omitted, Abs format (unit mm)*
G04 Created by KiCad (PCBNEW 4.0.7) date Monday, July 16, 2018 'PMt' 08:42:58 PM*
%MOMM*%
%LPD*%
G01*
G04 APERTURE LIST*
%ADD10C,0.100000*%
%ADD11C,0.300000*%
%ADD12C,0.150000*%
%ADD13C,0.010000*%
G04 APERTURE END LIST*
D10*
D11*
X264216671Y-122653429D02*
X264273813Y-122596286D01*
X264388099Y-122539143D01*
X264502385Y-122539143D01*
X264616671Y-122596286D01*
X264673813Y-122653429D01*
X264730956Y-122767714D01*
X264730956Y-122882000D01*
X264673813Y-122996286D01*
X264616671Y-123053429D01*
X264502385Y-123110571D01*
X264388099Y-123110571D01*
X264273813Y-123053429D01*
X264216671Y-122996286D01*
X264216671Y-122539143D02*
X264216671Y-122996286D01*
X264159528Y-123053429D01*
X264102385Y-123053429D01*
X263988099Y-122996286D01*
X263930956Y-122882000D01*
X263930956Y-122596286D01*
X264045242Y-122424857D01*
X264216671Y-122310571D01*
X264445242Y-122253429D01*
X264673813Y-122310571D01*
X264845242Y-122424857D01*
X264959528Y-122596286D01*
X265016671Y-122824857D01*
X264959528Y-123053429D01*
X264845242Y-123224857D01*
X264673813Y-123339143D01*
X264445242Y-123396286D01*
X264216671Y-123339143D01*
X264045242Y-123224857D01*
X262902385Y-123224857D02*
X262902385Y-122024857D01*
X262902385Y-123167714D02*
X263016671Y-123224857D01*
X263245242Y-123224857D01*
X263359528Y-123167714D01*
X263416671Y-123110571D01*
X263473814Y-122996286D01*
X263473814Y-122653429D01*
X263416671Y-122539143D01*
X263359528Y-122482000D01*
X263245242Y-122424857D01*
X263016671Y-122424857D01*
X262902385Y-122482000D01*
X261816671Y-123167714D02*
X261930957Y-123224857D01*
X262159528Y-123224857D01*
X262273814Y-123167714D01*
X262330957Y-123110571D01*
X262388100Y-122996286D01*
X262388100Y-122653429D01*
X262330957Y-122539143D01*
X262273814Y-122482000D01*
X262159528Y-122424857D01*
X261930957Y-122424857D01*
X261816671Y-122482000D01*
X261416671Y-122424857D02*
X260788100Y-122424857D01*
X261416671Y-123224857D01*
X260788100Y-123224857D01*
X260330957Y-123224857D02*
X260330957Y-122424857D01*
X260330957Y-122024857D02*
X260388100Y-122082000D01*
X260330957Y-122139143D01*
X260273814Y-122082000D01*
X260330957Y-122024857D01*
X260330957Y-122139143D01*
X259245242Y-123224857D02*
X259245242Y-122596286D01*
X259302385Y-122482000D01*
X259416671Y-122424857D01*
X259645242Y-122424857D01*
X259759528Y-122482000D01*
X259245242Y-123167714D02*
X259359528Y-123224857D01*
X259645242Y-123224857D01*
X259759528Y-123167714D01*
X259816671Y-123053429D01*
X259816671Y-122939143D01*
X259759528Y-122824857D01*
X259645242Y-122767714D01*
X259359528Y-122767714D01*
X259245242Y-122710571D01*
X258102385Y-122024857D02*
X258673814Y-122024857D01*
X258730957Y-122596286D01*
X258673814Y-122539143D01*
X258559528Y-122482000D01*
X258273814Y-122482000D01*
X258159528Y-122539143D01*
X258102385Y-122596286D01*
X258045242Y-122710571D01*
X258045242Y-122996286D01*
X258102385Y-123110571D01*
X258159528Y-123167714D01*
X258273814Y-123224857D01*
X258559528Y-123224857D01*
X258673814Y-123167714D01*
X258730957Y-123110571D01*
X257302385Y-122024857D02*
X257188100Y-122024857D01*
X257073814Y-122082000D01*
X257016671Y-122139143D01*
X256959528Y-122253429D01*
X256902385Y-122482000D01*
X256902385Y-122767714D01*
X256959528Y-122996286D01*
X257016671Y-123110571D01*
X257073814Y-123167714D01*
X257188100Y-123224857D01*
X257302385Y-123224857D01*
X257416671Y-123167714D01*
X257473814Y-123110571D01*
X257530957Y-122996286D01*
X257588100Y-122767714D01*
X257588100Y-122482000D01*
X257530957Y-122253429D01*
X257473814Y-122139143D01*
X257416671Y-122082000D01*
X257302385Y-122024857D01*
X255816671Y-122024857D02*
X256388100Y-122024857D01*
X256445243Y-122596286D01*
X256388100Y-122539143D01*
X256273814Y-122482000D01*
X255988100Y-122482000D01*
X255873814Y-122539143D01*
X255816671Y-122596286D01*
X255759528Y-122710571D01*
X255759528Y-122996286D01*
X255816671Y-123110571D01*
X255873814Y-123167714D01*
X255988100Y-123224857D01*
X256273814Y-123224857D01*
X256388100Y-123167714D01*
X256445243Y-123110571D01*
X231292114Y-128558857D02*
X231292114Y-127358857D01*
X231006399Y-127358857D01*
X230834971Y-127416000D01*
X230720685Y-127530286D01*
X230663542Y-127644571D01*
X230606399Y-127873143D01*
X230606399Y-128044571D01*
X230663542Y-128273143D01*
X230720685Y-128387429D01*
X230834971Y-128501714D01*
X231006399Y-128558857D01*
X231292114Y-128558857D01*
X229406399Y-128444571D02*
X229463542Y-128501714D01*
X229634971Y-128558857D01*
X229749257Y-128558857D01*
X229920685Y-128501714D01*
X230034971Y-128387429D01*
X230092114Y-128273143D01*
X230149257Y-128044571D01*
X230149257Y-127873143D01*
X230092114Y-127644571D01*
X230034971Y-127530286D01*
X229920685Y-127416000D01*
X229749257Y-127358857D01*
X229634971Y-127358857D01*
X229463542Y-127416000D01*
X229406399Y-127473143D01*
X229006399Y-127358857D02*
X228206399Y-127358857D01*
X229006399Y-128558857D01*
X228206399Y-128558857D01*
X227749257Y-128558857D02*
X227749257Y-127358857D01*
X227234971Y-128216000D02*
X226663542Y-128216000D01*
X227349256Y-128558857D02*
X226949256Y-127358857D01*
X226549256Y-128558857D01*
D12*
X215893600Y-117983000D02*
G75*
G03X215893600Y-117983000I-400000J0D01*
G01*
D13*
G36*
X218553911Y-125367771D02*
X218568200Y-125426720D01*
X218627629Y-125603015D01*
X218786744Y-125891337D01*
X219016786Y-126250407D01*
X219288995Y-126638950D01*
X219574612Y-127015688D01*
X219844879Y-127339344D01*
X220043410Y-127544041D01*
X220491199Y-127899621D01*
X220931598Y-128115325D01*
X221436602Y-128218284D01*
X221884290Y-128237842D01*
X222310428Y-128271168D01*
X222787378Y-128355940D01*
X223051711Y-128425555D01*
X223403882Y-128554817D01*
X223810436Y-128733685D01*
X224223583Y-128937343D01*
X224595530Y-129140975D01*
X224878486Y-129319763D01*
X225024661Y-129448891D01*
X225025747Y-129450612D01*
X225142932Y-129561654D01*
X225371802Y-129730474D01*
X225549722Y-129848177D01*
X225938004Y-130046638D01*
X226322850Y-130126119D01*
X226756014Y-130087587D01*
X227289253Y-129932006D01*
X227422624Y-129883112D01*
X228160253Y-129655024D01*
X228827521Y-129568254D01*
X229493244Y-129620488D01*
X230168200Y-129790808D01*
X230616793Y-129921630D01*
X231053390Y-130030390D01*
X231400047Y-130098136D01*
X231468612Y-130106990D01*
X231665734Y-130123151D01*
X231822488Y-130108245D01*
X231976359Y-130039737D01*
X232164833Y-129895093D01*
X232425395Y-129651775D01*
X232738764Y-129343407D01*
X233450930Y-128713408D01*
X234137557Y-128264694D01*
X234821922Y-127984598D01*
X235453000Y-127866406D01*
X235822316Y-127850475D01*
X236130503Y-127892932D01*
X236473362Y-128011684D01*
X236657132Y-128091481D01*
X237061365Y-128308043D01*
X237376219Y-128544026D01*
X237491452Y-128671055D01*
X237706137Y-128972552D01*
X237712168Y-138447967D01*
X237713227Y-140036059D01*
X237714436Y-141436368D01*
X237716065Y-142661111D01*
X237718385Y-143722504D01*
X237721665Y-144632765D01*
X237726175Y-145404111D01*
X237732186Y-146048758D01*
X237739967Y-146578924D01*
X237749788Y-147006825D01*
X237761919Y-147344679D01*
X237776630Y-147604701D01*
X237794191Y-147799110D01*
X237814872Y-147940122D01*
X237838943Y-148039954D01*
X237866673Y-148110823D01*
X237898334Y-148164945D01*
X237927782Y-148205891D01*
X238205760Y-148449926D01*
X238516171Y-148584307D01*
X238894978Y-148680214D01*
X238841809Y-149645118D01*
X238805491Y-150141313D01*
X238753380Y-150491980D01*
X238673682Y-150751552D01*
X238554606Y-150974461D01*
X238553420Y-150976310D01*
X238265855Y-151294902D01*
X237873809Y-151564022D01*
X237443614Y-151749730D01*
X237041607Y-151818087D01*
X236925875Y-151809016D01*
X236501582Y-151664248D01*
X236066326Y-151392354D01*
X235697516Y-151045626D01*
X235593529Y-150909035D01*
X235368859Y-150576986D01*
X235364700Y-139811228D01*
X235363193Y-137909787D01*
X235360191Y-136204215D01*
X235355650Y-134690387D01*
X235349530Y-133364176D01*
X235341788Y-132221456D01*
X235332382Y-131258103D01*
X235321269Y-130469990D01*
X235308408Y-129852991D01*
X235293756Y-129402980D01*
X235277272Y-129115833D01*
X235258913Y-128987423D01*
X235254068Y-128979666D01*
X235107508Y-128978292D01*
X234851436Y-129047647D01*
X234682898Y-129112785D01*
X234292625Y-129267837D01*
X233881836Y-129413667D01*
X233768200Y-129450054D01*
X233318200Y-129588400D01*
X233256355Y-130738400D01*
X233230686Y-131204699D01*
X233207776Y-131600784D01*
X233190280Y-131881998D01*
X233181355Y-131999972D01*
X233083796Y-132064414D01*
X232811612Y-132045921D01*
X232762886Y-132037428D01*
X232398458Y-132024764D01*
X232160007Y-132156699D01*
X232020746Y-132448745D01*
X232015278Y-132470392D01*
X232008555Y-132597242D01*
X232002560Y-132911261D01*
X231997320Y-133399623D01*
X231992862Y-134049497D01*
X231989214Y-134848056D01*
X231986404Y-135782472D01*
X231984460Y-136839915D01*
X231983409Y-138007556D01*
X231983278Y-139272569D01*
X231984096Y-140622123D01*
X231985890Y-142043391D01*
X231988688Y-143523544D01*
X231990127Y-144142829D01*
X231994221Y-145937636D01*
X231997662Y-147543093D01*
X232001110Y-148969844D01*
X232005226Y-150228535D01*
X232010668Y-151329811D01*
X232018098Y-152284316D01*
X232028175Y-153102696D01*
X232041559Y-153795596D01*
X232058909Y-154373661D01*
X232080886Y-154847536D01*
X232108148Y-155227866D01*
X232141357Y-155525297D01*
X232181173Y-155750472D01*
X232228253Y-155914039D01*
X232283260Y-156026641D01*
X232346852Y-156098923D01*
X232419690Y-156141532D01*
X232502433Y-156165111D01*
X232595741Y-156180306D01*
X232700274Y-156197762D01*
X232737879Y-156205959D01*
X233004172Y-156298713D01*
X233136923Y-156447561D01*
X233181022Y-156592069D01*
X233250263Y-157279669D01*
X233162739Y-157904723D01*
X232932719Y-158443423D01*
X232574471Y-158871955D01*
X232102265Y-159166511D01*
X231557732Y-159300878D01*
X230969404Y-159269794D01*
X230468917Y-159059512D01*
X230062247Y-158673314D01*
X229875663Y-158377528D01*
X229618200Y-157888400D01*
X229568200Y-144098530D01*
X229518200Y-130308661D01*
X228622854Y-130330203D01*
X228215641Y-130344985D01*
X227885814Y-130366250D01*
X227683573Y-130390354D01*
X227647854Y-130400974D01*
X227618548Y-130513734D01*
X227594097Y-130788129D01*
X227576695Y-131185813D01*
X227568538Y-131668438D01*
X227568200Y-131792388D01*
X227568200Y-133134573D01*
X227119593Y-133073085D01*
X227003481Y-133051186D01*
X226899901Y-133026197D01*
X226808144Y-133008766D01*
X226727499Y-133009538D01*
X226657259Y-133039158D01*
X226596713Y-133108273D01*
X226545152Y-133227529D01*
X226501866Y-133407572D01*
X226466145Y-133659046D01*
X226437281Y-133992600D01*
X226414564Y-134418877D01*
X226397285Y-134948525D01*
X226384733Y-135592189D01*
X226376199Y-136360515D01*
X226370975Y-137264149D01*
X226368349Y-138313737D01*
X226367614Y-139519925D01*
X226368059Y-140893358D01*
X226368975Y-142444683D01*
X226369652Y-144184546D01*
X226369674Y-144325644D01*
X226370324Y-146115992D01*
X226371846Y-147716111D01*
X226374352Y-149135772D01*
X226377957Y-150384743D01*
X226382773Y-151472796D01*
X226388912Y-152409699D01*
X226396488Y-153205222D01*
X226405613Y-153869136D01*
X226416401Y-154411210D01*
X226428965Y-154841214D01*
X226443417Y-155168918D01*
X226459871Y-155404092D01*
X226478439Y-155556505D01*
X226499234Y-155635928D01*
X226500458Y-155638400D01*
X226604174Y-155790200D01*
X226751550Y-155858281D01*
X227010264Y-155867431D01*
X227112961Y-155862750D01*
X227596153Y-155837101D01*
X227545232Y-156962750D01*
X227494968Y-157627196D01*
X227403058Y-158129788D01*
X227255028Y-158506817D01*
X227036404Y-158794576D01*
X226732711Y-159029356D01*
X226717121Y-159039066D01*
X226374297Y-159183074D01*
X225940133Y-159277100D01*
X225509544Y-159306443D01*
X225221413Y-159270735D01*
X224888323Y-159104965D01*
X224542170Y-158820105D01*
X224253261Y-158478864D01*
X224161614Y-158325492D01*
X224134738Y-158268517D01*
X224110472Y-158201596D01*
X224088684Y-158114744D01*
X224069241Y-157997978D01*
X224052008Y-157841312D01*
X224036854Y-157634763D01*
X224023644Y-157368347D01*
X224012245Y-157032081D01*
X224002524Y-156615979D01*
X223994347Y-156110058D01*
X223987582Y-155504334D01*
X223982094Y-154788823D01*
X223977751Y-153953541D01*
X223974419Y-152988504D01*
X223971966Y-151883727D01*
X223970257Y-150629228D01*
X223969159Y-149215021D01*
X223968539Y-147631122D01*
X223968263Y-145867549D01*
X223968200Y-143914316D01*
X223968200Y-129735460D01*
X223643200Y-129537303D01*
X223381890Y-129405691D01*
X223163093Y-129340337D01*
X223138369Y-129338773D01*
X222941339Y-129296493D01*
X222658958Y-129190646D01*
X222544586Y-129138399D01*
X222293096Y-129019196D01*
X222113195Y-128958397D01*
X221992901Y-128979029D01*
X221920233Y-129104118D01*
X221883212Y-129356692D01*
X221869855Y-129759776D01*
X221868183Y-130336398D01*
X221868200Y-130438400D01*
X221864217Y-130960405D01*
X221853242Y-131403403D01*
X221836737Y-131732827D01*
X221816161Y-131914111D01*
X221804801Y-131938400D01*
X221677197Y-131912037D01*
X221435137Y-131846140D01*
X221342688Y-131818941D01*
X221222105Y-131779708D01*
X221116778Y-131747267D01*
X221025679Y-131733959D01*
X220947780Y-131752126D01*
X220882051Y-131814110D01*
X220827463Y-131932251D01*
X220782989Y-132118892D01*
X220747598Y-132386373D01*
X220720264Y-132747036D01*
X220699956Y-133213222D01*
X220685646Y-133797273D01*
X220676306Y-134511529D01*
X220670907Y-135368334D01*
X220668419Y-136380026D01*
X220667815Y-137558950D01*
X220668066Y-138917444D01*
X220668200Y-139910724D01*
X220667855Y-141419874D01*
X220667664Y-142741372D01*
X220668894Y-143887565D01*
X220672811Y-144870798D01*
X220680681Y-145703417D01*
X220693772Y-146397767D01*
X220713349Y-146966196D01*
X220740678Y-147421047D01*
X220777026Y-147774668D01*
X220823660Y-148039403D01*
X220881846Y-148227598D01*
X220952850Y-148351600D01*
X221037938Y-148423753D01*
X221138377Y-148456404D01*
X221255434Y-148461899D01*
X221390375Y-148452582D01*
X221543200Y-148440869D01*
X221868200Y-148423076D01*
X221867642Y-149255738D01*
X221843827Y-149909353D01*
X221764753Y-150411102D01*
X221617476Y-150804590D01*
X221389056Y-151133421D01*
X221274499Y-151254230D01*
X220793548Y-151615681D01*
X220283655Y-151791414D01*
X219765090Y-151775212D01*
X219662550Y-151748522D01*
X219253331Y-151549133D01*
X218873328Y-151231368D01*
X218575162Y-150850647D01*
X218411456Y-150462394D01*
X218404171Y-150423204D01*
X218344651Y-150161993D01*
X218274441Y-149998555D01*
X218257381Y-149981713D01*
X218246471Y-149876946D01*
X218235913Y-149584574D01*
X218225801Y-149116992D01*
X218216224Y-148486593D01*
X218207277Y-147705774D01*
X218199050Y-146786929D01*
X218191635Y-145742452D01*
X218185125Y-144584739D01*
X218179611Y-143326184D01*
X218175186Y-141979181D01*
X218171940Y-140556126D01*
X218169967Y-139069413D01*
X218169424Y-138124074D01*
X218166015Y-126318689D01*
X217942107Y-126136377D01*
X217718200Y-125954064D01*
X218011909Y-125646232D01*
X218247743Y-125439554D01*
X218441140Y-125341711D01*
X218553911Y-125367771D01*
X218553911Y-125367771D01*
G37*
X218553911Y-125367771D02*
X218568200Y-125426720D01*
X218627629Y-125603015D01*
X218786744Y-125891337D01*
X219016786Y-126250407D01*
X219288995Y-126638950D01*
X219574612Y-127015688D01*
X219844879Y-127339344D01*
X220043410Y-127544041D01*
X220491199Y-127899621D01*
X220931598Y-128115325D01*
X221436602Y-128218284D01*
X221884290Y-128237842D01*
X222310428Y-128271168D01*
X222787378Y-128355940D01*
X223051711Y-128425555D01*
X223403882Y-128554817D01*
X223810436Y-128733685D01*
X224223583Y-128937343D01*
X224595530Y-129140975D01*
X224878486Y-129319763D01*
X225024661Y-129448891D01*
X225025747Y-129450612D01*
X225142932Y-129561654D01*
X225371802Y-129730474D01*
X225549722Y-129848177D01*
X225938004Y-130046638D01*
X226322850Y-130126119D01*
X226756014Y-130087587D01*
X227289253Y-129932006D01*
X227422624Y-129883112D01*
X228160253Y-129655024D01*
X228827521Y-129568254D01*
X229493244Y-129620488D01*
X230168200Y-129790808D01*
X230616793Y-129921630D01*
X231053390Y-130030390D01*
X231400047Y-130098136D01*
X231468612Y-130106990D01*
X231665734Y-130123151D01*
X231822488Y-130108245D01*
X231976359Y-130039737D01*
X232164833Y-129895093D01*
X232425395Y-129651775D01*
X232738764Y-129343407D01*
X233450930Y-128713408D01*
X234137557Y-128264694D01*
X234821922Y-127984598D01*
X235453000Y-127866406D01*
X235822316Y-127850475D01*
X236130503Y-127892932D01*
X236473362Y-128011684D01*
X236657132Y-128091481D01*
X237061365Y-128308043D01*
X237376219Y-128544026D01*
X237491452Y-128671055D01*
X237706137Y-128972552D01*
X237712168Y-138447967D01*
X237713227Y-140036059D01*
X237714436Y-141436368D01*
X237716065Y-142661111D01*
X237718385Y-143722504D01*
X237721665Y-144632765D01*
X237726175Y-145404111D01*
X237732186Y-146048758D01*
X237739967Y-146578924D01*
X237749788Y-147006825D01*
X237761919Y-147344679D01*
X237776630Y-147604701D01*
X237794191Y-147799110D01*
X237814872Y-147940122D01*
X237838943Y-148039954D01*
X237866673Y-148110823D01*
X237898334Y-148164945D01*
X237927782Y-148205891D01*
X238205760Y-148449926D01*
X238516171Y-148584307D01*
X238894978Y-148680214D01*
X238841809Y-149645118D01*
X238805491Y-150141313D01*
X238753380Y-150491980D01*
X238673682Y-150751552D01*
X238554606Y-150974461D01*
X238553420Y-150976310D01*
X238265855Y-151294902D01*
X237873809Y-151564022D01*
X237443614Y-151749730D01*
X237041607Y-151818087D01*
X236925875Y-151809016D01*
X236501582Y-151664248D01*
X236066326Y-151392354D01*
X235697516Y-151045626D01*
X235593529Y-150909035D01*
X235368859Y-150576986D01*
X235364700Y-139811228D01*
X235363193Y-137909787D01*
X235360191Y-136204215D01*
X235355650Y-134690387D01*
X235349530Y-133364176D01*
X235341788Y-132221456D01*
X235332382Y-131258103D01*
X235321269Y-130469990D01*
X235308408Y-129852991D01*
X235293756Y-129402980D01*
X235277272Y-129115833D01*
X235258913Y-128987423D01*
X235254068Y-128979666D01*
X235107508Y-128978292D01*
X234851436Y-129047647D01*
X234682898Y-129112785D01*
X234292625Y-129267837D01*
X233881836Y-129413667D01*
X233768200Y-129450054D01*
X233318200Y-129588400D01*
X233256355Y-130738400D01*
X233230686Y-131204699D01*
X233207776Y-131600784D01*
X233190280Y-131881998D01*
X233181355Y-131999972D01*
X233083796Y-132064414D01*
X232811612Y-132045921D01*
X232762886Y-132037428D01*
X232398458Y-132024764D01*
X232160007Y-132156699D01*
X232020746Y-132448745D01*
X232015278Y-132470392D01*
X232008555Y-132597242D01*
X232002560Y-132911261D01*
X231997320Y-133399623D01*
X231992862Y-134049497D01*
X231989214Y-134848056D01*
X231986404Y-135782472D01*
X231984460Y-136839915D01*
X231983409Y-138007556D01*
X231983278Y-139272569D01*
X231984096Y-140622123D01*
X231985890Y-142043391D01*
X231988688Y-143523544D01*
X231990127Y-144142829D01*
X231994221Y-145937636D01*
X231997662Y-147543093D01*
X232001110Y-148969844D01*
X232005226Y-150228535D01*
X232010668Y-151329811D01*
X232018098Y-152284316D01*
X232028175Y-153102696D01*
X232041559Y-153795596D01*
X232058909Y-154373661D01*
X232080886Y-154847536D01*
X232108148Y-155227866D01*
X232141357Y-155525297D01*
X232181173Y-155750472D01*
X232228253Y-155914039D01*
X232283260Y-156026641D01*
X232346852Y-156098923D01*
X232419690Y-156141532D01*
X232502433Y-156165111D01*
X232595741Y-156180306D01*
X232700274Y-156197762D01*
X232737879Y-156205959D01*
X233004172Y-156298713D01*
X233136923Y-156447561D01*
X233181022Y-156592069D01*
X233250263Y-157279669D01*
X233162739Y-157904723D01*
X232932719Y-158443423D01*
X232574471Y-158871955D01*
X232102265Y-159166511D01*
X231557732Y-159300878D01*
X230969404Y-159269794D01*
X230468917Y-159059512D01*
X230062247Y-158673314D01*
X229875663Y-158377528D01*
X229618200Y-157888400D01*
X229568200Y-144098530D01*
X229518200Y-130308661D01*
X228622854Y-130330203D01*
X228215641Y-130344985D01*
X227885814Y-130366250D01*
X227683573Y-130390354D01*
X227647854Y-130400974D01*
X227618548Y-130513734D01*
X227594097Y-130788129D01*
X227576695Y-131185813D01*
X227568538Y-131668438D01*
X227568200Y-131792388D01*
X227568200Y-133134573D01*
X227119593Y-133073085D01*
X227003481Y-133051186D01*
X226899901Y-133026197D01*
X226808144Y-133008766D01*
X226727499Y-133009538D01*
X226657259Y-133039158D01*
X226596713Y-133108273D01*
X226545152Y-133227529D01*
X226501866Y-133407572D01*
X226466145Y-133659046D01*
X226437281Y-133992600D01*
X226414564Y-134418877D01*
X226397285Y-134948525D01*
X226384733Y-135592189D01*
X226376199Y-136360515D01*
X226370975Y-137264149D01*
X226368349Y-138313737D01*
X226367614Y-139519925D01*
X226368059Y-140893358D01*
X226368975Y-142444683D01*
X226369652Y-144184546D01*
X226369674Y-144325644D01*
X226370324Y-146115992D01*
X226371846Y-147716111D01*
X226374352Y-149135772D01*
X226377957Y-150384743D01*
X226382773Y-151472796D01*
X226388912Y-152409699D01*
X226396488Y-153205222D01*
X226405613Y-153869136D01*
X226416401Y-154411210D01*
X226428965Y-154841214D01*
X226443417Y-155168918D01*
X226459871Y-155404092D01*
X226478439Y-155556505D01*
X226499234Y-155635928D01*
X226500458Y-155638400D01*
X226604174Y-155790200D01*
X226751550Y-155858281D01*
X227010264Y-155867431D01*
X227112961Y-155862750D01*
X227596153Y-155837101D01*
X227545232Y-156962750D01*
X227494968Y-157627196D01*
X227403058Y-158129788D01*
X227255028Y-158506817D01*
X227036404Y-158794576D01*
X226732711Y-159029356D01*
X226717121Y-159039066D01*
X226374297Y-159183074D01*
X225940133Y-159277100D01*
X225509544Y-159306443D01*
X225221413Y-159270735D01*
X224888323Y-159104965D01*
X224542170Y-158820105D01*
X224253261Y-158478864D01*
X224161614Y-158325492D01*
X224134738Y-158268517D01*
X224110472Y-158201596D01*
X224088684Y-158114744D01*
X224069241Y-157997978D01*
X224052008Y-157841312D01*
X224036854Y-157634763D01*
X224023644Y-157368347D01*
X224012245Y-157032081D01*
X224002524Y-156615979D01*
X223994347Y-156110058D01*
X223987582Y-155504334D01*
X223982094Y-154788823D01*
X223977751Y-153953541D01*
X223974419Y-152988504D01*
X223971966Y-151883727D01*
X223970257Y-150629228D01*
X223969159Y-149215021D01*
X223968539Y-147631122D01*
X223968263Y-145867549D01*
X223968200Y-143914316D01*
X223968200Y-129735460D01*
X223643200Y-129537303D01*
X223381890Y-129405691D01*
X223163093Y-129340337D01*
X223138369Y-129338773D01*
X222941339Y-129296493D01*
X222658958Y-129190646D01*
X222544586Y-129138399D01*
X222293096Y-129019196D01*
X222113195Y-128958397D01*
X221992901Y-128979029D01*
X221920233Y-129104118D01*
X221883212Y-129356692D01*
X221869855Y-129759776D01*
X221868183Y-130336398D01*
X221868200Y-130438400D01*
X221864217Y-130960405D01*
X221853242Y-131403403D01*
X221836737Y-131732827D01*
X221816161Y-131914111D01*
X221804801Y-131938400D01*
X221677197Y-131912037D01*
X221435137Y-131846140D01*
X221342688Y-131818941D01*
X221222105Y-131779708D01*
X221116778Y-131747267D01*
X221025679Y-131733959D01*
X220947780Y-131752126D01*
X220882051Y-131814110D01*
X220827463Y-131932251D01*
X220782989Y-132118892D01*
X220747598Y-132386373D01*
X220720264Y-132747036D01*
X220699956Y-133213222D01*
X220685646Y-133797273D01*
X220676306Y-134511529D01*
X220670907Y-135368334D01*
X220668419Y-136380026D01*
X220667815Y-137558950D01*
X220668066Y-138917444D01*
X220668200Y-139910724D01*
X220667855Y-141419874D01*
X220667664Y-142741372D01*
X220668894Y-143887565D01*
X220672811Y-144870798D01*
X220680681Y-145703417D01*
X220693772Y-146397767D01*
X220713349Y-146966196D01*
X220740678Y-147421047D01*
X220777026Y-147774668D01*
X220823660Y-148039403D01*
X220881846Y-148227598D01*
X220952850Y-148351600D01*
X221037938Y-148423753D01*
X221138377Y-148456404D01*
X221255434Y-148461899D01*
X221390375Y-148452582D01*
X221543200Y-148440869D01*
X221868200Y-148423076D01*
X221867642Y-149255738D01*
X221843827Y-149909353D01*
X221764753Y-150411102D01*
X221617476Y-150804590D01*
X221389056Y-151133421D01*
X221274499Y-151254230D01*
X220793548Y-151615681D01*
X220283655Y-151791414D01*
X219765090Y-151775212D01*
X219662550Y-151748522D01*
X219253331Y-151549133D01*
X218873328Y-151231368D01*
X218575162Y-150850647D01*
X218411456Y-150462394D01*
X218404171Y-150423204D01*
X218344651Y-150161993D01*
X218274441Y-149998555D01*
X218257381Y-149981713D01*
X218246471Y-149876946D01*
X218235913Y-149584574D01*
X218225801Y-149116992D01*
X218216224Y-148486593D01*
X218207277Y-147705774D01*
X218199050Y-146786929D01*
X218191635Y-145742452D01*
X218185125Y-144584739D01*
X218179611Y-143326184D01*
X218175186Y-141979181D01*
X218171940Y-140556126D01*
X218169967Y-139069413D01*
X218169424Y-138124074D01*
X218166015Y-126318689D01*
X217942107Y-126136377D01*
X217718200Y-125954064D01*
X218011909Y-125646232D01*
X218247743Y-125439554D01*
X218441140Y-125341711D01*
X218553911Y-125367771D01*
G36*
X238853859Y-126493675D02*
X238850173Y-126753786D01*
X238818042Y-127088400D01*
X238742426Y-126747427D01*
X238704952Y-126506433D01*
X238712370Y-126363435D01*
X238717505Y-126355761D01*
X238806784Y-126342330D01*
X238853859Y-126493675D01*
X238853859Y-126493675D01*
G37*
X238853859Y-126493675D02*
X238850173Y-126753786D01*
X238818042Y-127088400D01*
X238742426Y-126747427D01*
X238704952Y-126506433D01*
X238712370Y-126363435D01*
X238717505Y-126355761D01*
X238806784Y-126342330D01*
X238853859Y-126493675D01*
G36*
X230250784Y-103599886D02*
X231592975Y-103861681D01*
X232487591Y-104139542D01*
X233880925Y-104748615D01*
X235158967Y-105509951D01*
X236312554Y-106410010D01*
X237332520Y-107435251D01*
X238209704Y-108572133D01*
X238934941Y-109807116D01*
X239499068Y-111126658D01*
X239892921Y-112517219D01*
X240107336Y-113965258D01*
X240134027Y-115438400D01*
X240093421Y-116024651D01*
X240028071Y-116638356D01*
X239947797Y-117197775D01*
X239880931Y-117544777D01*
X239457476Y-118967689D01*
X238867146Y-120298643D01*
X238124285Y-121527854D01*
X237243239Y-122645540D01*
X236238354Y-123641914D01*
X235123975Y-124507192D01*
X233914449Y-125231591D01*
X232624122Y-125805326D01*
X231267338Y-126218613D01*
X229858444Y-126461666D01*
X228411786Y-126524703D01*
X226941708Y-126397937D01*
X226908077Y-126392764D01*
X225444376Y-126068479D01*
X224054742Y-125568651D01*
X222752670Y-124905533D01*
X221551657Y-124091377D01*
X220465196Y-123138433D01*
X219506785Y-122058955D01*
X218689917Y-120865194D01*
X218028089Y-119569403D01*
X217534797Y-118183832D01*
X217430411Y-117788400D01*
X217178717Y-116496019D01*
X217078926Y-115262700D01*
X217115733Y-114326963D01*
X220277239Y-114326963D01*
X220292780Y-114742133D01*
X220295253Y-114784382D01*
X220342134Y-115297114D01*
X220427482Y-115787589D01*
X220566234Y-116324833D01*
X220763706Y-116949147D01*
X221065289Y-117787152D01*
X221372117Y-118486539D01*
X221717248Y-119106745D01*
X222133742Y-119707209D01*
X222652215Y-120344524D01*
X223351514Y-121079819D01*
X224082489Y-121678765D01*
X224888162Y-122168128D01*
X225811554Y-122574674D01*
X226718200Y-122874260D01*
X227614636Y-123111610D01*
X228348388Y-123251507D01*
X228915015Y-123293203D01*
X229118200Y-123279215D01*
X229333867Y-123250184D01*
X229652628Y-123206752D01*
X229818200Y-123184053D01*
X230654987Y-123026003D01*
X231413994Y-122782520D01*
X232133052Y-122433466D01*
X232849996Y-121958700D01*
X233602658Y-121338082D01*
X234030584Y-120941605D01*
X234669384Y-120310949D01*
X235171010Y-119760791D01*
X235558751Y-119252252D01*
X235855898Y-118746451D01*
X236085741Y-118204509D01*
X236271568Y-117587545D01*
X236415356Y-116960482D01*
X236484667Y-116493160D01*
X236534864Y-115884457D01*
X236565364Y-115188886D01*
X236575587Y-114460958D01*
X236564951Y-113755183D01*
X236532876Y-113126073D01*
X236478780Y-112628138D01*
X236462542Y-112534660D01*
X236199832Y-111665621D01*
X235757620Y-110806697D01*
X235155915Y-109982014D01*
X234414724Y-109215695D01*
X233554055Y-108531866D01*
X232718200Y-108019885D01*
X232157458Y-107725552D01*
X235218200Y-107725552D01*
X236418200Y-108876915D01*
X236820906Y-109260145D01*
X237173755Y-109589962D01*
X237451574Y-109843312D01*
X237629189Y-109997141D01*
X237680955Y-110033339D01*
X237788817Y-109970503D01*
X237868177Y-109888426D01*
X237919165Y-109774692D01*
X237888313Y-109613416D01*
X237761922Y-109358772D01*
X237655422Y-109176793D01*
X237409539Y-108815337D01*
X237091807Y-108414956D01*
X236743126Y-108020659D01*
X236404393Y-107677454D01*
X236116508Y-107430351D01*
X235999159Y-107354074D01*
X235825566Y-107296648D01*
X235659920Y-107355140D01*
X235499159Y-107481647D01*
X235218200Y-107725552D01*
X232157458Y-107725552D01*
X232057608Y-107673141D01*
X231521978Y-107411679D01*
X231065246Y-107217100D01*
X230641349Y-107071002D01*
X230204222Y-106954985D01*
X229872784Y-106883252D01*
X228875909Y-106761173D01*
X227828412Y-106776646D01*
X226769268Y-106919758D01*
X225737455Y-107180594D01*
X224771952Y-107549242D01*
X223911735Y-108015787D01*
X223195781Y-108570315D01*
X223179665Y-108585604D01*
X222900654Y-108843857D01*
X222675566Y-109037638D01*
X222543645Y-109133590D01*
X222529272Y-109138400D01*
X222409016Y-109193085D01*
X222187510Y-109333156D01*
X221914399Y-109522629D01*
X221639326Y-109725525D01*
X221411935Y-109905861D01*
X221281868Y-110027656D01*
X221268200Y-110052415D01*
X221341196Y-110159298D01*
X221484873Y-110278823D01*
X221701547Y-110430587D01*
X221138154Y-111630673D01*
X220829089Y-112299009D01*
X220600119Y-112827892D01*
X220440847Y-113256225D01*
X220340875Y-113622913D01*
X220289805Y-113966858D01*
X220277239Y-114326963D01*
X217115733Y-114326963D01*
X217127755Y-114021340D01*
X217212654Y-113337984D01*
X217535962Y-111837999D01*
X217890382Y-110835202D01*
X219272916Y-110835202D01*
X219303569Y-111006951D01*
X219433149Y-111014794D01*
X219529678Y-110961868D01*
X219624798Y-110854812D01*
X219805290Y-110614561D01*
X220046605Y-110275002D01*
X220324190Y-109870022D01*
X220369426Y-109802766D01*
X220701124Y-109328751D01*
X221054385Y-108857702D01*
X221385275Y-108446430D01*
X221632947Y-108168893D01*
X221887842Y-107899680D01*
X222076628Y-107684785D01*
X222164871Y-107563787D01*
X222167429Y-107554527D01*
X222084327Y-107456372D01*
X221883071Y-107325107D01*
X221633298Y-107196420D01*
X221404650Y-107106003D01*
X221266763Y-107089545D01*
X221263538Y-107091280D01*
X221213643Y-107131442D01*
X221135840Y-107214234D01*
X221014241Y-107359574D01*
X220832957Y-107587380D01*
X220576099Y-107917569D01*
X220227780Y-108370059D01*
X219844728Y-108869895D01*
X219586090Y-109222438D01*
X219426736Y-109470861D01*
X219373094Y-109601084D01*
X219431596Y-109599024D01*
X219558094Y-109497545D01*
X219650261Y-109425356D01*
X219679933Y-109449202D01*
X219644231Y-109597242D01*
X219540276Y-109897634D01*
X219508094Y-109986595D01*
X219341116Y-110496198D01*
X219272916Y-110835202D01*
X217890382Y-110835202D01*
X218035907Y-110423457D01*
X218703586Y-109105140D01*
X219530095Y-107893832D01*
X220506528Y-106800314D01*
X221623981Y-105835369D01*
X221936686Y-105628765D01*
X225430340Y-105628765D01*
X225490639Y-105902560D01*
X225496108Y-105922727D01*
X225577305Y-106188185D01*
X225665416Y-106304881D01*
X225817360Y-106317703D01*
X225966348Y-106293577D01*
X226638255Y-106178036D01*
X227175276Y-106102174D01*
X227637507Y-106061134D01*
X228085040Y-106050057D01*
X228577969Y-106064084D01*
X228718200Y-106071096D01*
X229707896Y-106157256D01*
X230614091Y-106302360D01*
X231388815Y-106498051D01*
X231618200Y-106576270D01*
X231955349Y-106690330D01*
X232154419Y-106720487D01*
X232259258Y-106665919D01*
X232303995Y-106563400D01*
X232405595Y-106173816D01*
X232435072Y-105927046D01*
X232382175Y-105775717D01*
X232236651Y-105672452D01*
X232098311Y-105612940D01*
X231502821Y-105408188D01*
X230867741Y-105258954D01*
X230153294Y-105159645D01*
X229319697Y-105104666D01*
X228368200Y-105088400D01*
X227505227Y-105095524D01*
X226822144Y-105118190D01*
X226299303Y-105158333D01*
X225917055Y-105217890D01*
X225655753Y-105298796D01*
X225536461Y-105367502D01*
X225444005Y-105472564D01*
X225430340Y-105628765D01*
X221936686Y-105628765D01*
X222873551Y-105009780D01*
X223030522Y-104932545D01*
X225114581Y-104932545D01*
X225225212Y-104942760D01*
X225477023Y-104903663D01*
X225819670Y-104823554D01*
X225888837Y-104804944D01*
X226191649Y-104730637D01*
X226504056Y-104676492D01*
X226865211Y-104639470D01*
X227314269Y-104616534D01*
X227890384Y-104604647D01*
X228518200Y-104600941D01*
X229452856Y-104611878D01*
X230233298Y-104653262D01*
X230903904Y-104731852D01*
X231509051Y-104854406D01*
X232093118Y-105027681D01*
X232620368Y-105225649D01*
X232901369Y-105338784D01*
X233093043Y-105414452D01*
X233143200Y-105432946D01*
X233167780Y-105362424D01*
X233168200Y-105345584D01*
X233082137Y-105264131D01*
X232858710Y-105146881D01*
X232607350Y-105042929D01*
X231176146Y-104601963D01*
X229752677Y-104350645D01*
X228351601Y-104291042D01*
X227613393Y-104338893D01*
X227137634Y-104400017D01*
X226640217Y-104483688D01*
X226157928Y-104581166D01*
X225727557Y-104683711D01*
X225385892Y-104782584D01*
X225169719Y-104869044D01*
X225114581Y-104932545D01*
X223030522Y-104932545D01*
X224246333Y-104334329D01*
X224837000Y-104105348D01*
X226110632Y-103745699D01*
X227466330Y-103541701D01*
X228860808Y-103493161D01*
X230250784Y-103599886D01*
X230250784Y-103599886D01*
G37*
X230250784Y-103599886D02*
X231592975Y-103861681D01*
X232487591Y-104139542D01*
X233880925Y-104748615D01*
X235158967Y-105509951D01*
X236312554Y-106410010D01*
X237332520Y-107435251D01*
X238209704Y-108572133D01*
X238934941Y-109807116D01*
X239499068Y-111126658D01*
X239892921Y-112517219D01*
X240107336Y-113965258D01*
X240134027Y-115438400D01*
X240093421Y-116024651D01*
X240028071Y-116638356D01*
X239947797Y-117197775D01*
X239880931Y-117544777D01*
X239457476Y-118967689D01*
X238867146Y-120298643D01*
X238124285Y-121527854D01*
X237243239Y-122645540D01*
X236238354Y-123641914D01*
X235123975Y-124507192D01*
X233914449Y-125231591D01*
X232624122Y-125805326D01*
X231267338Y-126218613D01*
X229858444Y-126461666D01*
X228411786Y-126524703D01*
X226941708Y-126397937D01*
X226908077Y-126392764D01*
X225444376Y-126068479D01*
X224054742Y-125568651D01*
X222752670Y-124905533D01*
X221551657Y-124091377D01*
X220465196Y-123138433D01*
X219506785Y-122058955D01*
X218689917Y-120865194D01*
X218028089Y-119569403D01*
X217534797Y-118183832D01*
X217430411Y-117788400D01*
X217178717Y-116496019D01*
X217078926Y-115262700D01*
X217115733Y-114326963D01*
X220277239Y-114326963D01*
X220292780Y-114742133D01*
X220295253Y-114784382D01*
X220342134Y-115297114D01*
X220427482Y-115787589D01*
X220566234Y-116324833D01*
X220763706Y-116949147D01*
X221065289Y-117787152D01*
X221372117Y-118486539D01*
X221717248Y-119106745D01*
X222133742Y-119707209D01*
X222652215Y-120344524D01*
X223351514Y-121079819D01*
X224082489Y-121678765D01*
X224888162Y-122168128D01*
X225811554Y-122574674D01*
X226718200Y-122874260D01*
X227614636Y-123111610D01*
X228348388Y-123251507D01*
X228915015Y-123293203D01*
X229118200Y-123279215D01*
X229333867Y-123250184D01*
X229652628Y-123206752D01*
X229818200Y-123184053D01*
X230654987Y-123026003D01*
X231413994Y-122782520D01*
X232133052Y-122433466D01*
X232849996Y-121958700D01*
X233602658Y-121338082D01*
X234030584Y-120941605D01*
X234669384Y-120310949D01*
X235171010Y-119760791D01*
X235558751Y-119252252D01*
X235855898Y-118746451D01*
X236085741Y-118204509D01*
X236271568Y-117587545D01*
X236415356Y-116960482D01*
X236484667Y-116493160D01*
X236534864Y-115884457D01*
X236565364Y-115188886D01*
X236575587Y-114460958D01*
X236564951Y-113755183D01*
X236532876Y-113126073D01*
X236478780Y-112628138D01*
X236462542Y-112534660D01*
X236199832Y-111665621D01*
X235757620Y-110806697D01*
X235155915Y-109982014D01*
X234414724Y-109215695D01*
X233554055Y-108531866D01*
X232718200Y-108019885D01*
X232157458Y-107725552D01*
X235218200Y-107725552D01*
X236418200Y-108876915D01*
X236820906Y-109260145D01*
X237173755Y-109589962D01*
X237451574Y-109843312D01*
X237629189Y-109997141D01*
X237680955Y-110033339D01*
X237788817Y-109970503D01*
X237868177Y-109888426D01*
X237919165Y-109774692D01*
X237888313Y-109613416D01*
X237761922Y-109358772D01*
X237655422Y-109176793D01*
X237409539Y-108815337D01*
X237091807Y-108414956D01*
X236743126Y-108020659D01*
X236404393Y-107677454D01*
X236116508Y-107430351D01*
X235999159Y-107354074D01*
X235825566Y-107296648D01*
X235659920Y-107355140D01*
X235499159Y-107481647D01*
X235218200Y-107725552D01*
X232157458Y-107725552D01*
X232057608Y-107673141D01*
X231521978Y-107411679D01*
X231065246Y-107217100D01*
X230641349Y-107071002D01*
X230204222Y-106954985D01*
X229872784Y-106883252D01*
X228875909Y-106761173D01*
X227828412Y-106776646D01*
X226769268Y-106919758D01*
X225737455Y-107180594D01*
X224771952Y-107549242D01*
X223911735Y-108015787D01*
X223195781Y-108570315D01*
X223179665Y-108585604D01*
X222900654Y-108843857D01*
X222675566Y-109037638D01*
X222543645Y-109133590D01*
X222529272Y-109138400D01*
X222409016Y-109193085D01*
X222187510Y-109333156D01*
X221914399Y-109522629D01*
X221639326Y-109725525D01*
X221411935Y-109905861D01*
X221281868Y-110027656D01*
X221268200Y-110052415D01*
X221341196Y-110159298D01*
X221484873Y-110278823D01*
X221701547Y-110430587D01*
X221138154Y-111630673D01*
X220829089Y-112299009D01*
X220600119Y-112827892D01*
X220440847Y-113256225D01*
X220340875Y-113622913D01*
X220289805Y-113966858D01*
X220277239Y-114326963D01*
X217115733Y-114326963D01*
X217127755Y-114021340D01*
X217212654Y-113337984D01*
X217535962Y-111837999D01*
X217890382Y-110835202D01*
X219272916Y-110835202D01*
X219303569Y-111006951D01*
X219433149Y-111014794D01*
X219529678Y-110961868D01*
X219624798Y-110854812D01*
X219805290Y-110614561D01*
X220046605Y-110275002D01*
X220324190Y-109870022D01*
X220369426Y-109802766D01*
X220701124Y-109328751D01*
X221054385Y-108857702D01*
X221385275Y-108446430D01*
X221632947Y-108168893D01*
X221887842Y-107899680D01*
X222076628Y-107684785D01*
X222164871Y-107563787D01*
X222167429Y-107554527D01*
X222084327Y-107456372D01*
X221883071Y-107325107D01*
X221633298Y-107196420D01*
X221404650Y-107106003D01*
X221266763Y-107089545D01*
X221263538Y-107091280D01*
X221213643Y-107131442D01*
X221135840Y-107214234D01*
X221014241Y-107359574D01*
X220832957Y-107587380D01*
X220576099Y-107917569D01*
X220227780Y-108370059D01*
X219844728Y-108869895D01*
X219586090Y-109222438D01*
X219426736Y-109470861D01*
X219373094Y-109601084D01*
X219431596Y-109599024D01*
X219558094Y-109497545D01*
X219650261Y-109425356D01*
X219679933Y-109449202D01*
X219644231Y-109597242D01*
X219540276Y-109897634D01*
X219508094Y-109986595D01*
X219341116Y-110496198D01*
X219272916Y-110835202D01*
X217890382Y-110835202D01*
X218035907Y-110423457D01*
X218703586Y-109105140D01*
X219530095Y-107893832D01*
X220506528Y-106800314D01*
X221623981Y-105835369D01*
X221936686Y-105628765D01*
X225430340Y-105628765D01*
X225490639Y-105902560D01*
X225496108Y-105922727D01*
X225577305Y-106188185D01*
X225665416Y-106304881D01*
X225817360Y-106317703D01*
X225966348Y-106293577D01*
X226638255Y-106178036D01*
X227175276Y-106102174D01*
X227637507Y-106061134D01*
X228085040Y-106050057D01*
X228577969Y-106064084D01*
X228718200Y-106071096D01*
X229707896Y-106157256D01*
X230614091Y-106302360D01*
X231388815Y-106498051D01*
X231618200Y-106576270D01*
X231955349Y-106690330D01*
X232154419Y-106720487D01*
X232259258Y-106665919D01*
X232303995Y-106563400D01*
X232405595Y-106173816D01*
X232435072Y-105927046D01*
X232382175Y-105775717D01*
X232236651Y-105672452D01*
X232098311Y-105612940D01*
X231502821Y-105408188D01*
X230867741Y-105258954D01*
X230153294Y-105159645D01*
X229319697Y-105104666D01*
X228368200Y-105088400D01*
X227505227Y-105095524D01*
X226822144Y-105118190D01*
X226299303Y-105158333D01*
X225917055Y-105217890D01*
X225655753Y-105298796D01*
X225536461Y-105367502D01*
X225444005Y-105472564D01*
X225430340Y-105628765D01*
X221936686Y-105628765D01*
X222873551Y-105009780D01*
X223030522Y-104932545D01*
X225114581Y-104932545D01*
X225225212Y-104942760D01*
X225477023Y-104903663D01*
X225819670Y-104823554D01*
X225888837Y-104804944D01*
X226191649Y-104730637D01*
X226504056Y-104676492D01*
X226865211Y-104639470D01*
X227314269Y-104616534D01*
X227890384Y-104604647D01*
X228518200Y-104600941D01*
X229452856Y-104611878D01*
X230233298Y-104653262D01*
X230903904Y-104731852D01*
X231509051Y-104854406D01*
X232093118Y-105027681D01*
X232620368Y-105225649D01*
X232901369Y-105338784D01*
X233093043Y-105414452D01*
X233143200Y-105432946D01*
X233167780Y-105362424D01*
X233168200Y-105345584D01*
X233082137Y-105264131D01*
X232858710Y-105146881D01*
X232607350Y-105042929D01*
X231176146Y-104601963D01*
X229752677Y-104350645D01*
X228351601Y-104291042D01*
X227613393Y-104338893D01*
X227137634Y-104400017D01*
X226640217Y-104483688D01*
X226157928Y-104581166D01*
X225727557Y-104683711D01*
X225385892Y-104782584D01*
X225169719Y-104869044D01*
X225114581Y-104932545D01*
X223030522Y-104932545D01*
X224246333Y-104334329D01*
X224837000Y-104105348D01*
X226110632Y-103745699D01*
X227466330Y-103541701D01*
X228860808Y-103493161D01*
X230250784Y-103599886D01*
G36*
X241380588Y-122766929D02*
X242079138Y-122852050D01*
X242759370Y-122993350D01*
X242818200Y-123008820D01*
X243818200Y-123276874D01*
X253768200Y-123352025D01*
X255174199Y-123363192D01*
X256531967Y-123375039D01*
X257827074Y-123387383D01*
X259045093Y-123400038D01*
X260171596Y-123412820D01*
X261192154Y-123425544D01*
X262092339Y-123438025D01*
X262857723Y-123450080D01*
X263473878Y-123461522D01*
X263926375Y-123472168D01*
X264200787Y-123481833D01*
X264268200Y-123486398D01*
X264721802Y-123539043D01*
X265012396Y-123590250D01*
X265176152Y-123656679D01*
X265249239Y-123754988D01*
X265267828Y-123901838D01*
X265268200Y-123946977D01*
X265212498Y-124199765D01*
X265072803Y-124485897D01*
X264890225Y-124743008D01*
X264705876Y-124908730D01*
X264614664Y-124938400D01*
X264467197Y-125018077D01*
X264443216Y-125063400D01*
X264399011Y-125082871D01*
X264274082Y-125100717D01*
X264059641Y-125117064D01*
X263746899Y-125132037D01*
X263327067Y-125145760D01*
X262791357Y-125158361D01*
X262130979Y-125169963D01*
X261337146Y-125180692D01*
X260401069Y-125190674D01*
X259313959Y-125200034D01*
X258067027Y-125208897D01*
X256651486Y-125217389D01*
X255058545Y-125225635D01*
X253279417Y-125233761D01*
X252175377Y-125238400D01*
X239949188Y-125288400D01*
X239729937Y-125563400D01*
X239568882Y-125746628D01*
X239460481Y-125836532D01*
X239452179Y-125838400D01*
X239358504Y-125770664D01*
X239175381Y-125595028D01*
X238992176Y-125402828D01*
X238655920Y-125010225D01*
X238461371Y-124706630D01*
X238391282Y-124459672D01*
X238406799Y-124304085D01*
X238529725Y-124049048D01*
X238760945Y-123727588D01*
X239051689Y-123394012D01*
X239353185Y-123102627D01*
X239616662Y-122907738D01*
X239693431Y-122871434D01*
X240135896Y-122774341D01*
X240715561Y-122740266D01*
X241380588Y-122766929D01*
X241380588Y-122766929D01*
G37*
X241380588Y-122766929D02*
X242079138Y-122852050D01*
X242759370Y-122993350D01*
X242818200Y-123008820D01*
X243818200Y-123276874D01*
X253768200Y-123352025D01*
X255174199Y-123363192D01*
X256531967Y-123375039D01*
X257827074Y-123387383D01*
X259045093Y-123400038D01*
X260171596Y-123412820D01*
X261192154Y-123425544D01*
X262092339Y-123438025D01*
X262857723Y-123450080D01*
X263473878Y-123461522D01*
X263926375Y-123472168D01*
X264200787Y-123481833D01*
X264268200Y-123486398D01*
X264721802Y-123539043D01*
X265012396Y-123590250D01*
X265176152Y-123656679D01*
X265249239Y-123754988D01*
X265267828Y-123901838D01*
X265268200Y-123946977D01*
X265212498Y-124199765D01*
X265072803Y-124485897D01*
X264890225Y-124743008D01*
X264705876Y-124908730D01*
X264614664Y-124938400D01*
X264467197Y-125018077D01*
X264443216Y-125063400D01*
X264399011Y-125082871D01*
X264274082Y-125100717D01*
X264059641Y-125117064D01*
X263746899Y-125132037D01*
X263327067Y-125145760D01*
X262791357Y-125158361D01*
X262130979Y-125169963D01*
X261337146Y-125180692D01*
X260401069Y-125190674D01*
X259313959Y-125200034D01*
X258067027Y-125208897D01*
X256651486Y-125217389D01*
X255058545Y-125225635D01*
X253279417Y-125233761D01*
X252175377Y-125238400D01*
X239949188Y-125288400D01*
X239729937Y-125563400D01*
X239568882Y-125746628D01*
X239460481Y-125836532D01*
X239452179Y-125838400D01*
X239358504Y-125770664D01*
X239175381Y-125595028D01*
X238992176Y-125402828D01*
X238655920Y-125010225D01*
X238461371Y-124706630D01*
X238391282Y-124459672D01*
X238406799Y-124304085D01*
X238529725Y-124049048D01*
X238760945Y-123727588D01*
X239051689Y-123394012D01*
X239353185Y-123102627D01*
X239616662Y-122907738D01*
X239693431Y-122871434D01*
X240135896Y-122774341D01*
X240715561Y-122740266D01*
X241380588Y-122766929D01*
G36*
X192340173Y-122724389D02*
X192641100Y-122827718D01*
X192862540Y-122913170D01*
X193075558Y-122988522D01*
X193293633Y-123054408D01*
X193530244Y-123111463D01*
X193798871Y-123160321D01*
X194112992Y-123201618D01*
X194486087Y-123235989D01*
X194931636Y-123264067D01*
X195463116Y-123286488D01*
X196094008Y-123303887D01*
X196837791Y-123316899D01*
X197707944Y-123326157D01*
X198717946Y-123332297D01*
X199881276Y-123335955D01*
X201211414Y-123337763D01*
X202721839Y-123338359D01*
X203485091Y-123338400D01*
X205082262Y-123338046D01*
X206492873Y-123336642D01*
X207730364Y-123333671D01*
X208808174Y-123328616D01*
X209739744Y-123320962D01*
X210538512Y-123310191D01*
X211217918Y-123295787D01*
X211791403Y-123277235D01*
X212272405Y-123254017D01*
X212674364Y-123225618D01*
X213010719Y-123191521D01*
X213294911Y-123151209D01*
X213540379Y-123104166D01*
X213760562Y-123049877D01*
X213968901Y-122987824D01*
X214146114Y-122928796D01*
X214514081Y-122821714D01*
X214860332Y-122752648D01*
X215024945Y-122738400D01*
X215452023Y-122788255D01*
X215928079Y-122924756D01*
X216421185Y-123128303D01*
X216899414Y-123379296D01*
X217330838Y-123658134D01*
X217683528Y-123945220D01*
X217925558Y-124220952D01*
X218024998Y-124465732D01*
X218010888Y-124571392D01*
X217918145Y-124694606D01*
X217735665Y-124875626D01*
X217515840Y-125069260D01*
X217311063Y-125230316D01*
X217173725Y-125313603D01*
X217149063Y-125314768D01*
X217047114Y-125311348D01*
X216757377Y-125307241D01*
X216292064Y-125302522D01*
X215663385Y-125297267D01*
X214883552Y-125291552D01*
X213964775Y-125285452D01*
X212919266Y-125279041D01*
X211759236Y-125272397D01*
X210496895Y-125265594D01*
X209144455Y-125258708D01*
X207714127Y-125251814D01*
X206218121Y-125244987D01*
X205015723Y-125239768D01*
X192913247Y-125188400D01*
X192634786Y-124969337D01*
X192269093Y-124642270D01*
X192051891Y-124324429D01*
X191948318Y-123945151D01*
X191923628Y-123527806D01*
X191934354Y-123087790D01*
X191991222Y-122822956D01*
X192118429Y-122709692D01*
X192340173Y-122724389D01*
X192340173Y-122724389D01*
G37*
X192340173Y-122724389D02*
X192641100Y-122827718D01*
X192862540Y-122913170D01*
X193075558Y-122988522D01*
X193293633Y-123054408D01*
X193530244Y-123111463D01*
X193798871Y-123160321D01*
X194112992Y-123201618D01*
X194486087Y-123235989D01*
X194931636Y-123264067D01*
X195463116Y-123286488D01*
X196094008Y-123303887D01*
X196837791Y-123316899D01*
X197707944Y-123326157D01*
X198717946Y-123332297D01*
X199881276Y-123335955D01*
X201211414Y-123337763D01*
X202721839Y-123338359D01*
X203485091Y-123338400D01*
X205082262Y-123338046D01*
X206492873Y-123336642D01*
X207730364Y-123333671D01*
X208808174Y-123328616D01*
X209739744Y-123320962D01*
X210538512Y-123310191D01*
X211217918Y-123295787D01*
X211791403Y-123277235D01*
X212272405Y-123254017D01*
X212674364Y-123225618D01*
X213010719Y-123191521D01*
X213294911Y-123151209D01*
X213540379Y-123104166D01*
X213760562Y-123049877D01*
X213968901Y-122987824D01*
X214146114Y-122928796D01*
X214514081Y-122821714D01*
X214860332Y-122752648D01*
X215024945Y-122738400D01*
X215452023Y-122788255D01*
X215928079Y-122924756D01*
X216421185Y-123128303D01*
X216899414Y-123379296D01*
X217330838Y-123658134D01*
X217683528Y-123945220D01*
X217925558Y-124220952D01*
X218024998Y-124465732D01*
X218010888Y-124571392D01*
X217918145Y-124694606D01*
X217735665Y-124875626D01*
X217515840Y-125069260D01*
X217311063Y-125230316D01*
X217173725Y-125313603D01*
X217149063Y-125314768D01*
X217047114Y-125311348D01*
X216757377Y-125307241D01*
X216292064Y-125302522D01*
X215663385Y-125297267D01*
X214883552Y-125291552D01*
X213964775Y-125285452D01*
X212919266Y-125279041D01*
X211759236Y-125272397D01*
X210496895Y-125265594D01*
X209144455Y-125258708D01*
X207714127Y-125251814D01*
X206218121Y-125244987D01*
X205015723Y-125239768D01*
X192913247Y-125188400D01*
X192634786Y-124969337D01*
X192269093Y-124642270D01*
X192051891Y-124324429D01*
X191948318Y-123945151D01*
X191923628Y-123527806D01*
X191934354Y-123087790D01*
X191991222Y-122822956D01*
X192118429Y-122709692D01*
X192340173Y-122724389D01*
G36*
X218320744Y-122669782D02*
X218393200Y-122725644D01*
X218548667Y-122871605D01*
X218547991Y-122936758D01*
X218530444Y-122938400D01*
X218446970Y-122870062D01*
X218355444Y-122763400D01*
X218268959Y-122644950D01*
X218320744Y-122669782D01*
X218320744Y-122669782D01*
G37*
X218320744Y-122669782D02*
X218393200Y-122725644D01*
X218548667Y-122871605D01*
X218547991Y-122936758D01*
X218530444Y-122938400D01*
X218446970Y-122870062D01*
X218355444Y-122763400D01*
X218268959Y-122644950D01*
X218320744Y-122669782D01*
G36*
X218168200Y-122388400D02*
X218118200Y-122438400D01*
X218068200Y-122388400D01*
X218118200Y-122338400D01*
X218168200Y-122388400D01*
X218168200Y-122388400D01*
G37*
X218168200Y-122388400D02*
X218118200Y-122438400D01*
X218068200Y-122388400D01*
X218118200Y-122338400D01*
X218168200Y-122388400D01*
G36*
X217968200Y-122088400D02*
X217918200Y-122138400D01*
X217868200Y-122088400D01*
X217918200Y-122038400D01*
X217968200Y-122088400D01*
X217968200Y-122088400D01*
G37*
X217968200Y-122088400D02*
X217918200Y-122138400D01*
X217868200Y-122088400D01*
X217918200Y-122038400D01*
X217968200Y-122088400D01*
G36*
X217468200Y-121288400D02*
X217418200Y-121338400D01*
X217368200Y-121288400D01*
X217418200Y-121238400D01*
X217468200Y-121288400D01*
X217468200Y-121288400D01*
G37*
X217468200Y-121288400D02*
X217418200Y-121338400D01*
X217368200Y-121288400D01*
X217418200Y-121238400D01*
X217468200Y-121288400D01*
G36*
X184989251Y-117134972D02*
X185301381Y-117247799D01*
X185724604Y-117369341D01*
X186172788Y-117475108D01*
X186218200Y-117484384D01*
X186351182Y-117508063D01*
X186508278Y-117529162D01*
X186700283Y-117547769D01*
X186937991Y-117563971D01*
X187232198Y-117577857D01*
X187593697Y-117589512D01*
X188033284Y-117599025D01*
X188561752Y-117606483D01*
X189189897Y-117611973D01*
X189928512Y-117615582D01*
X190788394Y-117617399D01*
X191780335Y-117617509D01*
X192915132Y-117616001D01*
X194203578Y-117612962D01*
X195656468Y-117608480D01*
X197284597Y-117602641D01*
X199098759Y-117595533D01*
X199668200Y-117593218D01*
X201257768Y-117586530D01*
X202801706Y-117579677D01*
X204287127Y-117572733D01*
X205701146Y-117565774D01*
X207030877Y-117558875D01*
X208263433Y-117552111D01*
X209385930Y-117545557D01*
X210385481Y-117539288D01*
X211249201Y-117533381D01*
X211964203Y-117527909D01*
X212517603Y-117522948D01*
X212896514Y-117518573D01*
X213086109Y-117514929D01*
X213567365Y-117518367D01*
X213923102Y-117587663D01*
X214217544Y-117752686D01*
X214514914Y-118043306D01*
X214702217Y-118266557D01*
X214864039Y-118493564D01*
X214959884Y-118722745D01*
X215011336Y-119025092D01*
X215034670Y-119360087D01*
X215030945Y-119943163D01*
X214946451Y-120420970D01*
X214894864Y-120581797D01*
X214747189Y-120930492D01*
X214617042Y-121086949D01*
X214493869Y-121056949D01*
X214375962Y-120865989D01*
X214263961Y-120595224D01*
X214136435Y-120252299D01*
X214096962Y-120138400D01*
X213983842Y-119855982D01*
X213872586Y-119658405D01*
X213831431Y-119615547D01*
X213719794Y-119606957D01*
X213419535Y-119598638D01*
X212942034Y-119590651D01*
X212298667Y-119583055D01*
X211500815Y-119575908D01*
X210559854Y-119569270D01*
X209487165Y-119563199D01*
X208294124Y-119557756D01*
X206992110Y-119552998D01*
X205592502Y-119548985D01*
X204106679Y-119545775D01*
X202546018Y-119543429D01*
X200921897Y-119542005D01*
X199575877Y-119541568D01*
X185433554Y-119540441D01*
X185099393Y-119314420D01*
X184732153Y-118955989D01*
X184477444Y-118484926D01*
X184353714Y-117960702D01*
X184379412Y-117442788D01*
X184448843Y-117217276D01*
X184560302Y-116946152D01*
X184989251Y-117134972D01*
X184989251Y-117134972D01*
G37*
X184989251Y-117134972D02*
X185301381Y-117247799D01*
X185724604Y-117369341D01*
X186172788Y-117475108D01*
X186218200Y-117484384D01*
X186351182Y-117508063D01*
X186508278Y-117529162D01*
X186700283Y-117547769D01*
X186937991Y-117563971D01*
X187232198Y-117577857D01*
X187593697Y-117589512D01*
X188033284Y-117599025D01*
X188561752Y-117606483D01*
X189189897Y-117611973D01*
X189928512Y-117615582D01*
X190788394Y-117617399D01*
X191780335Y-117617509D01*
X192915132Y-117616001D01*
X194203578Y-117612962D01*
X195656468Y-117608480D01*
X197284597Y-117602641D01*
X199098759Y-117595533D01*
X199668200Y-117593218D01*
X201257768Y-117586530D01*
X202801706Y-117579677D01*
X204287127Y-117572733D01*
X205701146Y-117565774D01*
X207030877Y-117558875D01*
X208263433Y-117552111D01*
X209385930Y-117545557D01*
X210385481Y-117539288D01*
X211249201Y-117533381D01*
X211964203Y-117527909D01*
X212517603Y-117522948D01*
X212896514Y-117518573D01*
X213086109Y-117514929D01*
X213567365Y-117518367D01*
X213923102Y-117587663D01*
X214217544Y-117752686D01*
X214514914Y-118043306D01*
X214702217Y-118266557D01*
X214864039Y-118493564D01*
X214959884Y-118722745D01*
X215011336Y-119025092D01*
X215034670Y-119360087D01*
X215030945Y-119943163D01*
X214946451Y-120420970D01*
X214894864Y-120581797D01*
X214747189Y-120930492D01*
X214617042Y-121086949D01*
X214493869Y-121056949D01*
X214375962Y-120865989D01*
X214263961Y-120595224D01*
X214136435Y-120252299D01*
X214096962Y-120138400D01*
X213983842Y-119855982D01*
X213872586Y-119658405D01*
X213831431Y-119615547D01*
X213719794Y-119606957D01*
X213419535Y-119598638D01*
X212942034Y-119590651D01*
X212298667Y-119583055D01*
X211500815Y-119575908D01*
X210559854Y-119569270D01*
X209487165Y-119563199D01*
X208294124Y-119557756D01*
X206992110Y-119552998D01*
X205592502Y-119548985D01*
X204106679Y-119545775D01*
X202546018Y-119543429D01*
X200921897Y-119542005D01*
X199575877Y-119541568D01*
X185433554Y-119540441D01*
X185099393Y-119314420D01*
X184732153Y-118955989D01*
X184477444Y-118484926D01*
X184353714Y-117960702D01*
X184379412Y-117442788D01*
X184448843Y-117217276D01*
X184560302Y-116946152D01*
X184989251Y-117134972D01*
G36*
X217368200Y-121088400D02*
X217318200Y-121138400D01*
X217268200Y-121088400D01*
X217318200Y-121038400D01*
X217368200Y-121088400D01*
X217368200Y-121088400D01*
G37*
X217368200Y-121088400D02*
X217318200Y-121138400D01*
X217268200Y-121088400D01*
X217318200Y-121038400D01*
X217368200Y-121088400D01*
G36*
X217268200Y-120888400D02*
X217218200Y-120938400D01*
X217168200Y-120888400D01*
X217218200Y-120838400D01*
X217268200Y-120888400D01*
X217268200Y-120888400D01*
G37*
X217268200Y-120888400D02*
X217218200Y-120938400D01*
X217168200Y-120888400D01*
X217218200Y-120838400D01*
X217268200Y-120888400D01*
G36*
X217168200Y-120688400D02*
X217118200Y-120738400D01*
X217068200Y-120688400D01*
X217118200Y-120638400D01*
X217168200Y-120688400D01*
X217168200Y-120688400D01*
G37*
X217168200Y-120688400D02*
X217118200Y-120738400D01*
X217068200Y-120688400D01*
X217118200Y-120638400D01*
X217168200Y-120688400D01*
G36*
X217068200Y-120488400D02*
X217018200Y-120538400D01*
X216968200Y-120488400D01*
X217018200Y-120438400D01*
X217068200Y-120488400D01*
X217068200Y-120488400D01*
G37*
X217068200Y-120488400D02*
X217018200Y-120538400D01*
X216968200Y-120488400D01*
X217018200Y-120438400D01*
X217068200Y-120488400D01*
G36*
X239672795Y-105683021D02*
X240142618Y-106056940D01*
X240688940Y-106389828D01*
X241242133Y-106644321D01*
X241718200Y-106780725D01*
X242085425Y-106791721D01*
X242577266Y-106716725D01*
X242968200Y-106622809D01*
X243118483Y-106583811D01*
X243264344Y-106549545D01*
X243419293Y-106519640D01*
X243596842Y-106493726D01*
X243810501Y-106471433D01*
X244073780Y-106452390D01*
X244400190Y-106436228D01*
X244803242Y-106422575D01*
X245296446Y-106411062D01*
X245893313Y-106401319D01*
X246607353Y-106392974D01*
X247452077Y-106385659D01*
X248440995Y-106379001D01*
X249587619Y-106372632D01*
X250905459Y-106366181D01*
X252408025Y-106359277D01*
X252618200Y-106358324D01*
X254549401Y-106351279D01*
X256289288Y-106348645D01*
X257846501Y-106350588D01*
X259229681Y-106357274D01*
X260447467Y-106368868D01*
X261508500Y-106385536D01*
X262421420Y-106407443D01*
X263194869Y-106434756D01*
X263837486Y-106467639D01*
X264357911Y-106506258D01*
X264764786Y-106550780D01*
X265043200Y-106596472D01*
X265227728Y-106711088D01*
X265278876Y-106927607D01*
X265208752Y-107210700D01*
X265029464Y-107525037D01*
X264753120Y-107835289D01*
X264565435Y-107990439D01*
X264229344Y-108238400D01*
X253404673Y-108238400D01*
X251509910Y-108239313D01*
X249787841Y-108242037D01*
X248241297Y-108246546D01*
X246873108Y-108252813D01*
X245686103Y-108260813D01*
X244683112Y-108270521D01*
X243866965Y-108281910D01*
X243240491Y-108294956D01*
X242806519Y-108309631D01*
X242567881Y-108325912D01*
X242518884Y-108337292D01*
X242515597Y-108486686D01*
X242587455Y-108723773D01*
X242604019Y-108762292D01*
X242743248Y-109093882D01*
X242795938Y-109304893D01*
X242767441Y-109452384D01*
X242680151Y-109574146D01*
X242572066Y-109817003D01*
X242525395Y-110179684D01*
X242539209Y-110591980D01*
X242612574Y-110983680D01*
X242701902Y-111213826D01*
X242897406Y-111476677D01*
X243174214Y-111733209D01*
X243260525Y-111795191D01*
X243647274Y-112051129D01*
X257682737Y-112084567D01*
X259352568Y-112089025D01*
X260973887Y-112094291D01*
X262534767Y-112100281D01*
X264023282Y-112106911D01*
X265427508Y-112114097D01*
X266735517Y-112121754D01*
X267935384Y-112129799D01*
X269015183Y-112138149D01*
X269962988Y-112146718D01*
X270766873Y-112155423D01*
X271414912Y-112164180D01*
X271895179Y-112172905D01*
X272195749Y-112181514D01*
X272293004Y-112187446D01*
X272867809Y-112256887D01*
X272826767Y-112587788D01*
X272685817Y-113046885D01*
X272373520Y-113451018D01*
X272144792Y-113643416D01*
X271818200Y-113888400D01*
X243918200Y-113988400D01*
X243913534Y-114481621D01*
X243884057Y-114829736D01*
X243800681Y-115001807D01*
X243763534Y-115022062D01*
X243612821Y-115116323D01*
X243387222Y-115305388D01*
X243243200Y-115442076D01*
X243009896Y-115703143D01*
X242898299Y-115931335D01*
X242868283Y-116211298D01*
X242868200Y-116233209D01*
X242892514Y-116547449D01*
X242952812Y-116802716D01*
X242971543Y-116844647D01*
X243184083Y-117066028D01*
X243554355Y-117270407D01*
X244040102Y-117438500D01*
X244481123Y-117533515D01*
X244693447Y-117551067D01*
X245102594Y-117567081D01*
X245705393Y-117581529D01*
X246498672Y-117594387D01*
X247479260Y-117605628D01*
X248643986Y-117615226D01*
X249989679Y-117623154D01*
X251513166Y-117629386D01*
X253211277Y-117633897D01*
X255080841Y-117636659D01*
X257069194Y-117637644D01*
X258951777Y-117638147D01*
X260646199Y-117639495D01*
X262164296Y-117641818D01*
X263517906Y-117645249D01*
X264718866Y-117649921D01*
X265779013Y-117655964D01*
X266710184Y-117663512D01*
X267524216Y-117672695D01*
X268232948Y-117683647D01*
X268848214Y-117696499D01*
X269381854Y-117711383D01*
X269845704Y-117728432D01*
X270251601Y-117747776D01*
X270611382Y-117769549D01*
X270914517Y-117792056D01*
X271507427Y-117841820D01*
X272028257Y-117888716D01*
X272445597Y-117929655D01*
X272728039Y-117961548D01*
X272844172Y-117981304D01*
X272845095Y-117981962D01*
X272847772Y-118100383D01*
X272793561Y-118330134D01*
X272705259Y-118599104D01*
X272605663Y-118835182D01*
X272541577Y-118942071D01*
X272378589Y-119101148D01*
X272140153Y-119290383D01*
X272102643Y-119317156D01*
X271787087Y-119538570D01*
X257667321Y-119540490D01*
X255661600Y-119541435D01*
X253784446Y-119543678D01*
X252041982Y-119547179D01*
X250440331Y-119551895D01*
X248985617Y-119557785D01*
X247683963Y-119564808D01*
X246541493Y-119572922D01*
X245564329Y-119582085D01*
X244758595Y-119592257D01*
X244130415Y-119603395D01*
X243685911Y-119615457D01*
X243431207Y-119628403D01*
X243369903Y-119637488D01*
X243222922Y-119786357D01*
X243071740Y-120042662D01*
X243031034Y-120135482D01*
X242910806Y-120390226D01*
X242777753Y-120503233D01*
X242574920Y-120493388D01*
X242268200Y-120388400D01*
X241942368Y-120302058D01*
X241556037Y-120250972D01*
X241443200Y-120246007D01*
X241166158Y-120234429D01*
X240994989Y-120213523D01*
X240968200Y-120200612D01*
X241003118Y-120093393D01*
X241090366Y-119871412D01*
X241125890Y-119785419D01*
X241215836Y-119499399D01*
X241241368Y-119262843D01*
X241235215Y-119223068D01*
X241234883Y-119097118D01*
X241288239Y-119100784D01*
X241345352Y-119080141D01*
X241318200Y-118938400D01*
X241293911Y-118782841D01*
X241345679Y-118774481D01*
X241420547Y-118718555D01*
X241514284Y-118489536D01*
X241620089Y-118112674D01*
X241731160Y-117613223D01*
X241840694Y-117016433D01*
X241873180Y-116816208D01*
X241943630Y-116125336D01*
X241966741Y-115303023D01*
X241945608Y-114411367D01*
X241883320Y-113512463D01*
X241782971Y-112668409D01*
X241647651Y-111941301D01*
X241626012Y-111852053D01*
X241149224Y-110327417D01*
X240507721Y-108875102D01*
X239717590Y-107529078D01*
X239302945Y-106947419D01*
X239054051Y-106618554D01*
X238837224Y-106331112D01*
X238693193Y-106139105D01*
X238677986Y-106118637D01*
X238607749Y-105988009D01*
X238635672Y-105860554D01*
X238782798Y-105678004D01*
X238870231Y-105586303D01*
X239202690Y-105243293D01*
X239672795Y-105683021D01*
X239672795Y-105683021D01*
G37*
X239672795Y-105683021D02*
X240142618Y-106056940D01*
X240688940Y-106389828D01*
X241242133Y-106644321D01*
X241718200Y-106780725D01*
X242085425Y-106791721D01*
X242577266Y-106716725D01*
X242968200Y-106622809D01*
X243118483Y-106583811D01*
X243264344Y-106549545D01*
X243419293Y-106519640D01*
X243596842Y-106493726D01*
X243810501Y-106471433D01*
X244073780Y-106452390D01*
X244400190Y-106436228D01*
X244803242Y-106422575D01*
X245296446Y-106411062D01*
X245893313Y-106401319D01*
X246607353Y-106392974D01*
X247452077Y-106385659D01*
X248440995Y-106379001D01*
X249587619Y-106372632D01*
X250905459Y-106366181D01*
X252408025Y-106359277D01*
X252618200Y-106358324D01*
X254549401Y-106351279D01*
X256289288Y-106348645D01*
X257846501Y-106350588D01*
X259229681Y-106357274D01*
X260447467Y-106368868D01*
X261508500Y-106385536D01*
X262421420Y-106407443D01*
X263194869Y-106434756D01*
X263837486Y-106467639D01*
X264357911Y-106506258D01*
X264764786Y-106550780D01*
X265043200Y-106596472D01*
X265227728Y-106711088D01*
X265278876Y-106927607D01*
X265208752Y-107210700D01*
X265029464Y-107525037D01*
X264753120Y-107835289D01*
X264565435Y-107990439D01*
X264229344Y-108238400D01*
X253404673Y-108238400D01*
X251509910Y-108239313D01*
X249787841Y-108242037D01*
X248241297Y-108246546D01*
X246873108Y-108252813D01*
X245686103Y-108260813D01*
X244683112Y-108270521D01*
X243866965Y-108281910D01*
X243240491Y-108294956D01*
X242806519Y-108309631D01*
X242567881Y-108325912D01*
X242518884Y-108337292D01*
X242515597Y-108486686D01*
X242587455Y-108723773D01*
X242604019Y-108762292D01*
X242743248Y-109093882D01*
X242795938Y-109304893D01*
X242767441Y-109452384D01*
X242680151Y-109574146D01*
X242572066Y-109817003D01*
X242525395Y-110179684D01*
X242539209Y-110591980D01*
X242612574Y-110983680D01*
X242701902Y-111213826D01*
X242897406Y-111476677D01*
X243174214Y-111733209D01*
X243260525Y-111795191D01*
X243647274Y-112051129D01*
X257682737Y-112084567D01*
X259352568Y-112089025D01*
X260973887Y-112094291D01*
X262534767Y-112100281D01*
X264023282Y-112106911D01*
X265427508Y-112114097D01*
X266735517Y-112121754D01*
X267935384Y-112129799D01*
X269015183Y-112138149D01*
X269962988Y-112146718D01*
X270766873Y-112155423D01*
X271414912Y-112164180D01*
X271895179Y-112172905D01*
X272195749Y-112181514D01*
X272293004Y-112187446D01*
X272867809Y-112256887D01*
X272826767Y-112587788D01*
X272685817Y-113046885D01*
X272373520Y-113451018D01*
X272144792Y-113643416D01*
X271818200Y-113888400D01*
X243918200Y-113988400D01*
X243913534Y-114481621D01*
X243884057Y-114829736D01*
X243800681Y-115001807D01*
X243763534Y-115022062D01*
X243612821Y-115116323D01*
X243387222Y-115305388D01*
X243243200Y-115442076D01*
X243009896Y-115703143D01*
X242898299Y-115931335D01*
X242868283Y-116211298D01*
X242868200Y-116233209D01*
X242892514Y-116547449D01*
X242952812Y-116802716D01*
X242971543Y-116844647D01*
X243184083Y-117066028D01*
X243554355Y-117270407D01*
X244040102Y-117438500D01*
X244481123Y-117533515D01*
X244693447Y-117551067D01*
X245102594Y-117567081D01*
X245705393Y-117581529D01*
X246498672Y-117594387D01*
X247479260Y-117605628D01*
X248643986Y-117615226D01*
X249989679Y-117623154D01*
X251513166Y-117629386D01*
X253211277Y-117633897D01*
X255080841Y-117636659D01*
X257069194Y-117637644D01*
X258951777Y-117638147D01*
X260646199Y-117639495D01*
X262164296Y-117641818D01*
X263517906Y-117645249D01*
X264718866Y-117649921D01*
X265779013Y-117655964D01*
X266710184Y-117663512D01*
X267524216Y-117672695D01*
X268232948Y-117683647D01*
X268848214Y-117696499D01*
X269381854Y-117711383D01*
X269845704Y-117728432D01*
X270251601Y-117747776D01*
X270611382Y-117769549D01*
X270914517Y-117792056D01*
X271507427Y-117841820D01*
X272028257Y-117888716D01*
X272445597Y-117929655D01*
X272728039Y-117961548D01*
X272844172Y-117981304D01*
X272845095Y-117981962D01*
X272847772Y-118100383D01*
X272793561Y-118330134D01*
X272705259Y-118599104D01*
X272605663Y-118835182D01*
X272541577Y-118942071D01*
X272378589Y-119101148D01*
X272140153Y-119290383D01*
X272102643Y-119317156D01*
X271787087Y-119538570D01*
X257667321Y-119540490D01*
X255661600Y-119541435D01*
X253784446Y-119543678D01*
X252041982Y-119547179D01*
X250440331Y-119551895D01*
X248985617Y-119557785D01*
X247683963Y-119564808D01*
X246541493Y-119572922D01*
X245564329Y-119582085D01*
X244758595Y-119592257D01*
X244130415Y-119603395D01*
X243685911Y-119615457D01*
X243431207Y-119628403D01*
X243369903Y-119637488D01*
X243222922Y-119786357D01*
X243071740Y-120042662D01*
X243031034Y-120135482D01*
X242910806Y-120390226D01*
X242777753Y-120503233D01*
X242574920Y-120493388D01*
X242268200Y-120388400D01*
X241942368Y-120302058D01*
X241556037Y-120250972D01*
X241443200Y-120246007D01*
X241166158Y-120234429D01*
X240994989Y-120213523D01*
X240968200Y-120200612D01*
X241003118Y-120093393D01*
X241090366Y-119871412D01*
X241125890Y-119785419D01*
X241215836Y-119499399D01*
X241241368Y-119262843D01*
X241235215Y-119223068D01*
X241234883Y-119097118D01*
X241288239Y-119100784D01*
X241345352Y-119080141D01*
X241318200Y-118938400D01*
X241293911Y-118782841D01*
X241345679Y-118774481D01*
X241420547Y-118718555D01*
X241514284Y-118489536D01*
X241620089Y-118112674D01*
X241731160Y-117613223D01*
X241840694Y-117016433D01*
X241873180Y-116816208D01*
X241943630Y-116125336D01*
X241966741Y-115303023D01*
X241945608Y-114411367D01*
X241883320Y-113512463D01*
X241782971Y-112668409D01*
X241647651Y-111941301D01*
X241626012Y-111852053D01*
X241149224Y-110327417D01*
X240507721Y-108875102D01*
X239717590Y-107529078D01*
X239302945Y-106947419D01*
X239054051Y-106618554D01*
X238837224Y-106331112D01*
X238693193Y-106139105D01*
X238677986Y-106118637D01*
X238607749Y-105988009D01*
X238635672Y-105860554D01*
X238782798Y-105678004D01*
X238870231Y-105586303D01*
X239202690Y-105243293D01*
X239672795Y-105683021D01*
G36*
X216968200Y-120288400D02*
X216918200Y-120338400D01*
X216868200Y-120288400D01*
X216918200Y-120238400D01*
X216968200Y-120288400D01*
X216968200Y-120288400D01*
G37*
X216968200Y-120288400D02*
X216918200Y-120338400D01*
X216868200Y-120288400D01*
X216918200Y-120238400D01*
X216968200Y-120288400D01*
G36*
X240368200Y-120288400D02*
X240318200Y-120338400D01*
X240268200Y-120288400D01*
X240318200Y-120238400D01*
X240368200Y-120288400D01*
X240368200Y-120288400D01*
G37*
X240368200Y-120288400D02*
X240318200Y-120338400D01*
X240268200Y-120288400D01*
X240318200Y-120238400D01*
X240368200Y-120288400D01*
G36*
X216868200Y-120088400D02*
X216818200Y-120138400D01*
X216768200Y-120088400D01*
X216818200Y-120038400D01*
X216868200Y-120088400D01*
X216868200Y-120088400D01*
G37*
X216868200Y-120088400D02*
X216818200Y-120138400D01*
X216768200Y-120088400D01*
X216818200Y-120038400D01*
X216868200Y-120088400D01*
G36*
X240468200Y-120088400D02*
X240418200Y-120138400D01*
X240368200Y-120088400D01*
X240418200Y-120038400D01*
X240468200Y-120088400D01*
X240468200Y-120088400D01*
G37*
X240468200Y-120088400D02*
X240418200Y-120138400D01*
X240368200Y-120088400D01*
X240418200Y-120038400D01*
X240468200Y-120088400D01*
G36*
X216680407Y-119670900D02*
X216746657Y-119836604D01*
X216739720Y-119900213D01*
X216671508Y-119864561D01*
X216630553Y-119784534D01*
X216573897Y-119594651D01*
X216597159Y-119556767D01*
X216680407Y-119670900D01*
X216680407Y-119670900D01*
G37*
X216680407Y-119670900D02*
X216746657Y-119836604D01*
X216739720Y-119900213D01*
X216671508Y-119864561D01*
X216630553Y-119784534D01*
X216573897Y-119594651D01*
X216597159Y-119556767D01*
X216680407Y-119670900D01*
G36*
X240665137Y-119588400D02*
X240615346Y-119752737D01*
X240568200Y-119838400D01*
X240488962Y-119918442D01*
X240471262Y-119888400D01*
X240521053Y-119724062D01*
X240568200Y-119638400D01*
X240647437Y-119558357D01*
X240665137Y-119588400D01*
X240665137Y-119588400D01*
G37*
X240665137Y-119588400D02*
X240615346Y-119752737D01*
X240568200Y-119838400D01*
X240488962Y-119918442D01*
X240471262Y-119888400D01*
X240521053Y-119724062D01*
X240568200Y-119638400D01*
X240647437Y-119558357D01*
X240665137Y-119588400D01*
G36*
X216534866Y-119271733D02*
X216546834Y-119390409D01*
X216534866Y-119405066D01*
X216475416Y-119391339D01*
X216468200Y-119338400D01*
X216504788Y-119256088D01*
X216534866Y-119271733D01*
X216534866Y-119271733D01*
G37*
X216534866Y-119271733D02*
X216546834Y-119390409D01*
X216534866Y-119405066D01*
X216475416Y-119391339D01*
X216468200Y-119338400D01*
X216504788Y-119256088D01*
X216534866Y-119271733D01*
G36*
X241137381Y-118151209D02*
X241070905Y-118412160D01*
X240978540Y-118728090D01*
X240878187Y-119041372D01*
X240787745Y-119294375D01*
X240725115Y-119429471D01*
X240714181Y-119438400D01*
X240670094Y-119413400D01*
X240701970Y-119282549D01*
X240776647Y-119042056D01*
X240876034Y-118743994D01*
X240982044Y-118440438D01*
X241076587Y-118183462D01*
X241141574Y-118025143D01*
X241160069Y-118002866D01*
X241137381Y-118151209D01*
X241137381Y-118151209D01*
G37*
X241137381Y-118151209D02*
X241070905Y-118412160D01*
X240978540Y-118728090D01*
X240878187Y-119041372D01*
X240787745Y-119294375D01*
X240725115Y-119429471D01*
X240714181Y-119438400D01*
X240670094Y-119413400D01*
X240701970Y-119282549D01*
X240776647Y-119042056D01*
X240876034Y-118743994D01*
X240982044Y-118440438D01*
X241076587Y-118183462D01*
X241141574Y-118025143D01*
X241160069Y-118002866D01*
X241137381Y-118151209D01*
G36*
X241168200Y-119388400D02*
X241118200Y-119438400D01*
X241068200Y-119388400D01*
X241118200Y-119338400D01*
X241168200Y-119388400D01*
X241168200Y-119388400D01*
G37*
X241168200Y-119388400D02*
X241118200Y-119438400D01*
X241068200Y-119388400D01*
X241118200Y-119338400D01*
X241168200Y-119388400D01*
G36*
X216434866Y-118971733D02*
X216446834Y-119090409D01*
X216434866Y-119105066D01*
X216375416Y-119091339D01*
X216368200Y-119038400D01*
X216404788Y-118956088D01*
X216434866Y-118971733D01*
X216434866Y-118971733D01*
G37*
X216434866Y-118971733D02*
X216446834Y-119090409D01*
X216434866Y-119105066D01*
X216375416Y-119091339D01*
X216368200Y-119038400D01*
X216404788Y-118956088D01*
X216434866Y-118971733D01*
G36*
X241234866Y-117571733D02*
X241246834Y-117690409D01*
X241234866Y-117705066D01*
X241175416Y-117691339D01*
X241168200Y-117638400D01*
X241204788Y-117556088D01*
X241234866Y-117571733D01*
X241234866Y-117571733D01*
G37*
X241234866Y-117571733D02*
X241246834Y-117690409D01*
X241234866Y-117705066D01*
X241175416Y-117691339D01*
X241168200Y-117638400D01*
X241204788Y-117556088D01*
X241234866Y-117571733D01*
G36*
X218447948Y-104901148D02*
X218603117Y-105029322D01*
X218741965Y-105165498D01*
X219107325Y-105530858D01*
X218693197Y-106009629D01*
X217663370Y-107342043D01*
X216815400Y-108751140D01*
X216141113Y-110251238D01*
X215924715Y-110860218D01*
X215734389Y-111498455D01*
X215562505Y-112191489D01*
X215420398Y-112882537D01*
X215319402Y-113514816D01*
X215270852Y-114031540D01*
X215268200Y-114149212D01*
X215237165Y-114390197D01*
X215124902Y-114594208D01*
X214902667Y-114787994D01*
X214541718Y-114998302D01*
X214152079Y-115187909D01*
X213749983Y-115358627D01*
X213484946Y-115423278D01*
X213325026Y-115382745D01*
X213238281Y-115237913D01*
X213231228Y-115213400D01*
X213178713Y-114898407D01*
X213176600Y-114589473D01*
X213221645Y-114358573D01*
X213273055Y-114285398D01*
X213317964Y-114172845D01*
X213260811Y-114079497D01*
X213221470Y-114059339D01*
X213132341Y-114041140D01*
X212984055Y-114024804D01*
X212767248Y-114010235D01*
X212472551Y-113997339D01*
X212090599Y-113986020D01*
X211612024Y-113976184D01*
X211027461Y-113967734D01*
X210327542Y-113960576D01*
X209502901Y-113954615D01*
X208544172Y-113949756D01*
X207441987Y-113945903D01*
X206186980Y-113942961D01*
X204769785Y-113940834D01*
X203181035Y-113939429D01*
X201411364Y-113938649D01*
X199451404Y-113938400D01*
X185607356Y-113938400D01*
X185155572Y-113651887D01*
X184712011Y-113263753D01*
X184439173Y-112772101D01*
X184339298Y-112181180D01*
X184339048Y-112103375D01*
X184377050Y-111697421D01*
X184489653Y-111467246D01*
X184694344Y-111396956D01*
X185008606Y-111470658D01*
X185027316Y-111477764D01*
X185627846Y-111677166D01*
X186284735Y-111827169D01*
X186996429Y-111935639D01*
X187196108Y-111948304D01*
X187585333Y-111960526D01*
X188153651Y-111972228D01*
X188890608Y-111983328D01*
X189785751Y-111993747D01*
X190828626Y-112003406D01*
X192008781Y-112012226D01*
X193315761Y-112020125D01*
X194739113Y-112027026D01*
X196268384Y-112032848D01*
X197893120Y-112037512D01*
X199602868Y-112040938D01*
X201065928Y-112042772D01*
X214387550Y-112055083D01*
X214637057Y-111821741D01*
X214900619Y-111537622D01*
X215018084Y-111276687D01*
X215013108Y-110959547D01*
X214964475Y-110722873D01*
X214864947Y-110398888D01*
X214731693Y-110203867D01*
X214516220Y-110067322D01*
X214512163Y-110065382D01*
X214293421Y-109939021D01*
X214218868Y-109800288D01*
X214238484Y-109597579D01*
X214319189Y-109308592D01*
X214448378Y-108965977D01*
X214491624Y-108868097D01*
X214594747Y-108596070D01*
X214631519Y-108393009D01*
X214621103Y-108343097D01*
X214524665Y-108324412D01*
X214257678Y-108307646D01*
X213817188Y-108292770D01*
X213200243Y-108279756D01*
X212403891Y-108268576D01*
X211425180Y-108259200D01*
X210261157Y-108251601D01*
X208908870Y-108245750D01*
X207365366Y-108241618D01*
X205627694Y-108239178D01*
X203748012Y-108238400D01*
X192939628Y-108238400D01*
X192463642Y-107762414D01*
X192181827Y-107454720D01*
X192018645Y-107193040D01*
X191932158Y-106904149D01*
X191915505Y-106805289D01*
X191890403Y-106415700D01*
X191926698Y-106071911D01*
X192013279Y-105820957D01*
X192139034Y-105709870D01*
X192174441Y-105709337D01*
X192330085Y-105748432D01*
X192622934Y-105834959D01*
X193000438Y-105953160D01*
X193168200Y-106007352D01*
X194018200Y-106284431D01*
X213518200Y-106397055D01*
X214562019Y-106631878D01*
X215058755Y-106738029D01*
X215422237Y-106796983D01*
X215712429Y-106813190D01*
X215989293Y-106791103D01*
X216212019Y-106754362D01*
X216875828Y-106544190D01*
X217461561Y-106189520D01*
X217933849Y-105719917D01*
X218257326Y-105164945D01*
X218317639Y-104994269D01*
X218365967Y-104894781D01*
X218447948Y-104901148D01*
X218447948Y-104901148D01*
G37*
X218447948Y-104901148D02*
X218603117Y-105029322D01*
X218741965Y-105165498D01*
X219107325Y-105530858D01*
X218693197Y-106009629D01*
X217663370Y-107342043D01*
X216815400Y-108751140D01*
X216141113Y-110251238D01*
X215924715Y-110860218D01*
X215734389Y-111498455D01*
X215562505Y-112191489D01*
X215420398Y-112882537D01*
X215319402Y-113514816D01*
X215270852Y-114031540D01*
X215268200Y-114149212D01*
X215237165Y-114390197D01*
X215124902Y-114594208D01*
X214902667Y-114787994D01*
X214541718Y-114998302D01*
X214152079Y-115187909D01*
X213749983Y-115358627D01*
X213484946Y-115423278D01*
X213325026Y-115382745D01*
X213238281Y-115237913D01*
X213231228Y-115213400D01*
X213178713Y-114898407D01*
X213176600Y-114589473D01*
X213221645Y-114358573D01*
X213273055Y-114285398D01*
X213317964Y-114172845D01*
X213260811Y-114079497D01*
X213221470Y-114059339D01*
X213132341Y-114041140D01*
X212984055Y-114024804D01*
X212767248Y-114010235D01*
X212472551Y-113997339D01*
X212090599Y-113986020D01*
X211612024Y-113976184D01*
X211027461Y-113967734D01*
X210327542Y-113960576D01*
X209502901Y-113954615D01*
X208544172Y-113949756D01*
X207441987Y-113945903D01*
X206186980Y-113942961D01*
X204769785Y-113940834D01*
X203181035Y-113939429D01*
X201411364Y-113938649D01*
X199451404Y-113938400D01*
X185607356Y-113938400D01*
X185155572Y-113651887D01*
X184712011Y-113263753D01*
X184439173Y-112772101D01*
X184339298Y-112181180D01*
X184339048Y-112103375D01*
X184377050Y-111697421D01*
X184489653Y-111467246D01*
X184694344Y-111396956D01*
X185008606Y-111470658D01*
X185027316Y-111477764D01*
X185627846Y-111677166D01*
X186284735Y-111827169D01*
X186996429Y-111935639D01*
X187196108Y-111948304D01*
X187585333Y-111960526D01*
X188153651Y-111972228D01*
X188890608Y-111983328D01*
X189785751Y-111993747D01*
X190828626Y-112003406D01*
X192008781Y-112012226D01*
X193315761Y-112020125D01*
X194739113Y-112027026D01*
X196268384Y-112032848D01*
X197893120Y-112037512D01*
X199602868Y-112040938D01*
X201065928Y-112042772D01*
X214387550Y-112055083D01*
X214637057Y-111821741D01*
X214900619Y-111537622D01*
X215018084Y-111276687D01*
X215013108Y-110959547D01*
X214964475Y-110722873D01*
X214864947Y-110398888D01*
X214731693Y-110203867D01*
X214516220Y-110067322D01*
X214512163Y-110065382D01*
X214293421Y-109939021D01*
X214218868Y-109800288D01*
X214238484Y-109597579D01*
X214319189Y-109308592D01*
X214448378Y-108965977D01*
X214491624Y-108868097D01*
X214594747Y-108596070D01*
X214631519Y-108393009D01*
X214621103Y-108343097D01*
X214524665Y-108324412D01*
X214257678Y-108307646D01*
X213817188Y-108292770D01*
X213200243Y-108279756D01*
X212403891Y-108268576D01*
X211425180Y-108259200D01*
X210261157Y-108251601D01*
X208908870Y-108245750D01*
X207365366Y-108241618D01*
X205627694Y-108239178D01*
X203748012Y-108238400D01*
X192939628Y-108238400D01*
X192463642Y-107762414D01*
X192181827Y-107454720D01*
X192018645Y-107193040D01*
X191932158Y-106904149D01*
X191915505Y-106805289D01*
X191890403Y-106415700D01*
X191926698Y-106071911D01*
X192013279Y-105820957D01*
X192139034Y-105709870D01*
X192174441Y-105709337D01*
X192330085Y-105748432D01*
X192622934Y-105834959D01*
X193000438Y-105953160D01*
X193168200Y-106007352D01*
X194018200Y-106284431D01*
X213518200Y-106397055D01*
X214562019Y-106631878D01*
X215058755Y-106738029D01*
X215422237Y-106796983D01*
X215712429Y-106813190D01*
X215989293Y-106791103D01*
X216212019Y-106754362D01*
X216875828Y-106544190D01*
X217461561Y-106189520D01*
X217933849Y-105719917D01*
X218257326Y-105164945D01*
X218317639Y-104994269D01*
X218365967Y-104894781D01*
X218447948Y-104901148D01*
G36*
X224192387Y-72047347D02*
X224426089Y-72255436D01*
X224728648Y-72545034D01*
X225067339Y-72882798D01*
X225409441Y-73235384D01*
X225722228Y-73569446D01*
X225972978Y-73851642D01*
X226128968Y-74048627D01*
X226152161Y-74085695D01*
X226178185Y-74145620D01*
X226201454Y-74232669D01*
X226222159Y-74357970D01*
X226240488Y-74532647D01*
X226256633Y-74767829D01*
X226270782Y-75074640D01*
X226283126Y-75464207D01*
X226293855Y-75947657D01*
X226303160Y-76536117D01*
X226311229Y-77240712D01*
X226318253Y-78072568D01*
X226324422Y-79042813D01*
X226329926Y-80162573D01*
X226334955Y-81442973D01*
X226339699Y-82895141D01*
X226344348Y-84530203D01*
X226346874Y-85488400D01*
X226351135Y-87246160D01*
X226354254Y-88814973D01*
X226356118Y-90205890D01*
X226356611Y-91429962D01*
X226355619Y-92498239D01*
X226353029Y-93421771D01*
X226348726Y-94211610D01*
X226342596Y-94878806D01*
X226334524Y-95434409D01*
X226324398Y-95889470D01*
X226312102Y-96255040D01*
X226297522Y-96542169D01*
X226280544Y-96761909D01*
X226261054Y-96925308D01*
X226238937Y-97043419D01*
X226227021Y-97088400D01*
X226136930Y-97442669D01*
X226041168Y-97899007D01*
X225959865Y-98361155D01*
X225957026Y-98379523D01*
X225835558Y-99170647D01*
X226096965Y-99395500D01*
X226574564Y-99702840D01*
X227161193Y-99924090D01*
X227800105Y-100051049D01*
X228434555Y-100075517D01*
X229007796Y-99989295D01*
X229333747Y-99863220D01*
X229640812Y-99666238D01*
X229903127Y-99440452D01*
X229961679Y-99373976D01*
X230174064Y-99103972D01*
X229568200Y-98478878D01*
X229568200Y-72538400D01*
X229867565Y-72538400D01*
X230112052Y-72611369D01*
X230438308Y-72806065D01*
X230805535Y-73086169D01*
X231172937Y-73415363D01*
X231499720Y-73757329D01*
X231745086Y-74075748D01*
X231863440Y-74315206D01*
X231882077Y-74485464D01*
X231898897Y-74855046D01*
X231913893Y-75423286D01*
X231927059Y-76189516D01*
X231938390Y-77153069D01*
X231947879Y-78313279D01*
X231955521Y-79669477D01*
X231961310Y-81220998D01*
X231965239Y-82967173D01*
X231967304Y-84907336D01*
X231967642Y-86050915D01*
X231968200Y-97413431D01*
X231613795Y-98191120D01*
X231455583Y-98557734D01*
X231341311Y-98860299D01*
X231289015Y-99049481D01*
X231288795Y-99080189D01*
X231383254Y-99221212D01*
X231599052Y-99455518D01*
X231901248Y-99751585D01*
X232254903Y-100077887D01*
X232625075Y-100402903D01*
X232976825Y-100695109D01*
X233275211Y-100922981D01*
X233468200Y-101046458D01*
X233763973Y-101175959D01*
X234075196Y-101248437D01*
X234475961Y-101277772D01*
X234718200Y-101280603D01*
X235181697Y-101270208D01*
X235642502Y-101242761D01*
X236004402Y-101204083D01*
X236018200Y-101201955D01*
X236329329Y-101168582D01*
X236581005Y-101196813D01*
X236862547Y-101303989D01*
X237068172Y-101405788D01*
X237560832Y-101742191D01*
X237994972Y-102192607D01*
X238321688Y-102698305D01*
X238469279Y-103088400D01*
X238561973Y-103442911D01*
X238673922Y-103843797D01*
X238708492Y-103962121D01*
X238786213Y-104256901D01*
X238792322Y-104441403D01*
X238720909Y-104594251D01*
X238654274Y-104683390D01*
X238423175Y-104928047D01*
X238188634Y-105123849D01*
X237917716Y-105316760D01*
X237317958Y-104811002D01*
X235992770Y-103819837D01*
X234586358Y-103010791D01*
X233105107Y-102386193D01*
X231555404Y-101948371D01*
X229943632Y-101699654D01*
X228618200Y-101638400D01*
X226976066Y-101733486D01*
X225388661Y-102016212D01*
X223866947Y-102482771D01*
X222421885Y-103129362D01*
X221064436Y-103952180D01*
X220302698Y-104523922D01*
X219687196Y-105022280D01*
X218165806Y-103458908D01*
X218169436Y-91803052D01*
X218170869Y-89880370D01*
X218173901Y-88117465D01*
X218178496Y-86518283D01*
X218184621Y-85086771D01*
X218192242Y-83826876D01*
X218201325Y-82742544D01*
X218211834Y-81837724D01*
X218223738Y-81116360D01*
X218237000Y-80582401D01*
X218251588Y-80239794D01*
X218267467Y-80092484D01*
X218270633Y-80086896D01*
X218352557Y-79947253D01*
X218368200Y-79832498D01*
X218400534Y-79673224D01*
X218443200Y-79638686D01*
X218546447Y-79707635D01*
X218753021Y-79892905D01*
X219031962Y-80162599D01*
X219352312Y-80484824D01*
X219683113Y-80827683D01*
X219993406Y-81159282D01*
X220252234Y-81447725D01*
X220428637Y-81661118D01*
X220481243Y-81738400D01*
X220507181Y-81816498D01*
X220530061Y-81958332D01*
X220550130Y-82176076D01*
X220567635Y-82481902D01*
X220582823Y-82887986D01*
X220595940Y-83406500D01*
X220607235Y-84049618D01*
X220616954Y-84829515D01*
X220625344Y-85758363D01*
X220632652Y-86848337D01*
X220639125Y-88111611D01*
X220645011Y-89560358D01*
X220646101Y-89862768D01*
X220650901Y-91330148D01*
X220654075Y-92611216D01*
X220655416Y-93719656D01*
X220654719Y-94669151D01*
X220651781Y-95473383D01*
X220646395Y-96146036D01*
X220638356Y-96700794D01*
X220627461Y-97151339D01*
X220613503Y-97511355D01*
X220596278Y-97794525D01*
X220575581Y-98014531D01*
X220551206Y-98185058D01*
X220522949Y-98319789D01*
X220519171Y-98334649D01*
X220448555Y-98706435D01*
X220390541Y-99195894D01*
X220353925Y-99720733D01*
X220346746Y-99947984D01*
X220329153Y-100963805D01*
X220697208Y-101301102D01*
X220921318Y-101489078D01*
X221121800Y-101590407D01*
X221376738Y-101631383D01*
X221698917Y-101638400D01*
X222480844Y-101558296D01*
X223152102Y-101320443D01*
X223615580Y-101007254D01*
X223982064Y-100688400D01*
X223972271Y-86304112D01*
X223971457Y-84116970D01*
X223972100Y-82102007D01*
X223974186Y-80261679D01*
X223977698Y-78598443D01*
X223982622Y-77114757D01*
X223988943Y-75813078D01*
X223996646Y-74695862D01*
X224005715Y-73765566D01*
X224016136Y-73024647D01*
X224027893Y-72475562D01*
X224040972Y-72120768D01*
X224055357Y-71962722D01*
X224060264Y-71954112D01*
X224192387Y-72047347D01*
X224192387Y-72047347D01*
G37*
X224192387Y-72047347D02*
X224426089Y-72255436D01*
X224728648Y-72545034D01*
X225067339Y-72882798D01*
X225409441Y-73235384D01*
X225722228Y-73569446D01*
X225972978Y-73851642D01*
X226128968Y-74048627D01*
X226152161Y-74085695D01*
X226178185Y-74145620D01*
X226201454Y-74232669D01*
X226222159Y-74357970D01*
X226240488Y-74532647D01*
X226256633Y-74767829D01*
X226270782Y-75074640D01*
X226283126Y-75464207D01*
X226293855Y-75947657D01*
X226303160Y-76536117D01*
X226311229Y-77240712D01*
X226318253Y-78072568D01*
X226324422Y-79042813D01*
X226329926Y-80162573D01*
X226334955Y-81442973D01*
X226339699Y-82895141D01*
X226344348Y-84530203D01*
X226346874Y-85488400D01*
X226351135Y-87246160D01*
X226354254Y-88814973D01*
X226356118Y-90205890D01*
X226356611Y-91429962D01*
X226355619Y-92498239D01*
X226353029Y-93421771D01*
X226348726Y-94211610D01*
X226342596Y-94878806D01*
X226334524Y-95434409D01*
X226324398Y-95889470D01*
X226312102Y-96255040D01*
X226297522Y-96542169D01*
X226280544Y-96761909D01*
X226261054Y-96925308D01*
X226238937Y-97043419D01*
X226227021Y-97088400D01*
X226136930Y-97442669D01*
X226041168Y-97899007D01*
X225959865Y-98361155D01*
X225957026Y-98379523D01*
X225835558Y-99170647D01*
X226096965Y-99395500D01*
X226574564Y-99702840D01*
X227161193Y-99924090D01*
X227800105Y-100051049D01*
X228434555Y-100075517D01*
X229007796Y-99989295D01*
X229333747Y-99863220D01*
X229640812Y-99666238D01*
X229903127Y-99440452D01*
X229961679Y-99373976D01*
X230174064Y-99103972D01*
X229568200Y-98478878D01*
X229568200Y-72538400D01*
X229867565Y-72538400D01*
X230112052Y-72611369D01*
X230438308Y-72806065D01*
X230805535Y-73086169D01*
X231172937Y-73415363D01*
X231499720Y-73757329D01*
X231745086Y-74075748D01*
X231863440Y-74315206D01*
X231882077Y-74485464D01*
X231898897Y-74855046D01*
X231913893Y-75423286D01*
X231927059Y-76189516D01*
X231938390Y-77153069D01*
X231947879Y-78313279D01*
X231955521Y-79669477D01*
X231961310Y-81220998D01*
X231965239Y-82967173D01*
X231967304Y-84907336D01*
X231967642Y-86050915D01*
X231968200Y-97413431D01*
X231613795Y-98191120D01*
X231455583Y-98557734D01*
X231341311Y-98860299D01*
X231289015Y-99049481D01*
X231288795Y-99080189D01*
X231383254Y-99221212D01*
X231599052Y-99455518D01*
X231901248Y-99751585D01*
X232254903Y-100077887D01*
X232625075Y-100402903D01*
X232976825Y-100695109D01*
X233275211Y-100922981D01*
X233468200Y-101046458D01*
X233763973Y-101175959D01*
X234075196Y-101248437D01*
X234475961Y-101277772D01*
X234718200Y-101280603D01*
X235181697Y-101270208D01*
X235642502Y-101242761D01*
X236004402Y-101204083D01*
X236018200Y-101201955D01*
X236329329Y-101168582D01*
X236581005Y-101196813D01*
X236862547Y-101303989D01*
X237068172Y-101405788D01*
X237560832Y-101742191D01*
X237994972Y-102192607D01*
X238321688Y-102698305D01*
X238469279Y-103088400D01*
X238561973Y-103442911D01*
X238673922Y-103843797D01*
X238708492Y-103962121D01*
X238786213Y-104256901D01*
X238792322Y-104441403D01*
X238720909Y-104594251D01*
X238654274Y-104683390D01*
X238423175Y-104928047D01*
X238188634Y-105123849D01*
X237917716Y-105316760D01*
X237317958Y-104811002D01*
X235992770Y-103819837D01*
X234586358Y-103010791D01*
X233105107Y-102386193D01*
X231555404Y-101948371D01*
X229943632Y-101699654D01*
X228618200Y-101638400D01*
X226976066Y-101733486D01*
X225388661Y-102016212D01*
X223866947Y-102482771D01*
X222421885Y-103129362D01*
X221064436Y-103952180D01*
X220302698Y-104523922D01*
X219687196Y-105022280D01*
X218165806Y-103458908D01*
X218169436Y-91803052D01*
X218170869Y-89880370D01*
X218173901Y-88117465D01*
X218178496Y-86518283D01*
X218184621Y-85086771D01*
X218192242Y-83826876D01*
X218201325Y-82742544D01*
X218211834Y-81837724D01*
X218223738Y-81116360D01*
X218237000Y-80582401D01*
X218251588Y-80239794D01*
X218267467Y-80092484D01*
X218270633Y-80086896D01*
X218352557Y-79947253D01*
X218368200Y-79832498D01*
X218400534Y-79673224D01*
X218443200Y-79638686D01*
X218546447Y-79707635D01*
X218753021Y-79892905D01*
X219031962Y-80162599D01*
X219352312Y-80484824D01*
X219683113Y-80827683D01*
X219993406Y-81159282D01*
X220252234Y-81447725D01*
X220428637Y-81661118D01*
X220481243Y-81738400D01*
X220507181Y-81816498D01*
X220530061Y-81958332D01*
X220550130Y-82176076D01*
X220567635Y-82481902D01*
X220582823Y-82887986D01*
X220595940Y-83406500D01*
X220607235Y-84049618D01*
X220616954Y-84829515D01*
X220625344Y-85758363D01*
X220632652Y-86848337D01*
X220639125Y-88111611D01*
X220645011Y-89560358D01*
X220646101Y-89862768D01*
X220650901Y-91330148D01*
X220654075Y-92611216D01*
X220655416Y-93719656D01*
X220654719Y-94669151D01*
X220651781Y-95473383D01*
X220646395Y-96146036D01*
X220638356Y-96700794D01*
X220627461Y-97151339D01*
X220613503Y-97511355D01*
X220596278Y-97794525D01*
X220575581Y-98014531D01*
X220551206Y-98185058D01*
X220522949Y-98319789D01*
X220519171Y-98334649D01*
X220448555Y-98706435D01*
X220390541Y-99195894D01*
X220353925Y-99720733D01*
X220346746Y-99947984D01*
X220329153Y-100963805D01*
X220697208Y-101301102D01*
X220921318Y-101489078D01*
X221121800Y-101590407D01*
X221376738Y-101631383D01*
X221698917Y-101638400D01*
X222480844Y-101558296D01*
X223152102Y-101320443D01*
X223615580Y-101007254D01*
X223982064Y-100688400D01*
X223972271Y-86304112D01*
X223971457Y-84116970D01*
X223972100Y-82102007D01*
X223974186Y-80261679D01*
X223977698Y-78598443D01*
X223982622Y-77114757D01*
X223988943Y-75813078D01*
X223996646Y-74695862D01*
X224005715Y-73765566D01*
X224016136Y-73024647D01*
X224027893Y-72475562D01*
X224040972Y-72120768D01*
X224055357Y-71962722D01*
X224060264Y-71954112D01*
X224192387Y-72047347D01*
G36*
X235508178Y-79978545D02*
X235725648Y-80038815D01*
X235759878Y-80050483D01*
X236049230Y-80209061D01*
X236401410Y-80485124D01*
X236772155Y-80833488D01*
X237117202Y-81208969D01*
X237392289Y-81566383D01*
X237553154Y-81860546D01*
X237563257Y-81891403D01*
X237585201Y-82026211D01*
X237604058Y-82275780D01*
X237619909Y-82648715D01*
X237632834Y-83153620D01*
X237642917Y-83799101D01*
X237650237Y-84593761D01*
X237654877Y-85546205D01*
X237656918Y-86665037D01*
X237656441Y-87958863D01*
X237653528Y-89436286D01*
X237648861Y-90938400D01*
X237643262Y-92458682D01*
X237637741Y-93791775D01*
X237632001Y-94950489D01*
X237625749Y-95947637D01*
X237618689Y-96796027D01*
X237610525Y-97508472D01*
X237600963Y-98097781D01*
X237589708Y-98576765D01*
X237576464Y-98958235D01*
X237560936Y-99255002D01*
X237542830Y-99479877D01*
X237521849Y-99645669D01*
X237497699Y-99765191D01*
X237470085Y-99851252D01*
X237442164Y-99910435D01*
X237205897Y-100228523D01*
X236902693Y-100392790D01*
X236499774Y-100435040D01*
X236228557Y-100400852D01*
X235995504Y-100277352D01*
X235743984Y-100046144D01*
X235369769Y-99660607D01*
X235367216Y-89834605D01*
X235367210Y-88450494D01*
X235367895Y-87123710D01*
X235369225Y-85867825D01*
X235371154Y-84696410D01*
X235373638Y-83623036D01*
X235376630Y-82661275D01*
X235380085Y-81824697D01*
X235383958Y-81126875D01*
X235388204Y-80581380D01*
X235392777Y-80201782D01*
X235397632Y-80001654D01*
X235400215Y-79973050D01*
X235508178Y-79978545D01*
X235508178Y-79978545D01*
G37*
X235508178Y-79978545D02*
X235725648Y-80038815D01*
X235759878Y-80050483D01*
X236049230Y-80209061D01*
X236401410Y-80485124D01*
X236772155Y-80833488D01*
X237117202Y-81208969D01*
X237392289Y-81566383D01*
X237553154Y-81860546D01*
X237563257Y-81891403D01*
X237585201Y-82026211D01*
X237604058Y-82275780D01*
X237619909Y-82648715D01*
X237632834Y-83153620D01*
X237642917Y-83799101D01*
X237650237Y-84593761D01*
X237654877Y-85546205D01*
X237656918Y-86665037D01*
X237656441Y-87958863D01*
X237653528Y-89436286D01*
X237648861Y-90938400D01*
X237643262Y-92458682D01*
X237637741Y-93791775D01*
X237632001Y-94950489D01*
X237625749Y-95947637D01*
X237618689Y-96796027D01*
X237610525Y-97508472D01*
X237600963Y-98097781D01*
X237589708Y-98576765D01*
X237576464Y-98958235D01*
X237560936Y-99255002D01*
X237542830Y-99479877D01*
X237521849Y-99645669D01*
X237497699Y-99765191D01*
X237470085Y-99851252D01*
X237442164Y-99910435D01*
X237205897Y-100228523D01*
X236902693Y-100392790D01*
X236499774Y-100435040D01*
X236228557Y-100400852D01*
X235995504Y-100277352D01*
X235743984Y-100046144D01*
X235369769Y-99660607D01*
X235367216Y-89834605D01*
X235367210Y-88450494D01*
X235367895Y-87123710D01*
X235369225Y-85867825D01*
X235371154Y-84696410D01*
X235373638Y-83623036D01*
X235376630Y-82661275D01*
X235380085Y-81824697D01*
X235383958Y-81126875D01*
X235388204Y-80581380D01*
X235392777Y-80201782D01*
X235397632Y-80001654D01*
X235400215Y-79973050D01*
X235508178Y-79978545D01*
M02*
