  0
SECTION
  2
HEADER
  9
$ANGBASE
  50
0.0
  9
$ANGDIR
  70
  1
  9
$MEASUREMENT
  70
0
  0
ENDSEC
  0
SECTION
  2
TABLES
  0
TABLE
  2
LTYPE
  70
1
  0
LTYPE
  2
CONTINUOUS
  70
0
  3
Solid line
  72
65
  73
0
  40
0.0
  0
ENDTAB
  0
TABLE
  2
STYLE
  70
4
  0
STYLE
  2
KICAD
  70
0
  40
0
  41
1
  42
1
  50
0
  71
0
  3
isocp.shx
  0
STYLE
  2
KICADB
  70
0
  40
0
  41
1
  42
1
  50
0
  71
0
  3
isocp.shx
  0
STYLE
  2
KICADI
  70
0
  40
0
  41
1
  42
1
  50
15
  71
0
  3
isocp.shx
  0
STYLE
  2
KICADBI
  70
0
  40
0
  41
1
  42
1
  50
15
  71
0
  3
isocp.shx
  0
ENDTAB
  0
TABLE
  2
LAYER
  70
30
  0
LAYER
  2
BLACK
  70
0
  62
7
  6
CONTINUOUS
  0
LAYER
  2
GRAY1
  70
0
  62
251
  6
CONTINUOUS
  0
LAYER
  2
GRAY2
  70
0
  62
8
  6
CONTINUOUS
  0
LAYER
  2
GRAY3
  70
0
  62
9
  6
CONTINUOUS
  0
LAYER
  2
WHITE
  70
0
  62
7
  6
CONTINUOUS
  0
LAYER
  2
LYELLOW
  70
0
  62
51
  6
CONTINUOUS
  0
LAYER
  2
BLUE1
  70
0
  62
178
  6
CONTINUOUS
  0
LAYER
  2
GREEN1
  70
0
  62
98
  6
CONTINUOUS
  0
LAYER
  2
CYAN1
  70
0
  62
138
  6
CONTINUOUS
  0
LAYER
  2
RED1
  70
0
  62
18
  6
CONTINUOUS
  0
LAYER
  2
MAGENTA1
  70
0
  62
228
  6
CONTINUOUS
  0
LAYER
  2
BROWN1
  70
0
  62
58
  6
CONTINUOUS
  0
LAYER
  2
BLUE2
  70
0
  62
5
  6
CONTINUOUS
  0
LAYER
  2
GREEN2
  70
0
  62
3
  6
CONTINUOUS
  0
LAYER
  2
CYAN2
  70
0
  62
4
  6
CONTINUOUS
  0
LAYER
  2
RED2
  70
0
  62
1
  6
CONTINUOUS
  0
LAYER
  2
MAGENTA2
  70
0
  62
6
  6
CONTINUOUS
  0
LAYER
  2
BROWN2
  70
0
  62
54
  6
CONTINUOUS
  0
LAYER
  2
BLUE3
  70
0
  62
171
  6
CONTINUOUS
  0
LAYER
  2
GREEN3
  70
0
  62
91
  6
CONTINUOUS
  0
LAYER
  2
CYAN3
  70
0
  62
131
  6
CONTINUOUS
  0
LAYER
  2
RED3
  70
0
  62
11
  6
CONTINUOUS
  0
LAYER
  2
MAGENTA3
  70
0
  62
221
  6
CONTINUOUS
  0
LAYER
  2
YELLOW3
  70
0
  62
2
  6
CONTINUOUS
  0
LAYER
  2
BLUE4
  70
0
  62
5
  6
CONTINUOUS
  0
LAYER
  2
GREEN4
  70
0
  62
3
  6
CONTINUOUS
  0
LAYER
  2
CYAN4
  70
0
  62
4
  6
CONTINUOUS
  0
LAYER
  2
RED4
  70
0
  62
1
  6
CONTINUOUS
  0
LAYER
  2
MAGENTA4
  70
0
  62
6
  6
CONTINUOUS
  0
LAYER
  2
YELLOW4
  70
0
  62
2
  6
CONTINUOUS
  0
ENDTAB
  0
ENDSEC
  0
SECTION
  2
ENTITIES
0
LINE
8
Black
10
211.891
20
-41.6709
11
211.893
21
-41.6709
0
LINE
8
Black
10
211.893
20
-41.6709
11
212.369
21
-41.7548
0
LINE
8
Black
10
212.369
20
-41.7548
11
212.384
21
-41.7606
0
LINE
8
Black
10
212.384
20
-41.7606
11
212.399
21
-41.7644
0
LINE
8
Black
10
212.399
20
-41.7644
11
212.743
21
-41.9217
0
LINE
8
Black
10
212.743
20
-41.9217
11
212.75
21
-41.9267
0
LINE
8
Black
10
212.75
20
-41.9267
11
212.758
21
-41.9297
0
LINE
8
Black
10
212.758
20
-41.9297
11
213.15
21
-42.1767
0
LINE
8
Black
10
213.15
20
-42.1767
11
213.16
21
-42.1865
0
LINE
8
Black
10
213.16
20
-42.1865
11
213.172
21
-42.1944
0
LINE
8
Black
10
213.172
20
-42.1944
11
213.662
21
-42.684
0
LINE
8
Black
10
213.662
20
-42.684
11
213.662
21
-42.6847
0
LINE
8
Black
10
213.662
20
-42.6847
11
213.663
21
-42.6851
0
LINE
8
Black
10
213.663
20
-42.6851
11
213.676
21
-42.7053
0
LINE
8
Black
10
213.676
20
-42.7053
11
213.689
21
-42.7252
0
LINE
8
Black
10
213.689
20
-42.7252
11
213.689
21
-42.726
0
LINE
8
Black
10
213.689
20
-42.726
11
213.69
21
-42.7267
0
LINE
8
Black
10
213.69
20
-42.7267
11
213.793
21
-42.9847
0
LINE
8
Black
10
213.793
20
-42.9847
11
213.797
21
-43.0082
0
LINE
8
Black
10
213.797
20
-43.0082
11
213.802
21
-43.0316
0
LINE
8
Black
10
213.802
20
-43.0316
11
213.878
21
-71.341
0
LINE
8
Black
10
213.878
20
-71.341
11
213.88
21
-71.3498
0
LINE
8
Black
10
213.88
20
-71.3498
11
213.89
21
-71.3635
0
LINE
8
Black
10
213.89
20
-71.3635
11
213.977
21
-71.4333
0
LINE
8
Black
10
213.977
20
-71.4333
11
213.995
21
-71.4437
0
LINE
8
Black
10
213.995
20
-71.4437
11
215.4
21
-71.9472
0
LINE
8
Black
10
215.4
20
-71.9472
11
215.405
21
-71.9487
0
LINE
8
Black
10
215.405
20
-71.9487
11
215.621
21
-72.0063
0
LINE
8
Black
10
215.621
20
-72.0063
11
215.641
21
-72.0083
0
LINE
8
Black
10
215.641
20
-72.0083
11
215.694
21
-72.0048
0
LINE
8
Black
10
215.694
20
-72.0048
11
215.705
21
-72.0018
0
LINE
8
Black
10
215.705
20
-72.0018
11
215.706
21
-72.0003
0
LINE
8
Black
10
215.706
20
-72.0003
11
215.707
21
-71.9943
0
LINE
8
Black
10
215.707
20
-71.9943
11
215.793
21
-50.6065
0
LINE
8
Black
10
215.793
20
-50.6065
11
215.796
21
-50.5928
0
LINE
8
Black
10
215.796
20
-50.5928
11
215.796
21
-50.5788
0
LINE
8
Black
10
215.796
20
-50.5788
11
215.801
21
-50.5687
0
LINE
8
Black
10
215.801
20
-50.5687
11
215.803
21
-50.5579
0
LINE
8
Black
10
215.803
20
-50.5579
11
215.811
21
-50.5463
0
LINE
8
Black
10
215.811
20
-50.5463
11
215.817
21
-50.5336
0
LINE
8
Black
10
215.817
20
-50.5336
11
216.487
21
-49.5873
0
LINE
8
Black
10
216.487
20
-49.5873
11
216.496
21
-49.5783
0
LINE
8
Black
10
216.496
20
-49.5783
11
216.504
21
-49.5678
0
LINE
8
Black
10
216.504
20
-49.5678
11
216.514
21
-49.5615
0
LINE
8
Black
10
216.514
20
-49.5615
11
216.523
21
-49.5532
0
LINE
8
Black
10
216.523
20
-49.5532
11
216.535
21
-49.5486
0
LINE
8
Black
10
216.535
20
-49.5486
11
216.546
21
-49.5417
0
LINE
8
Black
10
216.546
20
-49.5417
11
217.095
21
-49.337
0
LINE
8
Black
10
217.095
20
-49.337
11
217.11
21
-49.3347
0
LINE
8
Black
10
217.11
20
-49.3347
11
217.124
21
-49.33
0
LINE
8
Black
10
217.124
20
-49.33
11
217.813
21
-49.2433
0
LINE
8
Black
10
217.813
20
-49.2433
11
217.835
21
-49.2448
0
LINE
8
Black
10
217.835
20
-49.2448
11
217.857
21
-49.2455
0
LINE
8
Black
10
217.857
20
-49.2455
11
218.327
21
-49.3534
0
LINE
8
Black
10
218.327
20
-49.3534
11
218.342
21
-49.3605
0
LINE
8
Black
10
218.342
20
-49.3605
11
218.359
21
-49.3656
0
LINE
8
Black
10
218.359
20
-49.3656
11
218.836
21
-49.6258
0
LINE
8
Black
10
218.836
20
-49.6258
11
218.854
21
-49.6402
0
LINE
8
Black
10
218.854
20
-49.6402
11
218.872
21
-49.6539
0
LINE
8
Black
10
218.872
20
-49.6539
11
219.187
21
-50.0167
0
LINE
8
Black
10
219.187
20
-50.0167
11
219.195
21
-50.0295
0
LINE
8
Black
10
219.195
20
-50.0295
11
219.204
21
-50.0408
0
LINE
8
Black
10
219.204
20
-50.0408
11
219.384
21
-50.3814
0
LINE
8
Black
10
219.384
20
-50.3814
11
219.387
21
-50.3946
0
LINE
8
Black
10
219.387
20
-50.3946
11
219.394
21
-50.4069
0
LINE
8
Black
10
219.394
20
-50.4069
11
219.482
21
-50.7278
0
LINE
8
Black
10
219.482
20
-50.7278
11
219.483
21
-50.7446
0
LINE
8
Black
10
219.483
20
-50.7446
11
219.487
21
-50.761
0
LINE
8
Black
10
219.487
20
-50.761
11
219.578
21
-73.8759
0
LINE
8
Black
10
219.578
20
-73.8759
11
219.578
21
-73.881
0
LINE
8
Black
10
219.578
20
-73.881
11
219.633
21
-74.5287
0
LINE
8
Black
10
219.633
20
-74.5287
11
219.638
21
-74.5482
0
LINE
8
Black
10
219.638
20
-74.5482
11
219.703
21
-74.7002
0
LINE
8
Black
10
219.703
20
-74.7002
11
219.707
21
-74.7176
0
LINE
8
Black
10
219.707
20
-74.7176
11
219.712
21
-74.7344
0
LINE
8
Black
10
219.712
20
-74.7344
11
219.718
21
-74.7809
0
LINE
8
Black
10
219.718
20
-74.7809
11
219.731
21
-74.8115
0
LINE
8
Black
10
219.731
20
-74.8115
11
219.998
21
-75.155
0
LINE
8
Black
10
219.998
20
-75.155
11
220.014
21
-75.1696
0
LINE
8
Black
10
220.014
20
-75.1696
11
220.769
21
-75.6466
0
LINE
8
Black
10
220.769
20
-75.6466
11
220.785
21
-75.6538
0
LINE
8
Black
10
220.785
20
-75.6538
11
221.682
21
-75.913
0
LINE
8
Black
10
221.682
20
-75.913
11
221.7
21
-75.9155
0
LINE
8
Black
10
221.7
20
-75.9155
11
242.844
21
-75.7581
0
LINE
8
Black
10
242.844
20
-75.7581
11
242.849
21
-75.7591
0
LINE
8
Black
10
242.849
20
-75.7591
11
242.855
21
-75.7584
0
LINE
8
Black
10
242.855
20
-75.7584
11
244.629
21
-75.8938
0
LINE
8
Black
10
244.629
20
-75.8938
11
244.647
21
-75.8987
0
LINE
8
Black
10
244.647
20
-75.8987
11
244.665
21
-75.9018
0
LINE
8
Black
10
244.665
20
-75.9018
11
245.145
21
-76.0855
0
LINE
8
Black
10
245.145
20
-76.0855
11
245.164
21
-76.097
0
LINE
8
Black
10
245.164
20
-76.097
11
245.183
21
-76.1077
0
LINE
8
Black
10
245.183
20
-76.1077
11
245.576
21
-76.4451
0
LINE
8
Black
10
245.576
20
-76.4451
11
245.589
21
-76.4618
0
LINE
8
Black
10
245.589
20
-76.4618
11
245.603
21
-76.4777
0
LINE
8
Black
10
245.603
20
-76.4777
11
245.856
21
-76.9121
0
LINE
8
Black
10
245.856
20
-76.9121
11
245.863
21
-76.933
0
LINE
8
Black
10
245.863
20
-76.933
11
245.871
21
-76.9536
0
LINE
8
Black
10
245.871
20
-76.9536
11
246.014
21
-77.7539
0
LINE
8
Black
10
246.014
20
-77.7539
11
246.014
21
-77.76
0
LINE
8
Black
10
246.014
20
-77.76
11
246.015
21
-77.7657
0
LINE
8
Black
10
246.015
20
-77.7657
11
246.013
21
-77.7845
0
LINE
8
Black
10
246.013
20
-77.7845
11
246.013
21
-77.8035
0
LINE
8
Black
10
246.013
20
-77.8035
11
246.01
21
-77.809
0
LINE
8
Black
10
246.01
20
-77.809
11
246.01
21
-77.815
0
LINE
8
Black
10
246.01
20
-77.815
11
245.902
21
-78.1519
0
LINE
8
Black
10
245.902
20
-78.1519
11
245.895
21
-78.1648
0
LINE
8
Black
10
245.895
20
-78.1648
11
245.89
21
-78.1786
0
LINE
8
Black
10
245.89
20
-78.1786
11
245.584
21
-78.6884
0
LINE
8
Black
10
245.584
20
-78.6884
11
245.575
21
-78.6979
0
LINE
8
Black
10
245.575
20
-78.6979
11
245.569
21
-78.7088
0
LINE
8
Black
10
245.569
20
-78.7088
11
245.099
21
-79.2226
0
LINE
8
Black
10
245.099
20
-79.2226
11
245.088
21
-79.2307
0
LINE
8
Black
10
245.088
20
-79.2307
11
245.078
21
-79.2407
0
LINE
8
Black
10
245.078
20
-79.2407
11
244.863
21
-79.3925
0
LINE
8
Black
10
244.863
20
-79.3925
11
244.851
21
-79.3982
0
LINE
8
Black
10
244.851
20
-79.3982
11
244.839
21
-79.406
0
LINE
8
Black
10
244.839
20
-79.406
11
244.828
21
-79.4081
0
LINE
8
Black
10
244.828
20
-79.4081
11
244.818
21
-79.4126
0
LINE
8
Black
10
244.818
20
-79.4126
11
244.804
21
-79.4129
0
LINE
8
Black
10
244.804
20
-79.4129
11
244.79
21
-79.4157
0
LINE
8
Black
10
244.79
20
-79.4157
11
223.169
21
-79.4512
0
LINE
8
Black
10
223.169
20
-79.4512
11
223.169
21
-79.4512
0
LINE
8
Black
10
223.169
20
-79.4512
11
223.169
21
-79.4512
0
LINE
8
Black
10
223.169
20
-79.4512
11
223.147
21
-79.4512
0
LINE
8
Black
10
223.147
20
-79.4512
11
223.136
21
-79.4533
0
LINE
8
Black
10
223.136
20
-79.4533
11
223.136
21
-79.4556
0
LINE
8
Black
10
223.136
20
-79.4556
11
223.136
21
-79.4591
0
LINE
8
Black
10
223.136
20
-79.4591
11
223.174
21
-79.5852
0
LINE
8
Black
10
223.174
20
-79.5852
11
223.176
21
-79.5914
0
LINE
8
Black
10
223.176
20
-79.5914
11
223.271
21
-79.8213
0
LINE
8
Black
10
223.271
20
-79.8213
11
223.271
21
-79.8221
0
LINE
8
Black
10
223.271
20
-79.8221
11
223.271
21
-79.8228
0
LINE
8
Black
10
223.271
20
-79.8228
11
223.458
21
-80.2911
0
LINE
8
Black
10
223.458
20
-80.2911
11
223.458
21
-80.2947
0
LINE
8
Black
10
223.458
20
-80.2947
11
223.46
21
-80.2979
0
LINE
8
Black
10
223.46
20
-80.2979
11
223.579
21
-80.6556
0
LINE
8
Black
10
223.579
20
-80.6556
11
223.58
21
-80.6605
0
LINE
8
Black
10
223.58
20
-80.6605
11
223.582
21
-80.665
0
LINE
8
Black
10
223.582
20
-80.665
11
223.621
21
-80.8215
0
LINE
8
Black
10
223.621
20
-80.8215
11
223.621
21
-80.8229
0
LINE
8
Black
10
223.621
20
-80.8229
11
223.622
21
-80.824
0
LINE
8
Black
10
223.622
20
-80.824
11
223.661
21
-80.9963
0
LINE
8
Black
10
223.661
20
-80.9963
11
223.664
21
-81.0047
0
LINE
8
Black
10
223.664
20
-81.0047
11
223.7
21
-81.101
0
LINE
8
Black
10
223.7
20
-81.101
11
223.707
21
-81.1129
0
LINE
8
Black
10
223.707
20
-81.1129
11
223.76
21
-81.1958
0
LINE
8
Black
10
223.76
20
-81.1958
11
223.783
21
-81.2164
0
LINE
8
Black
10
223.783
20
-81.2164
11
223.85
21
-81.2541
0
LINE
8
Black
10
223.85
20
-81.2541
11
223.872
21
-81.2614
0
LINE
8
Black
10
223.872
20
-81.2614
11
223.996
21
-81.2798
0
LINE
8
Black
10
223.996
20
-81.2798
11
223.999
21
-81.2801
0
LINE
8
Black
10
223.999
20
-81.2801
11
224.219
21
-81.3051
0
LINE
8
Black
10
224.219
20
-81.3051
11
224.223
21
-81.3055
0
LINE
8
Black
10
224.223
20
-81.3055
11
224.753
21
-81.3257
0
LINE
8
Black
10
224.753
20
-81.3257
11
224.756
21
-81.3257
0
LINE
8
Black
10
224.756
20
-81.3257
11
251.416
21
-81.3816
0
LINE
8
Black
10
251.416
20
-81.3816
11
251.424
21
-81.3833
0
LINE
8
Black
10
251.424
20
-81.3833
11
251.433
21
-81.3828
0
LINE
8
Black
10
251.433
20
-81.3828
11
251.986
21
-81.4611
0
LINE
8
Black
10
251.986
20
-81.4611
11
251.998
21
-81.4653
0
LINE
8
Black
10
251.998
20
-81.4653
11
252.011
21
-81.4672
0
LINE
8
Black
10
252.011
20
-81.4672
11
252.668
21
-81.7025
0
LINE
8
Black
10
252.668
20
-81.7025
11
252.67
21
-81.7037
0
LINE
8
Black
10
252.67
20
-81.7037
11
252.673
21
-81.7041
0
LINE
8
Black
10
252.673
20
-81.7041
11
252.692
21
-81.7164
0
LINE
8
Black
10
252.692
20
-81.7164
11
252.711
21
-81.728
0
LINE
8
Black
10
252.711
20
-81.728
11
252.712
21
-81.7298
0
LINE
8
Black
10
252.712
20
-81.7298
11
252.714
21
-81.7311
0
LINE
8
Black
10
252.714
20
-81.7311
11
253.065
21
-82.0724
0
LINE
8
Black
10
253.065
20
-82.0724
11
253.069
21
-82.0785
0
LINE
8
Black
10
253.069
20
-82.0785
11
253.075
21
-82.0833
0
LINE
8
Black
10
253.075
20
-82.0833
11
253.258
21
-82.3088
0
LINE
8
Black
10
253.258
20
-82.3088
11
253.266
21
-82.3231
0
LINE
8
Black
10
253.266
20
-82.3231
11
253.275
21
-82.3362
0
LINE
8
Black
10
253.275
20
-82.3362
11
253.473
21
-82.7703
0
LINE
8
Black
10
253.473
20
-82.7703
11
253.478
21
-82.7898
0
LINE
8
Black
10
253.478
20
-82.7898
11
253.484
21
-82.809
0
LINE
8
Black
10
253.484
20
-82.809
11
253.526
21
-83.1852
0
LINE
8
Black
10
253.526
20
-83.1852
11
253.525
21
-83.2002
0
LINE
8
Black
10
253.525
20
-83.2002
11
253.526
21
-83.2153
0
LINE
8
Black
10
253.526
20
-83.2153
11
253.468
21
-83.6655
0
LINE
8
Black
10
253.468
20
-83.6655
11
253.464
21
-83.6772
0
LINE
8
Black
10
253.464
20
-83.6772
11
253.463
21
-83.6895
0
LINE
8
Black
10
253.463
20
-83.6895
11
253.403
21
-83.8687
0
LINE
8
Black
10
253.403
20
-83.8687
11
253.399
21
-83.8753
0
LINE
8
Black
10
253.399
20
-83.8753
11
253.397
21
-83.8827
0
LINE
8
Black
10
253.397
20
-83.8827
11
253.235
21
-84.2259
0
LINE
8
Black
10
253.235
20
-84.2259
11
253.225
21
-84.2398
0
LINE
8
Black
10
253.225
20
-84.2398
11
253.216
21
-84.2548
0
LINE
8
Black
10
253.216
20
-84.2548
11
252.847
21
-84.6815
0
LINE
8
Black
10
252.847
20
-84.6815
11
252.829
21
-84.6953
0
LINE
8
Black
10
252.829
20
-84.6953
11
252.811
21
-84.7098
0
LINE
8
Black
10
252.811
20
-84.7098
11
252.38
21
-84.9446
0
LINE
8
Black
10
252.38
20
-84.9446
11
252.374
21
-84.9466
0
LINE
8
Black
10
252.374
20
-84.9466
11
252.368
21
-84.9503
0
LINE
8
Black
10
252.368
20
-84.9503
11
252.032
21
-85.0904
0
LINE
8
Black
10
252.032
20
-85.0904
11
252.032
21
-85.0904
0
LINE
8
Black
10
252.032
20
-85.0904
11
252.032
21
-85.0904
0
LINE
8
Black
10
252.032
20
-85.0904
11
252.005
21
-85.0958
0
LINE
8
Black
10
252.005
20
-85.0958
11
251.983
21
-85.1002
0
LINE
8
Black
10
251.983
20
-85.1002
11
251.983
21
-85.1002
0
LINE
8
Black
10
251.983
20
-85.1002
11
251.983
21
-85.1002
0
LINE
8
Black
10
251.983
20
-85.1002
11
224.574
21
-85.156
0
LINE
8
Black
10
224.574
20
-85.156
11
224.563
21
-85.1583
0
LINE
8
Black
10
224.563
20
-85.1583
11
224.561
21
-85.1678
0
LINE
8
Black
10
224.561
20
-85.1678
11
224.561
21
-85.6554
0
LINE
8
Black
10
224.561
20
-85.6554
11
224.561
21
-85.6589
0
LINE
8
Black
10
224.561
20
-85.6589
11
224.561
21
-85.6625
0
LINE
8
Black
10
224.561
20
-85.6625
11
224.516
21
-86.4685
0
LINE
8
Black
10
224.516
20
-86.4685
11
224.516
21
-86.475
0
LINE
8
Black
10
224.516
20
-86.475
11
224.531
21
-86.7992
0
LINE
8
Black
10
224.531
20
-86.7992
11
224.533
21
-86.8145
0
LINE
8
Black
10
224.533
20
-86.8145
11
224.573
21
-86.9472
0
LINE
8
Black
10
224.573
20
-86.9472
11
224.578
21
-86.9559
0
LINE
8
Black
10
224.578
20
-86.9559
11
224.592
21
-86.9594
0
LINE
8
Black
10
224.592
20
-86.9594
11
229.514
21
-86.9442
0
LINE
8
Black
10
229.514
20
-86.9442
11
229.514
21
-86.9443
0
LINE
8
Black
10
229.514
20
-86.9443
11
229.515
21
-86.9442
0
LINE
8
Black
10
229.515
20
-86.9442
11
252.198
21
-86.9899
0
LINE
8
Black
10
252.198
20
-86.9899
11
252.212
21
-86.9927
0
LINE
8
Black
10
252.212
20
-86.9927
11
252.226
21
-86.9931
0
LINE
8
Black
10
252.226
20
-86.9931
11
252.365
21
-87.0249
0
LINE
8
Black
10
252.365
20
-87.0249
11
252.365
21
-87.0249
0
LINE
8
Black
10
252.365
20
-87.0249
11
252.365
21
-87.0249
0
LINE
8
Black
10
252.365
20
-87.0249
11
252.387
21
-87.035
0
LINE
8
Black
10
252.387
20
-87.035
11
252.41
21
-87.0452
0
LINE
8
Black
10
252.41
20
-87.0452
11
252.41
21
-87.0452
0
LINE
8
Black
10
252.41
20
-87.0452
11
252.41
21
-87.0453
0
LINE
8
Black
10
252.41
20
-87.0453
11
252.687
21
-87.2424
0
LINE
8
Black
10
252.687
20
-87.2424
11
252.689
21
-87.2443
0
LINE
8
Black
10
252.689
20
-87.2443
11
252.691
21
-87.2455
0
LINE
8
Black
10
252.691
20
-87.2455
11
253.137
21
-87.5902
0
LINE
8
Black
10
253.137
20
-87.5902
11
253.141
21
-87.595
0
LINE
8
Black
10
253.141
20
-87.595
11
253.146
21
-87.5983
0
LINE
8
Black
10
253.146
20
-87.5983
11
253.157
21
-87.6135
0
LINE
8
Black
10
253.157
20
-87.6135
11
253.169
21
-87.6276
0
LINE
8
Black
10
253.169
20
-87.6276
11
253.171
21
-87.6336
0
LINE
8
Black
10
253.171
20
-87.6336
11
253.175
21
-87.6387
0
LINE
8
Black
10
253.175
20
-87.6387
11
253.508
21
-88.3823
0
LINE
8
Black
10
253.508
20
-88.3823
11
253.513
21
-88.4032
0
LINE
8
Black
10
253.513
20
-88.4032
11
253.519
21
-88.4239
0
LINE
8
Black
10
253.519
20
-88.4239
11
253.562
21
-88.9461
0
LINE
8
Black
10
253.562
20
-88.9461
11
253.56
21
-88.9609
0
LINE
8
Black
10
253.56
20
-88.9609
11
253.561
21
-88.9757
0
LINE
8
Black
10
253.561
20
-88.9757
11
253.475
21
-89.5366
0
LINE
8
Black
10
253.475
20
-89.5366
11
253.468
21
-89.5542
0
LINE
8
Black
10
253.468
20
-89.5542
11
253.463
21
-89.5724
0
LINE
8
Black
10
253.463
20
-89.5724
11
253.277
21
-89.9584
0
LINE
8
Black
10
253.277
20
-89.9584
11
253.265
21
-89.9747
0
LINE
8
Black
10
253.265
20
-89.9747
11
253.254
21
-89.9917
0
LINE
8
Black
10
253.254
20
-89.9917
11
252.93
21
-90.3253
0
LINE
8
Black
10
252.93
20
-90.3253
11
252.922
21
-90.3311
0
LINE
8
Black
10
252.922
20
-90.3311
11
252.915
21
-90.3386
0
LINE
8
Black
10
252.915
20
-90.3386
11
252.418
21
-90.7088
0
LINE
8
Black
10
252.418
20
-90.7088
11
252.404
21
-90.7155
0
LINE
8
Black
10
252.404
20
-90.7155
11
252.391
21
-90.7242
0
LINE
8
Black
10
252.391
20
-90.7242
11
252.382
21
-90.7261
0
LINE
8
Black
10
252.382
20
-90.7261
11
252.373
21
-90.7301
0
LINE
8
Black
10
252.373
20
-90.7301
11
252.358
21
-90.7309
0
LINE
8
Black
10
252.358
20
-90.7309
11
252.343
21
-90.734
0
LINE
8
Black
10
252.343
20
-90.734
11
225.457
21
-90.7898
0
LINE
8
Black
10
225.457
20
-90.7898
11
225.454
21
-90.7899
0
LINE
8
Black
10
225.454
20
-90.7899
11
223.822
21
-90.8906
0
LINE
8
Black
10
223.822
20
-90.8906
11
223.811
21
-90.8937
0
LINE
8
Black
10
223.811
20
-90.8937
11
223.809
21
-90.8954
0
LINE
8
Black
10
223.809
20
-90.8954
11
223.806
21
-90.8996
0
LINE
8
Black
10
223.806
20
-90.8996
11
223.562
21
-91.4381
0
LINE
8
Black
10
223.562
20
-91.4381
11
223.56
21
-91.442
0
LINE
8
Black
10
223.56
20
-91.442
11
223.307
21
-92.1141
0
LINE
8
Black
10
223.307
20
-92.1141
11
223.306
21
-92.1173
0
LINE
8
Black
10
223.306
20
-92.1173
11
223.185
21
-92.4999
0
LINE
8
Black
10
223.185
20
-92.4999
11
223.184
21
-92.5036
0
LINE
8
Black
10
223.184
20
-92.5036
11
223.173
21
-92.5503
0
LINE
8
Black
10
223.173
20
-92.5503
11
223.172
21
-92.5598
0
LINE
8
Black
10
223.172
20
-92.5598
11
223.183
21
-92.5706
0
LINE
8
Black
10
223.183
20
-92.5706
11
223.195
21
-92.5771
0
LINE
8
Black
10
223.195
20
-92.5771
11
223.217
21
-92.5847
0
LINE
8
Black
10
223.217
20
-92.5847
11
223.373
21
-92.6077
0
LINE
8
Black
10
223.373
20
-92.6077
11
223.382
21
-92.6084
0
LINE
8
Black
10
223.382
20
-92.6084
11
227.492
21
-92.6287
0
LINE
8
Black
10
227.492
20
-92.6287
11
227.492
21
-92.6287
0
LINE
8
Black
10
227.492
20
-92.6287
11
227.493
21
-92.6287
0
LINE
8
Black
10
227.493
20
-92.6287
11
244.422
21
-92.7302
0
LINE
8
Black
10
244.422
20
-92.7302
11
244.444
21
-92.7346
0
LINE
8
Black
10
244.444
20
-92.7346
11
244.465
21
-92.7379
0
LINE
8
Black
10
244.465
20
-92.7379
11
244.742
21
-92.8395
0
LINE
8
Black
10
244.742
20
-92.8395
11
244.749
21
-92.8434
0
LINE
8
Black
10
244.749
20
-92.8434
11
244.756
21
-92.8455
0
LINE
8
Black
10
244.756
20
-92.8455
11
245.121
21
-93.0304
0
LINE
8
Black
10
245.121
20
-93.0304
11
245.129
21
-93.0369
0
LINE
8
Black
10
245.129
20
-93.0369
11
245.139
21
-93.0413
0
LINE
8
Black
10
245.139
20
-93.0413
11
245.35
21
-93.1965
0
LINE
8
Black
10
245.35
20
-93.1965
11
245.358
21
-93.2043
0
LINE
8
Black
10
245.358
20
-93.2043
11
245.366
21
-93.2103
0
LINE
8
Black
10
245.366
20
-93.2103
11
245.549
21
-93.3982
0
LINE
8
Black
10
245.549
20
-93.3982
11
245.555
21
-93.4073
0
LINE
8
Black
10
245.555
20
-93.4073
11
245.563
21
-93.4149
0
LINE
8
Black
10
245.563
20
-93.4149
11
245.719
21
-93.6413
0
LINE
8
Black
10
245.719
20
-93.6413
11
245.723
21
-93.6508
0
LINE
8
Black
10
245.723
20
-93.6508
11
245.729
21
-93.6591
0
LINE
8
Black
10
245.729
20
-93.6591
11
245.929
21
-94.0838
0
LINE
8
Black
10
245.929
20
-94.0838
11
245.934
21
-94.103
0
LINE
8
Black
10
245.934
20
-94.103
11
245.941
21
-94.1218
0
LINE
8
Black
10
245.941
20
-94.1218
11
245.987
21
-94.4831
0
LINE
8
Black
10
245.987
20
-94.4831
11
245.986
21
-94.4982
0
LINE
8
Black
10
245.986
20
-94.4982
11
245.987
21
-94.5133
0
LINE
8
Black
10
245.987
20
-94.5133
11
245.925
21
-95.0722
0
LINE
8
Black
10
245.925
20
-95.0722
11
245.919
21
-95.0915
0
LINE
8
Black
10
245.919
20
-95.0915
11
245.914
21
-95.1111
0
LINE
8
Black
10
245.914
20
-95.1111
11
245.734
21
-95.5047
0
LINE
8
Black
10
245.734
20
-95.5047
11
245.728
21
-95.5132
0
LINE
8
Black
10
245.728
20
-95.5132
11
245.724
21
-95.5228
0
LINE
8
Black
10
245.724
20
-95.5228
11
245.569
21
-95.7529
0
LINE
8
Black
10
245.569
20
-95.7529
11
245.56
21
-95.7615
0
LINE
8
Black
10
245.56
20
-95.7615
11
245.553
21
-95.7718
0
LINE
8
Black
10
245.553
20
-95.7718
11
245.279
21
-96.0458
0
LINE
8
Black
10
245.279
20
-96.0458
11
245.26
21
-96.0589
0
LINE
8
Black
10
245.26
20
-96.0589
11
245.24
21
-96.0724
0
LINE
8
Black
10
245.24
20
-96.0724
11
244.911
21
-96.2162
0
LINE
8
Black
10
244.911
20
-96.2162
11
244.901
21
-96.2184
0
LINE
8
Black
10
244.901
20
-96.2184
11
244.892
21
-96.2228
0
LINE
8
Black
10
244.892
20
-96.2228
11
244.426
21
-96.3417
0
LINE
8
Black
10
244.426
20
-96.3417
11
244.422
21
-96.3429
0
LINE
8
Black
10
244.422
20
-96.3429
11
244.117
21
-96.4429
0
LINE
8
Black
10
244.117
20
-96.4429
11
244.098
21
-96.4452
0
LINE
8
Black
10
244.098
20
-96.4452
11
244.08
21
-96.4492
0
LINE
8
Black
10
244.08
20
-96.4492
11
243.109
21
-96.4641
0
LINE
8
Black
10
243.109
20
-96.4641
11
243.109
21
-96.464
0
LINE
8
Black
10
243.109
20
-96.464
11
243.108
21
-96.4641
0
LINE
8
Black
10
243.108
20
-96.4641
11
220.546
21
-96.52
0
LINE
8
Black
10
220.546
20
-96.52
11
220.534
21
-96.5223
0
LINE
8
Black
10
220.534
20
-96.5223
11
220.524
21
-96.5294
0
LINE
8
Black
10
220.524
20
-96.5294
11
220.038
21
-97.0404
0
LINE
8
Black
10
220.038
20
-97.0404
11
220.035
21
-97.0427
0
LINE
8
Black
10
220.035
20
-97.0427
11
220.032
21
-97.0459
0
LINE
8
Black
10
220.032
20
-97.0459
11
219.536
21
-97.507
0
LINE
8
Black
10
219.536
20
-97.507
11
219.53
21
-97.5162
0
LINE
8
Black
10
219.53
20
-97.5162
11
219.527
21
-97.5291
0
LINE
8
Black
10
219.527
20
-97.5291
11
219.487
21
-121.61
0
LINE
8
Black
10
219.487
20
-121.61
11
219.483
21
-121.629
0
LINE
8
Black
10
219.483
20
-121.629
11
219.481
21
-121.648
0
LINE
8
Black
10
219.481
20
-121.648
11
219.478
21
-121.653
0
LINE
8
Black
10
219.478
20
-121.653
11
219.477
21
-121.658
0
LINE
8
Black
10
219.477
20
-121.658
11
219.466
21
-121.674
0
LINE
8
Black
10
219.466
20
-121.674
11
219.457
21
-121.691
0
LINE
8
Black
10
219.457
20
-121.691
11
219.005
21
-122.227
0
LINE
8
Black
10
219.005
20
-122.227
11
218.997
21
-122.234
0
LINE
8
Black
10
218.997
20
-122.234
11
218.991
21
-122.241
0
LINE
8
Black
10
218.991
20
-122.241
11
218.659
21
-122.53
0
LINE
8
Black
10
218.659
20
-122.53
11
218.647
21
-122.537
0
LINE
8
Black
10
218.647
20
-122.537
11
218.635
21
-122.547
0
LINE
8
Black
10
218.635
20
-122.547
11
218.116
21
-122.821
0
LINE
8
Black
10
218.116
20
-122.821
11
218.098
21
-122.826
0
LINE
8
Black
10
218.098
20
-122.826
11
218.082
21
-122.833
0
LINE
8
Black
10
218.082
20
-122.833
11
217.512
21
-122.951
0
LINE
8
Black
10
217.512
20
-122.951
11
217.51
21
-122.951
0
LINE
8
Black
10
217.51
20
-122.951
11
217.507
21
-122.952
0
LINE
8
Black
10
217.507
20
-122.952
11
217.485
21
-122.951
0
LINE
8
Black
10
217.485
20
-122.951
11
217.463
21
-122.951
0
LINE
8
Black
10
217.463
20
-122.951
11
217.46
21
-122.95
0
LINE
8
Black
10
217.46
20
-122.95
11
217.458
21
-122.95
0
LINE
8
Black
10
217.458
20
-122.95
11
216.981
21
-122.84
0
LINE
8
Black
10
216.981
20
-122.84
11
216.958
21
-122.83
0
LINE
8
Black
10
216.958
20
-122.83
11
216.936
21
-122.82
0
LINE
8
Black
10
216.936
20
-122.82
11
216.936
21
-122.82
0
LINE
8
Black
10
216.936
20
-122.82
11
216.936
21
-122.82
0
LINE
8
Black
10
216.936
20
-122.82
11
216.936
21
-122.82
0
LINE
8
Black
10
216.936
20
-122.82
11
216.407
21
-122.443
0
LINE
8
Black
10
216.407
20
-122.443
11
216.395
21
-122.431
0
LINE
8
Black
10
216.395
20
-122.431
11
216.382
21
-122.42
0
LINE
8
Black
10
216.382
20
-122.42
11
215.858
21
-121.782
0
LINE
8
Black
10
215.858
20
-121.782
11
215.849
21
-121.766
0
LINE
8
Black
10
215.849
20
-121.766
11
215.839
21
-121.751
0
LINE
8
Black
10
215.839
20
-121.751
11
215.837
21
-121.744
0
LINE
8
Black
10
215.837
20
-121.744
11
215.834
21
-121.739
0
LINE
8
Black
10
215.834
20
-121.739
11
215.832
21
-121.72
0
LINE
8
Black
10
215.832
20
-121.72
11
215.829
21
-121.702
0
LINE
8
Black
10
215.829
20
-121.702
11
215.758
21
-100.629
0
LINE
8
Black
10
215.758
20
-100.629
11
215.757
21
-100.621
0
LINE
8
Black
10
215.757
20
-100.621
11
215.693
21
-100.114
0
LINE
8
Black
10
215.693
20
-100.114
11
215.69
21
-100.105
0
LINE
8
Black
10
215.69
20
-100.105
11
215.676
21
-100.106
0
LINE
8
Black
10
215.676
20
-100.106
11
215.523
21
-100.146
0
LINE
8
Black
10
215.523
20
-100.146
11
215.515
21
-100.149
0
LINE
8
Black
10
215.515
20
-100.149
11
214.953
21
-100.38
0
LINE
8
Black
10
214.953
20
-100.38
11
214.95
21
-100.38
0
LINE
8
Black
10
214.95
20
-100.38
11
214.947
21
-100.382
0
LINE
8
Black
10
214.947
20
-100.382
11
213.88
21
-100.768
0
LINE
8
Black
10
213.88
20
-100.768
11
213.87
21
-100.774
0
LINE
8
Black
10
213.87
20
-100.774
11
213.868
21
-100.777
0
LINE
8
Black
10
213.868
20
-100.777
11
213.867
21
-100.78
0
LINE
8
Black
10
213.867
20
-100.78
11
213.864
21
-100.797
0
LINE
8
Black
10
213.864
20
-100.797
11
213.863
21
-100.808
0
LINE
8
Black
10
213.863
20
-100.808
11
213.802
21
-129.09
0
LINE
8
Black
10
213.802
20
-129.09
11
213.8
21
-129.102
0
LINE
8
Black
10
213.8
20
-129.102
11
213.8
21
-129.115
0
LINE
8
Black
10
213.8
20
-129.115
11
213.795
21
-129.126
0
LINE
8
Black
10
213.795
20
-129.126
11
213.792
21
-129.139
0
LINE
8
Black
10
213.792
20
-129.139
11
213.785
21
-129.149
0
LINE
8
Black
10
213.785
20
-129.149
11
213.781
21
-129.16
0
LINE
8
Black
10
213.781
20
-129.16
11
213.408
21
-129.718
0
LINE
8
Black
10
213.408
20
-129.718
11
213.399
21
-129.726
0
LINE
8
Black
10
213.399
20
-129.726
11
213.392
21
-129.737
0
LINE
8
Black
10
213.392
20
-129.737
11
212.949
21
-130.179
0
LINE
8
Black
10
212.949
20
-130.179
11
212.936
21
-130.188
0
LINE
8
Black
10
212.936
20
-130.188
11
212.925
21
-130.198
0
LINE
8
Black
10
212.925
20
-130.198
11
212.686
21
-130.343
0
LINE
8
Black
10
212.686
20
-130.343
11
212.668
21
-130.349
0
LINE
8
Black
10
212.668
20
-130.349
11
212.65
21
-130.357
0
LINE
8
Black
10
212.65
20
-130.357
11
212.194
21
-130.47
0
LINE
8
Black
10
212.194
20
-130.47
11
212.176
21
-130.471
0
LINE
8
Black
10
212.176
20
-130.471
11
212.159
21
-130.474
0
LINE
8
Black
10
212.159
20
-130.474
11
211.353
21
-130.446
0
LINE
8
Black
10
211.353
20
-130.446
11
211.339
21
-130.442
0
LINE
8
Black
10
211.339
20
-130.442
11
211.325
21
-130.442
0
LINE
8
Black
10
211.325
20
-130.442
11
211.315
21
-130.437
0
LINE
8
Black
10
211.315
20
-130.437
11
211.305
21
-130.434
0
LINE
8
Black
10
211.305
20
-130.434
11
211.293
21
-130.426
0
LINE
8
Black
10
211.293
20
-130.426
11
211.281
21
-130.42
0
LINE
8
Black
10
211.281
20
-130.42
11
210.707
21
-129.986
0
LINE
8
Black
10
210.707
20
-129.986
11
210.691
21
-129.969
0
LINE
8
Black
10
210.691
20
-129.969
11
210.675
21
-129.952
0
LINE
8
Black
10
210.675
20
-129.952
11
210.098
21
-129.019
0
LINE
8
Black
10
210.098
20
-129.019
11
210.095
21
-129.011
0
LINE
8
Black
10
210.095
20
-129.011
11
210.09
21
-129.003
0
LINE
8
Black
10
210.09
20
-129.003
11
210.013
21
-128.828
0
LINE
8
Black
10
210.013
20
-128.828
11
210.013
21
-128.826
0
LINE
8
Black
10
210.013
20
-128.826
11
210.012
21
-128.825
0
LINE
8
Black
10
210.012
20
-128.825
11
210.007
21
-128.802
0
LINE
8
Black
10
210.007
20
-128.802
11
210.002
21
-128.779
0
LINE
8
Black
10
210.002
20
-128.779
11
210.002
21
-128.778
0
LINE
8
Black
10
210.002
20
-128.778
11
210.002
21
-128.777
0
LINE
8
Black
10
210.002
20
-128.777
11
210.002
21
-101.47
0
LINE
8
Black
10
210.002
20
-101.47
11
210
21
-101.46
0
LINE
8
Black
10
210
20
-101.46
11
209.989
21
-101.458
0
LINE
8
Black
10
209.989
20
-101.458
11
208.257
21
-101.528
0
LINE
8
Black
10
208.257
20
-101.528
11
208.246
21
-101.531
0
LINE
8
Black
10
208.246
20
-101.531
11
208.246
21
-101.532
0
LINE
8
Black
10
208.246
20
-101.532
11
208.244
21
-101.539
0
LINE
8
Black
10
208.244
20
-101.539
11
208.133
21
-128.977
0
LINE
8
Black
10
208.133
20
-128.977
11
208.132
21
-128.981
0
LINE
8
Black
10
208.132
20
-128.981
11
208.132
21
-128.986
0
LINE
8
Black
10
208.132
20
-128.986
11
208.127
21
-129.005
0
LINE
8
Black
10
208.127
20
-129.005
11
208.123
21
-129.025
0
LINE
8
Black
10
208.123
20
-129.025
11
208.12
21
-129.029
0
LINE
8
Black
10
208.12
20
-129.029
11
208.119
21
-129.033
0
LINE
8
Black
10
208.119
20
-129.033
11
207.894
21
-129.48
0
LINE
8
Black
10
207.894
20
-129.48
11
207.887
21
-129.488
0
LINE
8
Black
10
207.887
20
-129.488
11
207.882
21
-129.498
0
LINE
8
Black
10
207.882
20
-129.498
11
207.58
21
-129.906
0
LINE
8
Black
10
207.58
20
-129.906
11
207.566
21
-129.918
0
LINE
8
Black
10
207.566
20
-129.918
11
207.554
21
-129.932
0
LINE
8
Black
10
207.554
20
-129.932
11
207.136
21
-130.241
0
LINE
8
Black
10
207.136
20
-130.241
11
207.12
21
-130.248
0
LINE
8
Black
10
207.12
20
-130.248
11
207.105
21
-130.257
0
LINE
8
Black
10
207.105
20
-130.257
11
206.565
21
-130.458
0
LINE
8
Black
10
206.565
20
-130.458
11
206.547
21
-130.461
0
LINE
8
Black
10
206.547
20
-130.461
11
206.529
21
-130.466
0
LINE
8
Black
10
206.529
20
-130.466
11
206.098
21
-130.494
0
LINE
8
Black
10
206.098
20
-130.494
11
206.076
21
-130.491
0
LINE
8
Black
10
206.076
20
-130.491
11
206.054
21
-130.489
0
LINE
8
Black
10
206.054
20
-130.489
11
205.695
21
-130.383
0
LINE
8
Black
10
205.695
20
-130.383
11
205.68
21
-130.375
0
LINE
8
Black
10
205.68
20
-130.375
11
205.665
21
-130.37
0
LINE
8
Black
10
205.665
20
-130.37
11
205.306
21
-130.155
0
LINE
8
Black
10
205.306
20
-130.155
11
205.299
21
-130.148
0
LINE
8
Black
10
205.299
20
-130.148
11
205.29
21
-130.143
0
LINE
8
Black
10
205.29
20
-130.143
11
204.974
21
-129.879
0
LINE
8
Black
10
204.974
20
-129.879
11
204.965
21
-129.868
0
LINE
8
Black
10
204.965
20
-129.868
11
204.954
21
-129.859
0
LINE
8
Black
10
204.954
20
-129.859
11
204.686
21
-129.506
0
LINE
8
Black
10
204.686
20
-129.506
11
204.677
21
-129.487
0
LINE
8
Black
10
204.677
20
-129.487
11
204.667
21
-129.469
0
LINE
8
Black
10
204.667
20
-129.469
11
204.568
21
-129.163
0
LINE
8
Black
10
204.568
20
-129.163
11
204.565
21
-129.143
0
LINE
8
Black
10
204.565
20
-129.143
11
204.561
21
-129.124
0
LINE
8
Black
10
204.561
20
-129.124
11
204.455
21
-100.759
0
LINE
8
Black
10
204.455
20
-100.759
11
204.453
21
-100.749
0
LINE
8
Black
10
204.453
20
-100.749
11
204.441
21
-100.742
0
LINE
8
Black
10
204.441
20
-100.742
11
203.532
21
-100.454
0
LINE
8
Black
10
203.532
20
-100.454
11
203.526
21
-100.451
0
LINE
8
Black
10
203.526
20
-100.451
11
203.519
21
-100.449
0
LINE
8
Black
10
203.519
20
-100.449
11
202.982
21
-100.214
0
LINE
8
Black
10
202.982
20
-100.214
11
202.981
21
-100.213
0
LINE
8
Black
10
202.981
20
-100.213
11
202.602
21
-100.06
0
LINE
8
Black
10
202.602
20
-100.06
11
202.592
21
-100.059
0
LINE
8
Black
10
202.592
20
-100.059
11
202.59
21
-100.067
0
LINE
8
Black
10
202.59
20
-100.067
11
202.459
21
-121.582
0
LINE
8
Black
10
202.459
20
-121.582
11
202.457
21
-121.589
0
LINE
8
Black
10
202.457
20
-121.589
11
202.458
21
-121.597
0
LINE
8
Black
10
202.458
20
-121.597
11
202.452
21
-121.614
0
LINE
8
Black
10
202.452
20
-121.614
11
202.449
21
-121.631
0
LINE
8
Black
10
202.449
20
-121.631
11
202.445
21
-121.637
0
LINE
8
Black
10
202.445
20
-121.637
11
202.442
21
-121.644
0
LINE
8
Black
10
202.442
20
-121.644
11
202.347
21
-121.813
0
LINE
8
Black
10
202.347
20
-121.813
11
202.34
21
-121.822
0
LINE
8
Black
10
202.34
20
-121.822
11
202.334
21
-121.832
0
LINE
8
Black
10
202.334
20
-121.832
11
201.992
21
-122.243
0
LINE
8
Black
10
201.992
20
-122.243
11
201.985
21
-122.249
0
LINE
8
Black
10
201.985
20
-122.249
11
201.979
21
-122.256
0
LINE
8
Black
10
201.979
20
-122.256
11
201.623
21
-122.574
0
LINE
8
Black
10
201.623
20
-122.574
11
201.608
21
-122.583
0
LINE
8
Black
10
201.608
20
-122.583
11
201.594
21
-122.593
0
LINE
8
Black
10
201.594
20
-122.593
11
201.241
21
-122.763
0
LINE
8
Black
10
201.241
20
-122.763
11
201.228
21
-122.766
0
LINE
8
Black
10
201.228
20
-122.766
11
201.216
21
-122.772
0
LINE
8
Black
10
201.216
20
-122.772
11
200.684
21
-122.901
0
LINE
8
Black
10
200.684
20
-122.901
11
200.665
21
-122.902
0
LINE
8
Black
10
200.665
20
-122.902
11
200.646
21
-122.904
0
LINE
8
Black
10
200.646
20
-122.904
11
200.195
21
-122.876
0
LINE
8
Black
10
200.195
20
-122.876
11
200.173
21
-122.871
0
LINE
8
Black
10
200.173
20
-122.871
11
200.151
21
-122.866
0
LINE
8
Black
10
200.151
20
-122.866
11
199.743
21
-122.682
0
LINE
8
Black
10
199.743
20
-122.682
11
199.732
21
-122.675
0
LINE
8
Black
10
199.732
20
-122.675
11
199.72
21
-122.669
0
LINE
8
Black
10
199.72
20
-122.669
11
199.312
21
-122.37
0
LINE
8
Black
10
199.312
20
-122.37
11
199.297
21
-122.354
0
LINE
8
Black
10
199.297
20
-122.354
11
199.281
21
-122.338
0
LINE
8
Black
10
199.281
20
-122.338
11
198.991
21
-121.896
0
LINE
8
Black
10
198.991
20
-121.896
11
198.986
21
-121.883
0
LINE
8
Black
10
198.986
20
-121.883
11
198.979
21
-121.871
0
LINE
8
Black
10
198.979
20
-121.871
11
198.797
21
-121.383
0
LINE
8
Black
10
198.797
20
-121.383
11
198.794
21
-121.366
0
LINE
8
Black
10
198.794
20
-121.366
11
198.789
21
-121.348
0
LINE
8
Black
10
198.789
20
-121.348
11
198.745
21
-120.72
0
LINE
8
Black
10
198.745
20
-120.72
11
198.746
21
-120.716
0
LINE
8
Black
10
198.746
20
-120.716
11
198.745
21
-120.712
0
LINE
8
Black
10
198.745
20
-120.712
11
198.699
21
-97.4268
0
LINE
8
Black
10
198.699
20
-97.4268
11
198.698
21
-97.419
0
LINE
8
Black
10
198.698
20
-97.419
11
198.686
21
-97.404
0
LINE
8
Black
10
198.686
20
-97.404
11
198.298
21
-97.1095
0
LINE
8
Black
10
198.298
20
-97.1095
11
198.298
21
-97.1093
0
LINE
8
Black
10
198.298
20
-97.1093
11
198.298
21
-97.1092
0
LINE
8
Black
10
198.298
20
-97.1092
11
198.147
21
-96.9939
0
LINE
8
Black
10
198.147
20
-96.9939
11
198.143
21
-96.9912
0
LINE
8
Black
10
198.143
20
-96.9912
11
197.541
21
-96.5961
0
LINE
8
Black
10
197.541
20
-96.5961
11
197.507
21
-96.5859
0
LINE
8
Black
10
197.507
20
-96.5859
11
173.931
21
-96.4389
0
LINE
8
Black
10
173.931
20
-96.4389
11
173.929
21
-96.4385
0
LINE
8
Black
10
173.929
20
-96.4385
11
173.927
21
-96.4388
0
LINE
8
Black
10
173.927
20
-96.4388
11
173.905
21
-96.4335
0
LINE
8
Black
10
173.905
20
-96.4335
11
173.882
21
-96.4289
0
LINE
8
Black
10
173.882
20
-96.4289
11
173.881
21
-96.4278
0
LINE
8
Black
10
173.881
20
-96.4278
11
173.879
21
-96.4273
0
LINE
8
Black
10
173.879
20
-96.4273
11
173.118
21
-96.078
0
LINE
8
Black
10
173.118
20
-96.078
11
173.099
21
-96.064
0
LINE
8
Black
10
173.099
20
-96.064
11
173.079
21
-96.0503
0
LINE
8
Black
10
173.079
20
-96.0503
11
172.686
21
-95.6377
0
LINE
8
Black
10
172.686
20
-95.6377
11
172.677
21
-95.624
0
LINE
8
Black
10
172.677
20
-95.624
11
172.666
21
-95.6116
0
LINE
8
Black
10
172.666
20
-95.6116
11
172.475
21
-95.2668
0
LINE
8
Black
10
172.475
20
-95.2668
11
172.47
21
-95.2487
0
LINE
8
Black
10
172.47
20
-95.2487
11
172.462
21
-95.2311
0
LINE
8
Black
10
172.462
20
-95.2311
11
172.363
21
-94.7546
0
LINE
8
Black
10
172.363
20
-94.7546
11
172.363
21
-94.7367
0
LINE
8
Black
10
172.363
20
-94.7367
11
172.361
21
-94.719
0
LINE
8
Black
10
172.361
20
-94.719
11
172.399
21
-94.2256
0
LINE
8
Black
10
172.399
20
-94.2256
11
172.403
21
-94.2093
0
LINE
8
Black
10
172.403
20
-94.2093
11
172.406
21
-94.1926
0
LINE
8
Black
10
172.406
20
-94.1926
11
172.572
21
-93.7265
0
LINE
8
Black
10
172.572
20
-93.7265
11
172.581
21
-93.7123
0
LINE
8
Black
10
172.581
20
-93.7123
11
172.587
21
-93.697
0
LINE
8
Black
10
172.587
20
-93.697
11
172.862
21
-93.2984
0
LINE
8
Black
10
172.862
20
-93.2984
11
172.875
21
-93.2863
0
LINE
8
Black
10
172.875
20
-93.2863
11
172.886
21
-93.2729
0
LINE
8
Black
10
172.886
20
-93.2729
11
173.27
21
-92.9533
0
LINE
8
Black
10
173.27
20
-92.9533
11
173.275
21
-92.9507
0
LINE
8
Black
10
173.275
20
-92.9507
11
173.279
21
-92.9468
0
LINE
8
Black
10
173.279
20
-92.9468
11
173.297
21
-92.9389
0
LINE
8
Black
10
173.297
20
-92.9389
11
173.314
21
-92.9296
0
LINE
8
Black
10
173.314
20
-92.9296
11
173.319
21
-92.9291
0
LINE
8
Black
10
173.319
20
-92.9291
11
173.324
21
-92.9269
0
LINE
8
Black
10
173.324
20
-92.9269
11
174.206
21
-92.7332
0
LINE
8
Black
10
174.206
20
-92.7332
11
174.219
21
-92.7329
0
LINE
8
Black
10
174.219
20
-92.7329
11
174.232
21
-92.7302
0
LINE
8
Black
10
174.232
20
-92.7302
11
195.035
21
-92.5679
0
LINE
8
Black
10
195.035
20
-92.5679
11
195.066
21
-92.559
0
LINE
8
Black
10
195.066
20
-92.559
11
195.092
21
-92.5438
0
LINE
8
Black
10
195.092
20
-92.5438
11
195.1
21
-92.5361
0
LINE
8
Black
10
195.1
20
-92.5361
11
195.1
21
-92.5337
0
LINE
8
Black
10
195.1
20
-92.5337
11
195.099
21
-92.5293
0
LINE
8
Black
10
195.099
20
-92.5293
11
194.785
21
-91.873
0
LINE
8
Black
10
194.785
20
-91.873
11
194.784
21
-91.8662
0
LINE
8
Black
10
194.784
20
-91.8662
11
194.78
21
-91.8601
0
LINE
8
Black
10
194.78
20
-91.8601
11
194.555
21
-91.2135
0
LINE
8
Black
10
194.555
20
-91.2135
11
194.554
21
-91.2113
0
LINE
8
Black
10
194.554
20
-91.2113
11
194.553
21
-91.2093
0
LINE
8
Black
10
194.553
20
-91.2093
11
194.42
21
-90.7816
0
LINE
8
Black
10
194.42
20
-90.7816
11
194.416
21
-90.7728
0
LINE
8
Black
10
194.416
20
-90.7728
11
194.402
21
-90.7694
0
LINE
8
Black
10
194.402
20
-90.7694
11
166.163
21
-90.7085
0
LINE
8
Black
10
166.163
20
-90.7085
11
166.142
21
-90.7044
0
LINE
8
Black
10
166.142
20
-90.7044
11
166.121
21
-90.7015
0
LINE
8
Black
10
166.121
20
-90.7015
11
165.895
21
-90.6233
0
LINE
8
Black
10
165.895
20
-90.6233
11
165.879
21
-90.6137
0
LINE
8
Black
10
165.879
20
-90.6137
11
165.862
21
-90.6056
0
LINE
8
Black
10
165.862
20
-90.6056
11
165.544
21
-90.3717
0
LINE
8
Black
10
165.544
20
-90.3717
11
165.534
21
-90.361
0
LINE
8
Black
10
165.534
20
-90.361
11
165.522
21
-90.352
0
LINE
8
Black
10
165.522
20
-90.352
11
165.139
21
-89.9053
0
LINE
8
Black
10
165.139
20
-89.9053
11
165.136
21
-89.9
0
LINE
8
Black
10
165.136
20
-89.9
11
165.132
21
-89.8959
0
LINE
8
Black
10
165.132
20
-89.8959
11
164.961
21
-89.6536
0
LINE
8
Black
10
164.961
20
-89.6536
11
164.955
21
-89.6403
0
LINE
8
Black
10
164.955
20
-89.6403
11
164.947
21
-89.6282
0
LINE
8
Black
10
164.947
20
-89.6282
11
164.774
21
-89.2024
0
LINE
8
Black
10
164.774
20
-89.2024
11
164.769
21
-89.1785
0
LINE
8
Black
10
164.769
20
-89.1785
11
164.765
21
-89.1546
0
LINE
8
Black
10
164.765
20
-89.1546
11
164.765
21
-88.6385
0
LINE
8
Black
10
164.765
20
-88.6385
11
164.769
21
-88.6163
0
LINE
8
Black
10
164.769
20
-88.6163
11
164.773
21
-88.594
0
LINE
8
Black
10
164.773
20
-88.594
11
164.943
21
-88.1391
0
LINE
8
Black
10
164.943
20
-88.1391
11
164.95
21
-88.1289
0
LINE
8
Black
10
164.95
20
-88.1289
11
164.954
21
-88.1176
0
LINE
8
Black
10
164.954
20
-88.1176
11
165.178
21
-87.7511
0
LINE
8
Black
10
165.178
20
-87.7511
11
165.189
21
-87.7388
0
LINE
8
Black
10
165.189
20
-87.7388
11
165.199
21
-87.725
0
LINE
8
Black
10
165.199
20
-87.725
11
165.545
21
-87.3974
0
LINE
8
Black
10
165.545
20
-87.3974
11
165.565
21
-87.385
0
LINE
8
Black
10
165.565
20
-87.385
11
165.584
21
-87.3721
0
LINE
8
Black
10
165.584
20
-87.3721
11
165.999
21
-87.2023
0
LINE
8
Black
10
165.999
20
-87.2023
11
166.01
21
-87.2002
0
LINE
8
Black
10
166.01
20
-87.2002
11
166.02
21
-87.1959
0
LINE
8
Black
10
166.02
20
-87.1959
11
166.296
21
-87.1351
0
LINE
8
Black
10
166.296
20
-87.1351
11
166.309
21
-87.1348
0
LINE
8
Black
10
166.309
20
-87.1348
11
166.323
21
-87.1321
0
LINE
8
Black
10
166.323
20
-87.1321
11
182.161
21
-87.0611
0
LINE
8
Black
10
182.161
20
-87.0611
11
182.172
21
-87.0588
0
LINE
8
Black
10
182.172
20
-87.0588
11
182.174
21
-87.0495
0
LINE
8
Black
10
182.174
20
-87.0495
11
182.184
21
-85.1332
0
LINE
8
Black
10
182.184
20
-85.1332
11
182.182
21
-85.1224
0
LINE
8
Black
10
182.182
20
-85.1224
11
182.172
21
-85.1205
0
LINE
8
Black
10
182.172
20
-85.1205
11
166.67
21
-85.1256
0
LINE
8
Black
10
166.67
20
-85.1256
11
166.65
21
-85.1217
0
LINE
8
Black
10
166.65
20
-85.1217
11
166.63
21
-85.1193
0
LINE
8
Black
10
166.63
20
-85.1193
11
165.623
21
-84.7901
0
LINE
8
Black
10
165.623
20
-84.7901
11
165.618
21
-84.7869
0
LINE
8
Black
10
165.618
20
-84.7869
11
165.611
21
-84.7855
0
LINE
8
Black
10
165.611
20
-84.7855
11
165.596
21
-84.7748
0
LINE
8
Black
10
165.596
20
-84.7748
11
165.58
21
-84.7658
0
LINE
8
Black
10
165.58
20
-84.7658
11
165.576
21
-84.7607
0
LINE
8
Black
10
165.576
20
-84.7607
11
165.571
21
-84.7569
0
LINE
8
Black
10
165.571
20
-84.7569
11
165.002
21
-84.1602
0
LINE
8
Black
10
165.002
20
-84.1602
11
165.001
21
-84.1581
0
LINE
8
Black
10
165.001
20
-84.1581
11
164.999
21
-84.1566
0
LINE
8
Black
10
164.999
20
-84.1566
11
164.988
21
-84.1372
0
LINE
8
Black
10
164.988
20
-84.1372
11
164.976
21
-84.1183
0
LINE
8
Black
10
164.976
20
-84.1183
11
164.975
21
-84.1159
0
LINE
8
Black
10
164.975
20
-84.1159
11
164.974
21
-84.1137
0
LINE
8
Black
10
164.974
20
-84.1137
11
164.792
21
-83.582
0
LINE
8
Black
10
164.792
20
-83.582
11
164.789
21
-83.5602
0
LINE
8
Black
10
164.789
20
-83.5602
11
164.785
21
-83.5387
0
LINE
8
Black
10
164.785
20
-83.5387
11
164.795
21
-82.9811
0
LINE
8
Black
10
164.795
20
-82.9811
11
164.798
21
-82.9669
0
LINE
8
Black
10
164.798
20
-82.9669
11
164.799
21
-82.9525
0
LINE
8
Black
10
164.799
20
-82.9525
11
164.93
21
-82.4263
0
LINE
8
Black
10
164.93
20
-82.4263
11
164.932
21
-82.4225
0
LINE
8
Black
10
164.932
20
-82.4225
11
164.933
21
-82.4184
0
LINE
8
Black
10
164.933
20
-82.4184
11
164.943
21
-82.4002
0
LINE
8
Black
10
164.943
20
-82.4002
11
164.951
21
-82.3815
0
LINE
8
Black
10
164.951
20
-82.3815
11
164.955
21
-82.3787
0
LINE
8
Black
10
164.955
20
-82.3787
11
164.957
21
-82.375
0
LINE
8
Black
10
164.957
20
-82.375
11
165.371
21
-81.8853
0
LINE
8
Black
10
165.371
20
-81.8853
11
165.387
21
-81.8724
0
LINE
8
Black
10
165.387
20
-81.8724
11
165.403
21
-81.8585
0
LINE
8
Black
10
165.403
20
-81.8585
11
165.978
21
-81.5134
0
LINE
8
Black
10
165.978
20
-81.5134
11
165.996
21
-81.507
0
LINE
8
Black
10
165.996
20
-81.507
11
166.013
21
-81.499
0
LINE
8
Black
10
166.013
20
-81.499
11
166.812
21
-81.3039
0
LINE
8
Black
10
166.812
20
-81.3039
11
166.828
21
-81.3033
0
LINE
8
Black
10
166.828
20
-81.3033
11
166.842
21
-81.3003
0
LINE
8
Black
10
166.842
20
-81.3003
11
194.434
21
-81.3054
0
LINE
8
Black
10
194.434
20
-81.3054
11
194.444
21
-81.3034
0
LINE
8
Black
10
194.444
20
-81.3034
11
194.452
21
-81.2914
0
LINE
8
Black
10
194.452
20
-81.2914
11
194.752
21
-80.3607
0
LINE
8
Black
10
194.752
20
-80.3607
11
194.752
21
-80.3606
0
LINE
8
Black
10
194.752
20
-80.3606
11
194.752
21
-80.3605
0
LINE
8
Black
10
194.752
20
-80.3605
11
194.928
21
-79.8167
0
LINE
8
Black
10
194.928
20
-79.8167
11
194.939
21
-79.7985
0
LINE
8
Black
10
194.939
20
-79.7985
11
194.948
21
-79.7797
0
LINE
8
Black
10
194.948
20
-79.7797
11
195.064
21
-79.6239
0
LINE
8
Black
10
195.064
20
-79.6239
11
195.068
21
-79.6165
0
LINE
8
Black
10
195.068
20
-79.6165
11
195.056
21
-79.6059
0
LINE
8
Black
10
195.056
20
-79.6059
11
194.84
21
-79.498
0
LINE
8
Black
10
194.84
20
-79.498
11
194.814
21
-79.4914
0
LINE
8
Black
10
194.814
20
-79.4914
11
193.366
21
-79.4462
0
LINE
8
Black
10
193.366
20
-79.4462
11
193.364
21
-79.4461
0
LINE
8
Black
10
193.364
20
-79.4461
11
173.555
21
-79.4157
0
LINE
8
Black
10
173.555
20
-79.4157
11
173.535
21
-79.4117
0
LINE
8
Black
10
173.535
20
-79.4117
11
173.515
21
-79.4091
0
LINE
8
Black
10
173.515
20
-79.4091
11
173.511
21
-79.4069
0
LINE
8
Black
10
173.511
20
-79.4069
11
173.506
21
-79.406
0
LINE
8
Black
10
173.506
20
-79.406
11
173.489
21
-79.3946
0
LINE
8
Black
10
173.489
20
-79.3946
11
173.472
21
-79.3845
0
LINE
8
Black
10
173.472
20
-79.3845
11
172.736
21
-78.7441
0
LINE
8
Black
10
172.736
20
-78.7441
11
172.723
21
-78.7272
0
LINE
8
Black
10
172.723
20
-78.7272
11
172.709
21
-78.711
0
LINE
8
Black
10
172.709
20
-78.711
11
172.474
21
-78.2961
0
LINE
8
Black
10
172.474
20
-78.2961
11
172.469
21
-78.2816
0
LINE
8
Black
10
172.469
20
-78.2816
11
172.462
21
-78.2681
0
LINE
8
Black
10
172.462
20
-78.2681
11
172.271
21
-77.5948
0
LINE
8
Black
10
172.271
20
-77.5948
11
172.271
21
-77.5908
0
LINE
8
Black
10
172.271
20
-77.5908
11
172.269
21
-77.5871
0
LINE
8
Black
10
172.269
20
-77.5871
11
172.269
21
-77.5662
0
LINE
8
Black
10
172.269
20
-77.5662
11
172.267
21
-77.5455
0
LINE
8
Black
10
172.267
20
-77.5455
11
172.268
21
-77.5416
0
LINE
8
Black
10
172.268
20
-77.5416
11
172.268
21
-77.5375
0
LINE
8
Black
10
172.268
20
-77.5375
11
172.385
21
-76.8915
0
LINE
8
Black
10
172.385
20
-76.8915
11
172.386
21
-76.8904
0
LINE
8
Black
10
172.386
20
-76.8904
11
172.386
21
-76.8893
0
LINE
8
Black
10
172.386
20
-76.8893
11
172.395
21
-76.8674
0
LINE
8
Black
10
172.395
20
-76.8674
11
172.403
21
-76.8454
0
LINE
8
Black
10
172.403
20
-76.8454
11
172.404
21
-76.8446
0
LINE
8
Black
10
172.404
20
-76.8446
11
172.405
21
-76.8435
0
LINE
8
Black
10
172.405
20
-76.8435
11
172.806
21
-76.244
0
LINE
8
Black
10
172.806
20
-76.244
11
172.808
21
-76.2418
0
LINE
8
Black
10
172.808
20
-76.2418
11
172.809
21
-76.239
0
LINE
8
Black
10
172.809
20
-76.239
11
172.825
21
-76.2243
0
LINE
8
Black
10
172.825
20
-76.2243
11
172.841
21
-76.2089
0
LINE
8
Black
10
172.841
20
-76.2089
11
172.844
21
-76.2078
0
LINE
8
Black
10
172.844
20
-76.2078
11
172.846
21
-76.2057
0
LINE
8
Black
10
172.846
20
-76.2057
11
173.413
21
-75.8655
0
LINE
8
Black
10
173.413
20
-75.8655
11
173.433
21
-75.8584
0
LINE
8
Black
10
173.433
20
-75.8584
11
173.452
21
-75.8502
0
LINE
8
Black
10
173.452
20
-75.8502
11
174.089
21
-75.715
0
LINE
8
Black
10
174.089
20
-75.715
11
174.102
21
-75.7148
0
LINE
8
Black
10
174.102
20
-75.7148
11
174.115
21
-75.7122
0
LINE
8
Black
10
174.115
20
-75.7122
11
197.698
21
-75.5702
0
LINE
8
Black
10
197.698
20
-75.5702
11
197.727
21
-75.5625
0
LINE
8
Black
10
197.727
20
-75.5625
11
197.928
21
-75.4533
0
LINE
8
Black
10
197.928
20
-75.4533
11
197.944
21
-75.4401
0
LINE
8
Black
10
197.944
20
-75.4401
11
198.64
21
-74.6652
0
LINE
8
Black
10
198.64
20
-74.6652
11
198.647
21
-74.6528
0
LINE
8
Black
10
198.647
20
-74.6528
11
198.648
21
-74.6453
0
LINE
8
Black
10
198.648
20
-74.6453
11
198.77
21
-50.9582
0
LINE
8
Black
10
198.77
20
-50.9582
11
198.773
21
-50.9426
0
LINE
8
Black
10
198.773
20
-50.9426
11
198.774
21
-50.9268
0
LINE
8
Black
10
198.774
20
-50.9268
11
198.99
21
-50.0976
0
LINE
8
Black
10
198.99
20
-50.0976
11
198.994
21
-50.089
0
LINE
8
Black
10
198.994
20
-50.089
11
198.996
21
-50.0796
0
LINE
8
Black
10
198.996
20
-50.0796
11
199.005
21
-50.0669
0
LINE
8
Black
10
199.005
20
-50.0669
11
199.012
21
-50.053
0
LINE
8
Black
10
199.012
20
-50.053
11
199.019
21
-50.0466
0
LINE
8
Black
10
199.019
20
-50.0466
11
199.024
21
-50.0387
0
LINE
8
Black
10
199.024
20
-50.0387
11
199.418
21
-49.6544
0
LINE
8
Black
10
199.418
20
-49.6544
11
199.433
21
-49.6446
0
LINE
8
Black
10
199.433
20
-49.6446
11
199.447
21
-49.6332
0
LINE
8
Black
10
199.447
20
-49.6332
11
199.876
21
-49.4041
0
LINE
8
Black
10
199.876
20
-49.4041
11
199.878
21
-49.4034
0
LINE
8
Black
10
199.878
20
-49.4034
11
199.88
21
-49.4019
0
LINE
8
Black
10
199.88
20
-49.4019
11
200.211
21
-49.241
0
LINE
8
Black
10
200.211
20
-49.241
11
200.234
21
-49.2349
0
LINE
8
Black
10
200.234
20
-49.2349
11
200.258
21
-49.2285
0
LINE
8
Black
10
200.258
20
-49.2285
11
200.726
21
-49.1955
0
LINE
8
Black
10
200.726
20
-49.1955
11
200.736
21
-49.1968
0
LINE
8
Black
10
200.736
20
-49.1968
11
200.747
21
-49.1957
0
LINE
8
Black
10
200.747
20
-49.1957
11
201.094
21
-49.2286
0
LINE
8
Black
10
201.094
20
-49.2286
11
201.111
21
-49.2337
0
LINE
8
Black
10
201.111
20
-49.2337
11
201.129
21
-49.2368
0
LINE
8
Black
10
201.129
20
-49.2368
11
201.394
21
-49.3411
0
LINE
8
Black
10
201.394
20
-49.3411
11
201.396
21
-49.3425
0
LINE
8
Black
10
201.396
20
-49.3425
11
201.399
21
-49.343
0
LINE
8
Black
10
201.399
20
-49.343
11
201.6
21
-49.4313
0
LINE
8
Black
10
201.6
20
-49.4313
11
201.604
21
-49.4344
0
LINE
8
Black
10
201.604
20
-49.4344
11
201.61
21
-49.4361
0
LINE
8
Black
10
201.61
20
-49.4361
11
201.716
21
-49.4943
0
LINE
8
Black
10
201.716
20
-49.4943
11
201.717
21
-49.4946
0
LINE
8
Black
10
201.717
20
-49.4946
11
201.717
21
-49.4947
0
LINE
8
Black
10
201.717
20
-49.4947
11
201.976
21
-49.6381
0
LINE
8
Black
10
201.976
20
-49.6381
11
201.979
21
-49.6401
0
LINE
8
Black
10
201.979
20
-49.6401
11
201.982
21
-49.6412
0
LINE
8
Black
10
201.982
20
-49.6412
11
201.997
21
-49.6561
0
LINE
8
Black
10
201.997
20
-49.6561
11
202.014
21
-49.6701
0
LINE
8
Black
10
202.014
20
-49.6701
11
202.015
21
-49.6729
0
LINE
8
Black
10
202.015
20
-49.6729
11
202.018
21
-49.675
0
LINE
8
Black
10
202.018
20
-49.675
11
202.092
21
-49.7776
0
LINE
8
Black
10
202.092
20
-49.7776
11
202.092
21
-49.7791
0
LINE
8
Black
10
202.092
20
-49.7791
11
202.094
21
-49.7803
0
LINE
8
Black
10
202.094
20
-49.7803
11
202.253
21
-50.0146
0
LINE
8
Black
10
202.253
20
-50.0146
11
202.258
21
-50.0205
0
LINE
8
Black
10
202.258
20
-50.0205
11
202.453
21
-50.2462
0
LINE
8
Black
10
202.453
20
-50.2462
11
202.463
21
-50.2637
0
LINE
8
Black
10
202.463
20
-50.2637
11
202.474
21
-50.2804
0
LINE
8
Black
10
202.474
20
-50.2804
11
202.475
21
-50.2851
0
LINE
8
Black
10
202.475
20
-50.2851
11
202.477
21
-50.2893
0
LINE
8
Black
10
202.477
20
-50.2893
11
202.48
21
-50.3092
0
LINE
8
Black
10
202.48
20
-50.3092
11
202.484
21
-50.3289
0
LINE
8
Black
10
202.484
20
-50.3289
11
202.55
21
-72.0318
0
LINE
8
Black
10
202.55
20
-72.0318
11
202.552
21
-72.0421
0
LINE
8
Black
10
202.552
20
-72.0421
11
202.563
21
-72.0491
0
LINE
8
Black
10
202.563
20
-72.0491
11
202.644
21
-72.0761
0
LINE
8
Black
10
202.644
20
-72.0761
11
202.659
21
-72.0779
0
LINE
8
Black
10
202.659
20
-72.0779
11
202.666
21
-72.0762
0
LINE
8
Black
10
202.666
20
-72.0762
11
203.057
21
-71.9127
0
LINE
8
Black
10
203.057
20
-71.9127
11
203.058
21
-71.9122
0
LINE
8
Black
10
203.058
20
-71.9122
11
203.795
21
-71.5842
0
LINE
8
Black
10
203.795
20
-71.5842
11
203.8
21
-71.5832
0
LINE
8
Black
10
203.8
20
-71.5832
11
203.804
21
-71.5807
0
LINE
8
Black
10
203.804
20
-71.5807
11
204.134
21
-71.4625
0
LINE
8
Black
10
204.134
20
-71.4625
11
204.145
21
-71.4571
0
LINE
8
Black
10
204.145
20
-71.4571
11
204.49
21
-71.2485
0
LINE
8
Black
10
204.49
20
-71.2485
11
204.498
21
-71.2404
0
LINE
8
Black
10
204.498
20
-71.2404
11
204.5
21
-71.2362
0
LINE
8
Black
10
204.5
20
-71.2362
11
204.5
21
-71.2347
0
LINE
8
Black
10
204.5
20
-71.2347
11
204.475
21
-42.9157
0
LINE
8
Black
10
204.475
20
-42.9157
11
204.479
21
-42.8973
0
LINE
8
Black
10
204.479
20
-42.8973
11
204.481
21
-42.8786
0
LINE
8
Black
10
204.481
20
-42.8786
11
204.484
21
-42.8732
0
LINE
8
Black
10
204.484
20
-42.8732
11
204.485
21
-42.8671
0
LINE
8
Black
10
204.485
20
-42.8671
11
204.495
21
-42.8515
0
LINE
8
Black
10
204.495
20
-42.8515
11
204.504
21
-42.8349
0
LINE
8
Black
10
204.504
20
-42.8349
11
205.007
21
-42.2236
0
LINE
8
Black
10
205.007
20
-42.2236
11
205.021
21
-42.2123
0
LINE
8
Black
10
205.021
20
-42.2123
11
205.034
21
-42.1995
0
LINE
8
Black
10
205.034
20
-42.1995
11
205.574
21
-41.8301
0
LINE
8
Black
10
205.574
20
-41.8301
11
205.577
21
-41.8285
0
LINE
8
Black
10
205.577
20
-41.8285
11
205.58
21
-41.8258
0
LINE
8
Black
10
205.58
20
-41.8258
11
205.6
21
-41.8188
0
LINE
8
Black
10
205.6
20
-41.8188
11
205.619
21
-41.8106
0
LINE
8
Black
10
205.619
20
-41.8106
11
205.623
21
-41.8106
0
LINE
8
Black
10
205.623
20
-41.8106
11
205.627
21
-41.8092
0
LINE
8
Black
10
205.627
20
-41.8092
11
206.206
21
-41.7245
0
LINE
8
Black
10
206.206
20
-41.7245
11
206.223
21
-41.7254
0
LINE
8
Black
10
206.223
20
-41.7254
11
206.24
21
-41.7242
0
LINE
8
Black
10
206.24
20
-41.7242
11
206.82
21
-41.7961
0
LINE
8
Black
10
206.82
20
-41.7961
11
206.836
21
-41.8016
0
LINE
8
Black
10
206.836
20
-41.8016
11
206.853
21
-41.805
0
LINE
8
Black
10
206.853
20
-41.805
11
207.36
21
-42.0182
0
LINE
8
Black
10
207.36
20
-42.0182
11
207.378
21
-42.0305
0
LINE
8
Black
10
207.378
20
-42.0305
11
207.397
21
-42.0419
0
LINE
8
Black
10
207.397
20
-42.0419
11
207.693
21
-42.3142
0
LINE
8
Black
10
207.693
20
-42.3142
11
207.699
21
-42.3229
0
LINE
8
Black
10
207.699
20
-42.3229
11
207.707
21
-42.33
0
LINE
8
Black
10
207.707
20
-42.33
11
207.992
21
-42.6975
0
LINE
8
Black
10
207.992
20
-42.6975
11
207.994
21
-42.7032
0
LINE
8
Black
10
207.994
20
-42.7032
11
207.999
21
-42.7079
0
LINE
8
Black
10
207.999
20
-42.7079
11
208.078
21
-42.8345
0
LINE
8
Black
10
208.078
20
-42.8345
11
208.082
21
-42.8441
0
LINE
8
Black
10
208.082
20
-42.8441
11
208.087
21
-42.8525
0
LINE
8
Black
10
208.087
20
-42.8525
11
208.09
21
-42.867
0
LINE
8
Black
10
208.09
20
-42.867
11
208.096
21
-42.8809
0
LINE
8
Black
10
208.096
20
-42.8809
11
208.095
21
-42.891
0
LINE
8
Black
10
208.095
20
-42.891
11
208.097
21
-42.901
0
LINE
8
Black
10
208.097
20
-42.901
11
208.265
21
-68.6201
0
LINE
8
Black
10
208.265
20
-68.6201
11
208.265
21
-68.6209
0
LINE
8
Black
10
208.265
20
-68.6209
11
208.285
21
-70.5078
0
LINE
8
Black
10
208.285
20
-70.5078
11
208.287
21
-70.5188
0
LINE
8
Black
10
208.287
20
-70.5188
11
208.297
21
-70.5205
0
LINE
8
Black
10
208.297
20
-70.5205
11
209.979
21
-70.5155
0
LINE
8
Black
10
209.979
20
-70.5155
11
209.99
21
-70.5133
0
LINE
8
Black
10
209.99
20
-70.5133
11
209.992
21
-70.5034
0
LINE
8
Black
10
209.992
20
-70.5034
11
209.972
21
-68.6144
0
LINE
8
Black
10
209.972
20
-68.6144
11
209.972
21
-68.6134
0
LINE
8
Black
10
209.972
20
-68.6134
11
209.972
21
-68.6125
0
LINE
8
Black
10
209.972
20
-68.6125
11
210.083
21
-42.9786
0
LINE
8
Black
10
210.083
20
-42.9786
11
210.085
21
-42.972
0
LINE
8
Black
10
210.085
20
-42.972
11
210.084
21
-42.9652
0
LINE
8
Black
10
210.084
20
-42.9652
11
210.09
21
-42.9479
0
LINE
8
Black
10
210.09
20
-42.9479
11
210.093
21
-42.9301
0
LINE
8
Black
10
210.093
20
-42.9301
11
210.097
21
-42.9245
0
LINE
8
Black
10
210.097
20
-42.9245
11
210.099
21
-42.918
0
LINE
8
Black
10
210.099
20
-42.918
11
210.242
21
-42.6582
0
LINE
8
Black
10
210.242
20
-42.6582
11
210.254
21
-42.6438
0
LINE
8
Black
10
210.254
20
-42.6438
11
210.265
21
-42.6283
0
LINE
8
Black
10
210.265
20
-42.6283
11
210.744
21
-42.1633
0
LINE
8
Black
10
210.744
20
-42.1633
11
210.756
21
-42.1559
0
LINE
8
Black
10
210.756
20
-42.1559
11
210.766
21
-42.1466
0
LINE
8
Black
10
210.766
20
-42.1466
11
211.301
21
-41.8138
0
LINE
8
Black
10
211.301
20
-41.8138
11
211.319
21
-41.8069
0
LINE
8
Black
10
211.319
20
-41.8069
11
211.337
21
-41.7985
0
LINE
8
Black
10
211.337
20
-41.7985
11
211.84
21
-41.6727
0
LINE
8
Black
10
211.84
20
-41.6727
11
211.842
21
-41.6726
0
LINE
8
Black
10
211.842
20
-41.6726
11
211.844
21
-41.6719
0
LINE
8
Black
10
211.844
20
-41.6719
11
211.867
21
-41.6714
0
LINE
8
Black
10
211.867
20
-41.6714
11
211.89
21
-41.6703
0
LINE
8
Black
10
211.89
20
-41.6703
11
211.891
21
-41.6709
  0
ENDSEC
  0
EOF
