G04 #@! TF.GenerationSoftware,KiCad,Pcbnew,(2017-12-24 revision 570866557)-makepkg*
G04 #@! TF.CreationDate,2018-02-26T21:37:48-07:00*
G04 #@! TF.ProjectId,KeyGridTest1,4B65794772696454657374312E6B6963,rev?*
G04 #@! TF.SameCoordinates,Original*
G04 #@! TF.FileFunction,Soldermask,Bot*
G04 #@! TF.FilePolarity,Negative*
%FSLAX46Y46*%
G04 Gerber Fmt 4.6, Leading zero omitted, Abs format (unit mm)*
G04 Created by KiCad (PCBNEW (2017-12-24 revision 570866557)-makepkg) date 02/26/18 21:37:48*
%MOMM*%
%LPD*%
G01*
G04 APERTURE LIST*
%ADD10O,1.600000X2.400000*%
%ADD11C,3.702000*%
%ADD12C,2.686000*%
%ADD13C,4.700000*%
%ADD14R,2.100000X2.100000*%
%ADD15O,2.100000X2.100000*%
%ADD16C,2.398980*%
%ADD17C,2.400000*%
%ADD18C,0.100000*%
G04 APERTURE END LIST*
D10*
X114655600Y-45364400D03*
X114655600Y-70764400D03*
X117195600Y-45364400D03*
X117195600Y-70764400D03*
X119735600Y-45364400D03*
X119735600Y-70764400D03*
X122275600Y-45364400D03*
X122275600Y-70764400D03*
X124815600Y-45364400D03*
X124815600Y-70764400D03*
X127355600Y-45364400D03*
X127355600Y-70764400D03*
X129895600Y-45364400D03*
X129895600Y-70764400D03*
X132435600Y-45364400D03*
X132435600Y-70764400D03*
X134975600Y-45364400D03*
X134975600Y-70764400D03*
X137515600Y-45364400D03*
X137515600Y-70764400D03*
X140055600Y-45364400D03*
X142595600Y-45364400D03*
X145135600Y-45364400D03*
X147675600Y-45364400D03*
X150215600Y-45364400D03*
X152755600Y-45364400D03*
D11*
X181861600Y-46380400D03*
X181861600Y-69748400D03*
X111861600Y-69748400D03*
X111861600Y-46380400D03*
D12*
X120624600Y-74447400D03*
X114274600Y-76987400D03*
X139420600Y-112039400D03*
X133070600Y-114579400D03*
X158216600Y-130835400D03*
X151866600Y-133375400D03*
X177012600Y-130835400D03*
X170662600Y-133375400D03*
X120624600Y-130835400D03*
X114274600Y-133375400D03*
X139420600Y-130835400D03*
X133070600Y-133375400D03*
X158216600Y-112039400D03*
X151866600Y-114579400D03*
X177012600Y-112039400D03*
X170662600Y-114579400D03*
X177012600Y-93243400D03*
X170662600Y-95783400D03*
X139420600Y-93243400D03*
X133070600Y-95783400D03*
X120624600Y-93243400D03*
X114274600Y-95783400D03*
X120624600Y-112039400D03*
X114274600Y-114579400D03*
X139420600Y-74447400D03*
X133070600Y-76987400D03*
X158216600Y-74447400D03*
X151866600Y-76987400D03*
X177012600Y-74447400D03*
X170662600Y-76987400D03*
D13*
X192000000Y-47500000D03*
D14*
X104500000Y-66000000D03*
D15*
X101960000Y-66000000D03*
X99420000Y-66000000D03*
D16*
X118500000Y-59500000D03*
D13*
X192000000Y-140000000D03*
X100000000Y-140000000D03*
X100000000Y-48000000D03*
D14*
X193500000Y-73800000D03*
D15*
X193500000Y-76340000D03*
X193500000Y-78880000D03*
X193500000Y-81420000D03*
X193500000Y-83960000D03*
X193500000Y-86500000D03*
X193500000Y-89040000D03*
X193500000Y-91580000D03*
D14*
X98800000Y-85400000D03*
D15*
X98800000Y-87940000D03*
D17*
X106500000Y-59500000D03*
X101500000Y-57000000D03*
D12*
X151866600Y-95783400D03*
X158216600Y-93243400D03*
D18*
G36*
X124411031Y-95650000D02*
X119912037Y-95650000D01*
X120140298Y-94600000D01*
X123771901Y-94600000D01*
X124411031Y-95650000D01*
X124411031Y-95650000D01*
G37*
X124411031Y-95650000D02*
X119912037Y-95650000D01*
X120140298Y-94600000D01*
X123771901Y-94600000D01*
X124411031Y-95650000D01*
G36*
X125409787Y-97250000D02*
X119659023Y-97250000D01*
X119842357Y-96150000D01*
X124722287Y-96150000D01*
X125409787Y-97250000D01*
X125409787Y-97250000D01*
G37*
X125409787Y-97250000D02*
X119659023Y-97250000D01*
X119842357Y-96150000D01*
X124722287Y-96150000D01*
X125409787Y-97250000D01*
G36*
X126359787Y-98800000D02*
X123126033Y-98800000D01*
X122790962Y-98321327D01*
X122776871Y-98307834D01*
X122758689Y-98300761D01*
X122739185Y-98301184D01*
X122721327Y-98309038D01*
X122707834Y-98323129D01*
X122702109Y-98335633D01*
X122562799Y-98800000D01*
X119361490Y-98800000D01*
X119590657Y-97700000D01*
X125672287Y-97700000D01*
X126359787Y-98800000D01*
X126359787Y-98800000D01*
G37*
X126359787Y-98800000D02*
X123126033Y-98800000D01*
X122790962Y-98321327D01*
X122776871Y-98307834D01*
X122758689Y-98300761D01*
X122739185Y-98301184D01*
X122721327Y-98309038D01*
X122707834Y-98323129D01*
X122702109Y-98335633D01*
X122562799Y-98800000D01*
X119361490Y-98800000D01*
X119590657Y-97700000D01*
X125672287Y-97700000D01*
X126359787Y-98800000D01*
G36*
X122257945Y-100350000D02*
X119059447Y-100350000D01*
X119242055Y-99300000D01*
X122440553Y-99300000D01*
X122257945Y-100350000D01*
X122257945Y-100350000D01*
G37*
X122257945Y-100350000D02*
X119059447Y-100350000D01*
X119242055Y-99300000D01*
X122440553Y-99300000D01*
X122257945Y-100350000D01*
G36*
X127311031Y-100350000D02*
X124078099Y-100350000D01*
X123438969Y-99300000D01*
X126671901Y-99300000D01*
X127311031Y-100350000D01*
X127311031Y-100350000D01*
G37*
X127311031Y-100350000D02*
X124078099Y-100350000D01*
X123438969Y-99300000D01*
X126671901Y-99300000D01*
X127311031Y-100350000D01*
G36*
X128259787Y-101950000D02*
X125077712Y-101950000D01*
X124390212Y-100850000D01*
X127572287Y-100850000D01*
X128259787Y-101950000D01*
X128259787Y-101950000D01*
G37*
X128259787Y-101950000D02*
X125077712Y-101950000D01*
X124390212Y-100850000D01*
X127572287Y-100850000D01*
X128259787Y-101950000D01*
G36*
X121957643Y-101950000D02*
X118761490Y-101950000D01*
X118990657Y-100850000D01*
X122140977Y-100850000D01*
X121957643Y-101950000D01*
X121957643Y-101950000D01*
G37*
X121957643Y-101950000D02*
X118761490Y-101950000D01*
X118990657Y-100850000D01*
X122140977Y-100850000D01*
X121957643Y-101950000D01*
G36*
X129212948Y-103500000D02*
X118461490Y-103500000D01*
X118690657Y-102400000D01*
X128571281Y-102400000D01*
X129212948Y-103500000D01*
X129212948Y-103500000D01*
G37*
X129212948Y-103500000D02*
X118461490Y-103500000D01*
X118690657Y-102400000D01*
X128571281Y-102400000D01*
X129212948Y-103500000D01*
G36*
X130161031Y-105050000D02*
X118162037Y-105050000D01*
X118390298Y-104000000D01*
X129521901Y-104000000D01*
X130161031Y-105050000D01*
X130161031Y-105050000D01*
G37*
X130161031Y-105050000D02*
X118162037Y-105050000D01*
X118390298Y-104000000D01*
X129521901Y-104000000D01*
X130161031Y-105050000D01*
G36*
X121262236Y-105722446D02*
X120946084Y-105550000D01*
X121290977Y-105550000D01*
X121262236Y-105722446D01*
X121262236Y-105722446D01*
G37*
X121262236Y-105722446D02*
X120946084Y-105550000D01*
X121290977Y-105550000D01*
X121262236Y-105722446D01*
G36*
X118529185Y-107345494D02*
X118600000Y-107380902D01*
X118600000Y-107450000D01*
X118603806Y-107469134D01*
X118614645Y-107485355D01*
X118625193Y-107493412D01*
X118974710Y-107693136D01*
X119472067Y-107991550D01*
X119750000Y-108200000D01*
X118761803Y-108200000D01*
X118375149Y-108006673D01*
X118085360Y-107813480D01*
X117842965Y-107474128D01*
X117752393Y-107292984D01*
X117790990Y-107100000D01*
X117939999Y-107100000D01*
X118529185Y-107345494D01*
X118529185Y-107345494D01*
G37*
X118529185Y-107345494D02*
X118600000Y-107380902D01*
X118600000Y-107450000D01*
X118603806Y-107469134D01*
X118614645Y-107485355D01*
X118625193Y-107493412D01*
X118974710Y-107693136D01*
X119472067Y-107991550D01*
X119750000Y-108200000D01*
X118761803Y-108200000D01*
X118375149Y-108006673D01*
X118085360Y-107813480D01*
X117842965Y-107474128D01*
X117752393Y-107292984D01*
X117790990Y-107100000D01*
X117939999Y-107100000D01*
X118529185Y-107345494D01*
G36*
X131111031Y-106600000D02*
X128320710Y-106600000D01*
X128085355Y-106364645D01*
X128080697Y-106360532D01*
X127630697Y-106010532D01*
X127630000Y-106010000D01*
X127439442Y-105867082D01*
X127280901Y-105550000D01*
X130471901Y-105550000D01*
X131111031Y-106600000D01*
X131111031Y-106600000D01*
G37*
X131111031Y-106600000D02*
X128320710Y-106600000D01*
X128085355Y-106364645D01*
X128080697Y-106360532D01*
X127630697Y-106010532D01*
X127630000Y-106010000D01*
X127439442Y-105867082D01*
X127280901Y-105550000D01*
X130471901Y-105550000D01*
X131111031Y-106600000D01*
G36*
X131539093Y-107295671D02*
X130912815Y-108066475D01*
X130779290Y-108200000D01*
X129870710Y-108200000D01*
X129786721Y-108116011D01*
X129487963Y-107767460D01*
X129485355Y-107764645D01*
X129036961Y-107316251D01*
X128856752Y-107100000D01*
X131421690Y-107100000D01*
X131539093Y-107295671D01*
X131539093Y-107295671D01*
G37*
X131539093Y-107295671D02*
X130912815Y-108066475D01*
X130779290Y-108200000D01*
X129870710Y-108200000D01*
X129786721Y-108116011D01*
X129487963Y-107767460D01*
X129485355Y-107764645D01*
X129036961Y-107316251D01*
X128856752Y-107100000D01*
X131421690Y-107100000D01*
X131539093Y-107295671D01*
G36*
X133537963Y-95650000D02*
X130740298Y-95650000D01*
X130512037Y-94600000D01*
X133309702Y-94600000D01*
X133537963Y-95650000D01*
X133537963Y-95650000D01*
G37*
X133537963Y-95650000D02*
X130740298Y-95650000D01*
X130512037Y-94600000D01*
X133309702Y-94600000D01*
X133537963Y-95650000D01*
G36*
X133885961Y-97250000D02*
X131090657Y-97250000D01*
X130861490Y-96150000D01*
X133610961Y-96150000D01*
X133885961Y-97250000D01*
X133885961Y-97250000D01*
G37*
X133885961Y-97250000D02*
X131090657Y-97250000D01*
X130861490Y-96150000D01*
X133610961Y-96150000D01*
X133885961Y-97250000D01*
G36*
X134237963Y-98800000D02*
X131390298Y-98800000D01*
X131162037Y-97750000D01*
X134009702Y-97750000D01*
X134237963Y-98800000D01*
X134237963Y-98800000D01*
G37*
X134237963Y-98800000D02*
X131390298Y-98800000D01*
X131162037Y-97750000D01*
X134009702Y-97750000D01*
X134237963Y-98800000D01*
G36*
X134537963Y-100350000D02*
X131740298Y-100350000D01*
X131512037Y-99300000D01*
X134309702Y-99300000D01*
X134537963Y-100350000D01*
X134537963Y-100350000D01*
G37*
X134537963Y-100350000D02*
X131740298Y-100350000D01*
X131512037Y-99300000D01*
X134309702Y-99300000D01*
X134537963Y-100350000D01*
G36*
X134888510Y-101950000D02*
X132090657Y-101950000D01*
X131861490Y-100850000D01*
X134659343Y-100850000D01*
X134888510Y-101950000D01*
X134888510Y-101950000D01*
G37*
X134888510Y-101950000D02*
X132090657Y-101950000D01*
X131861490Y-100850000D01*
X134659343Y-100850000D01*
X134888510Y-101950000D01*
G36*
X135235961Y-103500000D02*
X132390657Y-103500000D01*
X132161490Y-102400000D01*
X134960961Y-102400000D01*
X135235961Y-103500000D01*
X135235961Y-103500000D01*
G37*
X135235961Y-103500000D02*
X132390657Y-103500000D01*
X132161490Y-102400000D01*
X134960961Y-102400000D01*
X135235961Y-103500000D01*
G36*
X135537963Y-105050000D02*
X132740298Y-105050000D01*
X132512037Y-104000000D01*
X135309702Y-104000000D01*
X135537963Y-105050000D01*
X135537963Y-105050000D01*
G37*
X135537963Y-105050000D02*
X132740298Y-105050000D01*
X132512037Y-104000000D01*
X135309702Y-104000000D01*
X135537963Y-105050000D01*
G36*
X135772338Y-105955269D02*
X135768570Y-105953576D01*
X135518570Y-105853576D01*
X135515811Y-105852566D01*
X134765811Y-105602566D01*
X134758220Y-105600680D01*
X134458220Y-105550680D01*
X134450000Y-105550000D01*
X135661810Y-105550000D01*
X135772338Y-105955269D01*
X135772338Y-105955269D01*
G37*
X135772338Y-105955269D02*
X135768570Y-105953576D01*
X135518570Y-105853576D01*
X135515811Y-105852566D01*
X134765811Y-105602566D01*
X134758220Y-105600680D01*
X134458220Y-105550680D01*
X134450000Y-105550000D01*
X135661810Y-105550000D01*
X135772338Y-105955269D01*
G36*
X133792929Y-105600503D02*
X133784189Y-105602566D01*
X133484189Y-105702566D01*
X133477639Y-105705279D01*
X133277639Y-105805279D01*
X133274275Y-105807125D01*
X133024275Y-105957125D01*
X133014645Y-105964645D01*
X132928435Y-106050855D01*
X132812853Y-105550000D01*
X134150000Y-105550000D01*
X134142929Y-105550503D01*
X133792929Y-105600503D01*
X133792929Y-105600503D01*
G37*
X133792929Y-105600503D02*
X133784189Y-105602566D01*
X133484189Y-105702566D01*
X133477639Y-105705279D01*
X133277639Y-105805279D01*
X133274275Y-105807125D01*
X133024275Y-105957125D01*
X133014645Y-105964645D01*
X132928435Y-106050855D01*
X132812853Y-105550000D01*
X134150000Y-105550000D01*
X134142929Y-105550503D01*
X133792929Y-105600503D01*
G36*
X138102435Y-107631725D02*
X137570710Y-107100000D01*
X138715964Y-107100000D01*
X138102435Y-107631725D01*
X138102435Y-107631725D01*
G37*
X138102435Y-107631725D02*
X137570710Y-107100000D01*
X138715964Y-107100000D01*
X138102435Y-107631725D01*
G36*
X149038510Y-106650000D02*
X144163850Y-106650000D01*
X143925725Y-106507125D01*
X143922361Y-106505279D01*
X143522361Y-106305279D01*
X143517556Y-106303184D01*
X143117556Y-106153184D01*
X143113736Y-106151924D01*
X142763736Y-106051924D01*
X142760847Y-106051191D01*
X142310847Y-105951191D01*
X142303835Y-105950147D01*
X141653835Y-105900147D01*
X141650000Y-105900000D01*
X141350000Y-105900000D01*
X141343798Y-105900386D01*
X140943798Y-105950386D01*
X140939153Y-105951191D01*
X140489153Y-106051191D01*
X140484189Y-106052566D01*
X140034189Y-106202566D01*
X140027639Y-106205279D01*
X139627639Y-106405279D01*
X139622265Y-106408397D01*
X139334861Y-106600000D01*
X137440298Y-106600000D01*
X137212037Y-105550000D01*
X148809343Y-105550000D01*
X149038510Y-106650000D01*
X149038510Y-106650000D01*
G37*
X149038510Y-106650000D02*
X144163850Y-106650000D01*
X143925725Y-106507125D01*
X143922361Y-106505279D01*
X143522361Y-106305279D01*
X143517556Y-106303184D01*
X143117556Y-106153184D01*
X143113736Y-106151924D01*
X142763736Y-106051924D01*
X142760847Y-106051191D01*
X142310847Y-105951191D01*
X142303835Y-105950147D01*
X141653835Y-105900147D01*
X141650000Y-105900000D01*
X141350000Y-105900000D01*
X141343798Y-105900386D01*
X140943798Y-105950386D01*
X140939153Y-105951191D01*
X140489153Y-106051191D01*
X140484189Y-106052566D01*
X140034189Y-106202566D01*
X140027639Y-106205279D01*
X139627639Y-106405279D01*
X139622265Y-106408397D01*
X139334861Y-106600000D01*
X137440298Y-106600000D01*
X137212037Y-105550000D01*
X148809343Y-105550000D01*
X149038510Y-106650000D01*
G36*
X149388510Y-108200000D02*
X146268497Y-108200000D01*
X145932540Y-107912037D01*
X145929409Y-107909563D01*
X145379409Y-107509563D01*
X145379062Y-107509313D01*
X144806024Y-107100000D01*
X149159343Y-107100000D01*
X149388510Y-108200000D01*
X149388510Y-108200000D01*
G37*
X149388510Y-108200000D02*
X146268497Y-108200000D01*
X145932540Y-107912037D01*
X145929409Y-107909563D01*
X145379409Y-107509563D01*
X145379062Y-107509313D01*
X144806024Y-107100000D01*
X149159343Y-107100000D01*
X149388510Y-108200000D01*
G36*
X148268014Y-105050000D02*
X144168942Y-105050000D01*
X142981986Y-104000000D01*
X147081058Y-104000000D01*
X148268014Y-105050000D01*
X148268014Y-105050000D01*
G37*
X148268014Y-105050000D02*
X144168942Y-105050000D01*
X142981986Y-104000000D01*
X147081058Y-104000000D01*
X148268014Y-105050000D01*
G36*
X146522118Y-103500000D02*
X142419549Y-103500000D01*
X141227882Y-102400000D01*
X145330451Y-102400000D01*
X146522118Y-103500000D01*
X146522118Y-103500000D01*
G37*
X146522118Y-103500000D02*
X142419549Y-103500000D01*
X141227882Y-102400000D01*
X145330451Y-102400000D01*
X146522118Y-103500000D01*
G36*
X144770204Y-101901523D02*
X140669343Y-101949769D01*
X139427593Y-100800000D01*
X143530991Y-100800000D01*
X144770204Y-101901523D01*
X144770204Y-101901523D01*
G37*
X144770204Y-101901523D02*
X140669343Y-101949769D01*
X139427593Y-100800000D01*
X143530991Y-100800000D01*
X144770204Y-101901523D01*
G36*
X143064200Y-100350000D02*
X138918942Y-100350000D01*
X137731986Y-99300000D01*
X141831591Y-99300000D01*
X143064200Y-100350000D01*
X143064200Y-100350000D01*
G37*
X143064200Y-100350000D02*
X138918942Y-100350000D01*
X137731986Y-99300000D01*
X141831591Y-99300000D01*
X143064200Y-100350000D01*
G36*
X141272118Y-98800000D02*
X137169549Y-98800000D01*
X135977882Y-97700000D01*
X140080451Y-97700000D01*
X141272118Y-98800000D01*
X141272118Y-98800000D01*
G37*
X141272118Y-98800000D02*
X137169549Y-98800000D01*
X135977882Y-97700000D01*
X140080451Y-97700000D01*
X141272118Y-98800000D01*
G36*
X147038510Y-97250000D02*
X135440657Y-97250000D01*
X135211490Y-96150000D01*
X146809343Y-96150000D01*
X147038510Y-97250000D01*
X147038510Y-97250000D01*
G37*
X147038510Y-97250000D02*
X135440657Y-97250000D01*
X135211490Y-96150000D01*
X146809343Y-96150000D01*
X147038510Y-97250000D01*
G36*
X146735961Y-95700000D02*
X135090657Y-95700000D01*
X134861490Y-94600000D01*
X146460961Y-94600000D01*
X146735961Y-95700000D01*
X146735961Y-95700000D01*
G37*
X146735961Y-95700000D02*
X135090657Y-95700000D01*
X134861490Y-94600000D01*
X146460961Y-94600000D01*
X146735961Y-95700000D01*
G36*
X157330446Y-94696414D02*
X157674710Y-94893136D01*
X157922067Y-95041550D01*
X158115328Y-95186496D01*
X158359876Y-95479953D01*
X158506574Y-95700000D01*
X148089039Y-95700000D01*
X147814039Y-94600000D01*
X156992998Y-94600000D01*
X157330446Y-94696414D01*
X157330446Y-94696414D01*
G37*
X157330446Y-94696414D02*
X157674710Y-94893136D01*
X157922067Y-95041550D01*
X158115328Y-95186496D01*
X158359876Y-95479953D01*
X158506574Y-95700000D01*
X148089039Y-95700000D01*
X147814039Y-94600000D01*
X156992998Y-94600000D01*
X157330446Y-94696414D01*
G36*
X158851569Y-96363551D02*
X158900680Y-96658220D01*
X158901280Y-96661243D01*
X159037147Y-97250000D01*
X148390657Y-97250000D01*
X148161490Y-96150000D01*
X158766148Y-96150000D01*
X158851569Y-96363551D01*
X158851569Y-96363551D01*
G37*
X158851569Y-96363551D02*
X158900680Y-96658220D01*
X158901280Y-96661243D01*
X159037147Y-97250000D01*
X148390657Y-97250000D01*
X148161490Y-96150000D01*
X158766148Y-96150000D01*
X158851569Y-96363551D01*
G36*
X159388510Y-98800000D02*
X156540298Y-98800000D01*
X156311811Y-97748960D01*
X159159488Y-97700694D01*
X159388510Y-98800000D01*
X159388510Y-98800000D01*
G37*
X159388510Y-98800000D02*
X156540298Y-98800000D01*
X156311811Y-97748960D01*
X159159488Y-97700694D01*
X159388510Y-98800000D01*
G36*
X159735961Y-100400000D02*
X156889039Y-100400000D01*
X156614039Y-99300000D01*
X159460961Y-99300000D01*
X159735961Y-100400000D01*
X159735961Y-100400000D01*
G37*
X159735961Y-100400000D02*
X156889039Y-100400000D01*
X156614039Y-99300000D01*
X159460961Y-99300000D01*
X159735961Y-100400000D01*
G36*
X160038510Y-101950000D02*
X157190657Y-101950000D01*
X156961490Y-100850000D01*
X159809343Y-100850000D01*
X160038510Y-101950000D01*
X160038510Y-101950000D01*
G37*
X160038510Y-101950000D02*
X157190657Y-101950000D01*
X156961490Y-100850000D01*
X159809343Y-100850000D01*
X160038510Y-101950000D01*
G36*
X160388510Y-103500000D02*
X157540657Y-103500000D01*
X157311490Y-102400000D01*
X160159343Y-102400000D01*
X160388510Y-103500000D01*
X160388510Y-103500000D01*
G37*
X160388510Y-103500000D02*
X157540657Y-103500000D01*
X157311490Y-102400000D01*
X160159343Y-102400000D01*
X160388510Y-103500000D01*
G36*
X160687963Y-105050000D02*
X157840298Y-105050000D01*
X157612037Y-104000000D01*
X160459702Y-104000000D01*
X160687963Y-105050000D01*
X160687963Y-105050000D01*
G37*
X160687963Y-105050000D02*
X157840298Y-105050000D01*
X157612037Y-104000000D01*
X160459702Y-104000000D01*
X160687963Y-105050000D01*
G36*
X160950612Y-106258013D02*
X160993361Y-106600000D01*
X150390298Y-106600000D01*
X150162037Y-105550000D01*
X160809010Y-105550000D01*
X160950612Y-106258013D01*
X160950612Y-106258013D01*
G37*
X160950612Y-106258013D02*
X160993361Y-106600000D01*
X150390298Y-106600000D01*
X150162037Y-105550000D01*
X160809010Y-105550000D01*
X160950612Y-106258013D01*
G36*
X160853201Y-107381796D02*
X160708907Y-107670383D01*
X160517160Y-107862130D01*
X160325291Y-108006031D01*
X160085691Y-108101872D01*
X159841547Y-108150701D01*
X159496450Y-108200000D01*
X150739039Y-108200000D01*
X150464039Y-107100000D01*
X160933714Y-107100000D01*
X160853201Y-107381796D01*
X160853201Y-107381796D01*
G37*
X160853201Y-107381796D02*
X160708907Y-107670383D01*
X160517160Y-107862130D01*
X160325291Y-108006031D01*
X160085691Y-108101872D01*
X159841547Y-108150701D01*
X159496450Y-108200000D01*
X150739039Y-108200000D01*
X150464039Y-107100000D01*
X160933714Y-107100000D01*
X160853201Y-107381796D01*
G36*
X171938510Y-95700000D02*
X160469371Y-95700000D01*
X160546966Y-95467215D01*
X160644491Y-95223404D01*
X160738859Y-95081851D01*
X160882840Y-94937870D01*
X161076394Y-94792705D01*
X161267451Y-94697176D01*
X161656155Y-94600000D01*
X171709343Y-94600000D01*
X171938510Y-95700000D01*
X171938510Y-95700000D01*
G37*
X171938510Y-95700000D02*
X160469371Y-95700000D01*
X160546966Y-95467215D01*
X160644491Y-95223404D01*
X160738859Y-95081851D01*
X160882840Y-94937870D01*
X161076394Y-94792705D01*
X161267451Y-94697176D01*
X161656155Y-94600000D01*
X171709343Y-94600000D01*
X171938510Y-95700000D01*
G36*
X172285961Y-97250000D02*
X160640990Y-97250000D01*
X160499454Y-96542320D01*
X160455863Y-96150000D01*
X172010961Y-96150000D01*
X172285961Y-97250000D01*
X172285961Y-97250000D01*
G37*
X172285961Y-97250000D02*
X160640990Y-97250000D01*
X160499454Y-96542320D01*
X160455863Y-96150000D01*
X172010961Y-96150000D01*
X172285961Y-97250000D01*
G36*
X172588510Y-98800000D02*
X169788630Y-98800000D01*
X169514434Y-97748915D01*
X172359488Y-97700694D01*
X172588510Y-98800000D01*
X172588510Y-98800000D01*
G37*
X172588510Y-98800000D02*
X169788630Y-98800000D01*
X169514434Y-97748915D01*
X172359488Y-97700694D01*
X172588510Y-98800000D01*
G36*
X172937963Y-100350000D02*
X170090298Y-100350000D01*
X169862037Y-99300000D01*
X172709702Y-99300000D01*
X172937963Y-100350000D01*
X172937963Y-100350000D01*
G37*
X172937963Y-100350000D02*
X170090298Y-100350000D01*
X169862037Y-99300000D01*
X172709702Y-99300000D01*
X172937963Y-100350000D01*
G36*
X173288510Y-101950000D02*
X170440657Y-101950000D01*
X170211490Y-100850000D01*
X173059343Y-100850000D01*
X173288510Y-101950000D01*
X173288510Y-101950000D01*
G37*
X173288510Y-101950000D02*
X170440657Y-101950000D01*
X170211490Y-100850000D01*
X173059343Y-100850000D01*
X173288510Y-101950000D01*
G36*
X173588510Y-103500000D02*
X170740657Y-103500000D01*
X170511490Y-102400000D01*
X173359343Y-102400000D01*
X173588510Y-103500000D01*
X173588510Y-103500000D01*
G37*
X173588510Y-103500000D02*
X170740657Y-103500000D01*
X170511490Y-102400000D01*
X173359343Y-102400000D01*
X173588510Y-103500000D01*
G36*
X173938510Y-105050000D02*
X171042055Y-105050000D01*
X170859273Y-103999003D01*
X173709488Y-103950694D01*
X173938510Y-105050000D01*
X173938510Y-105050000D01*
G37*
X173938510Y-105050000D02*
X171042055Y-105050000D01*
X170859273Y-103999003D01*
X173709488Y-103950694D01*
X173938510Y-105050000D01*
G36*
X174287963Y-106600000D02*
X162686929Y-106600000D01*
X162498533Y-105987714D01*
X162410990Y-105550000D01*
X174059702Y-105550000D01*
X174287963Y-106600000D01*
X174287963Y-106600000D01*
G37*
X174287963Y-106600000D02*
X162686929Y-106600000D01*
X162498533Y-105987714D01*
X162410990Y-105550000D01*
X174059702Y-105550000D01*
X174287963Y-106600000D01*
G36*
X174588510Y-108200000D02*
X164952495Y-108200000D01*
X164460521Y-108150803D01*
X163872166Y-107954684D01*
X163579535Y-107759597D01*
X163333395Y-107562685D01*
X163039710Y-107269000D01*
X162938310Y-107100000D01*
X174359343Y-107100000D01*
X174588510Y-108200000D01*
X174588510Y-108200000D01*
G37*
X174588510Y-108200000D02*
X164952495Y-108200000D01*
X164460521Y-108150803D01*
X163872166Y-107954684D01*
X163579535Y-107759597D01*
X163333395Y-107562685D01*
X163039710Y-107269000D01*
X162938310Y-107100000D01*
X174359343Y-107100000D01*
X174588510Y-108200000D01*
G36*
X165137604Y-105001068D02*
X162340146Y-105049300D01*
X162112037Y-104000000D01*
X164910088Y-104000000D01*
X165137604Y-105001068D01*
X165137604Y-105001068D01*
G37*
X165137604Y-105001068D02*
X162340146Y-105049300D01*
X162112037Y-104000000D01*
X164910088Y-104000000D01*
X165137604Y-105001068D01*
G36*
X164788510Y-103500000D02*
X161990657Y-103500000D01*
X161761490Y-102400000D01*
X164559343Y-102400000D01*
X164788510Y-103500000D01*
X164788510Y-103500000D01*
G37*
X164788510Y-103500000D02*
X161990657Y-103500000D01*
X161761490Y-102400000D01*
X164559343Y-102400000D01*
X164788510Y-103500000D01*
G36*
X164488510Y-101950000D02*
X161640657Y-101950000D01*
X161411490Y-100850000D01*
X164259343Y-100850000D01*
X164488510Y-101950000D01*
X164488510Y-101950000D01*
G37*
X164488510Y-101950000D02*
X161640657Y-101950000D01*
X161411490Y-100850000D01*
X164259343Y-100850000D01*
X164488510Y-101950000D01*
G36*
X164137963Y-100350000D02*
X161290298Y-100350000D01*
X161062037Y-99300000D01*
X163909702Y-99300000D01*
X164137963Y-100350000D01*
X164137963Y-100350000D01*
G37*
X164137963Y-100350000D02*
X161290298Y-100350000D01*
X161062037Y-99300000D01*
X163909702Y-99300000D01*
X164137963Y-100350000D01*
G36*
X163787963Y-98800000D02*
X160940298Y-98800000D01*
X160712037Y-97750000D01*
X163559702Y-97750000D01*
X163787963Y-98800000D01*
X163787963Y-98800000D01*
G37*
X163787963Y-98800000D02*
X160940298Y-98800000D01*
X160712037Y-97750000D01*
X163559702Y-97750000D01*
X163787963Y-98800000D01*
M02*
