G04 #@! TF.GenerationSoftware,KiCad,Pcbnew,(2017-12-24 revision 570866557)-makepkg*
G04 #@! TF.CreationDate,2018-02-26T21:37:48-07:00*
G04 #@! TF.ProjectId,KeyGridTest1,4B65794772696454657374312E6B6963,rev?*
G04 #@! TF.SameCoordinates,Original*
G04 #@! TF.FileFunction,Copper,L1,Top,Signal*
G04 #@! TF.FilePolarity,Positive*
%FSLAX46Y46*%
G04 Gerber Fmt 4.6, Leading zero omitted, Abs format (unit mm)*
G04 Created by KiCad (PCBNEW (2017-12-24 revision 570866557)-makepkg) date 02/26/18 21:37:48*
%MOMM*%
%LPD*%
G01*
G04 APERTURE LIST*
%ADD10O,1.200000X2.000000*%
%ADD11C,2.286000*%
%ADD12R,1.200000X0.900000*%
%ADD13R,3.000000X0.850000*%
%ADD14R,4.000000X0.850000*%
%ADD15R,1.250000X1.500000*%
%ADD16R,1.700000X1.700000*%
%ADD17O,1.700000X1.700000*%
%ADD18C,1.998980*%
%ADD19C,2.000000*%
%ADD20R,0.900000X1.200000*%
%ADD21C,0.600000*%
%ADD22C,0.508000*%
%ADD23C,1.270000*%
%ADD24C,0.254000*%
%ADD25C,0.250000*%
G04 APERTURE END LIST*
D10*
X114655600Y-45364400D03*
X114655600Y-70764400D03*
X117195600Y-45364400D03*
X117195600Y-70764400D03*
X119735600Y-45364400D03*
X119735600Y-70764400D03*
X122275600Y-45364400D03*
X122275600Y-70764400D03*
X124815600Y-45364400D03*
X124815600Y-70764400D03*
X127355600Y-45364400D03*
X127355600Y-70764400D03*
X129895600Y-45364400D03*
X129895600Y-70764400D03*
X132435600Y-45364400D03*
X132435600Y-70764400D03*
X134975600Y-45364400D03*
X134975600Y-70764400D03*
X137515600Y-45364400D03*
X137515600Y-70764400D03*
X140055600Y-45364400D03*
X142595600Y-45364400D03*
X145135600Y-45364400D03*
X147675600Y-45364400D03*
X150215600Y-45364400D03*
X152755600Y-45364400D03*
D11*
X120624600Y-74447400D03*
X114274600Y-76987400D03*
X139420600Y-112039400D03*
X133070600Y-114579400D03*
D12*
X147548600Y-136549400D03*
X147548600Y-133249400D03*
X166344600Y-136549400D03*
X166344600Y-133249400D03*
X109956600Y-136549400D03*
X109956600Y-133249400D03*
X128752600Y-136549400D03*
X128752600Y-133249400D03*
X166090600Y-117753400D03*
X166090600Y-114453400D03*
X147294600Y-117753400D03*
X147294600Y-114453400D03*
X147294600Y-98957400D03*
X147294600Y-95657400D03*
X166090600Y-98957400D03*
X166090600Y-95657400D03*
X128498600Y-117753400D03*
X128498600Y-114453400D03*
X128498600Y-98957400D03*
X128498600Y-95657400D03*
X109702600Y-98957400D03*
X109702600Y-95657400D03*
X109702600Y-117753400D03*
X109702600Y-114453400D03*
X109702600Y-80098199D03*
X109702600Y-76798199D03*
X128498600Y-80098199D03*
X128498600Y-76798199D03*
X147294600Y-80098199D03*
X147294600Y-76798199D03*
X166090600Y-80098199D03*
X166090600Y-76798199D03*
D11*
X158216600Y-130835400D03*
X151866600Y-133375400D03*
X177012600Y-130835400D03*
X170662600Y-133375400D03*
X120624600Y-130835400D03*
X114274600Y-133375400D03*
X139420600Y-130835400D03*
X133070600Y-133375400D03*
X158216600Y-112039400D03*
X151866600Y-114579400D03*
X177012600Y-112039400D03*
X170662600Y-114579400D03*
X177012600Y-93243400D03*
X170662600Y-95783400D03*
X139420600Y-93243400D03*
X133070600Y-95783400D03*
X120624600Y-93243400D03*
X114274600Y-95783400D03*
X120624600Y-112039400D03*
X114274600Y-114579400D03*
X139420600Y-74447400D03*
X133070600Y-76987400D03*
X158216600Y-74447400D03*
X151866600Y-76987400D03*
X177012600Y-74447400D03*
X170662600Y-76987400D03*
D13*
X152922600Y-140882400D03*
D14*
X153422600Y-142632400D03*
D13*
X157922600Y-142632400D03*
D14*
X157422600Y-140882400D03*
D15*
X147548600Y-139491400D03*
X147548600Y-141991400D03*
X166344600Y-139491400D03*
X166344600Y-141991400D03*
D13*
X171972600Y-140882400D03*
D14*
X172472600Y-142632400D03*
D13*
X176972600Y-142632400D03*
D14*
X176472600Y-140882400D03*
D15*
X128752600Y-139491400D03*
X128752600Y-141991400D03*
X109956600Y-139491400D03*
X109956600Y-141991400D03*
D13*
X115584600Y-140882400D03*
D14*
X116084600Y-142632400D03*
D13*
X120584600Y-142632400D03*
D14*
X120084600Y-140882400D03*
D13*
X134380600Y-140882400D03*
D14*
X134880600Y-142632400D03*
D13*
X139380600Y-142632400D03*
D14*
X138880600Y-140882400D03*
D13*
X152922600Y-103290400D03*
D14*
X153422600Y-105040400D03*
D13*
X157922600Y-105040400D03*
D14*
X157422600Y-103290400D03*
D13*
X152922600Y-122086400D03*
D14*
X153422600Y-123836400D03*
D13*
X157922600Y-123836400D03*
D14*
X157422600Y-122086400D03*
D13*
X171972600Y-103290400D03*
D14*
X172472600Y-105040400D03*
D13*
X176972600Y-105040400D03*
D14*
X176472600Y-103290400D03*
D13*
X171972600Y-122086400D03*
D14*
X172472600Y-123836400D03*
D13*
X176972600Y-123836400D03*
D14*
X176472600Y-122086400D03*
D13*
X115584600Y-122086400D03*
D14*
X116084600Y-123836400D03*
D13*
X120584600Y-123836400D03*
D14*
X120084600Y-122086400D03*
D15*
X128752600Y-120695400D03*
X128752600Y-123195400D03*
D13*
X134380600Y-122086400D03*
D14*
X134880600Y-123836400D03*
D13*
X139380600Y-123836400D03*
D14*
X138880600Y-122086400D03*
D13*
X115584600Y-103290400D03*
D14*
X116084600Y-105040400D03*
D13*
X120584600Y-105040400D03*
D14*
X120084600Y-103290400D03*
D15*
X128752600Y-101899400D03*
X128752600Y-104399400D03*
D13*
X134380600Y-103290400D03*
D14*
X134880600Y-105040400D03*
D13*
X139380600Y-105040400D03*
D14*
X138880600Y-103290400D03*
D15*
X147548600Y-101899400D03*
X147548600Y-104399400D03*
X166344600Y-101899400D03*
X166344600Y-104399400D03*
X166344600Y-120695400D03*
X166344600Y-123195400D03*
X147548600Y-120695400D03*
X147548600Y-123195400D03*
X109956600Y-101899400D03*
X109956600Y-104399400D03*
X109956600Y-120695400D03*
X109956600Y-123195400D03*
X109956600Y-83103400D03*
X109956600Y-85603400D03*
X128752600Y-83103400D03*
X128752600Y-85603400D03*
X147548600Y-83103400D03*
X147548600Y-85603400D03*
X166344600Y-83103400D03*
X166344600Y-85603400D03*
D16*
X104500000Y-66000000D03*
D17*
X101960000Y-66000000D03*
X99420000Y-66000000D03*
D13*
X115584600Y-84494400D03*
D14*
X116084600Y-86244400D03*
D13*
X120584600Y-86244400D03*
D14*
X120084600Y-84494400D03*
D13*
X134380600Y-84494400D03*
D14*
X134880600Y-86244400D03*
D13*
X139380600Y-86244400D03*
D14*
X138880600Y-84494400D03*
D13*
X152922600Y-84494400D03*
D14*
X153422600Y-86244400D03*
D13*
X157922600Y-86244400D03*
D14*
X157422600Y-84494400D03*
D13*
X171972600Y-84494400D03*
D14*
X172472600Y-86244400D03*
D13*
X176972600Y-86244400D03*
D14*
X176472600Y-84494400D03*
D18*
X118500000Y-59500000D03*
D16*
X193500000Y-73800000D03*
D17*
X193500000Y-76340000D03*
X193500000Y-78880000D03*
X193500000Y-81420000D03*
X193500000Y-83960000D03*
X193500000Y-86500000D03*
X193500000Y-89040000D03*
X193500000Y-91580000D03*
D16*
X98800000Y-85400000D03*
D17*
X98800000Y-87940000D03*
D19*
X106500000Y-59500000D03*
X101500000Y-57000000D03*
D11*
X151866600Y-95783400D03*
X158216600Y-93243400D03*
D20*
X104475000Y-62950000D03*
X101175000Y-62950000D03*
D21*
X169800000Y-142600000D03*
X165000000Y-142000000D03*
X150800000Y-142600000D03*
X146400000Y-142000000D03*
X132300000Y-142600000D03*
X127600000Y-142000000D03*
X113500000Y-142600000D03*
X108800000Y-142000000D03*
X113500000Y-123800000D03*
X127500000Y-123200000D03*
X132300000Y-123800000D03*
X146300000Y-123200000D03*
X150800000Y-123800000D03*
X165100000Y-123200000D03*
X169800000Y-123800000D03*
X169800000Y-105000000D03*
X165000000Y-104400000D03*
X150700000Y-105000000D03*
X146300000Y-104400000D03*
X132200000Y-105000000D03*
X127400000Y-104400000D03*
X113500000Y-105000000D03*
X112200000Y-103400000D03*
X169800000Y-86200000D03*
X165000000Y-85600000D03*
X150800000Y-86200000D03*
X146200000Y-85600000D03*
X132200000Y-86200000D03*
X127300000Y-85600000D03*
X113400000Y-86200000D03*
X112200000Y-84600000D03*
X104400000Y-106900000D03*
X104400000Y-92300000D03*
X105000000Y-126400000D03*
X105000000Y-111800000D03*
X113500000Y-140900000D03*
X107100000Y-137700000D03*
X109956600Y-124815600D03*
X104000000Y-87600000D03*
X98800000Y-91600000D03*
X179800000Y-141400000D03*
X104600000Y-73800000D03*
X106730800Y-80060800D03*
X107442000Y-98983800D03*
X108204000Y-117754400D03*
X108940600Y-134800000D03*
X160500000Y-100450000D03*
D22*
X166344600Y-139491400D02*
X175081600Y-139491400D01*
X175081600Y-139491400D02*
X176472600Y-140882400D01*
X157422600Y-140882400D02*
X164953600Y-140882400D01*
X164953600Y-140882400D02*
X166344600Y-139491400D01*
X147548600Y-139491400D02*
X156031600Y-139491400D01*
X156031600Y-139491400D02*
X157422600Y-140882400D01*
X138880600Y-140882400D02*
X146157600Y-140882400D01*
X146157600Y-140882400D02*
X147548600Y-139491400D01*
X128752600Y-139491400D02*
X137489600Y-139491400D01*
X137489600Y-139491400D02*
X138880600Y-140882400D01*
X120084600Y-140882400D02*
X127361600Y-140882400D01*
X127361600Y-140882400D02*
X128752600Y-139491400D01*
X109956600Y-139491400D02*
X118693600Y-139491400D01*
X118693600Y-139491400D02*
X120084600Y-140882400D01*
X166344600Y-120695400D02*
X175081600Y-120695400D01*
X175081600Y-120695400D02*
X176472600Y-122086400D01*
X157422600Y-122086400D02*
X164953600Y-122086400D01*
X164953600Y-122086400D02*
X166344600Y-120695400D01*
X147548600Y-120695400D02*
X156031600Y-120695400D01*
X156031600Y-120695400D02*
X157422600Y-122086400D01*
X138880600Y-122086400D02*
X146157600Y-122086400D01*
X146157600Y-122086400D02*
X147548600Y-120695400D01*
X128752600Y-120695400D02*
X137489600Y-120695400D01*
X137489600Y-120695400D02*
X138880600Y-122086400D01*
X120084600Y-122086400D02*
X127361600Y-122086400D01*
X127361600Y-122086400D02*
X128752600Y-120695400D01*
X109956600Y-120695400D02*
X118693600Y-120695400D01*
X118693600Y-120695400D02*
X120084600Y-122086400D01*
X166344600Y-101899400D02*
X175081600Y-101899400D01*
X175081600Y-101899400D02*
X176472600Y-103290400D01*
X157422600Y-103290400D02*
X164953600Y-103290400D01*
X164953600Y-103290400D02*
X166344600Y-101899400D01*
X147548600Y-101899400D02*
X156031600Y-101899400D01*
X156031600Y-101899400D02*
X157422600Y-103290400D01*
X138880600Y-103290400D02*
X146157600Y-103290400D01*
X146157600Y-103290400D02*
X147548600Y-101899400D01*
X128752600Y-101899400D02*
X137489600Y-101899400D01*
X137489600Y-101899400D02*
X138880600Y-103290400D01*
X120084600Y-103290400D02*
X127361600Y-103290400D01*
X127361600Y-103290400D02*
X128752600Y-101899400D01*
X109956600Y-101899400D02*
X118693600Y-101899400D01*
X118693600Y-101899400D02*
X120084600Y-103290400D01*
X166344600Y-83103400D02*
X175081600Y-83103400D01*
X175081600Y-83103400D02*
X176472600Y-84494400D01*
X157422600Y-84494400D02*
X164953600Y-84494400D01*
X164953600Y-84494400D02*
X166344600Y-83103400D01*
X147548600Y-83103400D02*
X156031600Y-83103400D01*
X156031600Y-83103400D02*
X157422600Y-84494400D01*
X138880600Y-84494400D02*
X146157600Y-84494400D01*
X146157600Y-84494400D02*
X147548600Y-83103400D01*
X128752600Y-83103400D02*
X137489600Y-83103400D01*
X137489600Y-83103400D02*
X138880600Y-84494400D01*
X120084600Y-84494400D02*
X127361600Y-84494400D01*
X127361600Y-84494400D02*
X128752600Y-83103400D01*
X109956600Y-83103400D02*
X118693600Y-83103400D01*
X118693600Y-83103400D02*
X120084600Y-84494400D01*
D23*
X101960000Y-66000000D02*
X101960000Y-81030400D01*
X101960000Y-81030400D02*
X102463600Y-81534000D01*
D22*
X106500000Y-59500000D02*
X106500000Y-60925000D01*
X106500000Y-60925000D02*
X104475000Y-62950000D01*
X111296600Y-85603400D02*
X111296600Y-85503400D01*
X111296600Y-85503400D02*
X112200000Y-84600000D01*
X111299400Y-104399400D02*
X111299400Y-104300600D01*
X111299400Y-104300600D02*
X112200000Y-103400000D01*
X169832400Y-142632400D02*
X169800000Y-142600000D01*
X172472600Y-142632400D02*
X169832400Y-142632400D01*
X165008600Y-141991400D02*
X165000000Y-142000000D01*
X166344600Y-141991400D02*
X165008600Y-141991400D01*
X150832400Y-142632400D02*
X150800000Y-142600000D01*
X153422600Y-142632400D02*
X150832400Y-142632400D01*
X146408600Y-141991400D02*
X146400000Y-142000000D01*
X147548600Y-141991400D02*
X146408600Y-141991400D01*
X132332400Y-142632400D02*
X132300000Y-142600000D01*
X134880600Y-142632400D02*
X132332400Y-142632400D01*
X127608600Y-141991400D02*
X127600000Y-142000000D01*
X128752600Y-141991400D02*
X127608600Y-141991400D01*
X113532400Y-142632400D02*
X113500000Y-142600000D01*
X116084600Y-142632400D02*
X113532400Y-142632400D01*
X108808600Y-141991400D02*
X108800000Y-142000000D01*
X109956600Y-141991400D02*
X108808600Y-141991400D01*
X113536400Y-123836400D02*
X113500000Y-123800000D01*
X116084600Y-123836400D02*
X113536400Y-123836400D01*
X127504600Y-123195400D02*
X127500000Y-123200000D01*
X128752600Y-123195400D02*
X127504600Y-123195400D01*
X132336400Y-123836400D02*
X132300000Y-123800000D01*
X134880600Y-123836400D02*
X132336400Y-123836400D01*
X146304600Y-123195400D02*
X146300000Y-123200000D01*
X147548600Y-123195400D02*
X146304600Y-123195400D01*
X150836400Y-123836400D02*
X150800000Y-123800000D01*
X153422600Y-123836400D02*
X150836400Y-123836400D01*
X165104600Y-123195400D02*
X165100000Y-123200000D01*
X166344600Y-123195400D02*
X165104600Y-123195400D01*
X169836400Y-123836400D02*
X169800000Y-123800000D01*
X172472600Y-123836400D02*
X169836400Y-123836400D01*
X169840400Y-105040400D02*
X169800000Y-105000000D01*
X172472600Y-105040400D02*
X169840400Y-105040400D01*
X165000600Y-104399400D02*
X165000000Y-104400000D01*
X166344600Y-104399400D02*
X165000600Y-104399400D01*
X150740400Y-105040400D02*
X150700000Y-105000000D01*
X153422600Y-105040400D02*
X150740400Y-105040400D01*
X146300600Y-104399400D02*
X146300000Y-104400000D01*
X147548600Y-104399400D02*
X146300600Y-104399400D01*
X132240400Y-105040400D02*
X132200000Y-105000000D01*
X134880600Y-105040400D02*
X132240400Y-105040400D01*
X127400600Y-104399400D02*
X127400000Y-104400000D01*
X128752600Y-104399400D02*
X127400600Y-104399400D01*
X113540400Y-105040400D02*
X113500000Y-105000000D01*
X116084600Y-105040400D02*
X113540400Y-105040400D01*
X111299400Y-104399400D02*
X111300000Y-104400000D01*
X109956600Y-104399400D02*
X111299400Y-104399400D01*
X169844400Y-86244400D02*
X169800000Y-86200000D01*
X172472600Y-86244400D02*
X169844400Y-86244400D01*
X165003400Y-85603400D02*
X165000000Y-85600000D01*
X166344600Y-85603400D02*
X165003400Y-85603400D01*
X150844400Y-86244400D02*
X150800000Y-86200000D01*
X153422600Y-86244400D02*
X150844400Y-86244400D01*
X146203400Y-85603400D02*
X146200000Y-85600000D01*
X147548600Y-85603400D02*
X146203400Y-85603400D01*
X132244400Y-86244400D02*
X132200000Y-86200000D01*
X134880600Y-86244400D02*
X132244400Y-86244400D01*
X127303400Y-85603400D02*
X127300000Y-85600000D01*
X128752600Y-85603400D02*
X127303400Y-85603400D01*
X113444400Y-86244400D02*
X113400000Y-86200000D01*
X116084600Y-86244400D02*
X113444400Y-86244400D01*
X111296600Y-85603400D02*
X111300000Y-85600000D01*
X109956600Y-85603400D02*
X111296600Y-85603400D01*
D24*
X185700000Y-82500000D02*
X187160000Y-83960000D01*
X187160000Y-83960000D02*
X193500000Y-83960000D01*
X169200000Y-82500000D02*
X185700000Y-82500000D01*
X166798199Y-80098199D02*
X169200000Y-82500000D01*
X166090600Y-80098199D02*
X166798199Y-80098199D01*
X178700000Y-90400000D02*
X182600000Y-86500000D01*
X182600000Y-86500000D02*
X193500000Y-86500000D01*
X167900000Y-90400000D02*
X178700000Y-90400000D01*
X164600000Y-93700000D02*
X167900000Y-90400000D01*
X164600000Y-97200000D02*
X164600000Y-93700000D01*
X166090600Y-98690600D02*
X164600000Y-97200000D01*
X166090600Y-98957400D02*
X166090600Y-98690600D01*
X109956600Y-136549400D02*
X109956600Y-135816000D01*
X109956600Y-135816000D02*
X108940600Y-134800000D01*
X186100000Y-95000000D02*
X189520000Y-91580000D01*
X189520000Y-91580000D02*
X193500000Y-91580000D01*
X186100000Y-119000000D02*
X186100000Y-95000000D01*
X176800000Y-128300000D02*
X186100000Y-119000000D01*
X167800000Y-128300000D02*
X176800000Y-128300000D01*
X164900000Y-131200000D02*
X167800000Y-128300000D01*
X164900000Y-135300000D02*
X164900000Y-131200000D01*
X166149400Y-136549400D02*
X164900000Y-135300000D01*
X166344600Y-136549400D02*
X166149400Y-136549400D01*
D23*
X99420000Y-62875000D02*
X99420000Y-59080000D01*
X99420000Y-66000000D02*
X99420000Y-62875000D01*
D22*
X101175000Y-62950000D02*
X99495000Y-62950000D01*
X99495000Y-62950000D02*
X99420000Y-62875000D01*
D24*
X129900000Y-87100000D02*
X132505600Y-84494400D01*
X132505600Y-84494400D02*
X134380600Y-84494400D01*
X127600000Y-87100000D02*
X129900000Y-87100000D01*
X126744400Y-86244400D02*
X127600000Y-87100000D01*
X120584600Y-86244400D02*
X126744400Y-86244400D01*
X129800000Y-106100000D02*
X132609600Y-103290400D01*
X132609600Y-103290400D02*
X134380600Y-103290400D01*
X127900000Y-106100000D02*
X129800000Y-106100000D01*
X126840400Y-105040400D02*
X127900000Y-106100000D01*
X120584600Y-105040400D02*
X126840400Y-105040400D01*
X110000000Y-106900000D02*
X113609600Y-103290400D01*
X113609600Y-103290400D02*
X115584600Y-103290400D01*
X104400000Y-106900000D02*
X110000000Y-106900000D01*
X104400000Y-92200000D02*
X104400000Y-92300000D01*
X107700000Y-88900000D02*
X104400000Y-92200000D01*
X174900000Y-88900000D02*
X107700000Y-88900000D01*
X176972600Y-86827400D02*
X174900000Y-88900000D01*
X176972600Y-86244400D02*
X176972600Y-86827400D01*
X129500000Y-124800000D02*
X132213600Y-122086400D01*
X132213600Y-122086400D02*
X134380600Y-122086400D01*
X128100000Y-124800000D02*
X129500000Y-124800000D01*
X127136400Y-123836400D02*
X128100000Y-124800000D01*
X120584600Y-123836400D02*
X127136400Y-123836400D01*
X112100000Y-123000000D02*
X113013600Y-122086400D01*
X113013600Y-122086400D02*
X115584600Y-122086400D01*
X112100000Y-124100000D02*
X112100000Y-123000000D01*
X109800000Y-126400000D02*
X112100000Y-124100000D01*
X105000000Y-126400000D02*
X109800000Y-126400000D01*
X108700000Y-108100000D02*
X105000000Y-111800000D01*
X174400000Y-108100000D02*
X108700000Y-108100000D01*
X176972600Y-105527400D02*
X174400000Y-108100000D01*
X176972600Y-105040400D02*
X176972600Y-105527400D01*
X129600000Y-143200000D02*
X131917600Y-140882400D01*
X131917600Y-140882400D02*
X134380600Y-140882400D01*
X127900000Y-143200000D02*
X129600000Y-143200000D01*
X127332400Y-142632400D02*
X127900000Y-143200000D01*
X120584600Y-142632400D02*
X127332400Y-142632400D01*
X113517600Y-140882400D02*
X115584600Y-140882400D01*
X107100000Y-132000000D02*
X107100000Y-137700000D01*
X175100000Y-126800000D02*
X112300000Y-126800000D01*
X112300000Y-126800000D02*
X107100000Y-132000000D01*
X113500000Y-140900000D02*
X113517600Y-140882400D01*
X176972600Y-123836400D02*
X176972600Y-124927400D01*
X176972600Y-124927400D02*
X175100000Y-126800000D01*
X148400000Y-87300000D02*
X151205600Y-84494400D01*
X151205600Y-84494400D02*
X152922600Y-84494400D01*
X146600000Y-87300000D02*
X148400000Y-87300000D01*
X145544400Y-86244400D02*
X146600000Y-87300000D01*
X139380600Y-86244400D02*
X145544400Y-86244400D01*
X148700000Y-105900000D02*
X151309600Y-103290400D01*
X151309600Y-103290400D02*
X152922600Y-103290400D01*
X146600000Y-105900000D02*
X148700000Y-105900000D01*
X145740400Y-105040400D02*
X146600000Y-105900000D01*
X139380600Y-105040400D02*
X145740400Y-105040400D01*
D22*
X138280600Y-105040400D02*
X139359600Y-105040400D01*
D24*
X148400000Y-124900000D02*
X151213600Y-122086400D01*
X151213600Y-122086400D02*
X152922600Y-122086400D01*
X146800000Y-124900000D02*
X148400000Y-124900000D01*
X145736400Y-123836400D02*
X146800000Y-124900000D01*
X139380600Y-123836400D02*
X145736400Y-123836400D01*
X148400000Y-143100000D02*
X150617600Y-140882400D01*
X150617600Y-140882400D02*
X152922600Y-140882400D01*
X146700000Y-143100000D02*
X148400000Y-143100000D01*
X146232400Y-142632400D02*
X146700000Y-143100000D01*
X139380600Y-142632400D02*
X146232400Y-142632400D01*
X167200000Y-87200000D02*
X169905600Y-84494400D01*
X169905600Y-84494400D02*
X171972600Y-84494400D01*
X165500000Y-87200000D02*
X167200000Y-87200000D01*
X164544400Y-86244400D02*
X165500000Y-87200000D01*
X157922600Y-86244400D02*
X164544400Y-86244400D01*
X167300000Y-106000000D02*
X170009600Y-103290400D01*
X170009600Y-103290400D02*
X171972600Y-103290400D01*
X165400000Y-106000000D02*
X167300000Y-106000000D01*
X164440400Y-105040400D02*
X165400000Y-106000000D01*
X157922600Y-105040400D02*
X164440400Y-105040400D01*
X167100000Y-125000000D02*
X170013600Y-122086400D01*
X170013600Y-122086400D02*
X171972600Y-122086400D01*
X165700000Y-125000000D02*
X167100000Y-125000000D01*
X164536400Y-123836400D02*
X165700000Y-125000000D01*
X157922600Y-123836400D02*
X164536400Y-123836400D01*
X167200000Y-143100000D02*
X169417600Y-140882400D01*
X169417600Y-140882400D02*
X171972600Y-140882400D01*
X165500000Y-143100000D02*
X167200000Y-143100000D01*
X165032400Y-142632400D02*
X165500000Y-143100000D01*
X157922600Y-142632400D02*
X165032400Y-142632400D01*
D22*
X172997600Y-140882400D02*
X173072600Y-140882400D01*
D23*
X102463600Y-120500000D02*
X102463600Y-136000000D01*
X102463600Y-100787200D02*
X102463600Y-120500000D01*
D22*
X109956600Y-120695400D02*
X102659000Y-120695400D01*
X102659000Y-120695400D02*
X102463600Y-120500000D01*
X172064600Y-103290400D02*
X173072600Y-103290400D01*
X172064600Y-84494400D02*
X173072600Y-84494400D01*
D23*
X105000000Y-139500000D02*
X109956600Y-139491400D01*
X102463600Y-136000000D02*
X105000000Y-139500000D01*
X102463600Y-81534000D02*
X102463600Y-100787200D01*
D22*
X102463600Y-81534000D02*
X104033000Y-83103400D01*
X104033000Y-83103400D02*
X109956600Y-83103400D01*
X102463600Y-100787200D02*
X103575800Y-101899400D01*
X103575800Y-101899400D02*
X109956600Y-101899400D01*
D23*
X106500000Y-59500000D02*
X118500000Y-59500000D01*
D24*
X109956600Y-123195400D02*
X109956600Y-124815600D01*
X110600000Y-87600000D02*
X104000000Y-87600000D01*
X110800000Y-87400000D02*
X110600000Y-87600000D01*
X112000000Y-86200000D02*
X110800000Y-87400000D01*
X113705600Y-84494400D02*
X112000000Y-86200000D01*
X115584600Y-84494400D02*
X113705600Y-84494400D01*
X176972600Y-142632400D02*
X178567600Y-142632400D01*
X178567600Y-142632400D02*
X179800000Y-141400000D01*
X100800000Y-86800000D02*
X99400000Y-85400000D01*
X99400000Y-85400000D02*
X98800000Y-85400000D01*
X100800000Y-90000000D02*
X100800000Y-86800000D01*
X99200000Y-91600000D02*
X100800000Y-90000000D01*
X98800000Y-91600000D02*
X99200000Y-91600000D01*
X117800000Y-73800000D02*
X104600000Y-73800000D01*
X119735600Y-71864400D02*
X117800000Y-73800000D01*
X119735600Y-70764400D02*
X119735600Y-71864400D01*
D22*
X175872600Y-142632400D02*
X177331400Y-142632400D01*
X177331400Y-142632400D02*
X177342800Y-142621000D01*
X156822600Y-142632400D02*
X158306800Y-142632400D01*
X158306800Y-142632400D02*
X158318200Y-142621000D01*
X139300000Y-142621000D02*
X139288600Y-142632400D01*
X138280600Y-142632400D02*
X139288600Y-142632400D01*
X120504000Y-142621000D02*
X120802400Y-142621000D01*
X119484600Y-142632400D02*
X120492600Y-142632400D01*
X120492600Y-142632400D02*
X120504000Y-142621000D01*
D24*
X166090600Y-80098199D02*
X166240600Y-80098199D01*
X106730800Y-80060800D02*
X109665201Y-80060800D01*
X109665201Y-80060800D02*
X109702600Y-80098199D01*
X150498801Y-82448400D02*
X162886399Y-82448400D01*
X162886399Y-82448400D02*
X165236600Y-80098199D01*
X165236600Y-80098199D02*
X166090600Y-80098199D01*
X147294600Y-80098199D02*
X148148600Y-80098199D01*
X148148600Y-80098199D02*
X150498801Y-82448400D01*
X131601201Y-82346800D02*
X144191999Y-82346800D01*
X144191999Y-82346800D02*
X146440600Y-80098199D01*
X146440600Y-80098199D02*
X147294600Y-80098199D01*
X128498600Y-80098199D02*
X129352600Y-80098199D01*
X129352600Y-80098199D02*
X131601201Y-82346800D01*
X112779801Y-82321400D02*
X125421399Y-82321400D01*
X125421399Y-82321400D02*
X127644600Y-80098199D01*
X127644600Y-80098199D02*
X128498600Y-80098199D01*
X109702600Y-80098199D02*
X110556600Y-80098199D01*
X110556600Y-80098199D02*
X112779801Y-82321400D01*
D25*
X128498600Y-80098199D02*
X128648600Y-80098199D01*
X109702600Y-80098199D02*
X109852600Y-80098199D01*
X114274600Y-76987400D02*
X109891801Y-76987400D01*
X109891801Y-76987400D02*
X109702600Y-76798199D01*
D24*
X107442000Y-98983800D02*
X109676200Y-98983800D01*
X109676200Y-98983800D02*
X109702600Y-98957400D01*
X150435600Y-101244400D02*
X162949600Y-101244400D01*
X162949600Y-101244400D02*
X165236600Y-98957400D01*
X165236600Y-98957400D02*
X166090600Y-98957400D01*
X147294600Y-98957400D02*
X148148600Y-98957400D01*
X148148600Y-98957400D02*
X150435600Y-101244400D01*
X131487200Y-101092000D02*
X144306000Y-101092000D01*
X144306000Y-101092000D02*
X146440600Y-98957400D01*
X146440600Y-98957400D02*
X147294600Y-98957400D01*
X128498600Y-98957400D02*
X129352600Y-98957400D01*
X129352600Y-98957400D02*
X131487200Y-101092000D01*
X112869000Y-101269800D02*
X125332200Y-101269800D01*
X125332200Y-101269800D02*
X127644600Y-98957400D01*
X127644600Y-98957400D02*
X128498600Y-98957400D01*
X109702600Y-98957400D02*
X110556600Y-98957400D01*
X110556600Y-98957400D02*
X112869000Y-101269800D01*
D25*
X109702600Y-95657400D02*
X114148600Y-95657400D01*
X114148600Y-95657400D02*
X114274600Y-95783400D01*
D24*
X169191200Y-120000000D02*
X166944600Y-117753400D01*
X180000000Y-120000000D02*
X169191200Y-120000000D01*
X183000000Y-117000000D02*
X180000000Y-120000000D01*
X183000000Y-93500000D02*
X183000000Y-117000000D01*
X193500000Y-89040000D02*
X187460000Y-89040000D01*
X187460000Y-89040000D02*
X183000000Y-93500000D01*
X166944600Y-117753400D02*
X166090600Y-117753400D01*
X108204000Y-117754400D02*
X109701600Y-117754400D01*
X109701600Y-117754400D02*
X109702600Y-117753400D01*
X150410200Y-120015000D02*
X162975000Y-120015000D01*
X162975000Y-120015000D02*
X165236600Y-117753400D01*
X165236600Y-117753400D02*
X166090600Y-117753400D01*
X147294600Y-117753400D02*
X148148600Y-117753400D01*
X148148600Y-117753400D02*
X150410200Y-120015000D01*
X130910200Y-120015000D02*
X144179000Y-120015000D01*
X144179000Y-120015000D02*
X146440600Y-117753400D01*
X146440600Y-117753400D02*
X147294600Y-117753400D01*
X128498600Y-117753400D02*
X128648600Y-117753400D01*
X128648600Y-117753400D02*
X130910200Y-120015000D01*
X112843600Y-120040400D02*
X125357600Y-120040400D01*
X125357600Y-120040400D02*
X127644600Y-117753400D01*
X127644600Y-117753400D02*
X128498600Y-117753400D01*
X109702600Y-117753400D02*
X110556600Y-117753400D01*
X110556600Y-117753400D02*
X112843600Y-120040400D01*
D25*
X109702600Y-114453400D02*
X114148600Y-114453400D01*
X114148600Y-114453400D02*
X114274600Y-114579400D01*
D24*
X166344600Y-136549400D02*
X166494600Y-136549400D01*
X109906800Y-136499600D02*
X109956600Y-136549400D01*
X149985600Y-138836400D02*
X163203600Y-138836400D01*
X163203600Y-138836400D02*
X165490600Y-136549400D01*
X165490600Y-136549400D02*
X166344600Y-136549400D01*
X147548600Y-136549400D02*
X147698600Y-136549400D01*
X147698600Y-136549400D02*
X149985600Y-138836400D01*
X131893600Y-138836400D02*
X144407600Y-138836400D01*
X144407600Y-138836400D02*
X146694600Y-136549400D01*
X146694600Y-136549400D02*
X147548600Y-136549400D01*
X128752600Y-136549400D02*
X129606600Y-136549400D01*
X129606600Y-136549400D02*
X131893600Y-138836400D01*
X113123000Y-138861800D02*
X125586200Y-138861800D01*
X125586200Y-138861800D02*
X127898600Y-136549400D01*
X127898600Y-136549400D02*
X128752600Y-136549400D01*
X109956600Y-136549400D02*
X110810600Y-136549400D01*
X110810600Y-136549400D02*
X113123000Y-138861800D01*
D25*
X109956600Y-133249400D02*
X114148600Y-133249400D01*
X114148600Y-133249400D02*
X114274600Y-133375400D01*
X128498600Y-76798199D02*
X132881399Y-76798199D01*
X132881399Y-76798199D02*
X133070600Y-76987400D01*
X128498600Y-95657400D02*
X132944600Y-95657400D01*
X132944600Y-95657400D02*
X133070600Y-95783400D01*
X128498600Y-114453400D02*
X132944600Y-114453400D01*
X132944600Y-114453400D02*
X133070600Y-114579400D01*
X128752600Y-133249400D02*
X132944600Y-133249400D01*
X132944600Y-133249400D02*
X133070600Y-133375400D01*
X147294600Y-76798199D02*
X151677399Y-76798199D01*
X151677399Y-76798199D02*
X151866600Y-76987400D01*
X147294600Y-95657400D02*
X151740600Y-95657400D01*
X151740600Y-95657400D02*
X151866600Y-95783400D01*
D24*
X147294600Y-114453400D02*
X151740600Y-114453400D01*
X151740600Y-114453400D02*
X151866600Y-114579400D01*
D25*
X147548600Y-133249400D02*
X151740600Y-133249400D01*
X151740600Y-133249400D02*
X151866600Y-133375400D01*
X166090600Y-76798199D02*
X170473399Y-76798199D01*
X170473399Y-76798199D02*
X170662600Y-76987400D01*
X166090600Y-95657400D02*
X170536600Y-95657400D01*
X170536600Y-95657400D02*
X170662600Y-95783400D01*
X166090600Y-114453400D02*
X170536600Y-114453400D01*
X170536600Y-114453400D02*
X170662600Y-114579400D01*
X166344600Y-133249400D02*
X170536600Y-133249400D01*
X170536600Y-133249400D02*
X170662600Y-133375400D01*
D24*
X115011200Y-86258400D02*
X116670600Y-86258400D01*
X116670600Y-86258400D02*
X116684600Y-86244400D01*
X134726600Y-86244400D02*
X135480600Y-86244400D01*
X119484600Y-84494400D02*
X120238600Y-84494400D01*
X116619800Y-105105200D02*
X116684600Y-105040400D01*
X175872600Y-84494400D02*
X176626600Y-84494400D01*
X134726600Y-105040400D02*
X135480600Y-105040400D01*
X119484600Y-103290400D02*
X120238600Y-103290400D01*
X116645200Y-123875800D02*
X116684600Y-123836400D01*
X175872600Y-103290400D02*
X175947600Y-103290400D01*
X134726600Y-123836400D02*
X135480600Y-123836400D01*
X119484600Y-122086400D02*
X120238600Y-122086400D01*
X116673200Y-142621000D02*
X116684600Y-142632400D01*
X175872600Y-122086400D02*
X176626600Y-122086400D01*
X135405600Y-142632400D02*
X135480600Y-142632400D01*
X153268600Y-86244400D02*
X154022600Y-86244400D01*
X153268600Y-105040400D02*
X154022600Y-105040400D01*
X153268600Y-123836400D02*
X154022600Y-123836400D01*
X153947600Y-142632400D02*
X154022600Y-142632400D01*
X172318600Y-86244400D02*
X173072600Y-86244400D01*
X156822600Y-84494400D02*
X157576600Y-84494400D01*
X157576600Y-84494400D02*
X157588000Y-84505800D01*
X172318600Y-105040400D02*
X173072600Y-105040400D01*
X156822600Y-103290400D02*
X157576600Y-103290400D01*
X172318600Y-123836400D02*
X173072600Y-123836400D01*
X172997600Y-142632400D02*
X173072600Y-142632400D01*
D23*
X99420000Y-59080000D02*
X101500000Y-57000000D01*
X152755600Y-50744400D02*
X146500000Y-57000000D01*
X146500000Y-57000000D02*
X101500000Y-57000000D01*
X152755600Y-45364400D02*
X152755600Y-50744400D01*
D22*
X152755600Y-45364400D02*
X152755600Y-45764400D01*
D23*
X133501076Y-64300000D02*
X137515600Y-68314524D01*
X137515600Y-68314524D02*
X137515600Y-70764400D01*
X120600000Y-64300000D02*
X133501076Y-64300000D01*
X118900000Y-66000000D02*
X120600000Y-64300000D01*
X104500000Y-66000000D02*
X118900000Y-66000000D01*
X137515600Y-70364400D02*
X137515600Y-70764400D01*
D24*
X136552600Y-74447400D02*
X144500000Y-66500000D01*
X120624600Y-74447400D02*
X136552600Y-74447400D01*
X144500000Y-66500000D02*
X183000000Y-66500000D01*
X183000000Y-66500000D02*
X190300000Y-73800000D01*
X190300000Y-73800000D02*
X193500000Y-73800000D01*
X178820000Y-71000000D02*
X142868000Y-71000000D01*
X142868000Y-71000000D02*
X139420600Y-74447400D01*
X184160000Y-76340000D02*
X178820000Y-71000000D01*
X193500000Y-76340000D02*
X184160000Y-76340000D01*
X184880000Y-78880000D02*
X178000000Y-72000000D01*
X193500000Y-78880000D02*
X184880000Y-78880000D01*
X178000000Y-72000000D02*
X160664000Y-72000000D01*
X160664000Y-72000000D02*
X158216600Y-74447400D01*
D25*
X158850000Y-98800000D02*
X158216600Y-93243400D01*
X160500000Y-100450000D02*
X158850000Y-98800000D01*
D24*
X178947400Y-74447400D02*
X185920000Y-81420000D01*
X185920000Y-81420000D02*
X193500000Y-81420000D01*
X177012600Y-74447400D02*
X178947400Y-74447400D01*
M02*
