G04 #@! TF.GenerationSoftware,KiCad,Pcbnew,(2017-12-24 revision 570866557)-makepkg*
G04 #@! TF.CreationDate,2018-02-26T21:37:48-07:00*
G04 #@! TF.ProjectId,KeyGridTest1,4B65794772696454657374312E6B6963,rev?*
G04 #@! TF.SameCoordinates,Original*
G04 #@! TF.FileFunction,Soldermask,Top*
G04 #@! TF.FilePolarity,Negative*
%FSLAX46Y46*%
G04 Gerber Fmt 4.6, Leading zero omitted, Abs format (unit mm)*
G04 Created by KiCad (PCBNEW (2017-12-24 revision 570866557)-makepkg) date 02/26/18 21:37:48*
%MOMM*%
%LPD*%
G01*
G04 APERTURE LIST*
%ADD10O,1.600000X2.400000*%
%ADD11C,3.702000*%
%ADD12C,2.686000*%
%ADD13R,1.600000X1.300000*%
%ADD14C,4.700000*%
%ADD15R,3.400000X1.250000*%
%ADD16R,4.400000X1.250000*%
%ADD17R,1.650000X1.900000*%
%ADD18R,2.100000X2.100000*%
%ADD19O,2.100000X2.100000*%
%ADD20C,2.398980*%
%ADD21C,2.400000*%
%ADD22R,1.300000X1.600000*%
G04 APERTURE END LIST*
D10*
X114655600Y-45364400D03*
X114655600Y-70764400D03*
X117195600Y-45364400D03*
X117195600Y-70764400D03*
X119735600Y-45364400D03*
X119735600Y-70764400D03*
X122275600Y-45364400D03*
X122275600Y-70764400D03*
X124815600Y-45364400D03*
X124815600Y-70764400D03*
X127355600Y-45364400D03*
X127355600Y-70764400D03*
X129895600Y-45364400D03*
X129895600Y-70764400D03*
X132435600Y-45364400D03*
X132435600Y-70764400D03*
X134975600Y-45364400D03*
X134975600Y-70764400D03*
X137515600Y-45364400D03*
X137515600Y-70764400D03*
X140055600Y-45364400D03*
X142595600Y-45364400D03*
X145135600Y-45364400D03*
X147675600Y-45364400D03*
X150215600Y-45364400D03*
X152755600Y-45364400D03*
D11*
X181861600Y-46380400D03*
X181861600Y-69748400D03*
X111861600Y-69748400D03*
X111861600Y-46380400D03*
D12*
X120624600Y-74447400D03*
X114274600Y-76987400D03*
X139420600Y-112039400D03*
X133070600Y-114579400D03*
D13*
X147548600Y-136549400D03*
X147548600Y-133249400D03*
X166344600Y-136549400D03*
X166344600Y-133249400D03*
X109956600Y-136549400D03*
X109956600Y-133249400D03*
X128752600Y-136549400D03*
X128752600Y-133249400D03*
X166090600Y-117753400D03*
X166090600Y-114453400D03*
X147294600Y-117753400D03*
X147294600Y-114453400D03*
X147294600Y-98957400D03*
X147294600Y-95657400D03*
X166090600Y-98957400D03*
X166090600Y-95657400D03*
X128498600Y-117753400D03*
X128498600Y-114453400D03*
X128498600Y-98957400D03*
X128498600Y-95657400D03*
X109702600Y-98957400D03*
X109702600Y-95657400D03*
X109702600Y-117753400D03*
X109702600Y-114453400D03*
X109702600Y-80098199D03*
X109702600Y-76798199D03*
X128498600Y-80098199D03*
X128498600Y-76798199D03*
X147294600Y-80098199D03*
X147294600Y-76798199D03*
X166090600Y-80098199D03*
X166090600Y-76798199D03*
D12*
X158216600Y-130835400D03*
X151866600Y-133375400D03*
X177012600Y-130835400D03*
X170662600Y-133375400D03*
X120624600Y-130835400D03*
X114274600Y-133375400D03*
X139420600Y-130835400D03*
X133070600Y-133375400D03*
X158216600Y-112039400D03*
X151866600Y-114579400D03*
X177012600Y-112039400D03*
X170662600Y-114579400D03*
X177012600Y-93243400D03*
X170662600Y-95783400D03*
X139420600Y-93243400D03*
X133070600Y-95783400D03*
X120624600Y-93243400D03*
X114274600Y-95783400D03*
X120624600Y-112039400D03*
X114274600Y-114579400D03*
X139420600Y-74447400D03*
X133070600Y-76987400D03*
X158216600Y-74447400D03*
X151866600Y-76987400D03*
X177012600Y-74447400D03*
X170662600Y-76987400D03*
D14*
X192000000Y-47500000D03*
D15*
X152922600Y-140882400D03*
D16*
X153422600Y-142632400D03*
D15*
X157922600Y-142632400D03*
D16*
X157422600Y-140882400D03*
D17*
X147548600Y-139491400D03*
X147548600Y-141991400D03*
X166344600Y-139491400D03*
X166344600Y-141991400D03*
D15*
X171972600Y-140882400D03*
D16*
X172472600Y-142632400D03*
D15*
X176972600Y-142632400D03*
D16*
X176472600Y-140882400D03*
D17*
X128752600Y-139491400D03*
X128752600Y-141991400D03*
X109956600Y-139491400D03*
X109956600Y-141991400D03*
D15*
X115584600Y-140882400D03*
D16*
X116084600Y-142632400D03*
D15*
X120584600Y-142632400D03*
D16*
X120084600Y-140882400D03*
D15*
X134380600Y-140882400D03*
D16*
X134880600Y-142632400D03*
D15*
X139380600Y-142632400D03*
D16*
X138880600Y-140882400D03*
D15*
X152922600Y-103290400D03*
D16*
X153422600Y-105040400D03*
D15*
X157922600Y-105040400D03*
D16*
X157422600Y-103290400D03*
D15*
X152922600Y-122086400D03*
D16*
X153422600Y-123836400D03*
D15*
X157922600Y-123836400D03*
D16*
X157422600Y-122086400D03*
D15*
X171972600Y-103290400D03*
D16*
X172472600Y-105040400D03*
D15*
X176972600Y-105040400D03*
D16*
X176472600Y-103290400D03*
D15*
X171972600Y-122086400D03*
D16*
X172472600Y-123836400D03*
D15*
X176972600Y-123836400D03*
D16*
X176472600Y-122086400D03*
D15*
X115584600Y-122086400D03*
D16*
X116084600Y-123836400D03*
D15*
X120584600Y-123836400D03*
D16*
X120084600Y-122086400D03*
D17*
X128752600Y-120695400D03*
X128752600Y-123195400D03*
D15*
X134380600Y-122086400D03*
D16*
X134880600Y-123836400D03*
D15*
X139380600Y-123836400D03*
D16*
X138880600Y-122086400D03*
D15*
X115584600Y-103290400D03*
D16*
X116084600Y-105040400D03*
D15*
X120584600Y-105040400D03*
D16*
X120084600Y-103290400D03*
D17*
X128752600Y-101899400D03*
X128752600Y-104399400D03*
D15*
X134380600Y-103290400D03*
D16*
X134880600Y-105040400D03*
D15*
X139380600Y-105040400D03*
D16*
X138880600Y-103290400D03*
D17*
X147548600Y-101899400D03*
X147548600Y-104399400D03*
X166344600Y-101899400D03*
X166344600Y-104399400D03*
X166344600Y-120695400D03*
X166344600Y-123195400D03*
X147548600Y-120695400D03*
X147548600Y-123195400D03*
X109956600Y-101899400D03*
X109956600Y-104399400D03*
X109956600Y-120695400D03*
X109956600Y-123195400D03*
X109956600Y-83103400D03*
X109956600Y-85603400D03*
X128752600Y-83103400D03*
X128752600Y-85603400D03*
X147548600Y-83103400D03*
X147548600Y-85603400D03*
X166344600Y-83103400D03*
X166344600Y-85603400D03*
D18*
X104500000Y-66000000D03*
D19*
X101960000Y-66000000D03*
X99420000Y-66000000D03*
D15*
X115584600Y-84494400D03*
D16*
X116084600Y-86244400D03*
D15*
X120584600Y-86244400D03*
D16*
X120084600Y-84494400D03*
D15*
X134380600Y-84494400D03*
D16*
X134880600Y-86244400D03*
D15*
X139380600Y-86244400D03*
D16*
X138880600Y-84494400D03*
D15*
X152922600Y-84494400D03*
D16*
X153422600Y-86244400D03*
D15*
X157922600Y-86244400D03*
D16*
X157422600Y-84494400D03*
D15*
X171972600Y-84494400D03*
D16*
X172472600Y-86244400D03*
D15*
X176972600Y-86244400D03*
D16*
X176472600Y-84494400D03*
D20*
X118500000Y-59500000D03*
D14*
X192000000Y-140000000D03*
X100000000Y-140000000D03*
X100000000Y-48000000D03*
D18*
X193500000Y-73800000D03*
D19*
X193500000Y-76340000D03*
X193500000Y-78880000D03*
X193500000Y-81420000D03*
X193500000Y-83960000D03*
X193500000Y-86500000D03*
X193500000Y-89040000D03*
X193500000Y-91580000D03*
D18*
X98800000Y-85400000D03*
D19*
X98800000Y-87940000D03*
D21*
X106500000Y-59500000D03*
X101500000Y-57000000D03*
D12*
X151866600Y-95783400D03*
X158216600Y-93243400D03*
D22*
X104475000Y-62950000D03*
X101175000Y-62950000D03*
M02*
