M48
;DRILL file {KiCad (2017-12-24 revision 570866557)-makepkg} date 02/26/18 22:14:51
;FORMAT={3:3/ absolute / metric / suppress leading zeros}
FMAT,2
METRIC,TZ
T1C0.400
T2C0.800
T3C0.800
T4C1.000
T5C1.499
T6C1.702
T7C3.302
T8C3.988
T9C4.300
%
G90
G05
M71
T1
X98800Y-91600
X104000Y-87600
X104400Y-92300
X104400Y-106900
X104600Y-73800
X105000Y-111800
X105000Y-126400
X106731Y-80061
X107100Y-137700
X107442Y-98984
X108204Y-117754
X108800Y-142000
X108941Y-134800
X109957Y-124816
X112200Y-84600
X112200Y-103400
X113400Y-86200
X113500Y-105000
X113500Y-123800
X113500Y-140900
X113500Y-142600
X127300Y-85600
X127400Y-104400
X127500Y-123200
X127600Y-142000
X132200Y-86200
X132200Y-105000
X132300Y-123800
X132300Y-142600
X146200Y-85600
X146300Y-104400
X146300Y-123200
X146400Y-142000
X150700Y-105000
X150800Y-86200
X150800Y-123800
X150800Y-142600
X160500Y-100450
X165000Y-85600
X165000Y-104400
X165000Y-142000
X165100Y-123200
X169800Y-86200
X169800Y-105000
X169800Y-123800
X169800Y-142600
X179800Y-141400
T2
X114656Y-45364
X114656Y-70764
X117196Y-45364
X117196Y-70764
X119736Y-45364
X119736Y-70764
X122276Y-45364
X122276Y-70764
X124816Y-45364
X124816Y-70764
X127356Y-45364
X127356Y-70764
X129896Y-45364
X129896Y-70764
X132436Y-45364
X132436Y-70764
X134976Y-45364
X134976Y-70764
X137516Y-45364
X137516Y-70764
X140056Y-45364
X142596Y-45364
X145136Y-45364
X147676Y-45364
X150216Y-45364
X152756Y-45364
T3
X118500Y-59500
T4
X101500Y-57000
X106500Y-59500
X98800Y-85400
X98800Y-87940
X193500Y-73800
X193500Y-76340
X193500Y-78880
X193500Y-81420
X193500Y-83960
X193500Y-86500
X193500Y-89040
X193500Y-91580
X99420Y-66000
X101960Y-66000
X104500Y-66000
T5
X170663Y-133375
X177013Y-130835
X133071Y-76987
X139421Y-74447
X170663Y-95783
X177013Y-93243
X114275Y-114579
X120625Y-112039
X151867Y-76987
X158217Y-74447
X114275Y-95783
X120625Y-93243
X133071Y-114579
X139421Y-112039
X151867Y-95783
X158217Y-93243
X170663Y-76987
X177013Y-74447
X151867Y-133375
X158217Y-130835
X133071Y-95783
X139421Y-93243
X133071Y-133375
X139421Y-130835
X114275Y-133375
X120625Y-130835
X151867Y-114579
X158217Y-112039
X114275Y-76987
X120625Y-74447
X170663Y-114579
X177013Y-112039
T6
X131801Y-135915
X141961Y-135915
X113005Y-135915
X123165Y-135915
X150597Y-117119
X160757Y-117119
X113005Y-79527
X123165Y-79527
X169393Y-117119
X179553Y-117119
X169393Y-135915
X179553Y-135915
X131801Y-79527
X141961Y-79527
X169393Y-98323
X179553Y-98323
X113005Y-117119
X123165Y-117119
X150597Y-79527
X160757Y-79527
X113005Y-98323
X123165Y-98323
X131801Y-117119
X141961Y-117119
X150597Y-98323
X160757Y-98323
X169393Y-79527
X179553Y-79527
X150597Y-135915
X160757Y-135915
X131801Y-98323
X141961Y-98323
T7
X111862Y-46380
X111862Y-69748
X181862Y-46380
X181862Y-69748
T8
X118085Y-117119
X155677Y-79527
X118085Y-98323
X136881Y-117119
X155677Y-98323
X174473Y-79527
X155677Y-135915
X136881Y-98323
X136881Y-135915
X118085Y-135915
X155677Y-117119
X118085Y-79527
X174473Y-117119
X174473Y-135915
X136881Y-79527
X174473Y-98323
T9
X100000Y-48000
X100000Y-140000
X192000Y-47500
X192000Y-140000
T0
M30
