G04 #@! TF.GenerationSoftware,KiCad,Pcbnew,(2017-12-24 revision 570866557)-makepkg*
G04 #@! TF.CreationDate,2018-02-26T21:37:48-07:00*
G04 #@! TF.ProjectId,KeyGridTest1,4B65794772696454657374312E6B6963,rev?*
G04 #@! TF.SameCoordinates,Original*
G04 #@! TF.FileFunction,Legend,Top*
G04 #@! TF.FilePolarity,Positive*
%FSLAX46Y46*%
G04 Gerber Fmt 4.6, Leading zero omitted, Abs format (unit mm)*
G04 Created by KiCad (PCBNEW (2017-12-24 revision 570866557)-makepkg) date 02/26/18 21:37:48*
%MOMM*%
%LPD*%
G01*
G04 APERTURE LIST*
%ADD10C,0.300000*%
%ADD11C,0.150000*%
%ADD12C,0.762000*%
%ADD13C,0.635000*%
%ADD14C,0.381000*%
%ADD15C,0.120000*%
%ADD16C,0.200000*%
%ADD17C,0.600000*%
%ADD18C,0.203200*%
%ADD19O,1.600000X2.400000*%
%ADD20C,3.702000*%
%ADD21C,2.686000*%
%ADD22R,1.600000X1.300000*%
%ADD23C,4.700000*%
%ADD24R,3.400000X1.250000*%
%ADD25R,4.400000X1.250000*%
%ADD26R,1.650000X1.900000*%
%ADD27R,2.100000X2.100000*%
%ADD28O,2.100000X2.100000*%
%ADD29C,2.398980*%
%ADD30C,2.400000*%
%ADD31R,1.300000X1.600000*%
G04 APERTURE END LIST*
D10*
X98846428Y-100928571D02*
X97846428Y-101285714D01*
X98846428Y-101642857D01*
X99203571Y-102142857D02*
X99275000Y-102214285D01*
X99346428Y-102357142D01*
X99346428Y-102714285D01*
X99275000Y-102857142D01*
X99203571Y-102928571D01*
X99060714Y-103000000D01*
X98917857Y-103000000D01*
X98703571Y-102928571D01*
X97846428Y-102071428D01*
X97846428Y-103000000D01*
X97989285Y-103642857D02*
X97917857Y-103714285D01*
X97846428Y-103642857D01*
X97917857Y-103571428D01*
X97989285Y-103642857D01*
X97846428Y-103642857D01*
X99346428Y-104642857D02*
X99346428Y-104785714D01*
X99275000Y-104928571D01*
X99203571Y-105000000D01*
X99060714Y-105071428D01*
X98775000Y-105142857D01*
X98417857Y-105142857D01*
X98132142Y-105071428D01*
X97989285Y-105000000D01*
X97917857Y-104928571D01*
X97846428Y-104785714D01*
X97846428Y-104642857D01*
X97917857Y-104500000D01*
X97989285Y-104428571D01*
X98132142Y-104357142D01*
X98417857Y-104285714D01*
X98775000Y-104285714D01*
X99060714Y-104357142D01*
X99203571Y-104428571D01*
X99275000Y-104500000D01*
X99346428Y-104642857D01*
X98417857Y-106928571D02*
X98417857Y-108071428D01*
X99203571Y-109857142D02*
X99275000Y-109928571D01*
X99346428Y-110071428D01*
X99346428Y-110428571D01*
X99275000Y-110571428D01*
X99203571Y-110642857D01*
X99060714Y-110714285D01*
X98917857Y-110714285D01*
X98703571Y-110642857D01*
X97846428Y-109785714D01*
X97846428Y-110714285D01*
X99417857Y-112428571D02*
X97489285Y-111142857D01*
X99203571Y-112857142D02*
X99275000Y-112928571D01*
X99346428Y-113071428D01*
X99346428Y-113428571D01*
X99275000Y-113571428D01*
X99203571Y-113642857D01*
X99060714Y-113714285D01*
X98917857Y-113714285D01*
X98703571Y-113642857D01*
X97846428Y-112785714D01*
X97846428Y-113714285D01*
X99346428Y-114642857D02*
X99346428Y-114785714D01*
X99275000Y-114928571D01*
X99203571Y-115000000D01*
X99060714Y-115071428D01*
X98775000Y-115142857D01*
X98417857Y-115142857D01*
X98132142Y-115071428D01*
X97989285Y-115000000D01*
X97917857Y-114928571D01*
X97846428Y-114785714D01*
X97846428Y-114642857D01*
X97917857Y-114500000D01*
X97989285Y-114428571D01*
X98132142Y-114357142D01*
X98417857Y-114285714D01*
X98775000Y-114285714D01*
X99060714Y-114357142D01*
X99203571Y-114428571D01*
X99275000Y-114500000D01*
X99346428Y-114642857D01*
X97846428Y-116571428D02*
X97846428Y-115714285D01*
X97846428Y-116142857D02*
X99346428Y-116142857D01*
X99132142Y-116000000D01*
X98989285Y-115857142D01*
X98917857Y-115714285D01*
X98703571Y-117428571D02*
X98775000Y-117285714D01*
X98846428Y-117214285D01*
X98989285Y-117142857D01*
X99060714Y-117142857D01*
X99203571Y-117214285D01*
X99275000Y-117285714D01*
X99346428Y-117428571D01*
X99346428Y-117714285D01*
X99275000Y-117857142D01*
X99203571Y-117928571D01*
X99060714Y-118000000D01*
X98989285Y-118000000D01*
X98846428Y-117928571D01*
X98775000Y-117857142D01*
X98703571Y-117714285D01*
X98703571Y-117428571D01*
X98632142Y-117285714D01*
X98560714Y-117214285D01*
X98417857Y-117142857D01*
X98132142Y-117142857D01*
X97989285Y-117214285D01*
X97917857Y-117285714D01*
X97846428Y-117428571D01*
X97846428Y-117714285D01*
X97917857Y-117857142D01*
X97989285Y-117928571D01*
X98132142Y-118000000D01*
X98417857Y-118000000D01*
X98560714Y-117928571D01*
X98632142Y-117857142D01*
X98703571Y-117714285D01*
D11*
G36*
X97550000Y-119075000D02*
X104375000Y-119075000D01*
X104375000Y-136925000D01*
X97575000Y-136925000D01*
X97550000Y-119075000D01*
G37*
X97550000Y-119075000D02*
X104375000Y-119075000D01*
X104375000Y-136925000D01*
X97575000Y-136925000D01*
X97550000Y-119075000D01*
D10*
X98121428Y-90464285D02*
X99621428Y-90464285D01*
X99621428Y-90821428D01*
X99550000Y-91035714D01*
X99407142Y-91178571D01*
X99264285Y-91250000D01*
X98978571Y-91321428D01*
X98764285Y-91321428D01*
X98478571Y-91250000D01*
X98335714Y-91178571D01*
X98192857Y-91035714D01*
X98121428Y-90821428D01*
X98121428Y-90464285D01*
X99621428Y-92250000D02*
X99621428Y-92535714D01*
X99550000Y-92678571D01*
X99407142Y-92821428D01*
X99121428Y-92892857D01*
X98621428Y-92892857D01*
X98335714Y-92821428D01*
X98192857Y-92678571D01*
X98121428Y-92535714D01*
X98121428Y-92250000D01*
X98192857Y-92107142D01*
X98335714Y-91964285D01*
X98621428Y-91892857D01*
X99121428Y-91892857D01*
X99407142Y-91964285D01*
X99550000Y-92107142D01*
X99621428Y-92250000D01*
X99621428Y-93535714D02*
X98407142Y-93535714D01*
X98264285Y-93607142D01*
X98192857Y-93678571D01*
X98121428Y-93821428D01*
X98121428Y-94107142D01*
X98192857Y-94250000D01*
X98264285Y-94321428D01*
X98407142Y-94392857D01*
X99621428Y-94392857D01*
X99621428Y-94892857D02*
X99621428Y-95750000D01*
X98121428Y-95321428D02*
X99621428Y-95321428D01*
X97921428Y-78664285D02*
X99421428Y-78664285D01*
X99421428Y-79021428D01*
X99350000Y-79235714D01*
X99207142Y-79378571D01*
X99064285Y-79450000D01*
X98778571Y-79521428D01*
X98564285Y-79521428D01*
X98278571Y-79450000D01*
X98135714Y-79378571D01*
X97992857Y-79235714D01*
X97921428Y-79021428D01*
X97921428Y-78664285D01*
X97921428Y-80164285D02*
X99421428Y-80164285D01*
X97921428Y-80878571D02*
X99421428Y-80878571D01*
X97921428Y-81735714D01*
X99421428Y-81735714D01*
X97428571Y-53107142D02*
X98571428Y-53107142D01*
X98000000Y-53678571D02*
X98000000Y-52535714D01*
X97428571Y-61607142D02*
X98571428Y-61607142D01*
X104714285Y-49403571D02*
X104000000Y-49403571D01*
X103928571Y-50117857D01*
X104000000Y-50046428D01*
X104142857Y-49975000D01*
X104500000Y-49975000D01*
X104642857Y-50046428D01*
X104714285Y-50117857D01*
X104785714Y-50260714D01*
X104785714Y-50617857D01*
X104714285Y-50760714D01*
X104642857Y-50832142D01*
X104500000Y-50903571D01*
X104142857Y-50903571D01*
X104000000Y-50832142D01*
X103928571Y-50760714D01*
X105214285Y-49403571D02*
X105714285Y-50903571D01*
X106214285Y-49403571D01*
X102857142Y-51953571D02*
X103142857Y-51953571D01*
X103285714Y-52025000D01*
X103428571Y-52167857D01*
X103500000Y-52453571D01*
X103500000Y-52953571D01*
X103428571Y-53239285D01*
X103285714Y-53382142D01*
X103142857Y-53453571D01*
X102857142Y-53453571D01*
X102714285Y-53382142D01*
X102571428Y-53239285D01*
X102500000Y-52953571D01*
X102500000Y-52453571D01*
X102571428Y-52167857D01*
X102714285Y-52025000D01*
X102857142Y-51953571D01*
X104142857Y-52453571D02*
X104142857Y-53453571D01*
X104142857Y-52596428D02*
X104214285Y-52525000D01*
X104357142Y-52453571D01*
X104571428Y-52453571D01*
X104714285Y-52525000D01*
X104785714Y-52667857D01*
X104785714Y-53453571D01*
X105714285Y-53453571D02*
X105571428Y-53382142D01*
X105500000Y-53239285D01*
X105500000Y-51953571D01*
X106142857Y-52453571D02*
X106500000Y-53453571D01*
X106857142Y-52453571D02*
X106500000Y-53453571D01*
X106357142Y-53810714D01*
X106285714Y-53882142D01*
X106142857Y-53953571D01*
X107428571Y-53310714D02*
X107500000Y-53382142D01*
X107428571Y-53453571D01*
X107357142Y-53382142D01*
X107428571Y-53310714D01*
X107428571Y-53453571D01*
X107428571Y-52882142D02*
X107357142Y-52025000D01*
X107428571Y-51953571D01*
X107500000Y-52025000D01*
X107428571Y-52882142D01*
X107428571Y-51953571D01*
X103607142Y-67678571D02*
X103607142Y-68892857D01*
X103678571Y-69035714D01*
X103750000Y-69107142D01*
X103892857Y-69178571D01*
X104178571Y-69178571D01*
X104321428Y-69107142D01*
X104392857Y-69035714D01*
X104464285Y-68892857D01*
X104464285Y-67678571D01*
X105107142Y-69107142D02*
X105321428Y-69178571D01*
X105678571Y-69178571D01*
X105821428Y-69107142D01*
X105892857Y-69035714D01*
X105964285Y-68892857D01*
X105964285Y-68750000D01*
X105892857Y-68607142D01*
X105821428Y-68535714D01*
X105678571Y-68464285D01*
X105392857Y-68392857D01*
X105250000Y-68321428D01*
X105178571Y-68250000D01*
X105107142Y-68107142D01*
X105107142Y-67964285D01*
X105178571Y-67821428D01*
X105250000Y-67750000D01*
X105392857Y-67678571D01*
X105750000Y-67678571D01*
X105964285Y-67750000D01*
X107107142Y-68392857D02*
X107321428Y-68464285D01*
X107392857Y-68535714D01*
X107464285Y-68678571D01*
X107464285Y-68892857D01*
X107392857Y-69035714D01*
X107321428Y-69107142D01*
X107178571Y-69178571D01*
X106607142Y-69178571D01*
X106607142Y-67678571D01*
X107107142Y-67678571D01*
X107250000Y-67750000D01*
X107321428Y-67821428D01*
X107392857Y-67964285D01*
X107392857Y-68107142D01*
X107321428Y-68250000D01*
X107250000Y-68321428D01*
X107107142Y-68392857D01*
X106607142Y-68392857D01*
X97642857Y-68392857D02*
X98142857Y-68392857D01*
X98357142Y-69178571D02*
X97642857Y-69178571D01*
X97642857Y-67678571D01*
X98357142Y-67678571D01*
X98857142Y-69178571D02*
X99642857Y-68178571D01*
X98857142Y-68178571D02*
X99642857Y-69178571D01*
X100000000Y-68178571D02*
X100571428Y-68178571D01*
X100214285Y-67678571D02*
X100214285Y-68964285D01*
X100285714Y-69107142D01*
X100428571Y-69178571D01*
X100571428Y-69178571D01*
X98107142Y-72678571D02*
X97392857Y-72678571D01*
X97392857Y-71178571D01*
X98607142Y-71892857D02*
X99107142Y-71892857D01*
X99321428Y-72678571D02*
X98607142Y-72678571D01*
X98607142Y-71178571D01*
X99321428Y-71178571D01*
X99964285Y-72678571D02*
X99964285Y-71178571D01*
X100321428Y-71178571D01*
X100535714Y-71250000D01*
X100678571Y-71392857D01*
X100750000Y-71535714D01*
X100821428Y-71821428D01*
X100821428Y-72035714D01*
X100750000Y-72321428D01*
X100678571Y-72464285D01*
X100535714Y-72607142D01*
X100321428Y-72678571D01*
X99964285Y-72678571D01*
X102607142Y-72678571D02*
X102607142Y-71178571D01*
X103178571Y-71178571D01*
X103321428Y-71250000D01*
X103392857Y-71321428D01*
X103464285Y-71464285D01*
X103464285Y-71678571D01*
X103392857Y-71821428D01*
X103321428Y-71892857D01*
X103178571Y-71964285D01*
X102607142Y-71964285D01*
X103964285Y-71178571D02*
X104321428Y-72678571D01*
X104607142Y-71607142D01*
X104892857Y-72678571D01*
X105250000Y-71178571D01*
X106678571Y-72678571D02*
X106178571Y-71964285D01*
X105821428Y-72678571D02*
X105821428Y-71178571D01*
X106392857Y-71178571D01*
X106535714Y-71250000D01*
X106607142Y-71321428D01*
X106678571Y-71464285D01*
X106678571Y-71678571D01*
X106607142Y-71821428D01*
X106535714Y-71892857D01*
X106392857Y-71964285D01*
X105821428Y-71964285D01*
D12*
X186076428Y-128488571D02*
X185895000Y-128307142D01*
X185713571Y-127944285D01*
X185713571Y-127037142D01*
X185895000Y-126674285D01*
X186076428Y-126492857D01*
X186439285Y-126311428D01*
X186802142Y-126311428D01*
X187346428Y-126492857D01*
X189523571Y-128670000D01*
X189523571Y-126311428D01*
D13*
X184384694Y-128584076D02*
X182174894Y-128584076D01*
X184310786Y-127830066D02*
X180424586Y-127830066D01*
X184232294Y-127060076D02*
X180396894Y-127060076D01*
X184410094Y-126298076D02*
X182174894Y-126298076D01*
X189017400Y-130961506D02*
X189017400Y-133171306D01*
X188263390Y-131035414D02*
X188263390Y-134921614D01*
X187493400Y-131113906D02*
X187493400Y-134949306D01*
X186731400Y-130936106D02*
X186731400Y-133171306D01*
X191287906Y-126298076D02*
X193497706Y-126298076D01*
X191361814Y-127060076D02*
X194453000Y-127065400D01*
X191440306Y-127830066D02*
X194453000Y-127827400D01*
X191262506Y-128584076D02*
X193497706Y-128584076D01*
X186731400Y-124042800D02*
X186731400Y-121833000D01*
X187493400Y-123968892D02*
X187493400Y-120082692D01*
X189017400Y-124068200D02*
X189017400Y-121833000D01*
X188263390Y-123890400D02*
X188263390Y-120055000D01*
X191326406Y-127497200D02*
G75*
G03X191326406Y-127497200I-3502806J0D01*
G01*
D12*
X190223571Y-118295216D02*
X186413571Y-117818966D01*
X186413571Y-116911823D01*
X186595000Y-116390216D01*
X186957857Y-116072716D01*
X187320714Y-115936644D01*
X188046428Y-115845930D01*
X188590714Y-115913966D01*
X189316428Y-116186108D01*
X189679285Y-116412894D01*
X190042142Y-116821108D01*
X190223571Y-117388073D01*
X190223571Y-118295216D01*
X189860714Y-112262716D02*
X190042142Y-112466823D01*
X190223571Y-113033787D01*
X190223571Y-113396644D01*
X190042142Y-113918251D01*
X189679285Y-114235751D01*
X189316428Y-114371823D01*
X188590714Y-114462537D01*
X188046428Y-114394501D01*
X187320714Y-114122358D01*
X186957857Y-113895573D01*
X186595000Y-113487358D01*
X186413571Y-112920394D01*
X186413571Y-112557537D01*
X186595000Y-112035930D01*
X186776428Y-111877180D01*
X186413571Y-110561823D02*
X186413571Y-108021823D01*
X190223571Y-111038073D01*
X190223571Y-108498073D01*
X190223571Y-107046644D02*
X186413571Y-106570394D01*
X189135000Y-105277716D02*
X189135000Y-103463430D01*
X190223571Y-105776644D02*
X186413571Y-104030394D01*
X190223571Y-103236644D01*
X190223571Y-99063787D02*
X186413571Y-98587537D01*
X186413571Y-97680394D01*
X186595000Y-97158787D01*
X186957857Y-96841287D01*
X187320714Y-96705216D01*
X188046428Y-96614501D01*
X188590714Y-96682537D01*
X189316428Y-96954680D01*
X189679285Y-97181466D01*
X190042142Y-97589680D01*
X190223571Y-98156644D01*
X190223571Y-99063787D01*
X189860714Y-93031287D02*
X190042142Y-93235394D01*
X190223571Y-93802358D01*
X190223571Y-94165216D01*
X190042142Y-94686823D01*
X189679285Y-95004323D01*
X189316428Y-95140394D01*
X188590714Y-95231108D01*
X188046428Y-95163073D01*
X187320714Y-94890930D01*
X186957857Y-94664144D01*
X186595000Y-94255930D01*
X186413571Y-93688966D01*
X186413571Y-93326108D01*
X186595000Y-92804501D01*
X186776428Y-92645751D01*
X186776428Y-91194323D02*
X186595000Y-90990216D01*
X186413571Y-90604680D01*
X186413571Y-89697537D01*
X186595000Y-89357358D01*
X186776428Y-89198608D01*
X187139285Y-89062537D01*
X187502142Y-89107894D01*
X188046428Y-89357358D01*
X190223571Y-91806644D01*
X190223571Y-89448073D01*
X186413571Y-85706108D02*
X186413571Y-86431823D01*
X186595000Y-86817358D01*
X186776428Y-87021466D01*
X187320714Y-87452358D01*
X188046428Y-87724501D01*
X189497857Y-87905930D01*
X189860714Y-87769858D01*
X190042142Y-87611108D01*
X190223571Y-87270930D01*
X190223571Y-86545216D01*
X190042142Y-86159680D01*
X189860714Y-85955573D01*
X189497857Y-85728787D01*
X188590714Y-85615394D01*
X188227857Y-85751466D01*
X188046428Y-85910216D01*
X187865000Y-86250394D01*
X187865000Y-86976108D01*
X188046428Y-87361644D01*
X188227857Y-87565751D01*
X188590714Y-87792537D01*
X190223571Y-81283787D02*
X186413571Y-80807537D01*
X186413571Y-79356108D01*
X186595000Y-79015930D01*
X186776428Y-78857180D01*
X187139285Y-78721108D01*
X187683571Y-78789144D01*
X188046428Y-79015930D01*
X188227857Y-79220037D01*
X188409285Y-79605573D01*
X188409285Y-81057001D01*
X190223571Y-75296644D02*
X188409285Y-76339858D01*
X190223571Y-77473787D02*
X186413571Y-76997537D01*
X186413571Y-75546108D01*
X186595000Y-75205930D01*
X186776428Y-75047180D01*
X187139285Y-74911108D01*
X187683571Y-74979144D01*
X188046428Y-75205930D01*
X188227857Y-75410037D01*
X188409285Y-75795573D01*
X188409285Y-77247001D01*
X186413571Y-72461823D02*
X186413571Y-71736108D01*
X186595000Y-71395930D01*
X186957857Y-71078430D01*
X187683571Y-70987716D01*
X188953571Y-71146466D01*
X189679285Y-71418608D01*
X190042142Y-71826823D01*
X190223571Y-72212358D01*
X190223571Y-72938073D01*
X190042142Y-73278251D01*
X189679285Y-73595751D01*
X188953571Y-73686466D01*
X187683571Y-73527716D01*
X186957857Y-73255573D01*
X186595000Y-72847358D01*
X186413571Y-72461823D01*
X186413571Y-69740394D02*
X186413571Y-67563251D01*
X190223571Y-69128073D02*
X186413571Y-68651823D01*
X186413571Y-65567537D02*
X186413571Y-64841823D01*
X186595000Y-64501644D01*
X186957857Y-64184144D01*
X187683571Y-64093430D01*
X188953571Y-64252180D01*
X189679285Y-64524323D01*
X190042142Y-64932537D01*
X190223571Y-65318073D01*
X190223571Y-66043787D01*
X190042142Y-66383966D01*
X189679285Y-66701466D01*
X188953571Y-66792180D01*
X187683571Y-66633430D01*
X186957857Y-66361287D01*
X186595000Y-65953073D01*
X186413571Y-65567537D01*
X190223571Y-59875216D02*
X186413571Y-59398966D01*
X186413571Y-58491823D01*
X186595000Y-57970216D01*
X186957857Y-57652716D01*
X187320714Y-57516644D01*
X188046428Y-57425930D01*
X188590714Y-57493966D01*
X189316428Y-57766108D01*
X189679285Y-57992894D01*
X190042142Y-58401108D01*
X190223571Y-58968073D01*
X190223571Y-59875216D01*
X186413571Y-54863251D02*
X186413571Y-54137537D01*
X186595000Y-53797358D01*
X186957857Y-53479858D01*
X187683571Y-53389144D01*
X188953571Y-53547894D01*
X189679285Y-53820037D01*
X190042142Y-54228251D01*
X190223571Y-54613787D01*
X190223571Y-55339501D01*
X190042142Y-55679680D01*
X189679285Y-55997180D01*
X188953571Y-56087894D01*
X187683571Y-55929144D01*
X186957857Y-55657001D01*
X186595000Y-55248787D01*
X186413571Y-54863251D01*
X190042142Y-52232537D02*
X190223571Y-51710930D01*
X190223571Y-50803787D01*
X190042142Y-50418251D01*
X189860714Y-50214144D01*
X189497857Y-49987358D01*
X189135000Y-49942001D01*
X188772142Y-50078073D01*
X188590714Y-50236823D01*
X188409285Y-50577001D01*
X188227857Y-51280037D01*
X188046428Y-51620216D01*
X187865000Y-51778966D01*
X187502142Y-51915037D01*
X187139285Y-51869680D01*
X186776428Y-51642894D01*
X186595000Y-51438787D01*
X186413571Y-51053251D01*
X186413571Y-50146108D01*
X186595000Y-49624501D01*
D11*
X144373600Y-70256400D02*
X142087600Y-72034400D01*
X159105600Y-70256400D02*
X144373600Y-70256400D01*
X161391600Y-72034400D02*
X159105600Y-70256400D01*
X184373600Y-72034400D02*
X161391600Y-72034400D01*
X109575600Y-72034400D02*
X142087600Y-72034400D01*
X184373600Y-72034400D02*
X184373600Y-44094400D01*
X184373600Y-44094400D02*
X109575600Y-44094400D01*
X109575600Y-44094400D02*
X109575600Y-72034400D01*
D14*
X122734600Y-83127400D02*
X122734600Y-85877400D01*
X113434600Y-83127400D02*
X113434600Y-85877400D01*
X113434600Y-83127400D02*
X122734600Y-83127400D01*
X111734600Y-73177400D02*
X113512600Y-73177400D01*
X122656600Y-73177400D02*
X124434600Y-73177400D01*
X124434600Y-73177400D02*
X124434600Y-74955400D01*
X124434600Y-84099400D02*
X124434600Y-85877400D01*
X124434600Y-85877400D02*
X122734600Y-85877400D01*
X113434600Y-85877400D02*
X111734600Y-85877400D01*
X111734600Y-85877400D02*
X111734600Y-84099400D01*
X111734600Y-74955400D02*
X111734600Y-73177400D01*
X141530600Y-120719400D02*
X141530600Y-123469400D01*
X132230600Y-120719400D02*
X132230600Y-123469400D01*
X132230600Y-120719400D02*
X141530600Y-120719400D01*
X130530600Y-110769400D02*
X132308600Y-110769400D01*
X141452600Y-110769400D02*
X143230600Y-110769400D01*
X143230600Y-110769400D02*
X143230600Y-112547400D01*
X143230600Y-121691400D02*
X143230600Y-123469400D01*
X143230600Y-123469400D02*
X141530600Y-123469400D01*
X132230600Y-123469400D02*
X130530600Y-123469400D01*
X130530600Y-123469400D02*
X130530600Y-121691400D01*
X130530600Y-112547400D02*
X130530600Y-110769400D01*
D11*
X147548600Y-135699400D02*
X146848600Y-134099400D01*
X148248600Y-134099400D02*
X147548600Y-135699400D01*
X146848600Y-134099400D02*
X148248600Y-134099400D01*
X146848600Y-135699400D02*
X148248600Y-135699400D01*
D15*
X146548600Y-137149400D02*
X148548600Y-137149400D01*
X148548600Y-137149400D02*
X148548600Y-133249400D01*
X146548600Y-137149400D02*
X146548600Y-133249400D01*
D11*
X166344600Y-135699400D02*
X165644600Y-134099400D01*
X167044600Y-134099400D02*
X166344600Y-135699400D01*
X165644600Y-134099400D02*
X167044600Y-134099400D01*
X165644600Y-135699400D02*
X167044600Y-135699400D01*
D15*
X165344600Y-137149400D02*
X167344600Y-137149400D01*
X167344600Y-137149400D02*
X167344600Y-133249400D01*
X165344600Y-137149400D02*
X165344600Y-133249400D01*
D11*
X109956600Y-135699400D02*
X109256600Y-134099400D01*
X110656600Y-134099400D02*
X109956600Y-135699400D01*
X109256600Y-134099400D02*
X110656600Y-134099400D01*
X109256600Y-135699400D02*
X110656600Y-135699400D01*
D15*
X108956600Y-137149400D02*
X110956600Y-137149400D01*
X110956600Y-137149400D02*
X110956600Y-133249400D01*
X108956600Y-137149400D02*
X108956600Y-133249400D01*
D11*
X128752600Y-135699400D02*
X128052600Y-134099400D01*
X129452600Y-134099400D02*
X128752600Y-135699400D01*
X128052600Y-134099400D02*
X129452600Y-134099400D01*
X128052600Y-135699400D02*
X129452600Y-135699400D01*
D15*
X127752600Y-137149400D02*
X129752600Y-137149400D01*
X129752600Y-137149400D02*
X129752600Y-133249400D01*
X127752600Y-137149400D02*
X127752600Y-133249400D01*
D11*
X166090600Y-116903400D02*
X165390600Y-115303400D01*
X166790600Y-115303400D02*
X166090600Y-116903400D01*
X165390600Y-115303400D02*
X166790600Y-115303400D01*
X165390600Y-116903400D02*
X166790600Y-116903400D01*
D15*
X165090600Y-118353400D02*
X167090600Y-118353400D01*
X167090600Y-118353400D02*
X167090600Y-114453400D01*
X165090600Y-118353400D02*
X165090600Y-114453400D01*
D11*
X147294600Y-116903400D02*
X146594600Y-115303400D01*
X147994600Y-115303400D02*
X147294600Y-116903400D01*
X146594600Y-115303400D02*
X147994600Y-115303400D01*
X146594600Y-116903400D02*
X147994600Y-116903400D01*
D15*
X146294600Y-118353400D02*
X148294600Y-118353400D01*
X148294600Y-118353400D02*
X148294600Y-114453400D01*
X146294600Y-118353400D02*
X146294600Y-114453400D01*
D11*
X147294600Y-98107400D02*
X146594600Y-96507400D01*
X147994600Y-96507400D02*
X147294600Y-98107400D01*
X146594600Y-96507400D02*
X147994600Y-96507400D01*
X146594600Y-98107400D02*
X147994600Y-98107400D01*
D15*
X146294600Y-99557400D02*
X148294600Y-99557400D01*
X148294600Y-99557400D02*
X148294600Y-95657400D01*
X146294600Y-99557400D02*
X146294600Y-95657400D01*
D11*
X166090600Y-98107400D02*
X165390600Y-96507400D01*
X166790600Y-96507400D02*
X166090600Y-98107400D01*
X165390600Y-96507400D02*
X166790600Y-96507400D01*
X165390600Y-98107400D02*
X166790600Y-98107400D01*
D15*
X165090600Y-99557400D02*
X167090600Y-99557400D01*
X167090600Y-99557400D02*
X167090600Y-95657400D01*
X165090600Y-99557400D02*
X165090600Y-95657400D01*
D11*
X128498600Y-116903400D02*
X127798600Y-115303400D01*
X129198600Y-115303400D02*
X128498600Y-116903400D01*
X127798600Y-115303400D02*
X129198600Y-115303400D01*
X127798600Y-116903400D02*
X129198600Y-116903400D01*
D15*
X127498600Y-118353400D02*
X129498600Y-118353400D01*
X129498600Y-118353400D02*
X129498600Y-114453400D01*
X127498600Y-118353400D02*
X127498600Y-114453400D01*
D11*
X128498600Y-98107400D02*
X127798600Y-96507400D01*
X129198600Y-96507400D02*
X128498600Y-98107400D01*
X127798600Y-96507400D02*
X129198600Y-96507400D01*
X127798600Y-98107400D02*
X129198600Y-98107400D01*
D15*
X127498600Y-99557400D02*
X129498600Y-99557400D01*
X129498600Y-99557400D02*
X129498600Y-95657400D01*
X127498600Y-99557400D02*
X127498600Y-95657400D01*
D11*
X109702600Y-98107400D02*
X109002600Y-96507400D01*
X110402600Y-96507400D02*
X109702600Y-98107400D01*
X109002600Y-96507400D02*
X110402600Y-96507400D01*
X109002600Y-98107400D02*
X110402600Y-98107400D01*
D15*
X108702600Y-99557400D02*
X110702600Y-99557400D01*
X110702600Y-99557400D02*
X110702600Y-95657400D01*
X108702600Y-99557400D02*
X108702600Y-95657400D01*
D11*
X109702600Y-116903400D02*
X109002600Y-115303400D01*
X110402600Y-115303400D02*
X109702600Y-116903400D01*
X109002600Y-115303400D02*
X110402600Y-115303400D01*
X109002600Y-116903400D02*
X110402600Y-116903400D01*
D15*
X108702600Y-118353400D02*
X110702600Y-118353400D01*
X110702600Y-118353400D02*
X110702600Y-114453400D01*
X108702600Y-118353400D02*
X108702600Y-114453400D01*
D11*
X109702600Y-79248199D02*
X109002600Y-77648199D01*
X110402600Y-77648199D02*
X109702600Y-79248199D01*
X109002600Y-77648199D02*
X110402600Y-77648199D01*
X109002600Y-79248199D02*
X110402600Y-79248199D01*
D15*
X108702600Y-80698199D02*
X110702600Y-80698199D01*
X110702600Y-80698199D02*
X110702600Y-76798199D01*
X108702600Y-80698199D02*
X108702600Y-76798199D01*
D11*
X128498600Y-79248199D02*
X127798600Y-77648199D01*
X129198600Y-77648199D02*
X128498600Y-79248199D01*
X127798600Y-77648199D02*
X129198600Y-77648199D01*
X127798600Y-79248199D02*
X129198600Y-79248199D01*
D15*
X127498600Y-80698199D02*
X129498600Y-80698199D01*
X129498600Y-80698199D02*
X129498600Y-76798199D01*
X127498600Y-80698199D02*
X127498600Y-76798199D01*
D11*
X147294600Y-79248199D02*
X146594600Y-77648199D01*
X147994600Y-77648199D02*
X147294600Y-79248199D01*
X146594600Y-77648199D02*
X147994600Y-77648199D01*
X146594600Y-79248199D02*
X147994600Y-79248199D01*
D15*
X146294600Y-80698199D02*
X148294600Y-80698199D01*
X148294600Y-80698199D02*
X148294600Y-76798199D01*
X146294600Y-80698199D02*
X146294600Y-76798199D01*
D11*
X166090600Y-79248199D02*
X165390600Y-77648199D01*
X166790600Y-77648199D02*
X166090600Y-79248199D01*
X165390600Y-77648199D02*
X166790600Y-77648199D01*
X165390600Y-79248199D02*
X166790600Y-79248199D01*
D15*
X165090600Y-80698199D02*
X167090600Y-80698199D01*
X167090600Y-80698199D02*
X167090600Y-76798199D01*
X165090600Y-80698199D02*
X165090600Y-76798199D01*
D14*
X160326600Y-139515400D02*
X160326600Y-142265400D01*
X151026600Y-139515400D02*
X151026600Y-142265400D01*
X151026600Y-139515400D02*
X160326600Y-139515400D01*
X149326600Y-129565400D02*
X151104600Y-129565400D01*
X160248600Y-129565400D02*
X162026600Y-129565400D01*
X162026600Y-129565400D02*
X162026600Y-131343400D01*
X162026600Y-140487400D02*
X162026600Y-142265400D01*
X162026600Y-142265400D02*
X160326600Y-142265400D01*
X151026600Y-142265400D02*
X149326600Y-142265400D01*
X149326600Y-142265400D02*
X149326600Y-140487400D01*
X149326600Y-131343400D02*
X149326600Y-129565400D01*
X179122600Y-139515400D02*
X179122600Y-142265400D01*
X169822600Y-139515400D02*
X169822600Y-142265400D01*
X169822600Y-139515400D02*
X179122600Y-139515400D01*
X168122600Y-129565400D02*
X169900600Y-129565400D01*
X179044600Y-129565400D02*
X180822600Y-129565400D01*
X180822600Y-129565400D02*
X180822600Y-131343400D01*
X180822600Y-140487400D02*
X180822600Y-142265400D01*
X180822600Y-142265400D02*
X179122600Y-142265400D01*
X169822600Y-142265400D02*
X168122600Y-142265400D01*
X168122600Y-142265400D02*
X168122600Y-140487400D01*
X168122600Y-131343400D02*
X168122600Y-129565400D01*
X122734600Y-139515400D02*
X122734600Y-142265400D01*
X113434600Y-139515400D02*
X113434600Y-142265400D01*
X113434600Y-139515400D02*
X122734600Y-139515400D01*
X111734600Y-129565400D02*
X113512600Y-129565400D01*
X122656600Y-129565400D02*
X124434600Y-129565400D01*
X124434600Y-129565400D02*
X124434600Y-131343400D01*
X124434600Y-140487400D02*
X124434600Y-142265400D01*
X124434600Y-142265400D02*
X122734600Y-142265400D01*
X113434600Y-142265400D02*
X111734600Y-142265400D01*
X111734600Y-142265400D02*
X111734600Y-140487400D01*
X111734600Y-131343400D02*
X111734600Y-129565400D01*
X141530600Y-139515400D02*
X141530600Y-142265400D01*
X132230600Y-139515400D02*
X132230600Y-142265400D01*
X132230600Y-139515400D02*
X141530600Y-139515400D01*
X130530600Y-129565400D02*
X132308600Y-129565400D01*
X141452600Y-129565400D02*
X143230600Y-129565400D01*
X143230600Y-129565400D02*
X143230600Y-131343400D01*
X143230600Y-140487400D02*
X143230600Y-142265400D01*
X143230600Y-142265400D02*
X141530600Y-142265400D01*
X132230600Y-142265400D02*
X130530600Y-142265400D01*
X130530600Y-142265400D02*
X130530600Y-140487400D01*
X130530600Y-131343400D02*
X130530600Y-129565400D01*
X160326600Y-120719400D02*
X160326600Y-123469400D01*
X151026600Y-120719400D02*
X151026600Y-123469400D01*
X151026600Y-120719400D02*
X160326600Y-120719400D01*
X149326600Y-110769400D02*
X151104600Y-110769400D01*
X160248600Y-110769400D02*
X162026600Y-110769400D01*
X162026600Y-110769400D02*
X162026600Y-112547400D01*
X162026600Y-121691400D02*
X162026600Y-123469400D01*
X162026600Y-123469400D02*
X160326600Y-123469400D01*
X151026600Y-123469400D02*
X149326600Y-123469400D01*
X149326600Y-123469400D02*
X149326600Y-121691400D01*
X149326600Y-112547400D02*
X149326600Y-110769400D01*
X179122600Y-120719400D02*
X179122600Y-123469400D01*
X169822600Y-120719400D02*
X169822600Y-123469400D01*
X169822600Y-120719400D02*
X179122600Y-120719400D01*
X168122600Y-110769400D02*
X169900600Y-110769400D01*
X179044600Y-110769400D02*
X180822600Y-110769400D01*
X180822600Y-110769400D02*
X180822600Y-112547400D01*
X180822600Y-121691400D02*
X180822600Y-123469400D01*
X180822600Y-123469400D02*
X179122600Y-123469400D01*
X169822600Y-123469400D02*
X168122600Y-123469400D01*
X168122600Y-123469400D02*
X168122600Y-121691400D01*
X168122600Y-112547400D02*
X168122600Y-110769400D01*
X179122600Y-101923400D02*
X179122600Y-104673400D01*
X169822600Y-101923400D02*
X169822600Y-104673400D01*
X169822600Y-101923400D02*
X179122600Y-101923400D01*
X168122600Y-91973400D02*
X169900600Y-91973400D01*
X179044600Y-91973400D02*
X180822600Y-91973400D01*
X180822600Y-91973400D02*
X180822600Y-93751400D01*
X180822600Y-102895400D02*
X180822600Y-104673400D01*
X180822600Y-104673400D02*
X179122600Y-104673400D01*
X169822600Y-104673400D02*
X168122600Y-104673400D01*
X168122600Y-104673400D02*
X168122600Y-102895400D01*
X168122600Y-93751400D02*
X168122600Y-91973400D01*
X141530600Y-101923400D02*
X141530600Y-104673400D01*
X132230600Y-101923400D02*
X132230600Y-104673400D01*
X132230600Y-101923400D02*
X141530600Y-101923400D01*
X130530600Y-91973400D02*
X132308600Y-91973400D01*
X141452600Y-91973400D02*
X143230600Y-91973400D01*
X143230600Y-91973400D02*
X143230600Y-93751400D01*
X143230600Y-102895400D02*
X143230600Y-104673400D01*
X143230600Y-104673400D02*
X141530600Y-104673400D01*
X132230600Y-104673400D02*
X130530600Y-104673400D01*
X130530600Y-104673400D02*
X130530600Y-102895400D01*
X130530600Y-93751400D02*
X130530600Y-91973400D01*
X122734600Y-101923400D02*
X122734600Y-104673400D01*
X113434600Y-101923400D02*
X113434600Y-104673400D01*
X113434600Y-101923400D02*
X122734600Y-101923400D01*
X111734600Y-91973400D02*
X113512600Y-91973400D01*
X122656600Y-91973400D02*
X124434600Y-91973400D01*
X124434600Y-91973400D02*
X124434600Y-93751400D01*
X124434600Y-102895400D02*
X124434600Y-104673400D01*
X124434600Y-104673400D02*
X122734600Y-104673400D01*
X113434600Y-104673400D02*
X111734600Y-104673400D01*
X111734600Y-104673400D02*
X111734600Y-102895400D01*
X111734600Y-93751400D02*
X111734600Y-91973400D01*
X122734600Y-120719400D02*
X122734600Y-123469400D01*
X113434600Y-120719400D02*
X113434600Y-123469400D01*
X113434600Y-120719400D02*
X122734600Y-120719400D01*
X111734600Y-110769400D02*
X113512600Y-110769400D01*
X122656600Y-110769400D02*
X124434600Y-110769400D01*
X124434600Y-110769400D02*
X124434600Y-112547400D01*
X124434600Y-121691400D02*
X124434600Y-123469400D01*
X124434600Y-123469400D02*
X122734600Y-123469400D01*
X113434600Y-123469400D02*
X111734600Y-123469400D01*
X111734600Y-123469400D02*
X111734600Y-121691400D01*
X111734600Y-112547400D02*
X111734600Y-110769400D01*
X141530600Y-83127400D02*
X141530600Y-85877400D01*
X132230600Y-83127400D02*
X132230600Y-85877400D01*
X132230600Y-83127400D02*
X141530600Y-83127400D01*
X130530600Y-73177400D02*
X132308600Y-73177400D01*
X141452600Y-73177400D02*
X143230600Y-73177400D01*
X143230600Y-73177400D02*
X143230600Y-74955400D01*
X143230600Y-84099400D02*
X143230600Y-85877400D01*
X143230600Y-85877400D02*
X141530600Y-85877400D01*
X132230600Y-85877400D02*
X130530600Y-85877400D01*
X130530600Y-85877400D02*
X130530600Y-84099400D01*
X130530600Y-74955400D02*
X130530600Y-73177400D01*
X160326600Y-83127400D02*
X160326600Y-85877400D01*
X151026600Y-83127400D02*
X151026600Y-85877400D01*
X151026600Y-83127400D02*
X160326600Y-83127400D01*
X149326600Y-73177400D02*
X151104600Y-73177400D01*
X160248600Y-73177400D02*
X162026600Y-73177400D01*
X162026600Y-73177400D02*
X162026600Y-74955400D01*
X162026600Y-84099400D02*
X162026600Y-85877400D01*
X162026600Y-85877400D02*
X160326600Y-85877400D01*
X151026600Y-85877400D02*
X149326600Y-85877400D01*
X149326600Y-85877400D02*
X149326600Y-84099400D01*
X149326600Y-74955400D02*
X149326600Y-73177400D01*
X179122600Y-83127400D02*
X179122600Y-85877400D01*
X169822600Y-83127400D02*
X169822600Y-85877400D01*
X169822600Y-83127400D02*
X179122600Y-83127400D01*
X168122600Y-73177400D02*
X169900600Y-73177400D01*
X179044600Y-73177400D02*
X180822600Y-73177400D01*
X180822600Y-73177400D02*
X180822600Y-74955400D01*
X180822600Y-84099400D02*
X180822600Y-85877400D01*
X180822600Y-85877400D02*
X179122600Y-85877400D01*
X169822600Y-85877400D02*
X168122600Y-85877400D01*
X168122600Y-85877400D02*
X168122600Y-84099400D01*
X168122600Y-74955400D02*
X168122600Y-73177400D01*
D11*
X154722600Y-141657400D02*
X153322600Y-141657400D01*
X154722600Y-139857400D02*
X154722600Y-141657400D01*
D16*
X153322600Y-139857400D02*
X157322600Y-139857400D01*
D17*
X153322600Y-140057400D02*
X153322600Y-140057400D01*
D16*
X157322600Y-143657400D02*
X153522600Y-143657400D01*
D15*
X148398600Y-141241400D02*
X148398600Y-140241400D01*
X146698600Y-140241400D02*
X146698600Y-141241400D01*
X167194600Y-141241400D02*
X167194600Y-140241400D01*
X165494600Y-140241400D02*
X165494600Y-141241400D01*
D11*
X173772600Y-141657400D02*
X172372600Y-141657400D01*
X173772600Y-139857400D02*
X173772600Y-141657400D01*
D16*
X172372600Y-139857400D02*
X176372600Y-139857400D01*
D17*
X172372600Y-140057400D02*
X172372600Y-140057400D01*
D16*
X176372600Y-143657400D02*
X172572600Y-143657400D01*
D15*
X129602600Y-141241400D02*
X129602600Y-140241400D01*
X127902600Y-140241400D02*
X127902600Y-141241400D01*
X110806600Y-141241400D02*
X110806600Y-140241400D01*
X109106600Y-140241400D02*
X109106600Y-141241400D01*
D11*
X117384600Y-141657400D02*
X115984600Y-141657400D01*
X117384600Y-139857400D02*
X117384600Y-141657400D01*
D16*
X115984600Y-139857400D02*
X119984600Y-139857400D01*
D17*
X115984600Y-140057400D02*
X115984600Y-140057400D01*
D16*
X119984600Y-143657400D02*
X116184600Y-143657400D01*
D11*
X136180600Y-141657400D02*
X134780600Y-141657400D01*
X136180600Y-139857400D02*
X136180600Y-141657400D01*
D16*
X134780600Y-139857400D02*
X138780600Y-139857400D01*
D17*
X134780600Y-140057400D02*
X134780600Y-140057400D01*
D16*
X138780600Y-143657400D02*
X134980600Y-143657400D01*
D11*
X154722600Y-104065400D02*
X153322600Y-104065400D01*
X154722600Y-102265400D02*
X154722600Y-104065400D01*
D16*
X153322600Y-102265400D02*
X157322600Y-102265400D01*
D17*
X153322600Y-102465400D02*
X153322600Y-102465400D01*
D16*
X157322600Y-106065400D02*
X153522600Y-106065400D01*
D11*
X154722600Y-122861400D02*
X153322600Y-122861400D01*
X154722600Y-121061400D02*
X154722600Y-122861400D01*
D16*
X153322600Y-121061400D02*
X157322600Y-121061400D01*
D17*
X153322600Y-121261400D02*
X153322600Y-121261400D01*
D16*
X157322600Y-124861400D02*
X153522600Y-124861400D01*
D11*
X173772600Y-104065400D02*
X172372600Y-104065400D01*
X173772600Y-102265400D02*
X173772600Y-104065400D01*
D16*
X172372600Y-102265400D02*
X176372600Y-102265400D01*
D17*
X172372600Y-102465400D02*
X172372600Y-102465400D01*
D16*
X176372600Y-106065400D02*
X172572600Y-106065400D01*
D11*
X173772600Y-122861400D02*
X172372600Y-122861400D01*
X173772600Y-121061400D02*
X173772600Y-122861400D01*
D16*
X172372600Y-121061400D02*
X176372600Y-121061400D01*
D17*
X172372600Y-121261400D02*
X172372600Y-121261400D01*
D16*
X176372600Y-124861400D02*
X172572600Y-124861400D01*
D11*
X117384600Y-122861400D02*
X115984600Y-122861400D01*
X117384600Y-121061400D02*
X117384600Y-122861400D01*
D16*
X115984600Y-121061400D02*
X119984600Y-121061400D01*
D17*
X115984600Y-121261400D02*
X115984600Y-121261400D01*
D16*
X119984600Y-124861400D02*
X116184600Y-124861400D01*
D15*
X129602600Y-122445400D02*
X129602600Y-121445400D01*
X127902600Y-121445400D02*
X127902600Y-122445400D01*
D11*
X136180600Y-122861400D02*
X134780600Y-122861400D01*
X136180600Y-121061400D02*
X136180600Y-122861400D01*
D16*
X134780600Y-121061400D02*
X138780600Y-121061400D01*
D17*
X134780600Y-121261400D02*
X134780600Y-121261400D01*
D16*
X138780600Y-124861400D02*
X134980600Y-124861400D01*
D11*
X117384600Y-104065400D02*
X115984600Y-104065400D01*
X117384600Y-102265400D02*
X117384600Y-104065400D01*
D16*
X115984600Y-102265400D02*
X119984600Y-102265400D01*
D17*
X115984600Y-102465400D02*
X115984600Y-102465400D01*
D16*
X119984600Y-106065400D02*
X116184600Y-106065400D01*
D15*
X129602600Y-103649400D02*
X129602600Y-102649400D01*
X127902600Y-102649400D02*
X127902600Y-103649400D01*
D11*
X136180600Y-104065400D02*
X134780600Y-104065400D01*
X136180600Y-102265400D02*
X136180600Y-104065400D01*
D16*
X134780600Y-102265400D02*
X138780600Y-102265400D01*
D17*
X134780600Y-102465400D02*
X134780600Y-102465400D01*
D16*
X138780600Y-106065400D02*
X134980600Y-106065400D01*
D15*
X148398600Y-103649400D02*
X148398600Y-102649400D01*
X146698600Y-102649400D02*
X146698600Y-103649400D01*
X167194600Y-103649400D02*
X167194600Y-102649400D01*
X165494600Y-102649400D02*
X165494600Y-103649400D01*
X167194600Y-122445400D02*
X167194600Y-121445400D01*
X165494600Y-121445400D02*
X165494600Y-122445400D01*
X148398600Y-122445400D02*
X148398600Y-121445400D01*
X146698600Y-121445400D02*
X146698600Y-122445400D01*
X110806600Y-103649400D02*
X110806600Y-102649400D01*
X109106600Y-102649400D02*
X109106600Y-103649400D01*
X110806600Y-122445400D02*
X110806600Y-121445400D01*
X109106600Y-121445400D02*
X109106600Y-122445400D01*
X110806600Y-84853400D02*
X110806600Y-83853400D01*
X109106600Y-83853400D02*
X109106600Y-84853400D01*
X129602600Y-84853400D02*
X129602600Y-83853400D01*
X127902600Y-83853400D02*
X127902600Y-84853400D01*
X148398600Y-84853400D02*
X148398600Y-83853400D01*
X146698600Y-83853400D02*
X146698600Y-84853400D01*
X167194600Y-84853400D02*
X167194600Y-83853400D01*
X165494600Y-83853400D02*
X165494600Y-84853400D01*
X98090000Y-64670000D02*
X98090000Y-67330000D01*
X103230000Y-64670000D02*
X98090000Y-64670000D01*
X103230000Y-67330000D02*
X98090000Y-67330000D01*
X103230000Y-64670000D02*
X103230000Y-67330000D01*
X104500000Y-64670000D02*
X105830000Y-64670000D01*
X105830000Y-64670000D02*
X105830000Y-66000000D01*
D11*
X117384600Y-85269400D02*
X115984600Y-85269400D01*
X117384600Y-83469400D02*
X117384600Y-85269400D01*
D16*
X115984600Y-83469400D02*
X119984600Y-83469400D01*
D17*
X115984600Y-83669400D02*
X115984600Y-83669400D01*
D16*
X119984600Y-87269400D02*
X116184600Y-87269400D01*
D11*
X136180600Y-85269400D02*
X134780600Y-85269400D01*
X136180600Y-83469400D02*
X136180600Y-85269400D01*
D16*
X134780600Y-83469400D02*
X138780600Y-83469400D01*
D17*
X134780600Y-83669400D02*
X134780600Y-83669400D01*
D16*
X138780600Y-87269400D02*
X134980600Y-87269400D01*
D11*
X154722600Y-85269400D02*
X153322600Y-85269400D01*
X154722600Y-83469400D02*
X154722600Y-85269400D01*
D16*
X153322600Y-83469400D02*
X157322600Y-83469400D01*
D17*
X153322600Y-83669400D02*
X153322600Y-83669400D01*
D16*
X157322600Y-87269400D02*
X153522600Y-87269400D01*
D11*
X173772600Y-85269400D02*
X172372600Y-85269400D01*
X173772600Y-83469400D02*
X173772600Y-85269400D01*
D16*
X172372600Y-83469400D02*
X176372600Y-83469400D01*
D17*
X172372600Y-83669400D02*
X172372600Y-83669400D01*
D16*
X176372600Y-87269400D02*
X172572600Y-87269400D01*
D15*
X192170000Y-92910000D02*
X194830000Y-92910000D01*
X192170000Y-75070000D02*
X192170000Y-92910000D01*
X194830000Y-75070000D02*
X194830000Y-92910000D01*
X192170000Y-75070000D02*
X194830000Y-75070000D01*
X192170000Y-73800000D02*
X192170000Y-72470000D01*
X192170000Y-72470000D02*
X193500000Y-72470000D01*
X97470000Y-89270000D02*
X100130000Y-89270000D01*
X97470000Y-86670000D02*
X97470000Y-89270000D01*
X100130000Y-86670000D02*
X100130000Y-89270000D01*
X97470000Y-86670000D02*
X100130000Y-86670000D01*
X97470000Y-85400000D02*
X97470000Y-84070000D01*
X97470000Y-84070000D02*
X98800000Y-84070000D01*
D11*
X99000000Y-56000000D02*
X96800000Y-56000000D01*
X99000000Y-54200000D02*
X99000000Y-56000000D01*
X96800000Y-60700000D02*
X108900000Y-60700000D01*
X96800000Y-54150000D02*
X96800000Y-60700000D01*
X108900000Y-54150000D02*
X108900000Y-60700000D01*
X108900000Y-54150000D02*
X96800000Y-54150000D01*
D14*
X149326600Y-93751400D02*
X149326600Y-91973400D01*
X149326600Y-104673400D02*
X149326600Y-102895400D01*
X151026600Y-104673400D02*
X149326600Y-104673400D01*
X162026600Y-104673400D02*
X160326600Y-104673400D01*
X162026600Y-102895400D02*
X162026600Y-104673400D01*
X162026600Y-91973400D02*
X162026600Y-93751400D01*
X160248600Y-91973400D02*
X162026600Y-91973400D01*
X149326600Y-91973400D02*
X151104600Y-91973400D01*
X151026600Y-101923400D02*
X160326600Y-101923400D01*
X151026600Y-101923400D02*
X151026600Y-104673400D01*
X160326600Y-101923400D02*
X160326600Y-104673400D01*
D15*
X100575000Y-61950000D02*
X104475000Y-61950000D01*
X100575000Y-63950000D02*
X104475000Y-63950000D01*
X100575000Y-61950000D02*
X100575000Y-63950000D01*
D11*
X102025000Y-62250000D02*
X102025000Y-63650000D01*
X103625000Y-62250000D02*
X103625000Y-63650000D01*
X103625000Y-63650000D02*
X102025000Y-62950000D01*
X102025000Y-62950000D02*
X103625000Y-62250000D01*
X110312314Y-48771257D02*
X110312314Y-49742685D01*
X110369457Y-49856971D01*
X110426600Y-49914114D01*
X110540885Y-49971257D01*
X110769457Y-49971257D01*
X110883742Y-49914114D01*
X110940885Y-49856971D01*
X110998028Y-49742685D01*
X110998028Y-48771257D01*
X112198028Y-49971257D02*
X111512314Y-49971257D01*
X111855171Y-49971257D02*
X111855171Y-48771257D01*
X111740885Y-48942685D01*
X111626600Y-49056971D01*
X111512314Y-49114114D01*
D18*
X114401600Y-74326447D02*
X114619314Y-74386923D01*
X114982171Y-74386923D01*
X115127314Y-74326447D01*
X115199885Y-74265971D01*
X115272457Y-74145019D01*
X115272457Y-74024066D01*
X115199885Y-73903114D01*
X115127314Y-73842638D01*
X114982171Y-73782161D01*
X114691885Y-73721685D01*
X114546742Y-73661209D01*
X114474171Y-73600733D01*
X114401600Y-73479780D01*
X114401600Y-73358828D01*
X114474171Y-73237876D01*
X114546742Y-73177400D01*
X114691885Y-73116923D01*
X115054742Y-73116923D01*
X115272457Y-73177400D01*
X115780457Y-73116923D02*
X116143314Y-74386923D01*
X116433600Y-73479780D01*
X116723885Y-74386923D01*
X117086742Y-73116923D01*
X118465600Y-74386923D02*
X117594742Y-74386923D01*
X118030171Y-74386923D02*
X118030171Y-73116923D01*
X117885028Y-73298352D01*
X117739885Y-73419304D01*
X117594742Y-73479780D01*
X134848600Y-109733447D02*
X135066314Y-109793923D01*
X135429171Y-109793923D01*
X135574314Y-109733447D01*
X135646885Y-109672971D01*
X135719457Y-109552019D01*
X135719457Y-109431066D01*
X135646885Y-109310114D01*
X135574314Y-109249638D01*
X135429171Y-109189161D01*
X135138885Y-109128685D01*
X134993742Y-109068209D01*
X134921171Y-109007733D01*
X134848600Y-108886780D01*
X134848600Y-108765828D01*
X134921171Y-108644876D01*
X134993742Y-108584400D01*
X135138885Y-108523923D01*
X135501742Y-108523923D01*
X135719457Y-108584400D01*
X136227457Y-108523923D02*
X136590314Y-109793923D01*
X136880600Y-108886780D01*
X137170885Y-109793923D01*
X137533742Y-108523923D01*
X137969171Y-108523923D02*
X138985171Y-108523923D01*
X138332028Y-109793923D01*
D11*
X146000980Y-136113685D02*
X145000980Y-136113685D01*
X145000980Y-135875590D01*
X145048600Y-135732733D01*
X145143838Y-135637495D01*
X145239076Y-135589876D01*
X145429552Y-135542257D01*
X145572409Y-135542257D01*
X145762885Y-135589876D01*
X145858123Y-135637495D01*
X145953361Y-135732733D01*
X146000980Y-135875590D01*
X146000980Y-136113685D01*
X146000980Y-134589876D02*
X146000980Y-135161304D01*
X146000980Y-134875590D02*
X145000980Y-134875590D01*
X145143838Y-134970828D01*
X145239076Y-135066066D01*
X145286695Y-135161304D01*
X145096219Y-134208923D02*
X145048600Y-134161304D01*
X145000980Y-134066066D01*
X145000980Y-133827971D01*
X145048600Y-133732733D01*
X145096219Y-133685114D01*
X145191457Y-133637495D01*
X145286695Y-133637495D01*
X145429552Y-133685114D01*
X146000980Y-134256542D01*
X146000980Y-133637495D01*
X164796980Y-136113685D02*
X163796980Y-136113685D01*
X163796980Y-135875590D01*
X163844600Y-135732733D01*
X163939838Y-135637495D01*
X164035076Y-135589876D01*
X164225552Y-135542257D01*
X164368409Y-135542257D01*
X164558885Y-135589876D01*
X164654123Y-135637495D01*
X164749361Y-135732733D01*
X164796980Y-135875590D01*
X164796980Y-136113685D01*
X164796980Y-134589876D02*
X164796980Y-135161304D01*
X164796980Y-134875590D02*
X163796980Y-134875590D01*
X163939838Y-134970828D01*
X164035076Y-135066066D01*
X164082695Y-135161304D01*
X163796980Y-133732733D02*
X163796980Y-133923209D01*
X163844600Y-134018447D01*
X163892219Y-134066066D01*
X164035076Y-134161304D01*
X164225552Y-134208923D01*
X164606504Y-134208923D01*
X164701742Y-134161304D01*
X164749361Y-134113685D01*
X164796980Y-134018447D01*
X164796980Y-133827971D01*
X164749361Y-133732733D01*
X164701742Y-133685114D01*
X164606504Y-133637495D01*
X164368409Y-133637495D01*
X164273171Y-133685114D01*
X164225552Y-133732733D01*
X164177933Y-133827971D01*
X164177933Y-134018447D01*
X164225552Y-134113685D01*
X164273171Y-134161304D01*
X164368409Y-134208923D01*
X108408980Y-135637495D02*
X107408980Y-135637495D01*
X107408980Y-135399400D01*
X107456600Y-135256542D01*
X107551838Y-135161304D01*
X107647076Y-135113685D01*
X107837552Y-135066066D01*
X107980409Y-135066066D01*
X108170885Y-135113685D01*
X108266123Y-135161304D01*
X108361361Y-135256542D01*
X108408980Y-135399400D01*
X108408980Y-135637495D01*
X107742314Y-134208923D02*
X108408980Y-134208923D01*
X107361361Y-134447019D02*
X108075647Y-134685114D01*
X108075647Y-134066066D01*
X127204980Y-135637495D02*
X126204980Y-135637495D01*
X126204980Y-135399400D01*
X126252600Y-135256542D01*
X126347838Y-135161304D01*
X126443076Y-135113685D01*
X126633552Y-135066066D01*
X126776409Y-135066066D01*
X126966885Y-135113685D01*
X127062123Y-135161304D01*
X127157361Y-135256542D01*
X127204980Y-135399400D01*
X127204980Y-135637495D01*
X126633552Y-134494638D02*
X126585933Y-134589876D01*
X126538314Y-134637495D01*
X126443076Y-134685114D01*
X126395457Y-134685114D01*
X126300219Y-134637495D01*
X126252600Y-134589876D01*
X126204980Y-134494638D01*
X126204980Y-134304161D01*
X126252600Y-134208923D01*
X126300219Y-134161304D01*
X126395457Y-134113685D01*
X126443076Y-134113685D01*
X126538314Y-134161304D01*
X126585933Y-134208923D01*
X126633552Y-134304161D01*
X126633552Y-134494638D01*
X126681171Y-134589876D01*
X126728790Y-134637495D01*
X126824028Y-134685114D01*
X127014504Y-134685114D01*
X127109742Y-134637495D01*
X127157361Y-134589876D01*
X127204980Y-134494638D01*
X127204980Y-134304161D01*
X127157361Y-134208923D01*
X127109742Y-134161304D01*
X127014504Y-134113685D01*
X126824028Y-134113685D01*
X126728790Y-134161304D01*
X126681171Y-134208923D01*
X126633552Y-134304161D01*
X164542980Y-117317685D02*
X163542980Y-117317685D01*
X163542980Y-117079590D01*
X163590600Y-116936733D01*
X163685838Y-116841495D01*
X163781076Y-116793876D01*
X163971552Y-116746257D01*
X164114409Y-116746257D01*
X164304885Y-116793876D01*
X164400123Y-116841495D01*
X164495361Y-116936733D01*
X164542980Y-117079590D01*
X164542980Y-117317685D01*
X164542980Y-115793876D02*
X164542980Y-116365304D01*
X164542980Y-116079590D02*
X163542980Y-116079590D01*
X163685838Y-116174828D01*
X163781076Y-116270066D01*
X163828695Y-116365304D01*
X163542980Y-114889114D02*
X163542980Y-115365304D01*
X164019171Y-115412923D01*
X163971552Y-115365304D01*
X163923933Y-115270066D01*
X163923933Y-115031971D01*
X163971552Y-114936733D01*
X164019171Y-114889114D01*
X164114409Y-114841495D01*
X164352504Y-114841495D01*
X164447742Y-114889114D01*
X164495361Y-114936733D01*
X164542980Y-115031971D01*
X164542980Y-115270066D01*
X164495361Y-115365304D01*
X164447742Y-115412923D01*
X145746980Y-117317685D02*
X144746980Y-117317685D01*
X144746980Y-117079590D01*
X144794600Y-116936733D01*
X144889838Y-116841495D01*
X144985076Y-116793876D01*
X145175552Y-116746257D01*
X145318409Y-116746257D01*
X145508885Y-116793876D01*
X145604123Y-116841495D01*
X145699361Y-116936733D01*
X145746980Y-117079590D01*
X145746980Y-117317685D01*
X145746980Y-115793876D02*
X145746980Y-116365304D01*
X145746980Y-116079590D02*
X144746980Y-116079590D01*
X144889838Y-116174828D01*
X144985076Y-116270066D01*
X145032695Y-116365304D01*
X145746980Y-114841495D02*
X145746980Y-115412923D01*
X145746980Y-115127209D02*
X144746980Y-115127209D01*
X144889838Y-115222447D01*
X144985076Y-115317685D01*
X145032695Y-115412923D01*
X145746980Y-98521685D02*
X144746980Y-98521685D01*
X144746980Y-98283590D01*
X144794600Y-98140733D01*
X144889838Y-98045495D01*
X144985076Y-97997876D01*
X145175552Y-97950257D01*
X145318409Y-97950257D01*
X145508885Y-97997876D01*
X145604123Y-98045495D01*
X145699361Y-98140733D01*
X145746980Y-98283590D01*
X145746980Y-98521685D01*
X145746980Y-96997876D02*
X145746980Y-97569304D01*
X145746980Y-97283590D02*
X144746980Y-97283590D01*
X144889838Y-97378828D01*
X144985076Y-97474066D01*
X145032695Y-97569304D01*
X144746980Y-96378828D02*
X144746980Y-96283590D01*
X144794600Y-96188352D01*
X144842219Y-96140733D01*
X144937457Y-96093114D01*
X145127933Y-96045495D01*
X145366028Y-96045495D01*
X145556504Y-96093114D01*
X145651742Y-96140733D01*
X145699361Y-96188352D01*
X145746980Y-96283590D01*
X145746980Y-96378828D01*
X145699361Y-96474066D01*
X145651742Y-96521685D01*
X145556504Y-96569304D01*
X145366028Y-96616923D01*
X145127933Y-96616923D01*
X144937457Y-96569304D01*
X144842219Y-96521685D01*
X144794600Y-96474066D01*
X144746980Y-96378828D01*
X164542980Y-98521685D02*
X163542980Y-98521685D01*
X163542980Y-98283590D01*
X163590600Y-98140733D01*
X163685838Y-98045495D01*
X163781076Y-97997876D01*
X163971552Y-97950257D01*
X164114409Y-97950257D01*
X164304885Y-97997876D01*
X164400123Y-98045495D01*
X164495361Y-98140733D01*
X164542980Y-98283590D01*
X164542980Y-98521685D01*
X164542980Y-96997876D02*
X164542980Y-97569304D01*
X164542980Y-97283590D02*
X163542980Y-97283590D01*
X163685838Y-97378828D01*
X163781076Y-97474066D01*
X163828695Y-97569304D01*
X163876314Y-96140733D02*
X164542980Y-96140733D01*
X163495361Y-96378828D02*
X164209647Y-96616923D01*
X164209647Y-95997876D01*
X126950980Y-116841495D02*
X125950980Y-116841495D01*
X125950980Y-116603400D01*
X125998600Y-116460542D01*
X126093838Y-116365304D01*
X126189076Y-116317685D01*
X126379552Y-116270066D01*
X126522409Y-116270066D01*
X126712885Y-116317685D01*
X126808123Y-116365304D01*
X126903361Y-116460542D01*
X126950980Y-116603400D01*
X126950980Y-116841495D01*
X125950980Y-115936733D02*
X125950980Y-115270066D01*
X126950980Y-115698638D01*
X126950980Y-98045495D02*
X125950980Y-98045495D01*
X125950980Y-97807400D01*
X125998600Y-97664542D01*
X126093838Y-97569304D01*
X126189076Y-97521685D01*
X126379552Y-97474066D01*
X126522409Y-97474066D01*
X126712885Y-97521685D01*
X126808123Y-97569304D01*
X126903361Y-97664542D01*
X126950980Y-97807400D01*
X126950980Y-98045495D01*
X125950980Y-96616923D02*
X125950980Y-96807400D01*
X125998600Y-96902638D01*
X126046219Y-96950257D01*
X126189076Y-97045495D01*
X126379552Y-97093114D01*
X126760504Y-97093114D01*
X126855742Y-97045495D01*
X126903361Y-96997876D01*
X126950980Y-96902638D01*
X126950980Y-96712161D01*
X126903361Y-96616923D01*
X126855742Y-96569304D01*
X126760504Y-96521685D01*
X126522409Y-96521685D01*
X126427171Y-96569304D01*
X126379552Y-96616923D01*
X126331933Y-96712161D01*
X126331933Y-96902638D01*
X126379552Y-96997876D01*
X126427171Y-97045495D01*
X126522409Y-97093114D01*
X108154980Y-98045495D02*
X107154980Y-98045495D01*
X107154980Y-97807400D01*
X107202600Y-97664542D01*
X107297838Y-97569304D01*
X107393076Y-97521685D01*
X107583552Y-97474066D01*
X107726409Y-97474066D01*
X107916885Y-97521685D01*
X108012123Y-97569304D01*
X108107361Y-97664542D01*
X108154980Y-97807400D01*
X108154980Y-98045495D01*
X107250219Y-97093114D02*
X107202600Y-97045495D01*
X107154980Y-96950257D01*
X107154980Y-96712161D01*
X107202600Y-96616923D01*
X107250219Y-96569304D01*
X107345457Y-96521685D01*
X107440695Y-96521685D01*
X107583552Y-96569304D01*
X108154980Y-97140733D01*
X108154980Y-96521685D01*
X108154980Y-116841495D02*
X107154980Y-116841495D01*
X107154980Y-116603400D01*
X107202600Y-116460542D01*
X107297838Y-116365304D01*
X107393076Y-116317685D01*
X107583552Y-116270066D01*
X107726409Y-116270066D01*
X107916885Y-116317685D01*
X108012123Y-116365304D01*
X108107361Y-116460542D01*
X108154980Y-116603400D01*
X108154980Y-116841495D01*
X107154980Y-115936733D02*
X107154980Y-115317685D01*
X107535933Y-115651019D01*
X107535933Y-115508161D01*
X107583552Y-115412923D01*
X107631171Y-115365304D01*
X107726409Y-115317685D01*
X107964504Y-115317685D01*
X108059742Y-115365304D01*
X108107361Y-115412923D01*
X108154980Y-115508161D01*
X108154980Y-115793876D01*
X108107361Y-115889114D01*
X108059742Y-115936733D01*
X108154980Y-79186294D02*
X107154980Y-79186294D01*
X107154980Y-78948199D01*
X107202600Y-78805341D01*
X107297838Y-78710103D01*
X107393076Y-78662484D01*
X107583552Y-78614865D01*
X107726409Y-78614865D01*
X107916885Y-78662484D01*
X108012123Y-78710103D01*
X108107361Y-78805341D01*
X108154980Y-78948199D01*
X108154980Y-79186294D01*
X108154980Y-77662484D02*
X108154980Y-78233913D01*
X108154980Y-77948199D02*
X107154980Y-77948199D01*
X107297838Y-78043437D01*
X107393076Y-78138675D01*
X107440695Y-78233913D01*
X126950980Y-79186294D02*
X125950980Y-79186294D01*
X125950980Y-78948199D01*
X125998600Y-78805341D01*
X126093838Y-78710103D01*
X126189076Y-78662484D01*
X126379552Y-78614865D01*
X126522409Y-78614865D01*
X126712885Y-78662484D01*
X126808123Y-78710103D01*
X126903361Y-78805341D01*
X126950980Y-78948199D01*
X126950980Y-79186294D01*
X125950980Y-77710103D02*
X125950980Y-78186294D01*
X126427171Y-78233913D01*
X126379552Y-78186294D01*
X126331933Y-78091056D01*
X126331933Y-77852960D01*
X126379552Y-77757722D01*
X126427171Y-77710103D01*
X126522409Y-77662484D01*
X126760504Y-77662484D01*
X126855742Y-77710103D01*
X126903361Y-77757722D01*
X126950980Y-77852960D01*
X126950980Y-78091056D01*
X126903361Y-78186294D01*
X126855742Y-78233913D01*
X145746980Y-79186294D02*
X144746980Y-79186294D01*
X144746980Y-78948199D01*
X144794600Y-78805341D01*
X144889838Y-78710103D01*
X144985076Y-78662484D01*
X145175552Y-78614865D01*
X145318409Y-78614865D01*
X145508885Y-78662484D01*
X145604123Y-78710103D01*
X145699361Y-78805341D01*
X145746980Y-78948199D01*
X145746980Y-79186294D01*
X145746980Y-78138675D02*
X145746980Y-77948199D01*
X145699361Y-77852960D01*
X145651742Y-77805341D01*
X145508885Y-77710103D01*
X145318409Y-77662484D01*
X144937457Y-77662484D01*
X144842219Y-77710103D01*
X144794600Y-77757722D01*
X144746980Y-77852960D01*
X144746980Y-78043437D01*
X144794600Y-78138675D01*
X144842219Y-78186294D01*
X144937457Y-78233913D01*
X145175552Y-78233913D01*
X145270790Y-78186294D01*
X145318409Y-78138675D01*
X145366028Y-78043437D01*
X145366028Y-77852960D01*
X145318409Y-77757722D01*
X145270790Y-77710103D01*
X145175552Y-77662484D01*
X164542980Y-79662484D02*
X163542980Y-79662484D01*
X163542980Y-79424389D01*
X163590600Y-79281532D01*
X163685838Y-79186294D01*
X163781076Y-79138675D01*
X163971552Y-79091056D01*
X164114409Y-79091056D01*
X164304885Y-79138675D01*
X164400123Y-79186294D01*
X164495361Y-79281532D01*
X164542980Y-79424389D01*
X164542980Y-79662484D01*
X164542980Y-78138675D02*
X164542980Y-78710103D01*
X164542980Y-78424389D02*
X163542980Y-78424389D01*
X163685838Y-78519627D01*
X163781076Y-78614865D01*
X163828695Y-78710103D01*
X163542980Y-77805341D02*
X163542980Y-77186294D01*
X163923933Y-77519627D01*
X163923933Y-77376770D01*
X163971552Y-77281532D01*
X164019171Y-77233913D01*
X164114409Y-77186294D01*
X164352504Y-77186294D01*
X164447742Y-77233913D01*
X164495361Y-77281532D01*
X164542980Y-77376770D01*
X164542980Y-77662484D01*
X164495361Y-77757722D01*
X164447742Y-77805341D01*
D18*
X152918885Y-128529447D02*
X153136600Y-128589923D01*
X153499457Y-128589923D01*
X153644600Y-128529447D01*
X153717171Y-128468971D01*
X153789742Y-128348019D01*
X153789742Y-128227066D01*
X153717171Y-128106114D01*
X153644600Y-128045638D01*
X153499457Y-127985161D01*
X153209171Y-127924685D01*
X153064028Y-127864209D01*
X152991457Y-127803733D01*
X152918885Y-127682780D01*
X152918885Y-127561828D01*
X152991457Y-127440876D01*
X153064028Y-127380400D01*
X153209171Y-127319923D01*
X153572028Y-127319923D01*
X153789742Y-127380400D01*
X154297742Y-127319923D02*
X154660600Y-128589923D01*
X154950885Y-127682780D01*
X155241171Y-128589923D01*
X155604028Y-127319923D01*
X156982885Y-128589923D02*
X156112028Y-128589923D01*
X156547457Y-128589923D02*
X156547457Y-127319923D01*
X156402314Y-127501352D01*
X156257171Y-127622304D01*
X156112028Y-127682780D01*
X157563457Y-127440876D02*
X157636028Y-127380400D01*
X157781171Y-127319923D01*
X158144028Y-127319923D01*
X158289171Y-127380400D01*
X158361742Y-127440876D01*
X158434314Y-127561828D01*
X158434314Y-127682780D01*
X158361742Y-127864209D01*
X157490885Y-128589923D01*
X158434314Y-128589923D01*
X171714885Y-128529447D02*
X171932600Y-128589923D01*
X172295457Y-128589923D01*
X172440600Y-128529447D01*
X172513171Y-128468971D01*
X172585742Y-128348019D01*
X172585742Y-128227066D01*
X172513171Y-128106114D01*
X172440600Y-128045638D01*
X172295457Y-127985161D01*
X172005171Y-127924685D01*
X171860028Y-127864209D01*
X171787457Y-127803733D01*
X171714885Y-127682780D01*
X171714885Y-127561828D01*
X171787457Y-127440876D01*
X171860028Y-127380400D01*
X172005171Y-127319923D01*
X172368028Y-127319923D01*
X172585742Y-127380400D01*
X173093742Y-127319923D02*
X173456600Y-128589923D01*
X173746885Y-127682780D01*
X174037171Y-128589923D01*
X174400028Y-127319923D01*
X175778885Y-128589923D02*
X174908028Y-128589923D01*
X175343457Y-128589923D02*
X175343457Y-127319923D01*
X175198314Y-127501352D01*
X175053171Y-127622304D01*
X174908028Y-127682780D01*
X177085171Y-127319923D02*
X176794885Y-127319923D01*
X176649742Y-127380400D01*
X176577171Y-127440876D01*
X176432028Y-127622304D01*
X176359457Y-127864209D01*
X176359457Y-128348019D01*
X176432028Y-128468971D01*
X176504600Y-128529447D01*
X176649742Y-128589923D01*
X176940028Y-128589923D01*
X177085171Y-128529447D01*
X177157742Y-128468971D01*
X177230314Y-128348019D01*
X177230314Y-128045638D01*
X177157742Y-127924685D01*
X177085171Y-127864209D01*
X176940028Y-127803733D01*
X176649742Y-127803733D01*
X176504600Y-127864209D01*
X176432028Y-127924685D01*
X176359457Y-128045638D01*
X116052600Y-128529447D02*
X116270314Y-128589923D01*
X116633171Y-128589923D01*
X116778314Y-128529447D01*
X116850885Y-128468971D01*
X116923457Y-128348019D01*
X116923457Y-128227066D01*
X116850885Y-128106114D01*
X116778314Y-128045638D01*
X116633171Y-127985161D01*
X116342885Y-127924685D01*
X116197742Y-127864209D01*
X116125171Y-127803733D01*
X116052600Y-127682780D01*
X116052600Y-127561828D01*
X116125171Y-127440876D01*
X116197742Y-127380400D01*
X116342885Y-127319923D01*
X116705742Y-127319923D01*
X116923457Y-127380400D01*
X117431457Y-127319923D02*
X117794314Y-128589923D01*
X118084600Y-127682780D01*
X118374885Y-128589923D01*
X118737742Y-127319923D01*
X119971457Y-127743257D02*
X119971457Y-128589923D01*
X119608600Y-127259447D02*
X119245742Y-128166590D01*
X120189171Y-128166590D01*
X134848600Y-128529447D02*
X135066314Y-128589923D01*
X135429171Y-128589923D01*
X135574314Y-128529447D01*
X135646885Y-128468971D01*
X135719457Y-128348019D01*
X135719457Y-128227066D01*
X135646885Y-128106114D01*
X135574314Y-128045638D01*
X135429171Y-127985161D01*
X135138885Y-127924685D01*
X134993742Y-127864209D01*
X134921171Y-127803733D01*
X134848600Y-127682780D01*
X134848600Y-127561828D01*
X134921171Y-127440876D01*
X134993742Y-127380400D01*
X135138885Y-127319923D01*
X135501742Y-127319923D01*
X135719457Y-127380400D01*
X136227457Y-127319923D02*
X136590314Y-128589923D01*
X136880600Y-127682780D01*
X137170885Y-128589923D01*
X137533742Y-127319923D01*
X138332028Y-127864209D02*
X138186885Y-127803733D01*
X138114314Y-127743257D01*
X138041742Y-127622304D01*
X138041742Y-127561828D01*
X138114314Y-127440876D01*
X138186885Y-127380400D01*
X138332028Y-127319923D01*
X138622314Y-127319923D01*
X138767457Y-127380400D01*
X138840028Y-127440876D01*
X138912600Y-127561828D01*
X138912600Y-127622304D01*
X138840028Y-127743257D01*
X138767457Y-127803733D01*
X138622314Y-127864209D01*
X138332028Y-127864209D01*
X138186885Y-127924685D01*
X138114314Y-127985161D01*
X138041742Y-128106114D01*
X138041742Y-128348019D01*
X138114314Y-128468971D01*
X138186885Y-128529447D01*
X138332028Y-128589923D01*
X138622314Y-128589923D01*
X138767457Y-128529447D01*
X138840028Y-128468971D01*
X138912600Y-128348019D01*
X138912600Y-128106114D01*
X138840028Y-127985161D01*
X138767457Y-127924685D01*
X138622314Y-127864209D01*
X152918885Y-109733447D02*
X153136600Y-109793923D01*
X153499457Y-109793923D01*
X153644600Y-109733447D01*
X153717171Y-109672971D01*
X153789742Y-109552019D01*
X153789742Y-109431066D01*
X153717171Y-109310114D01*
X153644600Y-109249638D01*
X153499457Y-109189161D01*
X153209171Y-109128685D01*
X153064028Y-109068209D01*
X152991457Y-109007733D01*
X152918885Y-108886780D01*
X152918885Y-108765828D01*
X152991457Y-108644876D01*
X153064028Y-108584400D01*
X153209171Y-108523923D01*
X153572028Y-108523923D01*
X153789742Y-108584400D01*
X154297742Y-108523923D02*
X154660600Y-109793923D01*
X154950885Y-108886780D01*
X155241171Y-109793923D01*
X155604028Y-108523923D01*
X156982885Y-109793923D02*
X156112028Y-109793923D01*
X156547457Y-109793923D02*
X156547457Y-108523923D01*
X156402314Y-108705352D01*
X156257171Y-108826304D01*
X156112028Y-108886780D01*
X158434314Y-109793923D02*
X157563457Y-109793923D01*
X157998885Y-109793923D02*
X157998885Y-108523923D01*
X157853742Y-108705352D01*
X157708600Y-108826304D01*
X157563457Y-108886780D01*
X171714885Y-109733447D02*
X171932600Y-109793923D01*
X172295457Y-109793923D01*
X172440600Y-109733447D01*
X172513171Y-109672971D01*
X172585742Y-109552019D01*
X172585742Y-109431066D01*
X172513171Y-109310114D01*
X172440600Y-109249638D01*
X172295457Y-109189161D01*
X172005171Y-109128685D01*
X171860028Y-109068209D01*
X171787457Y-109007733D01*
X171714885Y-108886780D01*
X171714885Y-108765828D01*
X171787457Y-108644876D01*
X171860028Y-108584400D01*
X172005171Y-108523923D01*
X172368028Y-108523923D01*
X172585742Y-108584400D01*
X173093742Y-108523923D02*
X173456600Y-109793923D01*
X173746885Y-108886780D01*
X174037171Y-109793923D01*
X174400028Y-108523923D01*
X175778885Y-109793923D02*
X174908028Y-109793923D01*
X175343457Y-109793923D02*
X175343457Y-108523923D01*
X175198314Y-108705352D01*
X175053171Y-108826304D01*
X174908028Y-108886780D01*
X177157742Y-108523923D02*
X176432028Y-108523923D01*
X176359457Y-109128685D01*
X176432028Y-109068209D01*
X176577171Y-109007733D01*
X176940028Y-109007733D01*
X177085171Y-109068209D01*
X177157742Y-109128685D01*
X177230314Y-109249638D01*
X177230314Y-109552019D01*
X177157742Y-109672971D01*
X177085171Y-109733447D01*
X176940028Y-109793923D01*
X176577171Y-109793923D01*
X176432028Y-109733447D01*
X176359457Y-109672971D01*
X171714885Y-90937447D02*
X171932600Y-90997923D01*
X172295457Y-90997923D01*
X172440600Y-90937447D01*
X172513171Y-90876971D01*
X172585742Y-90756019D01*
X172585742Y-90635066D01*
X172513171Y-90514114D01*
X172440600Y-90453638D01*
X172295457Y-90393161D01*
X172005171Y-90332685D01*
X171860028Y-90272209D01*
X171787457Y-90211733D01*
X171714885Y-90090780D01*
X171714885Y-89969828D01*
X171787457Y-89848876D01*
X171860028Y-89788400D01*
X172005171Y-89727923D01*
X172368028Y-89727923D01*
X172585742Y-89788400D01*
X173093742Y-89727923D02*
X173456600Y-90997923D01*
X173746885Y-90090780D01*
X174037171Y-90997923D01*
X174400028Y-89727923D01*
X175778885Y-90997923D02*
X174908028Y-90997923D01*
X175343457Y-90997923D02*
X175343457Y-89727923D01*
X175198314Y-89909352D01*
X175053171Y-90030304D01*
X174908028Y-90090780D01*
X177085171Y-90151257D02*
X177085171Y-90997923D01*
X176722314Y-89667447D02*
X176359457Y-90574590D01*
X177302885Y-90574590D01*
X134848600Y-90937447D02*
X135066314Y-90997923D01*
X135429171Y-90997923D01*
X135574314Y-90937447D01*
X135646885Y-90876971D01*
X135719457Y-90756019D01*
X135719457Y-90635066D01*
X135646885Y-90514114D01*
X135574314Y-90453638D01*
X135429171Y-90393161D01*
X135138885Y-90332685D01*
X134993742Y-90272209D01*
X134921171Y-90211733D01*
X134848600Y-90090780D01*
X134848600Y-89969828D01*
X134921171Y-89848876D01*
X134993742Y-89788400D01*
X135138885Y-89727923D01*
X135501742Y-89727923D01*
X135719457Y-89788400D01*
X136227457Y-89727923D02*
X136590314Y-90997923D01*
X136880600Y-90090780D01*
X137170885Y-90997923D01*
X137533742Y-89727923D01*
X138767457Y-89727923D02*
X138477171Y-89727923D01*
X138332028Y-89788400D01*
X138259457Y-89848876D01*
X138114314Y-90030304D01*
X138041742Y-90272209D01*
X138041742Y-90756019D01*
X138114314Y-90876971D01*
X138186885Y-90937447D01*
X138332028Y-90997923D01*
X138622314Y-90997923D01*
X138767457Y-90937447D01*
X138840028Y-90876971D01*
X138912600Y-90756019D01*
X138912600Y-90453638D01*
X138840028Y-90332685D01*
X138767457Y-90272209D01*
X138622314Y-90211733D01*
X138332028Y-90211733D01*
X138186885Y-90272209D01*
X138114314Y-90332685D01*
X138041742Y-90453638D01*
X116052600Y-90937447D02*
X116270314Y-90997923D01*
X116633171Y-90997923D01*
X116778314Y-90937447D01*
X116850885Y-90876971D01*
X116923457Y-90756019D01*
X116923457Y-90635066D01*
X116850885Y-90514114D01*
X116778314Y-90453638D01*
X116633171Y-90393161D01*
X116342885Y-90332685D01*
X116197742Y-90272209D01*
X116125171Y-90211733D01*
X116052600Y-90090780D01*
X116052600Y-89969828D01*
X116125171Y-89848876D01*
X116197742Y-89788400D01*
X116342885Y-89727923D01*
X116705742Y-89727923D01*
X116923457Y-89788400D01*
X117431457Y-89727923D02*
X117794314Y-90997923D01*
X118084600Y-90090780D01*
X118374885Y-90997923D01*
X118737742Y-89727923D01*
X119245742Y-89848876D02*
X119318314Y-89788400D01*
X119463457Y-89727923D01*
X119826314Y-89727923D01*
X119971457Y-89788400D01*
X120044028Y-89848876D01*
X120116600Y-89969828D01*
X120116600Y-90090780D01*
X120044028Y-90272209D01*
X119173171Y-90997923D01*
X120116600Y-90997923D01*
X116052600Y-109733447D02*
X116270314Y-109793923D01*
X116633171Y-109793923D01*
X116778314Y-109733447D01*
X116850885Y-109672971D01*
X116923457Y-109552019D01*
X116923457Y-109431066D01*
X116850885Y-109310114D01*
X116778314Y-109249638D01*
X116633171Y-109189161D01*
X116342885Y-109128685D01*
X116197742Y-109068209D01*
X116125171Y-109007733D01*
X116052600Y-108886780D01*
X116052600Y-108765828D01*
X116125171Y-108644876D01*
X116197742Y-108584400D01*
X116342885Y-108523923D01*
X116705742Y-108523923D01*
X116923457Y-108584400D01*
X117431457Y-108523923D02*
X117794314Y-109793923D01*
X118084600Y-108886780D01*
X118374885Y-109793923D01*
X118737742Y-108523923D01*
X119173171Y-108523923D02*
X120116600Y-108523923D01*
X119608600Y-109007733D01*
X119826314Y-109007733D01*
X119971457Y-109068209D01*
X120044028Y-109128685D01*
X120116600Y-109249638D01*
X120116600Y-109552019D01*
X120044028Y-109672971D01*
X119971457Y-109733447D01*
X119826314Y-109793923D01*
X119390885Y-109793923D01*
X119245742Y-109733447D01*
X119173171Y-109672971D01*
X133070600Y-74326447D02*
X133288314Y-74386923D01*
X133651171Y-74386923D01*
X133796314Y-74326447D01*
X133868885Y-74265971D01*
X133941457Y-74145019D01*
X133941457Y-74024066D01*
X133868885Y-73903114D01*
X133796314Y-73842638D01*
X133651171Y-73782161D01*
X133360885Y-73721685D01*
X133215742Y-73661209D01*
X133143171Y-73600733D01*
X133070600Y-73479780D01*
X133070600Y-73358828D01*
X133143171Y-73237876D01*
X133215742Y-73177400D01*
X133360885Y-73116923D01*
X133723742Y-73116923D01*
X133941457Y-73177400D01*
X134449457Y-73116923D02*
X134812314Y-74386923D01*
X135102600Y-73479780D01*
X135392885Y-74386923D01*
X135755742Y-73116923D01*
X137062028Y-73116923D02*
X136336314Y-73116923D01*
X136263742Y-73721685D01*
X136336314Y-73661209D01*
X136481457Y-73600733D01*
X136844314Y-73600733D01*
X136989457Y-73661209D01*
X137062028Y-73721685D01*
X137134600Y-73842638D01*
X137134600Y-74145019D01*
X137062028Y-74265971D01*
X136989457Y-74326447D01*
X136844314Y-74386923D01*
X136481457Y-74386923D01*
X136336314Y-74326447D01*
X136263742Y-74265971D01*
X151866600Y-74326447D02*
X152084314Y-74386923D01*
X152447171Y-74386923D01*
X152592314Y-74326447D01*
X152664885Y-74265971D01*
X152737457Y-74145019D01*
X152737457Y-74024066D01*
X152664885Y-73903114D01*
X152592314Y-73842638D01*
X152447171Y-73782161D01*
X152156885Y-73721685D01*
X152011742Y-73661209D01*
X151939171Y-73600733D01*
X151866600Y-73479780D01*
X151866600Y-73358828D01*
X151939171Y-73237876D01*
X152011742Y-73177400D01*
X152156885Y-73116923D01*
X152519742Y-73116923D01*
X152737457Y-73177400D01*
X153245457Y-73116923D02*
X153608314Y-74386923D01*
X153898600Y-73479780D01*
X154188885Y-74386923D01*
X154551742Y-73116923D01*
X155204885Y-74386923D02*
X155495171Y-74386923D01*
X155640314Y-74326447D01*
X155712885Y-74265971D01*
X155858028Y-74084542D01*
X155930600Y-73842638D01*
X155930600Y-73358828D01*
X155858028Y-73237876D01*
X155785457Y-73177400D01*
X155640314Y-73116923D01*
X155350028Y-73116923D01*
X155204885Y-73177400D01*
X155132314Y-73237876D01*
X155059742Y-73358828D01*
X155059742Y-73661209D01*
X155132314Y-73782161D01*
X155204885Y-73842638D01*
X155350028Y-73903114D01*
X155640314Y-73903114D01*
X155785457Y-73842638D01*
X155858028Y-73782161D01*
X155930600Y-73661209D01*
X169682885Y-74961447D02*
X169900600Y-75021923D01*
X170263457Y-75021923D01*
X170408600Y-74961447D01*
X170481171Y-74900971D01*
X170553742Y-74780019D01*
X170553742Y-74659066D01*
X170481171Y-74538114D01*
X170408600Y-74477638D01*
X170263457Y-74417161D01*
X169973171Y-74356685D01*
X169828028Y-74296209D01*
X169755457Y-74235733D01*
X169682885Y-74114780D01*
X169682885Y-73993828D01*
X169755457Y-73872876D01*
X169828028Y-73812400D01*
X169973171Y-73751923D01*
X170336028Y-73751923D01*
X170553742Y-73812400D01*
X171061742Y-73751923D02*
X171424600Y-75021923D01*
X171714885Y-74114780D01*
X172005171Y-75021923D01*
X172368028Y-73751923D01*
X173746885Y-75021923D02*
X172876028Y-75021923D01*
X173311457Y-75021923D02*
X173311457Y-73751923D01*
X173166314Y-73933352D01*
X173021171Y-74054304D01*
X172876028Y-74114780D01*
X174254885Y-73751923D02*
X175198314Y-73751923D01*
X174690314Y-74235733D01*
X174908028Y-74235733D01*
X175053171Y-74296209D01*
X175125742Y-74356685D01*
X175198314Y-74477638D01*
X175198314Y-74780019D01*
X175125742Y-74900971D01*
X175053171Y-74961447D01*
X174908028Y-75021923D01*
X174472600Y-75021923D01*
X174327457Y-74961447D01*
X174254885Y-74900971D01*
D11*
X150398314Y-143606780D02*
X150398314Y-142606780D01*
X150636409Y-142606780D01*
X150779266Y-142654400D01*
X150874504Y-142749638D01*
X150922123Y-142844876D01*
X150969742Y-143035352D01*
X150969742Y-143178209D01*
X150922123Y-143368685D01*
X150874504Y-143463923D01*
X150779266Y-143559161D01*
X150636409Y-143606780D01*
X150398314Y-143606780D01*
X151350695Y-142702019D02*
X151398314Y-142654400D01*
X151493552Y-142606780D01*
X151731647Y-142606780D01*
X151826885Y-142654400D01*
X151874504Y-142702019D01*
X151922123Y-142797257D01*
X151922123Y-142892495D01*
X151874504Y-143035352D01*
X151303076Y-143606780D01*
X151922123Y-143606780D01*
X152493552Y-143035352D02*
X152398314Y-142987733D01*
X152350695Y-142940114D01*
X152303076Y-142844876D01*
X152303076Y-142797257D01*
X152350695Y-142702019D01*
X152398314Y-142654400D01*
X152493552Y-142606780D01*
X152684028Y-142606780D01*
X152779266Y-142654400D01*
X152826885Y-142702019D01*
X152874504Y-142797257D01*
X152874504Y-142844876D01*
X152826885Y-142940114D01*
X152779266Y-142987733D01*
X152684028Y-143035352D01*
X152493552Y-143035352D01*
X152398314Y-143082971D01*
X152350695Y-143130590D01*
X152303076Y-143225828D01*
X152303076Y-143416304D01*
X152350695Y-143511542D01*
X152398314Y-143559161D01*
X152493552Y-143606780D01*
X152684028Y-143606780D01*
X152779266Y-143559161D01*
X152826885Y-143511542D01*
X152874504Y-143416304D01*
X152874504Y-143225828D01*
X152826885Y-143130590D01*
X152779266Y-143082971D01*
X152684028Y-143035352D01*
X144492742Y-143384542D02*
X144445123Y-143432161D01*
X144302266Y-143479780D01*
X144207028Y-143479780D01*
X144064171Y-143432161D01*
X143968933Y-143336923D01*
X143921314Y-143241685D01*
X143873695Y-143051209D01*
X143873695Y-142908352D01*
X143921314Y-142717876D01*
X143968933Y-142622638D01*
X144064171Y-142527400D01*
X144207028Y-142479780D01*
X144302266Y-142479780D01*
X144445123Y-142527400D01*
X144492742Y-142575019D01*
X145445123Y-143479780D02*
X144873695Y-143479780D01*
X145159409Y-143479780D02*
X145159409Y-142479780D01*
X145064171Y-142622638D01*
X144968933Y-142717876D01*
X144873695Y-142765495D01*
X145826076Y-142575019D02*
X145873695Y-142527400D01*
X145968933Y-142479780D01*
X146207028Y-142479780D01*
X146302266Y-142527400D01*
X146349885Y-142575019D01*
X146397504Y-142670257D01*
X146397504Y-142765495D01*
X146349885Y-142908352D01*
X145778457Y-143479780D01*
X146397504Y-143479780D01*
X163288742Y-143384542D02*
X163241123Y-143432161D01*
X163098266Y-143479780D01*
X163003028Y-143479780D01*
X162860171Y-143432161D01*
X162764933Y-143336923D01*
X162717314Y-143241685D01*
X162669695Y-143051209D01*
X162669695Y-142908352D01*
X162717314Y-142717876D01*
X162764933Y-142622638D01*
X162860171Y-142527400D01*
X163003028Y-142479780D01*
X163098266Y-142479780D01*
X163241123Y-142527400D01*
X163288742Y-142575019D01*
X164241123Y-143479780D02*
X163669695Y-143479780D01*
X163955409Y-143479780D02*
X163955409Y-142479780D01*
X163860171Y-142622638D01*
X163764933Y-142717876D01*
X163669695Y-142765495D01*
X165098266Y-142479780D02*
X164907790Y-142479780D01*
X164812552Y-142527400D01*
X164764933Y-142575019D01*
X164669695Y-142717876D01*
X164622076Y-142908352D01*
X164622076Y-143289304D01*
X164669695Y-143384542D01*
X164717314Y-143432161D01*
X164812552Y-143479780D01*
X165003028Y-143479780D01*
X165098266Y-143432161D01*
X165145885Y-143384542D01*
X165193504Y-143289304D01*
X165193504Y-143051209D01*
X165145885Y-142955971D01*
X165098266Y-142908352D01*
X165003028Y-142860733D01*
X164812552Y-142860733D01*
X164717314Y-142908352D01*
X164669695Y-142955971D01*
X164622076Y-143051209D01*
X169575314Y-143606780D02*
X169575314Y-142606780D01*
X169813409Y-142606780D01*
X169956266Y-142654400D01*
X170051504Y-142749638D01*
X170099123Y-142844876D01*
X170146742Y-143035352D01*
X170146742Y-143178209D01*
X170099123Y-143368685D01*
X170051504Y-143463923D01*
X169956266Y-143559161D01*
X169813409Y-143606780D01*
X169575314Y-143606780D01*
X170480076Y-142606780D02*
X171099123Y-142606780D01*
X170765790Y-142987733D01*
X170908647Y-142987733D01*
X171003885Y-143035352D01*
X171051504Y-143082971D01*
X171099123Y-143178209D01*
X171099123Y-143416304D01*
X171051504Y-143511542D01*
X171003885Y-143559161D01*
X170908647Y-143606780D01*
X170622933Y-143606780D01*
X170527695Y-143559161D01*
X170480076Y-143511542D01*
X171480076Y-142702019D02*
X171527695Y-142654400D01*
X171622933Y-142606780D01*
X171861028Y-142606780D01*
X171956266Y-142654400D01*
X172003885Y-142702019D01*
X172051504Y-142797257D01*
X172051504Y-142892495D01*
X172003885Y-143035352D01*
X171432457Y-143606780D01*
X172051504Y-143606780D01*
X126553933Y-143384542D02*
X126506314Y-143432161D01*
X126363457Y-143479780D01*
X126268219Y-143479780D01*
X126125361Y-143432161D01*
X126030123Y-143336923D01*
X125982504Y-143241685D01*
X125934885Y-143051209D01*
X125934885Y-142908352D01*
X125982504Y-142717876D01*
X126030123Y-142622638D01*
X126125361Y-142527400D01*
X126268219Y-142479780D01*
X126363457Y-142479780D01*
X126506314Y-142527400D01*
X126553933Y-142575019D01*
X127125361Y-142908352D02*
X127030123Y-142860733D01*
X126982504Y-142813114D01*
X126934885Y-142717876D01*
X126934885Y-142670257D01*
X126982504Y-142575019D01*
X127030123Y-142527400D01*
X127125361Y-142479780D01*
X127315838Y-142479780D01*
X127411076Y-142527400D01*
X127458695Y-142575019D01*
X127506314Y-142670257D01*
X127506314Y-142717876D01*
X127458695Y-142813114D01*
X127411076Y-142860733D01*
X127315838Y-142908352D01*
X127125361Y-142908352D01*
X127030123Y-142955971D01*
X126982504Y-143003590D01*
X126934885Y-143098828D01*
X126934885Y-143289304D01*
X126982504Y-143384542D01*
X127030123Y-143432161D01*
X127125361Y-143479780D01*
X127315838Y-143479780D01*
X127411076Y-143432161D01*
X127458695Y-143384542D01*
X127506314Y-143289304D01*
X127506314Y-143098828D01*
X127458695Y-143003590D01*
X127411076Y-142955971D01*
X127315838Y-142908352D01*
X107884933Y-143384542D02*
X107837314Y-143432161D01*
X107694457Y-143479780D01*
X107599219Y-143479780D01*
X107456361Y-143432161D01*
X107361123Y-143336923D01*
X107313504Y-143241685D01*
X107265885Y-143051209D01*
X107265885Y-142908352D01*
X107313504Y-142717876D01*
X107361123Y-142622638D01*
X107456361Y-142527400D01*
X107599219Y-142479780D01*
X107694457Y-142479780D01*
X107837314Y-142527400D01*
X107884933Y-142575019D01*
X108742076Y-142813114D02*
X108742076Y-143479780D01*
X108503980Y-142432161D02*
X108265885Y-143146447D01*
X108884933Y-143146447D01*
X113060314Y-143606780D02*
X113060314Y-142606780D01*
X113298409Y-142606780D01*
X113441266Y-142654400D01*
X113536504Y-142749638D01*
X113584123Y-142844876D01*
X113631742Y-143035352D01*
X113631742Y-143178209D01*
X113584123Y-143368685D01*
X113536504Y-143463923D01*
X113441266Y-143559161D01*
X113298409Y-143606780D01*
X113060314Y-143606780D01*
X114012695Y-142702019D02*
X114060314Y-142654400D01*
X114155552Y-142606780D01*
X114393647Y-142606780D01*
X114488885Y-142654400D01*
X114536504Y-142702019D01*
X114584123Y-142797257D01*
X114584123Y-142892495D01*
X114536504Y-143035352D01*
X113965076Y-143606780D01*
X114584123Y-143606780D01*
X115203171Y-142606780D02*
X115298409Y-142606780D01*
X115393647Y-142654400D01*
X115441266Y-142702019D01*
X115488885Y-142797257D01*
X115536504Y-142987733D01*
X115536504Y-143225828D01*
X115488885Y-143416304D01*
X115441266Y-143511542D01*
X115393647Y-143559161D01*
X115298409Y-143606780D01*
X115203171Y-143606780D01*
X115107933Y-143559161D01*
X115060314Y-143511542D01*
X115012695Y-143416304D01*
X114965076Y-143225828D01*
X114965076Y-142987733D01*
X115012695Y-142797257D01*
X115060314Y-142702019D01*
X115107933Y-142654400D01*
X115203171Y-142606780D01*
X131983314Y-143606780D02*
X131983314Y-142606780D01*
X132221409Y-142606780D01*
X132364266Y-142654400D01*
X132459504Y-142749638D01*
X132507123Y-142844876D01*
X132554742Y-143035352D01*
X132554742Y-143178209D01*
X132507123Y-143368685D01*
X132459504Y-143463923D01*
X132364266Y-143559161D01*
X132221409Y-143606780D01*
X131983314Y-143606780D01*
X132935695Y-142702019D02*
X132983314Y-142654400D01*
X133078552Y-142606780D01*
X133316647Y-142606780D01*
X133411885Y-142654400D01*
X133459504Y-142702019D01*
X133507123Y-142797257D01*
X133507123Y-142892495D01*
X133459504Y-143035352D01*
X132888076Y-143606780D01*
X133507123Y-143606780D01*
X134364266Y-142940114D02*
X134364266Y-143606780D01*
X134126171Y-142559161D02*
X133888076Y-143273447D01*
X134507123Y-143273447D01*
X150271314Y-106268780D02*
X150271314Y-105268780D01*
X150509409Y-105268780D01*
X150652266Y-105316400D01*
X150747504Y-105411638D01*
X150795123Y-105506876D01*
X150842742Y-105697352D01*
X150842742Y-105840209D01*
X150795123Y-106030685D01*
X150747504Y-106125923D01*
X150652266Y-106221161D01*
X150509409Y-106268780D01*
X150271314Y-106268780D01*
X151223695Y-105364019D02*
X151271314Y-105316400D01*
X151366552Y-105268780D01*
X151604647Y-105268780D01*
X151699885Y-105316400D01*
X151747504Y-105364019D01*
X151795123Y-105459257D01*
X151795123Y-105554495D01*
X151747504Y-105697352D01*
X151176076Y-106268780D01*
X151795123Y-106268780D01*
X152652266Y-105268780D02*
X152461790Y-105268780D01*
X152366552Y-105316400D01*
X152318933Y-105364019D01*
X152223695Y-105506876D01*
X152176076Y-105697352D01*
X152176076Y-106078304D01*
X152223695Y-106173542D01*
X152271314Y-106221161D01*
X152366552Y-106268780D01*
X152557028Y-106268780D01*
X152652266Y-106221161D01*
X152699885Y-106173542D01*
X152747504Y-106078304D01*
X152747504Y-105840209D01*
X152699885Y-105744971D01*
X152652266Y-105697352D01*
X152557028Y-105649733D01*
X152366552Y-105649733D01*
X152271314Y-105697352D01*
X152223695Y-105744971D01*
X152176076Y-105840209D01*
X150144314Y-124937780D02*
X150144314Y-123937780D01*
X150382409Y-123937780D01*
X150525266Y-123985400D01*
X150620504Y-124080638D01*
X150668123Y-124175876D01*
X150715742Y-124366352D01*
X150715742Y-124509209D01*
X150668123Y-124699685D01*
X150620504Y-124794923D01*
X150525266Y-124890161D01*
X150382409Y-124937780D01*
X150144314Y-124937780D01*
X151096695Y-124033019D02*
X151144314Y-123985400D01*
X151239552Y-123937780D01*
X151477647Y-123937780D01*
X151572885Y-123985400D01*
X151620504Y-124033019D01*
X151668123Y-124128257D01*
X151668123Y-124223495D01*
X151620504Y-124366352D01*
X151049076Y-124937780D01*
X151668123Y-124937780D01*
X152001457Y-123937780D02*
X152668123Y-123937780D01*
X152239552Y-124937780D01*
X169321314Y-106395780D02*
X169321314Y-105395780D01*
X169559409Y-105395780D01*
X169702266Y-105443400D01*
X169797504Y-105538638D01*
X169845123Y-105633876D01*
X169892742Y-105824352D01*
X169892742Y-105967209D01*
X169845123Y-106157685D01*
X169797504Y-106252923D01*
X169702266Y-106348161D01*
X169559409Y-106395780D01*
X169321314Y-106395780D01*
X170226076Y-105395780D02*
X170845123Y-105395780D01*
X170511790Y-105776733D01*
X170654647Y-105776733D01*
X170749885Y-105824352D01*
X170797504Y-105871971D01*
X170845123Y-105967209D01*
X170845123Y-106205304D01*
X170797504Y-106300542D01*
X170749885Y-106348161D01*
X170654647Y-106395780D01*
X170368933Y-106395780D01*
X170273695Y-106348161D01*
X170226076Y-106300542D01*
X171464171Y-105395780D02*
X171559409Y-105395780D01*
X171654647Y-105443400D01*
X171702266Y-105491019D01*
X171749885Y-105586257D01*
X171797504Y-105776733D01*
X171797504Y-106014828D01*
X171749885Y-106205304D01*
X171702266Y-106300542D01*
X171654647Y-106348161D01*
X171559409Y-106395780D01*
X171464171Y-106395780D01*
X171368933Y-106348161D01*
X171321314Y-106300542D01*
X171273695Y-106205304D01*
X171226076Y-106014828D01*
X171226076Y-105776733D01*
X171273695Y-105586257D01*
X171321314Y-105491019D01*
X171368933Y-105443400D01*
X171464171Y-105395780D01*
X169448314Y-124810780D02*
X169448314Y-123810780D01*
X169686409Y-123810780D01*
X169829266Y-123858400D01*
X169924504Y-123953638D01*
X169972123Y-124048876D01*
X170019742Y-124239352D01*
X170019742Y-124382209D01*
X169972123Y-124572685D01*
X169924504Y-124667923D01*
X169829266Y-124763161D01*
X169686409Y-124810780D01*
X169448314Y-124810780D01*
X170353076Y-123810780D02*
X170972123Y-123810780D01*
X170638790Y-124191733D01*
X170781647Y-124191733D01*
X170876885Y-124239352D01*
X170924504Y-124286971D01*
X170972123Y-124382209D01*
X170972123Y-124620304D01*
X170924504Y-124715542D01*
X170876885Y-124763161D01*
X170781647Y-124810780D01*
X170495933Y-124810780D01*
X170400695Y-124763161D01*
X170353076Y-124715542D01*
X171924504Y-124810780D02*
X171353076Y-124810780D01*
X171638790Y-124810780D02*
X171638790Y-123810780D01*
X171543552Y-123953638D01*
X171448314Y-124048876D01*
X171353076Y-124096495D01*
X112933314Y-124937780D02*
X112933314Y-123937780D01*
X113171409Y-123937780D01*
X113314266Y-123985400D01*
X113409504Y-124080638D01*
X113457123Y-124175876D01*
X113504742Y-124366352D01*
X113504742Y-124509209D01*
X113457123Y-124699685D01*
X113409504Y-124794923D01*
X113314266Y-124890161D01*
X113171409Y-124937780D01*
X112933314Y-124937780D01*
X114457123Y-124937780D02*
X113885695Y-124937780D01*
X114171409Y-124937780D02*
X114171409Y-123937780D01*
X114076171Y-124080638D01*
X113980933Y-124175876D01*
X113885695Y-124223495D01*
X114933314Y-124937780D02*
X115123790Y-124937780D01*
X115219028Y-124890161D01*
X115266647Y-124842542D01*
X115361885Y-124699685D01*
X115409504Y-124509209D01*
X115409504Y-124128257D01*
X115361885Y-124033019D01*
X115314266Y-123985400D01*
X115219028Y-123937780D01*
X115028552Y-123937780D01*
X114933314Y-123985400D01*
X114885695Y-124033019D01*
X114838076Y-124128257D01*
X114838076Y-124366352D01*
X114885695Y-124461590D01*
X114933314Y-124509209D01*
X115028552Y-124556828D01*
X115219028Y-124556828D01*
X115314266Y-124509209D01*
X115361885Y-124461590D01*
X115409504Y-124366352D01*
X128458933Y-125350542D02*
X128411314Y-125398161D01*
X128268457Y-125445780D01*
X128173219Y-125445780D01*
X128030361Y-125398161D01*
X127935123Y-125302923D01*
X127887504Y-125207685D01*
X127839885Y-125017209D01*
X127839885Y-124874352D01*
X127887504Y-124683876D01*
X127935123Y-124588638D01*
X128030361Y-124493400D01*
X128173219Y-124445780D01*
X128268457Y-124445780D01*
X128411314Y-124493400D01*
X128458933Y-124541019D01*
X128792266Y-124445780D02*
X129458933Y-124445780D01*
X129030361Y-125445780D01*
X131602314Y-124937780D02*
X131602314Y-123937780D01*
X131840409Y-123937780D01*
X131983266Y-123985400D01*
X132078504Y-124080638D01*
X132126123Y-124175876D01*
X132173742Y-124366352D01*
X132173742Y-124509209D01*
X132126123Y-124699685D01*
X132078504Y-124794923D01*
X131983266Y-124890161D01*
X131840409Y-124937780D01*
X131602314Y-124937780D01*
X132554695Y-124033019D02*
X132602314Y-123985400D01*
X132697552Y-123937780D01*
X132935647Y-123937780D01*
X133030885Y-123985400D01*
X133078504Y-124033019D01*
X133126123Y-124128257D01*
X133126123Y-124223495D01*
X133078504Y-124366352D01*
X132507076Y-124937780D01*
X133126123Y-124937780D01*
X133459457Y-123937780D02*
X134078504Y-123937780D01*
X133745171Y-124318733D01*
X133888028Y-124318733D01*
X133983266Y-124366352D01*
X134030885Y-124413971D01*
X134078504Y-124509209D01*
X134078504Y-124747304D01*
X134030885Y-124842542D01*
X133983266Y-124890161D01*
X133888028Y-124937780D01*
X133602314Y-124937780D01*
X133507076Y-124890161D01*
X133459457Y-124842542D01*
X112933314Y-106141780D02*
X112933314Y-105141780D01*
X113171409Y-105141780D01*
X113314266Y-105189400D01*
X113409504Y-105284638D01*
X113457123Y-105379876D01*
X113504742Y-105570352D01*
X113504742Y-105713209D01*
X113457123Y-105903685D01*
X113409504Y-105998923D01*
X113314266Y-106094161D01*
X113171409Y-106141780D01*
X112933314Y-106141780D01*
X114457123Y-106141780D02*
X113885695Y-106141780D01*
X114171409Y-106141780D02*
X114171409Y-105141780D01*
X114076171Y-105284638D01*
X113980933Y-105379876D01*
X113885695Y-105427495D01*
X115028552Y-105570352D02*
X114933314Y-105522733D01*
X114885695Y-105475114D01*
X114838076Y-105379876D01*
X114838076Y-105332257D01*
X114885695Y-105237019D01*
X114933314Y-105189400D01*
X115028552Y-105141780D01*
X115219028Y-105141780D01*
X115314266Y-105189400D01*
X115361885Y-105237019D01*
X115409504Y-105332257D01*
X115409504Y-105379876D01*
X115361885Y-105475114D01*
X115314266Y-105522733D01*
X115219028Y-105570352D01*
X115028552Y-105570352D01*
X114933314Y-105617971D01*
X114885695Y-105665590D01*
X114838076Y-105760828D01*
X114838076Y-105951304D01*
X114885695Y-106046542D01*
X114933314Y-106094161D01*
X115028552Y-106141780D01*
X115219028Y-106141780D01*
X115314266Y-106094161D01*
X115361885Y-106046542D01*
X115409504Y-105951304D01*
X115409504Y-105760828D01*
X115361885Y-105665590D01*
X115314266Y-105617971D01*
X115219028Y-105570352D01*
X128458933Y-106554542D02*
X128411314Y-106602161D01*
X128268457Y-106649780D01*
X128173219Y-106649780D01*
X128030361Y-106602161D01*
X127935123Y-106506923D01*
X127887504Y-106411685D01*
X127839885Y-106221209D01*
X127839885Y-106078352D01*
X127887504Y-105887876D01*
X127935123Y-105792638D01*
X128030361Y-105697400D01*
X128173219Y-105649780D01*
X128268457Y-105649780D01*
X128411314Y-105697400D01*
X128458933Y-105745019D01*
X129316076Y-105649780D02*
X129125600Y-105649780D01*
X129030361Y-105697400D01*
X128982742Y-105745019D01*
X128887504Y-105887876D01*
X128839885Y-106078352D01*
X128839885Y-106459304D01*
X128887504Y-106554542D01*
X128935123Y-106602161D01*
X129030361Y-106649780D01*
X129220838Y-106649780D01*
X129316076Y-106602161D01*
X129363695Y-106554542D01*
X129411314Y-106459304D01*
X129411314Y-106221209D01*
X129363695Y-106125971D01*
X129316076Y-106078352D01*
X129220838Y-106030733D01*
X129030361Y-106030733D01*
X128935123Y-106078352D01*
X128887504Y-106125971D01*
X128839885Y-106221209D01*
X131602314Y-106268780D02*
X131602314Y-105268780D01*
X131840409Y-105268780D01*
X131983266Y-105316400D01*
X132078504Y-105411638D01*
X132126123Y-105506876D01*
X132173742Y-105697352D01*
X132173742Y-105840209D01*
X132126123Y-106030685D01*
X132078504Y-106125923D01*
X131983266Y-106221161D01*
X131840409Y-106268780D01*
X131602314Y-106268780D01*
X132554695Y-105364019D02*
X132602314Y-105316400D01*
X132697552Y-105268780D01*
X132935647Y-105268780D01*
X133030885Y-105316400D01*
X133078504Y-105364019D01*
X133126123Y-105459257D01*
X133126123Y-105554495D01*
X133078504Y-105697352D01*
X132507076Y-106268780D01*
X133126123Y-106268780D01*
X133507076Y-105364019D02*
X133554695Y-105316400D01*
X133649933Y-105268780D01*
X133888028Y-105268780D01*
X133983266Y-105316400D01*
X134030885Y-105364019D01*
X134078504Y-105459257D01*
X134078504Y-105554495D01*
X134030885Y-105697352D01*
X133459457Y-106268780D01*
X134078504Y-106268780D01*
X147032742Y-106554542D02*
X146985123Y-106602161D01*
X146842266Y-106649780D01*
X146747028Y-106649780D01*
X146604171Y-106602161D01*
X146508933Y-106506923D01*
X146461314Y-106411685D01*
X146413695Y-106221209D01*
X146413695Y-106078352D01*
X146461314Y-105887876D01*
X146508933Y-105792638D01*
X146604171Y-105697400D01*
X146747028Y-105649780D01*
X146842266Y-105649780D01*
X146985123Y-105697400D01*
X147032742Y-105745019D01*
X147985123Y-106649780D02*
X147413695Y-106649780D01*
X147699409Y-106649780D02*
X147699409Y-105649780D01*
X147604171Y-105792638D01*
X147508933Y-105887876D01*
X147413695Y-105935495D01*
X148604171Y-105649780D02*
X148699409Y-105649780D01*
X148794647Y-105697400D01*
X148842266Y-105745019D01*
X148889885Y-105840257D01*
X148937504Y-106030733D01*
X148937504Y-106268828D01*
X148889885Y-106459304D01*
X148842266Y-106554542D01*
X148794647Y-106602161D01*
X148699409Y-106649780D01*
X148604171Y-106649780D01*
X148508933Y-106602161D01*
X148461314Y-106554542D01*
X148413695Y-106459304D01*
X148366076Y-106268828D01*
X148366076Y-106030733D01*
X148413695Y-105840257D01*
X148461314Y-105745019D01*
X148508933Y-105697400D01*
X148604171Y-105649780D01*
X165828742Y-106681542D02*
X165781123Y-106729161D01*
X165638266Y-106776780D01*
X165543028Y-106776780D01*
X165400171Y-106729161D01*
X165304933Y-106633923D01*
X165257314Y-106538685D01*
X165209695Y-106348209D01*
X165209695Y-106205352D01*
X165257314Y-106014876D01*
X165304933Y-105919638D01*
X165400171Y-105824400D01*
X165543028Y-105776780D01*
X165638266Y-105776780D01*
X165781123Y-105824400D01*
X165828742Y-105872019D01*
X166781123Y-106776780D02*
X166209695Y-106776780D01*
X166495409Y-106776780D02*
X166495409Y-105776780D01*
X166400171Y-105919638D01*
X166304933Y-106014876D01*
X166209695Y-106062495D01*
X167638266Y-106110114D02*
X167638266Y-106776780D01*
X167400171Y-105729161D02*
X167162076Y-106443447D01*
X167781123Y-106443447D01*
X165955742Y-125350542D02*
X165908123Y-125398161D01*
X165765266Y-125445780D01*
X165670028Y-125445780D01*
X165527171Y-125398161D01*
X165431933Y-125302923D01*
X165384314Y-125207685D01*
X165336695Y-125017209D01*
X165336695Y-124874352D01*
X165384314Y-124683876D01*
X165431933Y-124588638D01*
X165527171Y-124493400D01*
X165670028Y-124445780D01*
X165765266Y-124445780D01*
X165908123Y-124493400D01*
X165955742Y-124541019D01*
X166908123Y-125445780D02*
X166336695Y-125445780D01*
X166622409Y-125445780D02*
X166622409Y-124445780D01*
X166527171Y-124588638D01*
X166431933Y-124683876D01*
X166336695Y-124731495D01*
X167812885Y-124445780D02*
X167336695Y-124445780D01*
X167289076Y-124921971D01*
X167336695Y-124874352D01*
X167431933Y-124826733D01*
X167670028Y-124826733D01*
X167765266Y-124874352D01*
X167812885Y-124921971D01*
X167860504Y-125017209D01*
X167860504Y-125255304D01*
X167812885Y-125350542D01*
X167765266Y-125398161D01*
X167670028Y-125445780D01*
X167431933Y-125445780D01*
X167336695Y-125398161D01*
X167289076Y-125350542D01*
X147032742Y-125350542D02*
X146985123Y-125398161D01*
X146842266Y-125445780D01*
X146747028Y-125445780D01*
X146604171Y-125398161D01*
X146508933Y-125302923D01*
X146461314Y-125207685D01*
X146413695Y-125017209D01*
X146413695Y-124874352D01*
X146461314Y-124683876D01*
X146508933Y-124588638D01*
X146604171Y-124493400D01*
X146747028Y-124445780D01*
X146842266Y-124445780D01*
X146985123Y-124493400D01*
X147032742Y-124541019D01*
X147985123Y-125445780D02*
X147413695Y-125445780D01*
X147699409Y-125445780D02*
X147699409Y-124445780D01*
X147604171Y-124588638D01*
X147508933Y-124683876D01*
X147413695Y-124731495D01*
X148937504Y-125445780D02*
X148366076Y-125445780D01*
X148651790Y-125445780D02*
X148651790Y-124445780D01*
X148556552Y-124588638D01*
X148461314Y-124683876D01*
X148366076Y-124731495D01*
X109662933Y-106554542D02*
X109615314Y-106602161D01*
X109472457Y-106649780D01*
X109377219Y-106649780D01*
X109234361Y-106602161D01*
X109139123Y-106506923D01*
X109091504Y-106411685D01*
X109043885Y-106221209D01*
X109043885Y-106078352D01*
X109091504Y-105887876D01*
X109139123Y-105792638D01*
X109234361Y-105697400D01*
X109377219Y-105649780D01*
X109472457Y-105649780D01*
X109615314Y-105697400D01*
X109662933Y-105745019D01*
X110043885Y-105745019D02*
X110091504Y-105697400D01*
X110186742Y-105649780D01*
X110424838Y-105649780D01*
X110520076Y-105697400D01*
X110567695Y-105745019D01*
X110615314Y-105840257D01*
X110615314Y-105935495D01*
X110567695Y-106078352D01*
X109996266Y-106649780D01*
X110615314Y-106649780D01*
X109662933Y-125350542D02*
X109615314Y-125398161D01*
X109472457Y-125445780D01*
X109377219Y-125445780D01*
X109234361Y-125398161D01*
X109139123Y-125302923D01*
X109091504Y-125207685D01*
X109043885Y-125017209D01*
X109043885Y-124874352D01*
X109091504Y-124683876D01*
X109139123Y-124588638D01*
X109234361Y-124493400D01*
X109377219Y-124445780D01*
X109472457Y-124445780D01*
X109615314Y-124493400D01*
X109662933Y-124541019D01*
X109996266Y-124445780D02*
X110615314Y-124445780D01*
X110281980Y-124826733D01*
X110424838Y-124826733D01*
X110520076Y-124874352D01*
X110567695Y-124921971D01*
X110615314Y-125017209D01*
X110615314Y-125255304D01*
X110567695Y-125350542D01*
X110520076Y-125398161D01*
X110424838Y-125445780D01*
X110139123Y-125445780D01*
X110043885Y-125398161D01*
X109996266Y-125350542D01*
X109789933Y-87758542D02*
X109742314Y-87806161D01*
X109599457Y-87853780D01*
X109504219Y-87853780D01*
X109361361Y-87806161D01*
X109266123Y-87710923D01*
X109218504Y-87615685D01*
X109170885Y-87425209D01*
X109170885Y-87282352D01*
X109218504Y-87091876D01*
X109266123Y-86996638D01*
X109361361Y-86901400D01*
X109504219Y-86853780D01*
X109599457Y-86853780D01*
X109742314Y-86901400D01*
X109789933Y-86949019D01*
X110742314Y-87853780D02*
X110170885Y-87853780D01*
X110456600Y-87853780D02*
X110456600Y-86853780D01*
X110361361Y-86996638D01*
X110266123Y-87091876D01*
X110170885Y-87139495D01*
X128458933Y-87758542D02*
X128411314Y-87806161D01*
X128268457Y-87853780D01*
X128173219Y-87853780D01*
X128030361Y-87806161D01*
X127935123Y-87710923D01*
X127887504Y-87615685D01*
X127839885Y-87425209D01*
X127839885Y-87282352D01*
X127887504Y-87091876D01*
X127935123Y-86996638D01*
X128030361Y-86901400D01*
X128173219Y-86853780D01*
X128268457Y-86853780D01*
X128411314Y-86901400D01*
X128458933Y-86949019D01*
X129363695Y-86853780D02*
X128887504Y-86853780D01*
X128839885Y-87329971D01*
X128887504Y-87282352D01*
X128982742Y-87234733D01*
X129220838Y-87234733D01*
X129316076Y-87282352D01*
X129363695Y-87329971D01*
X129411314Y-87425209D01*
X129411314Y-87663304D01*
X129363695Y-87758542D01*
X129316076Y-87806161D01*
X129220838Y-87853780D01*
X128982742Y-87853780D01*
X128887504Y-87806161D01*
X128839885Y-87758542D01*
X147254933Y-87758542D02*
X147207314Y-87806161D01*
X147064457Y-87853780D01*
X146969219Y-87853780D01*
X146826361Y-87806161D01*
X146731123Y-87710923D01*
X146683504Y-87615685D01*
X146635885Y-87425209D01*
X146635885Y-87282352D01*
X146683504Y-87091876D01*
X146731123Y-86996638D01*
X146826361Y-86901400D01*
X146969219Y-86853780D01*
X147064457Y-86853780D01*
X147207314Y-86901400D01*
X147254933Y-86949019D01*
X147731123Y-87853780D02*
X147921600Y-87853780D01*
X148016838Y-87806161D01*
X148064457Y-87758542D01*
X148159695Y-87615685D01*
X148207314Y-87425209D01*
X148207314Y-87044257D01*
X148159695Y-86949019D01*
X148112076Y-86901400D01*
X148016838Y-86853780D01*
X147826361Y-86853780D01*
X147731123Y-86901400D01*
X147683504Y-86949019D01*
X147635885Y-87044257D01*
X147635885Y-87282352D01*
X147683504Y-87377590D01*
X147731123Y-87425209D01*
X147826361Y-87472828D01*
X148016838Y-87472828D01*
X148112076Y-87425209D01*
X148159695Y-87377590D01*
X148207314Y-87282352D01*
X165701742Y-87758542D02*
X165654123Y-87806161D01*
X165511266Y-87853780D01*
X165416028Y-87853780D01*
X165273171Y-87806161D01*
X165177933Y-87710923D01*
X165130314Y-87615685D01*
X165082695Y-87425209D01*
X165082695Y-87282352D01*
X165130314Y-87091876D01*
X165177933Y-86996638D01*
X165273171Y-86901400D01*
X165416028Y-86853780D01*
X165511266Y-86853780D01*
X165654123Y-86901400D01*
X165701742Y-86949019D01*
X166654123Y-87853780D02*
X166082695Y-87853780D01*
X166368409Y-87853780D02*
X166368409Y-86853780D01*
X166273171Y-86996638D01*
X166177933Y-87091876D01*
X166082695Y-87139495D01*
X166987457Y-86853780D02*
X167606504Y-86853780D01*
X167273171Y-87234733D01*
X167416028Y-87234733D01*
X167511266Y-87282352D01*
X167558885Y-87329971D01*
X167606504Y-87425209D01*
X167606504Y-87663304D01*
X167558885Y-87758542D01*
X167511266Y-87806161D01*
X167416028Y-87853780D01*
X167130314Y-87853780D01*
X167035076Y-87806161D01*
X166987457Y-87758542D01*
X98663066Y-63434980D02*
X98663066Y-64149266D01*
X98615447Y-64292123D01*
X98520209Y-64387361D01*
X98377352Y-64434980D01*
X98282114Y-64434980D01*
X99091638Y-63530219D02*
X99139257Y-63482600D01*
X99234495Y-63434980D01*
X99472590Y-63434980D01*
X99567828Y-63482600D01*
X99615447Y-63530219D01*
X99663066Y-63625457D01*
X99663066Y-63720695D01*
X99615447Y-63863552D01*
X99044019Y-64434980D01*
X99663066Y-64434980D01*
X112806314Y-87726780D02*
X112806314Y-86726780D01*
X113044409Y-86726780D01*
X113187266Y-86774400D01*
X113282504Y-86869638D01*
X113330123Y-86964876D01*
X113377742Y-87155352D01*
X113377742Y-87298209D01*
X113330123Y-87488685D01*
X113282504Y-87583923D01*
X113187266Y-87679161D01*
X113044409Y-87726780D01*
X112806314Y-87726780D01*
X114330123Y-87726780D02*
X113758695Y-87726780D01*
X114044409Y-87726780D02*
X114044409Y-86726780D01*
X113949171Y-86869638D01*
X113853933Y-86964876D01*
X113758695Y-87012495D01*
X114663457Y-86726780D02*
X115330123Y-86726780D01*
X114901552Y-87726780D01*
X131856314Y-87726780D02*
X131856314Y-86726780D01*
X132094409Y-86726780D01*
X132237266Y-86774400D01*
X132332504Y-86869638D01*
X132380123Y-86964876D01*
X132427742Y-87155352D01*
X132427742Y-87298209D01*
X132380123Y-87488685D01*
X132332504Y-87583923D01*
X132237266Y-87679161D01*
X132094409Y-87726780D01*
X131856314Y-87726780D01*
X132808695Y-86822019D02*
X132856314Y-86774400D01*
X132951552Y-86726780D01*
X133189647Y-86726780D01*
X133284885Y-86774400D01*
X133332504Y-86822019D01*
X133380123Y-86917257D01*
X133380123Y-87012495D01*
X133332504Y-87155352D01*
X132761076Y-87726780D01*
X133380123Y-87726780D01*
X134332504Y-87726780D02*
X133761076Y-87726780D01*
X134046790Y-87726780D02*
X134046790Y-86726780D01*
X133951552Y-86869638D01*
X133856314Y-86964876D01*
X133761076Y-87012495D01*
X150271314Y-87599780D02*
X150271314Y-86599780D01*
X150509409Y-86599780D01*
X150652266Y-86647400D01*
X150747504Y-86742638D01*
X150795123Y-86837876D01*
X150842742Y-87028352D01*
X150842742Y-87171209D01*
X150795123Y-87361685D01*
X150747504Y-87456923D01*
X150652266Y-87552161D01*
X150509409Y-87599780D01*
X150271314Y-87599780D01*
X151223695Y-86695019D02*
X151271314Y-86647400D01*
X151366552Y-86599780D01*
X151604647Y-86599780D01*
X151699885Y-86647400D01*
X151747504Y-86695019D01*
X151795123Y-86790257D01*
X151795123Y-86885495D01*
X151747504Y-87028352D01*
X151176076Y-87599780D01*
X151795123Y-87599780D01*
X152699885Y-86599780D02*
X152223695Y-86599780D01*
X152176076Y-87075971D01*
X152223695Y-87028352D01*
X152318933Y-86980733D01*
X152557028Y-86980733D01*
X152652266Y-87028352D01*
X152699885Y-87075971D01*
X152747504Y-87171209D01*
X152747504Y-87409304D01*
X152699885Y-87504542D01*
X152652266Y-87552161D01*
X152557028Y-87599780D01*
X152318933Y-87599780D01*
X152223695Y-87552161D01*
X152176076Y-87504542D01*
X169448314Y-87345780D02*
X169448314Y-86345780D01*
X169686409Y-86345780D01*
X169829266Y-86393400D01*
X169924504Y-86488638D01*
X169972123Y-86583876D01*
X170019742Y-86774352D01*
X170019742Y-86917209D01*
X169972123Y-87107685D01*
X169924504Y-87202923D01*
X169829266Y-87298161D01*
X169686409Y-87345780D01*
X169448314Y-87345780D01*
X170400695Y-86441019D02*
X170448314Y-86393400D01*
X170543552Y-86345780D01*
X170781647Y-86345780D01*
X170876885Y-86393400D01*
X170924504Y-86441019D01*
X170972123Y-86536257D01*
X170972123Y-86631495D01*
X170924504Y-86774352D01*
X170353076Y-87345780D01*
X170972123Y-87345780D01*
X171448314Y-87345780D02*
X171638790Y-87345780D01*
X171734028Y-87298161D01*
X171781647Y-87250542D01*
X171876885Y-87107685D01*
X171924504Y-86917209D01*
X171924504Y-86536257D01*
X171876885Y-86441019D01*
X171829266Y-86393400D01*
X171734028Y-86345780D01*
X171543552Y-86345780D01*
X171448314Y-86393400D01*
X171400695Y-86441019D01*
X171353076Y-86536257D01*
X171353076Y-86774352D01*
X171400695Y-86869590D01*
X171448314Y-86917209D01*
X171543552Y-86964828D01*
X171734028Y-86964828D01*
X171829266Y-86917209D01*
X171876885Y-86869590D01*
X171924504Y-86774352D01*
X193166666Y-70922380D02*
X193166666Y-71636666D01*
X193119047Y-71779523D01*
X193023809Y-71874761D01*
X192880952Y-71922380D01*
X192785714Y-71922380D01*
X193547619Y-70922380D02*
X194166666Y-70922380D01*
X193833333Y-71303333D01*
X193976190Y-71303333D01*
X194071428Y-71350952D01*
X194119047Y-71398571D01*
X194166666Y-71493809D01*
X194166666Y-71731904D01*
X194119047Y-71827142D01*
X194071428Y-71874761D01*
X193976190Y-71922380D01*
X193690476Y-71922380D01*
X193595238Y-71874761D01*
X193547619Y-71827142D01*
X98466666Y-82522380D02*
X98466666Y-83236666D01*
X98419047Y-83379523D01*
X98323809Y-83474761D01*
X98180952Y-83522380D01*
X98085714Y-83522380D01*
X99371428Y-82855714D02*
X99371428Y-83522380D01*
X99133333Y-82474761D02*
X98895238Y-83189047D01*
X99514285Y-83189047D01*
X100166666Y-52452380D02*
X100166666Y-53166666D01*
X100119047Y-53309523D01*
X100023809Y-53404761D01*
X99880952Y-53452380D01*
X99785714Y-53452380D01*
X101166666Y-53452380D02*
X100595238Y-53452380D01*
X100880952Y-53452380D02*
X100880952Y-52452380D01*
X100785714Y-52595238D01*
X100690476Y-52690476D01*
X100595238Y-52738095D01*
D18*
X151267885Y-93122447D02*
X151485600Y-93182923D01*
X151848457Y-93182923D01*
X151993600Y-93122447D01*
X152066171Y-93061971D01*
X152138742Y-92941019D01*
X152138742Y-92820066D01*
X152066171Y-92699114D01*
X151993600Y-92638638D01*
X151848457Y-92578161D01*
X151558171Y-92517685D01*
X151413028Y-92457209D01*
X151340457Y-92396733D01*
X151267885Y-92275780D01*
X151267885Y-92154828D01*
X151340457Y-92033876D01*
X151413028Y-91973400D01*
X151558171Y-91912923D01*
X151921028Y-91912923D01*
X152138742Y-91973400D01*
X152646742Y-91912923D02*
X153009600Y-93182923D01*
X153299885Y-92275780D01*
X153590171Y-93182923D01*
X153953028Y-91912923D01*
X155331885Y-93182923D02*
X154461028Y-93182923D01*
X154896457Y-93182923D02*
X154896457Y-91912923D01*
X154751314Y-92094352D01*
X154606171Y-92215304D01*
X154461028Y-92275780D01*
X156275314Y-91912923D02*
X156420457Y-91912923D01*
X156565600Y-91973400D01*
X156638171Y-92033876D01*
X156710742Y-92154828D01*
X156783314Y-92396733D01*
X156783314Y-92699114D01*
X156710742Y-92941019D01*
X156638171Y-93061971D01*
X156565600Y-93122447D01*
X156420457Y-93182923D01*
X156275314Y-93182923D01*
X156130171Y-93122447D01*
X156057600Y-93061971D01*
X155985028Y-92941019D01*
X155912457Y-92699114D01*
X155912457Y-92396733D01*
X155985028Y-92154828D01*
X156057600Y-92033876D01*
X156130171Y-91973400D01*
X156275314Y-91912923D01*
D11*
X105660714Y-63452380D02*
X105660714Y-62452380D01*
X105898809Y-62452380D01*
X106041666Y-62500000D01*
X106136904Y-62595238D01*
X106184523Y-62690476D01*
X106232142Y-62880952D01*
X106232142Y-63023809D01*
X106184523Y-63214285D01*
X106136904Y-63309523D01*
X106041666Y-63404761D01*
X105898809Y-63452380D01*
X105660714Y-63452380D01*
X106565476Y-62452380D02*
X107184523Y-62452380D01*
X106851190Y-62833333D01*
X106994047Y-62833333D01*
X107089285Y-62880952D01*
X107136904Y-62928571D01*
X107184523Y-63023809D01*
X107184523Y-63261904D01*
X107136904Y-63357142D01*
X107089285Y-63404761D01*
X106994047Y-63452380D01*
X106708333Y-63452380D01*
X106613095Y-63404761D01*
X106565476Y-63357142D01*
X107517857Y-62452380D02*
X108136904Y-62452380D01*
X107803571Y-62833333D01*
X107946428Y-62833333D01*
X108041666Y-62880952D01*
X108089285Y-62928571D01*
X108136904Y-63023809D01*
X108136904Y-63261904D01*
X108089285Y-63357142D01*
X108041666Y-63404761D01*
X107946428Y-63452380D01*
X107660714Y-63452380D01*
X107565476Y-63404761D01*
X107517857Y-63357142D01*
%LPC*%
D19*
X114655600Y-45364400D03*
X114655600Y-70764400D03*
X117195600Y-45364400D03*
X117195600Y-70764400D03*
X119735600Y-45364400D03*
X119735600Y-70764400D03*
X122275600Y-45364400D03*
X122275600Y-70764400D03*
X124815600Y-45364400D03*
X124815600Y-70764400D03*
X127355600Y-45364400D03*
X127355600Y-70764400D03*
X129895600Y-45364400D03*
X129895600Y-70764400D03*
X132435600Y-45364400D03*
X132435600Y-70764400D03*
X134975600Y-45364400D03*
X134975600Y-70764400D03*
X137515600Y-45364400D03*
X137515600Y-70764400D03*
X140055600Y-45364400D03*
X142595600Y-45364400D03*
X145135600Y-45364400D03*
X147675600Y-45364400D03*
X150215600Y-45364400D03*
X152755600Y-45364400D03*
D20*
X181861600Y-46380400D03*
X181861600Y-69748400D03*
X111861600Y-69748400D03*
X111861600Y-46380400D03*
D21*
X120624600Y-74447400D03*
X114274600Y-76987400D03*
X139420600Y-112039400D03*
X133070600Y-114579400D03*
D22*
X147548600Y-136549400D03*
X147548600Y-133249400D03*
X166344600Y-136549400D03*
X166344600Y-133249400D03*
X109956600Y-136549400D03*
X109956600Y-133249400D03*
X128752600Y-136549400D03*
X128752600Y-133249400D03*
X166090600Y-117753400D03*
X166090600Y-114453400D03*
X147294600Y-117753400D03*
X147294600Y-114453400D03*
X147294600Y-98957400D03*
X147294600Y-95657400D03*
X166090600Y-98957400D03*
X166090600Y-95657400D03*
X128498600Y-117753400D03*
X128498600Y-114453400D03*
X128498600Y-98957400D03*
X128498600Y-95657400D03*
X109702600Y-98957400D03*
X109702600Y-95657400D03*
X109702600Y-117753400D03*
X109702600Y-114453400D03*
X109702600Y-80098199D03*
X109702600Y-76798199D03*
X128498600Y-80098199D03*
X128498600Y-76798199D03*
X147294600Y-80098199D03*
X147294600Y-76798199D03*
X166090600Y-80098199D03*
X166090600Y-76798199D03*
D21*
X158216600Y-130835400D03*
X151866600Y-133375400D03*
X177012600Y-130835400D03*
X170662600Y-133375400D03*
X120624600Y-130835400D03*
X114274600Y-133375400D03*
X139420600Y-130835400D03*
X133070600Y-133375400D03*
X158216600Y-112039400D03*
X151866600Y-114579400D03*
X177012600Y-112039400D03*
X170662600Y-114579400D03*
X177012600Y-93243400D03*
X170662600Y-95783400D03*
X139420600Y-93243400D03*
X133070600Y-95783400D03*
X120624600Y-93243400D03*
X114274600Y-95783400D03*
X120624600Y-112039400D03*
X114274600Y-114579400D03*
X139420600Y-74447400D03*
X133070600Y-76987400D03*
X158216600Y-74447400D03*
X151866600Y-76987400D03*
X177012600Y-74447400D03*
X170662600Y-76987400D03*
D23*
X192000000Y-47500000D03*
D24*
X152922600Y-140882400D03*
D25*
X153422600Y-142632400D03*
D24*
X157922600Y-142632400D03*
D25*
X157422600Y-140882400D03*
D26*
X147548600Y-139491400D03*
X147548600Y-141991400D03*
X166344600Y-139491400D03*
X166344600Y-141991400D03*
D24*
X171972600Y-140882400D03*
D25*
X172472600Y-142632400D03*
D24*
X176972600Y-142632400D03*
D25*
X176472600Y-140882400D03*
D26*
X128752600Y-139491400D03*
X128752600Y-141991400D03*
X109956600Y-139491400D03*
X109956600Y-141991400D03*
D24*
X115584600Y-140882400D03*
D25*
X116084600Y-142632400D03*
D24*
X120584600Y-142632400D03*
D25*
X120084600Y-140882400D03*
D24*
X134380600Y-140882400D03*
D25*
X134880600Y-142632400D03*
D24*
X139380600Y-142632400D03*
D25*
X138880600Y-140882400D03*
D24*
X152922600Y-103290400D03*
D25*
X153422600Y-105040400D03*
D24*
X157922600Y-105040400D03*
D25*
X157422600Y-103290400D03*
D24*
X152922600Y-122086400D03*
D25*
X153422600Y-123836400D03*
D24*
X157922600Y-123836400D03*
D25*
X157422600Y-122086400D03*
D24*
X171972600Y-103290400D03*
D25*
X172472600Y-105040400D03*
D24*
X176972600Y-105040400D03*
D25*
X176472600Y-103290400D03*
D24*
X171972600Y-122086400D03*
D25*
X172472600Y-123836400D03*
D24*
X176972600Y-123836400D03*
D25*
X176472600Y-122086400D03*
D24*
X115584600Y-122086400D03*
D25*
X116084600Y-123836400D03*
D24*
X120584600Y-123836400D03*
D25*
X120084600Y-122086400D03*
D26*
X128752600Y-120695400D03*
X128752600Y-123195400D03*
D24*
X134380600Y-122086400D03*
D25*
X134880600Y-123836400D03*
D24*
X139380600Y-123836400D03*
D25*
X138880600Y-122086400D03*
D24*
X115584600Y-103290400D03*
D25*
X116084600Y-105040400D03*
D24*
X120584600Y-105040400D03*
D25*
X120084600Y-103290400D03*
D26*
X128752600Y-101899400D03*
X128752600Y-104399400D03*
D24*
X134380600Y-103290400D03*
D25*
X134880600Y-105040400D03*
D24*
X139380600Y-105040400D03*
D25*
X138880600Y-103290400D03*
D26*
X147548600Y-101899400D03*
X147548600Y-104399400D03*
X166344600Y-101899400D03*
X166344600Y-104399400D03*
X166344600Y-120695400D03*
X166344600Y-123195400D03*
X147548600Y-120695400D03*
X147548600Y-123195400D03*
X109956600Y-101899400D03*
X109956600Y-104399400D03*
X109956600Y-120695400D03*
X109956600Y-123195400D03*
X109956600Y-83103400D03*
X109956600Y-85603400D03*
X128752600Y-83103400D03*
X128752600Y-85603400D03*
X147548600Y-83103400D03*
X147548600Y-85603400D03*
X166344600Y-83103400D03*
X166344600Y-85603400D03*
D27*
X104500000Y-66000000D03*
D28*
X101960000Y-66000000D03*
X99420000Y-66000000D03*
D24*
X115584600Y-84494400D03*
D25*
X116084600Y-86244400D03*
D24*
X120584600Y-86244400D03*
D25*
X120084600Y-84494400D03*
D24*
X134380600Y-84494400D03*
D25*
X134880600Y-86244400D03*
D24*
X139380600Y-86244400D03*
D25*
X138880600Y-84494400D03*
D24*
X152922600Y-84494400D03*
D25*
X153422600Y-86244400D03*
D24*
X157922600Y-86244400D03*
D25*
X157422600Y-84494400D03*
D24*
X171972600Y-84494400D03*
D25*
X172472600Y-86244400D03*
D24*
X176972600Y-86244400D03*
D25*
X176472600Y-84494400D03*
D29*
X118500000Y-59500000D03*
D23*
X192000000Y-140000000D03*
X100000000Y-140000000D03*
X100000000Y-48000000D03*
D27*
X193500000Y-73800000D03*
D28*
X193500000Y-76340000D03*
X193500000Y-78880000D03*
X193500000Y-81420000D03*
X193500000Y-83960000D03*
X193500000Y-86500000D03*
X193500000Y-89040000D03*
X193500000Y-91580000D03*
D27*
X98800000Y-85400000D03*
D28*
X98800000Y-87940000D03*
D30*
X106500000Y-59500000D03*
X101500000Y-57000000D03*
D21*
X151866600Y-95783400D03*
X158216600Y-93243400D03*
D31*
X104475000Y-62950000D03*
X101175000Y-62950000D03*
M02*
