G04 #@! TF.GenerationSoftware,KiCad,Pcbnew,(2017-12-24 revision 570866557)-makepkg*
G04 #@! TF.CreationDate,2017-12-27T22:40:15-07:00*
G04 #@! TF.ProjectId,KeyGridTest1,4B65794772696454657374312E6B6963,rev?*
G04 #@! TF.SameCoordinates,Original*
G04 #@! TF.FileFunction,Legend,Top*
G04 #@! TF.FilePolarity,Positive*
%FSLAX46Y46*%
G04 Gerber Fmt 4.6, Leading zero omitted, Abs format (unit mm)*
G04 Created by KiCad (PCBNEW (2017-12-24 revision 570866557)-makepkg) date 12/27/17 22:40:15*
%MOMM*%
%LPD*%
G01*
G04 APERTURE LIST*
%ADD10C,0.300000*%
%ADD11C,0.762000*%
%ADD12C,0.635000*%
%ADD13C,0.150000*%
%ADD14C,0.381000*%
%ADD15C,0.120000*%
%ADD16C,0.203200*%
G04 APERTURE END LIST*
D10*
X97428571Y-53107142D02*
X98571428Y-53107142D01*
X98000000Y-53678571D02*
X98000000Y-52535714D01*
X97428571Y-61607142D02*
X98571428Y-61607142D01*
X104714285Y-49403571D02*
X104000000Y-49403571D01*
X103928571Y-50117857D01*
X104000000Y-50046428D01*
X104142857Y-49975000D01*
X104500000Y-49975000D01*
X104642857Y-50046428D01*
X104714285Y-50117857D01*
X104785714Y-50260714D01*
X104785714Y-50617857D01*
X104714285Y-50760714D01*
X104642857Y-50832142D01*
X104500000Y-50903571D01*
X104142857Y-50903571D01*
X104000000Y-50832142D01*
X103928571Y-50760714D01*
X105214285Y-49403571D02*
X105714285Y-50903571D01*
X106214285Y-49403571D01*
X102857142Y-51953571D02*
X103142857Y-51953571D01*
X103285714Y-52025000D01*
X103428571Y-52167857D01*
X103500000Y-52453571D01*
X103500000Y-52953571D01*
X103428571Y-53239285D01*
X103285714Y-53382142D01*
X103142857Y-53453571D01*
X102857142Y-53453571D01*
X102714285Y-53382142D01*
X102571428Y-53239285D01*
X102500000Y-52953571D01*
X102500000Y-52453571D01*
X102571428Y-52167857D01*
X102714285Y-52025000D01*
X102857142Y-51953571D01*
X104142857Y-52453571D02*
X104142857Y-53453571D01*
X104142857Y-52596428D02*
X104214285Y-52525000D01*
X104357142Y-52453571D01*
X104571428Y-52453571D01*
X104714285Y-52525000D01*
X104785714Y-52667857D01*
X104785714Y-53453571D01*
X105714285Y-53453571D02*
X105571428Y-53382142D01*
X105500000Y-53239285D01*
X105500000Y-51953571D01*
X106142857Y-52453571D02*
X106500000Y-53453571D01*
X106857142Y-52453571D02*
X106500000Y-53453571D01*
X106357142Y-53810714D01*
X106285714Y-53882142D01*
X106142857Y-53953571D01*
X107428571Y-53310714D02*
X107500000Y-53382142D01*
X107428571Y-53453571D01*
X107357142Y-53382142D01*
X107428571Y-53310714D01*
X107428571Y-53453571D01*
X107428571Y-52882142D02*
X107357142Y-52025000D01*
X107428571Y-51953571D01*
X107500000Y-52025000D01*
X107428571Y-52882142D01*
X107428571Y-51953571D01*
X103607142Y-67678571D02*
X103607142Y-68892857D01*
X103678571Y-69035714D01*
X103750000Y-69107142D01*
X103892857Y-69178571D01*
X104178571Y-69178571D01*
X104321428Y-69107142D01*
X104392857Y-69035714D01*
X104464285Y-68892857D01*
X104464285Y-67678571D01*
X105107142Y-69107142D02*
X105321428Y-69178571D01*
X105678571Y-69178571D01*
X105821428Y-69107142D01*
X105892857Y-69035714D01*
X105964285Y-68892857D01*
X105964285Y-68750000D01*
X105892857Y-68607142D01*
X105821428Y-68535714D01*
X105678571Y-68464285D01*
X105392857Y-68392857D01*
X105250000Y-68321428D01*
X105178571Y-68250000D01*
X105107142Y-68107142D01*
X105107142Y-67964285D01*
X105178571Y-67821428D01*
X105250000Y-67750000D01*
X105392857Y-67678571D01*
X105750000Y-67678571D01*
X105964285Y-67750000D01*
X107107142Y-68392857D02*
X107321428Y-68464285D01*
X107392857Y-68535714D01*
X107464285Y-68678571D01*
X107464285Y-68892857D01*
X107392857Y-69035714D01*
X107321428Y-69107142D01*
X107178571Y-69178571D01*
X106607142Y-69178571D01*
X106607142Y-67678571D01*
X107107142Y-67678571D01*
X107250000Y-67750000D01*
X107321428Y-67821428D01*
X107392857Y-67964285D01*
X107392857Y-68107142D01*
X107321428Y-68250000D01*
X107250000Y-68321428D01*
X107107142Y-68392857D01*
X106607142Y-68392857D01*
X97642857Y-68392857D02*
X98142857Y-68392857D01*
X98357142Y-69178571D02*
X97642857Y-69178571D01*
X97642857Y-67678571D01*
X98357142Y-67678571D01*
X98857142Y-69178571D02*
X99642857Y-68178571D01*
X98857142Y-68178571D02*
X99642857Y-69178571D01*
X100000000Y-68178571D02*
X100571428Y-68178571D01*
X100214285Y-67678571D02*
X100214285Y-68964285D01*
X100285714Y-69107142D01*
X100428571Y-69178571D01*
X100571428Y-69178571D01*
X98107142Y-72678571D02*
X97392857Y-72678571D01*
X97392857Y-71178571D01*
X98607142Y-71892857D02*
X99107142Y-71892857D01*
X99321428Y-72678571D02*
X98607142Y-72678571D01*
X98607142Y-71178571D01*
X99321428Y-71178571D01*
X99964285Y-72678571D02*
X99964285Y-71178571D01*
X100321428Y-71178571D01*
X100535714Y-71250000D01*
X100678571Y-71392857D01*
X100750000Y-71535714D01*
X100821428Y-71821428D01*
X100821428Y-72035714D01*
X100750000Y-72321428D01*
X100678571Y-72464285D01*
X100535714Y-72607142D01*
X100321428Y-72678571D01*
X99964285Y-72678571D01*
X102607142Y-72678571D02*
X102607142Y-71178571D01*
X103178571Y-71178571D01*
X103321428Y-71250000D01*
X103392857Y-71321428D01*
X103464285Y-71464285D01*
X103464285Y-71678571D01*
X103392857Y-71821428D01*
X103321428Y-71892857D01*
X103178571Y-71964285D01*
X102607142Y-71964285D01*
X103964285Y-71178571D02*
X104321428Y-72678571D01*
X104607142Y-71607142D01*
X104892857Y-72678571D01*
X105250000Y-71178571D01*
X106678571Y-72678571D02*
X106178571Y-71964285D01*
X105821428Y-72678571D02*
X105821428Y-71178571D01*
X106392857Y-71178571D01*
X106535714Y-71250000D01*
X106607142Y-71321428D01*
X106678571Y-71464285D01*
X106678571Y-71678571D01*
X106607142Y-71821428D01*
X106535714Y-71892857D01*
X106392857Y-71964285D01*
X105821428Y-71964285D01*
D11*
X189496371Y-126459428D02*
X189496371Y-128636571D01*
X189496371Y-127548000D02*
X185686371Y-127548000D01*
X186230657Y-127910857D01*
X186593514Y-128273714D01*
X186774942Y-128636571D01*
D12*
X184384694Y-128848724D02*
X182174894Y-128848724D01*
X184310786Y-128086724D02*
X180424586Y-128086724D01*
X184232294Y-127316734D02*
X180396894Y-127316734D01*
X184410094Y-126562724D02*
X182174894Y-126562724D01*
X189022724Y-130961506D02*
X189022724Y-133171306D01*
X188260724Y-131035414D02*
X188260724Y-134921614D01*
X187490734Y-131113906D02*
X187490734Y-134949306D01*
X186736724Y-130936106D02*
X186736724Y-133171306D01*
X191287906Y-126298076D02*
X193497706Y-126298076D01*
X191361814Y-127060076D02*
X194453000Y-127065400D01*
X191440306Y-127830066D02*
X194453000Y-127827400D01*
X191262506Y-128584076D02*
X193497706Y-128584076D01*
X186731400Y-124042800D02*
X186731400Y-121833000D01*
X187493400Y-123968892D02*
X187493400Y-120082692D01*
X189017400Y-124068200D02*
X189017400Y-121833000D01*
X188263390Y-123890400D02*
X188263390Y-120055000D01*
X191326406Y-127497200D02*
G75*
G03X191326406Y-127497200I-3502806J0D01*
G01*
D11*
X190223571Y-118567358D02*
X186413571Y-118091108D01*
X186413571Y-117183966D01*
X186595000Y-116662358D01*
X186957857Y-116344858D01*
X187320714Y-116208787D01*
X188046428Y-116118073D01*
X188590714Y-116186108D01*
X189316428Y-116458251D01*
X189679285Y-116685037D01*
X190042142Y-117093251D01*
X190223571Y-117660216D01*
X190223571Y-118567358D01*
X189860714Y-112534858D02*
X190042142Y-112738966D01*
X190223571Y-113305930D01*
X190223571Y-113668787D01*
X190042142Y-114190394D01*
X189679285Y-114507894D01*
X189316428Y-114643966D01*
X188590714Y-114734680D01*
X188046428Y-114666644D01*
X187320714Y-114394501D01*
X186957857Y-114167716D01*
X186595000Y-113759501D01*
X186413571Y-113192537D01*
X186413571Y-112829680D01*
X186595000Y-112308073D01*
X186776428Y-112149323D01*
X186413571Y-110833966D02*
X186413571Y-108293966D01*
X190223571Y-111310216D01*
X190223571Y-108770216D01*
X190223571Y-107318787D02*
X186413571Y-106842537D01*
X189135000Y-105549858D02*
X189135000Y-103735573D01*
X190223571Y-106048787D02*
X186413571Y-104302537D01*
X190223571Y-103508787D01*
X190223571Y-99335930D02*
X186413571Y-98859680D01*
X186413571Y-97952537D01*
X186595000Y-97430930D01*
X186957857Y-97113430D01*
X187320714Y-96977358D01*
X188046428Y-96886644D01*
X188590714Y-96954680D01*
X189316428Y-97226823D01*
X189679285Y-97453608D01*
X190042142Y-97861823D01*
X190223571Y-98428787D01*
X190223571Y-99335930D01*
X189860714Y-93303430D02*
X190042142Y-93507537D01*
X190223571Y-94074501D01*
X190223571Y-94437358D01*
X190042142Y-94958966D01*
X189679285Y-95276466D01*
X189316428Y-95412537D01*
X188590714Y-95503251D01*
X188046428Y-95435216D01*
X187320714Y-95163073D01*
X186957857Y-94936287D01*
X186595000Y-94528073D01*
X186413571Y-93961108D01*
X186413571Y-93598251D01*
X186595000Y-93076644D01*
X186776428Y-92917894D01*
X186776428Y-91466466D02*
X186595000Y-91262358D01*
X186413571Y-90876823D01*
X186413571Y-89969680D01*
X186595000Y-89629501D01*
X186776428Y-89470751D01*
X187139285Y-89334680D01*
X187502142Y-89380037D01*
X188046428Y-89629501D01*
X190223571Y-92078787D01*
X190223571Y-89720216D01*
X186413571Y-85978251D02*
X186413571Y-86703966D01*
X186595000Y-87089501D01*
X186776428Y-87293608D01*
X187320714Y-87724501D01*
X188046428Y-87996644D01*
X189497857Y-88178073D01*
X189860714Y-88042001D01*
X190042142Y-87883251D01*
X190223571Y-87543073D01*
X190223571Y-86817358D01*
X190042142Y-86431823D01*
X189860714Y-86227716D01*
X189497857Y-86000930D01*
X188590714Y-85887537D01*
X188227857Y-86023608D01*
X188046428Y-86182358D01*
X187865000Y-86522537D01*
X187865000Y-87248251D01*
X188046428Y-87633787D01*
X188227857Y-87837894D01*
X188590714Y-88064680D01*
X190223571Y-81555930D02*
X186413571Y-81079680D01*
X186413571Y-79628251D01*
X186595000Y-79288073D01*
X186776428Y-79129323D01*
X187139285Y-78993251D01*
X187683571Y-79061287D01*
X188046428Y-79288073D01*
X188227857Y-79492180D01*
X188409285Y-79877716D01*
X188409285Y-81329144D01*
X190223571Y-75568787D02*
X188409285Y-76612001D01*
X190223571Y-77745930D02*
X186413571Y-77269680D01*
X186413571Y-75818251D01*
X186595000Y-75478073D01*
X186776428Y-75319323D01*
X187139285Y-75183251D01*
X187683571Y-75251287D01*
X188046428Y-75478073D01*
X188227857Y-75682180D01*
X188409285Y-76067716D01*
X188409285Y-77519144D01*
X186413571Y-72733966D02*
X186413571Y-72008251D01*
X186595000Y-71668073D01*
X186957857Y-71350573D01*
X187683571Y-71259858D01*
X188953571Y-71418608D01*
X189679285Y-71690751D01*
X190042142Y-72098966D01*
X190223571Y-72484501D01*
X190223571Y-73210216D01*
X190042142Y-73550394D01*
X189679285Y-73867894D01*
X188953571Y-73958608D01*
X187683571Y-73799858D01*
X186957857Y-73527716D01*
X186595000Y-73119501D01*
X186413571Y-72733966D01*
X186413571Y-70012537D02*
X186413571Y-67835394D01*
X190223571Y-69400216D02*
X186413571Y-68923966D01*
X186413571Y-65839680D02*
X186413571Y-65113966D01*
X186595000Y-64773787D01*
X186957857Y-64456287D01*
X187683571Y-64365573D01*
X188953571Y-64524323D01*
X189679285Y-64796466D01*
X190042142Y-65204680D01*
X190223571Y-65590216D01*
X190223571Y-66315930D01*
X190042142Y-66656108D01*
X189679285Y-66973608D01*
X188953571Y-67064323D01*
X187683571Y-66905573D01*
X186957857Y-66633430D01*
X186595000Y-66225216D01*
X186413571Y-65839680D01*
X186413571Y-59671108D02*
X189497857Y-60056644D01*
X189860714Y-59920573D01*
X190042142Y-59761823D01*
X190223571Y-59421644D01*
X190223571Y-58695930D01*
X190042142Y-58310394D01*
X189860714Y-58106287D01*
X189497857Y-57879501D01*
X186413571Y-57493966D01*
X190223571Y-56155930D02*
X186413571Y-55679680D01*
X190223571Y-53978787D01*
X186413571Y-53502537D01*
X186413571Y-50962537D02*
X186413571Y-50236823D01*
X186595000Y-49896644D01*
X186957857Y-49579144D01*
X187683571Y-49488430D01*
X188953571Y-49647180D01*
X189679285Y-49919323D01*
X190042142Y-50327537D01*
X190223571Y-50713073D01*
X190223571Y-51438787D01*
X190042142Y-51778966D01*
X189679285Y-52096466D01*
X188953571Y-52187180D01*
X187683571Y-52028430D01*
X186957857Y-51756287D01*
X186595000Y-51348073D01*
X186413571Y-50962537D01*
D13*
X144373600Y-70256400D02*
X142087600Y-72034400D01*
X159105600Y-70256400D02*
X144373600Y-70256400D01*
X161391600Y-72034400D02*
X159105600Y-70256400D01*
X184373600Y-72034400D02*
X161391600Y-72034400D01*
X109575600Y-72034400D02*
X142087600Y-72034400D01*
X184373600Y-72034400D02*
X184373600Y-44094400D01*
X184373600Y-44094400D02*
X109575600Y-44094400D01*
X109575600Y-44094400D02*
X109575600Y-72034400D01*
D14*
X160326600Y-139515400D02*
X160326600Y-142265400D01*
X151026600Y-139515400D02*
X151026600Y-142265400D01*
X151026600Y-139515400D02*
X160326600Y-139515400D01*
X149326600Y-129565400D02*
X151104600Y-129565400D01*
X160248600Y-129565400D02*
X162026600Y-129565400D01*
X162026600Y-129565400D02*
X162026600Y-131343400D01*
X162026600Y-140487400D02*
X162026600Y-142265400D01*
X162026600Y-142265400D02*
X160326600Y-142265400D01*
X151026600Y-142265400D02*
X149326600Y-142265400D01*
X149326600Y-142265400D02*
X149326600Y-140487400D01*
X149326600Y-131343400D02*
X149326600Y-129565400D01*
X179122600Y-139515400D02*
X179122600Y-142265400D01*
X169822600Y-139515400D02*
X169822600Y-142265400D01*
X169822600Y-139515400D02*
X179122600Y-139515400D01*
X168122600Y-129565400D02*
X169900600Y-129565400D01*
X179044600Y-129565400D02*
X180822600Y-129565400D01*
X180822600Y-129565400D02*
X180822600Y-131343400D01*
X180822600Y-140487400D02*
X180822600Y-142265400D01*
X180822600Y-142265400D02*
X179122600Y-142265400D01*
X169822600Y-142265400D02*
X168122600Y-142265400D01*
X168122600Y-142265400D02*
X168122600Y-140487400D01*
X168122600Y-131343400D02*
X168122600Y-129565400D01*
X122734600Y-139515400D02*
X122734600Y-142265400D01*
X113434600Y-139515400D02*
X113434600Y-142265400D01*
X113434600Y-139515400D02*
X122734600Y-139515400D01*
X111734600Y-129565400D02*
X113512600Y-129565400D01*
X122656600Y-129565400D02*
X124434600Y-129565400D01*
X124434600Y-129565400D02*
X124434600Y-131343400D01*
X124434600Y-140487400D02*
X124434600Y-142265400D01*
X124434600Y-142265400D02*
X122734600Y-142265400D01*
X113434600Y-142265400D02*
X111734600Y-142265400D01*
X111734600Y-142265400D02*
X111734600Y-140487400D01*
X111734600Y-131343400D02*
X111734600Y-129565400D01*
X141530600Y-139515400D02*
X141530600Y-142265400D01*
X132230600Y-139515400D02*
X132230600Y-142265400D01*
X132230600Y-139515400D02*
X141530600Y-139515400D01*
X130530600Y-129565400D02*
X132308600Y-129565400D01*
X141452600Y-129565400D02*
X143230600Y-129565400D01*
X143230600Y-129565400D02*
X143230600Y-131343400D01*
X143230600Y-140487400D02*
X143230600Y-142265400D01*
X143230600Y-142265400D02*
X141530600Y-142265400D01*
X132230600Y-142265400D02*
X130530600Y-142265400D01*
X130530600Y-142265400D02*
X130530600Y-140487400D01*
X130530600Y-131343400D02*
X130530600Y-129565400D01*
X160326600Y-101923400D02*
X160326600Y-104673400D01*
X151026600Y-101923400D02*
X151026600Y-104673400D01*
X151026600Y-101923400D02*
X160326600Y-101923400D01*
X149326600Y-91973400D02*
X151104600Y-91973400D01*
X160248600Y-91973400D02*
X162026600Y-91973400D01*
X162026600Y-91973400D02*
X162026600Y-93751400D01*
X162026600Y-102895400D02*
X162026600Y-104673400D01*
X162026600Y-104673400D02*
X160326600Y-104673400D01*
X151026600Y-104673400D02*
X149326600Y-104673400D01*
X149326600Y-104673400D02*
X149326600Y-102895400D01*
X149326600Y-93751400D02*
X149326600Y-91973400D01*
X160326600Y-120719400D02*
X160326600Y-123469400D01*
X151026600Y-120719400D02*
X151026600Y-123469400D01*
X151026600Y-120719400D02*
X160326600Y-120719400D01*
X149326600Y-110769400D02*
X151104600Y-110769400D01*
X160248600Y-110769400D02*
X162026600Y-110769400D01*
X162026600Y-110769400D02*
X162026600Y-112547400D01*
X162026600Y-121691400D02*
X162026600Y-123469400D01*
X162026600Y-123469400D02*
X160326600Y-123469400D01*
X151026600Y-123469400D02*
X149326600Y-123469400D01*
X149326600Y-123469400D02*
X149326600Y-121691400D01*
X149326600Y-112547400D02*
X149326600Y-110769400D01*
X179122600Y-120719400D02*
X179122600Y-123469400D01*
X169822600Y-120719400D02*
X169822600Y-123469400D01*
X169822600Y-120719400D02*
X179122600Y-120719400D01*
X168122600Y-110769400D02*
X169900600Y-110769400D01*
X179044600Y-110769400D02*
X180822600Y-110769400D01*
X180822600Y-110769400D02*
X180822600Y-112547400D01*
X180822600Y-121691400D02*
X180822600Y-123469400D01*
X180822600Y-123469400D02*
X179122600Y-123469400D01*
X169822600Y-123469400D02*
X168122600Y-123469400D01*
X168122600Y-123469400D02*
X168122600Y-121691400D01*
X168122600Y-112547400D02*
X168122600Y-110769400D01*
X179122600Y-101923400D02*
X179122600Y-104673400D01*
X169822600Y-101923400D02*
X169822600Y-104673400D01*
X169822600Y-101923400D02*
X179122600Y-101923400D01*
X168122600Y-91973400D02*
X169900600Y-91973400D01*
X179044600Y-91973400D02*
X180822600Y-91973400D01*
X180822600Y-91973400D02*
X180822600Y-93751400D01*
X180822600Y-102895400D02*
X180822600Y-104673400D01*
X180822600Y-104673400D02*
X179122600Y-104673400D01*
X169822600Y-104673400D02*
X168122600Y-104673400D01*
X168122600Y-104673400D02*
X168122600Y-102895400D01*
X168122600Y-93751400D02*
X168122600Y-91973400D01*
X141530600Y-120719400D02*
X141530600Y-123469400D01*
X132230600Y-120719400D02*
X132230600Y-123469400D01*
X132230600Y-120719400D02*
X141530600Y-120719400D01*
X130530600Y-110769400D02*
X132308600Y-110769400D01*
X141452600Y-110769400D02*
X143230600Y-110769400D01*
X143230600Y-110769400D02*
X143230600Y-112547400D01*
X143230600Y-121691400D02*
X143230600Y-123469400D01*
X143230600Y-123469400D02*
X141530600Y-123469400D01*
X132230600Y-123469400D02*
X130530600Y-123469400D01*
X130530600Y-123469400D02*
X130530600Y-121691400D01*
X130530600Y-112547400D02*
X130530600Y-110769400D01*
X141530600Y-101923400D02*
X141530600Y-104673400D01*
X132230600Y-101923400D02*
X132230600Y-104673400D01*
X132230600Y-101923400D02*
X141530600Y-101923400D01*
X130530600Y-91973400D02*
X132308600Y-91973400D01*
X141452600Y-91973400D02*
X143230600Y-91973400D01*
X143230600Y-91973400D02*
X143230600Y-93751400D01*
X143230600Y-102895400D02*
X143230600Y-104673400D01*
X143230600Y-104673400D02*
X141530600Y-104673400D01*
X132230600Y-104673400D02*
X130530600Y-104673400D01*
X130530600Y-104673400D02*
X130530600Y-102895400D01*
X130530600Y-93751400D02*
X130530600Y-91973400D01*
X122734600Y-101923400D02*
X122734600Y-104673400D01*
X113434600Y-101923400D02*
X113434600Y-104673400D01*
X113434600Y-101923400D02*
X122734600Y-101923400D01*
X111734600Y-91973400D02*
X113512600Y-91973400D01*
X122656600Y-91973400D02*
X124434600Y-91973400D01*
X124434600Y-91973400D02*
X124434600Y-93751400D01*
X124434600Y-102895400D02*
X124434600Y-104673400D01*
X124434600Y-104673400D02*
X122734600Y-104673400D01*
X113434600Y-104673400D02*
X111734600Y-104673400D01*
X111734600Y-104673400D02*
X111734600Y-102895400D01*
X111734600Y-93751400D02*
X111734600Y-91973400D01*
X122734600Y-120719400D02*
X122734600Y-123469400D01*
X113434600Y-120719400D02*
X113434600Y-123469400D01*
X113434600Y-120719400D02*
X122734600Y-120719400D01*
X111734600Y-110769400D02*
X113512600Y-110769400D01*
X122656600Y-110769400D02*
X124434600Y-110769400D01*
X124434600Y-110769400D02*
X124434600Y-112547400D01*
X124434600Y-121691400D02*
X124434600Y-123469400D01*
X124434600Y-123469400D02*
X122734600Y-123469400D01*
X113434600Y-123469400D02*
X111734600Y-123469400D01*
X111734600Y-123469400D02*
X111734600Y-121691400D01*
X111734600Y-112547400D02*
X111734600Y-110769400D01*
X122734600Y-83127400D02*
X122734600Y-85877400D01*
X113434600Y-83127400D02*
X113434600Y-85877400D01*
X113434600Y-83127400D02*
X122734600Y-83127400D01*
X111734600Y-73177400D02*
X113512600Y-73177400D01*
X122656600Y-73177400D02*
X124434600Y-73177400D01*
X124434600Y-73177400D02*
X124434600Y-74955400D01*
X124434600Y-84099400D02*
X124434600Y-85877400D01*
X124434600Y-85877400D02*
X122734600Y-85877400D01*
X113434600Y-85877400D02*
X111734600Y-85877400D01*
X111734600Y-85877400D02*
X111734600Y-84099400D01*
X111734600Y-74955400D02*
X111734600Y-73177400D01*
X141530600Y-83127400D02*
X141530600Y-85877400D01*
X132230600Y-83127400D02*
X132230600Y-85877400D01*
X132230600Y-83127400D02*
X141530600Y-83127400D01*
X130530600Y-73177400D02*
X132308600Y-73177400D01*
X141452600Y-73177400D02*
X143230600Y-73177400D01*
X143230600Y-73177400D02*
X143230600Y-74955400D01*
X143230600Y-84099400D02*
X143230600Y-85877400D01*
X143230600Y-85877400D02*
X141530600Y-85877400D01*
X132230600Y-85877400D02*
X130530600Y-85877400D01*
X130530600Y-85877400D02*
X130530600Y-84099400D01*
X130530600Y-74955400D02*
X130530600Y-73177400D01*
X160326600Y-83127400D02*
X160326600Y-85877400D01*
X151026600Y-83127400D02*
X151026600Y-85877400D01*
X151026600Y-83127400D02*
X160326600Y-83127400D01*
X149326600Y-73177400D02*
X151104600Y-73177400D01*
X160248600Y-73177400D02*
X162026600Y-73177400D01*
X162026600Y-73177400D02*
X162026600Y-74955400D01*
X162026600Y-84099400D02*
X162026600Y-85877400D01*
X162026600Y-85877400D02*
X160326600Y-85877400D01*
X151026600Y-85877400D02*
X149326600Y-85877400D01*
X149326600Y-85877400D02*
X149326600Y-84099400D01*
X149326600Y-74955400D02*
X149326600Y-73177400D01*
X179122600Y-83127400D02*
X179122600Y-85877400D01*
X169822600Y-83127400D02*
X169822600Y-85877400D01*
X169822600Y-83127400D02*
X179122600Y-83127400D01*
X168122600Y-73177400D02*
X169900600Y-73177400D01*
X179044600Y-73177400D02*
X180822600Y-73177400D01*
X180822600Y-73177400D02*
X180822600Y-74955400D01*
X180822600Y-84099400D02*
X180822600Y-85877400D01*
X180822600Y-85877400D02*
X179122600Y-85877400D01*
X169822600Y-85877400D02*
X168122600Y-85877400D01*
X168122600Y-85877400D02*
X168122600Y-84099400D01*
X168122600Y-74955400D02*
X168122600Y-73177400D01*
D15*
X157322600Y-143657400D02*
X153522600Y-143657400D01*
X153322600Y-140957400D02*
X153322600Y-139857400D01*
X153322600Y-139857400D02*
X157322600Y-139857400D01*
X148398600Y-141241400D02*
X148398600Y-140241400D01*
X146698600Y-140241400D02*
X146698600Y-141241400D01*
X167194600Y-141241400D02*
X167194600Y-140241400D01*
X165494600Y-140241400D02*
X165494600Y-141241400D01*
X146548600Y-137149400D02*
X148548600Y-137149400D01*
X148548600Y-137149400D02*
X148548600Y-133249400D01*
X146548600Y-137149400D02*
X146548600Y-133249400D01*
X165344600Y-137149400D02*
X167344600Y-137149400D01*
X167344600Y-137149400D02*
X167344600Y-133249400D01*
X165344600Y-137149400D02*
X165344600Y-133249400D01*
X176372600Y-143657400D02*
X172572600Y-143657400D01*
X172372600Y-140957400D02*
X172372600Y-139857400D01*
X172372600Y-139857400D02*
X176372600Y-139857400D01*
X129602600Y-141241400D02*
X129602600Y-140241400D01*
X127902600Y-140241400D02*
X127902600Y-141241400D01*
X108956600Y-137149400D02*
X110956600Y-137149400D01*
X110956600Y-137149400D02*
X110956600Y-133249400D01*
X108956600Y-137149400D02*
X108956600Y-133249400D01*
X110806600Y-141241400D02*
X110806600Y-140241400D01*
X109106600Y-140241400D02*
X109106600Y-141241400D01*
X119984600Y-143657400D02*
X116184600Y-143657400D01*
X115984600Y-140957400D02*
X115984600Y-139857400D01*
X115984600Y-139857400D02*
X119984600Y-139857400D01*
X127752600Y-137149400D02*
X129752600Y-137149400D01*
X129752600Y-137149400D02*
X129752600Y-133249400D01*
X127752600Y-137149400D02*
X127752600Y-133249400D01*
X138780600Y-143657400D02*
X134980600Y-143657400D01*
X134780600Y-140957400D02*
X134780600Y-139857400D01*
X134780600Y-139857400D02*
X138780600Y-139857400D01*
X165090600Y-118353400D02*
X167090600Y-118353400D01*
X167090600Y-118353400D02*
X167090600Y-114453400D01*
X165090600Y-118353400D02*
X165090600Y-114453400D01*
X157322600Y-106065400D02*
X153522600Y-106065400D01*
X153322600Y-103365400D02*
X153322600Y-102265400D01*
X153322600Y-102265400D02*
X157322600Y-102265400D01*
X146294600Y-118353400D02*
X148294600Y-118353400D01*
X148294600Y-118353400D02*
X148294600Y-114453400D01*
X146294600Y-118353400D02*
X146294600Y-114453400D01*
X146294600Y-99557400D02*
X148294600Y-99557400D01*
X148294600Y-99557400D02*
X148294600Y-95657400D01*
X146294600Y-99557400D02*
X146294600Y-95657400D01*
X157322600Y-124861400D02*
X153522600Y-124861400D01*
X153322600Y-122161400D02*
X153322600Y-121061400D01*
X153322600Y-121061400D02*
X157322600Y-121061400D01*
X176372600Y-106065400D02*
X172572600Y-106065400D01*
X172372600Y-103365400D02*
X172372600Y-102265400D01*
X172372600Y-102265400D02*
X176372600Y-102265400D01*
X165090600Y-99557400D02*
X167090600Y-99557400D01*
X167090600Y-99557400D02*
X167090600Y-95657400D01*
X165090600Y-99557400D02*
X165090600Y-95657400D01*
X176372600Y-124861400D02*
X172572600Y-124861400D01*
X172372600Y-122161400D02*
X172372600Y-121061400D01*
X172372600Y-121061400D02*
X176372600Y-121061400D01*
X119984600Y-124861400D02*
X116184600Y-124861400D01*
X115984600Y-122161400D02*
X115984600Y-121061400D01*
X115984600Y-121061400D02*
X119984600Y-121061400D01*
X129602600Y-122445400D02*
X129602600Y-121445400D01*
X127902600Y-121445400D02*
X127902600Y-122445400D01*
X127498600Y-118353400D02*
X129498600Y-118353400D01*
X129498600Y-118353400D02*
X129498600Y-114453400D01*
X127498600Y-118353400D02*
X127498600Y-114453400D01*
X138780600Y-124861400D02*
X134980600Y-124861400D01*
X134780600Y-122161400D02*
X134780600Y-121061400D01*
X134780600Y-121061400D02*
X138780600Y-121061400D01*
X119984600Y-106065400D02*
X116184600Y-106065400D01*
X115984600Y-103365400D02*
X115984600Y-102265400D01*
X115984600Y-102265400D02*
X119984600Y-102265400D01*
X127498600Y-99557400D02*
X129498600Y-99557400D01*
X129498600Y-99557400D02*
X129498600Y-95657400D01*
X127498600Y-99557400D02*
X127498600Y-95657400D01*
X129602600Y-103649400D02*
X129602600Y-102649400D01*
X127902600Y-102649400D02*
X127902600Y-103649400D01*
X138780600Y-106065400D02*
X134980600Y-106065400D01*
X134780600Y-103365400D02*
X134780600Y-102265400D01*
X134780600Y-102265400D02*
X138780600Y-102265400D01*
X148398600Y-103649400D02*
X148398600Y-102649400D01*
X146698600Y-102649400D02*
X146698600Y-103649400D01*
X167194600Y-103649400D02*
X167194600Y-102649400D01*
X165494600Y-102649400D02*
X165494600Y-103649400D01*
X167194600Y-122445400D02*
X167194600Y-121445400D01*
X165494600Y-121445400D02*
X165494600Y-122445400D01*
X148398600Y-122445400D02*
X148398600Y-121445400D01*
X146698600Y-121445400D02*
X146698600Y-122445400D01*
X108702600Y-99557400D02*
X110702600Y-99557400D01*
X110702600Y-99557400D02*
X110702600Y-95657400D01*
X108702600Y-99557400D02*
X108702600Y-95657400D01*
X108702600Y-118353400D02*
X110702600Y-118353400D01*
X110702600Y-118353400D02*
X110702600Y-114453400D01*
X108702600Y-118353400D02*
X108702600Y-114453400D01*
X110806600Y-103649400D02*
X110806600Y-102649400D01*
X109106600Y-102649400D02*
X109106600Y-103649400D01*
X110806600Y-122445400D02*
X110806600Y-121445400D01*
X109106600Y-121445400D02*
X109106600Y-122445400D01*
X110806600Y-84853400D02*
X110806600Y-83853400D01*
X109106600Y-83853400D02*
X109106600Y-84853400D01*
X129602600Y-84853400D02*
X129602600Y-83853400D01*
X127902600Y-83853400D02*
X127902600Y-84853400D01*
X148398600Y-84853400D02*
X148398600Y-83853400D01*
X146698600Y-83853400D02*
X146698600Y-84853400D01*
X167194600Y-84853400D02*
X167194600Y-83853400D01*
X165494600Y-83853400D02*
X165494600Y-84853400D01*
X108702600Y-80698199D02*
X110702600Y-80698199D01*
X110702600Y-80698199D02*
X110702600Y-76798199D01*
X108702600Y-80698199D02*
X108702600Y-76798199D01*
X127498600Y-80698199D02*
X129498600Y-80698199D01*
X129498600Y-80698199D02*
X129498600Y-76798199D01*
X127498600Y-80698199D02*
X127498600Y-76798199D01*
X146294600Y-80698199D02*
X148294600Y-80698199D01*
X148294600Y-80698199D02*
X148294600Y-76798199D01*
X146294600Y-80698199D02*
X146294600Y-76798199D01*
X165090600Y-80698199D02*
X167090600Y-80698199D01*
X167090600Y-80698199D02*
X167090600Y-76798199D01*
X165090600Y-80698199D02*
X165090600Y-76798199D01*
X98090000Y-64670000D02*
X98090000Y-67330000D01*
X103230000Y-64670000D02*
X98090000Y-64670000D01*
X103230000Y-67330000D02*
X98090000Y-67330000D01*
X103230000Y-64670000D02*
X103230000Y-67330000D01*
X104500000Y-64670000D02*
X105830000Y-64670000D01*
X105830000Y-64670000D02*
X105830000Y-66000000D01*
X119984600Y-87269400D02*
X116184600Y-87269400D01*
X115984600Y-84569400D02*
X115984600Y-83469400D01*
X115984600Y-83469400D02*
X119984600Y-83469400D01*
X138780600Y-87269400D02*
X134980600Y-87269400D01*
X134780600Y-84569400D02*
X134780600Y-83469400D01*
X134780600Y-83469400D02*
X138780600Y-83469400D01*
X157322600Y-87269400D02*
X153522600Y-87269400D01*
X153322600Y-84569400D02*
X153322600Y-83469400D01*
X153322600Y-83469400D02*
X157322600Y-83469400D01*
X176372600Y-87269400D02*
X172572600Y-87269400D01*
X172372600Y-84569400D02*
X172372600Y-83469400D01*
X172372600Y-83469400D02*
X176372600Y-83469400D01*
X192170000Y-72470000D02*
X193500000Y-72470000D01*
X192170000Y-73800000D02*
X192170000Y-72470000D01*
X192170000Y-75070000D02*
X194830000Y-75070000D01*
X194830000Y-75070000D02*
X194830000Y-92910000D01*
X192170000Y-75070000D02*
X192170000Y-92910000D01*
X192170000Y-92910000D02*
X194830000Y-92910000D01*
X192170000Y-60670000D02*
X193500000Y-60670000D01*
X192170000Y-62000000D02*
X192170000Y-60670000D01*
X192170000Y-63270000D02*
X194830000Y-63270000D01*
X194830000Y-63270000D02*
X194830000Y-65870000D01*
X192170000Y-63270000D02*
X192170000Y-65870000D01*
X192170000Y-65870000D02*
X194830000Y-65870000D01*
D13*
X108900000Y-54150000D02*
X96800000Y-54150000D01*
X108900000Y-54150000D02*
X108900000Y-60700000D01*
X96800000Y-54150000D02*
X96800000Y-60700000D01*
X96800000Y-60700000D02*
X108900000Y-60700000D01*
X99000000Y-54200000D02*
X99000000Y-56000000D01*
X99000000Y-56000000D02*
X96800000Y-56000000D01*
X110312314Y-48771257D02*
X110312314Y-49742685D01*
X110369457Y-49856971D01*
X110426600Y-49914114D01*
X110540885Y-49971257D01*
X110769457Y-49971257D01*
X110883742Y-49914114D01*
X110940885Y-49856971D01*
X110998028Y-49742685D01*
X110998028Y-48771257D01*
X112198028Y-49971257D02*
X111512314Y-49971257D01*
X111855171Y-49971257D02*
X111855171Y-48771257D01*
X111740885Y-48942685D01*
X111626600Y-49056971D01*
X111512314Y-49114114D01*
D16*
X152918885Y-128529447D02*
X153136600Y-128589923D01*
X153499457Y-128589923D01*
X153644600Y-128529447D01*
X153717171Y-128468971D01*
X153789742Y-128348019D01*
X153789742Y-128227066D01*
X153717171Y-128106114D01*
X153644600Y-128045638D01*
X153499457Y-127985161D01*
X153209171Y-127924685D01*
X153064028Y-127864209D01*
X152991457Y-127803733D01*
X152918885Y-127682780D01*
X152918885Y-127561828D01*
X152991457Y-127440876D01*
X153064028Y-127380400D01*
X153209171Y-127319923D01*
X153572028Y-127319923D01*
X153789742Y-127380400D01*
X154297742Y-127319923D02*
X154660600Y-128589923D01*
X154950885Y-127682780D01*
X155241171Y-128589923D01*
X155604028Y-127319923D01*
X156982885Y-128589923D02*
X156112028Y-128589923D01*
X156547457Y-128589923D02*
X156547457Y-127319923D01*
X156402314Y-127501352D01*
X156257171Y-127622304D01*
X156112028Y-127682780D01*
X157563457Y-127440876D02*
X157636028Y-127380400D01*
X157781171Y-127319923D01*
X158144028Y-127319923D01*
X158289171Y-127380400D01*
X158361742Y-127440876D01*
X158434314Y-127561828D01*
X158434314Y-127682780D01*
X158361742Y-127864209D01*
X157490885Y-128589923D01*
X158434314Y-128589923D01*
X171714885Y-128529447D02*
X171932600Y-128589923D01*
X172295457Y-128589923D01*
X172440600Y-128529447D01*
X172513171Y-128468971D01*
X172585742Y-128348019D01*
X172585742Y-128227066D01*
X172513171Y-128106114D01*
X172440600Y-128045638D01*
X172295457Y-127985161D01*
X172005171Y-127924685D01*
X171860028Y-127864209D01*
X171787457Y-127803733D01*
X171714885Y-127682780D01*
X171714885Y-127561828D01*
X171787457Y-127440876D01*
X171860028Y-127380400D01*
X172005171Y-127319923D01*
X172368028Y-127319923D01*
X172585742Y-127380400D01*
X173093742Y-127319923D02*
X173456600Y-128589923D01*
X173746885Y-127682780D01*
X174037171Y-128589923D01*
X174400028Y-127319923D01*
X175778885Y-128589923D02*
X174908028Y-128589923D01*
X175343457Y-128589923D02*
X175343457Y-127319923D01*
X175198314Y-127501352D01*
X175053171Y-127622304D01*
X174908028Y-127682780D01*
X177085171Y-127319923D02*
X176794885Y-127319923D01*
X176649742Y-127380400D01*
X176577171Y-127440876D01*
X176432028Y-127622304D01*
X176359457Y-127864209D01*
X176359457Y-128348019D01*
X176432028Y-128468971D01*
X176504600Y-128529447D01*
X176649742Y-128589923D01*
X176940028Y-128589923D01*
X177085171Y-128529447D01*
X177157742Y-128468971D01*
X177230314Y-128348019D01*
X177230314Y-128045638D01*
X177157742Y-127924685D01*
X177085171Y-127864209D01*
X176940028Y-127803733D01*
X176649742Y-127803733D01*
X176504600Y-127864209D01*
X176432028Y-127924685D01*
X176359457Y-128045638D01*
X116052600Y-128529447D02*
X116270314Y-128589923D01*
X116633171Y-128589923D01*
X116778314Y-128529447D01*
X116850885Y-128468971D01*
X116923457Y-128348019D01*
X116923457Y-128227066D01*
X116850885Y-128106114D01*
X116778314Y-128045638D01*
X116633171Y-127985161D01*
X116342885Y-127924685D01*
X116197742Y-127864209D01*
X116125171Y-127803733D01*
X116052600Y-127682780D01*
X116052600Y-127561828D01*
X116125171Y-127440876D01*
X116197742Y-127380400D01*
X116342885Y-127319923D01*
X116705742Y-127319923D01*
X116923457Y-127380400D01*
X117431457Y-127319923D02*
X117794314Y-128589923D01*
X118084600Y-127682780D01*
X118374885Y-128589923D01*
X118737742Y-127319923D01*
X119971457Y-127743257D02*
X119971457Y-128589923D01*
X119608600Y-127259447D02*
X119245742Y-128166590D01*
X120189171Y-128166590D01*
X134848600Y-128529447D02*
X135066314Y-128589923D01*
X135429171Y-128589923D01*
X135574314Y-128529447D01*
X135646885Y-128468971D01*
X135719457Y-128348019D01*
X135719457Y-128227066D01*
X135646885Y-128106114D01*
X135574314Y-128045638D01*
X135429171Y-127985161D01*
X135138885Y-127924685D01*
X134993742Y-127864209D01*
X134921171Y-127803733D01*
X134848600Y-127682780D01*
X134848600Y-127561828D01*
X134921171Y-127440876D01*
X134993742Y-127380400D01*
X135138885Y-127319923D01*
X135501742Y-127319923D01*
X135719457Y-127380400D01*
X136227457Y-127319923D02*
X136590314Y-128589923D01*
X136880600Y-127682780D01*
X137170885Y-128589923D01*
X137533742Y-127319923D01*
X138332028Y-127864209D02*
X138186885Y-127803733D01*
X138114314Y-127743257D01*
X138041742Y-127622304D01*
X138041742Y-127561828D01*
X138114314Y-127440876D01*
X138186885Y-127380400D01*
X138332028Y-127319923D01*
X138622314Y-127319923D01*
X138767457Y-127380400D01*
X138840028Y-127440876D01*
X138912600Y-127561828D01*
X138912600Y-127622304D01*
X138840028Y-127743257D01*
X138767457Y-127803733D01*
X138622314Y-127864209D01*
X138332028Y-127864209D01*
X138186885Y-127924685D01*
X138114314Y-127985161D01*
X138041742Y-128106114D01*
X138041742Y-128348019D01*
X138114314Y-128468971D01*
X138186885Y-128529447D01*
X138332028Y-128589923D01*
X138622314Y-128589923D01*
X138767457Y-128529447D01*
X138840028Y-128468971D01*
X138912600Y-128348019D01*
X138912600Y-128106114D01*
X138840028Y-127985161D01*
X138767457Y-127924685D01*
X138622314Y-127864209D01*
X152918885Y-90937447D02*
X153136600Y-90997923D01*
X153499457Y-90997923D01*
X153644600Y-90937447D01*
X153717171Y-90876971D01*
X153789742Y-90756019D01*
X153789742Y-90635066D01*
X153717171Y-90514114D01*
X153644600Y-90453638D01*
X153499457Y-90393161D01*
X153209171Y-90332685D01*
X153064028Y-90272209D01*
X152991457Y-90211733D01*
X152918885Y-90090780D01*
X152918885Y-89969828D01*
X152991457Y-89848876D01*
X153064028Y-89788400D01*
X153209171Y-89727923D01*
X153572028Y-89727923D01*
X153789742Y-89788400D01*
X154297742Y-89727923D02*
X154660600Y-90997923D01*
X154950885Y-90090780D01*
X155241171Y-90997923D01*
X155604028Y-89727923D01*
X156982885Y-90997923D02*
X156112028Y-90997923D01*
X156547457Y-90997923D02*
X156547457Y-89727923D01*
X156402314Y-89909352D01*
X156257171Y-90030304D01*
X156112028Y-90090780D01*
X157926314Y-89727923D02*
X158071457Y-89727923D01*
X158216600Y-89788400D01*
X158289171Y-89848876D01*
X158361742Y-89969828D01*
X158434314Y-90211733D01*
X158434314Y-90514114D01*
X158361742Y-90756019D01*
X158289171Y-90876971D01*
X158216600Y-90937447D01*
X158071457Y-90997923D01*
X157926314Y-90997923D01*
X157781171Y-90937447D01*
X157708600Y-90876971D01*
X157636028Y-90756019D01*
X157563457Y-90514114D01*
X157563457Y-90211733D01*
X157636028Y-89969828D01*
X157708600Y-89848876D01*
X157781171Y-89788400D01*
X157926314Y-89727923D01*
X152918885Y-109733447D02*
X153136600Y-109793923D01*
X153499457Y-109793923D01*
X153644600Y-109733447D01*
X153717171Y-109672971D01*
X153789742Y-109552019D01*
X153789742Y-109431066D01*
X153717171Y-109310114D01*
X153644600Y-109249638D01*
X153499457Y-109189161D01*
X153209171Y-109128685D01*
X153064028Y-109068209D01*
X152991457Y-109007733D01*
X152918885Y-108886780D01*
X152918885Y-108765828D01*
X152991457Y-108644876D01*
X153064028Y-108584400D01*
X153209171Y-108523923D01*
X153572028Y-108523923D01*
X153789742Y-108584400D01*
X154297742Y-108523923D02*
X154660600Y-109793923D01*
X154950885Y-108886780D01*
X155241171Y-109793923D01*
X155604028Y-108523923D01*
X156982885Y-109793923D02*
X156112028Y-109793923D01*
X156547457Y-109793923D02*
X156547457Y-108523923D01*
X156402314Y-108705352D01*
X156257171Y-108826304D01*
X156112028Y-108886780D01*
X158434314Y-109793923D02*
X157563457Y-109793923D01*
X157998885Y-109793923D02*
X157998885Y-108523923D01*
X157853742Y-108705352D01*
X157708600Y-108826304D01*
X157563457Y-108886780D01*
X171714885Y-109733447D02*
X171932600Y-109793923D01*
X172295457Y-109793923D01*
X172440600Y-109733447D01*
X172513171Y-109672971D01*
X172585742Y-109552019D01*
X172585742Y-109431066D01*
X172513171Y-109310114D01*
X172440600Y-109249638D01*
X172295457Y-109189161D01*
X172005171Y-109128685D01*
X171860028Y-109068209D01*
X171787457Y-109007733D01*
X171714885Y-108886780D01*
X171714885Y-108765828D01*
X171787457Y-108644876D01*
X171860028Y-108584400D01*
X172005171Y-108523923D01*
X172368028Y-108523923D01*
X172585742Y-108584400D01*
X173093742Y-108523923D02*
X173456600Y-109793923D01*
X173746885Y-108886780D01*
X174037171Y-109793923D01*
X174400028Y-108523923D01*
X175778885Y-109793923D02*
X174908028Y-109793923D01*
X175343457Y-109793923D02*
X175343457Y-108523923D01*
X175198314Y-108705352D01*
X175053171Y-108826304D01*
X174908028Y-108886780D01*
X177157742Y-108523923D02*
X176432028Y-108523923D01*
X176359457Y-109128685D01*
X176432028Y-109068209D01*
X176577171Y-109007733D01*
X176940028Y-109007733D01*
X177085171Y-109068209D01*
X177157742Y-109128685D01*
X177230314Y-109249638D01*
X177230314Y-109552019D01*
X177157742Y-109672971D01*
X177085171Y-109733447D01*
X176940028Y-109793923D01*
X176577171Y-109793923D01*
X176432028Y-109733447D01*
X176359457Y-109672971D01*
X171714885Y-90937447D02*
X171932600Y-90997923D01*
X172295457Y-90997923D01*
X172440600Y-90937447D01*
X172513171Y-90876971D01*
X172585742Y-90756019D01*
X172585742Y-90635066D01*
X172513171Y-90514114D01*
X172440600Y-90453638D01*
X172295457Y-90393161D01*
X172005171Y-90332685D01*
X171860028Y-90272209D01*
X171787457Y-90211733D01*
X171714885Y-90090780D01*
X171714885Y-89969828D01*
X171787457Y-89848876D01*
X171860028Y-89788400D01*
X172005171Y-89727923D01*
X172368028Y-89727923D01*
X172585742Y-89788400D01*
X173093742Y-89727923D02*
X173456600Y-90997923D01*
X173746885Y-90090780D01*
X174037171Y-90997923D01*
X174400028Y-89727923D01*
X175778885Y-90997923D02*
X174908028Y-90997923D01*
X175343457Y-90997923D02*
X175343457Y-89727923D01*
X175198314Y-89909352D01*
X175053171Y-90030304D01*
X174908028Y-90090780D01*
X177085171Y-90151257D02*
X177085171Y-90997923D01*
X176722314Y-89667447D02*
X176359457Y-90574590D01*
X177302885Y-90574590D01*
X134848600Y-109733447D02*
X135066314Y-109793923D01*
X135429171Y-109793923D01*
X135574314Y-109733447D01*
X135646885Y-109672971D01*
X135719457Y-109552019D01*
X135719457Y-109431066D01*
X135646885Y-109310114D01*
X135574314Y-109249638D01*
X135429171Y-109189161D01*
X135138885Y-109128685D01*
X134993742Y-109068209D01*
X134921171Y-109007733D01*
X134848600Y-108886780D01*
X134848600Y-108765828D01*
X134921171Y-108644876D01*
X134993742Y-108584400D01*
X135138885Y-108523923D01*
X135501742Y-108523923D01*
X135719457Y-108584400D01*
X136227457Y-108523923D02*
X136590314Y-109793923D01*
X136880600Y-108886780D01*
X137170885Y-109793923D01*
X137533742Y-108523923D01*
X137969171Y-108523923D02*
X138985171Y-108523923D01*
X138332028Y-109793923D01*
X134848600Y-90937447D02*
X135066314Y-90997923D01*
X135429171Y-90997923D01*
X135574314Y-90937447D01*
X135646885Y-90876971D01*
X135719457Y-90756019D01*
X135719457Y-90635066D01*
X135646885Y-90514114D01*
X135574314Y-90453638D01*
X135429171Y-90393161D01*
X135138885Y-90332685D01*
X134993742Y-90272209D01*
X134921171Y-90211733D01*
X134848600Y-90090780D01*
X134848600Y-89969828D01*
X134921171Y-89848876D01*
X134993742Y-89788400D01*
X135138885Y-89727923D01*
X135501742Y-89727923D01*
X135719457Y-89788400D01*
X136227457Y-89727923D02*
X136590314Y-90997923D01*
X136880600Y-90090780D01*
X137170885Y-90997923D01*
X137533742Y-89727923D01*
X138767457Y-89727923D02*
X138477171Y-89727923D01*
X138332028Y-89788400D01*
X138259457Y-89848876D01*
X138114314Y-90030304D01*
X138041742Y-90272209D01*
X138041742Y-90756019D01*
X138114314Y-90876971D01*
X138186885Y-90937447D01*
X138332028Y-90997923D01*
X138622314Y-90997923D01*
X138767457Y-90937447D01*
X138840028Y-90876971D01*
X138912600Y-90756019D01*
X138912600Y-90453638D01*
X138840028Y-90332685D01*
X138767457Y-90272209D01*
X138622314Y-90211733D01*
X138332028Y-90211733D01*
X138186885Y-90272209D01*
X138114314Y-90332685D01*
X138041742Y-90453638D01*
X116052600Y-90937447D02*
X116270314Y-90997923D01*
X116633171Y-90997923D01*
X116778314Y-90937447D01*
X116850885Y-90876971D01*
X116923457Y-90756019D01*
X116923457Y-90635066D01*
X116850885Y-90514114D01*
X116778314Y-90453638D01*
X116633171Y-90393161D01*
X116342885Y-90332685D01*
X116197742Y-90272209D01*
X116125171Y-90211733D01*
X116052600Y-90090780D01*
X116052600Y-89969828D01*
X116125171Y-89848876D01*
X116197742Y-89788400D01*
X116342885Y-89727923D01*
X116705742Y-89727923D01*
X116923457Y-89788400D01*
X117431457Y-89727923D02*
X117794314Y-90997923D01*
X118084600Y-90090780D01*
X118374885Y-90997923D01*
X118737742Y-89727923D01*
X119245742Y-89848876D02*
X119318314Y-89788400D01*
X119463457Y-89727923D01*
X119826314Y-89727923D01*
X119971457Y-89788400D01*
X120044028Y-89848876D01*
X120116600Y-89969828D01*
X120116600Y-90090780D01*
X120044028Y-90272209D01*
X119173171Y-90997923D01*
X120116600Y-90997923D01*
X116052600Y-109733447D02*
X116270314Y-109793923D01*
X116633171Y-109793923D01*
X116778314Y-109733447D01*
X116850885Y-109672971D01*
X116923457Y-109552019D01*
X116923457Y-109431066D01*
X116850885Y-109310114D01*
X116778314Y-109249638D01*
X116633171Y-109189161D01*
X116342885Y-109128685D01*
X116197742Y-109068209D01*
X116125171Y-109007733D01*
X116052600Y-108886780D01*
X116052600Y-108765828D01*
X116125171Y-108644876D01*
X116197742Y-108584400D01*
X116342885Y-108523923D01*
X116705742Y-108523923D01*
X116923457Y-108584400D01*
X117431457Y-108523923D02*
X117794314Y-109793923D01*
X118084600Y-108886780D01*
X118374885Y-109793923D01*
X118737742Y-108523923D01*
X119173171Y-108523923D02*
X120116600Y-108523923D01*
X119608600Y-109007733D01*
X119826314Y-109007733D01*
X119971457Y-109068209D01*
X120044028Y-109128685D01*
X120116600Y-109249638D01*
X120116600Y-109552019D01*
X120044028Y-109672971D01*
X119971457Y-109733447D01*
X119826314Y-109793923D01*
X119390885Y-109793923D01*
X119245742Y-109733447D01*
X119173171Y-109672971D01*
X114401600Y-74326447D02*
X114619314Y-74386923D01*
X114982171Y-74386923D01*
X115127314Y-74326447D01*
X115199885Y-74265971D01*
X115272457Y-74145019D01*
X115272457Y-74024066D01*
X115199885Y-73903114D01*
X115127314Y-73842638D01*
X114982171Y-73782161D01*
X114691885Y-73721685D01*
X114546742Y-73661209D01*
X114474171Y-73600733D01*
X114401600Y-73479780D01*
X114401600Y-73358828D01*
X114474171Y-73237876D01*
X114546742Y-73177400D01*
X114691885Y-73116923D01*
X115054742Y-73116923D01*
X115272457Y-73177400D01*
X115780457Y-73116923D02*
X116143314Y-74386923D01*
X116433600Y-73479780D01*
X116723885Y-74386923D01*
X117086742Y-73116923D01*
X118465600Y-74386923D02*
X117594742Y-74386923D01*
X118030171Y-74386923D02*
X118030171Y-73116923D01*
X117885028Y-73298352D01*
X117739885Y-73419304D01*
X117594742Y-73479780D01*
X133070600Y-74326447D02*
X133288314Y-74386923D01*
X133651171Y-74386923D01*
X133796314Y-74326447D01*
X133868885Y-74265971D01*
X133941457Y-74145019D01*
X133941457Y-74024066D01*
X133868885Y-73903114D01*
X133796314Y-73842638D01*
X133651171Y-73782161D01*
X133360885Y-73721685D01*
X133215742Y-73661209D01*
X133143171Y-73600733D01*
X133070600Y-73479780D01*
X133070600Y-73358828D01*
X133143171Y-73237876D01*
X133215742Y-73177400D01*
X133360885Y-73116923D01*
X133723742Y-73116923D01*
X133941457Y-73177400D01*
X134449457Y-73116923D02*
X134812314Y-74386923D01*
X135102600Y-73479780D01*
X135392885Y-74386923D01*
X135755742Y-73116923D01*
X137062028Y-73116923D02*
X136336314Y-73116923D01*
X136263742Y-73721685D01*
X136336314Y-73661209D01*
X136481457Y-73600733D01*
X136844314Y-73600733D01*
X136989457Y-73661209D01*
X137062028Y-73721685D01*
X137134600Y-73842638D01*
X137134600Y-74145019D01*
X137062028Y-74265971D01*
X136989457Y-74326447D01*
X136844314Y-74386923D01*
X136481457Y-74386923D01*
X136336314Y-74326447D01*
X136263742Y-74265971D01*
X151866600Y-74326447D02*
X152084314Y-74386923D01*
X152447171Y-74386923D01*
X152592314Y-74326447D01*
X152664885Y-74265971D01*
X152737457Y-74145019D01*
X152737457Y-74024066D01*
X152664885Y-73903114D01*
X152592314Y-73842638D01*
X152447171Y-73782161D01*
X152156885Y-73721685D01*
X152011742Y-73661209D01*
X151939171Y-73600733D01*
X151866600Y-73479780D01*
X151866600Y-73358828D01*
X151939171Y-73237876D01*
X152011742Y-73177400D01*
X152156885Y-73116923D01*
X152519742Y-73116923D01*
X152737457Y-73177400D01*
X153245457Y-73116923D02*
X153608314Y-74386923D01*
X153898600Y-73479780D01*
X154188885Y-74386923D01*
X154551742Y-73116923D01*
X155204885Y-74386923D02*
X155495171Y-74386923D01*
X155640314Y-74326447D01*
X155712885Y-74265971D01*
X155858028Y-74084542D01*
X155930600Y-73842638D01*
X155930600Y-73358828D01*
X155858028Y-73237876D01*
X155785457Y-73177400D01*
X155640314Y-73116923D01*
X155350028Y-73116923D01*
X155204885Y-73177400D01*
X155132314Y-73237876D01*
X155059742Y-73358828D01*
X155059742Y-73661209D01*
X155132314Y-73782161D01*
X155204885Y-73842638D01*
X155350028Y-73903114D01*
X155640314Y-73903114D01*
X155785457Y-73842638D01*
X155858028Y-73782161D01*
X155930600Y-73661209D01*
X169682885Y-74961447D02*
X169900600Y-75021923D01*
X170263457Y-75021923D01*
X170408600Y-74961447D01*
X170481171Y-74900971D01*
X170553742Y-74780019D01*
X170553742Y-74659066D01*
X170481171Y-74538114D01*
X170408600Y-74477638D01*
X170263457Y-74417161D01*
X169973171Y-74356685D01*
X169828028Y-74296209D01*
X169755457Y-74235733D01*
X169682885Y-74114780D01*
X169682885Y-73993828D01*
X169755457Y-73872876D01*
X169828028Y-73812400D01*
X169973171Y-73751923D01*
X170336028Y-73751923D01*
X170553742Y-73812400D01*
X171061742Y-73751923D02*
X171424600Y-75021923D01*
X171714885Y-74114780D01*
X172005171Y-75021923D01*
X172368028Y-73751923D01*
X173746885Y-75021923D02*
X172876028Y-75021923D01*
X173311457Y-75021923D02*
X173311457Y-73751923D01*
X173166314Y-73933352D01*
X173021171Y-74054304D01*
X172876028Y-74114780D01*
X174254885Y-73751923D02*
X175198314Y-73751923D01*
X174690314Y-74235733D01*
X174908028Y-74235733D01*
X175053171Y-74296209D01*
X175125742Y-74356685D01*
X175198314Y-74477638D01*
X175198314Y-74780019D01*
X175125742Y-74900971D01*
X175053171Y-74961447D01*
X174908028Y-75021923D01*
X174472600Y-75021923D01*
X174327457Y-74961447D01*
X174254885Y-74900971D01*
D13*
X150398314Y-143606780D02*
X150398314Y-142606780D01*
X150636409Y-142606780D01*
X150779266Y-142654400D01*
X150874504Y-142749638D01*
X150922123Y-142844876D01*
X150969742Y-143035352D01*
X150969742Y-143178209D01*
X150922123Y-143368685D01*
X150874504Y-143463923D01*
X150779266Y-143559161D01*
X150636409Y-143606780D01*
X150398314Y-143606780D01*
X151350695Y-142702019D02*
X151398314Y-142654400D01*
X151493552Y-142606780D01*
X151731647Y-142606780D01*
X151826885Y-142654400D01*
X151874504Y-142702019D01*
X151922123Y-142797257D01*
X151922123Y-142892495D01*
X151874504Y-143035352D01*
X151303076Y-143606780D01*
X151922123Y-143606780D01*
X152493552Y-143035352D02*
X152398314Y-142987733D01*
X152350695Y-142940114D01*
X152303076Y-142844876D01*
X152303076Y-142797257D01*
X152350695Y-142702019D01*
X152398314Y-142654400D01*
X152493552Y-142606780D01*
X152684028Y-142606780D01*
X152779266Y-142654400D01*
X152826885Y-142702019D01*
X152874504Y-142797257D01*
X152874504Y-142844876D01*
X152826885Y-142940114D01*
X152779266Y-142987733D01*
X152684028Y-143035352D01*
X152493552Y-143035352D01*
X152398314Y-143082971D01*
X152350695Y-143130590D01*
X152303076Y-143225828D01*
X152303076Y-143416304D01*
X152350695Y-143511542D01*
X152398314Y-143559161D01*
X152493552Y-143606780D01*
X152684028Y-143606780D01*
X152779266Y-143559161D01*
X152826885Y-143511542D01*
X152874504Y-143416304D01*
X152874504Y-143225828D01*
X152826885Y-143130590D01*
X152779266Y-143082971D01*
X152684028Y-143035352D01*
X144492742Y-143384542D02*
X144445123Y-143432161D01*
X144302266Y-143479780D01*
X144207028Y-143479780D01*
X144064171Y-143432161D01*
X143968933Y-143336923D01*
X143921314Y-143241685D01*
X143873695Y-143051209D01*
X143873695Y-142908352D01*
X143921314Y-142717876D01*
X143968933Y-142622638D01*
X144064171Y-142527400D01*
X144207028Y-142479780D01*
X144302266Y-142479780D01*
X144445123Y-142527400D01*
X144492742Y-142575019D01*
X145445123Y-143479780D02*
X144873695Y-143479780D01*
X145159409Y-143479780D02*
X145159409Y-142479780D01*
X145064171Y-142622638D01*
X144968933Y-142717876D01*
X144873695Y-142765495D01*
X145826076Y-142575019D02*
X145873695Y-142527400D01*
X145968933Y-142479780D01*
X146207028Y-142479780D01*
X146302266Y-142527400D01*
X146349885Y-142575019D01*
X146397504Y-142670257D01*
X146397504Y-142765495D01*
X146349885Y-142908352D01*
X145778457Y-143479780D01*
X146397504Y-143479780D01*
X163288742Y-143384542D02*
X163241123Y-143432161D01*
X163098266Y-143479780D01*
X163003028Y-143479780D01*
X162860171Y-143432161D01*
X162764933Y-143336923D01*
X162717314Y-143241685D01*
X162669695Y-143051209D01*
X162669695Y-142908352D01*
X162717314Y-142717876D01*
X162764933Y-142622638D01*
X162860171Y-142527400D01*
X163003028Y-142479780D01*
X163098266Y-142479780D01*
X163241123Y-142527400D01*
X163288742Y-142575019D01*
X164241123Y-143479780D02*
X163669695Y-143479780D01*
X163955409Y-143479780D02*
X163955409Y-142479780D01*
X163860171Y-142622638D01*
X163764933Y-142717876D01*
X163669695Y-142765495D01*
X165098266Y-142479780D02*
X164907790Y-142479780D01*
X164812552Y-142527400D01*
X164764933Y-142575019D01*
X164669695Y-142717876D01*
X164622076Y-142908352D01*
X164622076Y-143289304D01*
X164669695Y-143384542D01*
X164717314Y-143432161D01*
X164812552Y-143479780D01*
X165003028Y-143479780D01*
X165098266Y-143432161D01*
X165145885Y-143384542D01*
X165193504Y-143289304D01*
X165193504Y-143051209D01*
X165145885Y-142955971D01*
X165098266Y-142908352D01*
X165003028Y-142860733D01*
X164812552Y-142860733D01*
X164717314Y-142908352D01*
X164669695Y-142955971D01*
X164622076Y-143051209D01*
X146080314Y-132303780D02*
X146080314Y-131303780D01*
X146318409Y-131303780D01*
X146461266Y-131351400D01*
X146556504Y-131446638D01*
X146604123Y-131541876D01*
X146651742Y-131732352D01*
X146651742Y-131875209D01*
X146604123Y-132065685D01*
X146556504Y-132160923D01*
X146461266Y-132256161D01*
X146318409Y-132303780D01*
X146080314Y-132303780D01*
X147604123Y-132303780D02*
X147032695Y-132303780D01*
X147318409Y-132303780D02*
X147318409Y-131303780D01*
X147223171Y-131446638D01*
X147127933Y-131541876D01*
X147032695Y-131589495D01*
X147985076Y-131399019D02*
X148032695Y-131351400D01*
X148127933Y-131303780D01*
X148366028Y-131303780D01*
X148461266Y-131351400D01*
X148508885Y-131399019D01*
X148556504Y-131494257D01*
X148556504Y-131589495D01*
X148508885Y-131732352D01*
X147937457Y-132303780D01*
X148556504Y-132303780D01*
X164876314Y-132303780D02*
X164876314Y-131303780D01*
X165114409Y-131303780D01*
X165257266Y-131351400D01*
X165352504Y-131446638D01*
X165400123Y-131541876D01*
X165447742Y-131732352D01*
X165447742Y-131875209D01*
X165400123Y-132065685D01*
X165352504Y-132160923D01*
X165257266Y-132256161D01*
X165114409Y-132303780D01*
X164876314Y-132303780D01*
X166400123Y-132303780D02*
X165828695Y-132303780D01*
X166114409Y-132303780D02*
X166114409Y-131303780D01*
X166019171Y-131446638D01*
X165923933Y-131541876D01*
X165828695Y-131589495D01*
X167257266Y-131303780D02*
X167066790Y-131303780D01*
X166971552Y-131351400D01*
X166923933Y-131399019D01*
X166828695Y-131541876D01*
X166781076Y-131732352D01*
X166781076Y-132113304D01*
X166828695Y-132208542D01*
X166876314Y-132256161D01*
X166971552Y-132303780D01*
X167162028Y-132303780D01*
X167257266Y-132256161D01*
X167304885Y-132208542D01*
X167352504Y-132113304D01*
X167352504Y-131875209D01*
X167304885Y-131779971D01*
X167257266Y-131732352D01*
X167162028Y-131684733D01*
X166971552Y-131684733D01*
X166876314Y-131732352D01*
X166828695Y-131779971D01*
X166781076Y-131875209D01*
X169575314Y-143606780D02*
X169575314Y-142606780D01*
X169813409Y-142606780D01*
X169956266Y-142654400D01*
X170051504Y-142749638D01*
X170099123Y-142844876D01*
X170146742Y-143035352D01*
X170146742Y-143178209D01*
X170099123Y-143368685D01*
X170051504Y-143463923D01*
X169956266Y-143559161D01*
X169813409Y-143606780D01*
X169575314Y-143606780D01*
X170480076Y-142606780D02*
X171099123Y-142606780D01*
X170765790Y-142987733D01*
X170908647Y-142987733D01*
X171003885Y-143035352D01*
X171051504Y-143082971D01*
X171099123Y-143178209D01*
X171099123Y-143416304D01*
X171051504Y-143511542D01*
X171003885Y-143559161D01*
X170908647Y-143606780D01*
X170622933Y-143606780D01*
X170527695Y-143559161D01*
X170480076Y-143511542D01*
X171480076Y-142702019D02*
X171527695Y-142654400D01*
X171622933Y-142606780D01*
X171861028Y-142606780D01*
X171956266Y-142654400D01*
X172003885Y-142702019D01*
X172051504Y-142797257D01*
X172051504Y-142892495D01*
X172003885Y-143035352D01*
X171432457Y-143606780D01*
X172051504Y-143606780D01*
X126553933Y-143384542D02*
X126506314Y-143432161D01*
X126363457Y-143479780D01*
X126268219Y-143479780D01*
X126125361Y-143432161D01*
X126030123Y-143336923D01*
X125982504Y-143241685D01*
X125934885Y-143051209D01*
X125934885Y-142908352D01*
X125982504Y-142717876D01*
X126030123Y-142622638D01*
X126125361Y-142527400D01*
X126268219Y-142479780D01*
X126363457Y-142479780D01*
X126506314Y-142527400D01*
X126553933Y-142575019D01*
X127125361Y-142908352D02*
X127030123Y-142860733D01*
X126982504Y-142813114D01*
X126934885Y-142717876D01*
X126934885Y-142670257D01*
X126982504Y-142575019D01*
X127030123Y-142527400D01*
X127125361Y-142479780D01*
X127315838Y-142479780D01*
X127411076Y-142527400D01*
X127458695Y-142575019D01*
X127506314Y-142670257D01*
X127506314Y-142717876D01*
X127458695Y-142813114D01*
X127411076Y-142860733D01*
X127315838Y-142908352D01*
X127125361Y-142908352D01*
X127030123Y-142955971D01*
X126982504Y-143003590D01*
X126934885Y-143098828D01*
X126934885Y-143289304D01*
X126982504Y-143384542D01*
X127030123Y-143432161D01*
X127125361Y-143479780D01*
X127315838Y-143479780D01*
X127411076Y-143432161D01*
X127458695Y-143384542D01*
X127506314Y-143289304D01*
X127506314Y-143098828D01*
X127458695Y-143003590D01*
X127411076Y-142955971D01*
X127315838Y-142908352D01*
X109218504Y-132303780D02*
X109218504Y-131303780D01*
X109456600Y-131303780D01*
X109599457Y-131351400D01*
X109694695Y-131446638D01*
X109742314Y-131541876D01*
X109789933Y-131732352D01*
X109789933Y-131875209D01*
X109742314Y-132065685D01*
X109694695Y-132160923D01*
X109599457Y-132256161D01*
X109456600Y-132303780D01*
X109218504Y-132303780D01*
X110647076Y-131637114D02*
X110647076Y-132303780D01*
X110408980Y-131256161D02*
X110170885Y-131970447D01*
X110789933Y-131970447D01*
X107884933Y-143384542D02*
X107837314Y-143432161D01*
X107694457Y-143479780D01*
X107599219Y-143479780D01*
X107456361Y-143432161D01*
X107361123Y-143336923D01*
X107313504Y-143241685D01*
X107265885Y-143051209D01*
X107265885Y-142908352D01*
X107313504Y-142717876D01*
X107361123Y-142622638D01*
X107456361Y-142527400D01*
X107599219Y-142479780D01*
X107694457Y-142479780D01*
X107837314Y-142527400D01*
X107884933Y-142575019D01*
X108742076Y-142813114D02*
X108742076Y-143479780D01*
X108503980Y-142432161D02*
X108265885Y-143146447D01*
X108884933Y-143146447D01*
X113060314Y-143606780D02*
X113060314Y-142606780D01*
X113298409Y-142606780D01*
X113441266Y-142654400D01*
X113536504Y-142749638D01*
X113584123Y-142844876D01*
X113631742Y-143035352D01*
X113631742Y-143178209D01*
X113584123Y-143368685D01*
X113536504Y-143463923D01*
X113441266Y-143559161D01*
X113298409Y-143606780D01*
X113060314Y-143606780D01*
X114012695Y-142702019D02*
X114060314Y-142654400D01*
X114155552Y-142606780D01*
X114393647Y-142606780D01*
X114488885Y-142654400D01*
X114536504Y-142702019D01*
X114584123Y-142797257D01*
X114584123Y-142892495D01*
X114536504Y-143035352D01*
X113965076Y-143606780D01*
X114584123Y-143606780D01*
X115203171Y-142606780D02*
X115298409Y-142606780D01*
X115393647Y-142654400D01*
X115441266Y-142702019D01*
X115488885Y-142797257D01*
X115536504Y-142987733D01*
X115536504Y-143225828D01*
X115488885Y-143416304D01*
X115441266Y-143511542D01*
X115393647Y-143559161D01*
X115298409Y-143606780D01*
X115203171Y-143606780D01*
X115107933Y-143559161D01*
X115060314Y-143511542D01*
X115012695Y-143416304D01*
X114965076Y-143225828D01*
X114965076Y-142987733D01*
X115012695Y-142797257D01*
X115060314Y-142702019D01*
X115107933Y-142654400D01*
X115203171Y-142606780D01*
X128014504Y-132303780D02*
X128014504Y-131303780D01*
X128252600Y-131303780D01*
X128395457Y-131351400D01*
X128490695Y-131446638D01*
X128538314Y-131541876D01*
X128585933Y-131732352D01*
X128585933Y-131875209D01*
X128538314Y-132065685D01*
X128490695Y-132160923D01*
X128395457Y-132256161D01*
X128252600Y-132303780D01*
X128014504Y-132303780D01*
X129157361Y-131732352D02*
X129062123Y-131684733D01*
X129014504Y-131637114D01*
X128966885Y-131541876D01*
X128966885Y-131494257D01*
X129014504Y-131399019D01*
X129062123Y-131351400D01*
X129157361Y-131303780D01*
X129347838Y-131303780D01*
X129443076Y-131351400D01*
X129490695Y-131399019D01*
X129538314Y-131494257D01*
X129538314Y-131541876D01*
X129490695Y-131637114D01*
X129443076Y-131684733D01*
X129347838Y-131732352D01*
X129157361Y-131732352D01*
X129062123Y-131779971D01*
X129014504Y-131827590D01*
X128966885Y-131922828D01*
X128966885Y-132113304D01*
X129014504Y-132208542D01*
X129062123Y-132256161D01*
X129157361Y-132303780D01*
X129347838Y-132303780D01*
X129443076Y-132256161D01*
X129490695Y-132208542D01*
X129538314Y-132113304D01*
X129538314Y-131922828D01*
X129490695Y-131827590D01*
X129443076Y-131779971D01*
X129347838Y-131732352D01*
X131983314Y-143606780D02*
X131983314Y-142606780D01*
X132221409Y-142606780D01*
X132364266Y-142654400D01*
X132459504Y-142749638D01*
X132507123Y-142844876D01*
X132554742Y-143035352D01*
X132554742Y-143178209D01*
X132507123Y-143368685D01*
X132459504Y-143463923D01*
X132364266Y-143559161D01*
X132221409Y-143606780D01*
X131983314Y-143606780D01*
X132935695Y-142702019D02*
X132983314Y-142654400D01*
X133078552Y-142606780D01*
X133316647Y-142606780D01*
X133411885Y-142654400D01*
X133459504Y-142702019D01*
X133507123Y-142797257D01*
X133507123Y-142892495D01*
X133459504Y-143035352D01*
X132888076Y-143606780D01*
X133507123Y-143606780D01*
X134364266Y-142940114D02*
X134364266Y-143606780D01*
X134126171Y-142559161D02*
X133888076Y-143273447D01*
X134507123Y-143273447D01*
X164622314Y-113507780D02*
X164622314Y-112507780D01*
X164860409Y-112507780D01*
X165003266Y-112555400D01*
X165098504Y-112650638D01*
X165146123Y-112745876D01*
X165193742Y-112936352D01*
X165193742Y-113079209D01*
X165146123Y-113269685D01*
X165098504Y-113364923D01*
X165003266Y-113460161D01*
X164860409Y-113507780D01*
X164622314Y-113507780D01*
X166146123Y-113507780D02*
X165574695Y-113507780D01*
X165860409Y-113507780D02*
X165860409Y-112507780D01*
X165765171Y-112650638D01*
X165669933Y-112745876D01*
X165574695Y-112793495D01*
X167050885Y-112507780D02*
X166574695Y-112507780D01*
X166527076Y-112983971D01*
X166574695Y-112936352D01*
X166669933Y-112888733D01*
X166908028Y-112888733D01*
X167003266Y-112936352D01*
X167050885Y-112983971D01*
X167098504Y-113079209D01*
X167098504Y-113317304D01*
X167050885Y-113412542D01*
X167003266Y-113460161D01*
X166908028Y-113507780D01*
X166669933Y-113507780D01*
X166574695Y-113460161D01*
X166527076Y-113412542D01*
X150271314Y-106268780D02*
X150271314Y-105268780D01*
X150509409Y-105268780D01*
X150652266Y-105316400D01*
X150747504Y-105411638D01*
X150795123Y-105506876D01*
X150842742Y-105697352D01*
X150842742Y-105840209D01*
X150795123Y-106030685D01*
X150747504Y-106125923D01*
X150652266Y-106221161D01*
X150509409Y-106268780D01*
X150271314Y-106268780D01*
X151223695Y-105364019D02*
X151271314Y-105316400D01*
X151366552Y-105268780D01*
X151604647Y-105268780D01*
X151699885Y-105316400D01*
X151747504Y-105364019D01*
X151795123Y-105459257D01*
X151795123Y-105554495D01*
X151747504Y-105697352D01*
X151176076Y-106268780D01*
X151795123Y-106268780D01*
X152652266Y-105268780D02*
X152461790Y-105268780D01*
X152366552Y-105316400D01*
X152318933Y-105364019D01*
X152223695Y-105506876D01*
X152176076Y-105697352D01*
X152176076Y-106078304D01*
X152223695Y-106173542D01*
X152271314Y-106221161D01*
X152366552Y-106268780D01*
X152557028Y-106268780D01*
X152652266Y-106221161D01*
X152699885Y-106173542D01*
X152747504Y-106078304D01*
X152747504Y-105840209D01*
X152699885Y-105744971D01*
X152652266Y-105697352D01*
X152557028Y-105649733D01*
X152366552Y-105649733D01*
X152271314Y-105697352D01*
X152223695Y-105744971D01*
X152176076Y-105840209D01*
X145826314Y-113507780D02*
X145826314Y-112507780D01*
X146064409Y-112507780D01*
X146207266Y-112555400D01*
X146302504Y-112650638D01*
X146350123Y-112745876D01*
X146397742Y-112936352D01*
X146397742Y-113079209D01*
X146350123Y-113269685D01*
X146302504Y-113364923D01*
X146207266Y-113460161D01*
X146064409Y-113507780D01*
X145826314Y-113507780D01*
X147350123Y-113507780D02*
X146778695Y-113507780D01*
X147064409Y-113507780D02*
X147064409Y-112507780D01*
X146969171Y-112650638D01*
X146873933Y-112745876D01*
X146778695Y-112793495D01*
X148302504Y-113507780D02*
X147731076Y-113507780D01*
X148016790Y-113507780D02*
X148016790Y-112507780D01*
X147921552Y-112650638D01*
X147826314Y-112745876D01*
X147731076Y-112793495D01*
X145826314Y-94711780D02*
X145826314Y-93711780D01*
X146064409Y-93711780D01*
X146207266Y-93759400D01*
X146302504Y-93854638D01*
X146350123Y-93949876D01*
X146397742Y-94140352D01*
X146397742Y-94283209D01*
X146350123Y-94473685D01*
X146302504Y-94568923D01*
X146207266Y-94664161D01*
X146064409Y-94711780D01*
X145826314Y-94711780D01*
X147350123Y-94711780D02*
X146778695Y-94711780D01*
X147064409Y-94711780D02*
X147064409Y-93711780D01*
X146969171Y-93854638D01*
X146873933Y-93949876D01*
X146778695Y-93997495D01*
X147969171Y-93711780D02*
X148064409Y-93711780D01*
X148159647Y-93759400D01*
X148207266Y-93807019D01*
X148254885Y-93902257D01*
X148302504Y-94092733D01*
X148302504Y-94330828D01*
X148254885Y-94521304D01*
X148207266Y-94616542D01*
X148159647Y-94664161D01*
X148064409Y-94711780D01*
X147969171Y-94711780D01*
X147873933Y-94664161D01*
X147826314Y-94616542D01*
X147778695Y-94521304D01*
X147731076Y-94330828D01*
X147731076Y-94092733D01*
X147778695Y-93902257D01*
X147826314Y-93807019D01*
X147873933Y-93759400D01*
X147969171Y-93711780D01*
X150144314Y-124937780D02*
X150144314Y-123937780D01*
X150382409Y-123937780D01*
X150525266Y-123985400D01*
X150620504Y-124080638D01*
X150668123Y-124175876D01*
X150715742Y-124366352D01*
X150715742Y-124509209D01*
X150668123Y-124699685D01*
X150620504Y-124794923D01*
X150525266Y-124890161D01*
X150382409Y-124937780D01*
X150144314Y-124937780D01*
X151096695Y-124033019D02*
X151144314Y-123985400D01*
X151239552Y-123937780D01*
X151477647Y-123937780D01*
X151572885Y-123985400D01*
X151620504Y-124033019D01*
X151668123Y-124128257D01*
X151668123Y-124223495D01*
X151620504Y-124366352D01*
X151049076Y-124937780D01*
X151668123Y-124937780D01*
X152001457Y-123937780D02*
X152668123Y-123937780D01*
X152239552Y-124937780D01*
X169321314Y-106395780D02*
X169321314Y-105395780D01*
X169559409Y-105395780D01*
X169702266Y-105443400D01*
X169797504Y-105538638D01*
X169845123Y-105633876D01*
X169892742Y-105824352D01*
X169892742Y-105967209D01*
X169845123Y-106157685D01*
X169797504Y-106252923D01*
X169702266Y-106348161D01*
X169559409Y-106395780D01*
X169321314Y-106395780D01*
X170226076Y-105395780D02*
X170845123Y-105395780D01*
X170511790Y-105776733D01*
X170654647Y-105776733D01*
X170749885Y-105824352D01*
X170797504Y-105871971D01*
X170845123Y-105967209D01*
X170845123Y-106205304D01*
X170797504Y-106300542D01*
X170749885Y-106348161D01*
X170654647Y-106395780D01*
X170368933Y-106395780D01*
X170273695Y-106348161D01*
X170226076Y-106300542D01*
X171464171Y-105395780D02*
X171559409Y-105395780D01*
X171654647Y-105443400D01*
X171702266Y-105491019D01*
X171749885Y-105586257D01*
X171797504Y-105776733D01*
X171797504Y-106014828D01*
X171749885Y-106205304D01*
X171702266Y-106300542D01*
X171654647Y-106348161D01*
X171559409Y-106395780D01*
X171464171Y-106395780D01*
X171368933Y-106348161D01*
X171321314Y-106300542D01*
X171273695Y-106205304D01*
X171226076Y-106014828D01*
X171226076Y-105776733D01*
X171273695Y-105586257D01*
X171321314Y-105491019D01*
X171368933Y-105443400D01*
X171464171Y-105395780D01*
X164622314Y-94711780D02*
X164622314Y-93711780D01*
X164860409Y-93711780D01*
X165003266Y-93759400D01*
X165098504Y-93854638D01*
X165146123Y-93949876D01*
X165193742Y-94140352D01*
X165193742Y-94283209D01*
X165146123Y-94473685D01*
X165098504Y-94568923D01*
X165003266Y-94664161D01*
X164860409Y-94711780D01*
X164622314Y-94711780D01*
X166146123Y-94711780D02*
X165574695Y-94711780D01*
X165860409Y-94711780D02*
X165860409Y-93711780D01*
X165765171Y-93854638D01*
X165669933Y-93949876D01*
X165574695Y-93997495D01*
X167003266Y-94045114D02*
X167003266Y-94711780D01*
X166765171Y-93664161D02*
X166527076Y-94378447D01*
X167146123Y-94378447D01*
X169448314Y-124810780D02*
X169448314Y-123810780D01*
X169686409Y-123810780D01*
X169829266Y-123858400D01*
X169924504Y-123953638D01*
X169972123Y-124048876D01*
X170019742Y-124239352D01*
X170019742Y-124382209D01*
X169972123Y-124572685D01*
X169924504Y-124667923D01*
X169829266Y-124763161D01*
X169686409Y-124810780D01*
X169448314Y-124810780D01*
X170353076Y-123810780D02*
X170972123Y-123810780D01*
X170638790Y-124191733D01*
X170781647Y-124191733D01*
X170876885Y-124239352D01*
X170924504Y-124286971D01*
X170972123Y-124382209D01*
X170972123Y-124620304D01*
X170924504Y-124715542D01*
X170876885Y-124763161D01*
X170781647Y-124810780D01*
X170495933Y-124810780D01*
X170400695Y-124763161D01*
X170353076Y-124715542D01*
X171924504Y-124810780D02*
X171353076Y-124810780D01*
X171638790Y-124810780D02*
X171638790Y-123810780D01*
X171543552Y-123953638D01*
X171448314Y-124048876D01*
X171353076Y-124096495D01*
X112933314Y-124937780D02*
X112933314Y-123937780D01*
X113171409Y-123937780D01*
X113314266Y-123985400D01*
X113409504Y-124080638D01*
X113457123Y-124175876D01*
X113504742Y-124366352D01*
X113504742Y-124509209D01*
X113457123Y-124699685D01*
X113409504Y-124794923D01*
X113314266Y-124890161D01*
X113171409Y-124937780D01*
X112933314Y-124937780D01*
X114457123Y-124937780D02*
X113885695Y-124937780D01*
X114171409Y-124937780D02*
X114171409Y-123937780D01*
X114076171Y-124080638D01*
X113980933Y-124175876D01*
X113885695Y-124223495D01*
X114933314Y-124937780D02*
X115123790Y-124937780D01*
X115219028Y-124890161D01*
X115266647Y-124842542D01*
X115361885Y-124699685D01*
X115409504Y-124509209D01*
X115409504Y-124128257D01*
X115361885Y-124033019D01*
X115314266Y-123985400D01*
X115219028Y-123937780D01*
X115028552Y-123937780D01*
X114933314Y-123985400D01*
X114885695Y-124033019D01*
X114838076Y-124128257D01*
X114838076Y-124366352D01*
X114885695Y-124461590D01*
X114933314Y-124509209D01*
X115028552Y-124556828D01*
X115219028Y-124556828D01*
X115314266Y-124509209D01*
X115361885Y-124461590D01*
X115409504Y-124366352D01*
X128458933Y-125350542D02*
X128411314Y-125398161D01*
X128268457Y-125445780D01*
X128173219Y-125445780D01*
X128030361Y-125398161D01*
X127935123Y-125302923D01*
X127887504Y-125207685D01*
X127839885Y-125017209D01*
X127839885Y-124874352D01*
X127887504Y-124683876D01*
X127935123Y-124588638D01*
X128030361Y-124493400D01*
X128173219Y-124445780D01*
X128268457Y-124445780D01*
X128411314Y-124493400D01*
X128458933Y-124541019D01*
X128792266Y-124445780D02*
X129458933Y-124445780D01*
X129030361Y-125445780D01*
X127760504Y-113507780D02*
X127760504Y-112507780D01*
X127998600Y-112507780D01*
X128141457Y-112555400D01*
X128236695Y-112650638D01*
X128284314Y-112745876D01*
X128331933Y-112936352D01*
X128331933Y-113079209D01*
X128284314Y-113269685D01*
X128236695Y-113364923D01*
X128141457Y-113460161D01*
X127998600Y-113507780D01*
X127760504Y-113507780D01*
X128665266Y-112507780D02*
X129331933Y-112507780D01*
X128903361Y-113507780D01*
X131602314Y-124937780D02*
X131602314Y-123937780D01*
X131840409Y-123937780D01*
X131983266Y-123985400D01*
X132078504Y-124080638D01*
X132126123Y-124175876D01*
X132173742Y-124366352D01*
X132173742Y-124509209D01*
X132126123Y-124699685D01*
X132078504Y-124794923D01*
X131983266Y-124890161D01*
X131840409Y-124937780D01*
X131602314Y-124937780D01*
X132554695Y-124033019D02*
X132602314Y-123985400D01*
X132697552Y-123937780D01*
X132935647Y-123937780D01*
X133030885Y-123985400D01*
X133078504Y-124033019D01*
X133126123Y-124128257D01*
X133126123Y-124223495D01*
X133078504Y-124366352D01*
X132507076Y-124937780D01*
X133126123Y-124937780D01*
X133459457Y-123937780D02*
X134078504Y-123937780D01*
X133745171Y-124318733D01*
X133888028Y-124318733D01*
X133983266Y-124366352D01*
X134030885Y-124413971D01*
X134078504Y-124509209D01*
X134078504Y-124747304D01*
X134030885Y-124842542D01*
X133983266Y-124890161D01*
X133888028Y-124937780D01*
X133602314Y-124937780D01*
X133507076Y-124890161D01*
X133459457Y-124842542D01*
X112933314Y-106141780D02*
X112933314Y-105141780D01*
X113171409Y-105141780D01*
X113314266Y-105189400D01*
X113409504Y-105284638D01*
X113457123Y-105379876D01*
X113504742Y-105570352D01*
X113504742Y-105713209D01*
X113457123Y-105903685D01*
X113409504Y-105998923D01*
X113314266Y-106094161D01*
X113171409Y-106141780D01*
X112933314Y-106141780D01*
X114457123Y-106141780D02*
X113885695Y-106141780D01*
X114171409Y-106141780D02*
X114171409Y-105141780D01*
X114076171Y-105284638D01*
X113980933Y-105379876D01*
X113885695Y-105427495D01*
X115028552Y-105570352D02*
X114933314Y-105522733D01*
X114885695Y-105475114D01*
X114838076Y-105379876D01*
X114838076Y-105332257D01*
X114885695Y-105237019D01*
X114933314Y-105189400D01*
X115028552Y-105141780D01*
X115219028Y-105141780D01*
X115314266Y-105189400D01*
X115361885Y-105237019D01*
X115409504Y-105332257D01*
X115409504Y-105379876D01*
X115361885Y-105475114D01*
X115314266Y-105522733D01*
X115219028Y-105570352D01*
X115028552Y-105570352D01*
X114933314Y-105617971D01*
X114885695Y-105665590D01*
X114838076Y-105760828D01*
X114838076Y-105951304D01*
X114885695Y-106046542D01*
X114933314Y-106094161D01*
X115028552Y-106141780D01*
X115219028Y-106141780D01*
X115314266Y-106094161D01*
X115361885Y-106046542D01*
X115409504Y-105951304D01*
X115409504Y-105760828D01*
X115361885Y-105665590D01*
X115314266Y-105617971D01*
X115219028Y-105570352D01*
X127760504Y-94711780D02*
X127760504Y-93711780D01*
X127998600Y-93711780D01*
X128141457Y-93759400D01*
X128236695Y-93854638D01*
X128284314Y-93949876D01*
X128331933Y-94140352D01*
X128331933Y-94283209D01*
X128284314Y-94473685D01*
X128236695Y-94568923D01*
X128141457Y-94664161D01*
X127998600Y-94711780D01*
X127760504Y-94711780D01*
X129189076Y-93711780D02*
X128998600Y-93711780D01*
X128903361Y-93759400D01*
X128855742Y-93807019D01*
X128760504Y-93949876D01*
X128712885Y-94140352D01*
X128712885Y-94521304D01*
X128760504Y-94616542D01*
X128808123Y-94664161D01*
X128903361Y-94711780D01*
X129093838Y-94711780D01*
X129189076Y-94664161D01*
X129236695Y-94616542D01*
X129284314Y-94521304D01*
X129284314Y-94283209D01*
X129236695Y-94187971D01*
X129189076Y-94140352D01*
X129093838Y-94092733D01*
X128903361Y-94092733D01*
X128808123Y-94140352D01*
X128760504Y-94187971D01*
X128712885Y-94283209D01*
X128458933Y-106554542D02*
X128411314Y-106602161D01*
X128268457Y-106649780D01*
X128173219Y-106649780D01*
X128030361Y-106602161D01*
X127935123Y-106506923D01*
X127887504Y-106411685D01*
X127839885Y-106221209D01*
X127839885Y-106078352D01*
X127887504Y-105887876D01*
X127935123Y-105792638D01*
X128030361Y-105697400D01*
X128173219Y-105649780D01*
X128268457Y-105649780D01*
X128411314Y-105697400D01*
X128458933Y-105745019D01*
X129316076Y-105649780D02*
X129125600Y-105649780D01*
X129030361Y-105697400D01*
X128982742Y-105745019D01*
X128887504Y-105887876D01*
X128839885Y-106078352D01*
X128839885Y-106459304D01*
X128887504Y-106554542D01*
X128935123Y-106602161D01*
X129030361Y-106649780D01*
X129220838Y-106649780D01*
X129316076Y-106602161D01*
X129363695Y-106554542D01*
X129411314Y-106459304D01*
X129411314Y-106221209D01*
X129363695Y-106125971D01*
X129316076Y-106078352D01*
X129220838Y-106030733D01*
X129030361Y-106030733D01*
X128935123Y-106078352D01*
X128887504Y-106125971D01*
X128839885Y-106221209D01*
X131602314Y-106268780D02*
X131602314Y-105268780D01*
X131840409Y-105268780D01*
X131983266Y-105316400D01*
X132078504Y-105411638D01*
X132126123Y-105506876D01*
X132173742Y-105697352D01*
X132173742Y-105840209D01*
X132126123Y-106030685D01*
X132078504Y-106125923D01*
X131983266Y-106221161D01*
X131840409Y-106268780D01*
X131602314Y-106268780D01*
X132554695Y-105364019D02*
X132602314Y-105316400D01*
X132697552Y-105268780D01*
X132935647Y-105268780D01*
X133030885Y-105316400D01*
X133078504Y-105364019D01*
X133126123Y-105459257D01*
X133126123Y-105554495D01*
X133078504Y-105697352D01*
X132507076Y-106268780D01*
X133126123Y-106268780D01*
X133507076Y-105364019D02*
X133554695Y-105316400D01*
X133649933Y-105268780D01*
X133888028Y-105268780D01*
X133983266Y-105316400D01*
X134030885Y-105364019D01*
X134078504Y-105459257D01*
X134078504Y-105554495D01*
X134030885Y-105697352D01*
X133459457Y-106268780D01*
X134078504Y-106268780D01*
X147032742Y-106554542D02*
X146985123Y-106602161D01*
X146842266Y-106649780D01*
X146747028Y-106649780D01*
X146604171Y-106602161D01*
X146508933Y-106506923D01*
X146461314Y-106411685D01*
X146413695Y-106221209D01*
X146413695Y-106078352D01*
X146461314Y-105887876D01*
X146508933Y-105792638D01*
X146604171Y-105697400D01*
X146747028Y-105649780D01*
X146842266Y-105649780D01*
X146985123Y-105697400D01*
X147032742Y-105745019D01*
X147985123Y-106649780D02*
X147413695Y-106649780D01*
X147699409Y-106649780D02*
X147699409Y-105649780D01*
X147604171Y-105792638D01*
X147508933Y-105887876D01*
X147413695Y-105935495D01*
X148604171Y-105649780D02*
X148699409Y-105649780D01*
X148794647Y-105697400D01*
X148842266Y-105745019D01*
X148889885Y-105840257D01*
X148937504Y-106030733D01*
X148937504Y-106268828D01*
X148889885Y-106459304D01*
X148842266Y-106554542D01*
X148794647Y-106602161D01*
X148699409Y-106649780D01*
X148604171Y-106649780D01*
X148508933Y-106602161D01*
X148461314Y-106554542D01*
X148413695Y-106459304D01*
X148366076Y-106268828D01*
X148366076Y-106030733D01*
X148413695Y-105840257D01*
X148461314Y-105745019D01*
X148508933Y-105697400D01*
X148604171Y-105649780D01*
X165828742Y-106681542D02*
X165781123Y-106729161D01*
X165638266Y-106776780D01*
X165543028Y-106776780D01*
X165400171Y-106729161D01*
X165304933Y-106633923D01*
X165257314Y-106538685D01*
X165209695Y-106348209D01*
X165209695Y-106205352D01*
X165257314Y-106014876D01*
X165304933Y-105919638D01*
X165400171Y-105824400D01*
X165543028Y-105776780D01*
X165638266Y-105776780D01*
X165781123Y-105824400D01*
X165828742Y-105872019D01*
X166781123Y-106776780D02*
X166209695Y-106776780D01*
X166495409Y-106776780D02*
X166495409Y-105776780D01*
X166400171Y-105919638D01*
X166304933Y-106014876D01*
X166209695Y-106062495D01*
X167638266Y-106110114D02*
X167638266Y-106776780D01*
X167400171Y-105729161D02*
X167162076Y-106443447D01*
X167781123Y-106443447D01*
X165955742Y-125350542D02*
X165908123Y-125398161D01*
X165765266Y-125445780D01*
X165670028Y-125445780D01*
X165527171Y-125398161D01*
X165431933Y-125302923D01*
X165384314Y-125207685D01*
X165336695Y-125017209D01*
X165336695Y-124874352D01*
X165384314Y-124683876D01*
X165431933Y-124588638D01*
X165527171Y-124493400D01*
X165670028Y-124445780D01*
X165765266Y-124445780D01*
X165908123Y-124493400D01*
X165955742Y-124541019D01*
X166908123Y-125445780D02*
X166336695Y-125445780D01*
X166622409Y-125445780D02*
X166622409Y-124445780D01*
X166527171Y-124588638D01*
X166431933Y-124683876D01*
X166336695Y-124731495D01*
X167812885Y-124445780D02*
X167336695Y-124445780D01*
X167289076Y-124921971D01*
X167336695Y-124874352D01*
X167431933Y-124826733D01*
X167670028Y-124826733D01*
X167765266Y-124874352D01*
X167812885Y-124921971D01*
X167860504Y-125017209D01*
X167860504Y-125255304D01*
X167812885Y-125350542D01*
X167765266Y-125398161D01*
X167670028Y-125445780D01*
X167431933Y-125445780D01*
X167336695Y-125398161D01*
X167289076Y-125350542D01*
X147032742Y-125350542D02*
X146985123Y-125398161D01*
X146842266Y-125445780D01*
X146747028Y-125445780D01*
X146604171Y-125398161D01*
X146508933Y-125302923D01*
X146461314Y-125207685D01*
X146413695Y-125017209D01*
X146413695Y-124874352D01*
X146461314Y-124683876D01*
X146508933Y-124588638D01*
X146604171Y-124493400D01*
X146747028Y-124445780D01*
X146842266Y-124445780D01*
X146985123Y-124493400D01*
X147032742Y-124541019D01*
X147985123Y-125445780D02*
X147413695Y-125445780D01*
X147699409Y-125445780D02*
X147699409Y-124445780D01*
X147604171Y-124588638D01*
X147508933Y-124683876D01*
X147413695Y-124731495D01*
X148937504Y-125445780D02*
X148366076Y-125445780D01*
X148651790Y-125445780D02*
X148651790Y-124445780D01*
X148556552Y-124588638D01*
X148461314Y-124683876D01*
X148366076Y-124731495D01*
X108964504Y-94711780D02*
X108964504Y-93711780D01*
X109202600Y-93711780D01*
X109345457Y-93759400D01*
X109440695Y-93854638D01*
X109488314Y-93949876D01*
X109535933Y-94140352D01*
X109535933Y-94283209D01*
X109488314Y-94473685D01*
X109440695Y-94568923D01*
X109345457Y-94664161D01*
X109202600Y-94711780D01*
X108964504Y-94711780D01*
X109916885Y-93807019D02*
X109964504Y-93759400D01*
X110059742Y-93711780D01*
X110297838Y-93711780D01*
X110393076Y-93759400D01*
X110440695Y-93807019D01*
X110488314Y-93902257D01*
X110488314Y-93997495D01*
X110440695Y-94140352D01*
X109869266Y-94711780D01*
X110488314Y-94711780D01*
X108964504Y-113507780D02*
X108964504Y-112507780D01*
X109202600Y-112507780D01*
X109345457Y-112555400D01*
X109440695Y-112650638D01*
X109488314Y-112745876D01*
X109535933Y-112936352D01*
X109535933Y-113079209D01*
X109488314Y-113269685D01*
X109440695Y-113364923D01*
X109345457Y-113460161D01*
X109202600Y-113507780D01*
X108964504Y-113507780D01*
X109869266Y-112507780D02*
X110488314Y-112507780D01*
X110154980Y-112888733D01*
X110297838Y-112888733D01*
X110393076Y-112936352D01*
X110440695Y-112983971D01*
X110488314Y-113079209D01*
X110488314Y-113317304D01*
X110440695Y-113412542D01*
X110393076Y-113460161D01*
X110297838Y-113507780D01*
X110012123Y-113507780D01*
X109916885Y-113460161D01*
X109869266Y-113412542D01*
X109662933Y-106554542D02*
X109615314Y-106602161D01*
X109472457Y-106649780D01*
X109377219Y-106649780D01*
X109234361Y-106602161D01*
X109139123Y-106506923D01*
X109091504Y-106411685D01*
X109043885Y-106221209D01*
X109043885Y-106078352D01*
X109091504Y-105887876D01*
X109139123Y-105792638D01*
X109234361Y-105697400D01*
X109377219Y-105649780D01*
X109472457Y-105649780D01*
X109615314Y-105697400D01*
X109662933Y-105745019D01*
X110043885Y-105745019D02*
X110091504Y-105697400D01*
X110186742Y-105649780D01*
X110424838Y-105649780D01*
X110520076Y-105697400D01*
X110567695Y-105745019D01*
X110615314Y-105840257D01*
X110615314Y-105935495D01*
X110567695Y-106078352D01*
X109996266Y-106649780D01*
X110615314Y-106649780D01*
X109662933Y-125350542D02*
X109615314Y-125398161D01*
X109472457Y-125445780D01*
X109377219Y-125445780D01*
X109234361Y-125398161D01*
X109139123Y-125302923D01*
X109091504Y-125207685D01*
X109043885Y-125017209D01*
X109043885Y-124874352D01*
X109091504Y-124683876D01*
X109139123Y-124588638D01*
X109234361Y-124493400D01*
X109377219Y-124445780D01*
X109472457Y-124445780D01*
X109615314Y-124493400D01*
X109662933Y-124541019D01*
X109996266Y-124445780D02*
X110615314Y-124445780D01*
X110281980Y-124826733D01*
X110424838Y-124826733D01*
X110520076Y-124874352D01*
X110567695Y-124921971D01*
X110615314Y-125017209D01*
X110615314Y-125255304D01*
X110567695Y-125350542D01*
X110520076Y-125398161D01*
X110424838Y-125445780D01*
X110139123Y-125445780D01*
X110043885Y-125398161D01*
X109996266Y-125350542D01*
X109789933Y-87758542D02*
X109742314Y-87806161D01*
X109599457Y-87853780D01*
X109504219Y-87853780D01*
X109361361Y-87806161D01*
X109266123Y-87710923D01*
X109218504Y-87615685D01*
X109170885Y-87425209D01*
X109170885Y-87282352D01*
X109218504Y-87091876D01*
X109266123Y-86996638D01*
X109361361Y-86901400D01*
X109504219Y-86853780D01*
X109599457Y-86853780D01*
X109742314Y-86901400D01*
X109789933Y-86949019D01*
X110742314Y-87853780D02*
X110170885Y-87853780D01*
X110456600Y-87853780D02*
X110456600Y-86853780D01*
X110361361Y-86996638D01*
X110266123Y-87091876D01*
X110170885Y-87139495D01*
X128458933Y-87758542D02*
X128411314Y-87806161D01*
X128268457Y-87853780D01*
X128173219Y-87853780D01*
X128030361Y-87806161D01*
X127935123Y-87710923D01*
X127887504Y-87615685D01*
X127839885Y-87425209D01*
X127839885Y-87282352D01*
X127887504Y-87091876D01*
X127935123Y-86996638D01*
X128030361Y-86901400D01*
X128173219Y-86853780D01*
X128268457Y-86853780D01*
X128411314Y-86901400D01*
X128458933Y-86949019D01*
X129363695Y-86853780D02*
X128887504Y-86853780D01*
X128839885Y-87329971D01*
X128887504Y-87282352D01*
X128982742Y-87234733D01*
X129220838Y-87234733D01*
X129316076Y-87282352D01*
X129363695Y-87329971D01*
X129411314Y-87425209D01*
X129411314Y-87663304D01*
X129363695Y-87758542D01*
X129316076Y-87806161D01*
X129220838Y-87853780D01*
X128982742Y-87853780D01*
X128887504Y-87806161D01*
X128839885Y-87758542D01*
X147254933Y-87758542D02*
X147207314Y-87806161D01*
X147064457Y-87853780D01*
X146969219Y-87853780D01*
X146826361Y-87806161D01*
X146731123Y-87710923D01*
X146683504Y-87615685D01*
X146635885Y-87425209D01*
X146635885Y-87282352D01*
X146683504Y-87091876D01*
X146731123Y-86996638D01*
X146826361Y-86901400D01*
X146969219Y-86853780D01*
X147064457Y-86853780D01*
X147207314Y-86901400D01*
X147254933Y-86949019D01*
X147731123Y-87853780D02*
X147921600Y-87853780D01*
X148016838Y-87806161D01*
X148064457Y-87758542D01*
X148159695Y-87615685D01*
X148207314Y-87425209D01*
X148207314Y-87044257D01*
X148159695Y-86949019D01*
X148112076Y-86901400D01*
X148016838Y-86853780D01*
X147826361Y-86853780D01*
X147731123Y-86901400D01*
X147683504Y-86949019D01*
X147635885Y-87044257D01*
X147635885Y-87282352D01*
X147683504Y-87377590D01*
X147731123Y-87425209D01*
X147826361Y-87472828D01*
X148016838Y-87472828D01*
X148112076Y-87425209D01*
X148159695Y-87377590D01*
X148207314Y-87282352D01*
X165701742Y-87758542D02*
X165654123Y-87806161D01*
X165511266Y-87853780D01*
X165416028Y-87853780D01*
X165273171Y-87806161D01*
X165177933Y-87710923D01*
X165130314Y-87615685D01*
X165082695Y-87425209D01*
X165082695Y-87282352D01*
X165130314Y-87091876D01*
X165177933Y-86996638D01*
X165273171Y-86901400D01*
X165416028Y-86853780D01*
X165511266Y-86853780D01*
X165654123Y-86901400D01*
X165701742Y-86949019D01*
X166654123Y-87853780D02*
X166082695Y-87853780D01*
X166368409Y-87853780D02*
X166368409Y-86853780D01*
X166273171Y-86996638D01*
X166177933Y-87091876D01*
X166082695Y-87139495D01*
X166987457Y-86853780D02*
X167606504Y-86853780D01*
X167273171Y-87234733D01*
X167416028Y-87234733D01*
X167511266Y-87282352D01*
X167558885Y-87329971D01*
X167606504Y-87425209D01*
X167606504Y-87663304D01*
X167558885Y-87758542D01*
X167511266Y-87806161D01*
X167416028Y-87853780D01*
X167130314Y-87853780D01*
X167035076Y-87806161D01*
X166987457Y-87758542D01*
X108964504Y-75852579D02*
X108964504Y-74852579D01*
X109202600Y-74852579D01*
X109345457Y-74900199D01*
X109440695Y-74995437D01*
X109488314Y-75090675D01*
X109535933Y-75281151D01*
X109535933Y-75424008D01*
X109488314Y-75614484D01*
X109440695Y-75709722D01*
X109345457Y-75804960D01*
X109202600Y-75852579D01*
X108964504Y-75852579D01*
X110488314Y-75852579D02*
X109916885Y-75852579D01*
X110202600Y-75852579D02*
X110202600Y-74852579D01*
X110107361Y-74995437D01*
X110012123Y-75090675D01*
X109916885Y-75138294D01*
X127760504Y-75915780D02*
X127760504Y-74915780D01*
X127998600Y-74915780D01*
X128141457Y-74963400D01*
X128236695Y-75058638D01*
X128284314Y-75153876D01*
X128331933Y-75344352D01*
X128331933Y-75487209D01*
X128284314Y-75677685D01*
X128236695Y-75772923D01*
X128141457Y-75868161D01*
X127998600Y-75915780D01*
X127760504Y-75915780D01*
X129236695Y-74915780D02*
X128760504Y-74915780D01*
X128712885Y-75391971D01*
X128760504Y-75344352D01*
X128855742Y-75296733D01*
X129093838Y-75296733D01*
X129189076Y-75344352D01*
X129236695Y-75391971D01*
X129284314Y-75487209D01*
X129284314Y-75725304D01*
X129236695Y-75820542D01*
X129189076Y-75868161D01*
X129093838Y-75915780D01*
X128855742Y-75915780D01*
X128760504Y-75868161D01*
X128712885Y-75820542D01*
X146556504Y-75915780D02*
X146556504Y-74915780D01*
X146794600Y-74915780D01*
X146937457Y-74963400D01*
X147032695Y-75058638D01*
X147080314Y-75153876D01*
X147127933Y-75344352D01*
X147127933Y-75487209D01*
X147080314Y-75677685D01*
X147032695Y-75772923D01*
X146937457Y-75868161D01*
X146794600Y-75915780D01*
X146556504Y-75915780D01*
X147604123Y-75915780D02*
X147794600Y-75915780D01*
X147889838Y-75868161D01*
X147937457Y-75820542D01*
X148032695Y-75677685D01*
X148080314Y-75487209D01*
X148080314Y-75106257D01*
X148032695Y-75011019D01*
X147985076Y-74963400D01*
X147889838Y-74915780D01*
X147699361Y-74915780D01*
X147604123Y-74963400D01*
X147556504Y-75011019D01*
X147508885Y-75106257D01*
X147508885Y-75344352D01*
X147556504Y-75439590D01*
X147604123Y-75487209D01*
X147699361Y-75534828D01*
X147889838Y-75534828D01*
X147985076Y-75487209D01*
X148032695Y-75439590D01*
X148080314Y-75344352D01*
X164622314Y-75915780D02*
X164622314Y-74915780D01*
X164860409Y-74915780D01*
X165003266Y-74963400D01*
X165098504Y-75058638D01*
X165146123Y-75153876D01*
X165193742Y-75344352D01*
X165193742Y-75487209D01*
X165146123Y-75677685D01*
X165098504Y-75772923D01*
X165003266Y-75868161D01*
X164860409Y-75915780D01*
X164622314Y-75915780D01*
X166146123Y-75915780D02*
X165574695Y-75915780D01*
X165860409Y-75915780D02*
X165860409Y-74915780D01*
X165765171Y-75058638D01*
X165669933Y-75153876D01*
X165574695Y-75201495D01*
X166479457Y-74915780D02*
X167098504Y-74915780D01*
X166765171Y-75296733D01*
X166908028Y-75296733D01*
X167003266Y-75344352D01*
X167050885Y-75391971D01*
X167098504Y-75487209D01*
X167098504Y-75725304D01*
X167050885Y-75820542D01*
X167003266Y-75868161D01*
X166908028Y-75915780D01*
X166622314Y-75915780D01*
X166527076Y-75868161D01*
X166479457Y-75820542D01*
X98663066Y-63434980D02*
X98663066Y-64149266D01*
X98615447Y-64292123D01*
X98520209Y-64387361D01*
X98377352Y-64434980D01*
X98282114Y-64434980D01*
X99091638Y-63530219D02*
X99139257Y-63482600D01*
X99234495Y-63434980D01*
X99472590Y-63434980D01*
X99567828Y-63482600D01*
X99615447Y-63530219D01*
X99663066Y-63625457D01*
X99663066Y-63720695D01*
X99615447Y-63863552D01*
X99044019Y-64434980D01*
X99663066Y-64434980D01*
X112806314Y-87726780D02*
X112806314Y-86726780D01*
X113044409Y-86726780D01*
X113187266Y-86774400D01*
X113282504Y-86869638D01*
X113330123Y-86964876D01*
X113377742Y-87155352D01*
X113377742Y-87298209D01*
X113330123Y-87488685D01*
X113282504Y-87583923D01*
X113187266Y-87679161D01*
X113044409Y-87726780D01*
X112806314Y-87726780D01*
X114330123Y-87726780D02*
X113758695Y-87726780D01*
X114044409Y-87726780D02*
X114044409Y-86726780D01*
X113949171Y-86869638D01*
X113853933Y-86964876D01*
X113758695Y-87012495D01*
X114663457Y-86726780D02*
X115330123Y-86726780D01*
X114901552Y-87726780D01*
X131856314Y-87726780D02*
X131856314Y-86726780D01*
X132094409Y-86726780D01*
X132237266Y-86774400D01*
X132332504Y-86869638D01*
X132380123Y-86964876D01*
X132427742Y-87155352D01*
X132427742Y-87298209D01*
X132380123Y-87488685D01*
X132332504Y-87583923D01*
X132237266Y-87679161D01*
X132094409Y-87726780D01*
X131856314Y-87726780D01*
X132808695Y-86822019D02*
X132856314Y-86774400D01*
X132951552Y-86726780D01*
X133189647Y-86726780D01*
X133284885Y-86774400D01*
X133332504Y-86822019D01*
X133380123Y-86917257D01*
X133380123Y-87012495D01*
X133332504Y-87155352D01*
X132761076Y-87726780D01*
X133380123Y-87726780D01*
X134332504Y-87726780D02*
X133761076Y-87726780D01*
X134046790Y-87726780D02*
X134046790Y-86726780D01*
X133951552Y-86869638D01*
X133856314Y-86964876D01*
X133761076Y-87012495D01*
X150271314Y-87599780D02*
X150271314Y-86599780D01*
X150509409Y-86599780D01*
X150652266Y-86647400D01*
X150747504Y-86742638D01*
X150795123Y-86837876D01*
X150842742Y-87028352D01*
X150842742Y-87171209D01*
X150795123Y-87361685D01*
X150747504Y-87456923D01*
X150652266Y-87552161D01*
X150509409Y-87599780D01*
X150271314Y-87599780D01*
X151223695Y-86695019D02*
X151271314Y-86647400D01*
X151366552Y-86599780D01*
X151604647Y-86599780D01*
X151699885Y-86647400D01*
X151747504Y-86695019D01*
X151795123Y-86790257D01*
X151795123Y-86885495D01*
X151747504Y-87028352D01*
X151176076Y-87599780D01*
X151795123Y-87599780D01*
X152699885Y-86599780D02*
X152223695Y-86599780D01*
X152176076Y-87075971D01*
X152223695Y-87028352D01*
X152318933Y-86980733D01*
X152557028Y-86980733D01*
X152652266Y-87028352D01*
X152699885Y-87075971D01*
X152747504Y-87171209D01*
X152747504Y-87409304D01*
X152699885Y-87504542D01*
X152652266Y-87552161D01*
X152557028Y-87599780D01*
X152318933Y-87599780D01*
X152223695Y-87552161D01*
X152176076Y-87504542D01*
X169448314Y-87345780D02*
X169448314Y-86345780D01*
X169686409Y-86345780D01*
X169829266Y-86393400D01*
X169924504Y-86488638D01*
X169972123Y-86583876D01*
X170019742Y-86774352D01*
X170019742Y-86917209D01*
X169972123Y-87107685D01*
X169924504Y-87202923D01*
X169829266Y-87298161D01*
X169686409Y-87345780D01*
X169448314Y-87345780D01*
X170400695Y-86441019D02*
X170448314Y-86393400D01*
X170543552Y-86345780D01*
X170781647Y-86345780D01*
X170876885Y-86393400D01*
X170924504Y-86441019D01*
X170972123Y-86536257D01*
X170972123Y-86631495D01*
X170924504Y-86774352D01*
X170353076Y-87345780D01*
X170972123Y-87345780D01*
X171448314Y-87345780D02*
X171638790Y-87345780D01*
X171734028Y-87298161D01*
X171781647Y-87250542D01*
X171876885Y-87107685D01*
X171924504Y-86917209D01*
X171924504Y-86536257D01*
X171876885Y-86441019D01*
X171829266Y-86393400D01*
X171734028Y-86345780D01*
X171543552Y-86345780D01*
X171448314Y-86393400D01*
X171400695Y-86441019D01*
X171353076Y-86536257D01*
X171353076Y-86774352D01*
X171400695Y-86869590D01*
X171448314Y-86917209D01*
X171543552Y-86964828D01*
X171734028Y-86964828D01*
X171829266Y-86917209D01*
X171876885Y-86869590D01*
X171924504Y-86774352D01*
X193166666Y-70922380D02*
X193166666Y-71636666D01*
X193119047Y-71779523D01*
X193023809Y-71874761D01*
X192880952Y-71922380D01*
X192785714Y-71922380D01*
X193547619Y-70922380D02*
X194166666Y-70922380D01*
X193833333Y-71303333D01*
X193976190Y-71303333D01*
X194071428Y-71350952D01*
X194119047Y-71398571D01*
X194166666Y-71493809D01*
X194166666Y-71731904D01*
X194119047Y-71827142D01*
X194071428Y-71874761D01*
X193976190Y-71922380D01*
X193690476Y-71922380D01*
X193595238Y-71874761D01*
X193547619Y-71827142D01*
X193166666Y-59122380D02*
X193166666Y-59836666D01*
X193119047Y-59979523D01*
X193023809Y-60074761D01*
X192880952Y-60122380D01*
X192785714Y-60122380D01*
X194071428Y-59455714D02*
X194071428Y-60122380D01*
X193833333Y-59074761D02*
X193595238Y-59789047D01*
X194214285Y-59789047D01*
X100166666Y-52452380D02*
X100166666Y-53166666D01*
X100119047Y-53309523D01*
X100023809Y-53404761D01*
X99880952Y-53452380D01*
X99785714Y-53452380D01*
X101166666Y-53452380D02*
X100595238Y-53452380D01*
X100880952Y-53452380D02*
X100880952Y-52452380D01*
X100785714Y-52595238D01*
X100690476Y-52690476D01*
X100595238Y-52738095D01*
M02*
