G04 #@! TF.GenerationSoftware,KiCad,Pcbnew,(2017-12-24 revision 570866557)-makepkg*
G04 #@! TF.CreationDate,2017-12-27T22:40:15-07:00*
G04 #@! TF.ProjectId,KeyGridTest1,4B65794772696454657374312E6B6963,rev?*
G04 #@! TF.SameCoordinates,Original*
G04 #@! TF.FileFunction,Legend,Bot*
G04 #@! TF.FilePolarity,Positive*
%FSLAX46Y46*%
G04 Gerber Fmt 4.6, Leading zero omitted, Abs format (unit mm)*
G04 Created by KiCad (PCBNEW (2017-12-24 revision 570866557)-makepkg) date 12/27/17 22:40:15*
%MOMM*%
%LPD*%
G01*
G04 APERTURE LIST*
%ADD10C,0.200000*%
%ADD11C,0.100000*%
G04 APERTURE END LIST*
D10*
X125650000Y-43950000D02*
X125650000Y-93700000D01*
X128000000Y-93750000D02*
X128000000Y-43950000D01*
X130350000Y-43950000D02*
X130350000Y-93750000D01*
X132650000Y-93700000D02*
X132650000Y-43950000D01*
X135000000Y-43900000D02*
X135000000Y-92900000D01*
X137350000Y-90150000D02*
X137350000Y-43950000D01*
X139650000Y-43950000D02*
X139650000Y-88550000D01*
X142000000Y-80350000D02*
X142000000Y-43950000D01*
X144300000Y-43950000D02*
X144300000Y-73450000D01*
X146650000Y-73450000D02*
X146650000Y-43950000D01*
X149000000Y-43950000D02*
X149000000Y-80350000D01*
X151300000Y-88450000D02*
X151300000Y-43950000D01*
X153650000Y-43900000D02*
X153650000Y-90050000D01*
X155950000Y-92850000D02*
X155950000Y-43950000D01*
X158300000Y-43900000D02*
X158300000Y-93750000D01*
X160650000Y-43900000D02*
X160600000Y-93700000D01*
X162950000Y-93750000D02*
X162950000Y-43950000D01*
X165300000Y-43900000D02*
X165300000Y-93700000D01*
X147400000Y-109950000D02*
X195850000Y-109950000D01*
X195850000Y-114750000D02*
X149550000Y-114750000D01*
X147650000Y-113000000D02*
X195850000Y-113000000D01*
X146100000Y-111400000D02*
X195850000Y-111400000D01*
X147250000Y-112600000D02*
X146950000Y-110800000D01*
X140750000Y-111400000D02*
X141300000Y-111400000D01*
X140350000Y-114750000D02*
X140750000Y-114750000D01*
X133450000Y-109950000D02*
X134400000Y-109300000D01*
X133450000Y-109950000D02*
X135200000Y-109950000D01*
X134500000Y-111400000D02*
X135600000Y-110400000D01*
X134500000Y-111400000D02*
X136550000Y-111400000D01*
X136400000Y-112950000D02*
X137100000Y-112050000D01*
X129600000Y-111400000D02*
X130200000Y-111400000D01*
X130050000Y-112300000D02*
X130500000Y-112000000D01*
X130400000Y-113050000D02*
X131150000Y-113000000D01*
X131000000Y-114400000D02*
X131700000Y-113850000D01*
X124350000Y-114750000D02*
X127050000Y-114750000D01*
X125200000Y-113050000D02*
X126250000Y-113050000D01*
X125200000Y-113050000D02*
X126050000Y-112600000D01*
X124700000Y-111400000D02*
X125500000Y-111400000D01*
X123300000Y-109950000D02*
X124850000Y-109950000D01*
X124750000Y-111550000D02*
X125400000Y-111250000D01*
X123950000Y-110550000D02*
X124950000Y-110150000D01*
X123450000Y-109700000D02*
X124500000Y-109300000D01*
X121650000Y-113050000D02*
X122350000Y-112700000D01*
X118550000Y-111500000D02*
X119250000Y-111250000D01*
X95900000Y-119700000D02*
X115400000Y-112600000D01*
X95950000Y-122100000D02*
X116450000Y-113650000D01*
X95900000Y-125250000D02*
X118050000Y-114750000D01*
X95900000Y-129550000D02*
X120550000Y-115700000D01*
X126900000Y-114500000D02*
X95900000Y-135550000D01*
X95900000Y-135750000D02*
X126900000Y-114500000D01*
X129200000Y-116100000D02*
X97600000Y-143850000D01*
X97900000Y-143850000D02*
X129200000Y-116100000D01*
X134100000Y-115800000D02*
X111250000Y-143850000D01*
X111500000Y-143850000D02*
X134100000Y-115800000D01*
X138400000Y-116300000D02*
X124950000Y-143850000D01*
X125150000Y-143850000D02*
X138400000Y-116300000D01*
X143100000Y-116300000D02*
X138600000Y-143850000D01*
X143150000Y-116300000D02*
X143100000Y-116300000D01*
X138800000Y-143850000D02*
X143150000Y-116300000D01*
X147900000Y-116750000D02*
X152300000Y-143850000D01*
X148000000Y-116750000D02*
X147900000Y-116750000D01*
X152500000Y-143850000D02*
X148000000Y-116750000D01*
X148950000Y-108850000D02*
X165900000Y-143850000D01*
X166100000Y-143850000D02*
X148950000Y-108850000D01*
X151200000Y-108750000D02*
X179550000Y-143900000D01*
X179800000Y-143900000D02*
X151200000Y-108750000D01*
X153550000Y-108800000D02*
X193250000Y-143900000D01*
X193500000Y-143900000D02*
X153550000Y-108800000D01*
X195850000Y-120000000D02*
X165300000Y-108850000D01*
X195850000Y-122450000D02*
X162850000Y-108850000D01*
X195900000Y-125650000D02*
X160650000Y-108900000D01*
X195850000Y-130000000D02*
X158150000Y-108800000D01*
X195850000Y-136250000D02*
X155850000Y-108800000D01*
X95950000Y-135450000D02*
X195850000Y-135450000D01*
X95950000Y-135250000D02*
X95950000Y-135450000D01*
X195850000Y-135250000D02*
X95950000Y-135250000D01*
X95950000Y-127500000D02*
X195850000Y-127500000D01*
X95950000Y-127350000D02*
X95950000Y-127500000D01*
X195850000Y-127400000D02*
X95950000Y-127350000D01*
X95950000Y-122450000D02*
X195850000Y-122450000D01*
X195850000Y-119150000D02*
X95950000Y-119150000D01*
X95950000Y-116750000D02*
X195800000Y-116750000D01*
X95950000Y-114750000D02*
X118050000Y-114750000D01*
X95950000Y-113000000D02*
X115650000Y-113000000D01*
X95950000Y-111400000D02*
X115150000Y-111400000D01*
X95950000Y-109950000D02*
X115900000Y-109950000D01*
D11*
G36*
X118593796Y-105599656D02*
X118891780Y-105649320D01*
X118892929Y-105649497D01*
X119237541Y-105698727D01*
X119631359Y-105846409D01*
X119979811Y-105995746D01*
X120528463Y-106245133D01*
X120825512Y-106393658D01*
X121219932Y-106640170D01*
X121663984Y-107034883D01*
X121910767Y-107331022D01*
X122206735Y-107725647D01*
X122454357Y-108270415D01*
X122652547Y-108716342D01*
X122750000Y-109106155D01*
X122750000Y-109203027D01*
X121227230Y-109298200D01*
X120942875Y-108824275D01*
X120940000Y-108820000D01*
X120640000Y-108420000D01*
X120635355Y-108414645D01*
X120235355Y-108014645D01*
X120231662Y-108011302D01*
X119681662Y-107561302D01*
X119674807Y-107556588D01*
X119324807Y-107356588D01*
X119322361Y-107355279D01*
X119067082Y-107227639D01*
X119094721Y-107172361D01*
X119099874Y-107153544D01*
X119097434Y-107134189D01*
X119087773Y-107117240D01*
X119069696Y-107104043D01*
X118371047Y-106804622D01*
X117975149Y-106606673D01*
X117827735Y-106508397D01*
X117800000Y-106500000D01*
X117600000Y-106500000D01*
X117587873Y-106501493D01*
X117387873Y-106551493D01*
X117372265Y-106558397D01*
X117222265Y-106658397D01*
X117205279Y-106677639D01*
X117155279Y-106777639D01*
X117151493Y-106787873D01*
X117101493Y-106987873D01*
X117102566Y-107015811D01*
X117152566Y-107165811D01*
X117155279Y-107172361D01*
X117355279Y-107572361D01*
X117360000Y-107580000D01*
X117660000Y-107980000D01*
X117664645Y-107985355D01*
X117914645Y-108235355D01*
X117925193Y-108243412D01*
X118275193Y-108443412D01*
X118277639Y-108444721D01*
X119077639Y-108844721D01*
X119080304Y-108845957D01*
X119430304Y-108995957D01*
X119431430Y-108996424D01*
X119681430Y-109096424D01*
X119684189Y-109097434D01*
X119818796Y-109142303D01*
X117106023Y-109797110D01*
X116827551Y-109657874D01*
X116533749Y-109413039D01*
X115988859Y-108868149D01*
X115696406Y-108429470D01*
X115598796Y-108039029D01*
X115550826Y-107799181D01*
X115598084Y-107515635D01*
X115742352Y-107227098D01*
X115936106Y-106984907D01*
X116282309Y-106688161D01*
X116582009Y-106438411D01*
X116585355Y-106435355D01*
X116835355Y-106185355D01*
X116841603Y-106177735D01*
X116938859Y-106031851D01*
X117231851Y-105738859D01*
X117370530Y-105646406D01*
X117756155Y-105550000D01*
X117997924Y-105550000D01*
X118593796Y-105599656D01*
X118593796Y-105599656D01*
G37*
X118593796Y-105599656D02*
X118891780Y-105649320D01*
X118892929Y-105649497D01*
X119237541Y-105698727D01*
X119631359Y-105846409D01*
X119979811Y-105995746D01*
X120528463Y-106245133D01*
X120825512Y-106393658D01*
X121219932Y-106640170D01*
X121663984Y-107034883D01*
X121910767Y-107331022D01*
X122206735Y-107725647D01*
X122454357Y-108270415D01*
X122652547Y-108716342D01*
X122750000Y-109106155D01*
X122750000Y-109203027D01*
X121227230Y-109298200D01*
X120942875Y-108824275D01*
X120940000Y-108820000D01*
X120640000Y-108420000D01*
X120635355Y-108414645D01*
X120235355Y-108014645D01*
X120231662Y-108011302D01*
X119681662Y-107561302D01*
X119674807Y-107556588D01*
X119324807Y-107356588D01*
X119322361Y-107355279D01*
X119067082Y-107227639D01*
X119094721Y-107172361D01*
X119099874Y-107153544D01*
X119097434Y-107134189D01*
X119087773Y-107117240D01*
X119069696Y-107104043D01*
X118371047Y-106804622D01*
X117975149Y-106606673D01*
X117827735Y-106508397D01*
X117800000Y-106500000D01*
X117600000Y-106500000D01*
X117587873Y-106501493D01*
X117387873Y-106551493D01*
X117372265Y-106558397D01*
X117222265Y-106658397D01*
X117205279Y-106677639D01*
X117155279Y-106777639D01*
X117151493Y-106787873D01*
X117101493Y-106987873D01*
X117102566Y-107015811D01*
X117152566Y-107165811D01*
X117155279Y-107172361D01*
X117355279Y-107572361D01*
X117360000Y-107580000D01*
X117660000Y-107980000D01*
X117664645Y-107985355D01*
X117914645Y-108235355D01*
X117925193Y-108243412D01*
X118275193Y-108443412D01*
X118277639Y-108444721D01*
X119077639Y-108844721D01*
X119080304Y-108845957D01*
X119430304Y-108995957D01*
X119431430Y-108996424D01*
X119681430Y-109096424D01*
X119684189Y-109097434D01*
X119818796Y-109142303D01*
X117106023Y-109797110D01*
X116827551Y-109657874D01*
X116533749Y-109413039D01*
X115988859Y-108868149D01*
X115696406Y-108429470D01*
X115598796Y-108039029D01*
X115550826Y-107799181D01*
X115598084Y-107515635D01*
X115742352Y-107227098D01*
X115936106Y-106984907D01*
X116282309Y-106688161D01*
X116582009Y-106438411D01*
X116585355Y-106435355D01*
X116835355Y-106185355D01*
X116841603Y-106177735D01*
X116938859Y-106031851D01*
X117231851Y-105738859D01*
X117370530Y-105646406D01*
X117756155Y-105550000D01*
X117997924Y-105550000D01*
X118593796Y-105599656D01*
G36*
X120186264Y-109248076D02*
X120190194Y-109249029D01*
X120440194Y-109299029D01*
X120441780Y-109299320D01*
X120740994Y-109349189D01*
X120990194Y-109399029D01*
X121000000Y-109400000D01*
X121200000Y-109400000D01*
X121204667Y-109399782D01*
X122750000Y-109254907D01*
X122750000Y-109290370D01*
X122654346Y-109529505D01*
X122556141Y-109725915D01*
X122410290Y-109969000D01*
X122264645Y-110114645D01*
X122253806Y-110130866D01*
X122250000Y-110150000D01*
X122253806Y-110169134D01*
X122264645Y-110185355D01*
X122364645Y-110285355D01*
X122377639Y-110294721D01*
X122572902Y-110392352D01*
X122818375Y-110588731D01*
X123416251Y-111086961D01*
X123812685Y-111483395D01*
X124010465Y-111730620D01*
X124157296Y-111926394D01*
X124304346Y-112220495D01*
X124402317Y-112465422D01*
X124450000Y-112656155D01*
X124450000Y-113143845D01*
X124402824Y-113332549D01*
X124306141Y-113525915D01*
X124160290Y-113769000D01*
X123814645Y-114114645D01*
X123803806Y-114130866D01*
X123800000Y-114150000D01*
X123800000Y-114229290D01*
X123717160Y-114312130D01*
X123321116Y-114609163D01*
X123027834Y-114804684D01*
X122736636Y-114901750D01*
X122291793Y-115000604D01*
X121847232Y-115050000D01*
X121403114Y-115050000D01*
X121008539Y-115000678D01*
X120562621Y-114901585D01*
X120064367Y-114752109D01*
X120063736Y-114751924D01*
X119445442Y-114575268D01*
X120761418Y-113259292D01*
X121080304Y-113395957D01*
X121092929Y-113399497D01*
X121439546Y-113449014D01*
X121786264Y-113548076D01*
X121795848Y-113549827D01*
X122395848Y-113599827D01*
X122400000Y-113600000D01*
X122750000Y-113600000D01*
X122765811Y-113597434D01*
X123065811Y-113497434D01*
X123082760Y-113487773D01*
X123094721Y-113472361D01*
X123144721Y-113372361D01*
X123149874Y-113353544D01*
X123148507Y-113337873D01*
X123098796Y-113139029D01*
X123049029Y-112890194D01*
X123042875Y-112874275D01*
X122892875Y-112624275D01*
X122891603Y-112622265D01*
X122691603Y-112322265D01*
X122688411Y-112317991D01*
X122438411Y-112017991D01*
X122435355Y-112014645D01*
X122085355Y-111664645D01*
X122080000Y-111660000D01*
X121880000Y-111510000D01*
X121877735Y-111508397D01*
X121579953Y-111309876D01*
X121282009Y-111061589D01*
X121268570Y-111053576D01*
X121028097Y-110957387D01*
X120985355Y-110914645D01*
X120969134Y-110903806D01*
X120950000Y-110900000D01*
X120937873Y-110901493D01*
X120739029Y-110951204D01*
X120500000Y-110999010D01*
X120009806Y-110900971D01*
X120007071Y-110900503D01*
X119662459Y-110851273D01*
X119267556Y-110703184D01*
X119265811Y-110702566D01*
X118366327Y-110402738D01*
X117672106Y-110154802D01*
X117222201Y-109868499D01*
X119849687Y-109151911D01*
X120186264Y-109248076D01*
X120186264Y-109248076D01*
G37*
X120186264Y-109248076D02*
X120190194Y-109249029D01*
X120440194Y-109299029D01*
X120441780Y-109299320D01*
X120740994Y-109349189D01*
X120990194Y-109399029D01*
X121000000Y-109400000D01*
X121200000Y-109400000D01*
X121204667Y-109399782D01*
X122750000Y-109254907D01*
X122750000Y-109290370D01*
X122654346Y-109529505D01*
X122556141Y-109725915D01*
X122410290Y-109969000D01*
X122264645Y-110114645D01*
X122253806Y-110130866D01*
X122250000Y-110150000D01*
X122253806Y-110169134D01*
X122264645Y-110185355D01*
X122364645Y-110285355D01*
X122377639Y-110294721D01*
X122572902Y-110392352D01*
X122818375Y-110588731D01*
X123416251Y-111086961D01*
X123812685Y-111483395D01*
X124010465Y-111730620D01*
X124157296Y-111926394D01*
X124304346Y-112220495D01*
X124402317Y-112465422D01*
X124450000Y-112656155D01*
X124450000Y-113143845D01*
X124402824Y-113332549D01*
X124306141Y-113525915D01*
X124160290Y-113769000D01*
X123814645Y-114114645D01*
X123803806Y-114130866D01*
X123800000Y-114150000D01*
X123800000Y-114229290D01*
X123717160Y-114312130D01*
X123321116Y-114609163D01*
X123027834Y-114804684D01*
X122736636Y-114901750D01*
X122291793Y-115000604D01*
X121847232Y-115050000D01*
X121403114Y-115050000D01*
X121008539Y-115000678D01*
X120562621Y-114901585D01*
X120064367Y-114752109D01*
X120063736Y-114751924D01*
X119445442Y-114575268D01*
X120761418Y-113259292D01*
X121080304Y-113395957D01*
X121092929Y-113399497D01*
X121439546Y-113449014D01*
X121786264Y-113548076D01*
X121795848Y-113549827D01*
X122395848Y-113599827D01*
X122400000Y-113600000D01*
X122750000Y-113600000D01*
X122765811Y-113597434D01*
X123065811Y-113497434D01*
X123082760Y-113487773D01*
X123094721Y-113472361D01*
X123144721Y-113372361D01*
X123149874Y-113353544D01*
X123148507Y-113337873D01*
X123098796Y-113139029D01*
X123049029Y-112890194D01*
X123042875Y-112874275D01*
X122892875Y-112624275D01*
X122891603Y-112622265D01*
X122691603Y-112322265D01*
X122688411Y-112317991D01*
X122438411Y-112017991D01*
X122435355Y-112014645D01*
X122085355Y-111664645D01*
X122080000Y-111660000D01*
X121880000Y-111510000D01*
X121877735Y-111508397D01*
X121579953Y-111309876D01*
X121282009Y-111061589D01*
X121268570Y-111053576D01*
X121028097Y-110957387D01*
X120985355Y-110914645D01*
X120969134Y-110903806D01*
X120950000Y-110900000D01*
X120937873Y-110901493D01*
X120739029Y-110951204D01*
X120500000Y-110999010D01*
X120009806Y-110900971D01*
X120007071Y-110900503D01*
X119662459Y-110851273D01*
X119267556Y-110703184D01*
X119265811Y-110702566D01*
X118366327Y-110402738D01*
X117672106Y-110154802D01*
X117222201Y-109868499D01*
X119849687Y-109151911D01*
X120186264Y-109248076D01*
G36*
X118228052Y-110444927D02*
X118083800Y-110502628D01*
X117736264Y-110601924D01*
X117714645Y-110614645D01*
X117514645Y-110814645D01*
X117503806Y-110830866D01*
X117500000Y-110850000D01*
X117501493Y-110862127D01*
X117551493Y-111062127D01*
X117553576Y-111068570D01*
X117653576Y-111318570D01*
X117660000Y-111330000D01*
X117810000Y-111530000D01*
X117818765Y-111539043D01*
X118068765Y-111739043D01*
X118077639Y-111744721D01*
X118272902Y-111842352D01*
X118516605Y-112037315D01*
X118664645Y-112185355D01*
X118670938Y-112190687D01*
X119020938Y-112440687D01*
X119027639Y-112444721D01*
X119325915Y-112593859D01*
X119574275Y-112742875D01*
X119575193Y-112743412D01*
X119925193Y-112943412D01*
X119927639Y-112944721D01*
X120227639Y-113094721D01*
X120234189Y-113097434D01*
X120530817Y-113196310D01*
X120670361Y-113266082D01*
X119535333Y-114590281D01*
X119072290Y-114405064D01*
X118575725Y-114107125D01*
X118572361Y-114105279D01*
X118174488Y-113906343D01*
X117776500Y-113657600D01*
X117774807Y-113656588D01*
X117430619Y-113459909D01*
X117235355Y-113264645D01*
X117224807Y-113256588D01*
X116880619Y-113059909D01*
X116685355Y-112864645D01*
X116677735Y-112858397D01*
X116385360Y-112663480D01*
X116140687Y-112320938D01*
X116139043Y-112318765D01*
X115950000Y-112082461D01*
X115950000Y-111900000D01*
X115949029Y-111890194D01*
X115901633Y-111653214D01*
X115947434Y-111515811D01*
X115950000Y-111500000D01*
X115950000Y-111411803D01*
X115980902Y-111350000D01*
X116000000Y-111350000D01*
X116019134Y-111346194D01*
X116035355Y-111335355D01*
X116385355Y-110985355D01*
X116391603Y-110977735D01*
X116491603Y-110827735D01*
X116497434Y-110815811D01*
X116596310Y-110519183D01*
X116637268Y-110437268D01*
X116722361Y-110394721D01*
X116737773Y-110382760D01*
X116749029Y-110359806D01*
X116793339Y-110138258D01*
X116915811Y-110097434D01*
X116935355Y-110085355D01*
X117120710Y-109900000D01*
X117138197Y-109900000D01*
X118228052Y-110444927D01*
X118228052Y-110444927D01*
G37*
X118228052Y-110444927D02*
X118083800Y-110502628D01*
X117736264Y-110601924D01*
X117714645Y-110614645D01*
X117514645Y-110814645D01*
X117503806Y-110830866D01*
X117500000Y-110850000D01*
X117501493Y-110862127D01*
X117551493Y-111062127D01*
X117553576Y-111068570D01*
X117653576Y-111318570D01*
X117660000Y-111330000D01*
X117810000Y-111530000D01*
X117818765Y-111539043D01*
X118068765Y-111739043D01*
X118077639Y-111744721D01*
X118272902Y-111842352D01*
X118516605Y-112037315D01*
X118664645Y-112185355D01*
X118670938Y-112190687D01*
X119020938Y-112440687D01*
X119027639Y-112444721D01*
X119325915Y-112593859D01*
X119574275Y-112742875D01*
X119575193Y-112743412D01*
X119925193Y-112943412D01*
X119927639Y-112944721D01*
X120227639Y-113094721D01*
X120234189Y-113097434D01*
X120530817Y-113196310D01*
X120670361Y-113266082D01*
X119535333Y-114590281D01*
X119072290Y-114405064D01*
X118575725Y-114107125D01*
X118572361Y-114105279D01*
X118174488Y-113906343D01*
X117776500Y-113657600D01*
X117774807Y-113656588D01*
X117430619Y-113459909D01*
X117235355Y-113264645D01*
X117224807Y-113256588D01*
X116880619Y-113059909D01*
X116685355Y-112864645D01*
X116677735Y-112858397D01*
X116385360Y-112663480D01*
X116140687Y-112320938D01*
X116139043Y-112318765D01*
X115950000Y-112082461D01*
X115950000Y-111900000D01*
X115949029Y-111890194D01*
X115901633Y-111653214D01*
X115947434Y-111515811D01*
X115950000Y-111500000D01*
X115950000Y-111411803D01*
X115980902Y-111350000D01*
X116000000Y-111350000D01*
X116019134Y-111346194D01*
X116035355Y-111335355D01*
X116385355Y-110985355D01*
X116391603Y-110977735D01*
X116491603Y-110827735D01*
X116497434Y-110815811D01*
X116596310Y-110519183D01*
X116637268Y-110437268D01*
X116722361Y-110394721D01*
X116737773Y-110382760D01*
X116749029Y-110359806D01*
X116793339Y-110138258D01*
X116915811Y-110097434D01*
X116935355Y-110085355D01*
X117120710Y-109900000D01*
X117138197Y-109900000D01*
X118228052Y-110444927D01*
G36*
X125937873Y-105948507D02*
X125940194Y-105949029D01*
X126433629Y-106047716D01*
X126522449Y-106092126D01*
X126816251Y-106336961D01*
X127114645Y-106635355D01*
X127120000Y-106640000D01*
X127317160Y-106787870D01*
X127614645Y-107085355D01*
X127617460Y-107087963D01*
X127966011Y-107386721D01*
X129062130Y-108482840D01*
X129210000Y-108680000D01*
X129214645Y-108685355D01*
X129358907Y-108829617D01*
X129455279Y-109022361D01*
X129460000Y-109030000D01*
X129609163Y-109228884D01*
X129704684Y-109372166D01*
X129752566Y-109515811D01*
X129755279Y-109522361D01*
X129789162Y-109590128D01*
X129770383Y-109608907D01*
X129577639Y-109705279D01*
X129562227Y-109717240D01*
X129552566Y-109734189D01*
X129550000Y-109750000D01*
X129550000Y-109788197D01*
X129512732Y-109862732D01*
X129438197Y-109900000D01*
X129300000Y-109900000D01*
X129284189Y-109902566D01*
X129134189Y-109952566D01*
X129127639Y-109955279D01*
X129027639Y-110005279D01*
X129014645Y-110014645D01*
X128964645Y-110064645D01*
X128955279Y-110077639D01*
X128908907Y-110170383D01*
X128870383Y-110208907D01*
X128677639Y-110305279D01*
X128662227Y-110317240D01*
X128652566Y-110334189D01*
X128650000Y-110350000D01*
X128650000Y-110388197D01*
X128619099Y-110450000D01*
X128500000Y-110450000D01*
X128477639Y-110455279D01*
X128377639Y-110505279D01*
X128362227Y-110517240D01*
X128352566Y-110534189D01*
X128350126Y-110553544D01*
X128353576Y-110568570D01*
X128453576Y-110818570D01*
X128455279Y-110822361D01*
X129355279Y-112622361D01*
X129355811Y-112623394D01*
X129805532Y-113472867D01*
X130054346Y-113970495D01*
X130253034Y-114467215D01*
X130300000Y-114608113D01*
X130300000Y-114729290D01*
X130270383Y-114758907D01*
X130177639Y-114805279D01*
X130164645Y-114814645D01*
X130017160Y-114962130D01*
X129821116Y-115109163D01*
X129706370Y-115185660D01*
X129685355Y-115164645D01*
X129672361Y-115155279D01*
X129572361Y-115105279D01*
X129553544Y-115100126D01*
X129534189Y-115102566D01*
X129517240Y-115112227D01*
X129505279Y-115127639D01*
X129500000Y-115150000D01*
X129500000Y-115191887D01*
X129463962Y-115300000D01*
X129420710Y-115300000D01*
X129335355Y-115214645D01*
X129319134Y-115203806D01*
X129300000Y-115200000D01*
X129280866Y-115203806D01*
X129264645Y-115214645D01*
X129253806Y-115230866D01*
X129250000Y-115250000D01*
X129250000Y-115300000D01*
X129161803Y-115300000D01*
X129072361Y-115255279D01*
X129053544Y-115250126D01*
X129027639Y-115255279D01*
X128927639Y-115305279D01*
X128908397Y-115322265D01*
X128823240Y-115450000D01*
X128656155Y-115450000D01*
X128470530Y-115403594D01*
X128327735Y-115308397D01*
X128315811Y-115302566D01*
X128177009Y-115256299D01*
X128141921Y-115221211D01*
X127945691Y-114779693D01*
X127944721Y-114777639D01*
X127594993Y-114078183D01*
X127195533Y-113229331D01*
X126845808Y-112429959D01*
X126845309Y-112428856D01*
X125795309Y-110178856D01*
X125795076Y-110178363D01*
X125195028Y-108928263D01*
X124495028Y-107478263D01*
X124493895Y-107476057D01*
X124194315Y-106926827D01*
X124150000Y-106838197D01*
X124150000Y-106711803D01*
X124189810Y-106632183D01*
X124427098Y-106442352D01*
X124822361Y-106244721D01*
X124827735Y-106241603D01*
X125118806Y-106047556D01*
X125408220Y-105999320D01*
X125413736Y-105998076D01*
X125750862Y-105901754D01*
X125937873Y-105948507D01*
X125937873Y-105948507D01*
G37*
X125937873Y-105948507D02*
X125940194Y-105949029D01*
X126433629Y-106047716D01*
X126522449Y-106092126D01*
X126816251Y-106336961D01*
X127114645Y-106635355D01*
X127120000Y-106640000D01*
X127317160Y-106787870D01*
X127614645Y-107085355D01*
X127617460Y-107087963D01*
X127966011Y-107386721D01*
X129062130Y-108482840D01*
X129210000Y-108680000D01*
X129214645Y-108685355D01*
X129358907Y-108829617D01*
X129455279Y-109022361D01*
X129460000Y-109030000D01*
X129609163Y-109228884D01*
X129704684Y-109372166D01*
X129752566Y-109515811D01*
X129755279Y-109522361D01*
X129789162Y-109590128D01*
X129770383Y-109608907D01*
X129577639Y-109705279D01*
X129562227Y-109717240D01*
X129552566Y-109734189D01*
X129550000Y-109750000D01*
X129550000Y-109788197D01*
X129512732Y-109862732D01*
X129438197Y-109900000D01*
X129300000Y-109900000D01*
X129284189Y-109902566D01*
X129134189Y-109952566D01*
X129127639Y-109955279D01*
X129027639Y-110005279D01*
X129014645Y-110014645D01*
X128964645Y-110064645D01*
X128955279Y-110077639D01*
X128908907Y-110170383D01*
X128870383Y-110208907D01*
X128677639Y-110305279D01*
X128662227Y-110317240D01*
X128652566Y-110334189D01*
X128650000Y-110350000D01*
X128650000Y-110388197D01*
X128619099Y-110450000D01*
X128500000Y-110450000D01*
X128477639Y-110455279D01*
X128377639Y-110505279D01*
X128362227Y-110517240D01*
X128352566Y-110534189D01*
X128350126Y-110553544D01*
X128353576Y-110568570D01*
X128453576Y-110818570D01*
X128455279Y-110822361D01*
X129355279Y-112622361D01*
X129355811Y-112623394D01*
X129805532Y-113472867D01*
X130054346Y-113970495D01*
X130253034Y-114467215D01*
X130300000Y-114608113D01*
X130300000Y-114729290D01*
X130270383Y-114758907D01*
X130177639Y-114805279D01*
X130164645Y-114814645D01*
X130017160Y-114962130D01*
X129821116Y-115109163D01*
X129706370Y-115185660D01*
X129685355Y-115164645D01*
X129672361Y-115155279D01*
X129572361Y-115105279D01*
X129553544Y-115100126D01*
X129534189Y-115102566D01*
X129517240Y-115112227D01*
X129505279Y-115127639D01*
X129500000Y-115150000D01*
X129500000Y-115191887D01*
X129463962Y-115300000D01*
X129420710Y-115300000D01*
X129335355Y-115214645D01*
X129319134Y-115203806D01*
X129300000Y-115200000D01*
X129280866Y-115203806D01*
X129264645Y-115214645D01*
X129253806Y-115230866D01*
X129250000Y-115250000D01*
X129250000Y-115300000D01*
X129161803Y-115300000D01*
X129072361Y-115255279D01*
X129053544Y-115250126D01*
X129027639Y-115255279D01*
X128927639Y-115305279D01*
X128908397Y-115322265D01*
X128823240Y-115450000D01*
X128656155Y-115450000D01*
X128470530Y-115403594D01*
X128327735Y-115308397D01*
X128315811Y-115302566D01*
X128177009Y-115256299D01*
X128141921Y-115221211D01*
X127945691Y-114779693D01*
X127944721Y-114777639D01*
X127594993Y-114078183D01*
X127195533Y-113229331D01*
X126845808Y-112429959D01*
X126845309Y-112428856D01*
X125795309Y-110178856D01*
X125795076Y-110178363D01*
X125195028Y-108928263D01*
X124495028Y-107478263D01*
X124493895Y-107476057D01*
X124194315Y-106926827D01*
X124150000Y-106838197D01*
X124150000Y-106711803D01*
X124189810Y-106632183D01*
X124427098Y-106442352D01*
X124822361Y-106244721D01*
X124827735Y-106241603D01*
X125118806Y-106047556D01*
X125408220Y-105999320D01*
X125413736Y-105998076D01*
X125750862Y-105901754D01*
X125937873Y-105948507D01*
G36*
X134337873Y-106398507D02*
X134350000Y-106400000D01*
X134545049Y-106400000D01*
X134787144Y-106448419D01*
X135082785Y-106546966D01*
X135329505Y-106645654D01*
X135627639Y-106794721D01*
X135631430Y-106796424D01*
X135878210Y-106895136D01*
X136170216Y-107061997D01*
X134741123Y-108586364D01*
X134525725Y-108457125D01*
X134522361Y-108455279D01*
X134222361Y-108305279D01*
X134215811Y-108302566D01*
X133915811Y-108202566D01*
X133912127Y-108201493D01*
X133717451Y-108152824D01*
X133522361Y-108055279D01*
X133500000Y-108050000D01*
X133350000Y-108050000D01*
X133327639Y-108055279D01*
X132927639Y-108255279D01*
X132920000Y-108260000D01*
X132720000Y-108410000D01*
X132714645Y-108414645D01*
X132514645Y-108614645D01*
X132501493Y-108637873D01*
X132401493Y-109037873D01*
X132400971Y-109059806D01*
X132450971Y-109309806D01*
X132451493Y-109312127D01*
X132551493Y-109712127D01*
X132555279Y-109722361D01*
X132704107Y-110020016D01*
X132853184Y-110417556D01*
X132854043Y-110419696D01*
X133004043Y-110769696D01*
X133007125Y-110775725D01*
X133156141Y-111024085D01*
X133205279Y-111122361D01*
X133211831Y-111132297D01*
X133761699Y-111782141D01*
X134011589Y-112082009D01*
X134014645Y-112085355D01*
X134414645Y-112485355D01*
X134416552Y-112487165D01*
X134916552Y-112937165D01*
X134922265Y-112941603D01*
X135372265Y-113241603D01*
X135373500Y-113242400D01*
X135773500Y-113492400D01*
X135780304Y-113495957D01*
X136480304Y-113795957D01*
X136490194Y-113799029D01*
X136739029Y-113848796D01*
X137137873Y-113948507D01*
X137141780Y-113949320D01*
X137441780Y-113999320D01*
X137456202Y-113999614D01*
X137853114Y-113950000D01*
X138050000Y-113950000D01*
X138059806Y-113949029D01*
X138309806Y-113899029D01*
X138315811Y-113897434D01*
X138465811Y-113847434D01*
X138472361Y-113844721D01*
X138572361Y-113794721D01*
X138587773Y-113782760D01*
X138597434Y-113765811D01*
X138600000Y-113750000D01*
X138600000Y-113650000D01*
X138599320Y-113641780D01*
X138550000Y-113345860D01*
X138550000Y-113250000D01*
X138547434Y-113234189D01*
X138447434Y-112934189D01*
X138441603Y-112922265D01*
X138345316Y-112777834D01*
X138247434Y-112484189D01*
X138244721Y-112477639D01*
X138094721Y-112177639D01*
X138091603Y-112172265D01*
X137892263Y-111873255D01*
X137743859Y-111625915D01*
X137644721Y-111427639D01*
X137638411Y-111417991D01*
X137388411Y-111117991D01*
X137387629Y-111117075D01*
X137040575Y-110720442D01*
X136892875Y-110474275D01*
X136881235Y-110460957D01*
X136635178Y-110264111D01*
X136388411Y-109967991D01*
X136385355Y-109964645D01*
X136085355Y-109664645D01*
X136082540Y-109662037D01*
X135733989Y-109363279D01*
X135485355Y-109114645D01*
X135479062Y-109109313D01*
X135129524Y-108859643D01*
X134930000Y-108710000D01*
X134927735Y-108708397D01*
X134826845Y-108641137D01*
X136259473Y-107113001D01*
X136569381Y-107290091D01*
X137413606Y-108134316D01*
X137812630Y-108583218D01*
X137814645Y-108585355D01*
X138363708Y-109134418D01*
X138809914Y-109630203D01*
X139057600Y-110026500D01*
X139060000Y-110030000D01*
X139507296Y-110626394D01*
X139654622Y-110921047D01*
X139954043Y-111619696D01*
X139955279Y-111622361D01*
X140200835Y-112113473D01*
X140249308Y-112792099D01*
X140153576Y-113031430D01*
X140150000Y-113050000D01*
X140150000Y-113338197D01*
X140005279Y-113627639D01*
X140000971Y-113640194D01*
X139952562Y-113882238D01*
X139759909Y-114219381D01*
X138967423Y-115011867D01*
X138423935Y-115407131D01*
X138129505Y-115554346D01*
X137635691Y-115751872D01*
X137145049Y-115850000D01*
X136752495Y-115850000D01*
X136257407Y-115800491D01*
X135764910Y-115701992D01*
X135421047Y-115554622D01*
X134922361Y-115305279D01*
X134917087Y-115303010D01*
X134374355Y-115105653D01*
X133731401Y-114611073D01*
X133083883Y-114063173D01*
X132238059Y-113217349D01*
X131691420Y-112471932D01*
X131194767Y-111677287D01*
X130996966Y-111182785D01*
X130898859Y-110888465D01*
X130849564Y-110543398D01*
X130800260Y-110148962D01*
X130849251Y-109561062D01*
X130993013Y-109177697D01*
X131235355Y-108935355D01*
X131238411Y-108932009D01*
X131488411Y-108632009D01*
X131489468Y-108630697D01*
X131838368Y-108182112D01*
X132284997Y-107685857D01*
X132627868Y-107391967D01*
X132822361Y-107294721D01*
X132835355Y-107285355D01*
X133120710Y-107000000D01*
X133200000Y-107000000D01*
X133219134Y-106996194D01*
X133239043Y-106981235D01*
X133437315Y-106733395D01*
X133678097Y-106492613D01*
X133914309Y-106398128D01*
X134148781Y-106351234D01*
X134337873Y-106398507D01*
X134337873Y-106398507D01*
G37*
X134337873Y-106398507D02*
X134350000Y-106400000D01*
X134545049Y-106400000D01*
X134787144Y-106448419D01*
X135082785Y-106546966D01*
X135329505Y-106645654D01*
X135627639Y-106794721D01*
X135631430Y-106796424D01*
X135878210Y-106895136D01*
X136170216Y-107061997D01*
X134741123Y-108586364D01*
X134525725Y-108457125D01*
X134522361Y-108455279D01*
X134222361Y-108305279D01*
X134215811Y-108302566D01*
X133915811Y-108202566D01*
X133912127Y-108201493D01*
X133717451Y-108152824D01*
X133522361Y-108055279D01*
X133500000Y-108050000D01*
X133350000Y-108050000D01*
X133327639Y-108055279D01*
X132927639Y-108255279D01*
X132920000Y-108260000D01*
X132720000Y-108410000D01*
X132714645Y-108414645D01*
X132514645Y-108614645D01*
X132501493Y-108637873D01*
X132401493Y-109037873D01*
X132400971Y-109059806D01*
X132450971Y-109309806D01*
X132451493Y-109312127D01*
X132551493Y-109712127D01*
X132555279Y-109722361D01*
X132704107Y-110020016D01*
X132853184Y-110417556D01*
X132854043Y-110419696D01*
X133004043Y-110769696D01*
X133007125Y-110775725D01*
X133156141Y-111024085D01*
X133205279Y-111122361D01*
X133211831Y-111132297D01*
X133761699Y-111782141D01*
X134011589Y-112082009D01*
X134014645Y-112085355D01*
X134414645Y-112485355D01*
X134416552Y-112487165D01*
X134916552Y-112937165D01*
X134922265Y-112941603D01*
X135372265Y-113241603D01*
X135373500Y-113242400D01*
X135773500Y-113492400D01*
X135780304Y-113495957D01*
X136480304Y-113795957D01*
X136490194Y-113799029D01*
X136739029Y-113848796D01*
X137137873Y-113948507D01*
X137141780Y-113949320D01*
X137441780Y-113999320D01*
X137456202Y-113999614D01*
X137853114Y-113950000D01*
X138050000Y-113950000D01*
X138059806Y-113949029D01*
X138309806Y-113899029D01*
X138315811Y-113897434D01*
X138465811Y-113847434D01*
X138472361Y-113844721D01*
X138572361Y-113794721D01*
X138587773Y-113782760D01*
X138597434Y-113765811D01*
X138600000Y-113750000D01*
X138600000Y-113650000D01*
X138599320Y-113641780D01*
X138550000Y-113345860D01*
X138550000Y-113250000D01*
X138547434Y-113234189D01*
X138447434Y-112934189D01*
X138441603Y-112922265D01*
X138345316Y-112777834D01*
X138247434Y-112484189D01*
X138244721Y-112477639D01*
X138094721Y-112177639D01*
X138091603Y-112172265D01*
X137892263Y-111873255D01*
X137743859Y-111625915D01*
X137644721Y-111427639D01*
X137638411Y-111417991D01*
X137388411Y-111117991D01*
X137387629Y-111117075D01*
X137040575Y-110720442D01*
X136892875Y-110474275D01*
X136881235Y-110460957D01*
X136635178Y-110264111D01*
X136388411Y-109967991D01*
X136385355Y-109964645D01*
X136085355Y-109664645D01*
X136082540Y-109662037D01*
X135733989Y-109363279D01*
X135485355Y-109114645D01*
X135479062Y-109109313D01*
X135129524Y-108859643D01*
X134930000Y-108710000D01*
X134927735Y-108708397D01*
X134826845Y-108641137D01*
X136259473Y-107113001D01*
X136569381Y-107290091D01*
X137413606Y-108134316D01*
X137812630Y-108583218D01*
X137814645Y-108585355D01*
X138363708Y-109134418D01*
X138809914Y-109630203D01*
X139057600Y-110026500D01*
X139060000Y-110030000D01*
X139507296Y-110626394D01*
X139654622Y-110921047D01*
X139954043Y-111619696D01*
X139955279Y-111622361D01*
X140200835Y-112113473D01*
X140249308Y-112792099D01*
X140153576Y-113031430D01*
X140150000Y-113050000D01*
X140150000Y-113338197D01*
X140005279Y-113627639D01*
X140000971Y-113640194D01*
X139952562Y-113882238D01*
X139759909Y-114219381D01*
X138967423Y-115011867D01*
X138423935Y-115407131D01*
X138129505Y-115554346D01*
X137635691Y-115751872D01*
X137145049Y-115850000D01*
X136752495Y-115850000D01*
X136257407Y-115800491D01*
X135764910Y-115701992D01*
X135421047Y-115554622D01*
X134922361Y-115305279D01*
X134917087Y-115303010D01*
X134374355Y-115105653D01*
X133731401Y-114611073D01*
X133083883Y-114063173D01*
X132238059Y-113217349D01*
X131691420Y-112471932D01*
X131194767Y-111677287D01*
X130996966Y-111182785D01*
X130898859Y-110888465D01*
X130849564Y-110543398D01*
X130800260Y-110148962D01*
X130849251Y-109561062D01*
X130993013Y-109177697D01*
X131235355Y-108935355D01*
X131238411Y-108932009D01*
X131488411Y-108632009D01*
X131489468Y-108630697D01*
X131838368Y-108182112D01*
X132284997Y-107685857D01*
X132627868Y-107391967D01*
X132822361Y-107294721D01*
X132835355Y-107285355D01*
X133120710Y-107000000D01*
X133200000Y-107000000D01*
X133219134Y-106996194D01*
X133239043Y-106981235D01*
X133437315Y-106733395D01*
X133678097Y-106492613D01*
X133914309Y-106398128D01*
X134148781Y-106351234D01*
X134337873Y-106398507D01*
G36*
X142043421Y-106749577D02*
X142688968Y-106848891D01*
X143178477Y-106995744D01*
X143622265Y-107291603D01*
X143627639Y-107294721D01*
X144022132Y-107491967D01*
X144367460Y-107787963D01*
X144374275Y-107792875D01*
X144621687Y-107941322D01*
X145069303Y-108289468D01*
X145070000Y-108290000D01*
X145467160Y-108587870D01*
X145764645Y-108885355D01*
X145767075Y-108887629D01*
X146164111Y-109235036D01*
X146411589Y-109532009D01*
X146414645Y-109535355D01*
X146504852Y-109625562D01*
X146550000Y-109806155D01*
X146550000Y-109943845D01*
X146503594Y-110129470D01*
X146415762Y-110261218D01*
X146327639Y-110305279D01*
X146314645Y-110314645D01*
X146172992Y-110456299D01*
X146034189Y-110502566D01*
X146031430Y-110503576D01*
X145787408Y-110601185D01*
X145394118Y-110650346D01*
X144955393Y-110699093D01*
X144679819Y-110607235D01*
X144489043Y-110368765D01*
X144485355Y-110364645D01*
X144387315Y-110266605D01*
X144189043Y-110018765D01*
X144185355Y-110014645D01*
X143886961Y-109716251D01*
X143638411Y-109417991D01*
X143632925Y-109412371D01*
X143232925Y-109062371D01*
X143230000Y-109060000D01*
X142830620Y-108760465D01*
X142581235Y-108560957D01*
X142574807Y-108556588D01*
X142224807Y-108356588D01*
X142206306Y-108350399D01*
X142186844Y-108351762D01*
X142169386Y-108360468D01*
X142156588Y-108375193D01*
X142150399Y-108393694D01*
X142151762Y-108413156D01*
X142162630Y-108433218D01*
X142562630Y-108883218D01*
X142563360Y-108884023D01*
X143213360Y-109584023D01*
X143214645Y-109585355D01*
X144163868Y-110534578D01*
X144713142Y-111133786D01*
X144714645Y-111135355D01*
X145364152Y-111784862D01*
X146263702Y-112734387D01*
X146264645Y-112735355D01*
X147064645Y-113535355D01*
X147070000Y-113540000D01*
X147268692Y-113689019D01*
X147617299Y-113987825D01*
X148016971Y-114337538D01*
X148464241Y-114735111D01*
X148762037Y-115082540D01*
X148764645Y-115085355D01*
X148950000Y-115270710D01*
X148950000Y-115343845D01*
X148904852Y-115524438D01*
X148818149Y-115611141D01*
X148674851Y-115706673D01*
X147879984Y-116104106D01*
X147485731Y-116251952D01*
X147044513Y-116350000D01*
X146804140Y-116350000D01*
X146508526Y-116300731D01*
X145959723Y-116200949D01*
X145262725Y-116051592D01*
X144464914Y-115802276D01*
X144462883Y-115801688D01*
X143712883Y-115601688D01*
X143712127Y-115601493D01*
X143114886Y-115452183D01*
X142317556Y-115153184D01*
X142313736Y-115151924D01*
X141968204Y-115053201D01*
X141700000Y-114919099D01*
X141700000Y-114900000D01*
X141696194Y-114880866D01*
X141685355Y-114864645D01*
X141550000Y-114729290D01*
X141550000Y-114720710D01*
X141570710Y-114700000D01*
X141700000Y-114700000D01*
X141719134Y-114696194D01*
X141735355Y-114685355D01*
X141746194Y-114669134D01*
X141750000Y-114650000D01*
X141750000Y-114380902D01*
X141822361Y-114344721D01*
X141837773Y-114332760D01*
X141847434Y-114315811D01*
X141849874Y-114296456D01*
X141844721Y-114277639D01*
X141832760Y-114262227D01*
X141822361Y-114255279D01*
X141750000Y-114219099D01*
X141750000Y-114150000D01*
X141800000Y-114150000D01*
X141812127Y-114148507D01*
X142012127Y-114098507D01*
X142029767Y-114090174D01*
X142042875Y-114075725D01*
X142049455Y-114057359D01*
X142048507Y-114037873D01*
X142040174Y-114020233D01*
X142025725Y-114007125D01*
X142015811Y-114002566D01*
X141865811Y-113952566D01*
X141850000Y-113950000D01*
X141820710Y-113950000D01*
X141810838Y-113940128D01*
X141830902Y-113900000D01*
X141841887Y-113900000D01*
X141984189Y-113947434D01*
X142003544Y-113949874D01*
X142022361Y-113944721D01*
X142035355Y-113935355D01*
X142135355Y-113835355D01*
X142146194Y-113819134D01*
X142150000Y-113800000D01*
X142146194Y-113780866D01*
X142135355Y-113764645D01*
X142115811Y-113752566D01*
X141977009Y-113706299D01*
X141935355Y-113664645D01*
X141926528Y-113658747D01*
X141930902Y-113650000D01*
X142169098Y-113650000D01*
X142205279Y-113722361D01*
X142217240Y-113737773D01*
X142234189Y-113747434D01*
X142253544Y-113749874D01*
X142272361Y-113744721D01*
X142287773Y-113732760D01*
X142297434Y-113715811D01*
X142300000Y-113700000D01*
X142300000Y-113650000D01*
X142646886Y-113650000D01*
X143042433Y-113699443D01*
X143590094Y-113799018D01*
X144039153Y-113898809D01*
X144041780Y-113899320D01*
X144341780Y-113949320D01*
X144361280Y-113948711D01*
X144379062Y-113940687D01*
X144392420Y-113926468D01*
X144399320Y-113908220D01*
X144398711Y-113888720D01*
X144391603Y-113872265D01*
X144291603Y-113722265D01*
X144285355Y-113714645D01*
X142635355Y-112064645D01*
X142633448Y-112062835D01*
X141634418Y-111163708D01*
X141085355Y-110614645D01*
X141082925Y-110612371D01*
X140685077Y-110264254D01*
X140186997Y-109716366D01*
X140185355Y-109714645D01*
X139786961Y-109316251D01*
X139288411Y-108717991D01*
X139285355Y-108714645D01*
X139091093Y-108520383D01*
X138994721Y-108327639D01*
X138991603Y-108322265D01*
X138896406Y-108179470D01*
X138856289Y-108019000D01*
X139081235Y-107839043D01*
X139085355Y-107835355D01*
X139331327Y-107589383D01*
X139726500Y-107342400D01*
X139729062Y-107340687D01*
X140072946Y-107095056D01*
X140365811Y-106997434D01*
X140367556Y-106996816D01*
X140764269Y-106848048D01*
X141208539Y-106749322D01*
X141600346Y-106700346D01*
X142043421Y-106749577D01*
X142043421Y-106749577D01*
G37*
X142043421Y-106749577D02*
X142688968Y-106848891D01*
X143178477Y-106995744D01*
X143622265Y-107291603D01*
X143627639Y-107294721D01*
X144022132Y-107491967D01*
X144367460Y-107787963D01*
X144374275Y-107792875D01*
X144621687Y-107941322D01*
X145069303Y-108289468D01*
X145070000Y-108290000D01*
X145467160Y-108587870D01*
X145764645Y-108885355D01*
X145767075Y-108887629D01*
X146164111Y-109235036D01*
X146411589Y-109532009D01*
X146414645Y-109535355D01*
X146504852Y-109625562D01*
X146550000Y-109806155D01*
X146550000Y-109943845D01*
X146503594Y-110129470D01*
X146415762Y-110261218D01*
X146327639Y-110305279D01*
X146314645Y-110314645D01*
X146172992Y-110456299D01*
X146034189Y-110502566D01*
X146031430Y-110503576D01*
X145787408Y-110601185D01*
X145394118Y-110650346D01*
X144955393Y-110699093D01*
X144679819Y-110607235D01*
X144489043Y-110368765D01*
X144485355Y-110364645D01*
X144387315Y-110266605D01*
X144189043Y-110018765D01*
X144185355Y-110014645D01*
X143886961Y-109716251D01*
X143638411Y-109417991D01*
X143632925Y-109412371D01*
X143232925Y-109062371D01*
X143230000Y-109060000D01*
X142830620Y-108760465D01*
X142581235Y-108560957D01*
X142574807Y-108556588D01*
X142224807Y-108356588D01*
X142206306Y-108350399D01*
X142186844Y-108351762D01*
X142169386Y-108360468D01*
X142156588Y-108375193D01*
X142150399Y-108393694D01*
X142151762Y-108413156D01*
X142162630Y-108433218D01*
X142562630Y-108883218D01*
X142563360Y-108884023D01*
X143213360Y-109584023D01*
X143214645Y-109585355D01*
X144163868Y-110534578D01*
X144713142Y-111133786D01*
X144714645Y-111135355D01*
X145364152Y-111784862D01*
X146263702Y-112734387D01*
X146264645Y-112735355D01*
X147064645Y-113535355D01*
X147070000Y-113540000D01*
X147268692Y-113689019D01*
X147617299Y-113987825D01*
X148016971Y-114337538D01*
X148464241Y-114735111D01*
X148762037Y-115082540D01*
X148764645Y-115085355D01*
X148950000Y-115270710D01*
X148950000Y-115343845D01*
X148904852Y-115524438D01*
X148818149Y-115611141D01*
X148674851Y-115706673D01*
X147879984Y-116104106D01*
X147485731Y-116251952D01*
X147044513Y-116350000D01*
X146804140Y-116350000D01*
X146508526Y-116300731D01*
X145959723Y-116200949D01*
X145262725Y-116051592D01*
X144464914Y-115802276D01*
X144462883Y-115801688D01*
X143712883Y-115601688D01*
X143712127Y-115601493D01*
X143114886Y-115452183D01*
X142317556Y-115153184D01*
X142313736Y-115151924D01*
X141968204Y-115053201D01*
X141700000Y-114919099D01*
X141700000Y-114900000D01*
X141696194Y-114880866D01*
X141685355Y-114864645D01*
X141550000Y-114729290D01*
X141550000Y-114720710D01*
X141570710Y-114700000D01*
X141700000Y-114700000D01*
X141719134Y-114696194D01*
X141735355Y-114685355D01*
X141746194Y-114669134D01*
X141750000Y-114650000D01*
X141750000Y-114380902D01*
X141822361Y-114344721D01*
X141837773Y-114332760D01*
X141847434Y-114315811D01*
X141849874Y-114296456D01*
X141844721Y-114277639D01*
X141832760Y-114262227D01*
X141822361Y-114255279D01*
X141750000Y-114219099D01*
X141750000Y-114150000D01*
X141800000Y-114150000D01*
X141812127Y-114148507D01*
X142012127Y-114098507D01*
X142029767Y-114090174D01*
X142042875Y-114075725D01*
X142049455Y-114057359D01*
X142048507Y-114037873D01*
X142040174Y-114020233D01*
X142025725Y-114007125D01*
X142015811Y-114002566D01*
X141865811Y-113952566D01*
X141850000Y-113950000D01*
X141820710Y-113950000D01*
X141810838Y-113940128D01*
X141830902Y-113900000D01*
X141841887Y-113900000D01*
X141984189Y-113947434D01*
X142003544Y-113949874D01*
X142022361Y-113944721D01*
X142035355Y-113935355D01*
X142135355Y-113835355D01*
X142146194Y-113819134D01*
X142150000Y-113800000D01*
X142146194Y-113780866D01*
X142135355Y-113764645D01*
X142115811Y-113752566D01*
X141977009Y-113706299D01*
X141935355Y-113664645D01*
X141926528Y-113658747D01*
X141930902Y-113650000D01*
X142169098Y-113650000D01*
X142205279Y-113722361D01*
X142217240Y-113737773D01*
X142234189Y-113747434D01*
X142253544Y-113749874D01*
X142272361Y-113744721D01*
X142287773Y-113732760D01*
X142297434Y-113715811D01*
X142300000Y-113700000D01*
X142300000Y-113650000D01*
X142646886Y-113650000D01*
X143042433Y-113699443D01*
X143590094Y-113799018D01*
X144039153Y-113898809D01*
X144041780Y-113899320D01*
X144341780Y-113949320D01*
X144361280Y-113948711D01*
X144379062Y-113940687D01*
X144392420Y-113926468D01*
X144399320Y-113908220D01*
X144398711Y-113888720D01*
X144391603Y-113872265D01*
X144291603Y-113722265D01*
X144285355Y-113714645D01*
X142635355Y-112064645D01*
X142633448Y-112062835D01*
X141634418Y-111163708D01*
X141085355Y-110614645D01*
X141082925Y-110612371D01*
X140685077Y-110264254D01*
X140186997Y-109716366D01*
X140185355Y-109714645D01*
X139786961Y-109316251D01*
X139288411Y-108717991D01*
X139285355Y-108714645D01*
X139091093Y-108520383D01*
X138994721Y-108327639D01*
X138991603Y-108322265D01*
X138896406Y-108179470D01*
X138856289Y-108019000D01*
X139081235Y-107839043D01*
X139085355Y-107835355D01*
X139331327Y-107589383D01*
X139726500Y-107342400D01*
X139729062Y-107340687D01*
X140072946Y-107095056D01*
X140365811Y-106997434D01*
X140367556Y-106996816D01*
X140764269Y-106848048D01*
X141208539Y-106749322D01*
X141600346Y-106700346D01*
X142043421Y-106749577D01*
G36*
X119000000Y-96553223D02*
X118296674Y-96600111D01*
X118294855Y-96600265D01*
X116844855Y-96750265D01*
X116844323Y-96750323D01*
X115094323Y-96950323D01*
X113744478Y-97100306D01*
X113743168Y-97100469D01*
X112295226Y-97300185D01*
X110447372Y-97400069D01*
X108548683Y-97500000D01*
X104150000Y-97500000D01*
X104144478Y-97500306D01*
X103695461Y-97550197D01*
X102998216Y-97600000D01*
X95953699Y-97600000D01*
X95996556Y-97000000D01*
X102600000Y-97000000D01*
X102604527Y-96999795D01*
X103153823Y-96949859D01*
X103953119Y-96899903D01*
X103954527Y-96899795D01*
X104502272Y-96850000D01*
X108800000Y-96850000D01*
X108802378Y-96849943D01*
X109852049Y-96799959D01*
X111201851Y-96749966D01*
X111203835Y-96749853D01*
X112503835Y-96649853D01*
X112507071Y-96649497D01*
X113205926Y-96549661D01*
X114754816Y-96399768D01*
X114757603Y-96399419D01*
X116056437Y-96199598D01*
X117954694Y-95999782D01*
X118554152Y-95949827D01*
X118554975Y-95949752D01*
X119000000Y-95905250D01*
X119000000Y-96553223D01*
X119000000Y-96553223D01*
G37*
X119000000Y-96553223D02*
X118296674Y-96600111D01*
X118294855Y-96600265D01*
X116844855Y-96750265D01*
X116844323Y-96750323D01*
X115094323Y-96950323D01*
X113744478Y-97100306D01*
X113743168Y-97100469D01*
X112295226Y-97300185D01*
X110447372Y-97400069D01*
X108548683Y-97500000D01*
X104150000Y-97500000D01*
X104144478Y-97500306D01*
X103695461Y-97550197D01*
X102998216Y-97600000D01*
X95953699Y-97600000D01*
X95996556Y-97000000D01*
X102600000Y-97000000D01*
X102604527Y-96999795D01*
X103153823Y-96949859D01*
X103953119Y-96899903D01*
X103954527Y-96899795D01*
X104502272Y-96850000D01*
X108800000Y-96850000D01*
X108802378Y-96849943D01*
X109852049Y-96799959D01*
X111201851Y-96749966D01*
X111203835Y-96749853D01*
X112503835Y-96649853D01*
X112507071Y-96649497D01*
X113205926Y-96549661D01*
X114754816Y-96399768D01*
X114757603Y-96399419D01*
X116056437Y-96199598D01*
X117954694Y-95999782D01*
X118554152Y-95949827D01*
X118554975Y-95949752D01*
X119000000Y-95905250D01*
X119000000Y-96553223D01*
G36*
X174596256Y-95749860D02*
X175245333Y-95799789D01*
X176144478Y-95899694D01*
X176158220Y-95899320D01*
X176458220Y-95849320D01*
X176465811Y-95847434D01*
X176758113Y-95750000D01*
X177247728Y-95750000D01*
X177792817Y-95799554D01*
X178539459Y-95948882D01*
X179188757Y-96098720D01*
X179195848Y-96099827D01*
X179795848Y-96149827D01*
X179797064Y-96149914D01*
X180646046Y-96199854D01*
X181644572Y-96299707D01*
X182492968Y-96399518D01*
X184291780Y-96699320D01*
X184292038Y-96699362D01*
X185841113Y-96949213D01*
X187590194Y-97299029D01*
X187593304Y-97299550D01*
X189443304Y-97549550D01*
X189444711Y-97549719D01*
X191794711Y-97799719D01*
X191795848Y-97799827D01*
X192995848Y-97899827D01*
X192997622Y-97899943D01*
X194047370Y-97949931D01*
X195800000Y-98047299D01*
X195800000Y-98650000D01*
X195301607Y-98650000D01*
X193753436Y-98550118D01*
X192353828Y-98450146D01*
X191154938Y-98350239D01*
X189856173Y-98200381D01*
X187607705Y-97900585D01*
X186208790Y-97650779D01*
X186208220Y-97650680D01*
X184708782Y-97400774D01*
X183659356Y-97200883D01*
X183658220Y-97200680D01*
X182158220Y-96950680D01*
X182152936Y-96950086D01*
X181304075Y-96900153D01*
X180355234Y-96800275D01*
X180353835Y-96800147D01*
X179704398Y-96750190D01*
X179207110Y-96700462D01*
X178409486Y-96550907D01*
X177909806Y-96450971D01*
X177908220Y-96450680D01*
X177609006Y-96400811D01*
X177359806Y-96350971D01*
X177350000Y-96350000D01*
X177050000Y-96350000D01*
X177037873Y-96351493D01*
X176839029Y-96401204D01*
X176590194Y-96450971D01*
X176587873Y-96451493D01*
X176393845Y-96500000D01*
X175852076Y-96500000D01*
X174654590Y-96400210D01*
X173654975Y-96300248D01*
X173647503Y-96300062D01*
X172700000Y-96347437D01*
X172700000Y-95700000D01*
X173898216Y-95700000D01*
X174596256Y-95749860D01*
X174596256Y-95749860D01*
G37*
X174596256Y-95749860D02*
X175245333Y-95799789D01*
X176144478Y-95899694D01*
X176158220Y-95899320D01*
X176458220Y-95849320D01*
X176465811Y-95847434D01*
X176758113Y-95750000D01*
X177247728Y-95750000D01*
X177792817Y-95799554D01*
X178539459Y-95948882D01*
X179188757Y-96098720D01*
X179195848Y-96099827D01*
X179795848Y-96149827D01*
X179797064Y-96149914D01*
X180646046Y-96199854D01*
X181644572Y-96299707D01*
X182492968Y-96399518D01*
X184291780Y-96699320D01*
X184292038Y-96699362D01*
X185841113Y-96949213D01*
X187590194Y-97299029D01*
X187593304Y-97299550D01*
X189443304Y-97549550D01*
X189444711Y-97549719D01*
X191794711Y-97799719D01*
X191795848Y-97799827D01*
X192995848Y-97899827D01*
X192997622Y-97899943D01*
X194047370Y-97949931D01*
X195800000Y-98047299D01*
X195800000Y-98650000D01*
X195301607Y-98650000D01*
X193753436Y-98550118D01*
X192353828Y-98450146D01*
X191154938Y-98350239D01*
X189856173Y-98200381D01*
X187607705Y-97900585D01*
X186208790Y-97650779D01*
X186208220Y-97650680D01*
X184708782Y-97400774D01*
X183659356Y-97200883D01*
X183658220Y-97200680D01*
X182158220Y-96950680D01*
X182152936Y-96950086D01*
X181304075Y-96900153D01*
X180355234Y-96800275D01*
X180353835Y-96800147D01*
X179704398Y-96750190D01*
X179207110Y-96700462D01*
X178409486Y-96550907D01*
X177909806Y-96450971D01*
X177908220Y-96450680D01*
X177609006Y-96400811D01*
X177359806Y-96350971D01*
X177350000Y-96350000D01*
X177050000Y-96350000D01*
X177037873Y-96351493D01*
X176839029Y-96401204D01*
X176590194Y-96450971D01*
X176587873Y-96451493D01*
X176393845Y-96500000D01*
X175852076Y-96500000D01*
X174654590Y-96400210D01*
X173654975Y-96300248D01*
X173647503Y-96300062D01*
X172700000Y-96347437D01*
X172700000Y-95700000D01*
X173898216Y-95700000D01*
X174596256Y-95749860D01*
G36*
X195800000Y-109050000D02*
X147072453Y-109050000D01*
X146761342Y-108700000D01*
X195800000Y-108700000D01*
X195800000Y-109050000D01*
X195800000Y-109050000D01*
G37*
X195800000Y-109050000D02*
X147072453Y-109050000D01*
X146761342Y-108700000D01*
X195800000Y-108700000D01*
X195800000Y-109050000D01*
G36*
X115165024Y-109050000D02*
X95950000Y-109050000D01*
X95950000Y-108700000D01*
X114970580Y-108700000D01*
X115165024Y-109050000D01*
X115165024Y-109050000D01*
G37*
X115165024Y-109050000D02*
X95950000Y-109050000D01*
X95950000Y-108700000D01*
X114970580Y-108700000D01*
X115165024Y-109050000D01*
G36*
X124373061Y-109050000D02*
X123540108Y-109050000D01*
X123462331Y-108700000D01*
X124217506Y-108700000D01*
X124373061Y-109050000D01*
X124373061Y-109050000D01*
G37*
X124373061Y-109050000D02*
X123540108Y-109050000D01*
X123462331Y-108700000D01*
X124217506Y-108700000D01*
X124373061Y-109050000D01*
G36*
X130338509Y-108976360D02*
X130184976Y-108700000D01*
X130430629Y-108700000D01*
X130338509Y-108976360D01*
X130338509Y-108976360D01*
G37*
X130338509Y-108976360D02*
X130184976Y-108700000D01*
X130430629Y-108700000D01*
X130338509Y-108976360D01*
G36*
X144750000Y-87800000D02*
X144753806Y-87819134D01*
X144764645Y-87835355D01*
X144780866Y-87846194D01*
X144800000Y-87850000D01*
X146150000Y-87850000D01*
X146169134Y-87846194D01*
X146185355Y-87835355D01*
X146196194Y-87819134D01*
X146200000Y-87800000D01*
X146200000Y-74300000D01*
X147100000Y-74300000D01*
X147100000Y-87850000D01*
X147103806Y-87869134D01*
X147114645Y-87885355D01*
X147134189Y-87897434D01*
X147284189Y-87947434D01*
X147291056Y-87949193D01*
X147838629Y-88048752D01*
X148186264Y-88148076D01*
X148191780Y-88149320D01*
X148491780Y-88199320D01*
X148511280Y-88198711D01*
X148529062Y-88190687D01*
X148542420Y-88176468D01*
X148550000Y-88150000D01*
X148550000Y-81200000D01*
X149400000Y-81200000D01*
X149400000Y-88450000D01*
X149403806Y-88469134D01*
X149414645Y-88485355D01*
X149431430Y-88496424D01*
X150178210Y-88795136D01*
X150525193Y-88993412D01*
X150527639Y-88994721D01*
X151125409Y-89293606D01*
X152071052Y-89890854D01*
X153267477Y-90838024D01*
X153913451Y-91434307D01*
X154561194Y-92231530D01*
X154561589Y-92232009D01*
X155058863Y-92828737D01*
X155606652Y-93774919D01*
X155763841Y-94050000D01*
X154780901Y-94050000D01*
X154694721Y-93877639D01*
X154691603Y-93872265D01*
X154391603Y-93422265D01*
X154390000Y-93420000D01*
X153940000Y-92820000D01*
X153938169Y-92817703D01*
X153388169Y-92167703D01*
X153385355Y-92164645D01*
X152785355Y-91564645D01*
X152782540Y-91562037D01*
X152082540Y-90962037D01*
X152080000Y-90960000D01*
X151480000Y-90510000D01*
X151475351Y-90506903D01*
X150625351Y-90006903D01*
X150620953Y-90004602D01*
X149970953Y-89704602D01*
X149969037Y-89703766D01*
X149119037Y-89353766D01*
X149115057Y-89352321D01*
X148165057Y-89052321D01*
X148160847Y-89051191D01*
X147260847Y-88851191D01*
X147255842Y-88850342D01*
X146405842Y-88750342D01*
X146402628Y-88750069D01*
X145452628Y-88700069D01*
X145447503Y-88700062D01*
X144447503Y-88750062D01*
X144440194Y-88750971D01*
X143440194Y-88950971D01*
X143439699Y-88951073D01*
X142489699Y-89151073D01*
X142482913Y-89153010D01*
X141382913Y-89553010D01*
X141379310Y-89554482D01*
X140829310Y-89804482D01*
X140826471Y-89805882D01*
X140076471Y-90205882D01*
X140072265Y-90208397D01*
X139472265Y-90608397D01*
X139470591Y-90609563D01*
X138920591Y-91009563D01*
X138918338Y-91011302D01*
X138368338Y-91461302D01*
X138366366Y-91463003D01*
X137816366Y-91963003D01*
X137813260Y-91966086D01*
X137213260Y-92616086D01*
X137209038Y-92621327D01*
X136509038Y-93621327D01*
X136507600Y-93623500D01*
X136272288Y-94000000D01*
X135286159Y-94000000D01*
X135443412Y-93724807D01*
X135443708Y-93724282D01*
X135692723Y-93276055D01*
X136090837Y-92678884D01*
X136538756Y-92081659D01*
X136936394Y-91634316D01*
X137533149Y-91037561D01*
X137980697Y-90689468D01*
X137983218Y-90687370D01*
X138431983Y-90288468D01*
X138878837Y-89940915D01*
X139425696Y-89592914D01*
X140223457Y-89144173D01*
X140621333Y-88945235D01*
X141520307Y-88545691D01*
X141536246Y-88534441D01*
X141546667Y-88517949D01*
X141550000Y-88500000D01*
X141550000Y-81150000D01*
X142450000Y-81150000D01*
X142450000Y-88200000D01*
X142453806Y-88219134D01*
X142464645Y-88235355D01*
X142480866Y-88246194D01*
X142500000Y-88250000D01*
X142512127Y-88248507D01*
X143110971Y-88098796D01*
X143859806Y-87949029D01*
X143877822Y-87941544D01*
X143891603Y-87927735D01*
X143900000Y-87900000D01*
X143900000Y-74300000D01*
X144750000Y-74300000D01*
X144750000Y-87800000D01*
X144750000Y-87800000D01*
G37*
X144750000Y-87800000D02*
X144753806Y-87819134D01*
X144764645Y-87835355D01*
X144780866Y-87846194D01*
X144800000Y-87850000D01*
X146150000Y-87850000D01*
X146169134Y-87846194D01*
X146185355Y-87835355D01*
X146196194Y-87819134D01*
X146200000Y-87800000D01*
X146200000Y-74300000D01*
X147100000Y-74300000D01*
X147100000Y-87850000D01*
X147103806Y-87869134D01*
X147114645Y-87885355D01*
X147134189Y-87897434D01*
X147284189Y-87947434D01*
X147291056Y-87949193D01*
X147838629Y-88048752D01*
X148186264Y-88148076D01*
X148191780Y-88149320D01*
X148491780Y-88199320D01*
X148511280Y-88198711D01*
X148529062Y-88190687D01*
X148542420Y-88176468D01*
X148550000Y-88150000D01*
X148550000Y-81200000D01*
X149400000Y-81200000D01*
X149400000Y-88450000D01*
X149403806Y-88469134D01*
X149414645Y-88485355D01*
X149431430Y-88496424D01*
X150178210Y-88795136D01*
X150525193Y-88993412D01*
X150527639Y-88994721D01*
X151125409Y-89293606D01*
X152071052Y-89890854D01*
X153267477Y-90838024D01*
X153913451Y-91434307D01*
X154561194Y-92231530D01*
X154561589Y-92232009D01*
X155058863Y-92828737D01*
X155606652Y-93774919D01*
X155763841Y-94050000D01*
X154780901Y-94050000D01*
X154694721Y-93877639D01*
X154691603Y-93872265D01*
X154391603Y-93422265D01*
X154390000Y-93420000D01*
X153940000Y-92820000D01*
X153938169Y-92817703D01*
X153388169Y-92167703D01*
X153385355Y-92164645D01*
X152785355Y-91564645D01*
X152782540Y-91562037D01*
X152082540Y-90962037D01*
X152080000Y-90960000D01*
X151480000Y-90510000D01*
X151475351Y-90506903D01*
X150625351Y-90006903D01*
X150620953Y-90004602D01*
X149970953Y-89704602D01*
X149969037Y-89703766D01*
X149119037Y-89353766D01*
X149115057Y-89352321D01*
X148165057Y-89052321D01*
X148160847Y-89051191D01*
X147260847Y-88851191D01*
X147255842Y-88850342D01*
X146405842Y-88750342D01*
X146402628Y-88750069D01*
X145452628Y-88700069D01*
X145447503Y-88700062D01*
X144447503Y-88750062D01*
X144440194Y-88750971D01*
X143440194Y-88950971D01*
X143439699Y-88951073D01*
X142489699Y-89151073D01*
X142482913Y-89153010D01*
X141382913Y-89553010D01*
X141379310Y-89554482D01*
X140829310Y-89804482D01*
X140826471Y-89805882D01*
X140076471Y-90205882D01*
X140072265Y-90208397D01*
X139472265Y-90608397D01*
X139470591Y-90609563D01*
X138920591Y-91009563D01*
X138918338Y-91011302D01*
X138368338Y-91461302D01*
X138366366Y-91463003D01*
X137816366Y-91963003D01*
X137813260Y-91966086D01*
X137213260Y-92616086D01*
X137209038Y-92621327D01*
X136509038Y-93621327D01*
X136507600Y-93623500D01*
X136272288Y-94000000D01*
X135286159Y-94000000D01*
X135443412Y-93724807D01*
X135443708Y-93724282D01*
X135692723Y-93276055D01*
X136090837Y-92678884D01*
X136538756Y-92081659D01*
X136936394Y-91634316D01*
X137533149Y-91037561D01*
X137980697Y-90689468D01*
X137983218Y-90687370D01*
X138431983Y-90288468D01*
X138878837Y-89940915D01*
X139425696Y-89592914D01*
X140223457Y-89144173D01*
X140621333Y-88945235D01*
X141520307Y-88545691D01*
X141536246Y-88534441D01*
X141546667Y-88517949D01*
X141550000Y-88500000D01*
X141550000Y-81150000D01*
X142450000Y-81150000D01*
X142450000Y-88200000D01*
X142453806Y-88219134D01*
X142464645Y-88235355D01*
X142480866Y-88246194D01*
X142500000Y-88250000D01*
X142512127Y-88248507D01*
X143110971Y-88098796D01*
X143859806Y-87949029D01*
X143877822Y-87941544D01*
X143891603Y-87927735D01*
X143900000Y-87900000D01*
X143900000Y-74300000D01*
X144750000Y-74300000D01*
X144750000Y-87800000D01*
M02*
