G04 #@! TF.FileFunction,Legend,Top*
%FSLAX46Y46*%
G04 Gerber Fmt 4.6, Leading zero omitted, Abs format (unit mm)*
G04 Created by KiCad (PCBNEW 4.0.7) date Monday, July 16, 2018 'PMt' 08:39:25 PM*
%MOMM*%
%LPD*%
G01*
G04 APERTURE LIST*
%ADD10C,0.100000*%
%ADD11C,0.300000*%
%ADD12C,0.120000*%
%ADD13C,0.010000*%
%ADD14C,0.150000*%
G04 APERTURE END LIST*
D10*
D11*
X256470629Y-122653429D02*
X256413487Y-122596286D01*
X256299201Y-122539143D01*
X256184915Y-122539143D01*
X256070629Y-122596286D01*
X256013487Y-122653429D01*
X255956344Y-122767714D01*
X255956344Y-122882000D01*
X256013487Y-122996286D01*
X256070629Y-123053429D01*
X256184915Y-123110571D01*
X256299201Y-123110571D01*
X256413487Y-123053429D01*
X256470629Y-122996286D01*
X256470629Y-122539143D02*
X256470629Y-122996286D01*
X256527772Y-123053429D01*
X256584915Y-123053429D01*
X256699201Y-122996286D01*
X256756344Y-122882000D01*
X256756344Y-122596286D01*
X256642058Y-122424857D01*
X256470629Y-122310571D01*
X256242058Y-122253429D01*
X256013487Y-122310571D01*
X255842058Y-122424857D01*
X255727772Y-122596286D01*
X255670629Y-122824857D01*
X255727772Y-123053429D01*
X255842058Y-123224857D01*
X256013487Y-123339143D01*
X256242058Y-123396286D01*
X256470629Y-123339143D01*
X256642058Y-123224857D01*
X257784915Y-123224857D02*
X257784915Y-122024857D01*
X257784915Y-123167714D02*
X257670629Y-123224857D01*
X257442058Y-123224857D01*
X257327772Y-123167714D01*
X257270629Y-123110571D01*
X257213486Y-122996286D01*
X257213486Y-122653429D01*
X257270629Y-122539143D01*
X257327772Y-122482000D01*
X257442058Y-122424857D01*
X257670629Y-122424857D01*
X257784915Y-122482000D01*
X258870629Y-123167714D02*
X258756343Y-123224857D01*
X258527772Y-123224857D01*
X258413486Y-123167714D01*
X258356343Y-123110571D01*
X258299200Y-122996286D01*
X258299200Y-122653429D01*
X258356343Y-122539143D01*
X258413486Y-122482000D01*
X258527772Y-122424857D01*
X258756343Y-122424857D01*
X258870629Y-122482000D01*
X259270629Y-122424857D02*
X259899200Y-122424857D01*
X259270629Y-123224857D01*
X259899200Y-123224857D01*
X260356343Y-123224857D02*
X260356343Y-122424857D01*
X260356343Y-122024857D02*
X260299200Y-122082000D01*
X260356343Y-122139143D01*
X260413486Y-122082000D01*
X260356343Y-122024857D01*
X260356343Y-122139143D01*
X261442058Y-123224857D02*
X261442058Y-122596286D01*
X261384915Y-122482000D01*
X261270629Y-122424857D01*
X261042058Y-122424857D01*
X260927772Y-122482000D01*
X261442058Y-123167714D02*
X261327772Y-123224857D01*
X261042058Y-123224857D01*
X260927772Y-123167714D01*
X260870629Y-123053429D01*
X260870629Y-122939143D01*
X260927772Y-122824857D01*
X261042058Y-122767714D01*
X261327772Y-122767714D01*
X261442058Y-122710571D01*
X262584915Y-122024857D02*
X262013486Y-122024857D01*
X261956343Y-122596286D01*
X262013486Y-122539143D01*
X262127772Y-122482000D01*
X262413486Y-122482000D01*
X262527772Y-122539143D01*
X262584915Y-122596286D01*
X262642058Y-122710571D01*
X262642058Y-122996286D01*
X262584915Y-123110571D01*
X262527772Y-123167714D01*
X262413486Y-123224857D01*
X262127772Y-123224857D01*
X262013486Y-123167714D01*
X261956343Y-123110571D01*
X263384915Y-122024857D02*
X263499200Y-122024857D01*
X263613486Y-122082000D01*
X263670629Y-122139143D01*
X263727772Y-122253429D01*
X263784915Y-122482000D01*
X263784915Y-122767714D01*
X263727772Y-122996286D01*
X263670629Y-123110571D01*
X263613486Y-123167714D01*
X263499200Y-123224857D01*
X263384915Y-123224857D01*
X263270629Y-123167714D01*
X263213486Y-123110571D01*
X263156343Y-122996286D01*
X263099200Y-122767714D01*
X263099200Y-122482000D01*
X263156343Y-122253429D01*
X263213486Y-122139143D01*
X263270629Y-122082000D01*
X263384915Y-122024857D01*
X264870629Y-122024857D02*
X264299200Y-122024857D01*
X264242057Y-122596286D01*
X264299200Y-122539143D01*
X264413486Y-122482000D01*
X264699200Y-122482000D01*
X264813486Y-122539143D01*
X264870629Y-122596286D01*
X264927772Y-122710571D01*
X264927772Y-122996286D01*
X264870629Y-123110571D01*
X264813486Y-123167714D01*
X264699200Y-123224857D01*
X264413486Y-123224857D01*
X264299200Y-123167714D01*
X264242057Y-123110571D01*
X226631786Y-128558857D02*
X226631786Y-127358857D01*
X226917501Y-127358857D01*
X227088929Y-127416000D01*
X227203215Y-127530286D01*
X227260358Y-127644571D01*
X227317501Y-127873143D01*
X227317501Y-128044571D01*
X227260358Y-128273143D01*
X227203215Y-128387429D01*
X227088929Y-128501714D01*
X226917501Y-128558857D01*
X226631786Y-128558857D01*
X228517501Y-128444571D02*
X228460358Y-128501714D01*
X228288929Y-128558857D01*
X228174643Y-128558857D01*
X228003215Y-128501714D01*
X227888929Y-128387429D01*
X227831786Y-128273143D01*
X227774643Y-128044571D01*
X227774643Y-127873143D01*
X227831786Y-127644571D01*
X227888929Y-127530286D01*
X228003215Y-127416000D01*
X228174643Y-127358857D01*
X228288929Y-127358857D01*
X228460358Y-127416000D01*
X228517501Y-127473143D01*
X228917501Y-127358857D02*
X229717501Y-127358857D01*
X228917501Y-128558857D01*
X229717501Y-128558857D01*
X230174643Y-128558857D02*
X230174643Y-127358857D01*
X230688929Y-128216000D02*
X231260358Y-128216000D01*
X230574644Y-128558857D02*
X230974644Y-127358857D01*
X231374644Y-128558857D01*
D12*
X230304000Y-113436600D02*
X226304000Y-113436600D01*
X230354000Y-116636600D02*
X226354000Y-116636600D01*
D13*
G36*
X218541211Y-125342371D02*
X218555500Y-125401320D01*
X218614929Y-125577615D01*
X218774044Y-125865937D01*
X219004086Y-126225007D01*
X219276295Y-126613550D01*
X219561912Y-126990288D01*
X219832179Y-127313944D01*
X220030710Y-127518641D01*
X220478499Y-127874221D01*
X220918898Y-128089925D01*
X221423902Y-128192884D01*
X221871590Y-128212442D01*
X222297728Y-128245768D01*
X222774678Y-128330540D01*
X223039011Y-128400155D01*
X223391182Y-128529417D01*
X223797736Y-128708285D01*
X224210883Y-128911943D01*
X224582830Y-129115575D01*
X224865786Y-129294363D01*
X225011961Y-129423491D01*
X225013047Y-129425212D01*
X225130232Y-129536254D01*
X225359102Y-129705074D01*
X225537022Y-129822777D01*
X225925304Y-130021238D01*
X226310150Y-130100719D01*
X226743314Y-130062187D01*
X227276553Y-129906606D01*
X227409924Y-129857712D01*
X228147553Y-129629624D01*
X228814821Y-129542854D01*
X229480544Y-129595088D01*
X230155500Y-129765408D01*
X230604093Y-129896230D01*
X231040690Y-130004990D01*
X231387347Y-130072736D01*
X231455912Y-130081590D01*
X231653034Y-130097751D01*
X231809788Y-130082845D01*
X231963659Y-130014337D01*
X232152133Y-129869693D01*
X232412695Y-129626375D01*
X232726064Y-129318007D01*
X233438230Y-128688008D01*
X234124857Y-128239294D01*
X234809222Y-127959198D01*
X235440300Y-127841006D01*
X235809616Y-127825075D01*
X236117803Y-127867532D01*
X236460662Y-127986284D01*
X236644432Y-128066081D01*
X237048665Y-128282643D01*
X237363519Y-128518626D01*
X237478752Y-128645655D01*
X237693437Y-128947152D01*
X237699468Y-138422567D01*
X237700527Y-140010659D01*
X237701736Y-141410968D01*
X237703365Y-142635711D01*
X237705685Y-143697104D01*
X237708965Y-144607365D01*
X237713475Y-145378711D01*
X237719486Y-146023358D01*
X237727267Y-146553524D01*
X237737088Y-146981425D01*
X237749219Y-147319279D01*
X237763930Y-147579301D01*
X237781491Y-147773710D01*
X237802172Y-147914722D01*
X237826243Y-148014554D01*
X237853973Y-148085423D01*
X237885634Y-148139545D01*
X237915082Y-148180491D01*
X238193060Y-148424526D01*
X238503471Y-148558907D01*
X238882278Y-148654814D01*
X238829109Y-149619718D01*
X238792791Y-150115913D01*
X238740680Y-150466580D01*
X238660982Y-150726152D01*
X238541906Y-150949061D01*
X238540720Y-150950910D01*
X238253155Y-151269502D01*
X237861109Y-151538622D01*
X237430914Y-151724330D01*
X237028907Y-151792687D01*
X236913175Y-151783616D01*
X236488882Y-151638848D01*
X236053626Y-151366954D01*
X235684816Y-151020226D01*
X235580829Y-150883635D01*
X235356159Y-150551586D01*
X235352000Y-139785828D01*
X235350493Y-137884387D01*
X235347491Y-136178815D01*
X235342950Y-134664987D01*
X235336830Y-133338776D01*
X235329088Y-132196056D01*
X235319682Y-131232703D01*
X235308569Y-130444590D01*
X235295708Y-129827591D01*
X235281056Y-129377580D01*
X235264572Y-129090433D01*
X235246213Y-128962023D01*
X235241368Y-128954266D01*
X235094808Y-128952892D01*
X234838736Y-129022247D01*
X234670198Y-129087385D01*
X234279925Y-129242437D01*
X233869136Y-129388267D01*
X233755500Y-129424654D01*
X233305500Y-129563000D01*
X233243655Y-130713000D01*
X233217986Y-131179299D01*
X233195076Y-131575384D01*
X233177580Y-131856598D01*
X233168655Y-131974572D01*
X233071096Y-132039014D01*
X232798912Y-132020521D01*
X232750186Y-132012028D01*
X232385758Y-131999364D01*
X232147307Y-132131299D01*
X232008046Y-132423345D01*
X232002578Y-132444992D01*
X231995855Y-132571842D01*
X231989860Y-132885861D01*
X231984620Y-133374223D01*
X231980162Y-134024097D01*
X231976514Y-134822656D01*
X231973704Y-135757072D01*
X231971760Y-136814515D01*
X231970709Y-137982156D01*
X231970578Y-139247169D01*
X231971396Y-140596723D01*
X231973190Y-142017991D01*
X231975988Y-143498144D01*
X231977427Y-144117429D01*
X231981521Y-145912236D01*
X231984962Y-147517693D01*
X231988410Y-148944444D01*
X231992526Y-150203135D01*
X231997968Y-151304411D01*
X232005398Y-152258916D01*
X232015475Y-153077296D01*
X232028859Y-153770196D01*
X232046209Y-154348261D01*
X232068186Y-154822136D01*
X232095448Y-155202466D01*
X232128657Y-155499897D01*
X232168473Y-155725072D01*
X232215553Y-155888639D01*
X232270560Y-156001241D01*
X232334152Y-156073523D01*
X232406990Y-156116132D01*
X232489733Y-156139711D01*
X232583041Y-156154906D01*
X232687574Y-156172362D01*
X232725179Y-156180559D01*
X232991472Y-156273313D01*
X233124223Y-156422161D01*
X233168322Y-156566669D01*
X233237563Y-157254269D01*
X233150039Y-157879323D01*
X232920019Y-158418023D01*
X232561771Y-158846555D01*
X232089565Y-159141111D01*
X231545032Y-159275478D01*
X230956704Y-159244394D01*
X230456217Y-159034112D01*
X230049547Y-158647914D01*
X229862963Y-158352128D01*
X229605500Y-157863000D01*
X229555500Y-144073130D01*
X229505500Y-130283261D01*
X228610154Y-130304803D01*
X228202941Y-130319585D01*
X227873114Y-130340850D01*
X227670873Y-130364954D01*
X227635154Y-130375574D01*
X227605848Y-130488334D01*
X227581397Y-130762729D01*
X227563995Y-131160413D01*
X227555838Y-131643038D01*
X227555500Y-131766988D01*
X227555500Y-133109173D01*
X227106893Y-133047685D01*
X226990781Y-133025786D01*
X226887201Y-133000797D01*
X226795444Y-132983366D01*
X226714799Y-132984138D01*
X226644559Y-133013758D01*
X226584013Y-133082873D01*
X226532452Y-133202129D01*
X226489166Y-133382172D01*
X226453445Y-133633646D01*
X226424581Y-133967200D01*
X226401864Y-134393477D01*
X226384585Y-134923125D01*
X226372033Y-135566789D01*
X226363499Y-136335115D01*
X226358275Y-137238749D01*
X226355649Y-138288337D01*
X226354914Y-139494525D01*
X226355359Y-140867958D01*
X226356275Y-142419283D01*
X226356952Y-144159146D01*
X226356974Y-144300244D01*
X226357624Y-146090592D01*
X226359146Y-147690711D01*
X226361652Y-149110372D01*
X226365257Y-150359343D01*
X226370073Y-151447396D01*
X226376212Y-152384299D01*
X226383788Y-153179822D01*
X226392913Y-153843736D01*
X226403701Y-154385810D01*
X226416265Y-154815814D01*
X226430717Y-155143518D01*
X226447171Y-155378692D01*
X226465739Y-155531105D01*
X226486534Y-155610528D01*
X226487758Y-155613000D01*
X226591474Y-155764800D01*
X226738850Y-155832881D01*
X226997564Y-155842031D01*
X227100261Y-155837350D01*
X227583453Y-155811701D01*
X227532532Y-156937350D01*
X227482268Y-157601796D01*
X227390358Y-158104388D01*
X227242328Y-158481417D01*
X227023704Y-158769176D01*
X226720011Y-159003956D01*
X226704421Y-159013666D01*
X226361597Y-159157674D01*
X225927433Y-159251700D01*
X225496844Y-159281043D01*
X225208713Y-159245335D01*
X224875623Y-159079565D01*
X224529470Y-158794705D01*
X224240561Y-158453464D01*
X224148914Y-158300092D01*
X224122038Y-158243117D01*
X224097772Y-158176196D01*
X224075984Y-158089344D01*
X224056541Y-157972578D01*
X224039308Y-157815912D01*
X224024154Y-157609363D01*
X224010944Y-157342947D01*
X223999545Y-157006681D01*
X223989824Y-156590579D01*
X223981647Y-156084658D01*
X223974882Y-155478934D01*
X223969394Y-154763423D01*
X223965051Y-153928141D01*
X223961719Y-152963104D01*
X223959266Y-151858327D01*
X223957557Y-150603828D01*
X223956459Y-149189621D01*
X223955839Y-147605722D01*
X223955563Y-145842149D01*
X223955500Y-143888916D01*
X223955500Y-129710060D01*
X223630500Y-129511903D01*
X223369190Y-129380291D01*
X223150393Y-129314937D01*
X223125669Y-129313373D01*
X222928639Y-129271093D01*
X222646258Y-129165246D01*
X222531886Y-129112999D01*
X222280396Y-128993796D01*
X222100495Y-128932997D01*
X221980201Y-128953629D01*
X221907533Y-129078718D01*
X221870512Y-129331292D01*
X221857155Y-129734376D01*
X221855483Y-130310998D01*
X221855500Y-130413000D01*
X221851517Y-130935005D01*
X221840542Y-131378003D01*
X221824037Y-131707427D01*
X221803461Y-131888711D01*
X221792101Y-131913000D01*
X221664497Y-131886637D01*
X221422437Y-131820740D01*
X221329988Y-131793541D01*
X221209405Y-131754308D01*
X221104078Y-131721867D01*
X221012979Y-131708559D01*
X220935080Y-131726726D01*
X220869351Y-131788710D01*
X220814763Y-131906851D01*
X220770289Y-132093492D01*
X220734898Y-132360973D01*
X220707564Y-132721636D01*
X220687256Y-133187822D01*
X220672946Y-133771873D01*
X220663606Y-134486129D01*
X220658207Y-135342934D01*
X220655719Y-136354626D01*
X220655115Y-137533550D01*
X220655366Y-138892044D01*
X220655500Y-139885324D01*
X220655155Y-141394474D01*
X220654964Y-142715972D01*
X220656194Y-143862165D01*
X220660111Y-144845398D01*
X220667981Y-145678017D01*
X220681072Y-146372367D01*
X220700649Y-146940796D01*
X220727978Y-147395647D01*
X220764326Y-147749268D01*
X220810960Y-148014003D01*
X220869146Y-148202198D01*
X220940150Y-148326200D01*
X221025238Y-148398353D01*
X221125677Y-148431004D01*
X221242734Y-148436499D01*
X221377675Y-148427182D01*
X221530500Y-148415469D01*
X221855500Y-148397676D01*
X221854942Y-149230338D01*
X221831127Y-149883953D01*
X221752053Y-150385702D01*
X221604776Y-150779190D01*
X221376356Y-151108021D01*
X221261799Y-151228830D01*
X220780848Y-151590281D01*
X220270955Y-151766014D01*
X219752390Y-151749812D01*
X219649850Y-151723122D01*
X219240631Y-151523733D01*
X218860628Y-151205968D01*
X218562462Y-150825247D01*
X218398756Y-150436994D01*
X218391471Y-150397804D01*
X218331951Y-150136593D01*
X218261741Y-149973155D01*
X218244681Y-149956313D01*
X218233771Y-149851546D01*
X218223213Y-149559174D01*
X218213101Y-149091592D01*
X218203524Y-148461193D01*
X218194577Y-147680374D01*
X218186350Y-146761529D01*
X218178935Y-145717052D01*
X218172425Y-144559339D01*
X218166911Y-143300784D01*
X218162486Y-141953781D01*
X218159240Y-140530726D01*
X218157267Y-139044013D01*
X218156724Y-138098674D01*
X218153315Y-126293289D01*
X217929407Y-126110977D01*
X217705500Y-125928664D01*
X217999209Y-125620832D01*
X218235043Y-125414154D01*
X218428440Y-125316311D01*
X218541211Y-125342371D01*
X218541211Y-125342371D01*
G37*
X218541211Y-125342371D02*
X218555500Y-125401320D01*
X218614929Y-125577615D01*
X218774044Y-125865937D01*
X219004086Y-126225007D01*
X219276295Y-126613550D01*
X219561912Y-126990288D01*
X219832179Y-127313944D01*
X220030710Y-127518641D01*
X220478499Y-127874221D01*
X220918898Y-128089925D01*
X221423902Y-128192884D01*
X221871590Y-128212442D01*
X222297728Y-128245768D01*
X222774678Y-128330540D01*
X223039011Y-128400155D01*
X223391182Y-128529417D01*
X223797736Y-128708285D01*
X224210883Y-128911943D01*
X224582830Y-129115575D01*
X224865786Y-129294363D01*
X225011961Y-129423491D01*
X225013047Y-129425212D01*
X225130232Y-129536254D01*
X225359102Y-129705074D01*
X225537022Y-129822777D01*
X225925304Y-130021238D01*
X226310150Y-130100719D01*
X226743314Y-130062187D01*
X227276553Y-129906606D01*
X227409924Y-129857712D01*
X228147553Y-129629624D01*
X228814821Y-129542854D01*
X229480544Y-129595088D01*
X230155500Y-129765408D01*
X230604093Y-129896230D01*
X231040690Y-130004990D01*
X231387347Y-130072736D01*
X231455912Y-130081590D01*
X231653034Y-130097751D01*
X231809788Y-130082845D01*
X231963659Y-130014337D01*
X232152133Y-129869693D01*
X232412695Y-129626375D01*
X232726064Y-129318007D01*
X233438230Y-128688008D01*
X234124857Y-128239294D01*
X234809222Y-127959198D01*
X235440300Y-127841006D01*
X235809616Y-127825075D01*
X236117803Y-127867532D01*
X236460662Y-127986284D01*
X236644432Y-128066081D01*
X237048665Y-128282643D01*
X237363519Y-128518626D01*
X237478752Y-128645655D01*
X237693437Y-128947152D01*
X237699468Y-138422567D01*
X237700527Y-140010659D01*
X237701736Y-141410968D01*
X237703365Y-142635711D01*
X237705685Y-143697104D01*
X237708965Y-144607365D01*
X237713475Y-145378711D01*
X237719486Y-146023358D01*
X237727267Y-146553524D01*
X237737088Y-146981425D01*
X237749219Y-147319279D01*
X237763930Y-147579301D01*
X237781491Y-147773710D01*
X237802172Y-147914722D01*
X237826243Y-148014554D01*
X237853973Y-148085423D01*
X237885634Y-148139545D01*
X237915082Y-148180491D01*
X238193060Y-148424526D01*
X238503471Y-148558907D01*
X238882278Y-148654814D01*
X238829109Y-149619718D01*
X238792791Y-150115913D01*
X238740680Y-150466580D01*
X238660982Y-150726152D01*
X238541906Y-150949061D01*
X238540720Y-150950910D01*
X238253155Y-151269502D01*
X237861109Y-151538622D01*
X237430914Y-151724330D01*
X237028907Y-151792687D01*
X236913175Y-151783616D01*
X236488882Y-151638848D01*
X236053626Y-151366954D01*
X235684816Y-151020226D01*
X235580829Y-150883635D01*
X235356159Y-150551586D01*
X235352000Y-139785828D01*
X235350493Y-137884387D01*
X235347491Y-136178815D01*
X235342950Y-134664987D01*
X235336830Y-133338776D01*
X235329088Y-132196056D01*
X235319682Y-131232703D01*
X235308569Y-130444590D01*
X235295708Y-129827591D01*
X235281056Y-129377580D01*
X235264572Y-129090433D01*
X235246213Y-128962023D01*
X235241368Y-128954266D01*
X235094808Y-128952892D01*
X234838736Y-129022247D01*
X234670198Y-129087385D01*
X234279925Y-129242437D01*
X233869136Y-129388267D01*
X233755500Y-129424654D01*
X233305500Y-129563000D01*
X233243655Y-130713000D01*
X233217986Y-131179299D01*
X233195076Y-131575384D01*
X233177580Y-131856598D01*
X233168655Y-131974572D01*
X233071096Y-132039014D01*
X232798912Y-132020521D01*
X232750186Y-132012028D01*
X232385758Y-131999364D01*
X232147307Y-132131299D01*
X232008046Y-132423345D01*
X232002578Y-132444992D01*
X231995855Y-132571842D01*
X231989860Y-132885861D01*
X231984620Y-133374223D01*
X231980162Y-134024097D01*
X231976514Y-134822656D01*
X231973704Y-135757072D01*
X231971760Y-136814515D01*
X231970709Y-137982156D01*
X231970578Y-139247169D01*
X231971396Y-140596723D01*
X231973190Y-142017991D01*
X231975988Y-143498144D01*
X231977427Y-144117429D01*
X231981521Y-145912236D01*
X231984962Y-147517693D01*
X231988410Y-148944444D01*
X231992526Y-150203135D01*
X231997968Y-151304411D01*
X232005398Y-152258916D01*
X232015475Y-153077296D01*
X232028859Y-153770196D01*
X232046209Y-154348261D01*
X232068186Y-154822136D01*
X232095448Y-155202466D01*
X232128657Y-155499897D01*
X232168473Y-155725072D01*
X232215553Y-155888639D01*
X232270560Y-156001241D01*
X232334152Y-156073523D01*
X232406990Y-156116132D01*
X232489733Y-156139711D01*
X232583041Y-156154906D01*
X232687574Y-156172362D01*
X232725179Y-156180559D01*
X232991472Y-156273313D01*
X233124223Y-156422161D01*
X233168322Y-156566669D01*
X233237563Y-157254269D01*
X233150039Y-157879323D01*
X232920019Y-158418023D01*
X232561771Y-158846555D01*
X232089565Y-159141111D01*
X231545032Y-159275478D01*
X230956704Y-159244394D01*
X230456217Y-159034112D01*
X230049547Y-158647914D01*
X229862963Y-158352128D01*
X229605500Y-157863000D01*
X229555500Y-144073130D01*
X229505500Y-130283261D01*
X228610154Y-130304803D01*
X228202941Y-130319585D01*
X227873114Y-130340850D01*
X227670873Y-130364954D01*
X227635154Y-130375574D01*
X227605848Y-130488334D01*
X227581397Y-130762729D01*
X227563995Y-131160413D01*
X227555838Y-131643038D01*
X227555500Y-131766988D01*
X227555500Y-133109173D01*
X227106893Y-133047685D01*
X226990781Y-133025786D01*
X226887201Y-133000797D01*
X226795444Y-132983366D01*
X226714799Y-132984138D01*
X226644559Y-133013758D01*
X226584013Y-133082873D01*
X226532452Y-133202129D01*
X226489166Y-133382172D01*
X226453445Y-133633646D01*
X226424581Y-133967200D01*
X226401864Y-134393477D01*
X226384585Y-134923125D01*
X226372033Y-135566789D01*
X226363499Y-136335115D01*
X226358275Y-137238749D01*
X226355649Y-138288337D01*
X226354914Y-139494525D01*
X226355359Y-140867958D01*
X226356275Y-142419283D01*
X226356952Y-144159146D01*
X226356974Y-144300244D01*
X226357624Y-146090592D01*
X226359146Y-147690711D01*
X226361652Y-149110372D01*
X226365257Y-150359343D01*
X226370073Y-151447396D01*
X226376212Y-152384299D01*
X226383788Y-153179822D01*
X226392913Y-153843736D01*
X226403701Y-154385810D01*
X226416265Y-154815814D01*
X226430717Y-155143518D01*
X226447171Y-155378692D01*
X226465739Y-155531105D01*
X226486534Y-155610528D01*
X226487758Y-155613000D01*
X226591474Y-155764800D01*
X226738850Y-155832881D01*
X226997564Y-155842031D01*
X227100261Y-155837350D01*
X227583453Y-155811701D01*
X227532532Y-156937350D01*
X227482268Y-157601796D01*
X227390358Y-158104388D01*
X227242328Y-158481417D01*
X227023704Y-158769176D01*
X226720011Y-159003956D01*
X226704421Y-159013666D01*
X226361597Y-159157674D01*
X225927433Y-159251700D01*
X225496844Y-159281043D01*
X225208713Y-159245335D01*
X224875623Y-159079565D01*
X224529470Y-158794705D01*
X224240561Y-158453464D01*
X224148914Y-158300092D01*
X224122038Y-158243117D01*
X224097772Y-158176196D01*
X224075984Y-158089344D01*
X224056541Y-157972578D01*
X224039308Y-157815912D01*
X224024154Y-157609363D01*
X224010944Y-157342947D01*
X223999545Y-157006681D01*
X223989824Y-156590579D01*
X223981647Y-156084658D01*
X223974882Y-155478934D01*
X223969394Y-154763423D01*
X223965051Y-153928141D01*
X223961719Y-152963104D01*
X223959266Y-151858327D01*
X223957557Y-150603828D01*
X223956459Y-149189621D01*
X223955839Y-147605722D01*
X223955563Y-145842149D01*
X223955500Y-143888916D01*
X223955500Y-129710060D01*
X223630500Y-129511903D01*
X223369190Y-129380291D01*
X223150393Y-129314937D01*
X223125669Y-129313373D01*
X222928639Y-129271093D01*
X222646258Y-129165246D01*
X222531886Y-129112999D01*
X222280396Y-128993796D01*
X222100495Y-128932997D01*
X221980201Y-128953629D01*
X221907533Y-129078718D01*
X221870512Y-129331292D01*
X221857155Y-129734376D01*
X221855483Y-130310998D01*
X221855500Y-130413000D01*
X221851517Y-130935005D01*
X221840542Y-131378003D01*
X221824037Y-131707427D01*
X221803461Y-131888711D01*
X221792101Y-131913000D01*
X221664497Y-131886637D01*
X221422437Y-131820740D01*
X221329988Y-131793541D01*
X221209405Y-131754308D01*
X221104078Y-131721867D01*
X221012979Y-131708559D01*
X220935080Y-131726726D01*
X220869351Y-131788710D01*
X220814763Y-131906851D01*
X220770289Y-132093492D01*
X220734898Y-132360973D01*
X220707564Y-132721636D01*
X220687256Y-133187822D01*
X220672946Y-133771873D01*
X220663606Y-134486129D01*
X220658207Y-135342934D01*
X220655719Y-136354626D01*
X220655115Y-137533550D01*
X220655366Y-138892044D01*
X220655500Y-139885324D01*
X220655155Y-141394474D01*
X220654964Y-142715972D01*
X220656194Y-143862165D01*
X220660111Y-144845398D01*
X220667981Y-145678017D01*
X220681072Y-146372367D01*
X220700649Y-146940796D01*
X220727978Y-147395647D01*
X220764326Y-147749268D01*
X220810960Y-148014003D01*
X220869146Y-148202198D01*
X220940150Y-148326200D01*
X221025238Y-148398353D01*
X221125677Y-148431004D01*
X221242734Y-148436499D01*
X221377675Y-148427182D01*
X221530500Y-148415469D01*
X221855500Y-148397676D01*
X221854942Y-149230338D01*
X221831127Y-149883953D01*
X221752053Y-150385702D01*
X221604776Y-150779190D01*
X221376356Y-151108021D01*
X221261799Y-151228830D01*
X220780848Y-151590281D01*
X220270955Y-151766014D01*
X219752390Y-151749812D01*
X219649850Y-151723122D01*
X219240631Y-151523733D01*
X218860628Y-151205968D01*
X218562462Y-150825247D01*
X218398756Y-150436994D01*
X218391471Y-150397804D01*
X218331951Y-150136593D01*
X218261741Y-149973155D01*
X218244681Y-149956313D01*
X218233771Y-149851546D01*
X218223213Y-149559174D01*
X218213101Y-149091592D01*
X218203524Y-148461193D01*
X218194577Y-147680374D01*
X218186350Y-146761529D01*
X218178935Y-145717052D01*
X218172425Y-144559339D01*
X218166911Y-143300784D01*
X218162486Y-141953781D01*
X218159240Y-140530726D01*
X218157267Y-139044013D01*
X218156724Y-138098674D01*
X218153315Y-126293289D01*
X217929407Y-126110977D01*
X217705500Y-125928664D01*
X217999209Y-125620832D01*
X218235043Y-125414154D01*
X218428440Y-125316311D01*
X218541211Y-125342371D01*
G36*
X238841159Y-126468275D02*
X238837473Y-126728386D01*
X238805342Y-127063000D01*
X238729726Y-126722027D01*
X238692252Y-126481033D01*
X238699670Y-126338035D01*
X238704805Y-126330361D01*
X238794084Y-126316930D01*
X238841159Y-126468275D01*
X238841159Y-126468275D01*
G37*
X238841159Y-126468275D02*
X238837473Y-126728386D01*
X238805342Y-127063000D01*
X238729726Y-126722027D01*
X238692252Y-126481033D01*
X238699670Y-126338035D01*
X238704805Y-126330361D01*
X238794084Y-126316930D01*
X238841159Y-126468275D01*
G36*
X230238084Y-103574486D02*
X231580275Y-103836281D01*
X232474891Y-104114142D01*
X233868225Y-104723215D01*
X235146267Y-105484551D01*
X236299854Y-106384610D01*
X237319820Y-107409851D01*
X238197004Y-108546733D01*
X238922241Y-109781716D01*
X239486368Y-111101258D01*
X239880221Y-112491819D01*
X240094636Y-113939858D01*
X240121327Y-115413000D01*
X240080721Y-115999251D01*
X240015371Y-116612956D01*
X239935097Y-117172375D01*
X239868231Y-117519377D01*
X239444776Y-118942289D01*
X238854446Y-120273243D01*
X238111585Y-121502454D01*
X237230539Y-122620140D01*
X236225654Y-123616514D01*
X235111275Y-124481792D01*
X233901749Y-125206191D01*
X232611422Y-125779926D01*
X231254638Y-126193213D01*
X229845744Y-126436266D01*
X228399086Y-126499303D01*
X226929008Y-126372537D01*
X226895377Y-126367364D01*
X225431676Y-126043079D01*
X224042042Y-125543251D01*
X222739970Y-124880133D01*
X221538957Y-124065977D01*
X220452496Y-123113033D01*
X219494085Y-122033555D01*
X218677217Y-120839794D01*
X218015389Y-119544003D01*
X217522097Y-118158432D01*
X217417711Y-117763000D01*
X217166017Y-116470619D01*
X217066226Y-115237300D01*
X217103033Y-114301563D01*
X220264539Y-114301563D01*
X220280080Y-114716733D01*
X220282553Y-114758982D01*
X220329434Y-115271714D01*
X220414782Y-115762189D01*
X220553534Y-116299433D01*
X220751006Y-116923747D01*
X221052589Y-117761752D01*
X221359417Y-118461139D01*
X221704548Y-119081345D01*
X222121042Y-119681809D01*
X222639515Y-120319124D01*
X223338814Y-121054419D01*
X224069789Y-121653365D01*
X224875462Y-122142728D01*
X225798854Y-122549274D01*
X226705500Y-122848860D01*
X227601936Y-123086210D01*
X228335688Y-123226107D01*
X228902315Y-123267803D01*
X229105500Y-123253815D01*
X229321167Y-123224784D01*
X229639928Y-123181352D01*
X229805500Y-123158653D01*
X230642287Y-123000603D01*
X231401294Y-122757120D01*
X232120352Y-122408066D01*
X232837296Y-121933300D01*
X233589958Y-121312682D01*
X234017884Y-120916205D01*
X234656684Y-120285549D01*
X235158310Y-119735391D01*
X235546051Y-119226852D01*
X235843198Y-118721051D01*
X236073041Y-118179109D01*
X236258868Y-117562145D01*
X236402656Y-116935082D01*
X236471967Y-116467760D01*
X236522164Y-115859057D01*
X236552664Y-115163486D01*
X236562887Y-114435558D01*
X236552251Y-113729783D01*
X236520176Y-113100673D01*
X236466080Y-112602738D01*
X236449842Y-112509260D01*
X236187132Y-111640221D01*
X235744920Y-110781297D01*
X235143215Y-109956614D01*
X234402024Y-109190295D01*
X233541355Y-108506466D01*
X232705500Y-107994485D01*
X232144758Y-107700152D01*
X235205500Y-107700152D01*
X236405500Y-108851515D01*
X236808206Y-109234745D01*
X237161055Y-109564562D01*
X237438874Y-109817912D01*
X237616489Y-109971741D01*
X237668255Y-110007939D01*
X237776117Y-109945103D01*
X237855477Y-109863026D01*
X237906465Y-109749292D01*
X237875613Y-109588016D01*
X237749222Y-109333372D01*
X237642722Y-109151393D01*
X237396839Y-108789937D01*
X237079107Y-108389556D01*
X236730426Y-107995259D01*
X236391693Y-107652054D01*
X236103808Y-107404951D01*
X235986459Y-107328674D01*
X235812866Y-107271248D01*
X235647220Y-107329740D01*
X235486459Y-107456247D01*
X235205500Y-107700152D01*
X232144758Y-107700152D01*
X232044908Y-107647741D01*
X231509278Y-107386279D01*
X231052546Y-107191700D01*
X230628649Y-107045602D01*
X230191522Y-106929585D01*
X229860084Y-106857852D01*
X228863209Y-106735773D01*
X227815712Y-106751246D01*
X226756568Y-106894358D01*
X225724755Y-107155194D01*
X224759252Y-107523842D01*
X223899035Y-107990387D01*
X223183081Y-108544915D01*
X223166965Y-108560204D01*
X222887954Y-108818457D01*
X222662866Y-109012238D01*
X222530945Y-109108190D01*
X222516572Y-109113000D01*
X222396316Y-109167685D01*
X222174810Y-109307756D01*
X221901699Y-109497229D01*
X221626626Y-109700125D01*
X221399235Y-109880461D01*
X221269168Y-110002256D01*
X221255500Y-110027015D01*
X221328496Y-110133898D01*
X221472173Y-110253423D01*
X221688847Y-110405187D01*
X221125454Y-111605273D01*
X220816389Y-112273609D01*
X220587419Y-112802492D01*
X220428147Y-113230825D01*
X220328175Y-113597513D01*
X220277105Y-113941458D01*
X220264539Y-114301563D01*
X217103033Y-114301563D01*
X217115055Y-113995940D01*
X217199954Y-113312584D01*
X217523262Y-111812599D01*
X217877682Y-110809802D01*
X219260216Y-110809802D01*
X219290869Y-110981551D01*
X219420449Y-110989394D01*
X219516978Y-110936468D01*
X219612098Y-110829412D01*
X219792590Y-110589161D01*
X220033905Y-110249602D01*
X220311490Y-109844622D01*
X220356726Y-109777366D01*
X220688424Y-109303351D01*
X221041685Y-108832302D01*
X221372575Y-108421030D01*
X221620247Y-108143493D01*
X221875142Y-107874280D01*
X222063928Y-107659385D01*
X222152171Y-107538387D01*
X222154729Y-107529127D01*
X222071627Y-107430972D01*
X221870371Y-107299707D01*
X221620598Y-107171020D01*
X221391950Y-107080603D01*
X221254063Y-107064145D01*
X221250838Y-107065880D01*
X221200943Y-107106042D01*
X221123140Y-107188834D01*
X221001541Y-107334174D01*
X220820257Y-107561980D01*
X220563399Y-107892169D01*
X220215080Y-108344659D01*
X219832028Y-108844495D01*
X219573390Y-109197038D01*
X219414036Y-109445461D01*
X219360394Y-109575684D01*
X219418896Y-109573624D01*
X219545394Y-109472145D01*
X219637561Y-109399956D01*
X219667233Y-109423802D01*
X219631531Y-109571842D01*
X219527576Y-109872234D01*
X219495394Y-109961195D01*
X219328416Y-110470798D01*
X219260216Y-110809802D01*
X217877682Y-110809802D01*
X218023207Y-110398057D01*
X218690886Y-109079740D01*
X219517395Y-107868432D01*
X220493828Y-106774914D01*
X221611281Y-105809969D01*
X221923986Y-105603365D01*
X225417640Y-105603365D01*
X225477939Y-105877160D01*
X225483408Y-105897327D01*
X225564605Y-106162785D01*
X225652716Y-106279481D01*
X225804660Y-106292303D01*
X225953648Y-106268177D01*
X226625555Y-106152636D01*
X227162576Y-106076774D01*
X227624807Y-106035734D01*
X228072340Y-106024657D01*
X228565269Y-106038684D01*
X228705500Y-106045696D01*
X229695196Y-106131856D01*
X230601391Y-106276960D01*
X231376115Y-106472651D01*
X231605500Y-106550870D01*
X231942649Y-106664930D01*
X232141719Y-106695087D01*
X232246558Y-106640519D01*
X232291295Y-106538000D01*
X232392895Y-106148416D01*
X232422372Y-105901646D01*
X232369475Y-105750317D01*
X232223951Y-105647052D01*
X232085611Y-105587540D01*
X231490121Y-105382788D01*
X230855041Y-105233554D01*
X230140594Y-105134245D01*
X229306997Y-105079266D01*
X228355500Y-105063000D01*
X227492527Y-105070124D01*
X226809444Y-105092790D01*
X226286603Y-105132933D01*
X225904355Y-105192490D01*
X225643053Y-105273396D01*
X225523761Y-105342102D01*
X225431305Y-105447164D01*
X225417640Y-105603365D01*
X221923986Y-105603365D01*
X222860851Y-104984380D01*
X223017822Y-104907145D01*
X225101881Y-104907145D01*
X225212512Y-104917360D01*
X225464323Y-104878263D01*
X225806970Y-104798154D01*
X225876137Y-104779544D01*
X226178949Y-104705237D01*
X226491356Y-104651092D01*
X226852511Y-104614070D01*
X227301569Y-104591134D01*
X227877684Y-104579247D01*
X228505500Y-104575541D01*
X229440156Y-104586478D01*
X230220598Y-104627862D01*
X230891204Y-104706452D01*
X231496351Y-104829006D01*
X232080418Y-105002281D01*
X232607668Y-105200249D01*
X232888669Y-105313384D01*
X233080343Y-105389052D01*
X233130500Y-105407546D01*
X233155080Y-105337024D01*
X233155500Y-105320184D01*
X233069437Y-105238731D01*
X232846010Y-105121481D01*
X232594650Y-105017529D01*
X231163446Y-104576563D01*
X229739977Y-104325245D01*
X228338901Y-104265642D01*
X227600693Y-104313493D01*
X227124934Y-104374617D01*
X226627517Y-104458288D01*
X226145228Y-104555766D01*
X225714857Y-104658311D01*
X225373192Y-104757184D01*
X225157019Y-104843644D01*
X225101881Y-104907145D01*
X223017822Y-104907145D01*
X224233633Y-104308929D01*
X224824300Y-104079948D01*
X226097932Y-103720299D01*
X227453630Y-103516301D01*
X228848108Y-103467761D01*
X230238084Y-103574486D01*
X230238084Y-103574486D01*
G37*
X230238084Y-103574486D02*
X231580275Y-103836281D01*
X232474891Y-104114142D01*
X233868225Y-104723215D01*
X235146267Y-105484551D01*
X236299854Y-106384610D01*
X237319820Y-107409851D01*
X238197004Y-108546733D01*
X238922241Y-109781716D01*
X239486368Y-111101258D01*
X239880221Y-112491819D01*
X240094636Y-113939858D01*
X240121327Y-115413000D01*
X240080721Y-115999251D01*
X240015371Y-116612956D01*
X239935097Y-117172375D01*
X239868231Y-117519377D01*
X239444776Y-118942289D01*
X238854446Y-120273243D01*
X238111585Y-121502454D01*
X237230539Y-122620140D01*
X236225654Y-123616514D01*
X235111275Y-124481792D01*
X233901749Y-125206191D01*
X232611422Y-125779926D01*
X231254638Y-126193213D01*
X229845744Y-126436266D01*
X228399086Y-126499303D01*
X226929008Y-126372537D01*
X226895377Y-126367364D01*
X225431676Y-126043079D01*
X224042042Y-125543251D01*
X222739970Y-124880133D01*
X221538957Y-124065977D01*
X220452496Y-123113033D01*
X219494085Y-122033555D01*
X218677217Y-120839794D01*
X218015389Y-119544003D01*
X217522097Y-118158432D01*
X217417711Y-117763000D01*
X217166017Y-116470619D01*
X217066226Y-115237300D01*
X217103033Y-114301563D01*
X220264539Y-114301563D01*
X220280080Y-114716733D01*
X220282553Y-114758982D01*
X220329434Y-115271714D01*
X220414782Y-115762189D01*
X220553534Y-116299433D01*
X220751006Y-116923747D01*
X221052589Y-117761752D01*
X221359417Y-118461139D01*
X221704548Y-119081345D01*
X222121042Y-119681809D01*
X222639515Y-120319124D01*
X223338814Y-121054419D01*
X224069789Y-121653365D01*
X224875462Y-122142728D01*
X225798854Y-122549274D01*
X226705500Y-122848860D01*
X227601936Y-123086210D01*
X228335688Y-123226107D01*
X228902315Y-123267803D01*
X229105500Y-123253815D01*
X229321167Y-123224784D01*
X229639928Y-123181352D01*
X229805500Y-123158653D01*
X230642287Y-123000603D01*
X231401294Y-122757120D01*
X232120352Y-122408066D01*
X232837296Y-121933300D01*
X233589958Y-121312682D01*
X234017884Y-120916205D01*
X234656684Y-120285549D01*
X235158310Y-119735391D01*
X235546051Y-119226852D01*
X235843198Y-118721051D01*
X236073041Y-118179109D01*
X236258868Y-117562145D01*
X236402656Y-116935082D01*
X236471967Y-116467760D01*
X236522164Y-115859057D01*
X236552664Y-115163486D01*
X236562887Y-114435558D01*
X236552251Y-113729783D01*
X236520176Y-113100673D01*
X236466080Y-112602738D01*
X236449842Y-112509260D01*
X236187132Y-111640221D01*
X235744920Y-110781297D01*
X235143215Y-109956614D01*
X234402024Y-109190295D01*
X233541355Y-108506466D01*
X232705500Y-107994485D01*
X232144758Y-107700152D01*
X235205500Y-107700152D01*
X236405500Y-108851515D01*
X236808206Y-109234745D01*
X237161055Y-109564562D01*
X237438874Y-109817912D01*
X237616489Y-109971741D01*
X237668255Y-110007939D01*
X237776117Y-109945103D01*
X237855477Y-109863026D01*
X237906465Y-109749292D01*
X237875613Y-109588016D01*
X237749222Y-109333372D01*
X237642722Y-109151393D01*
X237396839Y-108789937D01*
X237079107Y-108389556D01*
X236730426Y-107995259D01*
X236391693Y-107652054D01*
X236103808Y-107404951D01*
X235986459Y-107328674D01*
X235812866Y-107271248D01*
X235647220Y-107329740D01*
X235486459Y-107456247D01*
X235205500Y-107700152D01*
X232144758Y-107700152D01*
X232044908Y-107647741D01*
X231509278Y-107386279D01*
X231052546Y-107191700D01*
X230628649Y-107045602D01*
X230191522Y-106929585D01*
X229860084Y-106857852D01*
X228863209Y-106735773D01*
X227815712Y-106751246D01*
X226756568Y-106894358D01*
X225724755Y-107155194D01*
X224759252Y-107523842D01*
X223899035Y-107990387D01*
X223183081Y-108544915D01*
X223166965Y-108560204D01*
X222887954Y-108818457D01*
X222662866Y-109012238D01*
X222530945Y-109108190D01*
X222516572Y-109113000D01*
X222396316Y-109167685D01*
X222174810Y-109307756D01*
X221901699Y-109497229D01*
X221626626Y-109700125D01*
X221399235Y-109880461D01*
X221269168Y-110002256D01*
X221255500Y-110027015D01*
X221328496Y-110133898D01*
X221472173Y-110253423D01*
X221688847Y-110405187D01*
X221125454Y-111605273D01*
X220816389Y-112273609D01*
X220587419Y-112802492D01*
X220428147Y-113230825D01*
X220328175Y-113597513D01*
X220277105Y-113941458D01*
X220264539Y-114301563D01*
X217103033Y-114301563D01*
X217115055Y-113995940D01*
X217199954Y-113312584D01*
X217523262Y-111812599D01*
X217877682Y-110809802D01*
X219260216Y-110809802D01*
X219290869Y-110981551D01*
X219420449Y-110989394D01*
X219516978Y-110936468D01*
X219612098Y-110829412D01*
X219792590Y-110589161D01*
X220033905Y-110249602D01*
X220311490Y-109844622D01*
X220356726Y-109777366D01*
X220688424Y-109303351D01*
X221041685Y-108832302D01*
X221372575Y-108421030D01*
X221620247Y-108143493D01*
X221875142Y-107874280D01*
X222063928Y-107659385D01*
X222152171Y-107538387D01*
X222154729Y-107529127D01*
X222071627Y-107430972D01*
X221870371Y-107299707D01*
X221620598Y-107171020D01*
X221391950Y-107080603D01*
X221254063Y-107064145D01*
X221250838Y-107065880D01*
X221200943Y-107106042D01*
X221123140Y-107188834D01*
X221001541Y-107334174D01*
X220820257Y-107561980D01*
X220563399Y-107892169D01*
X220215080Y-108344659D01*
X219832028Y-108844495D01*
X219573390Y-109197038D01*
X219414036Y-109445461D01*
X219360394Y-109575684D01*
X219418896Y-109573624D01*
X219545394Y-109472145D01*
X219637561Y-109399956D01*
X219667233Y-109423802D01*
X219631531Y-109571842D01*
X219527576Y-109872234D01*
X219495394Y-109961195D01*
X219328416Y-110470798D01*
X219260216Y-110809802D01*
X217877682Y-110809802D01*
X218023207Y-110398057D01*
X218690886Y-109079740D01*
X219517395Y-107868432D01*
X220493828Y-106774914D01*
X221611281Y-105809969D01*
X221923986Y-105603365D01*
X225417640Y-105603365D01*
X225477939Y-105877160D01*
X225483408Y-105897327D01*
X225564605Y-106162785D01*
X225652716Y-106279481D01*
X225804660Y-106292303D01*
X225953648Y-106268177D01*
X226625555Y-106152636D01*
X227162576Y-106076774D01*
X227624807Y-106035734D01*
X228072340Y-106024657D01*
X228565269Y-106038684D01*
X228705500Y-106045696D01*
X229695196Y-106131856D01*
X230601391Y-106276960D01*
X231376115Y-106472651D01*
X231605500Y-106550870D01*
X231942649Y-106664930D01*
X232141719Y-106695087D01*
X232246558Y-106640519D01*
X232291295Y-106538000D01*
X232392895Y-106148416D01*
X232422372Y-105901646D01*
X232369475Y-105750317D01*
X232223951Y-105647052D01*
X232085611Y-105587540D01*
X231490121Y-105382788D01*
X230855041Y-105233554D01*
X230140594Y-105134245D01*
X229306997Y-105079266D01*
X228355500Y-105063000D01*
X227492527Y-105070124D01*
X226809444Y-105092790D01*
X226286603Y-105132933D01*
X225904355Y-105192490D01*
X225643053Y-105273396D01*
X225523761Y-105342102D01*
X225431305Y-105447164D01*
X225417640Y-105603365D01*
X221923986Y-105603365D01*
X222860851Y-104984380D01*
X223017822Y-104907145D01*
X225101881Y-104907145D01*
X225212512Y-104917360D01*
X225464323Y-104878263D01*
X225806970Y-104798154D01*
X225876137Y-104779544D01*
X226178949Y-104705237D01*
X226491356Y-104651092D01*
X226852511Y-104614070D01*
X227301569Y-104591134D01*
X227877684Y-104579247D01*
X228505500Y-104575541D01*
X229440156Y-104586478D01*
X230220598Y-104627862D01*
X230891204Y-104706452D01*
X231496351Y-104829006D01*
X232080418Y-105002281D01*
X232607668Y-105200249D01*
X232888669Y-105313384D01*
X233080343Y-105389052D01*
X233130500Y-105407546D01*
X233155080Y-105337024D01*
X233155500Y-105320184D01*
X233069437Y-105238731D01*
X232846010Y-105121481D01*
X232594650Y-105017529D01*
X231163446Y-104576563D01*
X229739977Y-104325245D01*
X228338901Y-104265642D01*
X227600693Y-104313493D01*
X227124934Y-104374617D01*
X226627517Y-104458288D01*
X226145228Y-104555766D01*
X225714857Y-104658311D01*
X225373192Y-104757184D01*
X225157019Y-104843644D01*
X225101881Y-104907145D01*
X223017822Y-104907145D01*
X224233633Y-104308929D01*
X224824300Y-104079948D01*
X226097932Y-103720299D01*
X227453630Y-103516301D01*
X228848108Y-103467761D01*
X230238084Y-103574486D01*
G36*
X241367888Y-122741529D02*
X242066438Y-122826650D01*
X242746670Y-122967950D01*
X242805500Y-122983420D01*
X243805500Y-123251474D01*
X253755500Y-123326625D01*
X255161499Y-123337792D01*
X256519267Y-123349639D01*
X257814374Y-123361983D01*
X259032393Y-123374638D01*
X260158896Y-123387420D01*
X261179454Y-123400144D01*
X262079639Y-123412625D01*
X262845023Y-123424680D01*
X263461178Y-123436122D01*
X263913675Y-123446768D01*
X264188087Y-123456433D01*
X264255500Y-123460998D01*
X264709102Y-123513643D01*
X264999696Y-123564850D01*
X265163452Y-123631279D01*
X265236539Y-123729588D01*
X265255128Y-123876438D01*
X265255500Y-123921577D01*
X265199798Y-124174365D01*
X265060103Y-124460497D01*
X264877525Y-124717608D01*
X264693176Y-124883330D01*
X264601964Y-124913000D01*
X264454497Y-124992677D01*
X264430516Y-125038000D01*
X264386311Y-125057471D01*
X264261382Y-125075317D01*
X264046941Y-125091664D01*
X263734199Y-125106637D01*
X263314367Y-125120360D01*
X262778657Y-125132961D01*
X262118279Y-125144563D01*
X261324446Y-125155292D01*
X260388369Y-125165274D01*
X259301259Y-125174634D01*
X258054327Y-125183497D01*
X256638786Y-125191989D01*
X255045845Y-125200235D01*
X253266717Y-125208361D01*
X252162677Y-125213000D01*
X239936488Y-125263000D01*
X239717237Y-125538000D01*
X239556182Y-125721228D01*
X239447781Y-125811132D01*
X239439479Y-125813000D01*
X239345804Y-125745264D01*
X239162681Y-125569628D01*
X238979476Y-125377428D01*
X238643220Y-124984825D01*
X238448671Y-124681230D01*
X238378582Y-124434272D01*
X238394099Y-124278685D01*
X238517025Y-124023648D01*
X238748245Y-123702188D01*
X239038989Y-123368612D01*
X239340485Y-123077227D01*
X239603962Y-122882338D01*
X239680731Y-122846034D01*
X240123196Y-122748941D01*
X240702861Y-122714866D01*
X241367888Y-122741529D01*
X241367888Y-122741529D01*
G37*
X241367888Y-122741529D02*
X242066438Y-122826650D01*
X242746670Y-122967950D01*
X242805500Y-122983420D01*
X243805500Y-123251474D01*
X253755500Y-123326625D01*
X255161499Y-123337792D01*
X256519267Y-123349639D01*
X257814374Y-123361983D01*
X259032393Y-123374638D01*
X260158896Y-123387420D01*
X261179454Y-123400144D01*
X262079639Y-123412625D01*
X262845023Y-123424680D01*
X263461178Y-123436122D01*
X263913675Y-123446768D01*
X264188087Y-123456433D01*
X264255500Y-123460998D01*
X264709102Y-123513643D01*
X264999696Y-123564850D01*
X265163452Y-123631279D01*
X265236539Y-123729588D01*
X265255128Y-123876438D01*
X265255500Y-123921577D01*
X265199798Y-124174365D01*
X265060103Y-124460497D01*
X264877525Y-124717608D01*
X264693176Y-124883330D01*
X264601964Y-124913000D01*
X264454497Y-124992677D01*
X264430516Y-125038000D01*
X264386311Y-125057471D01*
X264261382Y-125075317D01*
X264046941Y-125091664D01*
X263734199Y-125106637D01*
X263314367Y-125120360D01*
X262778657Y-125132961D01*
X262118279Y-125144563D01*
X261324446Y-125155292D01*
X260388369Y-125165274D01*
X259301259Y-125174634D01*
X258054327Y-125183497D01*
X256638786Y-125191989D01*
X255045845Y-125200235D01*
X253266717Y-125208361D01*
X252162677Y-125213000D01*
X239936488Y-125263000D01*
X239717237Y-125538000D01*
X239556182Y-125721228D01*
X239447781Y-125811132D01*
X239439479Y-125813000D01*
X239345804Y-125745264D01*
X239162681Y-125569628D01*
X238979476Y-125377428D01*
X238643220Y-124984825D01*
X238448671Y-124681230D01*
X238378582Y-124434272D01*
X238394099Y-124278685D01*
X238517025Y-124023648D01*
X238748245Y-123702188D01*
X239038989Y-123368612D01*
X239340485Y-123077227D01*
X239603962Y-122882338D01*
X239680731Y-122846034D01*
X240123196Y-122748941D01*
X240702861Y-122714866D01*
X241367888Y-122741529D01*
G36*
X192327473Y-122698989D02*
X192628400Y-122802318D01*
X192849840Y-122887770D01*
X193062858Y-122963122D01*
X193280933Y-123029008D01*
X193517544Y-123086063D01*
X193786171Y-123134921D01*
X194100292Y-123176218D01*
X194473387Y-123210589D01*
X194918936Y-123238667D01*
X195450416Y-123261088D01*
X196081308Y-123278487D01*
X196825091Y-123291499D01*
X197695244Y-123300757D01*
X198705246Y-123306897D01*
X199868576Y-123310555D01*
X201198714Y-123312363D01*
X202709139Y-123312959D01*
X203472391Y-123313000D01*
X205069562Y-123312646D01*
X206480173Y-123311242D01*
X207717664Y-123308271D01*
X208795474Y-123303216D01*
X209727044Y-123295562D01*
X210525812Y-123284791D01*
X211205218Y-123270387D01*
X211778703Y-123251835D01*
X212259705Y-123228617D01*
X212661664Y-123200218D01*
X212998019Y-123166121D01*
X213282211Y-123125809D01*
X213527679Y-123078766D01*
X213747862Y-123024477D01*
X213956201Y-122962424D01*
X214133414Y-122903396D01*
X214501381Y-122796314D01*
X214847632Y-122727248D01*
X215012245Y-122713000D01*
X215439323Y-122762855D01*
X215915379Y-122899356D01*
X216408485Y-123102903D01*
X216886714Y-123353896D01*
X217318138Y-123632734D01*
X217670828Y-123919820D01*
X217912858Y-124195552D01*
X218012298Y-124440332D01*
X217998188Y-124545992D01*
X217905445Y-124669206D01*
X217722965Y-124850226D01*
X217503140Y-125043860D01*
X217298363Y-125204916D01*
X217161025Y-125288203D01*
X217136363Y-125289368D01*
X217034414Y-125285948D01*
X216744677Y-125281841D01*
X216279364Y-125277122D01*
X215650685Y-125271867D01*
X214870852Y-125266152D01*
X213952075Y-125260052D01*
X212906566Y-125253641D01*
X211746536Y-125246997D01*
X210484195Y-125240194D01*
X209131755Y-125233308D01*
X207701427Y-125226414D01*
X206205421Y-125219587D01*
X205003023Y-125214368D01*
X192900547Y-125163000D01*
X192622086Y-124943937D01*
X192256393Y-124616870D01*
X192039191Y-124299029D01*
X191935618Y-123919751D01*
X191910928Y-123502406D01*
X191921654Y-123062390D01*
X191978522Y-122797556D01*
X192105729Y-122684292D01*
X192327473Y-122698989D01*
X192327473Y-122698989D01*
G37*
X192327473Y-122698989D02*
X192628400Y-122802318D01*
X192849840Y-122887770D01*
X193062858Y-122963122D01*
X193280933Y-123029008D01*
X193517544Y-123086063D01*
X193786171Y-123134921D01*
X194100292Y-123176218D01*
X194473387Y-123210589D01*
X194918936Y-123238667D01*
X195450416Y-123261088D01*
X196081308Y-123278487D01*
X196825091Y-123291499D01*
X197695244Y-123300757D01*
X198705246Y-123306897D01*
X199868576Y-123310555D01*
X201198714Y-123312363D01*
X202709139Y-123312959D01*
X203472391Y-123313000D01*
X205069562Y-123312646D01*
X206480173Y-123311242D01*
X207717664Y-123308271D01*
X208795474Y-123303216D01*
X209727044Y-123295562D01*
X210525812Y-123284791D01*
X211205218Y-123270387D01*
X211778703Y-123251835D01*
X212259705Y-123228617D01*
X212661664Y-123200218D01*
X212998019Y-123166121D01*
X213282211Y-123125809D01*
X213527679Y-123078766D01*
X213747862Y-123024477D01*
X213956201Y-122962424D01*
X214133414Y-122903396D01*
X214501381Y-122796314D01*
X214847632Y-122727248D01*
X215012245Y-122713000D01*
X215439323Y-122762855D01*
X215915379Y-122899356D01*
X216408485Y-123102903D01*
X216886714Y-123353896D01*
X217318138Y-123632734D01*
X217670828Y-123919820D01*
X217912858Y-124195552D01*
X218012298Y-124440332D01*
X217998188Y-124545992D01*
X217905445Y-124669206D01*
X217722965Y-124850226D01*
X217503140Y-125043860D01*
X217298363Y-125204916D01*
X217161025Y-125288203D01*
X217136363Y-125289368D01*
X217034414Y-125285948D01*
X216744677Y-125281841D01*
X216279364Y-125277122D01*
X215650685Y-125271867D01*
X214870852Y-125266152D01*
X213952075Y-125260052D01*
X212906566Y-125253641D01*
X211746536Y-125246997D01*
X210484195Y-125240194D01*
X209131755Y-125233308D01*
X207701427Y-125226414D01*
X206205421Y-125219587D01*
X205003023Y-125214368D01*
X192900547Y-125163000D01*
X192622086Y-124943937D01*
X192256393Y-124616870D01*
X192039191Y-124299029D01*
X191935618Y-123919751D01*
X191910928Y-123502406D01*
X191921654Y-123062390D01*
X191978522Y-122797556D01*
X192105729Y-122684292D01*
X192327473Y-122698989D01*
G36*
X218308044Y-122644382D02*
X218380500Y-122700244D01*
X218535967Y-122846205D01*
X218535291Y-122911358D01*
X218517744Y-122913000D01*
X218434270Y-122844662D01*
X218342744Y-122738000D01*
X218256259Y-122619550D01*
X218308044Y-122644382D01*
X218308044Y-122644382D01*
G37*
X218308044Y-122644382D02*
X218380500Y-122700244D01*
X218535967Y-122846205D01*
X218535291Y-122911358D01*
X218517744Y-122913000D01*
X218434270Y-122844662D01*
X218342744Y-122738000D01*
X218256259Y-122619550D01*
X218308044Y-122644382D01*
G36*
X218155500Y-122363000D02*
X218105500Y-122413000D01*
X218055500Y-122363000D01*
X218105500Y-122313000D01*
X218155500Y-122363000D01*
X218155500Y-122363000D01*
G37*
X218155500Y-122363000D02*
X218105500Y-122413000D01*
X218055500Y-122363000D01*
X218105500Y-122313000D01*
X218155500Y-122363000D01*
G36*
X217955500Y-122063000D02*
X217905500Y-122113000D01*
X217855500Y-122063000D01*
X217905500Y-122013000D01*
X217955500Y-122063000D01*
X217955500Y-122063000D01*
G37*
X217955500Y-122063000D02*
X217905500Y-122113000D01*
X217855500Y-122063000D01*
X217905500Y-122013000D01*
X217955500Y-122063000D01*
G36*
X217455500Y-121263000D02*
X217405500Y-121313000D01*
X217355500Y-121263000D01*
X217405500Y-121213000D01*
X217455500Y-121263000D01*
X217455500Y-121263000D01*
G37*
X217455500Y-121263000D02*
X217405500Y-121313000D01*
X217355500Y-121263000D01*
X217405500Y-121213000D01*
X217455500Y-121263000D01*
G36*
X184976551Y-117109572D02*
X185288681Y-117222399D01*
X185711904Y-117343941D01*
X186160088Y-117449708D01*
X186205500Y-117458984D01*
X186338482Y-117482663D01*
X186495578Y-117503762D01*
X186687583Y-117522369D01*
X186925291Y-117538571D01*
X187219498Y-117552457D01*
X187580997Y-117564112D01*
X188020584Y-117573625D01*
X188549052Y-117581083D01*
X189177197Y-117586573D01*
X189915812Y-117590182D01*
X190775694Y-117591999D01*
X191767635Y-117592109D01*
X192902432Y-117590601D01*
X194190878Y-117587562D01*
X195643768Y-117583080D01*
X197271897Y-117577241D01*
X199086059Y-117570133D01*
X199655500Y-117567818D01*
X201245068Y-117561130D01*
X202789006Y-117554277D01*
X204274427Y-117547333D01*
X205688446Y-117540374D01*
X207018177Y-117533475D01*
X208250733Y-117526711D01*
X209373230Y-117520157D01*
X210372781Y-117513888D01*
X211236501Y-117507981D01*
X211951503Y-117502509D01*
X212504903Y-117497548D01*
X212883814Y-117493173D01*
X213073409Y-117489529D01*
X213554665Y-117492967D01*
X213910402Y-117562263D01*
X214204844Y-117727286D01*
X214502214Y-118017906D01*
X214689517Y-118241157D01*
X214851339Y-118468164D01*
X214947184Y-118697345D01*
X214998636Y-118999692D01*
X215021970Y-119334687D01*
X215018245Y-119917763D01*
X214933751Y-120395570D01*
X214882164Y-120556397D01*
X214734489Y-120905092D01*
X214604342Y-121061549D01*
X214481169Y-121031549D01*
X214363262Y-120840589D01*
X214251261Y-120569824D01*
X214123735Y-120226899D01*
X214084262Y-120113000D01*
X213971142Y-119830582D01*
X213859886Y-119633005D01*
X213818731Y-119590147D01*
X213707094Y-119581557D01*
X213406835Y-119573238D01*
X212929334Y-119565251D01*
X212285967Y-119557655D01*
X211488115Y-119550508D01*
X210547154Y-119543870D01*
X209474465Y-119537799D01*
X208281424Y-119532356D01*
X206979410Y-119527598D01*
X205579802Y-119523585D01*
X204093979Y-119520375D01*
X202533318Y-119518029D01*
X200909197Y-119516605D01*
X199563177Y-119516168D01*
X185420854Y-119515041D01*
X185086693Y-119289020D01*
X184719453Y-118930589D01*
X184464744Y-118459526D01*
X184341014Y-117935302D01*
X184366712Y-117417388D01*
X184436143Y-117191876D01*
X184547602Y-116920752D01*
X184976551Y-117109572D01*
X184976551Y-117109572D01*
G37*
X184976551Y-117109572D02*
X185288681Y-117222399D01*
X185711904Y-117343941D01*
X186160088Y-117449708D01*
X186205500Y-117458984D01*
X186338482Y-117482663D01*
X186495578Y-117503762D01*
X186687583Y-117522369D01*
X186925291Y-117538571D01*
X187219498Y-117552457D01*
X187580997Y-117564112D01*
X188020584Y-117573625D01*
X188549052Y-117581083D01*
X189177197Y-117586573D01*
X189915812Y-117590182D01*
X190775694Y-117591999D01*
X191767635Y-117592109D01*
X192902432Y-117590601D01*
X194190878Y-117587562D01*
X195643768Y-117583080D01*
X197271897Y-117577241D01*
X199086059Y-117570133D01*
X199655500Y-117567818D01*
X201245068Y-117561130D01*
X202789006Y-117554277D01*
X204274427Y-117547333D01*
X205688446Y-117540374D01*
X207018177Y-117533475D01*
X208250733Y-117526711D01*
X209373230Y-117520157D01*
X210372781Y-117513888D01*
X211236501Y-117507981D01*
X211951503Y-117502509D01*
X212504903Y-117497548D01*
X212883814Y-117493173D01*
X213073409Y-117489529D01*
X213554665Y-117492967D01*
X213910402Y-117562263D01*
X214204844Y-117727286D01*
X214502214Y-118017906D01*
X214689517Y-118241157D01*
X214851339Y-118468164D01*
X214947184Y-118697345D01*
X214998636Y-118999692D01*
X215021970Y-119334687D01*
X215018245Y-119917763D01*
X214933751Y-120395570D01*
X214882164Y-120556397D01*
X214734489Y-120905092D01*
X214604342Y-121061549D01*
X214481169Y-121031549D01*
X214363262Y-120840589D01*
X214251261Y-120569824D01*
X214123735Y-120226899D01*
X214084262Y-120113000D01*
X213971142Y-119830582D01*
X213859886Y-119633005D01*
X213818731Y-119590147D01*
X213707094Y-119581557D01*
X213406835Y-119573238D01*
X212929334Y-119565251D01*
X212285967Y-119557655D01*
X211488115Y-119550508D01*
X210547154Y-119543870D01*
X209474465Y-119537799D01*
X208281424Y-119532356D01*
X206979410Y-119527598D01*
X205579802Y-119523585D01*
X204093979Y-119520375D01*
X202533318Y-119518029D01*
X200909197Y-119516605D01*
X199563177Y-119516168D01*
X185420854Y-119515041D01*
X185086693Y-119289020D01*
X184719453Y-118930589D01*
X184464744Y-118459526D01*
X184341014Y-117935302D01*
X184366712Y-117417388D01*
X184436143Y-117191876D01*
X184547602Y-116920752D01*
X184976551Y-117109572D01*
G36*
X217355500Y-121063000D02*
X217305500Y-121113000D01*
X217255500Y-121063000D01*
X217305500Y-121013000D01*
X217355500Y-121063000D01*
X217355500Y-121063000D01*
G37*
X217355500Y-121063000D02*
X217305500Y-121113000D01*
X217255500Y-121063000D01*
X217305500Y-121013000D01*
X217355500Y-121063000D01*
G36*
X217255500Y-120863000D02*
X217205500Y-120913000D01*
X217155500Y-120863000D01*
X217205500Y-120813000D01*
X217255500Y-120863000D01*
X217255500Y-120863000D01*
G37*
X217255500Y-120863000D02*
X217205500Y-120913000D01*
X217155500Y-120863000D01*
X217205500Y-120813000D01*
X217255500Y-120863000D01*
G36*
X217155500Y-120663000D02*
X217105500Y-120713000D01*
X217055500Y-120663000D01*
X217105500Y-120613000D01*
X217155500Y-120663000D01*
X217155500Y-120663000D01*
G37*
X217155500Y-120663000D02*
X217105500Y-120713000D01*
X217055500Y-120663000D01*
X217105500Y-120613000D01*
X217155500Y-120663000D01*
G36*
X217055500Y-120463000D02*
X217005500Y-120513000D01*
X216955500Y-120463000D01*
X217005500Y-120413000D01*
X217055500Y-120463000D01*
X217055500Y-120463000D01*
G37*
X217055500Y-120463000D02*
X217005500Y-120513000D01*
X216955500Y-120463000D01*
X217005500Y-120413000D01*
X217055500Y-120463000D01*
G36*
X239660095Y-105657621D02*
X240129918Y-106031540D01*
X240676240Y-106364428D01*
X241229433Y-106618921D01*
X241705500Y-106755325D01*
X242072725Y-106766321D01*
X242564566Y-106691325D01*
X242955500Y-106597409D01*
X243105783Y-106558411D01*
X243251644Y-106524145D01*
X243406593Y-106494240D01*
X243584142Y-106468326D01*
X243797801Y-106446033D01*
X244061080Y-106426990D01*
X244387490Y-106410828D01*
X244790542Y-106397175D01*
X245283746Y-106385662D01*
X245880613Y-106375919D01*
X246594653Y-106367574D01*
X247439377Y-106360259D01*
X248428295Y-106353601D01*
X249574919Y-106347232D01*
X250892759Y-106340781D01*
X252395325Y-106333877D01*
X252605500Y-106332924D01*
X254536701Y-106325879D01*
X256276588Y-106323245D01*
X257833801Y-106325188D01*
X259216981Y-106331874D01*
X260434767Y-106343468D01*
X261495800Y-106360136D01*
X262408720Y-106382043D01*
X263182169Y-106409356D01*
X263824786Y-106442239D01*
X264345211Y-106480858D01*
X264752086Y-106525380D01*
X265030500Y-106571072D01*
X265215028Y-106685688D01*
X265266176Y-106902207D01*
X265196052Y-107185300D01*
X265016764Y-107499637D01*
X264740420Y-107809889D01*
X264552735Y-107965039D01*
X264216644Y-108213000D01*
X253391973Y-108213000D01*
X251497210Y-108213913D01*
X249775141Y-108216637D01*
X248228597Y-108221146D01*
X246860408Y-108227413D01*
X245673403Y-108235413D01*
X244670412Y-108245121D01*
X243854265Y-108256510D01*
X243227791Y-108269556D01*
X242793819Y-108284231D01*
X242555181Y-108300512D01*
X242506184Y-108311892D01*
X242502897Y-108461286D01*
X242574755Y-108698373D01*
X242591319Y-108736892D01*
X242730548Y-109068482D01*
X242783238Y-109279493D01*
X242754741Y-109426984D01*
X242667451Y-109548746D01*
X242559366Y-109791603D01*
X242512695Y-110154284D01*
X242526509Y-110566580D01*
X242599874Y-110958280D01*
X242689202Y-111188426D01*
X242884706Y-111451277D01*
X243161514Y-111707809D01*
X243247825Y-111769791D01*
X243634574Y-112025729D01*
X257670037Y-112059167D01*
X259339868Y-112063625D01*
X260961187Y-112068891D01*
X262522067Y-112074881D01*
X264010582Y-112081511D01*
X265414808Y-112088697D01*
X266722817Y-112096354D01*
X267922684Y-112104399D01*
X269002483Y-112112749D01*
X269950288Y-112121318D01*
X270754173Y-112130023D01*
X271402212Y-112138780D01*
X271882479Y-112147505D01*
X272183049Y-112156114D01*
X272280304Y-112162046D01*
X272855109Y-112231487D01*
X272814067Y-112562388D01*
X272673117Y-113021485D01*
X272360820Y-113425618D01*
X272132092Y-113618016D01*
X271805500Y-113863000D01*
X243905500Y-113963000D01*
X243900834Y-114456221D01*
X243871357Y-114804336D01*
X243787981Y-114976407D01*
X243750834Y-114996662D01*
X243600121Y-115090923D01*
X243374522Y-115279988D01*
X243230500Y-115416676D01*
X242997196Y-115677743D01*
X242885599Y-115905935D01*
X242855583Y-116185898D01*
X242855500Y-116207809D01*
X242879814Y-116522049D01*
X242940112Y-116777316D01*
X242958843Y-116819247D01*
X243171383Y-117040628D01*
X243541655Y-117245007D01*
X244027402Y-117413100D01*
X244468423Y-117508115D01*
X244680747Y-117525667D01*
X245089894Y-117541681D01*
X245692693Y-117556129D01*
X246485972Y-117568987D01*
X247466560Y-117580228D01*
X248631286Y-117589826D01*
X249976979Y-117597754D01*
X251500466Y-117603986D01*
X253198577Y-117608497D01*
X255068141Y-117611259D01*
X257056494Y-117612244D01*
X258939077Y-117612747D01*
X260633499Y-117614095D01*
X262151596Y-117616418D01*
X263505206Y-117619849D01*
X264706166Y-117624521D01*
X265766313Y-117630564D01*
X266697484Y-117638112D01*
X267511516Y-117647295D01*
X268220248Y-117658247D01*
X268835514Y-117671099D01*
X269369154Y-117685983D01*
X269833004Y-117703032D01*
X270238901Y-117722376D01*
X270598682Y-117744149D01*
X270901817Y-117766656D01*
X271494727Y-117816420D01*
X272015557Y-117863316D01*
X272432897Y-117904255D01*
X272715339Y-117936148D01*
X272831472Y-117955904D01*
X272832395Y-117956562D01*
X272835072Y-118074983D01*
X272780861Y-118304734D01*
X272692559Y-118573704D01*
X272592963Y-118809782D01*
X272528877Y-118916671D01*
X272365889Y-119075748D01*
X272127453Y-119264983D01*
X272089943Y-119291756D01*
X271774387Y-119513170D01*
X257654621Y-119515090D01*
X255648900Y-119516035D01*
X253771746Y-119518278D01*
X252029282Y-119521779D01*
X250427631Y-119526495D01*
X248972917Y-119532385D01*
X247671263Y-119539408D01*
X246528793Y-119547522D01*
X245551629Y-119556685D01*
X244745895Y-119566857D01*
X244117715Y-119577995D01*
X243673211Y-119590057D01*
X243418507Y-119603003D01*
X243357203Y-119612088D01*
X243210222Y-119760957D01*
X243059040Y-120017262D01*
X243018334Y-120110082D01*
X242898106Y-120364826D01*
X242765053Y-120477833D01*
X242562220Y-120467988D01*
X242255500Y-120363000D01*
X241929668Y-120276658D01*
X241543337Y-120225572D01*
X241430500Y-120220607D01*
X241153458Y-120209029D01*
X240982289Y-120188123D01*
X240955500Y-120175212D01*
X240990418Y-120067993D01*
X241077666Y-119846012D01*
X241113190Y-119760019D01*
X241203136Y-119473999D01*
X241228668Y-119237443D01*
X241222515Y-119197668D01*
X241222183Y-119071718D01*
X241275539Y-119075384D01*
X241332652Y-119054741D01*
X241305500Y-118913000D01*
X241281211Y-118757441D01*
X241332979Y-118749081D01*
X241407847Y-118693155D01*
X241501584Y-118464136D01*
X241607389Y-118087274D01*
X241718460Y-117587823D01*
X241827994Y-116991033D01*
X241860480Y-116790808D01*
X241930930Y-116099936D01*
X241954041Y-115277623D01*
X241932908Y-114385967D01*
X241870620Y-113487063D01*
X241770271Y-112643009D01*
X241634951Y-111915901D01*
X241613312Y-111826653D01*
X241136524Y-110302017D01*
X240495021Y-108849702D01*
X239704890Y-107503678D01*
X239290245Y-106922019D01*
X239041351Y-106593154D01*
X238824524Y-106305712D01*
X238680493Y-106113705D01*
X238665286Y-106093237D01*
X238595049Y-105962609D01*
X238622972Y-105835154D01*
X238770098Y-105652604D01*
X238857531Y-105560903D01*
X239189990Y-105217893D01*
X239660095Y-105657621D01*
X239660095Y-105657621D01*
G37*
X239660095Y-105657621D02*
X240129918Y-106031540D01*
X240676240Y-106364428D01*
X241229433Y-106618921D01*
X241705500Y-106755325D01*
X242072725Y-106766321D01*
X242564566Y-106691325D01*
X242955500Y-106597409D01*
X243105783Y-106558411D01*
X243251644Y-106524145D01*
X243406593Y-106494240D01*
X243584142Y-106468326D01*
X243797801Y-106446033D01*
X244061080Y-106426990D01*
X244387490Y-106410828D01*
X244790542Y-106397175D01*
X245283746Y-106385662D01*
X245880613Y-106375919D01*
X246594653Y-106367574D01*
X247439377Y-106360259D01*
X248428295Y-106353601D01*
X249574919Y-106347232D01*
X250892759Y-106340781D01*
X252395325Y-106333877D01*
X252605500Y-106332924D01*
X254536701Y-106325879D01*
X256276588Y-106323245D01*
X257833801Y-106325188D01*
X259216981Y-106331874D01*
X260434767Y-106343468D01*
X261495800Y-106360136D01*
X262408720Y-106382043D01*
X263182169Y-106409356D01*
X263824786Y-106442239D01*
X264345211Y-106480858D01*
X264752086Y-106525380D01*
X265030500Y-106571072D01*
X265215028Y-106685688D01*
X265266176Y-106902207D01*
X265196052Y-107185300D01*
X265016764Y-107499637D01*
X264740420Y-107809889D01*
X264552735Y-107965039D01*
X264216644Y-108213000D01*
X253391973Y-108213000D01*
X251497210Y-108213913D01*
X249775141Y-108216637D01*
X248228597Y-108221146D01*
X246860408Y-108227413D01*
X245673403Y-108235413D01*
X244670412Y-108245121D01*
X243854265Y-108256510D01*
X243227791Y-108269556D01*
X242793819Y-108284231D01*
X242555181Y-108300512D01*
X242506184Y-108311892D01*
X242502897Y-108461286D01*
X242574755Y-108698373D01*
X242591319Y-108736892D01*
X242730548Y-109068482D01*
X242783238Y-109279493D01*
X242754741Y-109426984D01*
X242667451Y-109548746D01*
X242559366Y-109791603D01*
X242512695Y-110154284D01*
X242526509Y-110566580D01*
X242599874Y-110958280D01*
X242689202Y-111188426D01*
X242884706Y-111451277D01*
X243161514Y-111707809D01*
X243247825Y-111769791D01*
X243634574Y-112025729D01*
X257670037Y-112059167D01*
X259339868Y-112063625D01*
X260961187Y-112068891D01*
X262522067Y-112074881D01*
X264010582Y-112081511D01*
X265414808Y-112088697D01*
X266722817Y-112096354D01*
X267922684Y-112104399D01*
X269002483Y-112112749D01*
X269950288Y-112121318D01*
X270754173Y-112130023D01*
X271402212Y-112138780D01*
X271882479Y-112147505D01*
X272183049Y-112156114D01*
X272280304Y-112162046D01*
X272855109Y-112231487D01*
X272814067Y-112562388D01*
X272673117Y-113021485D01*
X272360820Y-113425618D01*
X272132092Y-113618016D01*
X271805500Y-113863000D01*
X243905500Y-113963000D01*
X243900834Y-114456221D01*
X243871357Y-114804336D01*
X243787981Y-114976407D01*
X243750834Y-114996662D01*
X243600121Y-115090923D01*
X243374522Y-115279988D01*
X243230500Y-115416676D01*
X242997196Y-115677743D01*
X242885599Y-115905935D01*
X242855583Y-116185898D01*
X242855500Y-116207809D01*
X242879814Y-116522049D01*
X242940112Y-116777316D01*
X242958843Y-116819247D01*
X243171383Y-117040628D01*
X243541655Y-117245007D01*
X244027402Y-117413100D01*
X244468423Y-117508115D01*
X244680747Y-117525667D01*
X245089894Y-117541681D01*
X245692693Y-117556129D01*
X246485972Y-117568987D01*
X247466560Y-117580228D01*
X248631286Y-117589826D01*
X249976979Y-117597754D01*
X251500466Y-117603986D01*
X253198577Y-117608497D01*
X255068141Y-117611259D01*
X257056494Y-117612244D01*
X258939077Y-117612747D01*
X260633499Y-117614095D01*
X262151596Y-117616418D01*
X263505206Y-117619849D01*
X264706166Y-117624521D01*
X265766313Y-117630564D01*
X266697484Y-117638112D01*
X267511516Y-117647295D01*
X268220248Y-117658247D01*
X268835514Y-117671099D01*
X269369154Y-117685983D01*
X269833004Y-117703032D01*
X270238901Y-117722376D01*
X270598682Y-117744149D01*
X270901817Y-117766656D01*
X271494727Y-117816420D01*
X272015557Y-117863316D01*
X272432897Y-117904255D01*
X272715339Y-117936148D01*
X272831472Y-117955904D01*
X272832395Y-117956562D01*
X272835072Y-118074983D01*
X272780861Y-118304734D01*
X272692559Y-118573704D01*
X272592963Y-118809782D01*
X272528877Y-118916671D01*
X272365889Y-119075748D01*
X272127453Y-119264983D01*
X272089943Y-119291756D01*
X271774387Y-119513170D01*
X257654621Y-119515090D01*
X255648900Y-119516035D01*
X253771746Y-119518278D01*
X252029282Y-119521779D01*
X250427631Y-119526495D01*
X248972917Y-119532385D01*
X247671263Y-119539408D01*
X246528793Y-119547522D01*
X245551629Y-119556685D01*
X244745895Y-119566857D01*
X244117715Y-119577995D01*
X243673211Y-119590057D01*
X243418507Y-119603003D01*
X243357203Y-119612088D01*
X243210222Y-119760957D01*
X243059040Y-120017262D01*
X243018334Y-120110082D01*
X242898106Y-120364826D01*
X242765053Y-120477833D01*
X242562220Y-120467988D01*
X242255500Y-120363000D01*
X241929668Y-120276658D01*
X241543337Y-120225572D01*
X241430500Y-120220607D01*
X241153458Y-120209029D01*
X240982289Y-120188123D01*
X240955500Y-120175212D01*
X240990418Y-120067993D01*
X241077666Y-119846012D01*
X241113190Y-119760019D01*
X241203136Y-119473999D01*
X241228668Y-119237443D01*
X241222515Y-119197668D01*
X241222183Y-119071718D01*
X241275539Y-119075384D01*
X241332652Y-119054741D01*
X241305500Y-118913000D01*
X241281211Y-118757441D01*
X241332979Y-118749081D01*
X241407847Y-118693155D01*
X241501584Y-118464136D01*
X241607389Y-118087274D01*
X241718460Y-117587823D01*
X241827994Y-116991033D01*
X241860480Y-116790808D01*
X241930930Y-116099936D01*
X241954041Y-115277623D01*
X241932908Y-114385967D01*
X241870620Y-113487063D01*
X241770271Y-112643009D01*
X241634951Y-111915901D01*
X241613312Y-111826653D01*
X241136524Y-110302017D01*
X240495021Y-108849702D01*
X239704890Y-107503678D01*
X239290245Y-106922019D01*
X239041351Y-106593154D01*
X238824524Y-106305712D01*
X238680493Y-106113705D01*
X238665286Y-106093237D01*
X238595049Y-105962609D01*
X238622972Y-105835154D01*
X238770098Y-105652604D01*
X238857531Y-105560903D01*
X239189990Y-105217893D01*
X239660095Y-105657621D01*
G36*
X216955500Y-120263000D02*
X216905500Y-120313000D01*
X216855500Y-120263000D01*
X216905500Y-120213000D01*
X216955500Y-120263000D01*
X216955500Y-120263000D01*
G37*
X216955500Y-120263000D02*
X216905500Y-120313000D01*
X216855500Y-120263000D01*
X216905500Y-120213000D01*
X216955500Y-120263000D01*
G36*
X240355500Y-120263000D02*
X240305500Y-120313000D01*
X240255500Y-120263000D01*
X240305500Y-120213000D01*
X240355500Y-120263000D01*
X240355500Y-120263000D01*
G37*
X240355500Y-120263000D02*
X240305500Y-120313000D01*
X240255500Y-120263000D01*
X240305500Y-120213000D01*
X240355500Y-120263000D01*
G36*
X216855500Y-120063000D02*
X216805500Y-120113000D01*
X216755500Y-120063000D01*
X216805500Y-120013000D01*
X216855500Y-120063000D01*
X216855500Y-120063000D01*
G37*
X216855500Y-120063000D02*
X216805500Y-120113000D01*
X216755500Y-120063000D01*
X216805500Y-120013000D01*
X216855500Y-120063000D01*
G36*
X240455500Y-120063000D02*
X240405500Y-120113000D01*
X240355500Y-120063000D01*
X240405500Y-120013000D01*
X240455500Y-120063000D01*
X240455500Y-120063000D01*
G37*
X240455500Y-120063000D02*
X240405500Y-120113000D01*
X240355500Y-120063000D01*
X240405500Y-120013000D01*
X240455500Y-120063000D01*
G36*
X216667707Y-119645500D02*
X216733957Y-119811204D01*
X216727020Y-119874813D01*
X216658808Y-119839161D01*
X216617853Y-119759134D01*
X216561197Y-119569251D01*
X216584459Y-119531367D01*
X216667707Y-119645500D01*
X216667707Y-119645500D01*
G37*
X216667707Y-119645500D02*
X216733957Y-119811204D01*
X216727020Y-119874813D01*
X216658808Y-119839161D01*
X216617853Y-119759134D01*
X216561197Y-119569251D01*
X216584459Y-119531367D01*
X216667707Y-119645500D01*
G36*
X240652437Y-119563000D02*
X240602646Y-119727337D01*
X240555500Y-119813000D01*
X240476262Y-119893042D01*
X240458562Y-119863000D01*
X240508353Y-119698662D01*
X240555500Y-119613000D01*
X240634737Y-119532957D01*
X240652437Y-119563000D01*
X240652437Y-119563000D01*
G37*
X240652437Y-119563000D02*
X240602646Y-119727337D01*
X240555500Y-119813000D01*
X240476262Y-119893042D01*
X240458562Y-119863000D01*
X240508353Y-119698662D01*
X240555500Y-119613000D01*
X240634737Y-119532957D01*
X240652437Y-119563000D01*
G36*
X216522166Y-119246333D02*
X216534134Y-119365009D01*
X216522166Y-119379666D01*
X216462716Y-119365939D01*
X216455500Y-119313000D01*
X216492088Y-119230688D01*
X216522166Y-119246333D01*
X216522166Y-119246333D01*
G37*
X216522166Y-119246333D02*
X216534134Y-119365009D01*
X216522166Y-119379666D01*
X216462716Y-119365939D01*
X216455500Y-119313000D01*
X216492088Y-119230688D01*
X216522166Y-119246333D01*
G36*
X241124681Y-118125809D02*
X241058205Y-118386760D01*
X240965840Y-118702690D01*
X240865487Y-119015972D01*
X240775045Y-119268975D01*
X240712415Y-119404071D01*
X240701481Y-119413000D01*
X240657394Y-119388000D01*
X240689270Y-119257149D01*
X240763947Y-119016656D01*
X240863334Y-118718594D01*
X240969344Y-118415038D01*
X241063887Y-118158062D01*
X241128874Y-117999743D01*
X241147369Y-117977466D01*
X241124681Y-118125809D01*
X241124681Y-118125809D01*
G37*
X241124681Y-118125809D02*
X241058205Y-118386760D01*
X240965840Y-118702690D01*
X240865487Y-119015972D01*
X240775045Y-119268975D01*
X240712415Y-119404071D01*
X240701481Y-119413000D01*
X240657394Y-119388000D01*
X240689270Y-119257149D01*
X240763947Y-119016656D01*
X240863334Y-118718594D01*
X240969344Y-118415038D01*
X241063887Y-118158062D01*
X241128874Y-117999743D01*
X241147369Y-117977466D01*
X241124681Y-118125809D01*
G36*
X241155500Y-119363000D02*
X241105500Y-119413000D01*
X241055500Y-119363000D01*
X241105500Y-119313000D01*
X241155500Y-119363000D01*
X241155500Y-119363000D01*
G37*
X241155500Y-119363000D02*
X241105500Y-119413000D01*
X241055500Y-119363000D01*
X241105500Y-119313000D01*
X241155500Y-119363000D01*
G36*
X216422166Y-118946333D02*
X216434134Y-119065009D01*
X216422166Y-119079666D01*
X216362716Y-119065939D01*
X216355500Y-119013000D01*
X216392088Y-118930688D01*
X216422166Y-118946333D01*
X216422166Y-118946333D01*
G37*
X216422166Y-118946333D02*
X216434134Y-119065009D01*
X216422166Y-119079666D01*
X216362716Y-119065939D01*
X216355500Y-119013000D01*
X216392088Y-118930688D01*
X216422166Y-118946333D01*
G36*
X241222166Y-117546333D02*
X241234134Y-117665009D01*
X241222166Y-117679666D01*
X241162716Y-117665939D01*
X241155500Y-117613000D01*
X241192088Y-117530688D01*
X241222166Y-117546333D01*
X241222166Y-117546333D01*
G37*
X241222166Y-117546333D02*
X241234134Y-117665009D01*
X241222166Y-117679666D01*
X241162716Y-117665939D01*
X241155500Y-117613000D01*
X241192088Y-117530688D01*
X241222166Y-117546333D01*
G36*
X218435248Y-104875748D02*
X218590417Y-105003922D01*
X218729265Y-105140098D01*
X219094625Y-105505458D01*
X218680497Y-105984229D01*
X217650670Y-107316643D01*
X216802700Y-108725740D01*
X216128413Y-110225838D01*
X215912015Y-110834818D01*
X215721689Y-111473055D01*
X215549805Y-112166089D01*
X215407698Y-112857137D01*
X215306702Y-113489416D01*
X215258152Y-114006140D01*
X215255500Y-114123812D01*
X215224465Y-114364797D01*
X215112202Y-114568808D01*
X214889967Y-114762594D01*
X214529018Y-114972902D01*
X214139379Y-115162509D01*
X213737283Y-115333227D01*
X213472246Y-115397878D01*
X213312326Y-115357345D01*
X213225581Y-115212513D01*
X213218528Y-115188000D01*
X213166013Y-114873007D01*
X213163900Y-114564073D01*
X213208945Y-114333173D01*
X213260355Y-114259998D01*
X213305264Y-114147445D01*
X213248111Y-114054097D01*
X213208770Y-114033939D01*
X213119641Y-114015740D01*
X212971355Y-113999404D01*
X212754548Y-113984835D01*
X212459851Y-113971939D01*
X212077899Y-113960620D01*
X211599324Y-113950784D01*
X211014761Y-113942334D01*
X210314842Y-113935176D01*
X209490201Y-113929215D01*
X208531472Y-113924356D01*
X207429287Y-113920503D01*
X206174280Y-113917561D01*
X204757085Y-113915434D01*
X203168335Y-113914029D01*
X201398664Y-113913249D01*
X199438704Y-113913000D01*
X185594656Y-113913000D01*
X185142872Y-113626487D01*
X184699311Y-113238353D01*
X184426473Y-112746701D01*
X184326598Y-112155780D01*
X184326348Y-112077975D01*
X184364350Y-111672021D01*
X184476953Y-111441846D01*
X184681644Y-111371556D01*
X184995906Y-111445258D01*
X185014616Y-111452364D01*
X185615146Y-111651766D01*
X186272035Y-111801769D01*
X186983729Y-111910239D01*
X187183408Y-111922904D01*
X187572633Y-111935126D01*
X188140951Y-111946828D01*
X188877908Y-111957928D01*
X189773051Y-111968347D01*
X190815926Y-111978006D01*
X191996081Y-111986826D01*
X193303061Y-111994725D01*
X194726413Y-112001626D01*
X196255684Y-112007448D01*
X197880420Y-112012112D01*
X199590168Y-112015538D01*
X201053228Y-112017372D01*
X214374850Y-112029683D01*
X214624357Y-111796341D01*
X214887919Y-111512222D01*
X215005384Y-111251287D01*
X215000408Y-110934147D01*
X214951775Y-110697473D01*
X214852247Y-110373488D01*
X214718993Y-110178467D01*
X214503520Y-110041922D01*
X214499463Y-110039982D01*
X214280721Y-109913621D01*
X214206168Y-109774888D01*
X214225784Y-109572179D01*
X214306489Y-109283192D01*
X214435678Y-108940577D01*
X214478924Y-108842697D01*
X214582047Y-108570670D01*
X214618819Y-108367609D01*
X214608403Y-108317697D01*
X214511965Y-108299012D01*
X214244978Y-108282246D01*
X213804488Y-108267370D01*
X213187543Y-108254356D01*
X212391191Y-108243176D01*
X211412480Y-108233800D01*
X210248457Y-108226201D01*
X208896170Y-108220350D01*
X207352666Y-108216218D01*
X205614994Y-108213778D01*
X203735312Y-108213000D01*
X192926928Y-108213000D01*
X192450942Y-107737014D01*
X192169127Y-107429320D01*
X192005945Y-107167640D01*
X191919458Y-106878749D01*
X191902805Y-106779889D01*
X191877703Y-106390300D01*
X191913998Y-106046511D01*
X192000579Y-105795557D01*
X192126334Y-105684470D01*
X192161741Y-105683937D01*
X192317385Y-105723032D01*
X192610234Y-105809559D01*
X192987738Y-105927760D01*
X193155500Y-105981952D01*
X194005500Y-106259031D01*
X213505500Y-106371655D01*
X214549319Y-106606478D01*
X215046055Y-106712629D01*
X215409537Y-106771583D01*
X215699729Y-106787790D01*
X215976593Y-106765703D01*
X216199319Y-106728962D01*
X216863128Y-106518790D01*
X217448861Y-106164120D01*
X217921149Y-105694517D01*
X218244626Y-105139545D01*
X218304939Y-104968869D01*
X218353267Y-104869381D01*
X218435248Y-104875748D01*
X218435248Y-104875748D01*
G37*
X218435248Y-104875748D02*
X218590417Y-105003922D01*
X218729265Y-105140098D01*
X219094625Y-105505458D01*
X218680497Y-105984229D01*
X217650670Y-107316643D01*
X216802700Y-108725740D01*
X216128413Y-110225838D01*
X215912015Y-110834818D01*
X215721689Y-111473055D01*
X215549805Y-112166089D01*
X215407698Y-112857137D01*
X215306702Y-113489416D01*
X215258152Y-114006140D01*
X215255500Y-114123812D01*
X215224465Y-114364797D01*
X215112202Y-114568808D01*
X214889967Y-114762594D01*
X214529018Y-114972902D01*
X214139379Y-115162509D01*
X213737283Y-115333227D01*
X213472246Y-115397878D01*
X213312326Y-115357345D01*
X213225581Y-115212513D01*
X213218528Y-115188000D01*
X213166013Y-114873007D01*
X213163900Y-114564073D01*
X213208945Y-114333173D01*
X213260355Y-114259998D01*
X213305264Y-114147445D01*
X213248111Y-114054097D01*
X213208770Y-114033939D01*
X213119641Y-114015740D01*
X212971355Y-113999404D01*
X212754548Y-113984835D01*
X212459851Y-113971939D01*
X212077899Y-113960620D01*
X211599324Y-113950784D01*
X211014761Y-113942334D01*
X210314842Y-113935176D01*
X209490201Y-113929215D01*
X208531472Y-113924356D01*
X207429287Y-113920503D01*
X206174280Y-113917561D01*
X204757085Y-113915434D01*
X203168335Y-113914029D01*
X201398664Y-113913249D01*
X199438704Y-113913000D01*
X185594656Y-113913000D01*
X185142872Y-113626487D01*
X184699311Y-113238353D01*
X184426473Y-112746701D01*
X184326598Y-112155780D01*
X184326348Y-112077975D01*
X184364350Y-111672021D01*
X184476953Y-111441846D01*
X184681644Y-111371556D01*
X184995906Y-111445258D01*
X185014616Y-111452364D01*
X185615146Y-111651766D01*
X186272035Y-111801769D01*
X186983729Y-111910239D01*
X187183408Y-111922904D01*
X187572633Y-111935126D01*
X188140951Y-111946828D01*
X188877908Y-111957928D01*
X189773051Y-111968347D01*
X190815926Y-111978006D01*
X191996081Y-111986826D01*
X193303061Y-111994725D01*
X194726413Y-112001626D01*
X196255684Y-112007448D01*
X197880420Y-112012112D01*
X199590168Y-112015538D01*
X201053228Y-112017372D01*
X214374850Y-112029683D01*
X214624357Y-111796341D01*
X214887919Y-111512222D01*
X215005384Y-111251287D01*
X215000408Y-110934147D01*
X214951775Y-110697473D01*
X214852247Y-110373488D01*
X214718993Y-110178467D01*
X214503520Y-110041922D01*
X214499463Y-110039982D01*
X214280721Y-109913621D01*
X214206168Y-109774888D01*
X214225784Y-109572179D01*
X214306489Y-109283192D01*
X214435678Y-108940577D01*
X214478924Y-108842697D01*
X214582047Y-108570670D01*
X214618819Y-108367609D01*
X214608403Y-108317697D01*
X214511965Y-108299012D01*
X214244978Y-108282246D01*
X213804488Y-108267370D01*
X213187543Y-108254356D01*
X212391191Y-108243176D01*
X211412480Y-108233800D01*
X210248457Y-108226201D01*
X208896170Y-108220350D01*
X207352666Y-108216218D01*
X205614994Y-108213778D01*
X203735312Y-108213000D01*
X192926928Y-108213000D01*
X192450942Y-107737014D01*
X192169127Y-107429320D01*
X192005945Y-107167640D01*
X191919458Y-106878749D01*
X191902805Y-106779889D01*
X191877703Y-106390300D01*
X191913998Y-106046511D01*
X192000579Y-105795557D01*
X192126334Y-105684470D01*
X192161741Y-105683937D01*
X192317385Y-105723032D01*
X192610234Y-105809559D01*
X192987738Y-105927760D01*
X193155500Y-105981952D01*
X194005500Y-106259031D01*
X213505500Y-106371655D01*
X214549319Y-106606478D01*
X215046055Y-106712629D01*
X215409537Y-106771583D01*
X215699729Y-106787790D01*
X215976593Y-106765703D01*
X216199319Y-106728962D01*
X216863128Y-106518790D01*
X217448861Y-106164120D01*
X217921149Y-105694517D01*
X218244626Y-105139545D01*
X218304939Y-104968869D01*
X218353267Y-104869381D01*
X218435248Y-104875748D01*
G36*
X224179687Y-72021947D02*
X224413389Y-72230036D01*
X224715948Y-72519634D01*
X225054639Y-72857398D01*
X225396741Y-73209984D01*
X225709528Y-73544046D01*
X225960278Y-73826242D01*
X226116268Y-74023227D01*
X226139461Y-74060295D01*
X226165485Y-74120220D01*
X226188754Y-74207269D01*
X226209459Y-74332570D01*
X226227788Y-74507247D01*
X226243933Y-74742429D01*
X226258082Y-75049240D01*
X226270426Y-75438807D01*
X226281155Y-75922257D01*
X226290460Y-76510717D01*
X226298529Y-77215312D01*
X226305553Y-78047168D01*
X226311722Y-79017413D01*
X226317226Y-80137173D01*
X226322255Y-81417573D01*
X226326999Y-82869741D01*
X226331648Y-84504803D01*
X226334174Y-85463000D01*
X226338435Y-87220760D01*
X226341554Y-88789573D01*
X226343418Y-90180490D01*
X226343911Y-91404562D01*
X226342919Y-92472839D01*
X226340329Y-93396371D01*
X226336026Y-94186210D01*
X226329896Y-94853406D01*
X226321824Y-95409009D01*
X226311698Y-95864070D01*
X226299402Y-96229640D01*
X226284822Y-96516769D01*
X226267844Y-96736509D01*
X226248354Y-96899908D01*
X226226237Y-97018019D01*
X226214321Y-97063000D01*
X226124230Y-97417269D01*
X226028468Y-97873607D01*
X225947165Y-98335755D01*
X225944326Y-98354123D01*
X225822858Y-99145247D01*
X226084265Y-99370100D01*
X226561864Y-99677440D01*
X227148493Y-99898690D01*
X227787405Y-100025649D01*
X228421855Y-100050117D01*
X228995096Y-99963895D01*
X229321047Y-99837820D01*
X229628112Y-99640838D01*
X229890427Y-99415052D01*
X229948979Y-99348576D01*
X230161364Y-99078572D01*
X229555500Y-98453478D01*
X229555500Y-72513000D01*
X229854865Y-72513000D01*
X230099352Y-72585969D01*
X230425608Y-72780665D01*
X230792835Y-73060769D01*
X231160237Y-73389963D01*
X231487020Y-73731929D01*
X231732386Y-74050348D01*
X231850740Y-74289806D01*
X231869377Y-74460064D01*
X231886197Y-74829646D01*
X231901193Y-75397886D01*
X231914359Y-76164116D01*
X231925690Y-77127669D01*
X231935179Y-78287879D01*
X231942821Y-79644077D01*
X231948610Y-81195598D01*
X231952539Y-82941773D01*
X231954604Y-84881936D01*
X231954942Y-86025515D01*
X231955500Y-97388031D01*
X231601095Y-98165720D01*
X231442883Y-98532334D01*
X231328611Y-98834899D01*
X231276315Y-99024081D01*
X231276095Y-99054789D01*
X231370554Y-99195812D01*
X231586352Y-99430118D01*
X231888548Y-99726185D01*
X232242203Y-100052487D01*
X232612375Y-100377503D01*
X232964125Y-100669709D01*
X233262511Y-100897581D01*
X233455500Y-101021058D01*
X233751273Y-101150559D01*
X234062496Y-101223037D01*
X234463261Y-101252372D01*
X234705500Y-101255203D01*
X235168997Y-101244808D01*
X235629802Y-101217361D01*
X235991702Y-101178683D01*
X236005500Y-101176555D01*
X236316629Y-101143182D01*
X236568305Y-101171413D01*
X236849847Y-101278589D01*
X237055472Y-101380388D01*
X237548132Y-101716791D01*
X237982272Y-102167207D01*
X238308988Y-102672905D01*
X238456579Y-103063000D01*
X238549273Y-103417511D01*
X238661222Y-103818397D01*
X238695792Y-103936721D01*
X238773513Y-104231501D01*
X238779622Y-104416003D01*
X238708209Y-104568851D01*
X238641574Y-104657990D01*
X238410475Y-104902647D01*
X238175934Y-105098449D01*
X237905016Y-105291360D01*
X237305258Y-104785602D01*
X235980070Y-103794437D01*
X234573658Y-102985391D01*
X233092407Y-102360793D01*
X231542704Y-101922971D01*
X229930932Y-101674254D01*
X228605500Y-101613000D01*
X226963366Y-101708086D01*
X225375961Y-101990812D01*
X223854247Y-102457371D01*
X222409185Y-103103962D01*
X221051736Y-103926780D01*
X220289998Y-104498522D01*
X219674496Y-104996880D01*
X218153106Y-103433508D01*
X218156736Y-91777652D01*
X218158169Y-89854970D01*
X218161201Y-88092065D01*
X218165796Y-86492883D01*
X218171921Y-85061371D01*
X218179542Y-83801476D01*
X218188625Y-82717144D01*
X218199134Y-81812324D01*
X218211038Y-81090960D01*
X218224300Y-80557001D01*
X218238888Y-80214394D01*
X218254767Y-80067084D01*
X218257933Y-80061496D01*
X218339857Y-79921853D01*
X218355500Y-79807098D01*
X218387834Y-79647824D01*
X218430500Y-79613286D01*
X218533747Y-79682235D01*
X218740321Y-79867505D01*
X219019262Y-80137199D01*
X219339612Y-80459424D01*
X219670413Y-80802283D01*
X219980706Y-81133882D01*
X220239534Y-81422325D01*
X220415937Y-81635718D01*
X220468543Y-81713000D01*
X220494481Y-81791098D01*
X220517361Y-81932932D01*
X220537430Y-82150676D01*
X220554935Y-82456502D01*
X220570123Y-82862586D01*
X220583240Y-83381100D01*
X220594535Y-84024218D01*
X220604254Y-84804115D01*
X220612644Y-85732963D01*
X220619952Y-86822937D01*
X220626425Y-88086211D01*
X220632311Y-89534958D01*
X220633401Y-89837368D01*
X220638201Y-91304748D01*
X220641375Y-92585816D01*
X220642716Y-93694256D01*
X220642019Y-94643751D01*
X220639081Y-95447983D01*
X220633695Y-96120636D01*
X220625656Y-96675394D01*
X220614761Y-97125939D01*
X220600803Y-97485955D01*
X220583578Y-97769125D01*
X220562881Y-97989131D01*
X220538506Y-98159658D01*
X220510249Y-98294389D01*
X220506471Y-98309249D01*
X220435855Y-98681035D01*
X220377841Y-99170494D01*
X220341225Y-99695333D01*
X220334046Y-99922584D01*
X220316453Y-100938405D01*
X220684508Y-101275702D01*
X220908618Y-101463678D01*
X221109100Y-101565007D01*
X221364038Y-101605983D01*
X221686217Y-101613000D01*
X222468144Y-101532896D01*
X223139402Y-101295043D01*
X223602880Y-100981854D01*
X223969364Y-100663000D01*
X223959571Y-86278712D01*
X223958757Y-84091570D01*
X223959400Y-82076607D01*
X223961486Y-80236279D01*
X223964998Y-78573043D01*
X223969922Y-77089357D01*
X223976243Y-75787678D01*
X223983946Y-74670462D01*
X223993015Y-73740166D01*
X224003436Y-72999247D01*
X224015193Y-72450162D01*
X224028272Y-72095368D01*
X224042657Y-71937322D01*
X224047564Y-71928712D01*
X224179687Y-72021947D01*
X224179687Y-72021947D01*
G37*
X224179687Y-72021947D02*
X224413389Y-72230036D01*
X224715948Y-72519634D01*
X225054639Y-72857398D01*
X225396741Y-73209984D01*
X225709528Y-73544046D01*
X225960278Y-73826242D01*
X226116268Y-74023227D01*
X226139461Y-74060295D01*
X226165485Y-74120220D01*
X226188754Y-74207269D01*
X226209459Y-74332570D01*
X226227788Y-74507247D01*
X226243933Y-74742429D01*
X226258082Y-75049240D01*
X226270426Y-75438807D01*
X226281155Y-75922257D01*
X226290460Y-76510717D01*
X226298529Y-77215312D01*
X226305553Y-78047168D01*
X226311722Y-79017413D01*
X226317226Y-80137173D01*
X226322255Y-81417573D01*
X226326999Y-82869741D01*
X226331648Y-84504803D01*
X226334174Y-85463000D01*
X226338435Y-87220760D01*
X226341554Y-88789573D01*
X226343418Y-90180490D01*
X226343911Y-91404562D01*
X226342919Y-92472839D01*
X226340329Y-93396371D01*
X226336026Y-94186210D01*
X226329896Y-94853406D01*
X226321824Y-95409009D01*
X226311698Y-95864070D01*
X226299402Y-96229640D01*
X226284822Y-96516769D01*
X226267844Y-96736509D01*
X226248354Y-96899908D01*
X226226237Y-97018019D01*
X226214321Y-97063000D01*
X226124230Y-97417269D01*
X226028468Y-97873607D01*
X225947165Y-98335755D01*
X225944326Y-98354123D01*
X225822858Y-99145247D01*
X226084265Y-99370100D01*
X226561864Y-99677440D01*
X227148493Y-99898690D01*
X227787405Y-100025649D01*
X228421855Y-100050117D01*
X228995096Y-99963895D01*
X229321047Y-99837820D01*
X229628112Y-99640838D01*
X229890427Y-99415052D01*
X229948979Y-99348576D01*
X230161364Y-99078572D01*
X229555500Y-98453478D01*
X229555500Y-72513000D01*
X229854865Y-72513000D01*
X230099352Y-72585969D01*
X230425608Y-72780665D01*
X230792835Y-73060769D01*
X231160237Y-73389963D01*
X231487020Y-73731929D01*
X231732386Y-74050348D01*
X231850740Y-74289806D01*
X231869377Y-74460064D01*
X231886197Y-74829646D01*
X231901193Y-75397886D01*
X231914359Y-76164116D01*
X231925690Y-77127669D01*
X231935179Y-78287879D01*
X231942821Y-79644077D01*
X231948610Y-81195598D01*
X231952539Y-82941773D01*
X231954604Y-84881936D01*
X231954942Y-86025515D01*
X231955500Y-97388031D01*
X231601095Y-98165720D01*
X231442883Y-98532334D01*
X231328611Y-98834899D01*
X231276315Y-99024081D01*
X231276095Y-99054789D01*
X231370554Y-99195812D01*
X231586352Y-99430118D01*
X231888548Y-99726185D01*
X232242203Y-100052487D01*
X232612375Y-100377503D01*
X232964125Y-100669709D01*
X233262511Y-100897581D01*
X233455500Y-101021058D01*
X233751273Y-101150559D01*
X234062496Y-101223037D01*
X234463261Y-101252372D01*
X234705500Y-101255203D01*
X235168997Y-101244808D01*
X235629802Y-101217361D01*
X235991702Y-101178683D01*
X236005500Y-101176555D01*
X236316629Y-101143182D01*
X236568305Y-101171413D01*
X236849847Y-101278589D01*
X237055472Y-101380388D01*
X237548132Y-101716791D01*
X237982272Y-102167207D01*
X238308988Y-102672905D01*
X238456579Y-103063000D01*
X238549273Y-103417511D01*
X238661222Y-103818397D01*
X238695792Y-103936721D01*
X238773513Y-104231501D01*
X238779622Y-104416003D01*
X238708209Y-104568851D01*
X238641574Y-104657990D01*
X238410475Y-104902647D01*
X238175934Y-105098449D01*
X237905016Y-105291360D01*
X237305258Y-104785602D01*
X235980070Y-103794437D01*
X234573658Y-102985391D01*
X233092407Y-102360793D01*
X231542704Y-101922971D01*
X229930932Y-101674254D01*
X228605500Y-101613000D01*
X226963366Y-101708086D01*
X225375961Y-101990812D01*
X223854247Y-102457371D01*
X222409185Y-103103962D01*
X221051736Y-103926780D01*
X220289998Y-104498522D01*
X219674496Y-104996880D01*
X218153106Y-103433508D01*
X218156736Y-91777652D01*
X218158169Y-89854970D01*
X218161201Y-88092065D01*
X218165796Y-86492883D01*
X218171921Y-85061371D01*
X218179542Y-83801476D01*
X218188625Y-82717144D01*
X218199134Y-81812324D01*
X218211038Y-81090960D01*
X218224300Y-80557001D01*
X218238888Y-80214394D01*
X218254767Y-80067084D01*
X218257933Y-80061496D01*
X218339857Y-79921853D01*
X218355500Y-79807098D01*
X218387834Y-79647824D01*
X218430500Y-79613286D01*
X218533747Y-79682235D01*
X218740321Y-79867505D01*
X219019262Y-80137199D01*
X219339612Y-80459424D01*
X219670413Y-80802283D01*
X219980706Y-81133882D01*
X220239534Y-81422325D01*
X220415937Y-81635718D01*
X220468543Y-81713000D01*
X220494481Y-81791098D01*
X220517361Y-81932932D01*
X220537430Y-82150676D01*
X220554935Y-82456502D01*
X220570123Y-82862586D01*
X220583240Y-83381100D01*
X220594535Y-84024218D01*
X220604254Y-84804115D01*
X220612644Y-85732963D01*
X220619952Y-86822937D01*
X220626425Y-88086211D01*
X220632311Y-89534958D01*
X220633401Y-89837368D01*
X220638201Y-91304748D01*
X220641375Y-92585816D01*
X220642716Y-93694256D01*
X220642019Y-94643751D01*
X220639081Y-95447983D01*
X220633695Y-96120636D01*
X220625656Y-96675394D01*
X220614761Y-97125939D01*
X220600803Y-97485955D01*
X220583578Y-97769125D01*
X220562881Y-97989131D01*
X220538506Y-98159658D01*
X220510249Y-98294389D01*
X220506471Y-98309249D01*
X220435855Y-98681035D01*
X220377841Y-99170494D01*
X220341225Y-99695333D01*
X220334046Y-99922584D01*
X220316453Y-100938405D01*
X220684508Y-101275702D01*
X220908618Y-101463678D01*
X221109100Y-101565007D01*
X221364038Y-101605983D01*
X221686217Y-101613000D01*
X222468144Y-101532896D01*
X223139402Y-101295043D01*
X223602880Y-100981854D01*
X223969364Y-100663000D01*
X223959571Y-86278712D01*
X223958757Y-84091570D01*
X223959400Y-82076607D01*
X223961486Y-80236279D01*
X223964998Y-78573043D01*
X223969922Y-77089357D01*
X223976243Y-75787678D01*
X223983946Y-74670462D01*
X223993015Y-73740166D01*
X224003436Y-72999247D01*
X224015193Y-72450162D01*
X224028272Y-72095368D01*
X224042657Y-71937322D01*
X224047564Y-71928712D01*
X224179687Y-72021947D01*
G36*
X235495478Y-79953145D02*
X235712948Y-80013415D01*
X235747178Y-80025083D01*
X236036530Y-80183661D01*
X236388710Y-80459724D01*
X236759455Y-80808088D01*
X237104502Y-81183569D01*
X237379589Y-81540983D01*
X237540454Y-81835146D01*
X237550557Y-81866003D01*
X237572501Y-82000811D01*
X237591358Y-82250380D01*
X237607209Y-82623315D01*
X237620134Y-83128220D01*
X237630217Y-83773701D01*
X237637537Y-84568361D01*
X237642177Y-85520805D01*
X237644218Y-86639637D01*
X237643741Y-87933463D01*
X237640828Y-89410886D01*
X237636161Y-90913000D01*
X237630562Y-92433282D01*
X237625041Y-93766375D01*
X237619301Y-94925089D01*
X237613049Y-95922237D01*
X237605989Y-96770627D01*
X237597825Y-97483072D01*
X237588263Y-98072381D01*
X237577008Y-98551365D01*
X237563764Y-98932835D01*
X237548236Y-99229602D01*
X237530130Y-99454477D01*
X237509149Y-99620269D01*
X237484999Y-99739791D01*
X237457385Y-99825852D01*
X237429464Y-99885035D01*
X237193197Y-100203123D01*
X236889993Y-100367390D01*
X236487074Y-100409640D01*
X236215857Y-100375452D01*
X235982804Y-100251952D01*
X235731284Y-100020744D01*
X235357069Y-99635207D01*
X235354516Y-89809205D01*
X235354510Y-88425094D01*
X235355195Y-87098310D01*
X235356525Y-85842425D01*
X235358454Y-84671010D01*
X235360938Y-83597636D01*
X235363930Y-82635875D01*
X235367385Y-81799297D01*
X235371258Y-81101475D01*
X235375504Y-80555980D01*
X235380077Y-80176382D01*
X235384932Y-79976254D01*
X235387515Y-79947650D01*
X235495478Y-79953145D01*
X235495478Y-79953145D01*
G37*
X235495478Y-79953145D02*
X235712948Y-80013415D01*
X235747178Y-80025083D01*
X236036530Y-80183661D01*
X236388710Y-80459724D01*
X236759455Y-80808088D01*
X237104502Y-81183569D01*
X237379589Y-81540983D01*
X237540454Y-81835146D01*
X237550557Y-81866003D01*
X237572501Y-82000811D01*
X237591358Y-82250380D01*
X237607209Y-82623315D01*
X237620134Y-83128220D01*
X237630217Y-83773701D01*
X237637537Y-84568361D01*
X237642177Y-85520805D01*
X237644218Y-86639637D01*
X237643741Y-87933463D01*
X237640828Y-89410886D01*
X237636161Y-90913000D01*
X237630562Y-92433282D01*
X237625041Y-93766375D01*
X237619301Y-94925089D01*
X237613049Y-95922237D01*
X237605989Y-96770627D01*
X237597825Y-97483072D01*
X237588263Y-98072381D01*
X237577008Y-98551365D01*
X237563764Y-98932835D01*
X237548236Y-99229602D01*
X237530130Y-99454477D01*
X237509149Y-99620269D01*
X237484999Y-99739791D01*
X237457385Y-99825852D01*
X237429464Y-99885035D01*
X237193197Y-100203123D01*
X236889993Y-100367390D01*
X236487074Y-100409640D01*
X236215857Y-100375452D01*
X235982804Y-100251952D01*
X235731284Y-100020744D01*
X235357069Y-99635207D01*
X235354516Y-89809205D01*
X235354510Y-88425094D01*
X235355195Y-87098310D01*
X235356525Y-85842425D01*
X235358454Y-84671010D01*
X235360938Y-83597636D01*
X235363930Y-82635875D01*
X235367385Y-81799297D01*
X235371258Y-81101475D01*
X235375504Y-80555980D01*
X235380077Y-80176382D01*
X235384932Y-79976254D01*
X235387515Y-79947650D01*
X235495478Y-79953145D01*
D12*
X223211900Y-123955200D02*
X221211900Y-123955200D01*
X221211900Y-121815200D02*
X223211900Y-121815200D01*
D10*
X219723600Y-118266333D02*
X219823600Y-118299667D01*
X219990267Y-118299667D01*
X220056934Y-118266333D01*
X220090267Y-118233000D01*
X220123600Y-118166333D01*
X220123600Y-118099667D01*
X220090267Y-118033000D01*
X220056934Y-117999667D01*
X219990267Y-117966333D01*
X219856934Y-117933000D01*
X219790267Y-117899667D01*
X219756934Y-117866333D01*
X219723600Y-117799667D01*
X219723600Y-117733000D01*
X219756934Y-117666333D01*
X219790267Y-117633000D01*
X219856934Y-117599667D01*
X220023600Y-117599667D01*
X220123600Y-117633000D01*
X220423601Y-118299667D02*
X220423601Y-117599667D01*
X220590267Y-117599667D01*
X220690267Y-117633000D01*
X220756934Y-117699667D01*
X220790267Y-117766333D01*
X220823601Y-117899667D01*
X220823601Y-117999667D01*
X220790267Y-118133000D01*
X220756934Y-118199667D01*
X220690267Y-118266333D01*
X220590267Y-118299667D01*
X220423601Y-118299667D01*
X221090267Y-118099667D02*
X221423601Y-118099667D01*
X221023601Y-118299667D02*
X221256934Y-117599667D01*
X221490267Y-118299667D01*
X219740266Y-113186333D02*
X219840266Y-113219667D01*
X220006933Y-113219667D01*
X220073600Y-113186333D01*
X220106933Y-113153000D01*
X220140266Y-113086333D01*
X220140266Y-113019667D01*
X220106933Y-112953000D01*
X220073600Y-112919667D01*
X220006933Y-112886333D01*
X219873600Y-112853000D01*
X219806933Y-112819667D01*
X219773600Y-112786333D01*
X219740266Y-112719667D01*
X219740266Y-112653000D01*
X219773600Y-112586333D01*
X219806933Y-112553000D01*
X219873600Y-112519667D01*
X220040266Y-112519667D01*
X220140266Y-112553000D01*
X220840267Y-113153000D02*
X220806933Y-113186333D01*
X220706933Y-113219667D01*
X220640267Y-113219667D01*
X220540267Y-113186333D01*
X220473600Y-113119667D01*
X220440267Y-113053000D01*
X220406933Y-112919667D01*
X220406933Y-112819667D01*
X220440267Y-112686333D01*
X220473600Y-112619667D01*
X220540267Y-112553000D01*
X220640267Y-112519667D01*
X220706933Y-112519667D01*
X220806933Y-112553000D01*
X220840267Y-112586333D01*
X221473600Y-113219667D02*
X221140267Y-113219667D01*
X221140267Y-112519667D01*
X214960267Y-112553000D02*
X214893601Y-112519667D01*
X214793601Y-112519667D01*
X214693601Y-112553000D01*
X214626934Y-112619667D01*
X214593601Y-112686333D01*
X214560267Y-112819667D01*
X214560267Y-112919667D01*
X214593601Y-113053000D01*
X214626934Y-113119667D01*
X214693601Y-113186333D01*
X214793601Y-113219667D01*
X214860267Y-113219667D01*
X214960267Y-113186333D01*
X214993601Y-113153000D01*
X214993601Y-112919667D01*
X214860267Y-112919667D01*
X215293601Y-113219667D02*
X215293601Y-112519667D01*
X215693601Y-113219667D01*
X215693601Y-112519667D01*
X216026934Y-113219667D02*
X216026934Y-112519667D01*
X216193600Y-112519667D01*
X216293600Y-112553000D01*
X216360267Y-112619667D01*
X216393600Y-112686333D01*
X216426934Y-112819667D01*
X216426934Y-112919667D01*
X216393600Y-113053000D01*
X216360267Y-113119667D01*
X216293600Y-113186333D01*
X216193600Y-113219667D01*
X216026934Y-113219667D01*
X214560267Y-117599667D02*
X214793600Y-118299667D01*
X215026933Y-117599667D01*
X215660267Y-118233000D02*
X215626933Y-118266333D01*
X215526933Y-118299667D01*
X215460267Y-118299667D01*
X215360267Y-118266333D01*
X215293600Y-118199667D01*
X215260267Y-118133000D01*
X215226933Y-117999667D01*
X215226933Y-117899667D01*
X215260267Y-117766333D01*
X215293600Y-117699667D01*
X215360267Y-117633000D01*
X215460267Y-117599667D01*
X215526933Y-117599667D01*
X215626933Y-117633000D01*
X215660267Y-117666333D01*
X216360267Y-118233000D02*
X216326933Y-118266333D01*
X216226933Y-118299667D01*
X216160267Y-118299667D01*
X216060267Y-118266333D01*
X215993600Y-118199667D01*
X215960267Y-118133000D01*
X215926933Y-117999667D01*
X215926933Y-117899667D01*
X215960267Y-117766333D01*
X215993600Y-117699667D01*
X216060267Y-117633000D01*
X216160267Y-117599667D01*
X216226933Y-117599667D01*
X216326933Y-117633000D01*
X216360267Y-117666333D01*
D14*
X227340667Y-118088981D02*
X227007333Y-117612790D01*
X226769238Y-118088981D02*
X226769238Y-117088981D01*
X227150191Y-117088981D01*
X227245429Y-117136600D01*
X227293048Y-117184219D01*
X227340667Y-117279457D01*
X227340667Y-117422314D01*
X227293048Y-117517552D01*
X227245429Y-117565171D01*
X227150191Y-117612790D01*
X226769238Y-117612790D01*
X227769238Y-117565171D02*
X228102572Y-117565171D01*
X228245429Y-118088981D02*
X227769238Y-118088981D01*
X227769238Y-117088981D01*
X228245429Y-117088981D01*
X229007334Y-117565171D02*
X228674000Y-117565171D01*
X228674000Y-118088981D02*
X228674000Y-117088981D01*
X229150191Y-117088981D01*
X229674000Y-117088981D02*
X229674000Y-117327076D01*
X229435905Y-117231838D02*
X229674000Y-117327076D01*
X229912096Y-117231838D01*
X229531143Y-117517552D02*
X229674000Y-117327076D01*
X229816858Y-117517552D01*
X230435905Y-117088981D02*
X230435905Y-117327076D01*
X230197810Y-117231838D02*
X230435905Y-117327076D01*
X230674001Y-117231838D01*
X230293048Y-117517552D02*
X230435905Y-117327076D01*
X230578763Y-117517552D01*
X220878567Y-121487581D02*
X220545233Y-121011390D01*
X220307138Y-121487581D02*
X220307138Y-120487581D01*
X220688091Y-120487581D01*
X220783329Y-120535200D01*
X220830948Y-120582819D01*
X220878567Y-120678057D01*
X220878567Y-120820914D01*
X220830948Y-120916152D01*
X220783329Y-120963771D01*
X220688091Y-121011390D01*
X220307138Y-121011390D01*
X221307138Y-120963771D02*
X221640472Y-120963771D01*
X221783329Y-121487581D02*
X221307138Y-121487581D01*
X221307138Y-120487581D01*
X221783329Y-120487581D01*
X222545234Y-120963771D02*
X222211900Y-120963771D01*
X222211900Y-121487581D02*
X222211900Y-120487581D01*
X222688091Y-120487581D01*
X223211900Y-120487581D02*
X223211900Y-120725676D01*
X222973805Y-120630438D02*
X223211900Y-120725676D01*
X223449996Y-120630438D01*
X223069043Y-120916152D02*
X223211900Y-120725676D01*
X223354758Y-120916152D01*
X223973805Y-120487581D02*
X223973805Y-120725676D01*
X223735710Y-120630438D02*
X223973805Y-120725676D01*
X224211901Y-120630438D01*
X223830948Y-120916152D02*
X223973805Y-120725676D01*
X224116663Y-120916152D01*
M02*
